<?xml version="1.0" encoding="us-ascii" standalone="no"?><svg xmlns="http://www.w3.org/2000/svg" xmlns:xlink="http://www.w3.org/1999/xlink" contentStyleType="text/css" height="275px" preserveAspectRatio="none" style="width:1099px;height:275px;background:#FFFFFF;" version="1.1" viewBox="0 0 1099 275" width="1099px" zoomAndPan="magnify"><defs/><g><!--cluster measurement--><g id="cluster_measurement"><path d="M16.5,4 L113.5,4 A3.75,3.75 0 0 1 116,6.5 L123,28.6211 L1089.5,28.6211 A2.5,2.5 0 0 1 1092,31.1211 L1092,265.5 A2.5,2.5 0 0 1 1089.5,268 L16.5,268 A2.5,2.5 0 0 1 14,265.5 L14,6.5 A2.5,2.5 0 0 1 16.5,4 " fill="none" style="stroke:#000000;stroke-width:1.5;"/><line style="stroke:#000000;stroke-width:1.5;" x1="14" x2="123" y1="28.6211" y2="28.6211"/><text fill="#000000" font-family="sans-serif" font-size="14" font-weight="bold" lengthAdjust="spacing" textLength="96" x="18" y="21.1074">measurement</text></g><!--class Measurement--><g id="elem_Measurement"><rect codeLine="4" fill="#F1F1F1" height="76.543" id="Measurement" rx="2.5" ry="2.5" style="stroke:#181818;stroke-width:0.5;" width="118" x="450" y="33"/><ellipse cx="465" cy="63.2715" fill="#ADD1B2" rx="11" ry="11" style="stroke:#181818;stroke-width:1.0;"/><path d="M467.7656,59.1465 Q467.9219,58.9277 468.1094,58.8184 Q468.2969,58.709 468.5156,58.709 Q468.8906,58.709 469.125,58.9746 Q469.3594,59.2246 469.3594,59.834 L469.3594,61.2871 Q469.3594,61.8965 469.125,62.1621 Q468.8906,62.4277 468.5156,62.4277 Q468.1719,62.4277 467.9688,62.2246 Q467.7656,62.0371 467.6563,61.5215 Q467.6094,61.1621 467.4219,60.9746 Q467.0938,60.5996 466.4844,60.3809 Q465.875,60.1621 465.25,60.1621 Q464.4844,60.1621 463.8438,60.4902 Q463.2188,60.8184 462.7188,61.5684 Q462.2344,62.3184 462.2344,63.3496 L462.2344,64.4434 Q462.2344,65.6777 463.125,66.5059 Q464.0156,67.3184 465.6094,67.3184 Q466.5469,67.3184 467.2031,67.0684 Q467.5938,66.9121 468.0156,66.4746 Q468.2813,66.209 468.4219,66.1309 Q468.5781,66.0527 468.7813,66.0527 Q469.1094,66.0527 469.3594,66.3184 Q469.625,66.5684 469.625,66.9121 Q469.625,67.2559 469.2813,67.6621 Q468.7813,68.2402 467.9844,68.5684 Q466.9063,69.0215 465.6094,69.0215 Q464.0938,69.0215 462.8906,68.3965 Q461.9063,67.8965 461.2188,66.834 Q460.5313,65.7559 460.5313,64.4746 L460.5313,63.3184 Q460.5313,61.9902 461.1406,60.8496 Q461.7656,59.6934 462.8594,59.084 Q463.9531,58.459 465.1875,58.459 Q465.9219,58.459 466.5625,58.6309 Q467.2188,58.7871 467.7656,59.1465 Z " fill="#000000"/><text fill="#000000" font-family="sans-serif" font-size="12" font-style="italic" lengthAdjust="spacing" textLength="44" x="500" y="50.9492">&#171;Entity&#187;</text><text fill="#000000" font-family="sans-serif" font-size="12" font-style="italic" lengthAdjust="spacing" textLength="40" x="502" y="66.9102">&#171;Root&#187;</text><text fill="#000000" font-family="sans-serif" font-size="14" lengthAdjust="spacing" textLength="86" x="479" y="85.0293">Measurement</text><line style="stroke:#181818;stroke-width:0.5;" x1="451" x2="567" y1="93.543" y2="93.543"/><line style="stroke:#181818;stroke-width:0.5;" x1="451" x2="567" y1="101.543" y2="101.543"/></g><!--class LogID--><g id="elem_LogID"><rect codeLine="6" fill="#F1F1F1" height="95.1641" id="LogID" rx="2.5" ry="2.5" style="stroke:#181818;stroke-width:0.5;" width="110" x="22" y="165"/><ellipse cx="37" cy="195.2715" fill="#ADD1B2" rx="11" ry="11" style="stroke:#181818;stroke-width:1.0;"/><path d="M39.7656,191.1465 Q39.9219,190.9277 40.1094,190.8184 Q40.2969,190.709 40.5156,190.709 Q40.8906,190.709 41.125,190.9746 Q41.3594,191.2246 41.3594,191.834 L41.3594,193.2871 Q41.3594,193.8965 41.125,194.1621 Q40.8906,194.4277 40.5156,194.4277 Q40.1719,194.4277 39.9688,194.2246 Q39.7656,194.0371 39.6563,193.5215 Q39.6094,193.1621 39.4219,192.9746 Q39.0938,192.5996 38.4844,192.3809 Q37.875,192.1621 37.25,192.1621 Q36.4844,192.1621 35.8438,192.4902 Q35.2188,192.8184 34.7188,193.5684 Q34.2344,194.3184 34.2344,195.3496 L34.2344,196.4434 Q34.2344,197.6777 35.125,198.5059 Q36.0156,199.3184 37.6094,199.3184 Q38.5469,199.3184 39.2031,199.0684 Q39.5938,198.9121 40.0156,198.4746 Q40.2813,198.209 40.4219,198.1309 Q40.5781,198.0527 40.7813,198.0527 Q41.1094,198.0527 41.3594,198.3184 Q41.625,198.5684 41.625,198.9121 Q41.625,199.2559 41.2813,199.6621 Q40.7813,200.2402 39.9844,200.5684 Q38.9063,201.0215 37.6094,201.0215 Q36.0938,201.0215 34.8906,200.3965 Q33.9063,199.8965 33.2188,198.834 Q32.5313,197.7559 32.5313,196.4746 L32.5313,195.3184 Q32.5313,193.9902 33.1406,192.8496 Q33.7656,191.6934 34.8594,191.084 Q35.9531,190.459 37.1875,190.459 Q37.9219,190.459 38.5625,190.6309 Q39.2188,190.7871 39.7656,191.1465 Z " fill="#000000"/><text fill="#000000" font-family="sans-serif" font-size="12" font-style="italic" lengthAdjust="spacing" textLength="82" x="49" y="182.9492">&#171;ValueObject&#187;</text><text fill="#000000" font-family="sans-serif" font-size="12" font-style="italic" lengthAdjust="spacing" textLength="27" x="76.5" y="198.9102">&#171;ID&#187;</text><text fill="#000000" font-family="sans-serif" font-size="14" lengthAdjust="spacing" textLength="37" x="71.5" y="217.0293">LogID</text><line style="stroke:#181818;stroke-width:0.5;" x1="23" x2="131" y1="225.543" y2="225.543"/><rect fill="none" height="6" style="stroke:#C82930;stroke-width:1.0;" width="6" x="30" y="237.3535"/><text fill="#000000" font-family="sans-serif" font-size="14" lengthAdjust="spacing" textLength="68" x="42" y="244.6504">_id : String</text><line style="stroke:#181818;stroke-width:0.5;" x1="23" x2="131" y1="252.1641" y2="252.1641"/></g><!--class DeviceID--><g id="elem_DeviceID"><rect codeLine="9" fill="#F1F1F1" height="95.1641" id="DeviceID" rx="2.5" ry="2.5" style="stroke:#181818;stroke-width:0.5;" width="110" x="150" y="165"/><ellipse cx="165" cy="195.2715" fill="#ADD1B2" rx="11" ry="11" style="stroke:#181818;stroke-width:1.0;"/><path d="M167.7656,191.1465 Q167.9219,190.9277 168.1094,190.8184 Q168.2969,190.709 168.5156,190.709 Q168.8906,190.709 169.125,190.9746 Q169.3594,191.2246 169.3594,191.834 L169.3594,193.2871 Q169.3594,193.8965 169.125,194.1621 Q168.8906,194.4277 168.5156,194.4277 Q168.1719,194.4277 167.9688,194.2246 Q167.7656,194.0371 167.6563,193.5215 Q167.6094,193.1621 167.4219,192.9746 Q167.0938,192.5996 166.4844,192.3809 Q165.875,192.1621 165.25,192.1621 Q164.4844,192.1621 163.8438,192.4902 Q163.2188,192.8184 162.7188,193.5684 Q162.2344,194.3184 162.2344,195.3496 L162.2344,196.4434 Q162.2344,197.6777 163.125,198.5059 Q164.0156,199.3184 165.6094,199.3184 Q166.5469,199.3184 167.2031,199.0684 Q167.5938,198.9121 168.0156,198.4746 Q168.2813,198.209 168.4219,198.1309 Q168.5781,198.0527 168.7813,198.0527 Q169.1094,198.0527 169.3594,198.3184 Q169.625,198.5684 169.625,198.9121 Q169.625,199.2559 169.2813,199.6621 Q168.7813,200.2402 167.9844,200.5684 Q166.9063,201.0215 165.6094,201.0215 Q164.0938,201.0215 162.8906,200.3965 Q161.9063,199.8965 161.2188,198.834 Q160.5313,197.7559 160.5313,196.4746 L160.5313,195.3184 Q160.5313,193.9902 161.1406,192.8496 Q161.7656,191.6934 162.8594,191.084 Q163.9531,190.459 165.1875,190.459 Q165.9219,190.459 166.5625,190.6309 Q167.2188,190.7871 167.7656,191.1465 Z " fill="#000000"/><text fill="#000000" font-family="sans-serif" font-size="12" font-style="italic" lengthAdjust="spacing" textLength="82" x="177" y="182.9492">&#171;ValueObject&#187;</text><text fill="#000000" font-family="sans-serif" font-size="12" font-style="italic" lengthAdjust="spacing" textLength="27" x="204.5" y="198.9102">&#171;ID&#187;</text><text fill="#000000" font-family="sans-serif" font-size="14" lengthAdjust="spacing" textLength="56" x="190" y="217.0293">DeviceID</text><line style="stroke:#181818;stroke-width:0.5;" x1="151" x2="259" y1="225.543" y2="225.543"/><rect fill="none" height="6" style="stroke:#C82930;stroke-width:1.0;" width="6" x="158" y="237.3535"/><text fill="#000000" font-family="sans-serif" font-size="14" lengthAdjust="spacing" textLength="68" x="170" y="244.6504">_id : String</text><line style="stroke:#181818;stroke-width:0.5;" x1="151" x2="259" y1="252.1641" y2="252.1641"/></g><!--class SensorID--><g id="elem_SensorID"><rect codeLine="12" fill="#F1F1F1" height="95.1641" id="SensorID" rx="2.5" ry="2.5" style="stroke:#181818;stroke-width:0.5;" width="110" x="278" y="165"/><ellipse cx="293" cy="195.2715" fill="#ADD1B2" rx="11" ry="11" style="stroke:#181818;stroke-width:1.0;"/><path d="M295.7656,191.1465 Q295.9219,190.9277 296.1094,190.8184 Q296.2969,190.709 296.5156,190.709 Q296.8906,190.709 297.125,190.9746 Q297.3594,191.2246 297.3594,191.834 L297.3594,193.2871 Q297.3594,193.8965 297.125,194.1621 Q296.8906,194.4277 296.5156,194.4277 Q296.1719,194.4277 295.9688,194.2246 Q295.7656,194.0371 295.6563,193.5215 Q295.6094,193.1621 295.4219,192.9746 Q295.0938,192.5996 294.4844,192.3809 Q293.875,192.1621 293.25,192.1621 Q292.4844,192.1621 291.8438,192.4902 Q291.2188,192.8184 290.7188,193.5684 Q290.2344,194.3184 290.2344,195.3496 L290.2344,196.4434 Q290.2344,197.6777 291.125,198.5059 Q292.0156,199.3184 293.6094,199.3184 Q294.5469,199.3184 295.2031,199.0684 Q295.5938,198.9121 296.0156,198.4746 Q296.2813,198.209 296.4219,198.1309 Q296.5781,198.0527 296.7813,198.0527 Q297.1094,198.0527 297.3594,198.3184 Q297.625,198.5684 297.625,198.9121 Q297.625,199.2559 297.2813,199.6621 Q296.7813,200.2402 295.9844,200.5684 Q294.9063,201.0215 293.6094,201.0215 Q292.0938,201.0215 290.8906,200.3965 Q289.9063,199.8965 289.2188,198.834 Q288.5313,197.7559 288.5313,196.4746 L288.5313,195.3184 Q288.5313,193.9902 289.1406,192.8496 Q289.7656,191.6934 290.8594,191.084 Q291.9531,190.459 293.1875,190.459 Q293.9219,190.459 294.5625,190.6309 Q295.2188,190.7871 295.7656,191.1465 Z " fill="#000000"/><text fill="#000000" font-family="sans-serif" font-size="12" font-style="italic" lengthAdjust="spacing" textLength="82" x="305" y="182.9492">&#171;ValueObject&#187;</text><text fill="#000000" font-family="sans-serif" font-size="12" font-style="italic" lengthAdjust="spacing" textLength="27" x="332.5" y="198.9102">&#171;ID&#187;</text><text fill="#000000" font-family="sans-serif" font-size="14" lengthAdjust="spacing" textLength="58" x="317" y="217.0293">SensorID</text><line style="stroke:#181818;stroke-width:0.5;" x1="279" x2="387" y1="225.543" y2="225.543"/><rect fill="none" height="6" style="stroke:#C82930;stroke-width:1.0;" width="6" x="286" y="237.3535"/><text fill="#000000" font-family="sans-serif" font-size="14" lengthAdjust="spacing" textLength="68" x="298" y="244.6504">_id : String</text><line style="stroke:#181818;stroke-width:0.5;" x1="279" x2="387" y1="252.1641" y2="252.1641"/></g><!--class TimeStamp--><g id="elem_TimeStamp"><rect codeLine="15" fill="#F1F1F1" height="79.2031" id="TimeStamp" rx="2.5" ry="2.5" style="stroke:#181818;stroke-width:0.5;" width="205" x="406.5" y="173"/><ellipse cx="465.75" cy="195.291" fill="#ADD1B2" rx="11" ry="11" style="stroke:#181818;stroke-width:1.0;"/><path d="M468.5156,191.166 Q468.6719,190.9473 468.8594,190.8379 Q469.0469,190.7285 469.2656,190.7285 Q469.6406,190.7285 469.875,190.9941 Q470.1094,191.2441 470.1094,191.8535 L470.1094,193.3066 Q470.1094,193.916 469.875,194.1816 Q469.6406,194.4473 469.2656,194.4473 Q468.9219,194.4473 468.7188,194.2441 Q468.5156,194.0566 468.4063,193.541 Q468.3594,193.1816 468.1719,192.9941 Q467.8438,192.6191 467.2344,192.4004 Q466.625,192.1816 466,192.1816 Q465.2344,192.1816 464.5938,192.5098 Q463.9688,192.8379 463.4688,193.5879 Q462.9844,194.3379 462.9844,195.3691 L462.9844,196.4629 Q462.9844,197.6973 463.875,198.5254 Q464.7656,199.3379 466.3594,199.3379 Q467.2969,199.3379 467.9531,199.0879 Q468.3438,198.9316 468.7656,198.4941 Q469.0313,198.2285 469.1719,198.1504 Q469.3281,198.0723 469.5313,198.0723 Q469.8594,198.0723 470.1094,198.3379 Q470.375,198.5879 470.375,198.9316 Q470.375,199.2754 470.0313,199.6816 Q469.5313,200.2598 468.7344,200.5879 Q467.6563,201.041 466.3594,201.041 Q464.8438,201.041 463.6406,200.416 Q462.6563,199.916 461.9688,198.8535 Q461.2813,197.7754 461.2813,196.4941 L461.2813,195.3379 Q461.2813,194.0098 461.8906,192.8691 Q462.5156,191.7129 463.6094,191.1035 Q464.7031,190.4785 465.9375,190.4785 Q466.6719,190.4785 467.3125,190.6504 Q467.9688,190.8066 468.5156,191.166 Z " fill="#000000"/><text fill="#000000" font-family="sans-serif" font-size="12" font-style="italic" lengthAdjust="spacing" textLength="82" x="484.25" y="190.9492">&#171;ValueObject&#187;</text><text fill="#000000" font-family="sans-serif" font-size="14" lengthAdjust="spacing" textLength="71" x="489.75" y="209.0684">TimeStamp</text><line style="stroke:#181818;stroke-width:0.5;" x1="407.5" x2="610.5" y1="217.582" y2="217.582"/><rect fill="none" height="6" style="stroke:#C82930;stroke-width:1.0;" width="6" x="414.5" y="229.3926"/><text fill="#000000" font-family="sans-serif" font-size="14" lengthAdjust="spacing" textLength="179" x="426.5" y="236.6895">_timestamp : LocalDateTime</text><line style="stroke:#181818;stroke-width:0.5;" x1="407.5" x2="610.5" y1="244.2031" y2="244.2031"/></g><!--class SensorValue--><g id="elem_SensorValue"><rect codeLine="18" fill="#F1F1F1" height="79.2031" id="SensorValue" rx="2.5" ry="2.5" style="stroke:#181818;stroke-width:0.5;" width="156" x="630" y="173"/><ellipse cx="664.35" cy="195.291" fill="#ADD1B2" rx="11" ry="11" style="stroke:#181818;stroke-width:1.0;"/><path d="M667.1156,191.166 Q667.2719,190.9473 667.4594,190.8379 Q667.6469,190.7285 667.8656,190.7285 Q668.2406,190.7285 668.475,190.9941 Q668.7094,191.2441 668.7094,191.8535 L668.7094,193.3066 Q668.7094,193.916 668.475,194.1816 Q668.2406,194.4473 667.8656,194.4473 Q667.5219,194.4473 667.3188,194.2441 Q667.1156,194.0566 667.0063,193.541 Q666.9594,193.1816 666.7719,192.9941 Q666.4438,192.6191 665.8344,192.4004 Q665.225,192.1816 664.6,192.1816 Q663.8344,192.1816 663.1938,192.5098 Q662.5688,192.8379 662.0688,193.5879 Q661.5844,194.3379 661.5844,195.3691 L661.5844,196.4629 Q661.5844,197.6973 662.475,198.5254 Q663.3656,199.3379 664.9594,199.3379 Q665.8969,199.3379 666.5531,199.0879 Q666.9438,198.9316 667.3656,198.4941 Q667.6313,198.2285 667.7719,198.1504 Q667.9281,198.0723 668.1313,198.0723 Q668.4594,198.0723 668.7094,198.3379 Q668.975,198.5879 668.975,198.9316 Q668.975,199.2754 668.6313,199.6816 Q668.1313,200.2598 667.3344,200.5879 Q666.2563,201.041 664.9594,201.041 Q663.4438,201.041 662.2406,200.416 Q661.2563,199.916 660.5688,198.8535 Q659.8813,197.7754 659.8813,196.4941 L659.8813,195.3379 Q659.8813,194.0098 660.4906,192.8691 Q661.1156,191.7129 662.2094,191.1035 Q663.3031,190.4785 664.5375,190.4785 Q665.2719,190.4785 665.9125,190.6504 Q666.5688,190.8066 667.1156,191.166 Z " fill="#000000"/><text fill="#000000" font-family="sans-serif" font-size="12" font-style="italic" lengthAdjust="spacing" textLength="82" x="682.15" y="190.9492">&#171;ValueObject&#187;</text><text fill="#000000" font-family="sans-serif" font-size="14" lengthAdjust="spacing" textLength="81" x="682.65" y="209.0684">SensorValue</text><line style="stroke:#181818;stroke-width:0.5;" x1="631" x2="785" y1="217.582" y2="217.582"/><rect fill="none" height="6" style="stroke:#C82930;stroke-width:1.0;" width="6" x="638" y="229.3926"/><text fill="#000000" font-family="sans-serif" font-size="14" lengthAdjust="spacing" textLength="130" x="650" y="236.6895">_value : anyPrimitive</text><line style="stroke:#181818;stroke-width:0.5;" x1="631" x2="785" y1="244.2031" y2="244.2031"/></g><!--class TypeDescription--><g id="elem_TypeDescription"><rect codeLine="21" fill="#F1F1F1" height="79.2031" id="TypeDescription" rx="2.5" ry="2.5" style="stroke:#181818;stroke-width:0.5;" width="152" x="804" y="173"/><ellipse cx="826.65" cy="195.291" fill="#ADD1B2" rx="11" ry="11" style="stroke:#181818;stroke-width:1.0;"/><path d="M829.4156,191.166 Q829.5719,190.9473 829.7594,190.8379 Q829.9469,190.7285 830.1656,190.7285 Q830.5406,190.7285 830.775,190.9941 Q831.0094,191.2441 831.0094,191.8535 L831.0094,193.3066 Q831.0094,193.916 830.775,194.1816 Q830.5406,194.4473 830.1656,194.4473 Q829.8219,194.4473 829.6188,194.2441 Q829.4156,194.0566 829.3063,193.541 Q829.2594,193.1816 829.0719,192.9941 Q828.7438,192.6191 828.1344,192.4004 Q827.525,192.1816 826.9,192.1816 Q826.1344,192.1816 825.4938,192.5098 Q824.8688,192.8379 824.3688,193.5879 Q823.8844,194.3379 823.8844,195.3691 L823.8844,196.4629 Q823.8844,197.6973 824.775,198.5254 Q825.6656,199.3379 827.2594,199.3379 Q828.1969,199.3379 828.8531,199.0879 Q829.2438,198.9316 829.6656,198.4941 Q829.9313,198.2285 830.0719,198.1504 Q830.2281,198.0723 830.4313,198.0723 Q830.7594,198.0723 831.0094,198.3379 Q831.275,198.5879 831.275,198.9316 Q831.275,199.2754 830.9313,199.6816 Q830.4313,200.2598 829.6344,200.5879 Q828.5563,201.041 827.2594,201.041 Q825.7438,201.041 824.5406,200.416 Q823.5563,199.916 822.8688,198.8535 Q822.1813,197.7754 822.1813,196.4941 L822.1813,195.3379 Q822.1813,194.0098 822.7906,192.8691 Q823.4156,191.7129 824.5094,191.1035 Q825.6031,190.4785 826.8375,190.4785 Q827.5719,190.4785 828.2125,190.6504 Q828.8688,190.8066 829.4156,191.166 Z " fill="#000000"/><text fill="#000000" font-family="sans-serif" font-size="12" font-style="italic" lengthAdjust="spacing" textLength="82" x="852.85" y="190.9492">&#171;ValueObject&#187;</text><text fill="#000000" font-family="sans-serif" font-size="14" lengthAdjust="spacing" textLength="103" x="842.35" y="209.0684">TypeDescription</text><line style="stroke:#181818;stroke-width:0.5;" x1="805" x2="955" y1="217.582" y2="217.582"/><rect fill="none" height="6" style="stroke:#C82930;stroke-width:1.0;" width="6" x="812" y="229.3926"/><text fill="#000000" font-family="sans-serif" font-size="14" lengthAdjust="spacing" textLength="126" x="824" y="236.6895">_description : String</text><line style="stroke:#181818;stroke-width:0.5;" x1="805" x2="955" y1="244.2031" y2="244.2031"/></g><!--class Unit--><g id="elem_Unit"><rect codeLine="24" fill="#F1F1F1" height="79.2031" id="Unit" rx="2.5" ry="2.5" style="stroke:#181818;stroke-width:0.5;" width="110" x="974" y="173"/><ellipse cx="989" cy="195.291" fill="#ADD1B2" rx="11" ry="11" style="stroke:#181818;stroke-width:1.0;"/><path d="M991.7656,191.166 Q991.9219,190.9473 992.1094,190.8379 Q992.2969,190.7285 992.5156,190.7285 Q992.8906,190.7285 993.125,190.9941 Q993.3594,191.2441 993.3594,191.8535 L993.3594,193.3066 Q993.3594,193.916 993.125,194.1816 Q992.8906,194.4473 992.5156,194.4473 Q992.1719,194.4473 991.9688,194.2441 Q991.7656,194.0566 991.6563,193.541 Q991.6094,193.1816 991.4219,192.9941 Q991.0938,192.6191 990.4844,192.4004 Q989.875,192.1816 989.25,192.1816 Q988.4844,192.1816 987.8438,192.5098 Q987.2188,192.8379 986.7188,193.5879 Q986.2344,194.3379 986.2344,195.3691 L986.2344,196.4629 Q986.2344,197.6973 987.125,198.5254 Q988.0156,199.3379 989.6094,199.3379 Q990.5469,199.3379 991.2031,199.0879 Q991.5938,198.9316 992.0156,198.4941 Q992.2813,198.2285 992.4219,198.1504 Q992.5781,198.0723 992.7813,198.0723 Q993.1094,198.0723 993.3594,198.3379 Q993.625,198.5879 993.625,198.9316 Q993.625,199.2754 993.2813,199.6816 Q992.7813,200.2598 991.9844,200.5879 Q990.9063,201.041 989.6094,201.041 Q988.0938,201.041 986.8906,200.416 Q985.9063,199.916 985.2188,198.8535 Q984.5313,197.7754 984.5313,196.4941 L984.5313,195.3379 Q984.5313,194.0098 985.1406,192.8691 Q985.7656,191.7129 986.8594,191.1035 Q987.9531,190.4785 989.1875,190.4785 Q989.9219,190.4785 990.5625,190.6504 Q991.2188,190.8066 991.7656,191.166 Z " fill="#000000"/><text fill="#000000" font-family="sans-serif" font-size="12" font-style="italic" lengthAdjust="spacing" textLength="82" x="1001" y="190.9492">&#171;ValueObject&#187;</text><text fill="#000000" font-family="sans-serif" font-size="14" lengthAdjust="spacing" textLength="24" x="1030" y="209.0684">Unit</text><line style="stroke:#181818;stroke-width:0.5;" x1="975" x2="1083" y1="217.582" y2="217.582"/><rect fill="none" height="6" style="stroke:#C82930;stroke-width:1.0;" width="6" x="982" y="229.3926"/><text fill="#000000" font-family="sans-serif" font-size="14" lengthAdjust="spacing" textLength="80" x="994" y="236.6895">_unit : String</text><line style="stroke:#181818;stroke-width:0.5;" x1="975" x2="1083" y1="244.2031" y2="244.2031"/></g><path d="M509,110.1154 C509,129.5725 509,153.2863 509,172.8861 " fill="none" style="stroke:#181818;stroke-width:1.0;"/><text fill="#000000" font-family="sans-serif" font-size="13" lengthAdjust="spacing" textLength="21" x="510" y="143.0283">has</text><text fill="#000000" font-family="sans-serif" font-size="13" lengthAdjust="spacing" textLength="7" x="501" y="168.9144">1</text><text fill="#000000" font-family="sans-serif" font-size="13" lengthAdjust="spacing" textLength="7" x="501" y="125.1437">1</text><path d="M449.8981,90.4841 C400.1265,106.7419 327.8426,132.9991 269,165 C266.1043,166.5748 263.1891,168.263 260.2834,170.0295 " fill="none" style="stroke:#181818;stroke-width:1.0;"/><text fill="#000000" font-family="sans-serif" font-size="13" lengthAdjust="spacing" textLength="21" x="346" y="143.0283">has</text><text fill="#000000" font-family="sans-serif" font-size="13" lengthAdjust="spacing" textLength="7" x="261.2834" y="166.0578">1</text><text fill="#000000" font-family="sans-serif" font-size="13" lengthAdjust="spacing" textLength="7" x="441.8981" y="105.5124">1</text><path d="M461.3719,110.1154 C438.7716,127.9645 411.6356,149.3957 388.1462,167.947 " fill="none" style="stroke:#181818;stroke-width:1.0;"/><text fill="#000000" font-family="sans-serif" font-size="13" lengthAdjust="spacing" textLength="21" x="437" y="143.0283">has</text><text fill="#000000" font-family="sans-serif" font-size="13" lengthAdjust="spacing" textLength="7" x="389.1462" y="163.9754">1</text><text fill="#000000" font-family="sans-serif" font-size="13" lengthAdjust="spacing" textLength="7" x="462.3719" y="125.1437">1</text><path d="M562.8523,110.1154 C590.7081,129.5725 624.6581,153.2863 652.7182,172.8861 " fill="none" style="stroke:#181818;stroke-width:1.0;"/><text fill="#000000" font-family="sans-serif" font-size="13" lengthAdjust="spacing" textLength="21" x="615" y="143.0283">has</text><text fill="#000000" font-family="sans-serif" font-size="13" lengthAdjust="spacing" textLength="7" x="644.7182" y="168.9144">1</text><text fill="#000000" font-family="sans-serif" font-size="13" lengthAdjust="spacing" textLength="7" x="554.8523" y="125.1437">1</text><path d="M449.8357,80.0157 C375.0231,91.1417 243.6066,116.1619 141,165 C138.0237,166.4166 135.043,167.9763 132.0848,169.6398 " fill="none" style="stroke:#181818;stroke-width:1.0;"/><text fill="#000000" font-family="sans-serif" font-size="13" lengthAdjust="spacing" textLength="21" x="229" y="143.0283">has</text><text fill="#000000" font-family="sans-serif" font-size="13" lengthAdjust="spacing" textLength="7" x="133.0848" y="165.6681">1</text><text fill="#000000" font-family="sans-serif" font-size="13" lengthAdjust="spacing" textLength="7" x="441.8357" y="76.044">1</text><path d="M568.2436,88.1397 C626.9232,104.444 718.7936,132.1773 795,165 C800.5616,167.3954 806.2398,170.0367 811.892,172.8073 " fill="none" style="stroke:#181818;stroke-width:1.0;"/><text fill="#000000" font-family="sans-serif" font-size="13" lengthAdjust="spacing" textLength="21" x="750" y="143.0283">has</text><text fill="#000000" font-family="sans-serif" font-size="13" lengthAdjust="spacing" textLength="7" x="803.892" y="168.8356">1</text><text fill="#000000" font-family="sans-serif" font-size="13" lengthAdjust="spacing" textLength="7" x="569.2436" y="103.168">1</text><path d="M568.279,76.4492 C657.6708,84.1582 830.7859,105.9896 965,165 C970.1548,167.2664 975.3,169.9996 980.3066,172.9919 " fill="none" style="stroke:#181818;stroke-width:1.0;"/><text fill="#000000" font-family="sans-serif" font-size="13" lengthAdjust="spacing" textLength="21" x="919" y="143.0283">has</text><text fill="#000000" font-family="sans-serif" font-size="13" lengthAdjust="spacing" textLength="7" x="972.3066" y="169.0202">1</text><text fill="#000000" font-family="sans-serif" font-size="13" lengthAdjust="spacing" textLength="7" x="569.279" y="72.4775">1</text><!--SRC=[hPAnQiCm48PtFyKrkuUk9cHoXq1BIvraBLVbSDLOaf7E1bFwxfNbuZes5XqY11BYku_JBztL5ak5K65d6WQdY55ZajGeBbWIA4BNM5Aa6RuIy4DKw1myJSwtsmVDahlTpczVZM6_6TZlISMZAVUv1qvODVJy_ac2Gy4-7_5-fF0cpv11mLRgSc79gPM2RY0gI3jZRo0wI4K5eweNfYi5Uym5BFDH2AnoPEfhLpeBghdoojW68WFKtOkLIh9ibx93LrDEJbXPipGwtkDv0gxUzwWbnpLDJypg4p-dVsPplu4q3SjVW1bye5l3nfUFKkEp_eCw_GOO0OTF6qNc2KVXun1DJoG_]--></g></svg>