<?xml version="1.0" encoding="us-ascii" standalone="no"?><svg xmlns="http://www.w3.org/2000/svg" xmlns:xlink="http://www.w3.org/1999/xlink" contentStyleType="text/css" height="501px" preserveAspectRatio="none" style="width:1531px;height:501px;background:#FFFFFF;" version="1.1" viewBox="0 0 1531 501" width="1531px" zoomAndPan="magnify"><defs/><g><!--cluster domain--><g id="cluster_domain"><path d="M8.25,2 L34.25,2 A1.875,1.875 0 0 1 35.5,3.25 L39,14.3105 L979.75,14.3105 A1.25,1.25 0 0 1 981,15.5605 L981,360.25 A1.25,1.25 0 0 1 979.75,361.5 L8.25,361.5 A1.25,1.25 0 0 1 7,360.25 L7,3.25 A1.25,1.25 0 0 1 8.25,2 " fill="none" style="stroke:#000000;stroke-width:0.75;"/><line style="stroke:#000000;stroke-width:0.75;" x1="7" x2="39" y1="14.3105" y2="14.3105"/><text fill="#000000" font-family="sans-serif" font-size="7" font-weight="bold" lengthAdjust="spacing" textLength="25.5" x="9" y="10.5537">domain</text></g><!--cluster sensor--><g id="cluster_sensor"><path d="M12.25,16.5 L37.25,16.5 A1.875,1.875 0 0 1 38.5,17.75 L42,28.8105 L837.75,28.8105 A1.25,1.25 0 0 1 839,30.0605 L839,356.25 A1.25,1.25 0 0 1 837.75,357.5 L12.25,357.5 A1.25,1.25 0 0 1 11,356.25 L11,17.75 A1.25,1.25 0 0 1 12.25,16.5 " fill="none" style="stroke:#000000;stroke-width:0.75;"/><line style="stroke:#000000;stroke-width:0.75;" x1="11" x2="42" y1="28.8105" y2="28.8105"/><text fill="#000000" font-family="sans-serif" font-size="7" font-weight="bold" lengthAdjust="spacing" textLength="24.5" x="13" y="25.0537">sensor</text></g><!--cluster value--><g id="cluster_value"><path d="M844.25,268.5 L864.25,268.5 A1.875,1.875 0 0 1 865.5,269.75 L869,280.8105 L975.75,280.8105 A1.25,1.25 0 0 1 977,282.0605 L977,337.75 A1.25,1.25 0 0 1 975.75,339 L844.25,339 A1.25,1.25 0 0 1 843,337.75 L843,269.75 A1.25,1.25 0 0 1 844.25,268.5 " fill="none" style="stroke:#000000;stroke-width:0.75;"/><line style="stroke:#000000;stroke-width:0.75;" x1="843" x2="869" y1="280.8105" y2="280.8105"/><text fill="#000000" font-family="sans-serif" font-size="7" font-weight="bold" lengthAdjust="spacing" textLength="19.5" x="845" y="277.0537">value</text></g><!--cluster valueObject--><g id="cluster_valueObject"><path d="M986.25,268.5 L1029.25,268.5 A1.875,1.875 0 0 1 1030.5,269.75 L1034,280.8105 L1526.25,280.8105 A1.25,1.25 0 0 1 1527.5,282.0605 L1527.5,337.75 A1.25,1.25 0 0 1 1526.25,339 L986.25,339 A1.25,1.25 0 0 1 985,337.75 L985,269.75 A1.25,1.25 0 0 1 986.25,268.5 " fill="none" style="stroke:#000000;stroke-width:0.75;"/><line style="stroke:#000000;stroke-width:0.75;" x1="985" x2="1034" y1="280.8105" y2="280.8105"/><text fill="#000000" font-family="sans-serif" font-size="7" font-weight="bold" lengthAdjust="spacing" textLength="42.5" x="987" y="277.0537">valueObject</text></g><!--cluster ddd--><g id="cluster_ddd"><path d="M1071.25,370 L1085.25,370 A1.875,1.875 0 0 1 1086.5,371.25 L1090,382.3105 L1144.75,382.3105 A1.25,1.25 0 0 1 1146,383.5605 L1146,496.25 A1.25,1.25 0 0 1 1144.75,497.5 L1071.25,497.5 A1.25,1.25 0 0 1 1070,496.25 L1070,371.25 A1.25,1.25 0 0 1 1071.25,370 " fill="none" style="stroke:#000000;stroke-width:0.75;"/><line style="stroke:#000000;stroke-width:0.75;" x1="1070" x2="1090" y1="382.3105" y2="382.3105"/><text fill="#000000" font-family="sans-serif" font-size="7" font-weight="bold" lengthAdjust="spacing" textLength="13.5" x="1072" y="378.5537">ddd</text></g><!--class Sensor--><g id="elem_Sensor"><rect codeLine="4" fill="#F1F1F1" height="89.1738" id="Sensor" rx="1.25" ry="1.25" style="stroke:#181818;stroke-width:0.25;" width="122" x="644.5" y="264.5"/><ellipse cx="692.125" cy="272.5" fill="#B4A7E5" rx="5.5" ry="5.5" style="stroke:#181818;stroke-width:0.5;"/><path d="M692.6016,270.8203 L692.6016,274.1484 L693.4609,274.1484 Q693.7656,274.1484 693.8984,274.2656 Q694.0313,274.3828 694.0313,274.5781 Q694.0313,274.7656 693.8984,274.8828 Q693.7656,275 693.4609,275 L690.8906,275 Q690.5859,275 690.4531,274.8828 Q690.3203,274.7656 690.3203,274.5703 Q690.3203,274.3828 690.4531,274.2656 Q690.5859,274.1484 690.8906,274.1484 L691.75,274.1484 L691.75,270.8203 L690.8906,270.8203 Q690.5859,270.8203 690.4531,270.7031 Q690.3203,270.5859 690.3203,270.3906 Q690.3203,270.2031 690.4531,270.0859 Q690.5859,269.9688 690.8906,269.9688 L693.4609,269.9688 Q693.7656,269.9688 693.8984,270.0859 Q694.0313,270.2031 694.0313,270.3906 Q694.0313,270.5859 693.8984,270.7031 Q693.7656,270.8203 693.4609,270.8203 L692.6016,270.8203 Z " fill="#000000"/><text fill="#000000" font-family="sans-serif" font-size="7" font-style="italic" lengthAdjust="spacing" textLength="22.5" x="702.375" y="275.3984">Sensor</text><line style="stroke:#181818;stroke-width:0.25;" x1="645" x2="766" y1="280.5" y2="280.5"/><line style="stroke:#181818;stroke-width:0.25;" x1="645" x2="766" y1="284.5" y2="284.5"/><ellipse cx="650" cy="291.9053" fill="#84BE84" rx="1.5" ry="1.5" style="stroke:#038048;stroke-width:0.5;"/><text fill="#000000" font-family="sans-serif" font-size="7" lengthAdjust="spacing" textLength="54.5" x="654.5" y="294.0537">getID(): SensorID</text><ellipse cx="650" cy="301.2158" fill="#84BE84" rx="1.5" ry="1.5" style="stroke:#038048;stroke-width:0.5;"/><text fill="#000000" font-family="sans-serif" font-size="7" lengthAdjust="spacing" textLength="77.5" x="654.5" y="303.3643">getName(): SensorName</text><ellipse cx="650" cy="310.5264" fill="#84BE84" rx="1.5" ry="1.5" style="stroke:#038048;stroke-width:0.5;"/><text fill="#000000" font-family="sans-serif" font-size="7" lengthAdjust="spacing" textLength="86" x="654.5" y="312.6748">getModelPath(): ModelPath</text><ellipse cx="650" cy="319.8369" fill="#84BE84" rx="1.5" ry="1.5" style="stroke:#038048;stroke-width:0.5;"/><text fill="#000000" font-family="sans-serif" font-size="7" lengthAdjust="spacing" textLength="109" x="654.5" y="321.9854">getSensorTypeID(): SensorTypeID</text><ellipse cx="650" cy="329.1475" fill="#84BE84" rx="1.5" ry="1.5" style="stroke:#038048;stroke-width:0.5;"/><text fill="#000000" font-family="sans-serif" font-size="7" lengthAdjust="spacing" textLength="75" x="654.5" y="331.2959">getDeviceID(): DeviceID</text><ellipse cx="650" cy="338.458" fill="#84BE84" rx="1.5" ry="1.5" style="stroke:#038048;stroke-width:0.5;"/><text fill="#000000" font-family="sans-serif" font-size="7" lengthAdjust="spacing" textLength="75.5" x="654.5" y="340.6064">getValue(): ValueObject</text><ellipse cx="650" cy="347.7686" fill="#84BE84" rx="1.5" ry="1.5" style="stroke:#038048;stroke-width:0.5;"/><text fill="#000000" font-family="sans-serif" font-size="7" lengthAdjust="spacing" textLength="52" x="654.5" y="349.917">toString(): String</text></g><!--class FactorySensor--><g id="elem_FactorySensor"><rect codeLine="13" fill="#F1F1F1" height="33.3105" id="FactorySensor" rx="1.25" ry="1.25" style="stroke:#181818;stroke-width:0.25;" width="414" x="15" y="147.75"/><ellipse cx="196.625" cy="155.75" fill="#B4A7E5" rx="5.5" ry="5.5" style="stroke:#181818;stroke-width:0.5;"/><path d="M197.1016,154.0703 L197.1016,157.3984 L197.9609,157.3984 Q198.2656,157.3984 198.3984,157.5156 Q198.5313,157.6328 198.5313,157.8281 Q198.5313,158.0156 198.3984,158.1328 Q198.2656,158.25 197.9609,158.25 L195.3906,158.25 Q195.0859,158.25 194.9531,158.1328 Q194.8203,158.0156 194.8203,157.8203 Q194.8203,157.6328 194.9531,157.5156 Q195.0859,157.3984 195.3906,157.3984 L196.25,157.3984 L196.25,154.0703 L195.3906,154.0703 Q195.0859,154.0703 194.9531,153.9531 Q194.8203,153.8359 194.8203,153.6406 Q194.8203,153.4531 194.9531,153.3359 Q195.0859,153.2188 195.3906,153.2188 L197.9609,153.2188 Q198.2656,153.2188 198.3984,153.3359 Q198.5313,153.4531 198.5313,153.6406 Q198.5313,153.8359 198.3984,153.9531 Q198.2656,154.0703 197.9609,154.0703 L197.1016,154.0703 Z " fill="#000000"/><text fill="#000000" font-family="sans-serif" font-size="7" font-style="italic" lengthAdjust="spacing" textLength="46.5" x="206.875" y="158.6484">FactorySensor</text><line style="stroke:#181818;stroke-width:0.25;" x1="15.5" x2="428.5" y1="163.75" y2="163.75"/><line style="stroke:#181818;stroke-width:0.25;" x1="15.5" x2="428.5" y1="167.75" y2="167.75"/><ellipse cx="20.5" cy="175.1553" fill="#84BE84" rx="1.5" ry="1.5" style="stroke:#038048;stroke-width:0.5;"/><text fill="#000000" font-family="sans-serif" font-size="7" lengthAdjust="spacing" textLength="401" x="25" y="177.3037">createSensor(deviceID : DeviceID, modelPath : ModelPath, sensorTypeID : SensorTypeID, sensorName : SensorName): Sensor</text></g><!--class ImplFactorySensor--><g id="elem_ImplFactorySensor"><rect codeLine="16" fill="#F1F1F1" height="33.3105" id="ImplFactorySensor" rx="1.25" ry="1.25" style="stroke:#181818;stroke-width:0.25;" width="414" x="222" y="31"/><ellipse cx="397.375" cy="39" fill="#ADD1B2" rx="5.5" ry="5.5" style="stroke:#181818;stroke-width:0.5;"/><path d="M398.7578,36.9375 Q398.8359,36.8281 398.9297,36.7734 Q399.0234,36.7188 399.1328,36.7188 Q399.3203,36.7188 399.4375,36.8516 Q399.5547,36.9766 399.5547,37.2813 L399.5547,38.0078 Q399.5547,38.3125 399.4375,38.4453 Q399.3203,38.5781 399.1328,38.5781 Q398.9609,38.5781 398.8594,38.4766 Q398.7578,38.3828 398.7031,38.125 Q398.6797,37.9453 398.5859,37.8516 Q398.4219,37.6641 398.1172,37.5547 Q397.8125,37.4453 397.5,37.4453 Q397.1172,37.4453 396.7969,37.6094 Q396.4844,37.7734 396.2344,38.1484 Q395.9922,38.5234 395.9922,39.0391 L395.9922,39.5859 Q395.9922,40.2031 396.4375,40.6172 Q396.8828,41.0234 397.6797,41.0234 Q398.1484,41.0234 398.4766,40.8984 Q398.6719,40.8203 398.8828,40.6016 Q399.0156,40.4688 399.0859,40.4297 Q399.1641,40.3906 399.2656,40.3906 Q399.4297,40.3906 399.5547,40.5234 Q399.6875,40.6484 399.6875,40.8203 Q399.6875,40.9922 399.5156,41.1953 Q399.2656,41.4844 398.8672,41.6484 Q398.3281,41.875 397.6797,41.875 Q396.9219,41.875 396.3203,41.5625 Q395.8281,41.3125 395.4844,40.7813 Q395.1406,40.2422 395.1406,39.6016 L395.1406,39.0234 Q395.1406,38.3594 395.4453,37.7891 Q395.7578,37.2109 396.3047,36.9063 Q396.8516,36.5938 397.4688,36.5938 Q397.8359,36.5938 398.1563,36.6797 Q398.4844,36.7578 398.7578,36.9375 Z " fill="#000000"/><text fill="#000000" font-family="sans-serif" font-size="7" lengthAdjust="spacing" textLength="59" x="407.625" y="41.8984">ImplFactorySensor</text><line style="stroke:#181818;stroke-width:0.25;" x1="222.5" x2="635.5" y1="47" y2="47"/><line style="stroke:#181818;stroke-width:0.25;" x1="222.5" x2="635.5" y1="51" y2="51"/><ellipse cx="227.5" cy="58.4053" fill="#84BE84" rx="1.5" ry="1.5" style="stroke:#038048;stroke-width:0.5;"/><text fill="#000000" font-family="sans-serif" font-size="7" lengthAdjust="spacing" textLength="401" x="232" y="60.5537">createSensor(deviceID : DeviceID, modelPath : ModelPath, sensorTypeID : SensorTypeID, sensorName : SensorName): Sensor</text></g><!--class DewPointSensor--><g id="elem_DewPointSensor"><rect codeLine="20" fill="#F1F1F1" height="145.0371" id="DewPointSensor" rx="1.25" ry="1.25" style="stroke:#181818;stroke-width:0.25;" width="397" x="438" y="92"/><ellipse cx="608.375" cy="100" fill="#ADD1B2" rx="5.5" ry="5.5" style="stroke:#181818;stroke-width:0.5;"/><path d="M609.7578,97.9375 Q609.8359,97.8281 609.9297,97.7734 Q610.0234,97.7188 610.1328,97.7188 Q610.3203,97.7188 610.4375,97.8516 Q610.5547,97.9766 610.5547,98.2813 L610.5547,99.0078 Q610.5547,99.3125 610.4375,99.4453 Q610.3203,99.5781 610.1328,99.5781 Q609.9609,99.5781 609.8594,99.4766 Q609.7578,99.3828 609.7031,99.125 Q609.6797,98.9453 609.5859,98.8516 Q609.4219,98.6641 609.1172,98.5547 Q608.8125,98.4453 608.5,98.4453 Q608.1172,98.4453 607.7969,98.6094 Q607.4844,98.7734 607.2344,99.1484 Q606.9922,99.5234 606.9922,100.0391 L606.9922,100.5859 Q606.9922,101.2031 607.4375,101.6172 Q607.8828,102.0234 608.6797,102.0234 Q609.1484,102.0234 609.4766,101.8984 Q609.6719,101.8203 609.8828,101.6016 Q610.0156,101.4688 610.0859,101.4297 Q610.1641,101.3906 610.2656,101.3906 Q610.4297,101.3906 610.5547,101.5234 Q610.6875,101.6484 610.6875,101.8203 Q610.6875,101.9922 610.5156,102.1953 Q610.2656,102.4844 609.8672,102.6484 Q609.3281,102.875 608.6797,102.875 Q607.9219,102.875 607.3203,102.5625 Q606.8281,102.3125 606.4844,101.7813 Q606.1406,101.2422 606.1406,100.6016 L606.1406,100.0234 Q606.1406,99.3594 606.4453,98.7891 Q606.7578,98.2109 607.3047,97.9063 Q607.8516,97.5938 608.4688,97.5938 Q608.8359,97.5938 609.1563,97.6797 Q609.4844,97.7578 609.7578,97.9375 Z " fill="#000000"/><text fill="#000000" font-family="sans-serif" font-size="7" lengthAdjust="spacing" textLength="52" x="618.625" y="102.8984">DewPointSensor</text><line style="stroke:#181818;stroke-width:0.25;" x1="438.5" x2="834.5" y1="108" y2="108"/><rect fill="none" height="3" style="stroke:#C82930;stroke-width:0.5;" width="3" x="442" y="113.9053"/><text fill="#000000" font-family="sans-serif" font-size="7" lengthAdjust="spacing" textLength="77" x="448" y="117.5537">_modelPath : ModelPath</text><rect fill="none" height="3" style="stroke:#C82930;stroke-width:0.5;" width="3" x="442" y="123.2158"/><text fill="#000000" font-family="sans-serif" font-size="7" lengthAdjust="spacing" textLength="90" x="448" y="126.8643">_sensorName : SensorName</text><rect fill="none" height="3" style="stroke:#C82930;stroke-width:0.5;" width="3" x="442" y="132.5264"/><text fill="#000000" font-family="sans-serif" font-size="7" lengthAdjust="spacing" textLength="67" x="448" y="136.1748">_sensorID : SensorID</text><rect fill="none" height="3" style="stroke:#C82930;stroke-width:0.5;" width="3" x="442" y="141.8369"/><text fill="#000000" font-family="sans-serif" font-size="7" lengthAdjust="spacing" textLength="99" x="448" y="145.4854">_sensorTypeID : SensorTypeID</text><rect fill="none" height="3" style="stroke:#C82930;stroke-width:0.5;" width="3" x="442" y="151.1475"/><text fill="#000000" font-family="sans-serif" font-size="7" lengthAdjust="spacing" textLength="95" x="448" y="154.7959">_dewPointValue : ValueObject</text><rect fill="none" height="3" style="stroke:#C82930;stroke-width:0.5;" width="3" x="442" y="160.458"/><text fill="#000000" font-family="sans-serif" font-size="7" lengthAdjust="spacing" textLength="65" x="448" y="164.1064">_deviceID : DeviceID</text><line style="stroke:#181818;stroke-width:0.25;" x1="438.5" x2="834.5" y1="167.8633" y2="167.8633"/><polygon fill="#FFFF44" points="443.5,172.7686,445.5,174.7686,443.5,176.7686,441.5,174.7686" style="stroke:#B38D22;stroke-width:0.5;"/><text fill="#000000" font-family="sans-serif" font-size="7" lengthAdjust="spacing" textLength="384" x="448" y="177.417">DewPointSensor(deviceID : DeviceID, modelPath : ModelPath, sensorTypeID : SensorTypeID, sensorName : SensorName)</text><ellipse cx="443.5" cy="184.5791" fill="#84BE84" rx="1.5" ry="1.5" style="stroke:#038048;stroke-width:0.5;"/><text fill="#000000" font-family="sans-serif" font-size="7" lengthAdjust="spacing" textLength="58.5" x="448" y="186.7275">getID () : SensorID</text><ellipse cx="443.5" cy="193.8896" fill="#84BE84" rx="1.5" ry="1.5" style="stroke:#038048;stroke-width:0.5;"/><text fill="#000000" font-family="sans-serif" font-size="7" lengthAdjust="spacing" textLength="81.5" x="448" y="196.0381">getName () : SensorName</text><ellipse cx="443.5" cy="203.2002" fill="#84BE84" rx="1.5" ry="1.5" style="stroke:#038048;stroke-width:0.5;"/><text fill="#000000" font-family="sans-serif" font-size="7" lengthAdjust="spacing" textLength="90" x="448" y="205.3486">getModelPath () : ModelPath</text><ellipse cx="443.5" cy="212.5107" fill="#84BE84" rx="1.5" ry="1.5" style="stroke:#038048;stroke-width:0.5;"/><text fill="#000000" font-family="sans-serif" font-size="7" lengthAdjust="spacing" textLength="113" x="448" y="214.6592">getSensorTypeID () : SensorTypeID</text><ellipse cx="443.5" cy="221.8213" fill="#84BE84" rx="1.5" ry="1.5" style="stroke:#038048;stroke-width:0.5;"/><text fill="#000000" font-family="sans-serif" font-size="7" lengthAdjust="spacing" textLength="79.5" x="448" y="223.9697">getValue () : ValueObject</text><ellipse cx="443.5" cy="231.1318" fill="#84BE84" rx="1.5" ry="1.5" style="stroke:#038048;stroke-width:0.5;"/><text fill="#000000" font-family="sans-serif" font-size="7" lengthAdjust="spacing" textLength="79" x="448" y="233.2803">getDeviceID () : DeviceID</text></g><!--class DewPointValue--><g id="elem_DewPointValue"><rect codeLine="39" fill="#F1F1F1" height="51.9316" id="DewPointValue" rx="1.25" ry="1.25" style="stroke:#181818;stroke-width:0.25;" width="125.5" x="847.25" y="283"/><ellipse cx="884.125" cy="291" fill="#ADD1B2" rx="5.5" ry="5.5" style="stroke:#181818;stroke-width:0.5;"/><path d="M885.5078,288.9375 Q885.5859,288.8281 885.6797,288.7734 Q885.7734,288.7188 885.8828,288.7188 Q886.0703,288.7188 886.1875,288.8516 Q886.3047,288.9766 886.3047,289.2813 L886.3047,290.0078 Q886.3047,290.3125 886.1875,290.4453 Q886.0703,290.5781 885.8828,290.5781 Q885.7109,290.5781 885.6094,290.4766 Q885.5078,290.3828 885.4531,290.125 Q885.4297,289.9453 885.3359,289.8516 Q885.1719,289.6641 884.8672,289.5547 Q884.5625,289.4453 884.25,289.4453 Q883.8672,289.4453 883.5469,289.6094 Q883.2344,289.7734 882.9844,290.1484 Q882.7422,290.5234 882.7422,291.0391 L882.7422,291.5859 Q882.7422,292.2031 883.1875,292.6172 Q883.6328,293.0234 884.4297,293.0234 Q884.8984,293.0234 885.2266,292.8984 Q885.4219,292.8203 885.6328,292.6016 Q885.7656,292.4688 885.8359,292.4297 Q885.9141,292.3906 886.0156,292.3906 Q886.1797,292.3906 886.3047,292.5234 Q886.4375,292.6484 886.4375,292.8203 Q886.4375,292.9922 886.2656,293.1953 Q886.0156,293.4844 885.6172,293.6484 Q885.0781,293.875 884.4297,293.875 Q883.6719,293.875 883.0703,293.5625 Q882.5781,293.3125 882.2344,292.7813 Q881.8906,292.2422 881.8906,291.6016 L881.8906,291.0234 Q881.8906,290.3594 882.1953,289.7891 Q882.5078,289.2109 883.0547,288.9063 Q883.6016,288.5938 884.2188,288.5938 Q884.5859,288.5938 884.9063,288.6797 Q885.2344,288.7578 885.5078,288.9375 Z " fill="#000000"/><text fill="#000000" font-family="sans-serif" font-size="7" lengthAdjust="spacing" textLength="47.5" x="894.375" y="293.8984">DewPointValue</text><line style="stroke:#181818;stroke-width:0.25;" x1="847.75" x2="972.25" y1="299" y2="299"/><rect fill="none" height="3" style="stroke:#C82930;stroke-width:0.5;" width="3" x="851.25" y="304.9053"/><text fill="#000000" font-family="sans-serif" font-size="7" lengthAdjust="spacing" textLength="65" x="857.25" y="308.5537">_DewPointValue : int</text><line style="stroke:#181818;stroke-width:0.25;" x1="847.75" x2="972.25" y1="312.3105" y2="312.3105"/><ellipse cx="852.75" cy="319.7158" fill="#84BE84" rx="1.5" ry="1.5" style="stroke:#038048;stroke-width:0.5;"/><text fill="#000000" font-family="sans-serif" font-size="7" lengthAdjust="spacing" textLength="112.5" x="857.25" y="321.8643">DewPointValue(dewPointValue : int)</text><ellipse cx="852.75" cy="329.0264" fill="#84BE84" rx="1.5" ry="1.5" style="stroke:#038048;stroke-width:0.5;"/><text fill="#000000" font-family="sans-serif" font-size="7" lengthAdjust="spacing" textLength="54" x="857.25" y="331.1748">toString() : String</text></g><!--class SensorTypeID--><g id="elem_SensorTypeID"><rect codeLine="47" fill="#F1F1F1" height="51.9316" id="SensorTypeID" rx="1.25" ry="1.25" style="stroke:#181818;stroke-width:0.25;" width="131.5" x="989.25" y="283"/><ellipse cx="1030.375" cy="291" fill="#ADD1B2" rx="5.5" ry="5.5" style="stroke:#181818;stroke-width:0.5;"/><path d="M1031.7578,288.9375 Q1031.8359,288.8281 1031.9297,288.7734 Q1032.0234,288.7188 1032.1328,288.7188 Q1032.3203,288.7188 1032.4375,288.8516 Q1032.5547,288.9766 1032.5547,289.2813 L1032.5547,290.0078 Q1032.5547,290.3125 1032.4375,290.4453 Q1032.3203,290.5781 1032.1328,290.5781 Q1031.9609,290.5781 1031.8594,290.4766 Q1031.7578,290.3828 1031.7031,290.125 Q1031.6797,289.9453 1031.5859,289.8516 Q1031.4219,289.6641 1031.1172,289.5547 Q1030.8125,289.4453 1030.5,289.4453 Q1030.1172,289.4453 1029.7969,289.6094 Q1029.4844,289.7734 1029.2344,290.1484 Q1028.9922,290.5234 1028.9922,291.0391 L1028.9922,291.5859 Q1028.9922,292.2031 1029.4375,292.6172 Q1029.8828,293.0234 1030.6797,293.0234 Q1031.1484,293.0234 1031.4766,292.8984 Q1031.6719,292.8203 1031.8828,292.6016 Q1032.0156,292.4688 1032.0859,292.4297 Q1032.1641,292.3906 1032.2656,292.3906 Q1032.4297,292.3906 1032.5547,292.5234 Q1032.6875,292.6484 1032.6875,292.8203 Q1032.6875,292.9922 1032.5156,293.1953 Q1032.2656,293.4844 1031.8672,293.6484 Q1031.3281,293.875 1030.6797,293.875 Q1029.9219,293.875 1029.3203,293.5625 Q1028.8281,293.3125 1028.4844,292.7813 Q1028.1406,292.2422 1028.1406,291.6016 L1028.1406,291.0234 Q1028.1406,290.3594 1028.4453,289.7891 Q1028.7578,289.2109 1029.3047,288.9063 Q1029.8516,288.5938 1030.4688,288.5938 Q1030.8359,288.5938 1031.1563,288.6797 Q1031.4844,288.7578 1031.7578,288.9375 Z " fill="#000000"/><text fill="#000000" font-family="sans-serif" font-size="7" lengthAdjust="spacing" textLength="45" x="1040.625" y="293.8984">SensorTypeID</text><line style="stroke:#181818;stroke-width:0.25;" x1="989.75" x2="1120.25" y1="299" y2="299"/><rect fill="none" height="3" style="stroke:#C82930;stroke-width:0.5;" width="3" x="993.25" y="304.9053"/><text fill="#000000" font-family="sans-serif" font-size="7" lengthAdjust="spacing" textLength="34" x="999.25" y="308.5537">_id : String</text><line style="stroke:#181818;stroke-width:0.25;" x1="989.75" x2="1120.25" y1="312.3105" y2="312.3105"/><ellipse cx="994.75" cy="319.7158" fill="#84BE84" rx="1.5" ry="1.5" style="stroke:#038048;stroke-width:0.5;"/><text fill="#000000" font-family="sans-serif" font-size="7" lengthAdjust="spacing" textLength="118.5" x="999.25" y="321.8643">SensorTypeID(sensorTypeID : String)</text><ellipse cx="994.75" cy="329.0264" fill="#84BE84" rx="1.5" ry="1.5" style="stroke:#038048;stroke-width:0.5;"/><text fill="#000000" font-family="sans-serif" font-size="7" lengthAdjust="spacing" textLength="46" x="999.25" y="331.1748">getID() : String</text></g><!--class SensorID--><g id="elem_SensorID"><rect codeLine="53" fill="#F1F1F1" height="51.9316" id="SensorID" rx="1.25" ry="1.25" style="stroke:#181818;stroke-width:0.25;" width="99.5" x="1129.75" y="283"/><ellipse cx="1162.875" cy="291" fill="#ADD1B2" rx="5.5" ry="5.5" style="stroke:#181818;stroke-width:0.5;"/><path d="M1164.2578,288.9375 Q1164.3359,288.8281 1164.4297,288.7734 Q1164.5234,288.7188 1164.6328,288.7188 Q1164.8203,288.7188 1164.9375,288.8516 Q1165.0547,288.9766 1165.0547,289.2813 L1165.0547,290.0078 Q1165.0547,290.3125 1164.9375,290.4453 Q1164.8203,290.5781 1164.6328,290.5781 Q1164.4609,290.5781 1164.3594,290.4766 Q1164.2578,290.3828 1164.2031,290.125 Q1164.1797,289.9453 1164.0859,289.8516 Q1163.9219,289.6641 1163.6172,289.5547 Q1163.3125,289.4453 1163,289.4453 Q1162.6172,289.4453 1162.2969,289.6094 Q1161.9844,289.7734 1161.7344,290.1484 Q1161.4922,290.5234 1161.4922,291.0391 L1161.4922,291.5859 Q1161.4922,292.2031 1161.9375,292.6172 Q1162.3828,293.0234 1163.1797,293.0234 Q1163.6484,293.0234 1163.9766,292.8984 Q1164.1719,292.8203 1164.3828,292.6016 Q1164.5156,292.4688 1164.5859,292.4297 Q1164.6641,292.3906 1164.7656,292.3906 Q1164.9297,292.3906 1165.0547,292.5234 Q1165.1875,292.6484 1165.1875,292.8203 Q1165.1875,292.9922 1165.0156,293.1953 Q1164.7656,293.4844 1164.3672,293.6484 Q1163.8281,293.875 1163.1797,293.875 Q1162.4219,293.875 1161.8203,293.5625 Q1161.3281,293.3125 1160.9844,292.7813 Q1160.6406,292.2422 1160.6406,291.6016 L1160.6406,291.0234 Q1160.6406,290.3594 1160.9453,289.7891 Q1161.2578,289.2109 1161.8047,288.9063 Q1162.3516,288.5938 1162.9688,288.5938 Q1163.3359,288.5938 1163.6563,288.6797 Q1163.9844,288.7578 1164.2578,288.9375 Z " fill="#000000"/><text fill="#000000" font-family="sans-serif" font-size="7" lengthAdjust="spacing" textLength="29" x="1173.125" y="293.8984">SensorID</text><line style="stroke:#181818;stroke-width:0.25;" x1="1130.25" x2="1228.75" y1="299" y2="299"/><rect fill="none" height="3" style="stroke:#C82930;stroke-width:0.5;" width="3" x="1133.75" y="304.9053"/><text fill="#000000" font-family="sans-serif" font-size="7" lengthAdjust="spacing" textLength="32" x="1139.75" y="308.5537">_id: String</text><line style="stroke:#181818;stroke-width:0.25;" x1="1130.25" x2="1228.75" y1="312.3105" y2="312.3105"/><ellipse cx="1135.25" cy="319.7158" fill="#84BE84" rx="1.5" ry="1.5" style="stroke:#038048;stroke-width:0.5;"/><text fill="#000000" font-family="sans-serif" font-size="7" lengthAdjust="spacing" textLength="86.5" x="1139.75" y="321.8643">SensorID(sensorID : String)</text><ellipse cx="1135.25" cy="329.0264" fill="#84BE84" rx="1.5" ry="1.5" style="stroke:#038048;stroke-width:0.5;"/><text fill="#000000" font-family="sans-serif" font-size="7" lengthAdjust="spacing" textLength="46" x="1139.75" y="331.1748">getID() : String</text></g><!--class ModelPath--><g id="elem_ModelPath"><rect codeLine="59" fill="#F1F1F1" height="51.9316" id="ModelPath" rx="1.25" ry="1.25" style="stroke:#181818;stroke-width:0.25;" width="90" x="1238.5" y="283"/><ellipse cx="1264.625" cy="291" fill="#ADD1B2" rx="5.5" ry="5.5" style="stroke:#181818;stroke-width:0.5;"/><path d="M1266.0078,288.9375 Q1266.0859,288.8281 1266.1797,288.7734 Q1266.2734,288.7188 1266.3828,288.7188 Q1266.5703,288.7188 1266.6875,288.8516 Q1266.8047,288.9766 1266.8047,289.2813 L1266.8047,290.0078 Q1266.8047,290.3125 1266.6875,290.4453 Q1266.5703,290.5781 1266.3828,290.5781 Q1266.2109,290.5781 1266.1094,290.4766 Q1266.0078,290.3828 1265.9531,290.125 Q1265.9297,289.9453 1265.8359,289.8516 Q1265.6719,289.6641 1265.3672,289.5547 Q1265.0625,289.4453 1264.75,289.4453 Q1264.3672,289.4453 1264.0469,289.6094 Q1263.7344,289.7734 1263.4844,290.1484 Q1263.2422,290.5234 1263.2422,291.0391 L1263.2422,291.5859 Q1263.2422,292.2031 1263.6875,292.6172 Q1264.1328,293.0234 1264.9297,293.0234 Q1265.3984,293.0234 1265.7266,292.8984 Q1265.9219,292.8203 1266.1328,292.6016 Q1266.2656,292.4688 1266.3359,292.4297 Q1266.4141,292.3906 1266.5156,292.3906 Q1266.6797,292.3906 1266.8047,292.5234 Q1266.9375,292.6484 1266.9375,292.8203 Q1266.9375,292.9922 1266.7656,293.1953 Q1266.5156,293.4844 1266.1172,293.6484 Q1265.5781,293.875 1264.9297,293.875 Q1264.1719,293.875 1263.5703,293.5625 Q1263.0781,293.3125 1262.7344,292.7813 Q1262.3906,292.2422 1262.3906,291.6016 L1262.3906,291.0234 Q1262.3906,290.3594 1262.6953,289.7891 Q1263.0078,289.2109 1263.5547,288.9063 Q1264.1016,288.5938 1264.7188,288.5938 Q1265.0859,288.5938 1265.4063,288.6797 Q1265.7344,288.7578 1266.0078,288.9375 Z " fill="#000000"/><text fill="#000000" font-family="sans-serif" font-size="7" lengthAdjust="spacing" textLength="33.5" x="1274.875" y="293.8984">ModelPath</text><line style="stroke:#181818;stroke-width:0.25;" x1="1239" x2="1328" y1="299" y2="299"/><rect fill="none" height="3" style="stroke:#C82930;stroke-width:0.5;" width="3" x="1242.5" y="304.9053"/><text fill="#000000" font-family="sans-serif" font-size="7" lengthAdjust="spacing" textLength="40.5" x="1248.5" y="308.5537">_path: String</text><line style="stroke:#181818;stroke-width:0.25;" x1="1239" x2="1328" y1="312.3105" y2="312.3105"/><ellipse cx="1244" cy="319.7158" fill="#84BE84" rx="1.5" ry="1.5" style="stroke:#038048;stroke-width:0.5;"/><text fill="#000000" font-family="sans-serif" font-size="7" lengthAdjust="spacing" textLength="77" x="1248.5" y="321.8643">ModelPath(path : String)</text><ellipse cx="1244" cy="329.0264" fill="#84BE84" rx="1.5" ry="1.5" style="stroke:#038048;stroke-width:0.5;"/><text fill="#000000" font-family="sans-serif" font-size="7" lengthAdjust="spacing" textLength="54" x="1248.5" y="331.1748">getPath() : String</text></g><!--class SensorName--><g id="elem_SensorName"><rect codeLine="65" fill="#F1F1F1" height="51.9316" id="SensorName" rx="1.25" ry="1.25" style="stroke:#181818;stroke-width:0.25;" width="100.5" x="1337.75" y="283"/><ellipse cx="1365.625" cy="291" fill="#ADD1B2" rx="5.5" ry="5.5" style="stroke:#181818;stroke-width:0.5;"/><path d="M1367.0078,288.9375 Q1367.0859,288.8281 1367.1797,288.7734 Q1367.2734,288.7188 1367.3828,288.7188 Q1367.5703,288.7188 1367.6875,288.8516 Q1367.8047,288.9766 1367.8047,289.2813 L1367.8047,290.0078 Q1367.8047,290.3125 1367.6875,290.4453 Q1367.5703,290.5781 1367.3828,290.5781 Q1367.2109,290.5781 1367.1094,290.4766 Q1367.0078,290.3828 1366.9531,290.125 Q1366.9297,289.9453 1366.8359,289.8516 Q1366.6719,289.6641 1366.3672,289.5547 Q1366.0625,289.4453 1365.75,289.4453 Q1365.3672,289.4453 1365.0469,289.6094 Q1364.7344,289.7734 1364.4844,290.1484 Q1364.2422,290.5234 1364.2422,291.0391 L1364.2422,291.5859 Q1364.2422,292.2031 1364.6875,292.6172 Q1365.1328,293.0234 1365.9297,293.0234 Q1366.3984,293.0234 1366.7266,292.8984 Q1366.9219,292.8203 1367.1328,292.6016 Q1367.2656,292.4688 1367.3359,292.4297 Q1367.4141,292.3906 1367.5156,292.3906 Q1367.6797,292.3906 1367.8047,292.5234 Q1367.9375,292.6484 1367.9375,292.8203 Q1367.9375,292.9922 1367.7656,293.1953 Q1367.5156,293.4844 1367.1172,293.6484 Q1366.5781,293.875 1365.9297,293.875 Q1365.1719,293.875 1364.5703,293.5625 Q1364.0781,293.3125 1363.7344,292.7813 Q1363.3906,292.2422 1363.3906,291.6016 L1363.3906,291.0234 Q1363.3906,290.3594 1363.6953,289.7891 Q1364.0078,289.2109 1364.5547,288.9063 Q1365.1016,288.5938 1365.7188,288.5938 Q1366.0859,288.5938 1366.4063,288.6797 Q1366.7344,288.7578 1367.0078,288.9375 Z " fill="#000000"/><text fill="#000000" font-family="sans-serif" font-size="7" lengthAdjust="spacing" textLength="40.5" x="1375.875" y="293.8984">SensorName</text><line style="stroke:#181818;stroke-width:0.25;" x1="1338.25" x2="1437.75" y1="299" y2="299"/><rect fill="none" height="3" style="stroke:#C82930;stroke-width:0.5;" width="3" x="1341.75" y="304.9053"/><text fill="#000000" font-family="sans-serif" font-size="7" lengthAdjust="spacing" textLength="44" x="1347.75" y="308.5537">_name: String</text><line style="stroke:#181818;stroke-width:0.25;" x1="1338.25" x2="1437.75" y1="312.3105" y2="312.3105"/><ellipse cx="1343.25" cy="319.7158" fill="#84BE84" rx="1.5" ry="1.5" style="stroke:#038048;stroke-width:0.5;"/><text fill="#000000" font-family="sans-serif" font-size="7" lengthAdjust="spacing" textLength="87.5" x="1347.75" y="321.8643">SensorName(name : String)</text><ellipse cx="1343.25" cy="329.0264" fill="#84BE84" rx="1.5" ry="1.5" style="stroke:#038048;stroke-width:0.5;"/><text fill="#000000" font-family="sans-serif" font-size="7" lengthAdjust="spacing" textLength="57.5" x="1347.75" y="331.1748">getName() : String</text></g><!--class DeviceID--><g id="elem_DeviceID"><rect codeLine="71" fill="#F1F1F1" height="51.9316" id="DeviceID" rx="1.25" ry="1.25" style="stroke:#181818;stroke-width:0.25;" width="76" x="1447.5" y="283"/><ellipse cx="1469.4" cy="291" fill="#ADD1B2" rx="5.5" ry="5.5" style="stroke:#181818;stroke-width:0.5;"/><path d="M1470.7828,288.9375 Q1470.8609,288.8281 1470.9547,288.7734 Q1471.0484,288.7188 1471.1578,288.7188 Q1471.3453,288.7188 1471.4625,288.8516 Q1471.5797,288.9766 1471.5797,289.2813 L1471.5797,290.0078 Q1471.5797,290.3125 1471.4625,290.4453 Q1471.3453,290.5781 1471.1578,290.5781 Q1470.9859,290.5781 1470.8844,290.4766 Q1470.7828,290.3828 1470.7281,290.125 Q1470.7047,289.9453 1470.6109,289.8516 Q1470.4469,289.6641 1470.1422,289.5547 Q1469.8375,289.4453 1469.525,289.4453 Q1469.1422,289.4453 1468.8219,289.6094 Q1468.5094,289.7734 1468.2594,290.1484 Q1468.0172,290.5234 1468.0172,291.0391 L1468.0172,291.5859 Q1468.0172,292.2031 1468.4625,292.6172 Q1468.9078,293.0234 1469.7047,293.0234 Q1470.1734,293.0234 1470.5016,292.8984 Q1470.6969,292.8203 1470.9078,292.6016 Q1471.0406,292.4688 1471.1109,292.4297 Q1471.1891,292.3906 1471.2906,292.3906 Q1471.4547,292.3906 1471.5797,292.5234 Q1471.7125,292.6484 1471.7125,292.8203 Q1471.7125,292.9922 1471.5406,293.1953 Q1471.2906,293.4844 1470.8922,293.6484 Q1470.3531,293.875 1469.7047,293.875 Q1468.9469,293.875 1468.3453,293.5625 Q1467.8531,293.3125 1467.5094,292.7813 Q1467.1656,292.2422 1467.1656,291.6016 L1467.1656,291.0234 Q1467.1656,290.3594 1467.4703,289.7891 Q1467.7828,289.2109 1468.3297,288.9063 Q1468.8766,288.5938 1469.4938,288.5938 Q1469.8609,288.5938 1470.1813,288.6797 Q1470.5094,288.7578 1470.7828,288.9375 Z " fill="#000000"/><text fill="#000000" font-family="sans-serif" font-size="7" lengthAdjust="spacing" textLength="28" x="1479.6" y="293.8984">DeviceID</text><line style="stroke:#181818;stroke-width:0.25;" x1="1448" x2="1523" y1="299" y2="299"/><rect fill="none" height="3" style="stroke:#C82930;stroke-width:0.5;" width="3" x="1451.5" y="304.9053"/><text fill="#000000" font-family="sans-serif" font-size="7" lengthAdjust="spacing" textLength="32" x="1457.5" y="308.5537">_id: String</text><line style="stroke:#181818;stroke-width:0.25;" x1="1448" x2="1523" y1="312.3105" y2="312.3105"/><ellipse cx="1453" cy="319.7158" fill="#84BE84" rx="1.5" ry="1.5" style="stroke:#038048;stroke-width:0.5;"/><text fill="#000000" font-family="sans-serif" font-size="7" lengthAdjust="spacing" textLength="63" x="1457.5" y="321.8643">DeviceID(id : String)</text><ellipse cx="1453" cy="329.0264" fill="#84BE84" rx="1.5" ry="1.5" style="stroke:#038048;stroke-width:0.5;"/><text fill="#000000" font-family="sans-serif" font-size="7" lengthAdjust="spacing" textLength="46" x="1457.5" y="331.1748">getID() : String</text></g><!--class DomainEntity--><g id="elem_DomainEntity"><rect codeLine="80" fill="#F1F1F1" height="24" id="DomainEntity" rx="1.25" ry="1.25" style="stroke:#181818;stroke-width:0.25;" width="57.5" x="1074.25" y="427"/><ellipse cx="1081.75" cy="435" fill="#B4A7E5" rx="5.5" ry="5.5" style="stroke:#181818;stroke-width:0.5;"/><path d="M1082.2266,433.3203 L1082.2266,436.6484 L1083.0859,436.6484 Q1083.3906,436.6484 1083.5234,436.7656 Q1083.6563,436.8828 1083.6563,437.0781 Q1083.6563,437.2656 1083.5234,437.3828 Q1083.3906,437.5 1083.0859,437.5 L1080.5156,437.5 Q1080.2109,437.5 1080.0781,437.3828 Q1079.9453,437.2656 1079.9453,437.0703 Q1079.9453,436.8828 1080.0781,436.7656 Q1080.2109,436.6484 1080.5156,436.6484 L1081.375,436.6484 L1081.375,433.3203 L1080.5156,433.3203 Q1080.2109,433.3203 1080.0781,433.2031 Q1079.9453,433.0859 1079.9453,432.8906 Q1079.9453,432.7031 1080.0781,432.5859 Q1080.2109,432.4688 1080.5156,432.4688 L1083.0859,432.4688 Q1083.3906,432.4688 1083.5234,432.5859 Q1083.6563,432.7031 1083.6563,432.8906 Q1083.6563,433.0859 1083.5234,433.2031 Q1083.3906,433.3203 1083.0859,433.3203 L1082.2266,433.3203 Z " fill="#000000"/><text fill="#000000" font-family="sans-serif" font-size="7" font-style="italic" lengthAdjust="spacing" textLength="41.5" x="1088.75" y="437.8984">DomainEntity</text><line style="stroke:#181818;stroke-width:0.25;" x1="1074.75" x2="1131.25" y1="443" y2="443"/><line style="stroke:#181818;stroke-width:0.25;" x1="1074.75" x2="1131.25" y1="447" y2="447"/></g><!--class DomainID--><g id="elem_DomainID"><rect codeLine="83" fill="#F1F1F1" height="24" id="DomainID" rx="1.25" ry="1.25" style="stroke:#181818;stroke-width:0.25;" width="47" x="1095" y="469.5"/><ellipse cx="1102.5" cy="477.5" fill="#B4A7E5" rx="5.5" ry="5.5" style="stroke:#181818;stroke-width:0.5;"/><path d="M1102.9766,475.8203 L1102.9766,479.1484 L1103.8359,479.1484 Q1104.1406,479.1484 1104.2734,479.2656 Q1104.4063,479.3828 1104.4063,479.5781 Q1104.4063,479.7656 1104.2734,479.8828 Q1104.1406,480 1103.8359,480 L1101.2656,480 Q1100.9609,480 1100.8281,479.8828 Q1100.6953,479.7656 1100.6953,479.5703 Q1100.6953,479.3828 1100.8281,479.2656 Q1100.9609,479.1484 1101.2656,479.1484 L1102.125,479.1484 L1102.125,475.8203 L1101.2656,475.8203 Q1100.9609,475.8203 1100.8281,475.7031 Q1100.6953,475.5859 1100.6953,475.3906 Q1100.6953,475.2031 1100.8281,475.0859 Q1100.9609,474.9688 1101.2656,474.9688 L1103.8359,474.9688 Q1104.1406,474.9688 1104.2734,475.0859 Q1104.4063,475.2031 1104.4063,475.3906 Q1104.4063,475.5859 1104.2734,475.7031 Q1104.1406,475.8203 1103.8359,475.8203 L1102.9766,475.8203 Z " fill="#000000"/><text fill="#000000" font-family="sans-serif" font-size="7" font-style="italic" lengthAdjust="spacing" textLength="31" x="1109.5" y="480.3984">DomainID</text><line style="stroke:#181818;stroke-width:0.25;" x1="1095.5" x2="1141.5" y1="485.5" y2="485.5"/><line style="stroke:#181818;stroke-width:0.25;" x1="1095.5" x2="1141.5" y1="489.5" y2="489.5"/></g><!--class AggregateRoot--><g id="elem_AggregateRoot"><rect codeLine="86" fill="#F1F1F1" height="24" id="AggregateRoot" rx="1.25" ry="1.25" style="stroke:#181818;stroke-width:0.25;" width="64" x="1074" y="384.5"/><ellipse cx="1081.5" cy="392.5" fill="#B4A7E5" rx="5.5" ry="5.5" style="stroke:#181818;stroke-width:0.5;"/><path d="M1081.9766,390.8203 L1081.9766,394.1484 L1082.8359,394.1484 Q1083.1406,394.1484 1083.2734,394.2656 Q1083.4063,394.3828 1083.4063,394.5781 Q1083.4063,394.7656 1083.2734,394.8828 Q1083.1406,395 1082.8359,395 L1080.2656,395 Q1079.9609,395 1079.8281,394.8828 Q1079.6953,394.7656 1079.6953,394.5703 Q1079.6953,394.3828 1079.8281,394.2656 Q1079.9609,394.1484 1080.2656,394.1484 L1081.125,394.1484 L1081.125,390.8203 L1080.2656,390.8203 Q1079.9609,390.8203 1079.8281,390.7031 Q1079.6953,390.5859 1079.6953,390.3906 Q1079.6953,390.2031 1079.8281,390.0859 Q1079.9609,389.9688 1080.2656,389.9688 L1082.8359,389.9688 Q1083.1406,389.9688 1083.2734,390.0859 Q1083.4063,390.2031 1083.4063,390.3906 Q1083.4063,390.5859 1083.2734,390.7031 Q1083.1406,390.8203 1082.8359,390.8203 L1081.9766,390.8203 Z " fill="#000000"/><text fill="#000000" font-family="sans-serif" font-size="7" font-style="italic" lengthAdjust="spacing" textLength="48" x="1088.5" y="395.3984">AggregateRoot</text><line style="stroke:#181818;stroke-width:0.25;" x1="1074.5" x2="1137.5" y1="400.5" y2="400.5"/><line style="stroke:#181818;stroke-width:0.25;" x1="1074.5" x2="1137.5" y1="404.5" y2="404.5"/></g><polygon fill="none" points="251.0704,147.7445,260.3898,145.9704,257.4615,140.7335,251.0704,147.7445" style="stroke:#181818;stroke-width:0.5;"/><path d="M399.781,64.5886 C360.3296,86.649 298.3005,121.3344 258.9257,143.3519 " fill="none" style="stroke:#181818;stroke-width:0.5;stroke-dasharray:7.0,7.0;"/><polygon fill="#181818" points="507.3204,91.9395,504.3648,88.0007,505.1371,90.7216,502.4161,91.4939,507.3204,91.9395" style="stroke:#181818;stroke-width:0.5;"/><path d="M458.2896,64.5886 C471.8628,72.1602 486.4098,80.275 504.7004,90.4781 " fill="none" style="stroke:#181818;stroke-width:0.5;stroke-dasharray:7.0,7.0;"/><text fill="#000000" font-family="sans-serif" font-size="6.5" lengthAdjust="spacing" textLength="21.5" x="490.5" y="81.0142">creates</text><text fill="#000000" font-family="sans-serif" font-size="6.5" lengthAdjust="spacing" textLength="3.5" x="503.3204" y="89.9537">1</text><text fill="#000000" font-family="sans-serif" font-size="6.5" lengthAdjust="spacing" textLength="3.5" x="454.2896" y="72.1028">1</text><polygon fill="none" points="684.2799,264.3684,683.0835,254.9573,677.6762,257.5574,684.2799,264.3684" style="stroke:#181818;stroke-width:0.5;"/><path d="M671.2021,237.1704 C675.6655,246.453 676.2243,247.6151 680.3798,256.2573 " fill="none" style="stroke:#181818;stroke-width:0.5;stroke-dasharray:7.0,7.0;"/><polygon fill="#181818" points="871.6115,282.9219,868.8854,278.8208,869.5012,281.5814,866.7407,282.1972,871.6115,282.9219" style="stroke:#181818;stroke-width:0.5;"/><path d="M789.5124,237.0566 C807.028,246.0094 824.5053,255.2682 841,264.5 C851.1042,270.1552 859.2359,275.0605 869.0792,281.3133 " fill="none" style="stroke:#181818;stroke-width:0.5;"/><text fill="#000000" font-family="sans-serif" font-size="6.5" lengthAdjust="spacing" textLength="10.5" x="819.5" y="253.5142">has</text><text fill="#000000" font-family="sans-serif" font-size="6.5" lengthAdjust="spacing" textLength="3.5" x="867.6115" y="280.936">1</text><text fill="#000000" font-family="sans-serif" font-size="6.5" lengthAdjust="spacing" textLength="3.5" x="785.5124" y="244.5708">1</text><polygon fill="#181818" points="1015.1167,282.9899,1012.2288,279.0013,1012.9546,281.735,1010.2208,282.4608,1015.1167,282.9899" style="stroke:#181818;stroke-width:0.5;"/><path d="M835.1949,213.893 C883.0754,228.0764 933.5183,245.0686 979,264.5 C991.1275,269.6813 1001.1418,274.8787 1012.5221,281.484 " fill="none" style="stroke:#181818;stroke-width:0.5;"/><text fill="#000000" font-family="sans-serif" font-size="6.5" lengthAdjust="spacing" textLength="10.5" x="952.5" y="253.5142">has</text><text fill="#000000" font-family="sans-serif" font-size="6.5" lengthAdjust="spacing" textLength="3.5" x="1011.1167" y="281.0041">1</text><text fill="#000000" font-family="sans-serif" font-size="6.5" lengthAdjust="spacing" textLength="3.5" x="835.6949" y="211.9071">1</text><polygon fill="#181818" points="1153.3764,282.981,1151.1928,278.5672,1151.4533,281.3836,1148.6369,281.6441,1153.3764,282.981" style="stroke:#181818;stroke-width:0.5;"/><path d="M835.1273,183.3412 C926.8084,197.2684 1035.1109,221.7009 1125.5,264.5 C1135.3915,269.1836 1142.7302,274.1376 1151.0687,281.0641 " fill="none" style="stroke:#181818;stroke-width:0.5;"/><text fill="#000000" font-family="sans-serif" font-size="6.5" lengthAdjust="spacing" textLength="10.5" x="1101.5" y="253.5142">has</text><text fill="#000000" font-family="sans-serif" font-size="6.5" lengthAdjust="spacing" textLength="3.5" x="1149.3764" y="280.9952">1</text><text fill="#000000" font-family="sans-serif" font-size="6.5" lengthAdjust="spacing" textLength="3.5" x="835.6273" y="181.3554">1</text><polygon fill="#181818" points="1466.2073,282.989,1464.5946,278.3361,1464.4998,281.163,1461.673,281.0682,1466.2073,282.989" style="stroke:#181818;stroke-width:0.5;"/><path d="M835.0829,186.653 C972.0628,202.0329 1158.2688,223.8165 1322,246 C1375.9101,253.3041 1394.6756,239.5118 1443,264.5 C1451.6792,268.9879 1457.56,273.7415 1464.1583,280.7978 " fill="none" style="stroke:#181818;stroke-width:0.5;"/><text fill="#000000" font-family="sans-serif" font-size="6.5" lengthAdjust="spacing" textLength="10.5" x="1422" y="253.5142">has</text><text fill="#000000" font-family="sans-serif" font-size="6.5" lengthAdjust="spacing" textLength="3.5" x="1462.2073" y="281.0032">1</text><text fill="#000000" font-family="sans-serif" font-size="6.5" lengthAdjust="spacing" textLength="3.5" x="831.0829" y="184.6672">1</text><polygon fill="#181818" points="1260.2089,282.9645,1258.2328,278.4539,1258.3621,281.2794,1255.5367,281.4087,1260.2089,282.9645" style="stroke:#181818;stroke-width:0.5;"/><path d="M835.0325,186.0807 C980.7675,203.7844 1164.8547,231.4541 1234,264.5 C1243.4924,269.0366 1250.3067,273.9291 1257.9928,280.9424 " fill="none" style="stroke:#181818;stroke-width:0.5;"/><text fill="#000000" font-family="sans-serif" font-size="6.5" lengthAdjust="spacing" textLength="10.5" x="1208.5" y="253.5142">has</text><text fill="#000000" font-family="sans-serif" font-size="6.5" lengthAdjust="spacing" textLength="3.5" x="1256.2089" y="280.9786">1</text><text fill="#000000" font-family="sans-serif" font-size="6.5" lengthAdjust="spacing" textLength="3.5" x="835.5325" y="193.5949">1</text><polygon fill="#181818" points="1361.7137,282.9911,1359.5012,278.5917,1359.7802,281.4063,1356.9656,281.6853,1361.7137,282.9911" style="stroke:#181818;stroke-width:0.5;"/><path d="M835.0335,191.1431 C948.3581,206.4029 1093.0203,226.4502 1221.5,246 C1271.1614,253.5566 1287.1242,244.0362 1333,264.5 C1343.2183,269.0581 1350.8381,274.0771 1359.3935,281.0893 " fill="none" style="stroke:#181818;stroke-width:0.5;"/><text fill="#000000" font-family="sans-serif" font-size="6.5" lengthAdjust="spacing" textLength="10.5" x="1309" y="253.5142">has</text><text fill="#000000" font-family="sans-serif" font-size="6.5" lengthAdjust="spacing" textLength="3.5" x="1357.7137" y="281.0052">1</text><text fill="#000000" font-family="sans-serif" font-size="6.5" lengthAdjust="spacing" textLength="3.5" x="835.5335" y="198.6573">1</text><polygon fill="none" points="1114.1518,469.358,1113.8132,459.8772,1108.1924,461.9765,1114.1518,469.358" style="stroke:#181818;stroke-width:0.5;"/><path d="M1107.3176,451.0601 C1109.4495,456.7681 1108.8667,455.2077 1111.0028,460.9269 " fill="none" style="stroke:#181818;stroke-width:0.5;"/><polygon fill="none" points="1103.8416,426.858,1107.4827,418.0977,1101.4983,417.6651,1103.8416,426.858" style="stroke:#181818;stroke-width:0.5;"/><path d="M1105.1643,408.5601 C1104.7517,414.2681 1104.9039,412.1623 1104.4905,417.8814 " fill="none" style="stroke:#181818;stroke-width:0.5;"/><polygon fill="none" points="1127.455,469.4252,1134.9574,463.6188,1129.9731,460.2786,1127.455,469.4252" style="stroke:#181818;stroke-width:0.5;"/><path d="M1122.3313,408.6347 C1127.9211,413.5889 1133.5145,419.8758 1136.5,427 C1140.6226,436.8378 1139.3473,440.7204 1136.5,451 C1134.6841,457.5559 1136.0221,456.6412 1132.4653,461.9487 " fill="none" style="stroke:#181818;stroke-width:0.5;"/><polygon fill="none" points="1073.9288,394.2801,1065.1405,390.7071,1064.7544,396.6947,1073.9288,394.2801" style="stroke:#181818;stroke-width:0.5;"/><path d="M766.5601,336.4654 C789.5131,345.6563 816.0849,355.1926 841,361.5 C923.4192,382.3649 1014.648,390.4573 1064.9474,393.7009 " fill="none" style="stroke:#181818;stroke-width:0.5;stroke-dasharray:7.0,7.0;"/><polygon fill="none" points="1129.6574,469.4824,1137.6565,464.382,1132.9965,460.6026,1129.6574,469.4824" style="stroke:#181818;stroke-width:0.5;"/><path d="M1087.184,335.0455 C1098.9363,343.8837 1112.5308,353.556 1125.5,361.5 C1132.7034,365.9123 1138.059,362.8142 1142.5,370 C1161.4353,400.638 1149.663,416.3033 1140,451 C1138.109,457.7901 1139.5425,457.2938 1135.3265,462.4923 " fill="none" style="stroke:#181818;stroke-width:0.5;stroke-dasharray:7.0,7.0;"/><polygon fill="none" points="1142.0021,473.4173,1151.4107,472.2019,1148.7998,466.7998,1142.0021,473.4173" style="stroke:#181818;stroke-width:0.5;"/><path d="M1180.7047,335.0095 C1183.3142,367.3708 1185.194,423.421 1158.5,460.5 C1154.3751,466.2297 1156.3504,466.4825 1150.1053,469.5009 " fill="none" style="stroke:#181818;stroke-width:0.5;stroke-dasharray:7.0,7.0;"/><polygon fill="none" points="1142.0596,476.7287,1151.5454,476.8718,1149.7341,471.1517,1142.0596,476.7287" style="stroke:#181818;stroke-width:0.5;"/><path d="M1186.9151,335.0095 C1192.3142,367.3708 1194.194,423.421 1167.5,460.5 C1161.586,468.7148 1160.1347,471.0051 1150.6397,474.0118 " fill="none" style="stroke:#181818;stroke-width:0.5;stroke-dasharray:7.0,7.0;"/><polygon fill="none" points="1142.0972,474.4632,1151.5839,474.5125,1149.7162,468.8106,1142.0972,474.4632" style="stroke:#181818;stroke-width:0.5;"/><path d="M1273.0589,335.0334 C1257.3329,369.8921 1224.0376,431.3659 1174.5,460.5 C1164.4603,466.4046 1160.9827,468.2769 1150.6501,471.6615 " fill="none" style="stroke:#181818;stroke-width:0.5;stroke-dasharray:7.0,7.0;"/><polygon fill="none" points="1142.1767,476.8452,1151.5805,478.0982,1150.4515,472.2054,1142.1767,476.8452" style="stroke:#181818;stroke-width:0.5;"/><path d="M1468.8445,335.0886 C1461.7759,344.3964 1452.8802,354.3702 1443,361.5 C1344.4165,432.6407 1207.5929,464.313 1151.016,475.1518 " fill="none" style="stroke:#181818;stroke-width:0.5;stroke-dasharray:7.0,7.0;"/><!--SRC=[pLNBRjim4BppAxRfnKOY0xtc4A204i27f45Tv5gm4gieqGiIuy9e_U-bI8hQ9MbNFHIeBwOq8-vmk8ztNS-BcaF53-sRXA4MaZUSiOvdhxmGaBSrBvlD89gXxU4d0_Kh6odwxpmJiCElnzyb549kqzNwscBRb68Fl1OpEZvH_BxDHVN8vVD8SW-KOxxzSkW4ZcIUAJCL-pAph6bD6K-yUjE2zEBJjnUHISIGxKxsPLFeC7gbmQFdmntFPDiV8dPalU1I662LMmamgxc2UZeae0DVmO0E1VIC4pYw1zXAvmKIcLLy661RTzL_AXAfJCMFnrQv6aXCu6jK0IQS21TIa5IK3GwEdWRJSgjIPmp4CqVJ0X-PmzzxP_tthlib2gird2jIZ9yfKqDRKAXulrYf6ZSrALwAg9mDZHJqaHs3fhNNMuvPHDFhoRtN5vLwzwcMp8Gao2eFUMlcjmb0VO9esi-7ig6DAE8HoVWo1z9qJ2ZI_FnCqEHrs8t1wruJ0qiWuPs4G05MuHH4evzHu1V-d4x4WKwzYLWmpuZEr4Rqt6Q8H4-EZwrpdKHjr9kJnklvrTZgYeKr0-vCM9V4tcL7GhhnXL9XmUtYIiXp5OVXMPNguhXjP2aFMiCnXbjz7lQnA7fHg5dnkMsb9IXAE5qscrytT2f6I1SVBXJnHlzxhV_QpgI1CG_HEzijFMZS9qdeVbEnFlFX55qlThIIbj4NKTEvi_-9Ue_w_J85ji-FP4OkDacKJTDLCdfl23Fiq_Wuix3nAfysX3p1rZb7Sfyxf_uAcfq8CMTe2Fq6]--></g></svg>