<?xml version="1.0" encoding="us-ascii" standalone="no"?><svg xmlns="http://www.w3.org/2000/svg" xmlns:xlink="http://www.w3.org/1999/xlink" contentStyleType="text/css" height="553px" preserveAspectRatio="none" style="width:1799px;height:553px;background:#FFFFFF;" version="1.1" viewBox="0 0 1799 553" width="1799px" zoomAndPan="magnify"><defs/><g><!--cluster SmartHome--><g id="cluster_SmartHome"><path d="M16.5,4 L97.5,4 A3.75,3.75 0 0 1 100,6.5 L107,28.6211 L1789.5,28.6211 A2.5,2.5 0 0 1 1792,31.1211 L1792,543.5 A2.5,2.5 0 0 1 1789.5,546 L16.5,546 A2.5,2.5 0 0 1 14,543.5 L14,6.5 A2.5,2.5 0 0 1 16.5,4 " fill="none" style="stroke:#000000;stroke-width:1.5;"/><line style="stroke:#000000;stroke-width:1.5;" x1="14" x2="107" y1="28.6211" y2="28.6211"/><text fill="#000000" font-family="sans-serif" font-size="14" font-weight="bold" lengthAdjust="spacing" textLength="80" x="18" y="21.1074">SmartHome</text></g><!--cluster actuators--><g id="cluster_actuators"><path d="M24.5,33 L91.5,33 A3.75,3.75 0 0 1 94,35.5 L101,57.6211 L405.5,57.6211 A2.5,2.5 0 0 1 408,60.1211 L408,498.5 A2.5,2.5 0 0 1 405.5,501 L24.5,501 A2.5,2.5 0 0 1 22,498.5 L22,35.5 A2.5,2.5 0 0 1 24.5,33 " fill="none" style="stroke:#000000;stroke-width:1.5;"/><line style="stroke:#000000;stroke-width:1.5;" x1="22" x2="101" y1="57.6211" y2="57.6211"/><text fill="#000000" font-family="sans-serif" font-size="14" font-weight="bold" lengthAdjust="spacing" textLength="66" x="26" y="50.1074">actuators</text></g><!--cluster domain--><g id="cluster_domain"><path d="M418.5,267 L470.5,267 A3.75,3.75 0 0 1 473,269.5 L480,291.6211 L1781.5,291.6211 A2.5,2.5 0 0 1 1784,294.1211 L1784,535.5 A2.5,2.5 0 0 1 1781.5,538 L418.5,538 A2.5,2.5 0 0 1 416,535.5 L416,269.5 A2.5,2.5 0 0 1 418.5,267 " fill="none" style="stroke:#000000;stroke-width:1.5;"/><line style="stroke:#000000;stroke-width:1.5;" x1="416" x2="480" y1="291.6211" y2="291.6211"/><text fill="#000000" font-family="sans-serif" font-size="14" font-weight="bold" lengthAdjust="spacing" textLength="51" x="420" y="284.1074">domain</text></g><!--class SwitchActuator--><g id="elem_SwitchActuator"><rect codeLine="5" fill="#F1F1F1" height="159.7266" id="SwitchActuator" rx="2.5" ry="2.5" style="stroke:#181818;stroke-width:0.5;" width="370" x="30" y="62"/><ellipse cx="164.25" cy="78" fill="#ADD1B2" rx="11" ry="11" style="stroke:#181818;stroke-width:1.0;"/><path d="M167.0156,73.875 Q167.1719,73.6563 167.3594,73.5469 Q167.5469,73.4375 167.7656,73.4375 Q168.1406,73.4375 168.375,73.7031 Q168.6094,73.9531 168.6094,74.5625 L168.6094,76.0156 Q168.6094,76.625 168.375,76.8906 Q168.1406,77.1563 167.7656,77.1563 Q167.4219,77.1563 167.2188,76.9531 Q167.0156,76.7656 166.9063,76.25 Q166.8594,75.8906 166.6719,75.7031 Q166.3438,75.3281 165.7344,75.1094 Q165.125,74.8906 164.5,74.8906 Q163.7344,74.8906 163.0938,75.2188 Q162.4688,75.5469 161.9688,76.2969 Q161.4844,77.0469 161.4844,78.0781 L161.4844,79.1719 Q161.4844,80.4063 162.375,81.2344 Q163.2656,82.0469 164.8594,82.0469 Q165.7969,82.0469 166.4531,81.7969 Q166.8438,81.6406 167.2656,81.2031 Q167.5313,80.9375 167.6719,80.8594 Q167.8281,80.7813 168.0313,80.7813 Q168.3594,80.7813 168.6094,81.0469 Q168.875,81.2969 168.875,81.6406 Q168.875,81.9844 168.5313,82.3906 Q168.0313,82.9688 167.2344,83.2969 Q166.1563,83.75 164.8594,83.75 Q163.3438,83.75 162.1406,83.125 Q161.1563,82.625 160.4688,81.5625 Q159.7813,80.4844 159.7813,79.2031 L159.7813,78.0469 Q159.7813,76.7188 160.3906,75.5781 Q161.0156,74.4219 162.1094,73.8125 Q163.2031,73.1875 164.4375,73.1875 Q165.1719,73.1875 165.8125,73.3594 Q166.4688,73.5156 167.0156,73.875 Z " fill="#000000"/><text fill="#000000" font-family="sans-serif" font-size="14" lengthAdjust="spacing" textLength="93" x="184.75" y="83.7969">SwitchActuator</text><line style="stroke:#181818;stroke-width:0.5;" x1="31" x2="399" y1="94" y2="94"/><rect fill="none" height="6" style="stroke:#C82930;stroke-width:1.0;" width="6" x="38" y="105.8105"/><text fill="#000000" font-family="sans-serif" font-size="14" lengthAdjust="spacing" textLength="189" x="50" y="113.1074">_actuatorType : ActuatorType</text><rect fill="none" height="6" style="stroke:#C82930;stroke-width:1.0;" width="6" x="38" y="124.4316"/><text fill="#000000" font-family="sans-serif" font-size="14" lengthAdjust="spacing" textLength="183" x="50" y="131.7285">_value : SwitchActuatorValue</text><line style="stroke:#181818;stroke-width:0.5;" x1="31" x2="399" y1="139.2422" y2="139.2422"/><ellipse cx="41" cy="154.0527" fill="#84BE84" rx="3" ry="3" style="stroke:#038048;stroke-width:1.0;"/><text fill="#000000" font-family="sans-serif" font-size="14" lengthAdjust="spacing" textLength="299" x="50" y="158.3496">SwitchActuator (catalogue : CatalogueActuator)</text><rect fill="#F24D5C" height="6" style="stroke:#C82930;stroke-width:1.0;" width="6" x="38" y="169.6738"/><text fill="#000000" font-family="sans-serif" font-size="14" lengthAdjust="spacing" textLength="344" x="50" y="176.9707">setActuatorType (catalogue : CatalogueActuator): void</text><ellipse cx="41" cy="191.2949" fill="#84BE84" rx="3" ry="3" style="stroke:#038048;stroke-width:1.0;"/><text fill="#000000" font-family="sans-serif" font-size="14" lengthAdjust="spacing" textLength="216" x="50" y="195.5918">getActuatorType () : ActuatorType</text><ellipse cx="41" cy="209.916" fill="#84BE84" rx="3" ry="3" style="stroke:#038048;stroke-width:1.0;"/><text fill="#000000" font-family="sans-serif" font-size="14" lengthAdjust="spacing" textLength="199" x="50" y="214.2129">setValue (value : Value) : Value</text></g><!--class SwitchActuatorValue--><g id="elem_SwitchActuatorValue"><rect codeLine="17" fill="#F1F1F1" height="159.7266" id="SwitchActuatorValue" rx="2.5" ry="2.5" style="stroke:#181818;stroke-width:0.5;" width="262" x="61" y="333"/><ellipse cx="123.25" cy="349" fill="#ADD1B2" rx="11" ry="11" style="stroke:#181818;stroke-width:1.0;"/><path d="M126.0156,344.875 Q126.1719,344.6563 126.3594,344.5469 Q126.5469,344.4375 126.7656,344.4375 Q127.1406,344.4375 127.375,344.7031 Q127.6094,344.9531 127.6094,345.5625 L127.6094,347.0156 Q127.6094,347.625 127.375,347.8906 Q127.1406,348.1563 126.7656,348.1563 Q126.4219,348.1563 126.2188,347.9531 Q126.0156,347.7656 125.9063,347.25 Q125.8594,346.8906 125.6719,346.7031 Q125.3438,346.3281 124.7344,346.1094 Q124.125,345.8906 123.5,345.8906 Q122.7344,345.8906 122.0938,346.2188 Q121.4688,346.5469 120.9688,347.2969 Q120.4844,348.0469 120.4844,349.0781 L120.4844,350.1719 Q120.4844,351.4063 121.375,352.2344 Q122.2656,353.0469 123.8594,353.0469 Q124.7969,353.0469 125.4531,352.7969 Q125.8438,352.6406 126.2656,352.2031 Q126.5313,351.9375 126.6719,351.8594 Q126.8281,351.7813 127.0313,351.7813 Q127.3594,351.7813 127.6094,352.0469 Q127.875,352.2969 127.875,352.6406 Q127.875,352.9844 127.5313,353.3906 Q127.0313,353.9688 126.2344,354.2969 Q125.1563,354.75 123.8594,354.75 Q122.3438,354.75 121.1406,354.125 Q120.1563,353.625 119.4688,352.5625 Q118.7813,351.4844 118.7813,350.2031 L118.7813,349.0469 Q118.7813,347.7188 119.3906,346.5781 Q120.0156,345.4219 121.1094,344.8125 Q122.2031,344.1875 123.4375,344.1875 Q124.1719,344.1875 124.8125,344.3594 Q125.4688,344.5156 126.0156,344.875 Z " fill="#000000"/><text fill="#000000" font-family="sans-serif" font-size="14" lengthAdjust="spacing" textLength="129" x="143.75" y="354.7969">SwitchActuatorValue</text><line style="stroke:#181818;stroke-width:0.5;" x1="62" x2="322" y1="365" y2="365"/><rect fill="none" height="6" style="stroke:#C82930;stroke-width:1.0;" width="6" x="69" y="376.8105"/><text fill="#000000" font-family="sans-serif" font-size="14" lengthAdjust="spacing" textLength="105" x="81" y="384.1074">_value : boolean</text><line style="stroke:#181818;stroke-width:0.5;" x1="62" x2="322" y1="391.6211" y2="391.6211"/><ellipse cx="72" cy="406.4316" fill="#84BE84" rx="3" ry="3" style="stroke:#038048;stroke-width:1.0;"/><text fill="#000000" font-family="sans-serif" font-size="14" lengthAdjust="spacing" textLength="236" x="81" y="410.7285">SwitchActuatorValue(value : boolean)</text><ellipse cx="72" cy="425.0527" fill="#84BE84" rx="3" ry="3" style="stroke:#038048;stroke-width:1.0;"/><text fill="#000000" font-family="sans-serif" font-size="14" lengthAdjust="spacing" textLength="108" x="81" y="429.3496">toString() : String</text><ellipse cx="72" cy="443.6738" fill="#84BE84" rx="3" ry="3" style="stroke:#038048;stroke-width:1.0;"/><text fill="#000000" font-family="sans-serif" font-size="14" lengthAdjust="spacing" textLength="147" x="81" y="447.9707">setValueOn() : boolean</text><ellipse cx="72" cy="462.2949" fill="#84BE84" rx="3" ry="3" style="stroke:#038048;stroke-width:1.0;"/><text fill="#000000" font-family="sans-serif" font-size="14" lengthAdjust="spacing" textLength="143" x="81" y="466.5918">setValueOff(): boolean</text><ellipse cx="72" cy="480.916" fill="#84BE84" rx="3" ry="3" style="stroke:#038048;stroke-width:1.0;"/><text fill="#000000" font-family="sans-serif" font-size="14" lengthAdjust="spacing" textLength="108" x="81" y="485.2129">toString() : String</text></g><!--class Value--><g id="elem_Value"><rect codeLine="48" fill="#F1F1F1" height="48" id="Value" rx="2.5" ry="2.5" style="stroke:#181818;stroke-width:0.5;" width="68" x="424" y="389"/><ellipse cx="439" cy="405" fill="#B4A7E5" rx="11" ry="11" style="stroke:#181818;stroke-width:1.0;"/><path d="M439.9531,401.6406 L439.9531,408.2969 L441.6719,408.2969 Q442.2813,408.2969 442.5469,408.5313 Q442.8125,408.7656 442.8125,409.1563 Q442.8125,409.5313 442.5469,409.7656 Q442.2813,410 441.6719,410 L436.5313,410 Q435.9219,410 435.6563,409.7656 Q435.3906,409.5313 435.3906,409.1406 Q435.3906,408.7656 435.6563,408.5313 Q435.9219,408.2969 436.5313,408.2969 L438.25,408.2969 L438.25,401.6406 L436.5313,401.6406 Q435.9219,401.6406 435.6563,401.4063 Q435.3906,401.1719 435.3906,400.7813 Q435.3906,400.4063 435.6563,400.1719 Q435.9219,399.9375 436.5313,399.9375 L441.6719,399.9375 Q442.2813,399.9375 442.5469,400.1719 Q442.8125,400.4063 442.8125,400.7813 Q442.8125,401.1719 442.5469,401.4063 Q442.2813,401.6406 441.6719,401.6406 L439.9531,401.6406 Z " fill="#000000"/><text fill="#000000" font-family="sans-serif" font-size="14" font-style="italic" lengthAdjust="spacing" textLength="36" x="453" y="410.7969">Value</text><line style="stroke:#181818;stroke-width:0.5;" x1="425" x2="491" y1="421" y2="421"/><line style="stroke:#181818;stroke-width:0.5;" x1="425" x2="491" y1="429" y2="429"/></g><!--class Actuator--><g id="elem_Actuator"><rect codeLine="33" fill="#F1F1F1" height="66.6211" id="Actuator" rx="2.5" ry="2.5" style="stroke:#181818;stroke-width:0.5;" width="238" x="510" y="379.5"/><ellipse cx="598.25" cy="395.5" fill="#B4A7E5" rx="11" ry="11" style="stroke:#181818;stroke-width:1.0;"/><path d="M599.2031,392.1406 L599.2031,398.7969 L600.9219,398.7969 Q601.5313,398.7969 601.7969,399.0313 Q602.0625,399.2656 602.0625,399.6563 Q602.0625,400.0313 601.7969,400.2656 Q601.5313,400.5 600.9219,400.5 L595.7813,400.5 Q595.1719,400.5 594.9063,400.2656 Q594.6406,400.0313 594.6406,399.6406 Q594.6406,399.2656 594.9063,399.0313 Q595.1719,398.7969 595.7813,398.7969 L597.5,398.7969 L597.5,392.1406 L595.7813,392.1406 Q595.1719,392.1406 594.9063,391.9063 Q594.6406,391.6719 594.6406,391.2813 Q594.6406,390.9063 594.9063,390.6719 Q595.1719,390.4375 595.7813,390.4375 L600.9219,390.4375 Q601.5313,390.4375 601.7969,390.6719 Q602.0625,390.9063 602.0625,391.2813 Q602.0625,391.6719 601.7969,391.9063 Q601.5313,392.1406 600.9219,392.1406 L599.2031,392.1406 Z " fill="#000000"/><text fill="#000000" font-family="sans-serif" font-size="14" font-style="italic" lengthAdjust="spacing" textLength="53" x="618.75" y="401.2969">Actuator</text><line style="stroke:#181818;stroke-width:0.5;" x1="511" x2="747" y1="411.5" y2="411.5"/><line style="stroke:#181818;stroke-width:0.5;" x1="511" x2="747" y1="419.5" y2="419.5"/><ellipse cx="521" cy="434.3105" fill="#84BE84" rx="3" ry="3" style="stroke:#038048;stroke-width:1.0;"/><text fill="#000000" font-family="sans-serif" font-size="14" lengthAdjust="spacing" textLength="212" x="530" y="438.6074">getActuatorType() : ActuatorType</text></g><!--class ActuatorType--><g id="elem_ActuatorType"><rect codeLine="38" fill="#F1F1F1" height="122.4844" id="ActuatorType" rx="2.5" ry="2.5" style="stroke:#181818;stroke-width:0.5;" width="324" x="766" y="352"/><ellipse cx="881.25" cy="368" fill="#ADD1B2" rx="11" ry="11" style="stroke:#181818;stroke-width:1.0;"/><path d="M884.0156,363.875 Q884.1719,363.6563 884.3594,363.5469 Q884.5469,363.4375 884.7656,363.4375 Q885.1406,363.4375 885.375,363.7031 Q885.6094,363.9531 885.6094,364.5625 L885.6094,366.0156 Q885.6094,366.625 885.375,366.8906 Q885.1406,367.1563 884.7656,367.1563 Q884.4219,367.1563 884.2188,366.9531 Q884.0156,366.7656 883.9063,366.25 Q883.8594,365.8906 883.6719,365.7031 Q883.3438,365.3281 882.7344,365.1094 Q882.125,364.8906 881.5,364.8906 Q880.7344,364.8906 880.0938,365.2188 Q879.4688,365.5469 878.9688,366.2969 Q878.4844,367.0469 878.4844,368.0781 L878.4844,369.1719 Q878.4844,370.4063 879.375,371.2344 Q880.2656,372.0469 881.8594,372.0469 Q882.7969,372.0469 883.4531,371.7969 Q883.8438,371.6406 884.2656,371.2031 Q884.5313,370.9375 884.6719,370.8594 Q884.8281,370.7813 885.0313,370.7813 Q885.3594,370.7813 885.6094,371.0469 Q885.875,371.2969 885.875,371.6406 Q885.875,371.9844 885.5313,372.3906 Q885.0313,372.9688 884.2344,373.2969 Q883.1563,373.75 881.8594,373.75 Q880.3438,373.75 879.1406,373.125 Q878.1563,372.625 877.4688,371.5625 Q876.7813,370.4844 876.7813,369.2031 L876.7813,368.0469 Q876.7813,366.7188 877.3906,365.5781 Q878.0156,364.4219 879.1094,363.8125 Q880.2031,363.1875 881.4375,363.1875 Q882.1719,363.1875 882.8125,363.3594 Q883.4688,363.5156 884.0156,363.875 Z " fill="#000000"/><text fill="#000000" font-family="sans-serif" font-size="14" lengthAdjust="spacing" textLength="85" x="901.75" y="373.7969">ActuatorType</text><line style="stroke:#181818;stroke-width:0.5;" x1="767" x2="1089" y1="384" y2="384"/><rect fill="none" height="6" style="stroke:#C82930;stroke-width:1.0;" width="6" x="774" y="395.8105"/><text fill="#000000" font-family="sans-serif" font-size="14" lengthAdjust="spacing" textLength="144" x="786" y="403.1074">_strDescription : String</text><line style="stroke:#181818;stroke-width:0.5;" x1="767" x2="1089" y1="410.6211" y2="410.6211"/><polygon fill="#FFFF44" points="777,420.4316,781,424.4316,777,428.4316,773,424.4316" style="stroke:#B38D22;stroke-width:1.0;"/><text fill="#000000" font-family="sans-serif" font-size="14" lengthAdjust="spacing" textLength="298" x="786" y="429.7285">ActuatorType(strDescription : String, unit : Unit)</text><rect fill="#F24D5C" height="6" style="stroke:#C82930;stroke-width:1.0;" width="6" x="774" y="441.0527"/><text fill="#000000" font-family="sans-serif" font-size="14" lengthAdjust="spacing" textLength="274" x="786" y="448.3496">setDescription(strDescription : String) : void</text><ellipse cx="777" cy="462.6738" fill="#84BE84" rx="3" ry="3" style="stroke:#038048;stroke-width:1.0;"/><text fill="#000000" font-family="sans-serif" font-size="14" lengthAdjust="spacing" textLength="168" x="786" y="466.9707">getStrDescription() : String</text></g><!--class CatalogueActuator--><g id="elem_CatalogueActuator"><rect codeLine="51" fill="#F1F1F1" height="234.2109" id="CatalogueActuator" rx="2.5" ry="2.5" style="stroke:#181818;stroke-width:0.5;" width="668" x="1108" y="296"/><ellipse cx="1378.75" cy="312" fill="#ADD1B2" rx="11" ry="11" style="stroke:#181818;stroke-width:1.0;"/><path d="M1381.5156,307.875 Q1381.6719,307.6563 1381.8594,307.5469 Q1382.0469,307.4375 1382.2656,307.4375 Q1382.6406,307.4375 1382.875,307.7031 Q1383.1094,307.9531 1383.1094,308.5625 L1383.1094,310.0156 Q1383.1094,310.625 1382.875,310.8906 Q1382.6406,311.1563 1382.2656,311.1563 Q1381.9219,311.1563 1381.7188,310.9531 Q1381.5156,310.7656 1381.4063,310.25 Q1381.3594,309.8906 1381.1719,309.7031 Q1380.8438,309.3281 1380.2344,309.1094 Q1379.625,308.8906 1379,308.8906 Q1378.2344,308.8906 1377.5938,309.2188 Q1376.9688,309.5469 1376.4688,310.2969 Q1375.9844,311.0469 1375.9844,312.0781 L1375.9844,313.1719 Q1375.9844,314.4063 1376.875,315.2344 Q1377.7656,316.0469 1379.3594,316.0469 Q1380.2969,316.0469 1380.9531,315.7969 Q1381.3438,315.6406 1381.7656,315.2031 Q1382.0313,314.9375 1382.1719,314.8594 Q1382.3281,314.7813 1382.5313,314.7813 Q1382.8594,314.7813 1383.1094,315.0469 Q1383.375,315.2969 1383.375,315.6406 Q1383.375,315.9844 1383.0313,316.3906 Q1382.5313,316.9688 1381.7344,317.2969 Q1380.6563,317.75 1379.3594,317.75 Q1377.8438,317.75 1376.6406,317.125 Q1375.6563,316.625 1374.9688,315.5625 Q1374.2813,314.4844 1374.2813,313.2031 L1374.2813,312.0469 Q1374.2813,310.7188 1374.8906,309.5781 Q1375.5156,308.4219 1376.6094,307.8125 Q1377.7031,307.1875 1378.9375,307.1875 Q1379.6719,307.1875 1380.3125,307.3594 Q1380.9688,307.5156 1381.5156,307.875 Z " fill="#000000"/><text fill="#000000" font-family="sans-serif" font-size="14" lengthAdjust="spacing" textLength="118" x="1399.25" y="317.7969">CatalogueActuator</text><line style="stroke:#181818;stroke-width:0.5;" x1="1109" x2="1775" y1="328" y2="328"/><rect fill="none" height="6" style="stroke:#C82930;stroke-width:1.0;" width="6" x="1116" y="339.8105"/><text fill="#000000" font-family="sans-serif" font-size="14" lengthAdjust="spacing" textLength="252" x="1128" y="347.1074">_listActuatorTypes : List&lt;ActuatorType&gt;</text><rect fill="none" height="6" style="stroke:#C82930;stroke-width:1.0;" width="6" x="1116" y="358.4316"/><text fill="#000000" font-family="sans-serif" font-size="14" lengthAdjust="spacing" textLength="252" x="1128" y="365.7285">_listStringClassesActuator : List&lt;String&gt;</text><line style="stroke:#181818;stroke-width:0.5;" x1="1109" x2="1775" y1="373.2422" y2="373.2422"/><ellipse cx="1119" cy="388.0527" fill="#84BE84" rx="3" ry="3" style="stroke:#038048;stroke-width:1.0;"/><text fill="#000000" font-family="sans-serif" font-size="14" lengthAdjust="spacing" textLength="259" x="1128" y="392.3496">CatalogueActuator(filePathname : String)</text><rect fill="#F24D5C" height="6" style="stroke:#C82930;stroke-width:1.0;" width="6" x="1116" y="403.6738"/><text fill="#000000" font-family="sans-serif" font-size="14" lengthAdjust="spacing" textLength="269" x="1128" y="410.9707">validateConstructorParameters() : boolean</text><ellipse cx="1119" cy="425.2949" fill="#84BE84" rx="3" ry="3" style="stroke:#038048;stroke-width:1.0;"/><text fill="#000000" font-family="sans-serif" font-size="14" lengthAdjust="spacing" textLength="642" x="1128" y="429.5918">addActuatorType((strDescription : String, actuatorTypeFactory : ActuatorTypeFactory) : ActuatorType</text><polygon fill="#FFFF44" points="1119,438.916,1123,442.916,1119,446.916,1115,442.916" style="stroke:#B38D22;stroke-width:1.0;"/><text fill="#000000" font-family="sans-serif" font-size="14" lengthAdjust="spacing" textLength="436" x="1128" y="448.2129">addActuatorTypeToList(actuatorType : ActuatorType) : ActuatorType</text><ellipse cx="1119" cy="462.5371" fill="#84BE84" rx="3" ry="3" style="stroke:#038048;stroke-width:1.0;"/><text fill="#000000" font-family="sans-serif" font-size="14" lengthAdjust="spacing" textLength="253" x="1128" y="466.834">getActuatorTypes(): List&lt;ActuatorType&gt;</text><ellipse cx="1119" cy="481.1582" fill="#84BE84" rx="3" ry="3" style="stroke:#038048;stroke-width:1.0;"/><text fill="#000000" font-family="sans-serif" font-size="14" lengthAdjust="spacing" textLength="348" x="1128" y="485.4551">getActuatorType(strDescription : String) : ActuatorType</text><ellipse cx="1119" cy="499.7793" fill="#84BE84" rx="3" ry="3" style="stroke:#038048;stroke-width:1.0;"/><text fill="#000000" font-family="sans-serif" font-size="14" lengthAdjust="spacing" textLength="215" x="1128" y="504.0762">getActuatorModels() : List&lt;String&gt;</text><ellipse cx="1119" cy="518.4004" fill="#84BE84" rx="3" ry="3" style="stroke:#038048;stroke-width:1.0;"/><text fill="#000000" font-family="sans-serif" font-size="14" lengthAdjust="spacing" textLength="407" x="1128" y="522.6973">getActuator(strModel : String, actuatorFactory : ActuatorFactory)</text></g><polygon fill="none" points="423.7688,413,405.7688,407,405.7688,419,423.7688,413" style="stroke:#181818;stroke-width:1.0;"/><path d="M405.7688,413 C372.2397,413 356.7107,413 323.1816,413 " fill="none" style="stroke:#181818;stroke-width:1.0;stroke-dasharray:7.0,7.0;"/><polygon fill="none" points="606.8366,379.4442,601.1463,361.3439,591.4242,368.3781,606.8366,379.4442" style="stroke:#181818;stroke-width:1.0;"/><path d="M400.0074,208.9911 C435.0817,225.3705 470.3525,244.732 501,267 C544.4645,298.5806 573.047,332.7429 596.2853,364.861 " fill="none" style="stroke:#181818;stroke-width:1.0;stroke-dasharray:7.0,7.0;"/><text fill="#000000" font-family="sans-serif" font-size="13" lengthAdjust="spacing" textLength="81" x="488" y="255.0283">&#171;implements&#187;</text><text fill="#000000" font-family="sans-serif" font-size="13" lengthAdjust="spacing" textLength="7" x="598.8366" y="375.4725">1</text><text fill="#000000" font-family="sans-serif" font-size="13" lengthAdjust="spacing" textLength="7" x="401.0074" y="205.0194">1</text><polygon fill="#181818" points="871.3963,351.878,867.6483,342.7701,867.7796,348.4255,862.1243,348.5568,871.3963,351.878" style="stroke:#181818;stroke-width:1.0;"/><path d="M400.297,163.0702 C508.6295,180.15 645.5422,211.2069 757,267 C799.4639,288.2564 835.9505,318.041 867.0563,347.735 " fill="none" style="stroke:#181818;stroke-width:1.0;"/><text fill="#000000" font-family="sans-serif" font-size="13" lengthAdjust="spacing" textLength="35" x="731" y="255.0283">&#171;has&#187;</text><text fill="#000000" font-family="sans-serif" font-size="13" lengthAdjust="spacing" textLength="7" x="863.3963" y="347.9063">1</text><text fill="#000000" font-family="sans-serif" font-size="13" lengthAdjust="spacing" textLength="7" x="401.297" y="159.0985">1</text><polygon fill="#181818" points="198.7676,332.8481,203.5198,324.2216,199.1936,327.8663,195.5489,323.5401,198.7676,332.8481" style="stroke:#181818;stroke-width:1.0;"/><path d="M208.2236,222.2539 C205.2422,257.1238 202.2592,292.0117 199.2788,326.8699 " fill="none" style="stroke:#181818;stroke-width:1.0;"/><text fill="#000000" font-family="sans-serif" font-size="13" lengthAdjust="spacing" textLength="35" x="208" y="255.0283">&#171;has&#187;</text><text fill="#000000" font-family="sans-serif" font-size="13" lengthAdjust="spacing" textLength="7" x="190.7676" y="328.8764">1</text><text fill="#000000" font-family="sans-serif" font-size="13" lengthAdjust="spacing" textLength="7" x="200.2236" y="237.2823">1</text><polygon fill="#181818" points="1187.529,295.8794,1180.4719,289.0094,1182.8386,294.1473,1177.7007,296.5141,1187.529,295.8794" style="stroke:#181818;stroke-width:1.0;"/><path d="M1181.9005,293.8009 C1152.4343,282.9201 1128.1321,275.0518 1099,267 C862.802,201.717 581.1249,169.7726 400.2664,154.8888 " fill="none" style="stroke:#181818;stroke-width:1.0;stroke-dasharray:7.0,7.0;"/><text fill="#000000" font-family="sans-serif" font-size="13" lengthAdjust="spacing" textLength="42" x="1053" y="255.0283">&#171;uses&#187;</text><text fill="#000000" font-family="sans-serif" font-size="13" lengthAdjust="spacing" textLength="7" x="401.2664" y="169.9172">1</text><text fill="#000000" font-family="sans-serif" font-size="13" lengthAdjust="spacing" textLength="7" x="1179.529" y="291.9077">1</text><polygon fill="none" points="423.982,413,405.982,407,405.982,419,423.982,413" style="stroke:#181818;stroke-width:1.0;"/><path d="M323.0518,413 C360.4263,413 380.006,413 405.982,413 " fill="none" style="stroke:#181818;stroke-width:1.0;stroke-dasharray:7.0,7.0;"/><text fill="#000000" font-family="sans-serif" font-size="13" lengthAdjust="spacing" textLength="81" x="333" y="406.0283">&#171;implements&#187;</text><text fill="#000000" font-family="sans-serif" font-size="13" lengthAdjust="spacing" textLength="7" x="415.982" y="428.0283">1</text><text fill="#000000" font-family="sans-serif" font-size="13" lengthAdjust="spacing" textLength="7" x="324.0518" y="409.0283">1</text><!--SRC=[fLLTRvim57tdLtZjGubOaFPQ8QGeKzM7LQkKhg_HBJY9DR0HDfsYhVzzneRWBv9CumNZ-t7kFVVOV6fQsDU0AZYoJY1UOm4KegY1uYViCThKq8f7LkCK2j61O2r7lwC8oQUeW7Eq-KL4SLWDHcb3mtEt4g8bRvt0_EwqkKJRCS_BiS7e7gsCJzFj7QgkjzlvN_lTQC9umkB0IWCWSUg92n1GiRtAjHxNetan8N8ip58k1TwZTqRA2NRlXY_cUaiaace3nMEFwdCnBfJdnpp7EfZKJOLhJ0KtPbIo6WXDjSUbKPmeVcEima3_WLO543ln4vc9O1i9IFUA1Rtq-_zEbNb4z-sxNRm8sEUIIye-GiBLf8og9LJWTWS5HY7D-eqZPxBXmLhZieIWatiJM6wvQBzYNhIa4OJHgPN8B-JMAc0cy3FgA17oyuTywLdqeZPSvoBxZavgLWrlBCS0qJQJfjui9hnpCqi7sbQ4MqHp2VfDxcNcPcvwwvBMFHBc9uGXIXlp49s9LrQy8nL-1d6WKEE95mqcPKvA47ZDg2ImAwJ_CxJIKRRFFGadK9RMkERdPTw43z3dFJhQ6dQ3ahjrW5vOttTyvdeDfd5lBjwVkHdUNTzpWZeBzCHAN6dkh66vVZs0yWsmvZCsiZNeK2enyFTAdH_4pPSRbAP_ShNmRb93LLasNRbvVctgvV92vc5EMNQ0_qexv_uwND8-m528VqRxn5cQNWcWSdVo15vLlIxdFEbJoHRZVm40]--></g></svg>