<?xml version="1.0" encoding="us-ascii" standalone="no"?><svg xmlns="http://www.w3.org/2000/svg" xmlns:xlink="http://www.w3.org/1999/xlink" contentStyleType="text/css" height="501px" preserveAspectRatio="none" style="width:1636px;height:501px;background:#FFFFFF;" version="1.1" viewBox="0 0 1636 501" width="1636px" zoomAndPan="magnify"><defs/><g><!--cluster domain--><g id="cluster_domain"><path d="M8.25,2 L34.25,2 A1.875,1.875 0 0 1 35.5,3.25 L39,14.3105 L1084.75,14.3105 A1.25,1.25 0 0 1 1086,15.5605 L1086,360.25 A1.25,1.25 0 0 1 1084.75,361.5 L8.25,361.5 A1.25,1.25 0 0 1 7,360.25 L7,3.25 A1.25,1.25 0 0 1 8.25,2 " fill="none" style="stroke:#000000;stroke-width:0.75;"/><line style="stroke:#000000;stroke-width:0.75;" x1="7" x2="39" y1="14.3105" y2="14.3105"/><text fill="#000000" font-family="sans-serif" font-size="7" font-weight="bold" lengthAdjust="spacing" textLength="25.5" x="9" y="10.5537">domain</text></g><!--cluster sensor--><g id="cluster_sensor"><path d="M12.25,16.5 L37.25,16.5 A1.875,1.875 0 0 1 38.5,17.75 L42,28.8105 L890.75,28.8105 A1.25,1.25 0 0 1 892,30.0605 L892,356.25 A1.25,1.25 0 0 1 890.75,357.5 L12.25,357.5 A1.25,1.25 0 0 1 11,356.25 L11,17.75 A1.25,1.25 0 0 1 12.25,16.5 " fill="none" style="stroke:#000000;stroke-width:0.75;"/><line style="stroke:#000000;stroke-width:0.75;" x1="11" x2="42" y1="28.8105" y2="28.8105"/><text fill="#000000" font-family="sans-serif" font-size="7" font-weight="bold" lengthAdjust="spacing" textLength="24.5" x="13" y="25.0537">sensor</text></g><!--cluster value--><g id="cluster_value"><path d="M897.25,268.5 L917.25,268.5 A1.875,1.875 0 0 1 918.5,269.75 L922,280.8105 L1080.75,280.8105 A1.25,1.25 0 0 1 1082,282.0605 L1082,337.75 A1.25,1.25 0 0 1 1080.75,339 L897.25,339 A1.25,1.25 0 0 1 896,337.75 L896,269.75 A1.25,1.25 0 0 1 897.25,268.5 " fill="none" style="stroke:#000000;stroke-width:0.75;"/><line style="stroke:#000000;stroke-width:0.75;" x1="896" x2="922" y1="280.8105" y2="280.8105"/><text fill="#000000" font-family="sans-serif" font-size="7" font-weight="bold" lengthAdjust="spacing" textLength="19.5" x="898" y="277.0537">value</text></g><!--cluster valueObject--><g id="cluster_valueObject"><path d="M1091.25,268.5 L1134.25,268.5 A1.875,1.875 0 0 1 1135.5,269.75 L1139,280.8105 L1631.25,280.8105 A1.25,1.25 0 0 1 1632.5,282.0605 L1632.5,337.75 A1.25,1.25 0 0 1 1631.25,339 L1091.25,339 A1.25,1.25 0 0 1 1090,337.75 L1090,269.75 A1.25,1.25 0 0 1 1091.25,268.5 " fill="none" style="stroke:#000000;stroke-width:0.75;"/><line style="stroke:#000000;stroke-width:0.75;" x1="1090" x2="1139" y1="280.8105" y2="280.8105"/><text fill="#000000" font-family="sans-serif" font-size="7" font-weight="bold" lengthAdjust="spacing" textLength="42.5" x="1092" y="277.0537">valueObject</text></g><!--cluster ddd--><g id="cluster_ddd"><path d="M1176.25,370 L1190.25,370 A1.875,1.875 0 0 1 1191.5,371.25 L1195,382.3105 L1249.75,382.3105 A1.25,1.25 0 0 1 1251,383.5605 L1251,496.25 A1.25,1.25 0 0 1 1249.75,497.5 L1176.25,497.5 A1.25,1.25 0 0 1 1175,496.25 L1175,371.25 A1.25,1.25 0 0 1 1176.25,370 " fill="none" style="stroke:#000000;stroke-width:0.75;"/><line style="stroke:#000000;stroke-width:0.75;" x1="1175" x2="1195" y1="382.3105" y2="382.3105"/><text fill="#000000" font-family="sans-serif" font-size="7" font-weight="bold" lengthAdjust="spacing" textLength="13.5" x="1177" y="378.5537">ddd</text></g><!--class Sensor--><g id="elem_Sensor"><rect codeLine="4" fill="#F1F1F1" height="89.1738" id="Sensor" rx="1.25" ry="1.25" style="stroke:#181818;stroke-width:0.25;" width="122" x="684" y="264.5"/><ellipse cx="731.625" cy="272.5" fill="#B4A7E5" rx="5.5" ry="5.5" style="stroke:#181818;stroke-width:0.5;"/><path d="M732.1016,270.8203 L732.1016,274.1484 L732.9609,274.1484 Q733.2656,274.1484 733.3984,274.2656 Q733.5313,274.3828 733.5313,274.5781 Q733.5313,274.7656 733.3984,274.8828 Q733.2656,275 732.9609,275 L730.3906,275 Q730.0859,275 729.9531,274.8828 Q729.8203,274.7656 729.8203,274.5703 Q729.8203,274.3828 729.9531,274.2656 Q730.0859,274.1484 730.3906,274.1484 L731.25,274.1484 L731.25,270.8203 L730.3906,270.8203 Q730.0859,270.8203 729.9531,270.7031 Q729.8203,270.5859 729.8203,270.3906 Q729.8203,270.2031 729.9531,270.0859 Q730.0859,269.9688 730.3906,269.9688 L732.9609,269.9688 Q733.2656,269.9688 733.3984,270.0859 Q733.5313,270.2031 733.5313,270.3906 Q733.5313,270.5859 733.3984,270.7031 Q733.2656,270.8203 732.9609,270.8203 L732.1016,270.8203 Z " fill="#000000"/><text fill="#000000" font-family="sans-serif" font-size="7" font-style="italic" lengthAdjust="spacing" textLength="22.5" x="741.875" y="275.3984">Sensor</text><line style="stroke:#181818;stroke-width:0.25;" x1="684.5" x2="805.5" y1="280.5" y2="280.5"/><line style="stroke:#181818;stroke-width:0.25;" x1="684.5" x2="805.5" y1="284.5" y2="284.5"/><ellipse cx="689.5" cy="291.9053" fill="#84BE84" rx="1.5" ry="1.5" style="stroke:#038048;stroke-width:0.5;"/><text fill="#000000" font-family="sans-serif" font-size="7" lengthAdjust="spacing" textLength="54.5" x="694" y="294.0537">getID(): SensorID</text><ellipse cx="689.5" cy="301.2158" fill="#84BE84" rx="1.5" ry="1.5" style="stroke:#038048;stroke-width:0.5;"/><text fill="#000000" font-family="sans-serif" font-size="7" lengthAdjust="spacing" textLength="77.5" x="694" y="303.3643">getName(): SensorName</text><ellipse cx="689.5" cy="310.5264" fill="#84BE84" rx="1.5" ry="1.5" style="stroke:#038048;stroke-width:0.5;"/><text fill="#000000" font-family="sans-serif" font-size="7" lengthAdjust="spacing" textLength="86" x="694" y="312.6748">getModelPath(): ModelPath</text><ellipse cx="689.5" cy="319.8369" fill="#84BE84" rx="1.5" ry="1.5" style="stroke:#038048;stroke-width:0.5;"/><text fill="#000000" font-family="sans-serif" font-size="7" lengthAdjust="spacing" textLength="109" x="694" y="321.9854">getSensorTypeID(): SensorTypeID</text><ellipse cx="689.5" cy="329.1475" fill="#84BE84" rx="1.5" ry="1.5" style="stroke:#038048;stroke-width:0.5;"/><text fill="#000000" font-family="sans-serif" font-size="7" lengthAdjust="spacing" textLength="75" x="694" y="331.2959">getDeviceID(): DeviceID</text><ellipse cx="689.5" cy="338.458" fill="#84BE84" rx="1.5" ry="1.5" style="stroke:#038048;stroke-width:0.5;"/><text fill="#000000" font-family="sans-serif" font-size="7" lengthAdjust="spacing" textLength="75.5" x="694" y="340.6064">getValue(): ValueObject</text><ellipse cx="689.5" cy="347.7686" fill="#84BE84" rx="1.5" ry="1.5" style="stroke:#038048;stroke-width:0.5;"/><text fill="#000000" font-family="sans-serif" font-size="7" lengthAdjust="spacing" textLength="52" x="694" y="349.917">toString(): String</text></g><!--class FactorySensor--><g id="elem_FactorySensor"><rect codeLine="13" fill="#F1F1F1" height="33.3105" id="FactorySensor" rx="1.25" ry="1.25" style="stroke:#181818;stroke-width:0.25;" width="414" x="15" y="147.75"/><ellipse cx="196.625" cy="155.75" fill="#B4A7E5" rx="5.5" ry="5.5" style="stroke:#181818;stroke-width:0.5;"/><path d="M197.1016,154.0703 L197.1016,157.3984 L197.9609,157.3984 Q198.2656,157.3984 198.3984,157.5156 Q198.5313,157.6328 198.5313,157.8281 Q198.5313,158.0156 198.3984,158.1328 Q198.2656,158.25 197.9609,158.25 L195.3906,158.25 Q195.0859,158.25 194.9531,158.1328 Q194.8203,158.0156 194.8203,157.8203 Q194.8203,157.6328 194.9531,157.5156 Q195.0859,157.3984 195.3906,157.3984 L196.25,157.3984 L196.25,154.0703 L195.3906,154.0703 Q195.0859,154.0703 194.9531,153.9531 Q194.8203,153.8359 194.8203,153.6406 Q194.8203,153.4531 194.9531,153.3359 Q195.0859,153.2188 195.3906,153.2188 L197.9609,153.2188 Q198.2656,153.2188 198.3984,153.3359 Q198.5313,153.4531 198.5313,153.6406 Q198.5313,153.8359 198.3984,153.9531 Q198.2656,154.0703 197.9609,154.0703 L197.1016,154.0703 Z " fill="#000000"/><text fill="#000000" font-family="sans-serif" font-size="7" font-style="italic" lengthAdjust="spacing" textLength="46.5" x="206.875" y="158.6484">FactorySensor</text><line style="stroke:#181818;stroke-width:0.25;" x1="15.5" x2="428.5" y1="163.75" y2="163.75"/><line style="stroke:#181818;stroke-width:0.25;" x1="15.5" x2="428.5" y1="167.75" y2="167.75"/><ellipse cx="20.5" cy="175.1553" fill="#84BE84" rx="1.5" ry="1.5" style="stroke:#038048;stroke-width:0.5;"/><text fill="#000000" font-family="sans-serif" font-size="7" lengthAdjust="spacing" textLength="401" x="25" y="177.3037">createSensor(deviceID : DeviceID, modelPath : ModelPath, sensorTypeID : SensorTypeID, sensorName : SensorName): Sensor</text></g><!--class ImplFactorySensor--><g id="elem_ImplFactorySensor"><rect codeLine="16" fill="#F1F1F1" height="33.3105" id="ImplFactorySensor" rx="1.25" ry="1.25" style="stroke:#181818;stroke-width:0.25;" width="414" x="235.5" y="31"/><ellipse cx="410.875" cy="39" fill="#ADD1B2" rx="5.5" ry="5.5" style="stroke:#181818;stroke-width:0.5;"/><path d="M412.2578,36.9375 Q412.3359,36.8281 412.4297,36.7734 Q412.5234,36.7188 412.6328,36.7188 Q412.8203,36.7188 412.9375,36.8516 Q413.0547,36.9766 413.0547,37.2813 L413.0547,38.0078 Q413.0547,38.3125 412.9375,38.4453 Q412.8203,38.5781 412.6328,38.5781 Q412.4609,38.5781 412.3594,38.4766 Q412.2578,38.3828 412.2031,38.125 Q412.1797,37.9453 412.0859,37.8516 Q411.9219,37.6641 411.6172,37.5547 Q411.3125,37.4453 411,37.4453 Q410.6172,37.4453 410.2969,37.6094 Q409.9844,37.7734 409.7344,38.1484 Q409.4922,38.5234 409.4922,39.0391 L409.4922,39.5859 Q409.4922,40.2031 409.9375,40.6172 Q410.3828,41.0234 411.1797,41.0234 Q411.6484,41.0234 411.9766,40.8984 Q412.1719,40.8203 412.3828,40.6016 Q412.5156,40.4688 412.5859,40.4297 Q412.6641,40.3906 412.7656,40.3906 Q412.9297,40.3906 413.0547,40.5234 Q413.1875,40.6484 413.1875,40.8203 Q413.1875,40.9922 413.0156,41.1953 Q412.7656,41.4844 412.3672,41.6484 Q411.8281,41.875 411.1797,41.875 Q410.4219,41.875 409.8203,41.5625 Q409.3281,41.3125 408.9844,40.7813 Q408.6406,40.2422 408.6406,39.6016 L408.6406,39.0234 Q408.6406,38.3594 408.9453,37.7891 Q409.2578,37.2109 409.8047,36.9063 Q410.3516,36.5938 410.9688,36.5938 Q411.3359,36.5938 411.6563,36.6797 Q411.9844,36.7578 412.2578,36.9375 Z " fill="#000000"/><text fill="#000000" font-family="sans-serif" font-size="7" lengthAdjust="spacing" textLength="59" x="421.125" y="41.8984">ImplFactorySensor</text><line style="stroke:#181818;stroke-width:0.25;" x1="236" x2="649" y1="47" y2="47"/><line style="stroke:#181818;stroke-width:0.25;" x1="236" x2="649" y1="51" y2="51"/><ellipse cx="241" cy="58.4053" fill="#84BE84" rx="1.5" ry="1.5" style="stroke:#038048;stroke-width:0.5;"/><text fill="#000000" font-family="sans-serif" font-size="7" lengthAdjust="spacing" textLength="401" x="245.5" y="60.5537">createSensor(deviceID : DeviceID, modelPath : ModelPath, sensorTypeID : SensorTypeID, sensorName : SensorName): Sensor</text></g><!--class InstantPowerConsumptionSensor--><g id="elem_InstantPowerConsumptionSensor"><rect codeLine="20" fill="#F1F1F1" height="145.0371" id="InstantPowerConsumptionSensor" rx="1.25" ry="1.25" style="stroke:#181818;stroke-width:0.25;" width="449.5" x="438.25" y="92"/><ellipse cx="608.625" cy="100" fill="#ADD1B2" rx="5.5" ry="5.5" style="stroke:#181818;stroke-width:0.5;"/><path d="M610.0078,97.9375 Q610.0859,97.8281 610.1797,97.7734 Q610.2734,97.7188 610.3828,97.7188 Q610.5703,97.7188 610.6875,97.8516 Q610.8047,97.9766 610.8047,98.2813 L610.8047,99.0078 Q610.8047,99.3125 610.6875,99.4453 Q610.5703,99.5781 610.3828,99.5781 Q610.2109,99.5781 610.1094,99.4766 Q610.0078,99.3828 609.9531,99.125 Q609.9297,98.9453 609.8359,98.8516 Q609.6719,98.6641 609.3672,98.5547 Q609.0625,98.4453 608.75,98.4453 Q608.3672,98.4453 608.0469,98.6094 Q607.7344,98.7734 607.4844,99.1484 Q607.2422,99.5234 607.2422,100.0391 L607.2422,100.5859 Q607.2422,101.2031 607.6875,101.6172 Q608.1328,102.0234 608.9297,102.0234 Q609.3984,102.0234 609.7266,101.8984 Q609.9219,101.8203 610.1328,101.6016 Q610.2656,101.4688 610.3359,101.4297 Q610.4141,101.3906 610.5156,101.3906 Q610.6797,101.3906 610.8047,101.5234 Q610.9375,101.6484 610.9375,101.8203 Q610.9375,101.9922 610.7656,102.1953 Q610.5156,102.4844 610.1172,102.6484 Q609.5781,102.875 608.9297,102.875 Q608.1719,102.875 607.5703,102.5625 Q607.0781,102.3125 606.7344,101.7813 Q606.3906,101.2422 606.3906,100.6016 L606.3906,100.0234 Q606.3906,99.3594 606.6953,98.7891 Q607.0078,98.2109 607.5547,97.9063 Q608.1016,97.5938 608.7188,97.5938 Q609.0859,97.5938 609.4063,97.6797 Q609.7344,97.7578 610.0078,97.9375 Z " fill="#000000"/><text fill="#000000" font-family="sans-serif" font-size="7" lengthAdjust="spacing" textLength="104.5" x="618.875" y="102.8984">InstantPowerConsumptionSensor</text><line style="stroke:#181818;stroke-width:0.25;" x1="438.75" x2="887.25" y1="108" y2="108"/><rect fill="none" height="3" style="stroke:#C82930;stroke-width:0.5;" width="3" x="442.25" y="113.9053"/><text fill="#000000" font-family="sans-serif" font-size="7" lengthAdjust="spacing" textLength="77" x="448.25" y="117.5537">_modelPath : ModelPath</text><rect fill="none" height="3" style="stroke:#C82930;stroke-width:0.5;" width="3" x="442.25" y="123.2158"/><text fill="#000000" font-family="sans-serif" font-size="7" lengthAdjust="spacing" textLength="90" x="448.25" y="126.8643">_sensorName : SensorName</text><rect fill="none" height="3" style="stroke:#C82930;stroke-width:0.5;" width="3" x="442.25" y="132.5264"/><text fill="#000000" font-family="sans-serif" font-size="7" lengthAdjust="spacing" textLength="67" x="448.25" y="136.1748">_sensorID : SensorID</text><rect fill="none" height="3" style="stroke:#C82930;stroke-width:0.5;" width="3" x="442.25" y="141.8369"/><text fill="#000000" font-family="sans-serif" font-size="7" lengthAdjust="spacing" textLength="99" x="448.25" y="145.4854">_sensorTypeID : SensorTypeID</text><rect fill="none" height="3" style="stroke:#C82930;stroke-width:0.5;" width="3" x="442.25" y="151.1475"/><text fill="#000000" font-family="sans-serif" font-size="7" lengthAdjust="spacing" textLength="95" x="448.25" y="154.7959">_dewPointValue : ValueObject</text><rect fill="none" height="3" style="stroke:#C82930;stroke-width:0.5;" width="3" x="442.25" y="160.458"/><text fill="#000000" font-family="sans-serif" font-size="7" lengthAdjust="spacing" textLength="65" x="448.25" y="164.1064">_deviceID : DeviceID</text><line style="stroke:#181818;stroke-width:0.25;" x1="438.75" x2="887.25" y1="167.8633" y2="167.8633"/><polygon fill="#FFFF44" points="443.75,172.7686,445.75,174.7686,443.75,176.7686,441.75,174.7686" style="stroke:#B38D22;stroke-width:0.5;"/><text fill="#000000" font-family="sans-serif" font-size="7" lengthAdjust="spacing" textLength="436.5" x="448.25" y="177.417">InstantPowerConsumptionSensor(deviceID : DeviceID, modelPath : ModelPath, sensorTypeID : SensorTypeID, sensorName : SensorName)</text><ellipse cx="443.75" cy="184.5791" fill="#84BE84" rx="1.5" ry="1.5" style="stroke:#038048;stroke-width:0.5;"/><text fill="#000000" font-family="sans-serif" font-size="7" lengthAdjust="spacing" textLength="58.5" x="448.25" y="186.7275">getID () : SensorID</text><ellipse cx="443.75" cy="193.8896" fill="#84BE84" rx="1.5" ry="1.5" style="stroke:#038048;stroke-width:0.5;"/><text fill="#000000" font-family="sans-serif" font-size="7" lengthAdjust="spacing" textLength="81.5" x="448.25" y="196.0381">getName () : SensorName</text><ellipse cx="443.75" cy="203.2002" fill="#84BE84" rx="1.5" ry="1.5" style="stroke:#038048;stroke-width:0.5;"/><text fill="#000000" font-family="sans-serif" font-size="7" lengthAdjust="spacing" textLength="90" x="448.25" y="205.3486">getModelPath () : ModelPath</text><ellipse cx="443.75" cy="212.5107" fill="#84BE84" rx="1.5" ry="1.5" style="stroke:#038048;stroke-width:0.5;"/><text fill="#000000" font-family="sans-serif" font-size="7" lengthAdjust="spacing" textLength="113" x="448.25" y="214.6592">getSensorTypeID () : SensorTypeID</text><ellipse cx="443.75" cy="221.8213" fill="#84BE84" rx="1.5" ry="1.5" style="stroke:#038048;stroke-width:0.5;"/><text fill="#000000" font-family="sans-serif" font-size="7" lengthAdjust="spacing" textLength="79.5" x="448.25" y="223.9697">getValue () : ValueObject</text><ellipse cx="443.75" cy="231.1318" fill="#84BE84" rx="1.5" ry="1.5" style="stroke:#038048;stroke-width:0.5;"/><text fill="#000000" font-family="sans-serif" font-size="7" lengthAdjust="spacing" textLength="79" x="448.25" y="233.2803">getDeviceID () : DeviceID</text></g><!--class InstantPowerConsumptionValue--><g id="elem_InstantPowerConsumptionValue"><rect codeLine="39" fill="#F1F1F1" height="51.9316" id="InstantPowerConsumptionValue" rx="1.25" ry="1.25" style="stroke:#181818;stroke-width:0.25;" width="178" x="900" y="283"/><ellipse cx="936.875" cy="291" fill="#ADD1B2" rx="5.5" ry="5.5" style="stroke:#181818;stroke-width:0.5;"/><path d="M938.2578,288.9375 Q938.3359,288.8281 938.4297,288.7734 Q938.5234,288.7188 938.6328,288.7188 Q938.8203,288.7188 938.9375,288.8516 Q939.0547,288.9766 939.0547,289.2813 L939.0547,290.0078 Q939.0547,290.3125 938.9375,290.4453 Q938.8203,290.5781 938.6328,290.5781 Q938.4609,290.5781 938.3594,290.4766 Q938.2578,290.3828 938.2031,290.125 Q938.1797,289.9453 938.0859,289.8516 Q937.9219,289.6641 937.6172,289.5547 Q937.3125,289.4453 937,289.4453 Q936.6172,289.4453 936.2969,289.6094 Q935.9844,289.7734 935.7344,290.1484 Q935.4922,290.5234 935.4922,291.0391 L935.4922,291.5859 Q935.4922,292.2031 935.9375,292.6172 Q936.3828,293.0234 937.1797,293.0234 Q937.6484,293.0234 937.9766,292.8984 Q938.1719,292.8203 938.3828,292.6016 Q938.5156,292.4688 938.5859,292.4297 Q938.6641,292.3906 938.7656,292.3906 Q938.9297,292.3906 939.0547,292.5234 Q939.1875,292.6484 939.1875,292.8203 Q939.1875,292.9922 939.0156,293.1953 Q938.7656,293.4844 938.3672,293.6484 Q937.8281,293.875 937.1797,293.875 Q936.4219,293.875 935.8203,293.5625 Q935.3281,293.3125 934.9844,292.7813 Q934.6406,292.2422 934.6406,291.6016 L934.6406,291.0234 Q934.6406,290.3594 934.9453,289.7891 Q935.2578,289.2109 935.8047,288.9063 Q936.3516,288.5938 936.9688,288.5938 Q937.3359,288.5938 937.6563,288.6797 Q937.9844,288.7578 938.2578,288.9375 Z " fill="#000000"/><text fill="#000000" font-family="sans-serif" font-size="7" lengthAdjust="spacing" textLength="100" x="947.125" y="293.8984">InstantPowerConsumptionValue</text><line style="stroke:#181818;stroke-width:0.25;" x1="900.5" x2="1077.5" y1="299" y2="299"/><rect fill="none" height="3" style="stroke:#C82930;stroke-width:0.5;" width="3" x="904" y="304.9053"/><text fill="#000000" font-family="sans-serif" font-size="7" lengthAdjust="spacing" textLength="65" x="910" y="308.5537">_DewPointValue : int</text><line style="stroke:#181818;stroke-width:0.25;" x1="900.5" x2="1077.5" y1="312.3105" y2="312.3105"/><ellipse cx="905.5" cy="319.7158" fill="#84BE84" rx="1.5" ry="1.5" style="stroke:#038048;stroke-width:0.5;"/><text fill="#000000" font-family="sans-serif" font-size="7" lengthAdjust="spacing" textLength="165" x="910" y="321.8643">InstantPowerConsumptionValue(dewPointValue : int)</text><ellipse cx="905.5" cy="329.0264" fill="#84BE84" rx="1.5" ry="1.5" style="stroke:#038048;stroke-width:0.5;"/><text fill="#000000" font-family="sans-serif" font-size="7" lengthAdjust="spacing" textLength="54" x="910" y="331.1748">toString() : String</text></g><!--class SensorTypeID--><g id="elem_SensorTypeID"><rect codeLine="47" fill="#F1F1F1" height="51.9316" id="SensorTypeID" rx="1.25" ry="1.25" style="stroke:#181818;stroke-width:0.25;" width="131.5" x="1094.25" y="283"/><ellipse cx="1135.375" cy="291" fill="#ADD1B2" rx="5.5" ry="5.5" style="stroke:#181818;stroke-width:0.5;"/><path d="M1136.7578,288.9375 Q1136.8359,288.8281 1136.9297,288.7734 Q1137.0234,288.7188 1137.1328,288.7188 Q1137.3203,288.7188 1137.4375,288.8516 Q1137.5547,288.9766 1137.5547,289.2813 L1137.5547,290.0078 Q1137.5547,290.3125 1137.4375,290.4453 Q1137.3203,290.5781 1137.1328,290.5781 Q1136.9609,290.5781 1136.8594,290.4766 Q1136.7578,290.3828 1136.7031,290.125 Q1136.6797,289.9453 1136.5859,289.8516 Q1136.4219,289.6641 1136.1172,289.5547 Q1135.8125,289.4453 1135.5,289.4453 Q1135.1172,289.4453 1134.7969,289.6094 Q1134.4844,289.7734 1134.2344,290.1484 Q1133.9922,290.5234 1133.9922,291.0391 L1133.9922,291.5859 Q1133.9922,292.2031 1134.4375,292.6172 Q1134.8828,293.0234 1135.6797,293.0234 Q1136.1484,293.0234 1136.4766,292.8984 Q1136.6719,292.8203 1136.8828,292.6016 Q1137.0156,292.4688 1137.0859,292.4297 Q1137.1641,292.3906 1137.2656,292.3906 Q1137.4297,292.3906 1137.5547,292.5234 Q1137.6875,292.6484 1137.6875,292.8203 Q1137.6875,292.9922 1137.5156,293.1953 Q1137.2656,293.4844 1136.8672,293.6484 Q1136.3281,293.875 1135.6797,293.875 Q1134.9219,293.875 1134.3203,293.5625 Q1133.8281,293.3125 1133.4844,292.7813 Q1133.1406,292.2422 1133.1406,291.6016 L1133.1406,291.0234 Q1133.1406,290.3594 1133.4453,289.7891 Q1133.7578,289.2109 1134.3047,288.9063 Q1134.8516,288.5938 1135.4688,288.5938 Q1135.8359,288.5938 1136.1563,288.6797 Q1136.4844,288.7578 1136.7578,288.9375 Z " fill="#000000"/><text fill="#000000" font-family="sans-serif" font-size="7" lengthAdjust="spacing" textLength="45" x="1145.625" y="293.8984">SensorTypeID</text><line style="stroke:#181818;stroke-width:0.25;" x1="1094.75" x2="1225.25" y1="299" y2="299"/><rect fill="none" height="3" style="stroke:#C82930;stroke-width:0.5;" width="3" x="1098.25" y="304.9053"/><text fill="#000000" font-family="sans-serif" font-size="7" lengthAdjust="spacing" textLength="34" x="1104.25" y="308.5537">_id : String</text><line style="stroke:#181818;stroke-width:0.25;" x1="1094.75" x2="1225.25" y1="312.3105" y2="312.3105"/><ellipse cx="1099.75" cy="319.7158" fill="#84BE84" rx="1.5" ry="1.5" style="stroke:#038048;stroke-width:0.5;"/><text fill="#000000" font-family="sans-serif" font-size="7" lengthAdjust="spacing" textLength="118.5" x="1104.25" y="321.8643">SensorTypeID(sensorTypeID : String)</text><ellipse cx="1099.75" cy="329.0264" fill="#84BE84" rx="1.5" ry="1.5" style="stroke:#038048;stroke-width:0.5;"/><text fill="#000000" font-family="sans-serif" font-size="7" lengthAdjust="spacing" textLength="46" x="1104.25" y="331.1748">getID() : String</text></g><!--class SensorID--><g id="elem_SensorID"><rect codeLine="53" fill="#F1F1F1" height="51.9316" id="SensorID" rx="1.25" ry="1.25" style="stroke:#181818;stroke-width:0.25;" width="99.5" x="1234.75" y="283"/><ellipse cx="1267.875" cy="291" fill="#ADD1B2" rx="5.5" ry="5.5" style="stroke:#181818;stroke-width:0.5;"/><path d="M1269.2578,288.9375 Q1269.3359,288.8281 1269.4297,288.7734 Q1269.5234,288.7188 1269.6328,288.7188 Q1269.8203,288.7188 1269.9375,288.8516 Q1270.0547,288.9766 1270.0547,289.2813 L1270.0547,290.0078 Q1270.0547,290.3125 1269.9375,290.4453 Q1269.8203,290.5781 1269.6328,290.5781 Q1269.4609,290.5781 1269.3594,290.4766 Q1269.2578,290.3828 1269.2031,290.125 Q1269.1797,289.9453 1269.0859,289.8516 Q1268.9219,289.6641 1268.6172,289.5547 Q1268.3125,289.4453 1268,289.4453 Q1267.6172,289.4453 1267.2969,289.6094 Q1266.9844,289.7734 1266.7344,290.1484 Q1266.4922,290.5234 1266.4922,291.0391 L1266.4922,291.5859 Q1266.4922,292.2031 1266.9375,292.6172 Q1267.3828,293.0234 1268.1797,293.0234 Q1268.6484,293.0234 1268.9766,292.8984 Q1269.1719,292.8203 1269.3828,292.6016 Q1269.5156,292.4688 1269.5859,292.4297 Q1269.6641,292.3906 1269.7656,292.3906 Q1269.9297,292.3906 1270.0547,292.5234 Q1270.1875,292.6484 1270.1875,292.8203 Q1270.1875,292.9922 1270.0156,293.1953 Q1269.7656,293.4844 1269.3672,293.6484 Q1268.8281,293.875 1268.1797,293.875 Q1267.4219,293.875 1266.8203,293.5625 Q1266.3281,293.3125 1265.9844,292.7813 Q1265.6406,292.2422 1265.6406,291.6016 L1265.6406,291.0234 Q1265.6406,290.3594 1265.9453,289.7891 Q1266.2578,289.2109 1266.8047,288.9063 Q1267.3516,288.5938 1267.9688,288.5938 Q1268.3359,288.5938 1268.6563,288.6797 Q1268.9844,288.7578 1269.2578,288.9375 Z " fill="#000000"/><text fill="#000000" font-family="sans-serif" font-size="7" lengthAdjust="spacing" textLength="29" x="1278.125" y="293.8984">SensorID</text><line style="stroke:#181818;stroke-width:0.25;" x1="1235.25" x2="1333.75" y1="299" y2="299"/><rect fill="none" height="3" style="stroke:#C82930;stroke-width:0.5;" width="3" x="1238.75" y="304.9053"/><text fill="#000000" font-family="sans-serif" font-size="7" lengthAdjust="spacing" textLength="32" x="1244.75" y="308.5537">_id: String</text><line style="stroke:#181818;stroke-width:0.25;" x1="1235.25" x2="1333.75" y1="312.3105" y2="312.3105"/><ellipse cx="1240.25" cy="319.7158" fill="#84BE84" rx="1.5" ry="1.5" style="stroke:#038048;stroke-width:0.5;"/><text fill="#000000" font-family="sans-serif" font-size="7" lengthAdjust="spacing" textLength="86.5" x="1244.75" y="321.8643">SensorID(sensorID : String)</text><ellipse cx="1240.25" cy="329.0264" fill="#84BE84" rx="1.5" ry="1.5" style="stroke:#038048;stroke-width:0.5;"/><text fill="#000000" font-family="sans-serif" font-size="7" lengthAdjust="spacing" textLength="46" x="1244.75" y="331.1748">getID() : String</text></g><!--class ModelPath--><g id="elem_ModelPath"><rect codeLine="59" fill="#F1F1F1" height="51.9316" id="ModelPath" rx="1.25" ry="1.25" style="stroke:#181818;stroke-width:0.25;" width="90" x="1343.5" y="283"/><ellipse cx="1369.625" cy="291" fill="#ADD1B2" rx="5.5" ry="5.5" style="stroke:#181818;stroke-width:0.5;"/><path d="M1371.0078,288.9375 Q1371.0859,288.8281 1371.1797,288.7734 Q1371.2734,288.7188 1371.3828,288.7188 Q1371.5703,288.7188 1371.6875,288.8516 Q1371.8047,288.9766 1371.8047,289.2813 L1371.8047,290.0078 Q1371.8047,290.3125 1371.6875,290.4453 Q1371.5703,290.5781 1371.3828,290.5781 Q1371.2109,290.5781 1371.1094,290.4766 Q1371.0078,290.3828 1370.9531,290.125 Q1370.9297,289.9453 1370.8359,289.8516 Q1370.6719,289.6641 1370.3672,289.5547 Q1370.0625,289.4453 1369.75,289.4453 Q1369.3672,289.4453 1369.0469,289.6094 Q1368.7344,289.7734 1368.4844,290.1484 Q1368.2422,290.5234 1368.2422,291.0391 L1368.2422,291.5859 Q1368.2422,292.2031 1368.6875,292.6172 Q1369.1328,293.0234 1369.9297,293.0234 Q1370.3984,293.0234 1370.7266,292.8984 Q1370.9219,292.8203 1371.1328,292.6016 Q1371.2656,292.4688 1371.3359,292.4297 Q1371.4141,292.3906 1371.5156,292.3906 Q1371.6797,292.3906 1371.8047,292.5234 Q1371.9375,292.6484 1371.9375,292.8203 Q1371.9375,292.9922 1371.7656,293.1953 Q1371.5156,293.4844 1371.1172,293.6484 Q1370.5781,293.875 1369.9297,293.875 Q1369.1719,293.875 1368.5703,293.5625 Q1368.0781,293.3125 1367.7344,292.7813 Q1367.3906,292.2422 1367.3906,291.6016 L1367.3906,291.0234 Q1367.3906,290.3594 1367.6953,289.7891 Q1368.0078,289.2109 1368.5547,288.9063 Q1369.1016,288.5938 1369.7188,288.5938 Q1370.0859,288.5938 1370.4063,288.6797 Q1370.7344,288.7578 1371.0078,288.9375 Z " fill="#000000"/><text fill="#000000" font-family="sans-serif" font-size="7" lengthAdjust="spacing" textLength="33.5" x="1379.875" y="293.8984">ModelPath</text><line style="stroke:#181818;stroke-width:0.25;" x1="1344" x2="1433" y1="299" y2="299"/><rect fill="none" height="3" style="stroke:#C82930;stroke-width:0.5;" width="3" x="1347.5" y="304.9053"/><text fill="#000000" font-family="sans-serif" font-size="7" lengthAdjust="spacing" textLength="40.5" x="1353.5" y="308.5537">_path: String</text><line style="stroke:#181818;stroke-width:0.25;" x1="1344" x2="1433" y1="312.3105" y2="312.3105"/><ellipse cx="1349" cy="319.7158" fill="#84BE84" rx="1.5" ry="1.5" style="stroke:#038048;stroke-width:0.5;"/><text fill="#000000" font-family="sans-serif" font-size="7" lengthAdjust="spacing" textLength="77" x="1353.5" y="321.8643">ModelPath(path : String)</text><ellipse cx="1349" cy="329.0264" fill="#84BE84" rx="1.5" ry="1.5" style="stroke:#038048;stroke-width:0.5;"/><text fill="#000000" font-family="sans-serif" font-size="7" lengthAdjust="spacing" textLength="54" x="1353.5" y="331.1748">getPath() : String</text></g><!--class SensorName--><g id="elem_SensorName"><rect codeLine="65" fill="#F1F1F1" height="51.9316" id="SensorName" rx="1.25" ry="1.25" style="stroke:#181818;stroke-width:0.25;" width="100.5" x="1442.75" y="283"/><ellipse cx="1470.625" cy="291" fill="#ADD1B2" rx="5.5" ry="5.5" style="stroke:#181818;stroke-width:0.5;"/><path d="M1472.0078,288.9375 Q1472.0859,288.8281 1472.1797,288.7734 Q1472.2734,288.7188 1472.3828,288.7188 Q1472.5703,288.7188 1472.6875,288.8516 Q1472.8047,288.9766 1472.8047,289.2813 L1472.8047,290.0078 Q1472.8047,290.3125 1472.6875,290.4453 Q1472.5703,290.5781 1472.3828,290.5781 Q1472.2109,290.5781 1472.1094,290.4766 Q1472.0078,290.3828 1471.9531,290.125 Q1471.9297,289.9453 1471.8359,289.8516 Q1471.6719,289.6641 1471.3672,289.5547 Q1471.0625,289.4453 1470.75,289.4453 Q1470.3672,289.4453 1470.0469,289.6094 Q1469.7344,289.7734 1469.4844,290.1484 Q1469.2422,290.5234 1469.2422,291.0391 L1469.2422,291.5859 Q1469.2422,292.2031 1469.6875,292.6172 Q1470.1328,293.0234 1470.9297,293.0234 Q1471.3984,293.0234 1471.7266,292.8984 Q1471.9219,292.8203 1472.1328,292.6016 Q1472.2656,292.4688 1472.3359,292.4297 Q1472.4141,292.3906 1472.5156,292.3906 Q1472.6797,292.3906 1472.8047,292.5234 Q1472.9375,292.6484 1472.9375,292.8203 Q1472.9375,292.9922 1472.7656,293.1953 Q1472.5156,293.4844 1472.1172,293.6484 Q1471.5781,293.875 1470.9297,293.875 Q1470.1719,293.875 1469.5703,293.5625 Q1469.0781,293.3125 1468.7344,292.7813 Q1468.3906,292.2422 1468.3906,291.6016 L1468.3906,291.0234 Q1468.3906,290.3594 1468.6953,289.7891 Q1469.0078,289.2109 1469.5547,288.9063 Q1470.1016,288.5938 1470.7188,288.5938 Q1471.0859,288.5938 1471.4063,288.6797 Q1471.7344,288.7578 1472.0078,288.9375 Z " fill="#000000"/><text fill="#000000" font-family="sans-serif" font-size="7" lengthAdjust="spacing" textLength="40.5" x="1480.875" y="293.8984">SensorName</text><line style="stroke:#181818;stroke-width:0.25;" x1="1443.25" x2="1542.75" y1="299" y2="299"/><rect fill="none" height="3" style="stroke:#C82930;stroke-width:0.5;" width="3" x="1446.75" y="304.9053"/><text fill="#000000" font-family="sans-serif" font-size="7" lengthAdjust="spacing" textLength="44" x="1452.75" y="308.5537">_name: String</text><line style="stroke:#181818;stroke-width:0.25;" x1="1443.25" x2="1542.75" y1="312.3105" y2="312.3105"/><ellipse cx="1448.25" cy="319.7158" fill="#84BE84" rx="1.5" ry="1.5" style="stroke:#038048;stroke-width:0.5;"/><text fill="#000000" font-family="sans-serif" font-size="7" lengthAdjust="spacing" textLength="87.5" x="1452.75" y="321.8643">SensorName(name : String)</text><ellipse cx="1448.25" cy="329.0264" fill="#84BE84" rx="1.5" ry="1.5" style="stroke:#038048;stroke-width:0.5;"/><text fill="#000000" font-family="sans-serif" font-size="7" lengthAdjust="spacing" textLength="57.5" x="1452.75" y="331.1748">getName() : String</text></g><!--class DeviceID--><g id="elem_DeviceID"><rect codeLine="71" fill="#F1F1F1" height="51.9316" id="DeviceID" rx="1.25" ry="1.25" style="stroke:#181818;stroke-width:0.25;" width="76" x="1552.5" y="283"/><ellipse cx="1574.4" cy="291" fill="#ADD1B2" rx="5.5" ry="5.5" style="stroke:#181818;stroke-width:0.5;"/><path d="M1575.7828,288.9375 Q1575.8609,288.8281 1575.9547,288.7734 Q1576.0484,288.7188 1576.1578,288.7188 Q1576.3453,288.7188 1576.4625,288.8516 Q1576.5797,288.9766 1576.5797,289.2813 L1576.5797,290.0078 Q1576.5797,290.3125 1576.4625,290.4453 Q1576.3453,290.5781 1576.1578,290.5781 Q1575.9859,290.5781 1575.8844,290.4766 Q1575.7828,290.3828 1575.7281,290.125 Q1575.7047,289.9453 1575.6109,289.8516 Q1575.4469,289.6641 1575.1422,289.5547 Q1574.8375,289.4453 1574.525,289.4453 Q1574.1422,289.4453 1573.8219,289.6094 Q1573.5094,289.7734 1573.2594,290.1484 Q1573.0172,290.5234 1573.0172,291.0391 L1573.0172,291.5859 Q1573.0172,292.2031 1573.4625,292.6172 Q1573.9078,293.0234 1574.7047,293.0234 Q1575.1734,293.0234 1575.5016,292.8984 Q1575.6969,292.8203 1575.9078,292.6016 Q1576.0406,292.4688 1576.1109,292.4297 Q1576.1891,292.3906 1576.2906,292.3906 Q1576.4547,292.3906 1576.5797,292.5234 Q1576.7125,292.6484 1576.7125,292.8203 Q1576.7125,292.9922 1576.5406,293.1953 Q1576.2906,293.4844 1575.8922,293.6484 Q1575.3531,293.875 1574.7047,293.875 Q1573.9469,293.875 1573.3453,293.5625 Q1572.8531,293.3125 1572.5094,292.7813 Q1572.1656,292.2422 1572.1656,291.6016 L1572.1656,291.0234 Q1572.1656,290.3594 1572.4703,289.7891 Q1572.7828,289.2109 1573.3297,288.9063 Q1573.8766,288.5938 1574.4938,288.5938 Q1574.8609,288.5938 1575.1813,288.6797 Q1575.5094,288.7578 1575.7828,288.9375 Z " fill="#000000"/><text fill="#000000" font-family="sans-serif" font-size="7" lengthAdjust="spacing" textLength="28" x="1584.6" y="293.8984">DeviceID</text><line style="stroke:#181818;stroke-width:0.25;" x1="1553" x2="1628" y1="299" y2="299"/><rect fill="none" height="3" style="stroke:#C82930;stroke-width:0.5;" width="3" x="1556.5" y="304.9053"/><text fill="#000000" font-family="sans-serif" font-size="7" lengthAdjust="spacing" textLength="32" x="1562.5" y="308.5537">_id: String</text><line style="stroke:#181818;stroke-width:0.25;" x1="1553" x2="1628" y1="312.3105" y2="312.3105"/><ellipse cx="1558" cy="319.7158" fill="#84BE84" rx="1.5" ry="1.5" style="stroke:#038048;stroke-width:0.5;"/><text fill="#000000" font-family="sans-serif" font-size="7" lengthAdjust="spacing" textLength="63" x="1562.5" y="321.8643">DeviceID(id : String)</text><ellipse cx="1558" cy="329.0264" fill="#84BE84" rx="1.5" ry="1.5" style="stroke:#038048;stroke-width:0.5;"/><text fill="#000000" font-family="sans-serif" font-size="7" lengthAdjust="spacing" textLength="46" x="1562.5" y="331.1748">getID() : String</text></g><!--class DomainEntity--><g id="elem_DomainEntity"><rect codeLine="80" fill="#F1F1F1" height="24" id="DomainEntity" rx="1.25" ry="1.25" style="stroke:#181818;stroke-width:0.25;" width="57.5" x="1179.25" y="427"/><ellipse cx="1186.75" cy="435" fill="#B4A7E5" rx="5.5" ry="5.5" style="stroke:#181818;stroke-width:0.5;"/><path d="M1187.2266,433.3203 L1187.2266,436.6484 L1188.0859,436.6484 Q1188.3906,436.6484 1188.5234,436.7656 Q1188.6563,436.8828 1188.6563,437.0781 Q1188.6563,437.2656 1188.5234,437.3828 Q1188.3906,437.5 1188.0859,437.5 L1185.5156,437.5 Q1185.2109,437.5 1185.0781,437.3828 Q1184.9453,437.2656 1184.9453,437.0703 Q1184.9453,436.8828 1185.0781,436.7656 Q1185.2109,436.6484 1185.5156,436.6484 L1186.375,436.6484 L1186.375,433.3203 L1185.5156,433.3203 Q1185.2109,433.3203 1185.0781,433.2031 Q1184.9453,433.0859 1184.9453,432.8906 Q1184.9453,432.7031 1185.0781,432.5859 Q1185.2109,432.4688 1185.5156,432.4688 L1188.0859,432.4688 Q1188.3906,432.4688 1188.5234,432.5859 Q1188.6563,432.7031 1188.6563,432.8906 Q1188.6563,433.0859 1188.5234,433.2031 Q1188.3906,433.3203 1188.0859,433.3203 L1187.2266,433.3203 Z " fill="#000000"/><text fill="#000000" font-family="sans-serif" font-size="7" font-style="italic" lengthAdjust="spacing" textLength="41.5" x="1193.75" y="437.8984">DomainEntity</text><line style="stroke:#181818;stroke-width:0.25;" x1="1179.75" x2="1236.25" y1="443" y2="443"/><line style="stroke:#181818;stroke-width:0.25;" x1="1179.75" x2="1236.25" y1="447" y2="447"/></g><!--class DomainID--><g id="elem_DomainID"><rect codeLine="83" fill="#F1F1F1" height="24" id="DomainID" rx="1.25" ry="1.25" style="stroke:#181818;stroke-width:0.25;" width="47" x="1200" y="469.5"/><ellipse cx="1207.5" cy="477.5" fill="#B4A7E5" rx="5.5" ry="5.5" style="stroke:#181818;stroke-width:0.5;"/><path d="M1207.9766,475.8203 L1207.9766,479.1484 L1208.8359,479.1484 Q1209.1406,479.1484 1209.2734,479.2656 Q1209.4063,479.3828 1209.4063,479.5781 Q1209.4063,479.7656 1209.2734,479.8828 Q1209.1406,480 1208.8359,480 L1206.2656,480 Q1205.9609,480 1205.8281,479.8828 Q1205.6953,479.7656 1205.6953,479.5703 Q1205.6953,479.3828 1205.8281,479.2656 Q1205.9609,479.1484 1206.2656,479.1484 L1207.125,479.1484 L1207.125,475.8203 L1206.2656,475.8203 Q1205.9609,475.8203 1205.8281,475.7031 Q1205.6953,475.5859 1205.6953,475.3906 Q1205.6953,475.2031 1205.8281,475.0859 Q1205.9609,474.9688 1206.2656,474.9688 L1208.8359,474.9688 Q1209.1406,474.9688 1209.2734,475.0859 Q1209.4063,475.2031 1209.4063,475.3906 Q1209.4063,475.5859 1209.2734,475.7031 Q1209.1406,475.8203 1208.8359,475.8203 L1207.9766,475.8203 Z " fill="#000000"/><text fill="#000000" font-family="sans-serif" font-size="7" font-style="italic" lengthAdjust="spacing" textLength="31" x="1214.5" y="480.3984">DomainID</text><line style="stroke:#181818;stroke-width:0.25;" x1="1200.5" x2="1246.5" y1="485.5" y2="485.5"/><line style="stroke:#181818;stroke-width:0.25;" x1="1200.5" x2="1246.5" y1="489.5" y2="489.5"/></g><!--class AggregateRoot--><g id="elem_AggregateRoot"><rect codeLine="86" fill="#F1F1F1" height="24" id="AggregateRoot" rx="1.25" ry="1.25" style="stroke:#181818;stroke-width:0.25;" width="64" x="1179" y="384.5"/><ellipse cx="1186.5" cy="392.5" fill="#B4A7E5" rx="5.5" ry="5.5" style="stroke:#181818;stroke-width:0.5;"/><path d="M1186.9766,390.8203 L1186.9766,394.1484 L1187.8359,394.1484 Q1188.1406,394.1484 1188.2734,394.2656 Q1188.4063,394.3828 1188.4063,394.5781 Q1188.4063,394.7656 1188.2734,394.8828 Q1188.1406,395 1187.8359,395 L1185.2656,395 Q1184.9609,395 1184.8281,394.8828 Q1184.6953,394.7656 1184.6953,394.5703 Q1184.6953,394.3828 1184.8281,394.2656 Q1184.9609,394.1484 1185.2656,394.1484 L1186.125,394.1484 L1186.125,390.8203 L1185.2656,390.8203 Q1184.9609,390.8203 1184.8281,390.7031 Q1184.6953,390.5859 1184.6953,390.3906 Q1184.6953,390.2031 1184.8281,390.0859 Q1184.9609,389.9688 1185.2656,389.9688 L1187.8359,389.9688 Q1188.1406,389.9688 1188.2734,390.0859 Q1188.4063,390.2031 1188.4063,390.3906 Q1188.4063,390.5859 1188.2734,390.7031 Q1188.1406,390.8203 1187.8359,390.8203 L1186.9766,390.8203 Z " fill="#000000"/><text fill="#000000" font-family="sans-serif" font-size="7" font-style="italic" lengthAdjust="spacing" textLength="48" x="1193.5" y="395.3984">AggregateRoot</text><line style="stroke:#181818;stroke-width:0.25;" x1="1179.5" x2="1242.5" y1="400.5" y2="400.5"/><line style="stroke:#181818;stroke-width:0.25;" x1="1179.5" x2="1242.5" y1="404.5" y2="404.5"/></g><polygon fill="none" points="252.9663,147.7445,262.3294,146.2176,259.5406,140.9051,252.9663,147.7445" style="stroke:#181818;stroke-width:0.5;"/><path d="M411.3754,64.5886 C369.3511,86.649 302.8778,121.5438 260.935,143.5613 " fill="none" style="stroke:#181818;stroke-width:0.5;stroke-dasharray:7.0,7.0;"/><polygon fill="#181818" points="525.7272,91.9395,522.6724,88.0771,523.5136,90.7776,520.8132,91.6188,525.7272,91.9395" style="stroke:#181818;stroke-width:0.5;"/><path d="M473.6246,64.5886 C488.0482,72.1602 503.6344,80.3421 523.0709,90.5452 " fill="none" style="stroke:#181818;stroke-width:0.5;stroke-dasharray:7.0,7.0;"/><text fill="#000000" font-family="sans-serif" font-size="6.5" lengthAdjust="spacing" textLength="21.5" x="508" y="81.0142">creates</text><text fill="#000000" font-family="sans-serif" font-size="6.5" lengthAdjust="spacing" textLength="3.5" x="521.7272" y="89.9537">1</text><text fill="#000000" font-family="sans-serif" font-size="6.5" lengthAdjust="spacing" textLength="3.5" x="469.6246" y="72.1028">1</text><polygon fill="none" points="719.7819,264.3684,717.9214,255.0658,712.712,258.0426,719.7819,264.3684" style="stroke:#181818;stroke-width:0.5;"/><path d="M704.2402,237.1704 C709.5445,246.453 710.3782,247.9119 715.3167,256.5542 " fill="none" style="stroke:#181818;stroke-width:0.5;stroke-dasharray:7.0,7.0;"/><polygon fill="#181818" points="934.4833,282.9434,931.2381,279.2396,932.2141,281.8943,929.5594,282.8703,934.4833,282.9434" style="stroke:#181818;stroke-width:0.5;"/><path d="M831.6594,237.0205 C852.6882,246.1847 873.8671,255.5036 894,264.5 C907.1513,270.3767 918.5413,275.5725 931.7603,281.6844 " fill="none" style="stroke:#181818;stroke-width:0.5;"/><text fill="#000000" font-family="sans-serif" font-size="6.5" lengthAdjust="spacing" textLength="10.5" x="869.5" y="253.5142">has</text><text fill="#000000" font-family="sans-serif" font-size="6.5" lengthAdjust="spacing" textLength="3.5" x="930.4833" y="280.9576">1</text><text fill="#000000" font-family="sans-serif" font-size="6.5" lengthAdjust="spacing" textLength="3.5" x="827.6594" y="244.5347">1</text><polygon fill="#181818" points="1120.875,282.9277,1117.9946,278.9335,1118.7152,281.6686,1115.9801,282.3891,1120.875,282.9277" style="stroke:#181818;stroke-width:0.5;"/><path d="M887.8399,205.3498 C952.3722,220.3353 1022.018,239.8557 1084,264.5 C1096.4673,269.4571 1106.7521,274.6944 1118.2832,281.4168 " fill="none" style="stroke:#181818;stroke-width:0.5;"/><text fill="#000000" font-family="sans-serif" font-size="6.5" lengthAdjust="spacing" textLength="10.5" x="1051.5" y="253.5142">has</text><text fill="#000000" font-family="sans-serif" font-size="6.5" lengthAdjust="spacing" textLength="3.5" x="1116.875" y="280.9418">1</text><text fill="#000000" font-family="sans-serif" font-size="6.5" lengthAdjust="spacing" textLength="3.5" x="888.3399" y="203.364">1</text><polygon fill="#181818" points="1258.5931,282.9269,1256.4159,278.5099,1256.6723,281.3267,1253.8555,281.5831,1258.5931,282.9269" style="stroke:#181818;stroke-width:0.5;"/><path d="M887.8904,177.9832 C995.4149,190.7079 1123.6577,215.6759 1230.5,264.5 C1240.5092,269.0739 1247.9209,274.0355 1256.2882,281.0066 " fill="none" style="stroke:#181818;stroke-width:0.5;"/><text fill="#000000" font-family="sans-serif" font-size="6.5" lengthAdjust="spacing" textLength="10.5" x="1202.5" y="253.5142">has</text><text fill="#000000" font-family="sans-serif" font-size="6.5" lengthAdjust="spacing" textLength="3.5" x="1254.5931" y="280.9411">1</text><text fill="#000000" font-family="sans-serif" font-size="6.5" lengthAdjust="spacing" textLength="3.5" x="888.3904" y="175.9974">1</text><polygon fill="#181818" points="1571.2073,282.989,1569.5946,278.3361,1569.4998,281.163,1566.673,281.0682,1571.2073,282.989" style="stroke:#181818;stroke-width:0.5;"/><path d="M887.9275,186.0972 C1040.2795,201.062 1246.0249,222.5842 1427,246 C1480.953,252.9808 1499.6756,239.5118 1548,264.5 C1556.6792,268.9879 1562.56,273.7415 1569.1583,280.7978 " fill="none" style="stroke:#181818;stroke-width:0.5;"/><text fill="#000000" font-family="sans-serif" font-size="6.5" lengthAdjust="spacing" textLength="10.5" x="1527" y="253.5142">has</text><text fill="#000000" font-family="sans-serif" font-size="6.5" lengthAdjust="spacing" textLength="3.5" x="1567.2073" y="281.0032">1</text><text fill="#000000" font-family="sans-serif" font-size="6.5" lengthAdjust="spacing" textLength="3.5" x="883.9275" y="184.1114">1</text><polygon fill="#181818" points="1365.3802,282.9834,1363.4105,278.47,1363.5359,281.2957,1360.7102,281.421,1365.3802,282.9834" style="stroke:#181818;stroke-width:0.5;"/><path d="M887.8207,197.7978 C988.1183,212.4715 1107.7345,230.029 1215.5,246 C1270.4017,254.1365 1288.7301,240.977 1339,264.5 C1348.5811,268.9833 1355.4555,273.9016 1363.167,280.9581 " fill="none" style="stroke:#181818;stroke-width:0.5;"/><text fill="#000000" font-family="sans-serif" font-size="6.5" lengthAdjust="spacing" textLength="10.5" x="1315" y="253.5142">has</text><text fill="#000000" font-family="sans-serif" font-size="6.5" lengthAdjust="spacing" textLength="3.5" x="1361.3802" y="280.9975">1</text><text fill="#000000" font-family="sans-serif" font-size="6.5" lengthAdjust="spacing" textLength="3.5" x="888.3207" y="195.812">1</text><polygon fill="#181818" points="1466.5671,282.8901,1464.3503,278.4928,1464.632,281.3072,1461.8177,281.589,1466.5671,282.8901" style="stroke:#181818;stroke-width:0.5;"/><path d="M887.8513,189.8155 C1016.8533,204.6959 1181.7481,224.8056 1328,246 C1377.063,253.1101 1392.747,244.2542 1438,264.5 C1448.1574,269.0443 1455.7212,274.0183 1464.245,280.9906 " fill="none" style="stroke:#181818;stroke-width:0.5;"/><text fill="#000000" font-family="sans-serif" font-size="6.5" lengthAdjust="spacing" textLength="10.5" x="1414" y="253.5142">has</text><text fill="#000000" font-family="sans-serif" font-size="6.5" lengthAdjust="spacing" textLength="3.5" x="1462.5671" y="280.9042">1</text><text fill="#000000" font-family="sans-serif" font-size="6.5" lengthAdjust="spacing" textLength="3.5" x="888.3513" y="187.8296">1</text><polygon fill="none" points="1219.1518,469.358,1218.8132,459.8772,1213.1924,461.9765,1219.1518,469.358" style="stroke:#181818;stroke-width:0.5;"/><path d="M1212.3176,451.0601 C1214.4495,456.7681 1213.8667,455.2077 1216.0028,460.9269 " fill="none" style="stroke:#181818;stroke-width:0.5;"/><polygon fill="none" points="1208.8416,426.858,1212.4827,418.0977,1206.4983,417.6651,1208.8416,426.858" style="stroke:#181818;stroke-width:0.5;"/><path d="M1210.1643,408.5601 C1209.7517,414.2681 1209.9039,412.1623 1209.4905,417.8814 " fill="none" style="stroke:#181818;stroke-width:0.5;"/><polygon fill="none" points="1232.455,469.4252,1239.9574,463.6188,1234.9731,460.2786,1232.455,469.4252" style="stroke:#181818;stroke-width:0.5;"/><path d="M1227.3313,408.6347 C1232.9211,413.5889 1238.5145,419.8758 1241.5,427 C1245.6226,436.8378 1244.3473,440.7204 1241.5,451 C1239.6841,457.5559 1241.0221,456.6412 1237.4653,461.9487 " fill="none" style="stroke:#181818;stroke-width:0.5;"/><polygon fill="none" points="1178.8848,394.9131,1170.0222,391.5289,1169.7642,397.5234,1178.8848,394.9131" style="stroke:#181818;stroke-width:0.5;"/><path d="M806.0644,334.3362 C832.6704,344.2313 864.4687,354.8313 894,361.5 C996.465,384.6383 1112.1997,392.043 1169.8932,394.5261 " fill="none" style="stroke:#181818;stroke-width:0.5;stroke-dasharray:7.0,7.0;"/><polygon fill="none" points="1234.6574,469.4824,1242.6565,464.382,1237.9965,460.6026,1234.6574,469.4824" style="stroke:#181818;stroke-width:0.5;"/><path d="M1192.184,335.0455 C1203.9363,343.8837 1217.5308,353.556 1230.5,361.5 C1237.7034,365.9123 1243.059,362.8142 1247.5,370 C1266.4353,400.638 1254.663,416.3033 1245,451 C1243.109,457.7901 1244.5425,457.2938 1240.3265,462.4923 " fill="none" style="stroke:#181818;stroke-width:0.5;stroke-dasharray:7.0,7.0;"/><polygon fill="none" points="1247.0021,473.4173,1256.4107,472.2019,1253.7998,466.7998,1247.0021,473.4173" style="stroke:#181818;stroke-width:0.5;"/><path d="M1285.7047,335.0095 C1288.3142,367.3708 1290.194,423.421 1263.5,460.5 C1259.3751,466.2297 1261.3504,466.4825 1255.1053,469.5009 " fill="none" style="stroke:#181818;stroke-width:0.5;stroke-dasharray:7.0,7.0;"/><polygon fill="none" points="1247.0596,476.7287,1256.5454,476.8718,1254.7341,471.1517,1247.0596,476.7287" style="stroke:#181818;stroke-width:0.5;"/><path d="M1291.9151,335.0095 C1297.3142,367.3708 1299.194,423.421 1272.5,460.5 C1266.586,468.7148 1265.1347,471.0051 1255.6397,474.0118 " fill="none" style="stroke:#181818;stroke-width:0.5;stroke-dasharray:7.0,7.0;"/><polygon fill="none" points="1247.0972,474.4632,1256.5839,474.5125,1254.7162,468.8106,1247.0972,474.4632" style="stroke:#181818;stroke-width:0.5;"/><path d="M1378.0589,335.0334 C1362.3329,369.8921 1329.0376,431.3659 1279.5,460.5 C1269.4603,466.4046 1265.9827,468.2769 1255.6501,471.6615 " fill="none" style="stroke:#181818;stroke-width:0.5;stroke-dasharray:7.0,7.0;"/><polygon fill="none" points="1247.1767,476.8452,1256.5805,478.0982,1255.4515,472.2054,1247.1767,476.8452" style="stroke:#181818;stroke-width:0.5;"/><path d="M1573.8445,335.0886 C1566.7759,344.3964 1557.8802,354.3702 1548,361.5 C1449.4165,432.6407 1312.5929,464.313 1256.016,475.1518 " fill="none" style="stroke:#181818;stroke-width:0.5;stroke-dasharray:7.0,7.0;"/><!--SRC=[pLLDZzCm4BtxLmpBfHMRIbpti18Y8FMmK56qLsGIamqqTXIxNLNG_uvZ9yuuTgrk9IHwgPFt9lDcF1-lsevM3OKTFOgz0jamHJabfAN5BrenA4L3QxwIZ4lHmMy2-bTpnReVj62mnQ_xtnkec5hdY-NTWArp7_j46pQX_PEFFuYIxJPKFVKaz-1phEtNOykm9_liCtDsg8k1DPvznYFTxOqWS_Zy_ISh568eiLLTpIlZnfmCU9hbuICjbEYEaNGK7QEAMM1H3X9WKdCBpHWae81lGQAWm8zn1Fli0KwbomKIMUoebB1ksjr_AXAhv59Ndzg8PzQz5rpkcrRLWWUAC_WM5OG9Pxo75AGS5OU3ey5XMicUDqANWYaWY1UIeGLf9Gv_dGxztz_9l85XiOHK2sCyqSIMTa4Ru-_56jacrv3YZOgQtTAyTZ-HKp3I3kQJVL4bY-_HqSmrvhFRraTY5QJi5sLejYJp4GDendYA3rF8Wn8hsSkWrnvr2Tx0igwymJcl4qDUXfCSPfDlP609ddid8L20LJW5KUy91VEXCHMRbu5MlucaODelhUsSQDns0KKZns6RJl2ySltcREBDxkD3xyNSskMOSEjAV7RP4PTkzQ5IkE1sSP-KfVP3y9xBJUjyuAfMHwFX5CC7VJFiNLLrhD9xveiGQY1eIhYPLgi_z_v6ZP1ktjveuhtvJw-Dks6zIUqhIJH-HuT9PkyqovBEnqP_elB2Zvd3rc_AgwoliSod1VD2omUqXQwIEooZtfPuzPLb-Zx6YY9- -I3Cii_Z_Px5DwpBUkMHHtZ8kYCvSvVM5q5JOaBCfJk4_W80]--></g></svg>