<?xml version="1.0" encoding="us-ascii" standalone="no"?><svg xmlns="http://www.w3.org/2000/svg" xmlns:xlink="http://www.w3.org/1999/xlink" contentStyleType="text/css" height="596px" preserveAspectRatio="none" style="width:1325px;height:596px;background:#FFFFFF;" version="1.1" viewBox="0 0 1325 596" width="1325.6px" zoomAndPan="magnify"><defs/><g><rect fill="#FFFFFF" height="95.8984" style="stroke:#181818;stroke-width:0.8000000000000002;" width="8" x="418.8" y="134.7328"/><rect fill="#FFFFFF" height="296.1609" style="stroke:#181818;stroke-width:0.8000000000000002;" width="8" x="418.8" y="255.6641"/><rect fill="#FFFFFF" height="75.0984" style="stroke:#181818;stroke-width:0.8000000000000002;" width="8" x="911.6" y="280.6969"/><rect fill="#FFFFFF" height="75.0984" style="stroke:#181818;stroke-width:0.8000000000000002;" width="8" x="911.6" y="416.2609"/><rect fill="#FFFFFF" height="25.0328" style="stroke:#181818;stroke-width:0.8000000000000002;" width="8" x="1234.8" y="305.7297"/><rect fill="#FFFFFF" height="25.0328" style="stroke:#181818;stroke-width:0.8000000000000002;" width="8" x="1234.8" y="441.2938"/><line style="stroke:#181818;stroke-width:0.4000000000000001;stroke-dasharray:5.0,5.0;" x1="20.8" x2="20.8" y1="30.8969" y2="566.225"/><line style="stroke:#181818;stroke-width:0.4000000000000001;stroke-dasharray:5.0,5.0;" x1="422.8" x2="422.8" y1="30.8969" y2="566.225"/><line style="stroke:#181818;stroke-width:0.4000000000000001;stroke-dasharray:5.0,5.0;" x1="915.2" x2="915.2" y1="30.8969" y2="566.225"/><line style="stroke:#181818;stroke-width:0.4000000000000001;stroke-dasharray:5.0,5.0;" x1="1238.4" x2="1238.4" y1="30.8969" y2="566.225"/><rect fill="#E2E2F0" height="26.0969" rx="2" ry="2" style="stroke:#181818;stroke-width:0.4000000000000001;" width="34.4" x="4" y="4"/><text fill="#000000" font-family="sans-serif" font-size="11.2" lengthAdjust="spacing" textLength="23.2" x="9.6" y="21.6859">User</text><rect fill="#E2E2F0" height="26.0969" rx="2" ry="2" style="stroke:#181818;stroke-width:0.4000000000000001;" width="34.4" x="4" y="565.425"/><text fill="#000000" font-family="sans-serif" font-size="11.2" lengthAdjust="spacing" textLength="23.2" x="9.6" y="583.1109">User</text><rect fill="#E2E2F0" height="26.0969" rx="2" ry="2" style="stroke:#181818;stroke-width:0.4000000000000001;" width="328" x="258.8" y="4"/><text fill="#000000" font-family="sans-serif" font-size="11.2" lengthAdjust="spacing" textLength="316.8" x="264.4" y="21.6859">:GetMaxInstantaneousTempDifBetweenRoomAndOutsideCTRL</text><rect fill="#E2E2F0" height="26.0969" rx="2" ry="2" style="stroke:#181818;stroke-width:0.4000000000000001;" width="328" x="258.8" y="565.425"/><text fill="#000000" font-family="sans-serif" font-size="11.2" lengthAdjust="spacing" textLength="316.8" x="264.4" y="583.1109">:GetMaxInstantaneousTempDifBetweenRoomAndOutsideCTRL</text><rect fill="#E2E2F0" height="26.0969" rx="2" ry="2" style="stroke:#181818;stroke-width:0.4000000000000001;" width="130.4" x="850.4" y="4"/><text fill="#000000" font-family="sans-serif" font-size="11.2" lengthAdjust="spacing" textLength="119.2" x="856" y="21.6859">logService : LogService</text><rect fill="#E2E2F0" height="26.0969" rx="2" ry="2" style="stroke:#181818;stroke-width:0.4000000000000001;" width="130.4" x="850.4" y="565.425"/><text fill="#000000" font-family="sans-serif" font-size="11.2" lengthAdjust="spacing" textLength="119.2" x="856" y="583.1109">logService : LogService</text><rect fill="#E2E2F0" height="26.0969" rx="2" ry="2" style="stroke:#181818;stroke-width:0.4000000000000001;" width="164" x="1156.8" y="4"/><text fill="#000000" font-family="sans-serif" font-size="11.2" lengthAdjust="spacing" textLength="152.8" x="1162.4" y="21.6859">logRepository : LogRepository</text><rect fill="#E2E2F0" height="26.0969" rx="2" ry="2" style="stroke:#181818;stroke-width:0.4000000000000001;" width="164" x="1156.8" y="565.425"/><text fill="#000000" font-family="sans-serif" font-size="11.2" lengthAdjust="spacing" textLength="152.8" x="1162.4" y="583.1109">logRepository : LogRepository</text><rect fill="#FFFFFF" height="95.8984" style="stroke:#181818;stroke-width:0.8000000000000002;" width="8" x="418.8" y="134.7328"/><rect fill="#FFFFFF" height="296.1609" style="stroke:#181818;stroke-width:0.8000000000000002;" width="8" x="418.8" y="255.6641"/><rect fill="#FFFFFF" height="75.0984" style="stroke:#181818;stroke-width:0.8000000000000002;" width="8" x="911.6" y="280.6969"/><rect fill="#FFFFFF" height="75.0984" style="stroke:#181818;stroke-width:0.8000000000000002;" width="8" x="911.6" y="416.2609"/><rect fill="#FFFFFF" height="25.0328" style="stroke:#181818;stroke-width:0.8000000000000002;" width="8" x="1234.8" y="305.7297"/><rect fill="#FFFFFF" height="25.0328" style="stroke:#181818;stroke-width:0.8000000000000002;" width="8" x="1234.8" y="441.2938"/><rect fill="none" height="34.6016" style="stroke:#000000;stroke-width:1.2000000000000002;" width="587.6" x="1.6" y="38.8969"/><path d="M1.6,38.8969 L51.2,38.8969 L51.2,46.0969 L43.2,54.0969 L1.6,54.0969 L1.6,38.8969 " fill="#EEEEEE" style="stroke:#000000;stroke-width:1.6000000000000003;"/><text fill="#000000" font-family="sans-serif" font-size="10.4" font-weight="bold" lengthAdjust="spacing" textLength="13.6" x="12" y="51.7195">ref</text><text fill="#000000" font-family="sans-serif" font-size="9.6" lengthAdjust="spacing" textLength="46.4" x="272.2" y="67.6563">getRooms</text><rect fill="none" height="34.6016" style="stroke:#000000;stroke-width:1.2000000000000002;" width="587.6" x="1.6" y="77.4984"/><path d="M1.6,77.4984 L51.2,77.4984 L51.2,84.6984 L43.2,92.6984 L1.6,92.6984 L1.6,77.4984 " fill="#EEEEEE" style="stroke:#000000;stroke-width:1.6000000000000003;"/><text fill="#000000" font-family="sans-serif" font-size="10.4" font-weight="bold" lengthAdjust="spacing" textLength="13.6" x="12" y="90.3211">ref</text><text fill="#000000" font-family="sans-serif" font-size="9.6" lengthAdjust="spacing" textLength="162.4" x="214.2" y="106.2578">getAllDevicesGroupedByFunctionality</text><ellipse cx="20.8" cy="134.1328" fill="none" rx="3.2" ry="3.2" style="stroke:#181818;stroke-width:1.2000000000000002;"/><polygon fill="#181818" points="409.2,131.5328,417.2,134.7328,409.2,137.9328,412.4,134.7328" style="stroke:#181818;stroke-width:0.8000000000000002;"/><line style="stroke:#181818;stroke-width:0.8000000000000002;" x1="24.4" x2="414" y1="134.7328" y2="134.7328"/><text fill="#000000" font-family="sans-serif" font-size="10.4" font-weight="bold" lengthAdjust="spacing" textLength="5.6" x="26.8" y="130.5227">1</text><text fill="#000000" font-family="sans-serif" font-size="10.4" lengthAdjust="spacing" textLength="214.4" x="35.6" y="130.5227">getDevicesByTypeDescription(map, roomDTO)</text><line style="stroke:#181818;stroke-width:0.8000000000000002;" x1="426.8" x2="460.4" y1="159.7656" y2="159.7656"/><line style="stroke:#181818;stroke-width:0.8000000000000002;" x1="460.4" x2="460.4" y1="159.7656" y2="170.1656"/><line style="stroke:#181818;stroke-width:0.8000000000000002;" x1="427.6" x2="460.4" y1="170.1656" y2="170.1656"/><polygon fill="#181818" points="435.6,166.9656,427.6,170.1656,435.6,173.3656,432.4,170.1656" style="stroke:#181818;stroke-width:0.8000000000000002;"/><text fill="#000000" font-family="sans-serif" font-size="10.4" font-weight="bold" lengthAdjust="spacing" textLength="5.6" x="432.4" y="155.5555">2</text><text fill="#000000" font-family="sans-serif" font-size="10.4" lengthAdjust="spacing" textLength="192" x="441.2" y="155.5555">getDevicesWithTemperatureSensor (map)</text><line style="stroke:#181818;stroke-width:0.8000000000000002;" x1="426.8" x2="460.4" y1="195.1984" y2="195.1984"/><line style="stroke:#181818;stroke-width:0.8000000000000002;" x1="460.4" x2="460.4" y1="195.1984" y2="205.5984"/><line style="stroke:#181818;stroke-width:0.8000000000000002;" x1="427.6" x2="460.4" y1="205.5984" y2="205.5984"/><polygon fill="#181818" points="435.6,202.3984,427.6,205.5984,435.6,208.7984,432.4,205.5984" style="stroke:#181818;stroke-width:0.8000000000000002;"/><text fill="#000000" font-family="sans-serif" font-size="10.4" font-weight="bold" lengthAdjust="spacing" textLength="5.6" x="432.4" y="190.9883">3</text><text fill="#000000" font-family="sans-serif" font-size="10.4" lengthAdjust="spacing" textLength="273.6" x="441.2" y="190.9883">getDevicesFromRoom (temperatureDevicesDTO, roomDTO)</text><polygon fill="#181818" points="30,227.4313,22,230.6313,30,233.8313,26.8,230.6313" style="stroke:#181818;stroke-width:0.8000000000000002;"/><line style="stroke:#181818;stroke-width:0.8000000000000002;stroke-dasharray:2.0,2.0;" x1="25.2" x2="422" y1="230.6313" y2="230.6313"/><text fill="#000000" font-family="sans-serif" font-size="10.4" font-weight="bold" lengthAdjust="spacing" textLength="5.6" x="34.8" y="226.4211">4</text><text fill="#000000" font-family="sans-serif" font-size="10.4" lengthAdjust="spacing" textLength="147.2" x="43.6" y="226.4211">temperatureDevicesDTOInRoom</text><polygon fill="#181818" points="409.2,252.4641,417.2,255.6641,409.2,258.8641,412.4,255.6641" style="stroke:#181818;stroke-width:0.8000000000000002;"/><line style="stroke:#181818;stroke-width:0.8000000000000002;" x1="21.2" x2="414" y1="255.6641" y2="255.6641"/><text fill="#000000" font-family="sans-serif" font-size="10.4" font-weight="bold" lengthAdjust="spacing" textLength="5.6" x="26.8" y="251.4539">5</text><text fill="#000000" font-family="sans-serif" font-size="10.4" lengthAdjust="spacing" textLength="373.6" x="35.6" y="251.4539">getMaxInstTempDiffBetweenDeviceAndOutside (deviceDTO, initialTime, endTime)</text><polygon fill="#181818" points="902,277.4969,910,280.6969,902,283.8969,905.2,280.6969" style="stroke:#181818;stroke-width:0.8000000000000002;"/><line style="stroke:#181818;stroke-width:0.8000000000000002;" x1="426.8" x2="906.8" y1="280.6969" y2="280.6969"/><text fill="#000000" font-family="sans-serif" font-size="10.4" font-weight="bold" lengthAdjust="spacing" textLength="5.6" x="432.4" y="276.4867">6</text><text fill="#000000" font-family="sans-serif" font-size="10.4" lengthAdjust="spacing" textLength="299.2" x="441.2" y="276.4867">getDeviceReadingsByTimePeriod (deviceID, initialTime, endTime)</text><polygon fill="#181818" points="1225.2,302.5297,1233.2,305.7297,1225.2,308.9297,1228.4,305.7297" style="stroke:#181818;stroke-width:0.8000000000000002;"/><line style="stroke:#181818;stroke-width:0.8000000000000002;" x1="919.6" x2="1230" y1="305.7297" y2="305.7297"/><text fill="#000000" font-family="sans-serif" font-size="10.4" font-weight="bold" lengthAdjust="spacing" textLength="5.6" x="925.2" y="301.5195">7</text><text fill="#000000" font-family="sans-serif" font-size="10.4" lengthAdjust="spacing" textLength="285.6" x="934" y="301.5195">findByDeviceIDAndTimePeriod (deviceID, initialTime, endTime)</text><polygon fill="#181818" points="928.4,327.5625,920.4,330.7625,928.4,333.9625,925.2,330.7625" style="stroke:#181818;stroke-width:0.8000000000000002;"/><line style="stroke:#181818;stroke-width:0.8000000000000002;stroke-dasharray:2.0,2.0;" x1="923.6" x2="1238" y1="330.7625" y2="330.7625"/><text fill="#000000" font-family="sans-serif" font-size="10.4" font-weight="bold" lengthAdjust="spacing" textLength="5.6" x="933.2" y="326.5523">8</text><text fill="#000000" font-family="sans-serif" font-size="10.4" lengthAdjust="spacing" textLength="134.4" x="942" y="326.5523">outsideTemperatureReadings</text><polygon fill="#181818" points="435.6,352.5953,427.6,355.7953,435.6,358.9953,432.4,355.7953" style="stroke:#181818;stroke-width:0.8000000000000002;"/><line style="stroke:#181818;stroke-width:0.8000000000000002;stroke-dasharray:2.0,2.0;" x1="430.8" x2="914.8" y1="355.7953" y2="355.7953"/><text fill="#000000" font-family="sans-serif" font-size="10.4" font-weight="bold" lengthAdjust="spacing" textLength="5.6" x="440.4" y="351.5852">9</text><text fill="#000000" font-family="sans-serif" font-size="10.4" lengthAdjust="spacing" textLength="134.4" x="449.2" y="351.5852">outsideTemperatureReadings</text><line style="stroke:#181818;stroke-width:0.8000000000000002;" x1="426.8" x2="460.4" y1="380.8281" y2="380.8281"/><line style="stroke:#181818;stroke-width:0.8000000000000002;" x1="460.4" x2="460.4" y1="380.8281" y2="391.2281"/><line style="stroke:#181818;stroke-width:0.8000000000000002;" x1="427.6" x2="460.4" y1="391.2281" y2="391.2281"/><polygon fill="#181818" points="435.6,388.0281,427.6,391.2281,435.6,394.4281,432.4,391.2281" style="stroke:#181818;stroke-width:0.8000000000000002;"/><text fill="#000000" font-family="sans-serif" font-size="10.4" font-weight="bold" lengthAdjust="spacing" textLength="11.2" x="432.4" y="376.618">10</text><text fill="#000000" font-family="sans-serif" font-size="10.4" lengthAdjust="spacing" textLength="103.2" x="446.8" y="376.618">toDomain (deviceDTO)</text><polygon fill="#181818" points="902,413.0609,910,416.2609,902,419.4609,905.2,416.2609" style="stroke:#181818;stroke-width:0.8000000000000002;"/><line style="stroke:#181818;stroke-width:0.8000000000000002;" x1="426.8" x2="906.8" y1="416.2609" y2="416.2609"/><text fill="#000000" font-family="sans-serif" font-size="10.4" font-weight="bold" lengthAdjust="spacing" textLength="11.2" x="432.4" y="412.0508">11</text><text fill="#000000" font-family="sans-serif" font-size="10.4" lengthAdjust="spacing" textLength="304.8" x="446.8" y="412.0508">getTDeviceReadingsByTimePeriod (deviceID, initialTime, endTime)</text><polygon fill="#181818" points="1225.2,438.0938,1233.2,441.2938,1225.2,444.4938,1228.4,441.2938" style="stroke:#181818;stroke-width:0.8000000000000002;"/><line style="stroke:#181818;stroke-width:0.8000000000000002;" x1="919.6" x2="1230" y1="441.2938" y2="441.2938"/><text fill="#000000" font-family="sans-serif" font-size="10.4" font-weight="bold" lengthAdjust="spacing" textLength="11.2" x="925.2" y="437.0836">12</text><text fill="#000000" font-family="sans-serif" font-size="10.4" lengthAdjust="spacing" textLength="285.6" x="939.6" y="437.0836">findByDeviceIDAndTimePeriod (deviceID, initialTime, endTime)</text><polygon fill="#181818" points="928.4,463.1266,920.4,466.3266,928.4,469.5266,925.2,466.3266" style="stroke:#181818;stroke-width:0.8000000000000002;"/><line style="stroke:#181818;stroke-width:0.8000000000000002;stroke-dasharray:2.0,2.0;" x1="923.6" x2="1238" y1="466.3266" y2="466.3266"/><text fill="#000000" font-family="sans-serif" font-size="10.4" font-weight="bold" lengthAdjust="spacing" textLength="11.2" x="933.2" y="462.1164">13</text><text fill="#000000" font-family="sans-serif" font-size="10.4" lengthAdjust="spacing" textLength="129.6" x="947.6" y="462.1164">deviceTemperatureReadings</text><polygon fill="#181818" points="435.6,488.1594,427.6,491.3594,435.6,494.5594,432.4,491.3594" style="stroke:#181818;stroke-width:0.8000000000000002;"/><line style="stroke:#181818;stroke-width:0.8000000000000002;stroke-dasharray:2.0,2.0;" x1="430.8" x2="914.8" y1="491.3594" y2="491.3594"/><text fill="#000000" font-family="sans-serif" font-size="10.4" font-weight="bold" lengthAdjust="spacing" textLength="11.2" x="440.4" y="487.1492">14</text><text fill="#000000" font-family="sans-serif" font-size="10.4" lengthAdjust="spacing" textLength="129.6" x="454.8" y="487.1492">deviceTemperatureReadings</text><line style="stroke:#181818;stroke-width:0.8000000000000002;" x1="426.8" x2="460.4" y1="516.3922" y2="516.3922"/><line style="stroke:#181818;stroke-width:0.8000000000000002;" x1="460.4" x2="460.4" y1="516.3922" y2="526.7922"/><line style="stroke:#181818;stroke-width:0.8000000000000002;" x1="427.6" x2="460.4" y1="526.7922" y2="526.7922"/><polygon fill="#181818" points="435.6,523.5922,427.6,526.7922,435.6,529.9922,432.4,526.7922" style="stroke:#181818;stroke-width:0.8000000000000002;"/><text fill="#000000" font-family="sans-serif" font-size="10.4" font-weight="bold" lengthAdjust="spacing" textLength="11.2" x="432.4" y="512.182">15</text><text fill="#000000" font-family="sans-serif" font-size="10.4" lengthAdjust="spacing" textLength="459.2" x="446.8" y="512.182">getTempDiffBetweenDeviceAndOutside (outsideTemperatureReadings, deviceTemperatureReadings)</text><polygon fill="#181818" points="30,548.625,22,551.825,30,555.025,26.8,551.825" style="stroke:#181818;stroke-width:0.8000000000000002;"/><line style="stroke:#181818;stroke-width:0.8000000000000002;stroke-dasharray:2.0,2.0;" x1="25.2" x2="422" y1="551.825" y2="551.825"/><text fill="#000000" font-family="sans-serif" font-size="10.4" font-weight="bold" lengthAdjust="spacing" textLength="11.2" x="34.8" y="547.6148">16</text><text fill="#000000" font-family="sans-serif" font-size="10.4" lengthAdjust="spacing" textLength="124.8" x="49.2" y="547.6148">maxInstantaneousTempDiff</text><!--SRC=[vLN1Zfim4BtxAzoS4Ydz0GwLaaMxYhIhNMMfUdR391q9UonxIClVrmOId4rGqAgtIXomuRsPD-zXlbYd3bh9IZLKi_GQM1abX5MESOTM6PRVFRYBZGSoxAYgm4dbvInx0dvHVpR61souW6fVWBOvxjV0lm7CbaYlJFbQiySI7ehjy-oonAoYmpku8-v0PlBvl9Z50iFo2hC5InwPNDF1XlK9EUm8eMecK-kVGOvmi9Tq30gYkcKYAPC7uDYml_VIggfoY6tv9qUrXNBTFDPcnqX6LSYXO8H9-lhj8xA7hPkYiP23tpcq4JRNoYwb2yNpudKH6WvaHyMGu8L8fZ_A_0FvLxG0dEBQmJiOJqv6-iKqWaT7EWv1pdcWwP-5tj8cKxh05pLdyYPgqmP1Y19k2ckdTTrH7wq-KQT8TQn3gEIyR7VQvj0WeweArB2KOCfuCssSGzQIQMn1bMWEqQz0z0OEgJpLs-JtooK15iDzNsu8Q2RtQ4A8yfvurJ5zgbuQ-ujbwr6gahhv9MavoRqmwfhpBEE3PTC9pqCPJoHJJbgXIUnTtF6i-0zCwsZ_dMUJ-IPO5YsuzwsEPsGvtilOMQDl_tlsemVDNm00]--></g></svg>