<?xml version="1.0" encoding="us-ascii" standalone="no"?><svg xmlns="http://www.w3.org/2000/svg" xmlns:xlink="http://www.w3.org/1999/xlink" contentStyleType="text/css" height="499px" preserveAspectRatio="none" style="width:862px;height:499px;background:#FFFFFF;" version="1.1" viewBox="0 0 862 499" width="862px" zoomAndPan="magnify"><defs/><g><line style="stroke:#181818;stroke-width:0.5;stroke-dasharray:5.0,5.0;" x1="61" x2="61" y1="83.6211" y2="416.5313"/><line style="stroke:#181818;stroke-width:0.5;stroke-dasharray:5.0,5.0;" x1="826.5" x2="826.5" y1="83.6211" y2="416.5313"/><text fill="#000000" font-family="sans-serif" font-size="14" lengthAdjust="spacing" textLength="107" x="5" y="80.1074">RO, PU or Admin</text><ellipse cx="61.5" cy="13.5" fill="#E2E2F0" rx="8" ry="8" style="stroke:#181818;stroke-width:0.5;"/><path d="M61.5,21.5 L61.5,48.5 M48.5,29.5 L74.5,29.5 M61.5,48.5 L48.5,63.5 M61.5,48.5 L74.5,63.5 " fill="none" style="stroke:#181818;stroke-width:0.5;"/><text fill="#000000" font-family="sans-serif" font-size="14" lengthAdjust="spacing" textLength="107" x="5" y="430.6387">RO, PU or Admin</text><ellipse cx="61.5" cy="442.6523" fill="#E2E2F0" rx="8" ry="8" style="stroke:#181818;stroke-width:0.5;"/><path d="M61.5,450.6523 L61.5,477.6523 M48.5,458.6523 L74.5,458.6523 M61.5,477.6523 L48.5,492.6523 M61.5,477.6523 L74.5,492.6523 " fill="none" style="stroke:#181818;stroke-width:0.5;"/><rect fill="#E2E2F0" height="32.6211" rx="2.5" ry="2.5" style="stroke:#181818;stroke-width:0.5;" width="60" x="796.5" y="50"/><text fill="#000000" font-family="sans-serif" font-size="14" lengthAdjust="spacing" textLength="46" x="803.5" y="72.1074">System</text><rect fill="#E2E2F0" height="32.6211" rx="2.5" ry="2.5" style="stroke:#181818;stroke-width:0.5;" width="60" x="796.5" y="415.5313"/><text fill="#000000" font-family="sans-serif" font-size="14" lengthAdjust="spacing" textLength="46" x="803.5" y="437.6387">System</text><polygon fill="#181818" points="814.5,112.9121,824.5,116.9121,814.5,120.9121,818.5,116.9121" style="stroke:#181818;stroke-width:1.0;"/><line style="stroke:#181818;stroke-width:1.0;" x1="61.5" x2="820.5" y1="116.9121" y2="116.9121"/><text fill="#000000" font-family="sans-serif" font-size="13" lengthAdjust="spacing" textLength="741" x="68.5" y="111.6494">I want to get the maximum instantaneous temperature difference between a device in the room and the outside, in a given period.</text><polygon fill="#181818" points="72.5,144.2031,62.5,148.2031,72.5,152.2031,68.5,148.2031" style="stroke:#181818;stroke-width:1.0;"/><line style="stroke:#181818;stroke-width:1.0;stroke-dasharray:2.0,2.0;" x1="66.5" x2="825.5" y1="148.2031" y2="148.2031"/><text fill="#000000" font-family="sans-serif" font-size="13" lengthAdjust="spacing" textLength="87" x="78.5" y="142.9404">In which room?</text><polygon fill="#181818" points="814.5,175.4941,824.5,179.4941,814.5,183.4941,818.5,179.4941" style="stroke:#181818;stroke-width:1.0;"/><line style="stroke:#181818;stroke-width:1.0;" x1="61.5" x2="820.5" y1="179.4941" y2="179.4941"/><text fill="#000000" font-family="sans-serif" font-size="13" lengthAdjust="spacing" textLength="37" x="68.5" y="174.2314">Room!</text><polygon fill="#181818" points="72.5,206.7852,62.5,210.7852,72.5,214.7852,68.5,210.7852" style="stroke:#181818;stroke-width:1.0;"/><line style="stroke:#181818;stroke-width:1.0;stroke-dasharray:2.0,2.0;" x1="66.5" x2="825.5" y1="210.7852" y2="210.7852"/><text fill="#000000" font-family="sans-serif" font-size="13" lengthAdjust="spacing" textLength="303" x="78.5" y="205.5225">Which device with temperature reading functionality?</text><polygon fill="#181818" points="814.5,238.0762,824.5,242.0762,814.5,246.0762,818.5,242.0762" style="stroke:#181818;stroke-width:1.0;"/><line style="stroke:#181818;stroke-width:1.0;" x1="61.5" x2="820.5" y1="242.0762" y2="242.0762"/><text fill="#000000" font-family="sans-serif" font-size="13" lengthAdjust="spacing" textLength="41" x="68.5" y="236.8135">Device!</text><polygon fill="#181818" points="72.5,269.3672,62.5,273.3672,72.5,277.3672,68.5,273.3672" style="stroke:#181818;stroke-width:1.0;"/><line style="stroke:#181818;stroke-width:1.0;stroke-dasharray:2.0,2.0;" x1="66.5" x2="825.5" y1="273.3672" y2="273.3672"/><text fill="#000000" font-family="sans-serif" font-size="13" lengthAdjust="spacing" textLength="206" x="78.5" y="268.1045">Time at the beginning of the period?</text><polygon fill="#181818" points="814.5,300.6582,824.5,304.6582,814.5,308.6582,818.5,304.6582" style="stroke:#181818;stroke-width:1.0;"/><line style="stroke:#181818;stroke-width:1.0;" x1="61.5" x2="820.5" y1="304.6582" y2="304.6582"/><text fill="#000000" font-family="sans-serif" font-size="13" lengthAdjust="spacing" textLength="202" x="68.5" y="299.3955">Time at the beginning of the period!</text><polygon fill="#181818" points="72.5,331.9492,62.5,335.9492,72.5,339.9492,68.5,335.9492" style="stroke:#181818;stroke-width:1.0;"/><line style="stroke:#181818;stroke-width:1.0;stroke-dasharray:2.0,2.0;" x1="66.5" x2="825.5" y1="335.9492" y2="335.9492"/><text fill="#000000" font-family="sans-serif" font-size="13" lengthAdjust="spacing" textLength="172" x="78.5" y="330.6865">Time at the end of the period?</text><polygon fill="#181818" points="814.5,363.2402,824.5,367.2402,814.5,371.2402,818.5,367.2402" style="stroke:#181818;stroke-width:1.0;"/><line style="stroke:#181818;stroke-width:1.0;" x1="61.5" x2="820.5" y1="367.2402" y2="367.2402"/><text fill="#000000" font-family="sans-serif" font-size="13" lengthAdjust="spacing" textLength="168" x="68.5" y="361.9775">Time at the end of the period!</text><polygon fill="#181818" points="72.5,394.5313,62.5,398.5313,72.5,402.5313,68.5,398.5313" style="stroke:#181818;stroke-width:1.0;"/><line style="stroke:#181818;stroke-width:1.0;stroke-dasharray:2.0,2.0;" x1="66.5" x2="825.5" y1="398.5313" y2="398.5313"/><text fill="#000000" font-family="sans-serif" font-size="13" lengthAdjust="spacing" textLength="640" x="78.5" y="393.2686">Maximum instantaneous temperature difference between a device in the room and the outside in a given period.</text><!--SRC=[jP71JiCm38RlVOf_Esyym0uW92uS4DDWukmrRcjfSQeaNUdRutQxe5O23aYH4jlvVtznLcsasXFED8Gk8tdEf5HGcKF4-l2wmVu8EpuwBxe69HmJnwAbcAMKbZJZRKYPVL6C1MplR_4Ep-Z7SWwesRQ6uUbJVESXcgoBBGvTWbrkELBk8iD9LN5aBHadpZspWk3u8fOGdKnY21waRWgCEOdZpLWar78nWPb9S7T5SGN1rfX6DYDIz8sKpUJnC2S-M7greFkOH3UCNdBpZJaoET4QLQTbbg1qbZmik3zD-ha_TdWNpw3ha4vSY-fe6AefSNtFWk4lL3zsOnlaN_hCxY_Dw-M__ddfcxy0]--></g></svg>