<?xml version="1.0" encoding="us-ascii" standalone="no"?><svg xmlns="http://www.w3.org/2000/svg" xmlns:xlink="http://www.w3.org/1999/xlink" contentStyleType="text/css" height="514px" preserveAspectRatio="none" style="width:1687px;height:514px;background:#FFFFFF;" version="1.1" viewBox="0 0 1687 514" width="1687px" zoomAndPan="magnify"><defs/><g><!--class GetListOfAllDevicesGroupedByFunctionalityController--><g id="elem_GetListOfAllDevicesGroupedByFunctionalityController"><rect codeLine="4" fill="#F1F1F1" height="122.4844" id="GetListOfAllDevicesGroupedByFunctionalityController" rx="2.5" ry="2.5" style="stroke:#181818;stroke-width:0.5;" width="561" x="593" y="12"/><ellipse cx="699.75" cy="28" fill="#ADD1B2" rx="11" ry="11" style="stroke:#181818;stroke-width:1.0;"/><path d="M702.5156,23.875 Q702.6719,23.6563 702.8594,23.5469 Q703.0469,23.4375 703.2656,23.4375 Q703.6406,23.4375 703.875,23.7031 Q704.1094,23.9531 704.1094,24.5625 L704.1094,26.0156 Q704.1094,26.625 703.875,26.8906 Q703.6406,27.1563 703.2656,27.1563 Q702.9219,27.1563 702.7188,26.9531 Q702.5156,26.7656 702.4063,26.25 Q702.3594,25.8906 702.1719,25.7031 Q701.8438,25.3281 701.2344,25.1094 Q700.625,24.8906 700,24.8906 Q699.2344,24.8906 698.5938,25.2188 Q697.9688,25.5469 697.4688,26.2969 Q696.9844,27.0469 696.9844,28.0781 L696.9844,29.1719 Q696.9844,30.4063 697.875,31.2344 Q698.7656,32.0469 700.3594,32.0469 Q701.2969,32.0469 701.9531,31.7969 Q702.3438,31.6406 702.7656,31.2031 Q703.0313,30.9375 703.1719,30.8594 Q703.3281,30.7813 703.5313,30.7813 Q703.8594,30.7813 704.1094,31.0469 Q704.375,31.2969 704.375,31.6406 Q704.375,31.9844 704.0313,32.3906 Q703.5313,32.9688 702.7344,33.2969 Q701.6563,33.75 700.3594,33.75 Q698.8438,33.75 697.6406,33.125 Q696.6563,32.625 695.9688,31.5625 Q695.2813,30.4844 695.2813,29.2031 L695.2813,28.0469 Q695.2813,26.7188 695.8906,25.5781 Q696.5156,24.4219 697.6094,23.8125 Q698.7031,23.1875 699.9375,23.1875 Q700.6719,23.1875 701.3125,23.3594 Q701.9688,23.5156 702.5156,23.875 Z " fill="#000000"/><text fill="#000000" font-family="sans-serif" font-size="14" lengthAdjust="spacing" textLength="339" x="720.25" y="33.7969">GetListOfAllDevicesGroupedByFunctionalityController</text><line style="stroke:#181818;stroke-width:0.5;" x1="594" x2="1153" y1="44" y2="44"/><rect fill="none" height="6" style="stroke:#C82930;stroke-width:1.0;" width="6" x="601" y="55.8105"/><text fill="#000000" font-family="sans-serif" font-size="14" lengthAdjust="spacing" textLength="194" x="613" y="63.1074">_deviceService: DeviceService</text><rect fill="none" height="6" style="stroke:#C82930;stroke-width:1.0;" width="6" x="601" y="74.4316"/><text fill="#000000" font-family="sans-serif" font-size="14" lengthAdjust="spacing" textLength="232" x="613" y="81.7285">_deviceAssembler: DeviceAssembler</text><line style="stroke:#181818;stroke-width:0.5;" x1="594" x2="1153" y1="89.2422" y2="89.2422"/><ellipse cx="604" cy="104.0527" fill="#84BE84" rx="3" ry="3" style="stroke:#038048;stroke-width:1.0;"/><text fill="#000000" font-family="sans-serif" font-size="14" lengthAdjust="spacing" textLength="535" x="613" y="108.3496">GetListOfAllDevicesGroupedByFunctionalityController(deviceService: DeviceService)</text><ellipse cx="604" cy="122.6738" fill="#84BE84" rx="3" ry="3" style="stroke:#038048;stroke-width:1.0;"/><text fill="#000000" font-family="sans-serif" font-size="14" lengthAdjust="spacing" textLength="492" x="613" y="126.9707">getAllDevicesGroupedByFunctionality(): Map&lt;DeviceType, List&lt;DeviceDTO&gt;&gt;</text></g><!--class DeviceService--><g id="elem_DeviceService"><rect codeLine="13" fill="#F1F1F1" height="122.4844" id="DeviceService" rx="2.5" ry="2.5" style="stroke:#181818;stroke-width:0.5;" width="513" x="6" y="189"/><ellipse cx="213.25" cy="205" fill="#ADD1B2" rx="11" ry="11" style="stroke:#181818;stroke-width:1.0;"/><path d="M216.0156,200.875 Q216.1719,200.6563 216.3594,200.5469 Q216.5469,200.4375 216.7656,200.4375 Q217.1406,200.4375 217.375,200.7031 Q217.6094,200.9531 217.6094,201.5625 L217.6094,203.0156 Q217.6094,203.625 217.375,203.8906 Q217.1406,204.1563 216.7656,204.1563 Q216.4219,204.1563 216.2188,203.9531 Q216.0156,203.7656 215.9063,203.25 Q215.8594,202.8906 215.6719,202.7031 Q215.3438,202.3281 214.7344,202.1094 Q214.125,201.8906 213.5,201.8906 Q212.7344,201.8906 212.0938,202.2188 Q211.4688,202.5469 210.9688,203.2969 Q210.4844,204.0469 210.4844,205.0781 L210.4844,206.1719 Q210.4844,207.4063 211.375,208.2344 Q212.2656,209.0469 213.8594,209.0469 Q214.7969,209.0469 215.4531,208.7969 Q215.8438,208.6406 216.2656,208.2031 Q216.5313,207.9375 216.6719,207.8594 Q216.8281,207.7813 217.0313,207.7813 Q217.3594,207.7813 217.6094,208.0469 Q217.875,208.2969 217.875,208.6406 Q217.875,208.9844 217.5313,209.3906 Q217.0313,209.9688 216.2344,210.2969 Q215.1563,210.75 213.8594,210.75 Q212.3438,210.75 211.1406,210.125 Q210.1563,209.625 209.4688,208.5625 Q208.7813,207.4844 208.7813,206.2031 L208.7813,205.0469 Q208.7813,203.7188 209.3906,202.5781 Q210.0156,201.4219 211.1094,200.8125 Q212.2031,200.1875 213.4375,200.1875 Q214.1719,200.1875 214.8125,200.3594 Q215.4688,200.5156 216.0156,200.875 Z " fill="#000000"/><text fill="#000000" font-family="sans-serif" font-size="14" lengthAdjust="spacing" textLength="90" x="233.75" y="210.7969">DeviceService</text><line style="stroke:#181818;stroke-width:0.5;" x1="7" x2="518" y1="221" y2="221"/><rect fill="none" height="6" style="stroke:#C82930;stroke-width:1.0;" width="6" x="14" y="232.8105"/><text fill="#000000" font-family="sans-serif" font-size="14" lengthAdjust="spacing" textLength="196" x="26" y="240.1074">_deviceFactory: DeviceFactory</text><rect fill="none" height="6" style="stroke:#C82930;stroke-width:1.0;" width="6" x="14" y="251.4316"/><text fill="#000000" font-family="sans-serif" font-size="14" lengthAdjust="spacing" textLength="202" x="26" y="258.7285">_deviceRepo: DeviceRepository</text><line style="stroke:#181818;stroke-width:0.5;" x1="7" x2="518" y1="266.2422" y2="266.2422"/><ellipse cx="17" cy="281.0527" fill="#84BE84" rx="3" ry="3" style="stroke:#038048;stroke-width:1.0;"/><text fill="#000000" font-family="sans-serif" font-size="14" lengthAdjust="spacing" textLength="487" x="26" y="285.3496">DeviceService(factoryDevice: FactoryDevice, deviceRepo: DeviceRepository)</text><ellipse cx="17" cy="299.6738" fill="#84BE84" rx="3" ry="3" style="stroke:#038048;stroke-width:1.0;"/><text fill="#000000" font-family="sans-serif" font-size="14" lengthAdjust="spacing" textLength="199" x="26" y="303.9707">getDevices(): List&lt;DeviceDTO&gt;</text></g><!--class DeviceTypeService--><g id="elem_DeviceTypeService"><rect codeLine="20" fill="#F1F1F1" height="122.4844" id="DeviceTypeService" rx="2.5" ry="2.5" style="stroke:#181818;stroke-width:0.5;" width="673" x="537" y="189"/><ellipse cx="808.25" cy="205" fill="#ADD1B2" rx="11" ry="11" style="stroke:#181818;stroke-width:1.0;"/><path d="M811.0156,200.875 Q811.1719,200.6563 811.3594,200.5469 Q811.5469,200.4375 811.7656,200.4375 Q812.1406,200.4375 812.375,200.7031 Q812.6094,200.9531 812.6094,201.5625 L812.6094,203.0156 Q812.6094,203.625 812.375,203.8906 Q812.1406,204.1563 811.7656,204.1563 Q811.4219,204.1563 811.2188,203.9531 Q811.0156,203.7656 810.9063,203.25 Q810.8594,202.8906 810.6719,202.7031 Q810.3438,202.3281 809.7344,202.1094 Q809.125,201.8906 808.5,201.8906 Q807.7344,201.8906 807.0938,202.2188 Q806.4688,202.5469 805.9688,203.2969 Q805.4844,204.0469 805.4844,205.0781 L805.4844,206.1719 Q805.4844,207.4063 806.375,208.2344 Q807.2656,209.0469 808.8594,209.0469 Q809.7969,209.0469 810.4531,208.7969 Q810.8438,208.6406 811.2656,208.2031 Q811.5313,207.9375 811.6719,207.8594 Q811.8281,207.7813 812.0313,207.7813 Q812.3594,207.7813 812.6094,208.0469 Q812.875,208.2969 812.875,208.6406 Q812.875,208.9844 812.5313,209.3906 Q812.0313,209.9688 811.2344,210.2969 Q810.1563,210.75 808.8594,210.75 Q807.3438,210.75 806.1406,210.125 Q805.1563,209.625 804.4688,208.5625 Q803.7813,207.4844 803.7813,206.2031 L803.7813,205.0469 Q803.7813,203.7188 804.3906,202.5781 Q805.0156,201.4219 806.1094,200.8125 Q807.2031,200.1875 808.4375,200.1875 Q809.1719,200.1875 809.8125,200.3594 Q810.4688,200.5156 811.0156,200.875 Z " fill="#000000"/><text fill="#000000" font-family="sans-serif" font-size="14" lengthAdjust="spacing" textLength="122" x="828.75" y="210.7969">DeviceTypeService</text><line style="stroke:#181818;stroke-width:0.5;" x1="538" x2="1209" y1="221" y2="221"/><rect fill="none" height="6" style="stroke:#C82930;stroke-width:1.0;" width="6" x="545" y="232.8105"/><text fill="#000000" font-family="sans-serif" font-size="14" lengthAdjust="spacing" textLength="260" x="557" y="240.1074">_deviceTypeFactory: DeviceTypeFactory</text><rect fill="none" height="6" style="stroke:#C82930;stroke-width:1.0;" width="6" x="545" y="251.4316"/><text fill="#000000" font-family="sans-serif" font-size="14" lengthAdjust="spacing" textLength="266" x="557" y="258.7285">_deviceTypeRepo: DeviceTypeRepository</text><line style="stroke:#181818;stroke-width:0.5;" x1="538" x2="1209" y1="266.2422" y2="266.2422"/><ellipse cx="548" cy="281.0527" fill="#84BE84" rx="3" ry="3" style="stroke:#038048;stroke-width:1.0;"/><text fill="#000000" font-family="sans-serif" font-size="14" lengthAdjust="spacing" textLength="647" x="557" y="285.3496">DeviceTypeService(factoryDeviceType: FactoryDeviceType, deviceTypeRepo: DeviceTypeRepository)</text><ellipse cx="548" cy="299.6738" fill="#84BE84" rx="3" ry="3" style="stroke:#038048;stroke-width:1.0;"/><text fill="#000000" font-family="sans-serif" font-size="14" lengthAdjust="spacing" textLength="217" x="557" y="303.9707">getDeviceTypeByID(): DeviceType</text></g><!--class DeviceRepository--><g id="elem_DeviceRepository"><rect codeLine="27" fill="#F1F1F1" height="103.8633" id="DeviceRepository" rx="2.5" ry="2.5" style="stroke:#181818;stroke-width:0.5;" width="252" x="136.5" y="384.5"/><ellipse cx="202.75" cy="400.5" fill="#ADD1B2" rx="11" ry="11" style="stroke:#181818;stroke-width:1.0;"/><path d="M205.5156,396.375 Q205.6719,396.1563 205.8594,396.0469 Q206.0469,395.9375 206.2656,395.9375 Q206.6406,395.9375 206.875,396.2031 Q207.1094,396.4531 207.1094,397.0625 L207.1094,398.5156 Q207.1094,399.125 206.875,399.3906 Q206.6406,399.6563 206.2656,399.6563 Q205.9219,399.6563 205.7188,399.4531 Q205.5156,399.2656 205.4063,398.75 Q205.3594,398.3906 205.1719,398.2031 Q204.8438,397.8281 204.2344,397.6094 Q203.625,397.3906 203,397.3906 Q202.2344,397.3906 201.5938,397.7188 Q200.9688,398.0469 200.4688,398.7969 Q199.9844,399.5469 199.9844,400.5781 L199.9844,401.6719 Q199.9844,402.9063 200.875,403.7344 Q201.7656,404.5469 203.3594,404.5469 Q204.2969,404.5469 204.9531,404.2969 Q205.3438,404.1406 205.7656,403.7031 Q206.0313,403.4375 206.1719,403.3594 Q206.3281,403.2813 206.5313,403.2813 Q206.8594,403.2813 207.1094,403.5469 Q207.375,403.7969 207.375,404.1406 Q207.375,404.4844 207.0313,404.8906 Q206.5313,405.4688 205.7344,405.7969 Q204.6563,406.25 203.3594,406.25 Q201.8438,406.25 200.6406,405.625 Q199.6563,405.125 198.9688,404.0625 Q198.2813,402.9844 198.2813,401.7031 L198.2813,400.5469 Q198.2813,399.2188 198.8906,398.0781 Q199.5156,396.9219 200.6094,396.3125 Q201.7031,395.6875 202.9375,395.6875 Q203.6719,395.6875 204.3125,395.8594 Q204.9688,396.0156 205.5156,396.375 Z " fill="#000000"/><text fill="#000000" font-family="sans-serif" font-size="14" lengthAdjust="spacing" textLength="111" x="223.25" y="406.2969">DeviceRepository</text><line style="stroke:#181818;stroke-width:0.5;" x1="137.5" x2="387.5" y1="416.5" y2="416.5"/><rect fill="none" height="6" style="stroke:#C82930;stroke-width:1.0;" width="6" x="144.5" y="428.3105"/><text fill="#000000" font-family="sans-serif" font-size="14" lengthAdjust="spacing" textLength="226" x="156.5" y="435.6074">_data: HashMap&lt;DeviceID, Device&gt;</text><line style="stroke:#181818;stroke-width:0.5;" x1="137.5" x2="387.5" y1="443.1211" y2="443.1211"/><ellipse cx="147.5" cy="457.9316" fill="#84BE84" rx="3" ry="3" style="stroke:#038048;stroke-width:1.0;"/><text fill="#000000" font-family="sans-serif" font-size="14" lengthAdjust="spacing" textLength="121" x="156.5" y="462.2285">DeviceRepository()</text><ellipse cx="147.5" cy="476.5527" fill="#84BE84" rx="3" ry="3" style="stroke:#038048;stroke-width:1.0;"/><text fill="#000000" font-family="sans-serif" font-size="14" lengthAdjust="spacing" textLength="137" x="156.5" y="480.8496">findAll(): List&lt;Device&gt;</text></g><!--class DeviceTypeRepository--><g id="elem_DeviceTypeRepository"><rect codeLine="33" fill="#F1F1F1" height="103.8633" id="DeviceTypeRepository" rx="2.5" ry="2.5" style="stroke:#181818;stroke-width:0.5;" width="316" x="715.5" y="384.5"/><ellipse cx="797.75" cy="400.5" fill="#ADD1B2" rx="11" ry="11" style="stroke:#181818;stroke-width:1.0;"/><path d="M800.5156,396.375 Q800.6719,396.1563 800.8594,396.0469 Q801.0469,395.9375 801.2656,395.9375 Q801.6406,395.9375 801.875,396.2031 Q802.1094,396.4531 802.1094,397.0625 L802.1094,398.5156 Q802.1094,399.125 801.875,399.3906 Q801.6406,399.6563 801.2656,399.6563 Q800.9219,399.6563 800.7188,399.4531 Q800.5156,399.2656 800.4063,398.75 Q800.3594,398.3906 800.1719,398.2031 Q799.8438,397.8281 799.2344,397.6094 Q798.625,397.3906 798,397.3906 Q797.2344,397.3906 796.5938,397.7188 Q795.9688,398.0469 795.4688,398.7969 Q794.9844,399.5469 794.9844,400.5781 L794.9844,401.6719 Q794.9844,402.9063 795.875,403.7344 Q796.7656,404.5469 798.3594,404.5469 Q799.2969,404.5469 799.9531,404.2969 Q800.3438,404.1406 800.7656,403.7031 Q801.0313,403.4375 801.1719,403.3594 Q801.3281,403.2813 801.5313,403.2813 Q801.8594,403.2813 802.1094,403.5469 Q802.375,403.7969 802.375,404.1406 Q802.375,404.4844 802.0313,404.8906 Q801.5313,405.4688 800.7344,405.7969 Q799.6563,406.25 798.3594,406.25 Q796.8438,406.25 795.6406,405.625 Q794.6563,405.125 793.9688,404.0625 Q793.2813,402.9844 793.2813,401.7031 L793.2813,400.5469 Q793.2813,399.2188 793.8906,398.0781 Q794.5156,396.9219 795.6094,396.3125 Q796.7031,395.6875 797.9375,395.6875 Q798.6719,395.6875 799.3125,395.8594 Q799.9688,396.0156 800.5156,396.375 Z " fill="#000000"/><text fill="#000000" font-family="sans-serif" font-size="14" lengthAdjust="spacing" textLength="143" x="818.25" y="406.2969">DeviceTypeRepository</text><line style="stroke:#181818;stroke-width:0.5;" x1="716.5" x2="1030.5" y1="416.5" y2="416.5"/><rect fill="none" height="6" style="stroke:#C82930;stroke-width:1.0;" width="6" x="723.5" y="428.3105"/><text fill="#000000" font-family="sans-serif" font-size="14" lengthAdjust="spacing" textLength="290" x="735.5" y="435.6074">_data: HashMap&lt;DeviceTypeID, DeviceType&gt;</text><line style="stroke:#181818;stroke-width:0.5;" x1="716.5" x2="1030.5" y1="443.1211" y2="443.1211"/><ellipse cx="726.5" cy="457.9316" fill="#84BE84" rx="3" ry="3" style="stroke:#038048;stroke-width:1.0;"/><text fill="#000000" font-family="sans-serif" font-size="14" lengthAdjust="spacing" textLength="153" x="735.5" y="462.2285">DeviceTypeRepository()</text><ellipse cx="726.5" cy="476.5527" fill="#84BE84" rx="3" ry="3" style="stroke:#038048;stroke-width:1.0;"/><text fill="#000000" font-family="sans-serif" font-size="14" lengthAdjust="spacing" textLength="236" x="735.5" y="480.8496">ofIdentity(deviceTypeID): DeviceType</text></g><!--class DeviceAssembler--><g id="elem_DeviceAssembler"><rect codeLine="39" fill="#F1F1F1" height="85.2422" id="DeviceAssembler" rx="2.5" ry="2.5" style="stroke:#181818;stroke-width:0.5;" width="302" x="1228.5" y="207.5"/><ellipse cx="1320.75" cy="223.5" fill="#ADD1B2" rx="11" ry="11" style="stroke:#181818;stroke-width:1.0;"/><path d="M1323.5156,219.375 Q1323.6719,219.1563 1323.8594,219.0469 Q1324.0469,218.9375 1324.2656,218.9375 Q1324.6406,218.9375 1324.875,219.2031 Q1325.1094,219.4531 1325.1094,220.0625 L1325.1094,221.5156 Q1325.1094,222.125 1324.875,222.3906 Q1324.6406,222.6563 1324.2656,222.6563 Q1323.9219,222.6563 1323.7188,222.4531 Q1323.5156,222.2656 1323.4063,221.75 Q1323.3594,221.3906 1323.1719,221.2031 Q1322.8438,220.8281 1322.2344,220.6094 Q1321.625,220.3906 1321,220.3906 Q1320.2344,220.3906 1319.5938,220.7188 Q1318.9688,221.0469 1318.4688,221.7969 Q1317.9844,222.5469 1317.9844,223.5781 L1317.9844,224.6719 Q1317.9844,225.9063 1318.875,226.7344 Q1319.7656,227.5469 1321.3594,227.5469 Q1322.2969,227.5469 1322.9531,227.2969 Q1323.3438,227.1406 1323.7656,226.7031 Q1324.0313,226.4375 1324.1719,226.3594 Q1324.3281,226.2813 1324.5313,226.2813 Q1324.8594,226.2813 1325.1094,226.5469 Q1325.375,226.7969 1325.375,227.1406 Q1325.375,227.4844 1325.0313,227.8906 Q1324.5313,228.4688 1323.7344,228.7969 Q1322.6563,229.25 1321.3594,229.25 Q1319.8438,229.25 1318.6406,228.625 Q1317.6563,228.125 1316.9688,227.0625 Q1316.2813,225.9844 1316.2813,224.7031 L1316.2813,223.5469 Q1316.2813,222.2188 1316.8906,221.0781 Q1317.5156,219.9219 1318.6094,219.3125 Q1319.7031,218.6875 1320.9375,218.6875 Q1321.6719,218.6875 1322.3125,218.8594 Q1322.9688,219.0156 1323.5156,219.375 Z " fill="#000000"/><text fill="#000000" font-family="sans-serif" font-size="14" lengthAdjust="spacing" textLength="109" x="1341.25" y="229.2969">DeviceAssembler</text><line style="stroke:#181818;stroke-width:0.5;" x1="1229.5" x2="1529.5" y1="239.5" y2="239.5"/><line style="stroke:#181818;stroke-width:0.5;" x1="1229.5" x2="1529.5" y1="247.5" y2="247.5"/><ellipse cx="1239.5" cy="262.3105" fill="#84BE84" rx="3" ry="3" style="stroke:#038048;stroke-width:1.0;"/><text fill="#000000" font-family="sans-serif" font-size="14" lengthAdjust="spacing" textLength="119" x="1248.5" y="266.6074">DeviceAssembler()</text><ellipse cx="1239.5" cy="280.9316" fill="#84BE84" rx="3" ry="3" style="stroke:#038048;stroke-width:1.0;"/><text fill="#000000" font-family="sans-serif" font-size="14" lengthAdjust="spacing" textLength="276" x="1248.5" y="285.2285">domainToDTO(device: Device): DeviceDTO</text></g><!--class DeviceDTO--><g id="elem_DeviceDTO"><rect codeLine="44" fill="#F1F1F1" height="141.1055" id="DeviceDTO" rx="2.5" ry="2.5" style="stroke:#181818;stroke-width:0.5;" width="602" x="1078.5" y="366"/><ellipse cx="1338.75" cy="382" fill="#ADD1B2" rx="11" ry="11" style="stroke:#181818;stroke-width:1.0;"/><path d="M1341.5156,377.875 Q1341.6719,377.6563 1341.8594,377.5469 Q1342.0469,377.4375 1342.2656,377.4375 Q1342.6406,377.4375 1342.875,377.7031 Q1343.1094,377.9531 1343.1094,378.5625 L1343.1094,380.0156 Q1343.1094,380.625 1342.875,380.8906 Q1342.6406,381.1563 1342.2656,381.1563 Q1341.9219,381.1563 1341.7188,380.9531 Q1341.5156,380.7656 1341.4063,380.25 Q1341.3594,379.8906 1341.1719,379.7031 Q1340.8438,379.3281 1340.2344,379.1094 Q1339.625,378.8906 1339,378.8906 Q1338.2344,378.8906 1337.5938,379.2188 Q1336.9688,379.5469 1336.4688,380.2969 Q1335.9844,381.0469 1335.9844,382.0781 L1335.9844,383.1719 Q1335.9844,384.4063 1336.875,385.2344 Q1337.7656,386.0469 1339.3594,386.0469 Q1340.2969,386.0469 1340.9531,385.7969 Q1341.3438,385.6406 1341.7656,385.2031 Q1342.0313,384.9375 1342.1719,384.8594 Q1342.3281,384.7813 1342.5313,384.7813 Q1342.8594,384.7813 1343.1094,385.0469 Q1343.375,385.2969 1343.375,385.6406 Q1343.375,385.9844 1343.0313,386.3906 Q1342.5313,386.9688 1341.7344,387.2969 Q1340.6563,387.75 1339.3594,387.75 Q1337.8438,387.75 1336.6406,387.125 Q1335.6563,386.625 1334.9688,385.5625 Q1334.2813,384.4844 1334.2813,383.2031 L1334.2813,382.0469 Q1334.2813,380.7188 1334.8906,379.5781 Q1335.5156,378.4219 1336.6094,377.8125 Q1337.7031,377.1875 1338.9375,377.1875 Q1339.6719,377.1875 1340.3125,377.3594 Q1340.9688,377.5156 1341.5156,377.875 Z " fill="#000000"/><text fill="#000000" font-family="sans-serif" font-size="14" lengthAdjust="spacing" textLength="73" x="1359.25" y="387.7969">DeviceDTO</text><line style="stroke:#181818;stroke-width:0.5;" x1="1079.5" x2="1679.5" y1="398" y2="398"/><ellipse cx="1089.5" cy="412.8105" fill="none" rx="3" ry="3" style="stroke:#038048;stroke-width:1.0;"/><text fill="#000000" font-family="sans-serif" font-size="14" lengthAdjust="spacing" textLength="56" x="1098.5" y="417.1074">id: String</text><ellipse cx="1089.5" cy="431.4316" fill="none" rx="3" ry="3" style="stroke:#038048;stroke-width:1.0;"/><text fill="#000000" font-family="sans-serif" font-size="14" lengthAdjust="spacing" textLength="90" x="1098.5" y="435.7285">roomID: String</text><ellipse cx="1089.5" cy="450.0527" fill="none" rx="3" ry="3" style="stroke:#038048;stroke-width:1.0;"/><text fill="#000000" font-family="sans-serif" font-size="14" lengthAdjust="spacing" textLength="80" x="1098.5" y="454.3496">name: String</text><ellipse cx="1089.5" cy="468.6738" fill="none" rx="3" ry="3" style="stroke:#038048;stroke-width:1.0;"/><text fill="#000000" font-family="sans-serif" font-size="14" lengthAdjust="spacing" textLength="131" x="1098.5" y="472.9707">deviceTypeID: String</text><line style="stroke:#181818;stroke-width:0.5;" x1="1079.5" x2="1679.5" y1="480.4844" y2="480.4844"/><ellipse cx="1089.5" cy="495.2949" fill="#84BE84" rx="3" ry="3" style="stroke:#038048;stroke-width:1.0;"/><text fill="#000000" font-family="sans-serif" font-size="14" lengthAdjust="spacing" textLength="576" x="1098.5" y="499.5918">DeviceDTO(id: DeviceID, roomID: RoomID, name: DeviceName, deviceTypeID: DeviceType)</text></g><polygon fill="#181818" points="472.1427,188.955,481.8961,190.3223,476.9494,187.5783,479.6934,182.6316,472.1427,188.955" style="stroke:#181818;stroke-width:1.0;"/><path d="M663.656,134.1026 C601.7564,151.8316 539.7977,169.5776 477.9107,187.303 " fill="none" style="stroke:#181818;stroke-width:1.0;stroke-dasharray:7.0,7.0;"/><text fill="#000000" font-family="sans-serif" font-size="13" lengthAdjust="spacing" textLength="28" x="587.5" y="167.0283">uses</text><text fill="#000000" font-family="sans-serif" font-size="13" lengthAdjust="spacing" textLength="7" x="464.1427" y="184.9834">1</text><text fill="#000000" font-family="sans-serif" font-size="13" lengthAdjust="spacing" textLength="7" x="655.656" y="149.1309">1</text><polygon fill="#181818" points="873.5,188.9605,877.5,179.9605,873.5,183.9605,869.5,179.9605,873.5,188.9605" style="stroke:#181818;stroke-width:1.0;"/><path d="M873.5,134.2251 C873.5,151.9227 873.5,165.2744 873.5,182.9605 " fill="none" style="stroke:#181818;stroke-width:1.0;stroke-dasharray:7.0,7.0;"/><text fill="#000000" font-family="sans-serif" font-size="13" lengthAdjust="spacing" textLength="28" x="874.5" y="167.0283">uses</text><text fill="#000000" font-family="sans-serif" font-size="13" lengthAdjust="spacing" textLength="7" x="865.5" y="184.9888">1</text><text fill="#000000" font-family="sans-serif" font-size="13" lengthAdjust="spacing" textLength="7" x="865.5" y="149.2534">1</text><polygon fill="#181818" points="262.5,384.394,266.5,375.394,262.5,379.394,258.5,375.394,262.5,384.394" style="stroke:#181818;stroke-width:1.0;"/><path d="M262.5,311.1569 C262.5,334.8174 262.5,355.6955 262.5,378.394 " fill="none" style="stroke:#181818;stroke-width:1.0;stroke-dasharray:7.0,7.0;"/><text fill="#000000" font-family="sans-serif" font-size="13" lengthAdjust="spacing" textLength="28" x="263.5" y="344.0283">uses</text><text fill="#000000" font-family="sans-serif" font-size="13" lengthAdjust="spacing" textLength="7" x="254.5" y="380.4224">1</text><text fill="#000000" font-family="sans-serif" font-size="13" lengthAdjust="spacing" textLength="7" x="254.5" y="326.1852">1</text><polygon fill="#181818" points="873.5,384.394,877.5,375.394,873.5,379.394,869.5,375.394,873.5,384.394" style="stroke:#181818;stroke-width:1.0;"/><path d="M873.5,311.1569 C873.5,334.8174 873.5,355.6955 873.5,378.394 " fill="none" style="stroke:#181818;stroke-width:1.0;stroke-dasharray:7.0,7.0;"/><text fill="#000000" font-family="sans-serif" font-size="13" lengthAdjust="spacing" textLength="28" x="874.5" y="344.0283">uses</text><text fill="#000000" font-family="sans-serif" font-size="13" lengthAdjust="spacing" textLength="7" x="865.5" y="380.4224">1</text><text fill="#000000" font-family="sans-serif" font-size="13" lengthAdjust="spacing" textLength="7" x="865.5" y="326.1852">1</text><polygon fill="#181818" points="1269.697,207.4962,1262.6329,200.6334,1265.0048,205.7689,1259.8693,208.1409,1269.697,207.4962" style="stroke:#181818;stroke-width:1.0;"/><path d="M1057.8775,134.1355 C1109.9412,151.475 1166.5535,170.6691 1218.5,189 C1235.0963,194.8565 1246.9637,199.1278 1264.0664,205.4235 " fill="none" style="stroke:#181818;stroke-width:1.0;stroke-dasharray:7.0,7.0;"/><text fill="#000000" font-family="sans-serif" font-size="13" lengthAdjust="spacing" textLength="28" x="1163.5" y="167.0283">uses</text><text fill="#000000" font-family="sans-serif" font-size="13" lengthAdjust="spacing" textLength="7" x="1261.697" y="203.5245">1</text><text fill="#000000" font-family="sans-serif" font-size="13" lengthAdjust="spacing" textLength="7" x="1049.8775" y="149.1638">1</text><polygon fill="#181818" points="1379.5,365.9354,1383.5,356.9354,1379.5,360.9354,1375.5,356.9354,1379.5,365.9354" style="stroke:#181818;stroke-width:1.0;"/><path d="M1379.5,292.8659 C1379.5,314.4486 1379.5,335.339 1379.5,359.9354 " fill="none" style="stroke:#181818;stroke-width:1.0;stroke-dasharray:7.0,7.0;"/><text fill="#000000" font-family="sans-serif" font-size="13" lengthAdjust="spacing" textLength="43" x="1380.5" y="344.0283">creates</text><text fill="#000000" font-family="sans-serif" font-size="13" lengthAdjust="spacing" textLength="5" x="1373.5" y="361.9637">*</text><text fill="#000000" font-family="sans-serif" font-size="13" lengthAdjust="spacing" textLength="7" x="1371.5" y="307.8942">1</text><!--SRC=[hLLDRzim3BtxLsYvp5dI1BiQXO5sHje0smgqkHUShQG2z658SW5Zs7-VPLlMXuEqA9gBJVBnaO-cbAylMjSgssvh2bmtZ6vAmROb1QMkAW8d2IpvKaiuCK0KMj5ef1ZMm259UXIwm_edKVhXU4DfWLz9YTMT54sDgzjsr_1I4y614jt-45nBGIcMw6-2kj_LSzNZdx0qZmmLlXb0RfJ2x4-NQa6J8-bngmzqaLwglXneJrY_HPWkC_GBwki1T6Xhl4QcbT5H71xoF4d-sN45LQ91xA3KGhQsbT4C88-u5ZPktXMP8Ak0EZqEsOCpGplVNADBR4xxADn8Z2J5Wepkyw9C91BckMPGloLhpqLwvKAX9X297Jx9Uoh4matqjjqNHh_pnD9TlbCE6Z9q3-h5RSQ-M8y9kQ_4PQTZ-IFXLRTqqT3FJloTfGtKbJTM7WzpteOuxYlCjTdmocEvE8hfL8xjh2AtvQu40y8FejkaaTooJlHTA6RlN9QNL1bwqfBmqs1B8TY-27qS60uzleumCXL83RFxO9RtiN-kqS0vn7ztx_vU6PmRpT9q_v6xSV5zWJQRl7yMuGtLAAm-YTCxG2DlU37DCzo610d-mJzVPfRuEGgylmIl7RU1KyQtXTkV39KIWyRgFm00]--></g></svg>