<?xml version="1.0" encoding="us-ascii" standalone="no"?><svg xmlns="http://www.w3.org/2000/svg" xmlns:xlink="http://www.w3.org/1999/xlink" contentStyleType="text/css" height="417px" preserveAspectRatio="none" style="width:502px;height:417px;background:#FFFFFF;" version="1.1" viewBox="0 0 502 417" width="502px" zoomAndPan="magnify"><defs/><g><!--cluster SmartHome--><g id="cluster_SmartHome"><rect fill="none" height="300" rx="2.5" ry="2.5" style="stroke:#181818;stroke-width:1.0;" width="489" x="7" y="111"/><rect fill="none" height="10" style="stroke:#181818;stroke-width:1.0;" width="15" x="476" y="116"/><rect fill="none" height="2" style="stroke:#181818;stroke-width:1.0;" width="4" x="474" y="118"/><rect fill="none" height="2" style="stroke:#181818;stroke-width:1.0;" width="4" x="474" y="122"/><text fill="#000000" font-family="sans-serif" font-size="14" font-style="italic" lengthAdjust="spacing" textLength="92" x="205.5" y="139.1074">&#171;system (C4)&#187;</text><text fill="#000000" font-family="sans-serif" font-size="14" font-weight="bold" lengthAdjust="spacing" textLength="80" x="211.5" y="157.7285">SmartHome</text></g><!--cluster Frontend--><g id="cluster_Frontend"><rect fill="none" height="117" rx="2.5" ry="2.5" style="stroke:#181818;stroke-width:1.0;" width="177" x="19" y="197"/><rect fill="none" height="10" style="stroke:#181818;stroke-width:1.0;" width="15" x="176" y="202"/><rect fill="none" height="2" style="stroke:#181818;stroke-width:1.0;" width="4" x="174" y="204"/><rect fill="none" height="2" style="stroke:#181818;stroke-width:1.0;" width="4" x="174" y="208"/><text fill="#000000" font-family="sans-serif" font-size="14" font-weight="bold" lengthAdjust="spacing" textLength="65" x="75" y="225.1074">Frontend</text></g><!--cluster Backend--><g id="cluster_Backend"><rect fill="none" height="107.5" rx="2.5" ry="2.5" style="stroke:#181818;stroke-width:1.0;" width="94" x="216" y="287.5"/><rect fill="none" height="10" style="stroke:#181818;stroke-width:1.0;" width="15" x="290" y="292.5"/><rect fill="none" height="2" style="stroke:#181818;stroke-width:1.0;" width="4" x="288" y="294.5"/><rect fill="none" height="2" style="stroke:#181818;stroke-width:1.0;" width="4" x="288" y="298.5"/><text fill="#000000" font-family="sans-serif" font-size="14" font-weight="bold" lengthAdjust="spacing" textLength="61" x="232.5" y="315.6074">Backend</text></g><!--cluster WeatherService--><g id="cluster_WeatherService"><rect fill="none" height="107.5" rx="2.5" ry="2.5" style="stroke:#181818;stroke-width:1.0;" width="133" x="347" y="287.5"/><rect fill="none" height="10" style="stroke:#181818;stroke-width:1.0;" width="15" x="460" y="292.5"/><rect fill="none" height="2" style="stroke:#181818;stroke-width:1.0;" width="4" x="458" y="294.5"/><rect fill="none" height="2" style="stroke:#181818;stroke-width:1.0;" width="4" x="458" y="298.5"/><text fill="#000000" font-family="sans-serif" font-size="14" font-weight="bold" lengthAdjust="spacing" textLength="113" x="357" y="315.6074">WeatherService</text></g><text fill="#000000" font-family="sans-serif" font-size="14" lengthAdjust="spacing" textLength="16" x="29" y="89.4863">p1</text><rect fill="#F1F1F1" height="12" style="stroke:#181818;stroke-width:1.5;" width="12" x="31" y="105"/><text fill="#000000" font-family="sans-serif" font-size="14" lengthAdjust="spacing" textLength="16" x="106" y="89.4863">p8</text><rect fill="#F1F1F1" height="12" style="stroke:#181818;stroke-width:1.5;" width="12" x="108" y="105"/><text fill="#000000" font-family="sans-serif" font-size="14" lengthAdjust="spacing" textLength="16" x="29" y="175.4863">p2</text><rect fill="#F1F1F1" height="12" style="stroke:#181818;stroke-width:1.5;" width="12" x="31" y="191"/><text fill="#000000" font-family="sans-serif" font-size="14" lengthAdjust="spacing" textLength="16" x="123" y="175.4863">p3</text><rect fill="#F1F1F1" height="12" style="stroke:#181818;stroke-width:1.5;" width="12" x="125" y="191"/><text fill="#000000" font-family="sans-serif" font-size="14" lengthAdjust="spacing" textLength="16" x="170" y="175.4863">p4</text><rect fill="#F1F1F1" height="12" style="stroke:#181818;stroke-width:1.5;" width="12" x="172" y="191"/><text fill="#000000" font-family="sans-serif" font-size="14" lengthAdjust="spacing" textLength="16" x="76" y="175.4863">p7</text><rect fill="#F1F1F1" height="12" style="stroke:#181818;stroke-width:1.5;" width="12" x="78" y="191"/><text fill="#000000" font-family="sans-serif" font-size="14" lengthAdjust="spacing" textLength="16" x="226" y="265.9863">p5</text><rect fill="#F1F1F1" height="12" style="stroke:#181818;stroke-width:1.5;" width="12" x="228" y="281.5"/><text fill="#000000" font-family="sans-serif" font-size="14" lengthAdjust="spacing" textLength="16" x="357" y="265.9863">p6</text><rect fill="#F1F1F1" height="12" style="stroke:#181818;stroke-width:1.5;" width="12" x="359" y="281.5"/><!--entity UI--><g id="elem_UI"><ellipse cx="22" cy="14" fill="#F1F1F1" rx="8" ry="8" style="stroke:#181818;stroke-width:0.5;"/><text fill="#000000" font-family="sans-serif" font-size="14" lengthAdjust="spacing" textLength="12" x="16" y="46.1074">UI</text></g><!--entity SunTimeAPI--><g id="elem_SunTimeAPI"><ellipse cx="130" cy="14" fill="#F1F1F1" rx="8" ry="8" style="stroke:#181818;stroke-width:0.5;"/><text fill="#000000" font-family="sans-serif" font-size="14" lengthAdjust="spacing" textLength="77" x="91.5" y="46.1074">SunTimeAPI</text></g><!--link UI to p1--><g id="link_UI_p1"><path d="M23.28,23.1 C26.28,42.12 33.72,89.23 36.19,104.87 " fill="none" id="UI-p1" style="stroke:#181818;stroke-width:1.0;"/></g><!--link p1 to p2--><g id="link_p1_p2"><path d="M37,117 C37,131.84 37,175.49 37,190.7 " fill="none" id="p1-p2" style="stroke:#181818;stroke-width:1.0;"/></g><!--link p3 to p5--><g id="link_p3_p5"><path d="M136.83,203.01 C154.88,218.52 209.67,265.6 227.97,281.32 " fill="none" id="p3-p5" style="stroke:#181818;stroke-width:1.0;"/><path d="M181.5514,232.1148 A10,10 0 0 0 172.3348 242.8411" fill="none" style="stroke:#181818;stroke-width:1.5;"/><ellipse cx="182.3062" cy="242.0863" fill="#FFFFFF" rx="6" ry="6" style="stroke:#181818;stroke-width:1.5;"/></g><!--link p4 to p6--><g id="link_p4_p6"><path d="M179.64,203.33 C181.19,207.54 183.89,213.32 188,217 C194.98,223.25 328.75,273.06 358.97,284.27 " fill="none" id="p4-p6" style="stroke:#181818;stroke-width:1.0;"/><path d="M260.7053,239.6384 A10,10 0 0 0 255.6334 252.8397" fill="none" style="stroke:#181818;stroke-width:1.5;"/><ellipse cx="264.77" cy="248.775" fill="#FFFFFF" rx="6" ry="6" style="stroke:#181818;stroke-width:1.5;"/></g><!--link p7 to p8--><g id="link_p7_p8"><path d="M85.89,190.7 C91.32,175.49 106.92,131.84 112.21,117 " fill="none" id="p7-p8" style="stroke:#181818;stroke-width:1.0;"/></g><!--reverse link SunTimeAPI to p8--><g id="link_SunTimeAPI_p8"><path d="M126.9758,32.9606 C123.7658,51.9806 117.5,89.23 114.86,104.87 " fill="none" id="SunTimeAPI-backto-p8" style="stroke:#181818;stroke-width:1.0;"/><path d="M119.7884,24.7278 A9,9 0 0 0 136.467 27.5427" fill="none" style="stroke:#181818;stroke-width:1.5;"/></g><!--SRC=[PP3B2i8m44Nt-OhPMHUnFke34K45qPrGnNLe1osQP4YdYeZ_RblVTI1mxoJd3fFQdfdIeU_JKHdEzB4HMUtdXwn1mp9ErCufBTuT2BLolB0QOJHABocZ1cyMrCTZk0e1UP5r3DJwqeF7nITZxgnXD76EmBCUBziLtwdueEBxfRzLywSgElp6Vv3kk_U7RL7n7bs8xfH4-Dhd5-zzuNa0jK1c966pB6Mn0NL0UarPJABWANk2-Y1ZUpQo-0uQb9G7OMRMYSR9QYd47G00]--></g></svg>