<?xml version="1.0" encoding="us-ascii" standalone="no"?><svg xmlns="http://www.w3.org/2000/svg" xmlns:xlink="http://www.w3.org/1999/xlink" contentStyleType="text/css" height="560.7px" preserveAspectRatio="none" style="width:608px;height:560px;background:#FFFFFF;" version="1.1" viewBox="0 0 608 560" width="608.4px" zoomAndPan="magnify"><defs/><g><!--class House--><g id="elem_House"><rect codeLine="4" fill="#F1F1F1" height="68.8887" id="House" rx="2.25" ry="2.25" style="stroke:#181818;stroke-width:0.45;" width="64.8" x="197.8423" y="10.8"/><ellipse cx="211.3423" cy="38.0443" fill="#ADD1B2" rx="9.9" ry="9.9" style="stroke:#181818;stroke-width:0.9;"/><path d="M213.8314,34.3318 Q213.972,34.135 214.1407,34.0365 Q214.3095,33.9381 214.5064,33.9381 Q214.8439,33.9381 215.0548,34.1771 Q215.2657,34.4021 215.2657,34.9506 L215.2657,36.2584 Q215.2657,36.8068 215.0548,37.0459 Q214.8439,37.285 214.5064,37.285 Q214.197,37.285 214.0142,37.1021 Q213.8314,36.9334 213.7329,36.4693 Q213.6907,36.1459 213.522,35.9771 Q213.2267,35.6396 212.6782,35.4428 Q212.1298,35.2459 211.5673,35.2459 Q210.8782,35.2459 210.3017,35.5412 Q209.7392,35.8365 209.2892,36.5115 Q208.8532,37.1865 208.8532,38.1146 L208.8532,39.099 Q208.8532,40.21 209.6548,40.9553 Q210.4564,41.6865 211.8907,41.6865 Q212.7345,41.6865 213.3251,41.4615 Q213.6767,41.3209 214.0564,40.9271 Q214.2954,40.6881 214.422,40.6178 Q214.5626,40.5475 214.7454,40.5475 Q215.0407,40.5475 215.2657,40.7865 Q215.5048,41.0115 215.5048,41.3209 Q215.5048,41.6303 215.1954,41.9959 Q214.7454,42.5162 214.0282,42.8115 Q213.0579,43.2193 211.8907,43.2193 Q210.5267,43.2193 209.4439,42.6568 Q208.5579,42.2068 207.9392,41.2506 Q207.3204,40.2803 207.3204,39.1271 L207.3204,38.0865 Q207.3204,36.8912 207.8689,35.8646 Q208.4314,34.824 209.4157,34.2756 Q210.4001,33.7131 211.511,33.7131 Q212.172,33.7131 212.7485,33.8678 Q213.3392,34.0084 213.8314,34.3318 Z " fill="#000000"/><text fill="#000000" font-family="sans-serif" font-size="10.8" font-style="italic" lengthAdjust="spacing" textLength="39.6" x="222.1423" y="26.9543">&#171;Entity&#187;</text><text fill="#000000" font-family="sans-serif" font-size="10.8" font-style="italic" lengthAdjust="spacing" textLength="36" x="223.9423" y="41.3191">&#171;Root&#187;</text><text fill="#000000" font-family="sans-serif" font-size="12.6" lengthAdjust="spacing" textLength="36" x="223.9423" y="57.6264">House</text><line style="stroke:#181818;stroke-width:0.45;" x1="198.7423" x2="261.7423" y1="65.2887" y2="65.2887"/><line style="stroke:#181818;stroke-width:0.45;" x1="198.7423" x2="261.7423" y1="72.4887" y2="72.4887"/></g><!--class Room--><g id="elem_Room"><rect codeLine="5" fill="#F1F1F1" height="68.8887" id="Room" rx="2.25" ry="2.25" style="stroke:#181818;stroke-width:0.45;" width="64.8" x="197.8423" y="129.6"/><ellipse cx="211.3423" cy="156.8443" fill="#ADD1B2" rx="9.9" ry="9.9" style="stroke:#181818;stroke-width:0.9;"/><path d="M213.8314,153.1318 Q213.972,152.935 214.1407,152.8365 Q214.3095,152.7381 214.5064,152.7381 Q214.8439,152.7381 215.0548,152.9771 Q215.2657,153.2021 215.2657,153.7506 L215.2657,155.0584 Q215.2657,155.6068 215.0548,155.8459 Q214.8439,156.085 214.5064,156.085 Q214.197,156.085 214.0142,155.9021 Q213.8314,155.7334 213.7329,155.2693 Q213.6907,154.9459 213.522,154.7771 Q213.2267,154.4396 212.6782,154.2428 Q212.1298,154.0459 211.5673,154.0459 Q210.8782,154.0459 210.3017,154.3412 Q209.7392,154.6365 209.2892,155.3115 Q208.8532,155.9865 208.8532,156.9146 L208.8532,157.899 Q208.8532,159.01 209.6548,159.7553 Q210.4564,160.4865 211.8907,160.4865 Q212.7345,160.4865 213.3251,160.2615 Q213.6767,160.1209 214.0564,159.7271 Q214.2954,159.4881 214.422,159.4178 Q214.5626,159.3475 214.7454,159.3475 Q215.0407,159.3475 215.2657,159.5865 Q215.5048,159.8115 215.5048,160.1209 Q215.5048,160.4303 215.1954,160.7959 Q214.7454,161.3162 214.0282,161.6115 Q213.0579,162.0193 211.8907,162.0193 Q210.5267,162.0193 209.4439,161.4568 Q208.5579,161.0068 207.9392,160.0506 Q207.3204,159.0803 207.3204,157.9271 L207.3204,156.8865 Q207.3204,155.6912 207.8689,154.6646 Q208.4314,153.624 209.4157,153.0756 Q210.4001,152.5131 211.511,152.5131 Q212.172,152.5131 212.7485,152.6678 Q213.3392,152.8084 213.8314,153.1318 Z " fill="#000000"/><text fill="#000000" font-family="sans-serif" font-size="10.8" font-style="italic" lengthAdjust="spacing" textLength="39.6" x="222.1423" y="145.7543">&#171;Entity&#187;</text><text fill="#000000" font-family="sans-serif" font-size="10.8" font-style="italic" lengthAdjust="spacing" textLength="36" x="223.9423" y="160.1191">&#171;Root&#187;</text><text fill="#000000" font-family="sans-serif" font-size="12.6" lengthAdjust="spacing" textLength="33.3" x="225.2923" y="176.4264">Room</text><line style="stroke:#181818;stroke-width:0.45;" x1="198.7423" x2="261.7423" y1="184.0887" y2="184.0887"/><line style="stroke:#181818;stroke-width:0.45;" x1="198.7423" x2="261.7423" y1="191.2887" y2="191.2887"/></g><!--class Device--><g id="elem_Device"><rect codeLine="6" fill="#F1F1F1" height="68.8887" id="Device" rx="2.25" ry="2.25" style="stroke:#181818;stroke-width:0.45;" width="67.5" x="257.6923" y="248.4"/><ellipse cx="271.1923" cy="275.6443" fill="#ADD1B2" rx="9.9" ry="9.9" style="stroke:#181818;stroke-width:0.9;"/><path d="M273.6814,271.9318 Q273.822,271.735 273.9907,271.6365 Q274.1595,271.5381 274.3564,271.5381 Q274.6939,271.5381 274.9048,271.7771 Q275.1157,272.0021 275.1157,272.5506 L275.1157,273.8584 Q275.1157,274.4068 274.9048,274.6459 Q274.6939,274.885 274.3564,274.885 Q274.047,274.885 273.8642,274.7021 Q273.6814,274.5334 273.5829,274.0693 Q273.5407,273.7459 273.372,273.5771 Q273.0767,273.2396 272.5282,273.0428 Q271.9798,272.8459 271.4173,272.8459 Q270.7282,272.8459 270.1517,273.1412 Q269.5892,273.4365 269.1392,274.1115 Q268.7032,274.7865 268.7032,275.7146 L268.7032,276.699 Q268.7032,277.81 269.5048,278.5553 Q270.3064,279.2865 271.7407,279.2865 Q272.5845,279.2865 273.1751,279.0615 Q273.5267,278.9209 273.9064,278.5271 Q274.1454,278.2881 274.272,278.2178 Q274.4126,278.1475 274.5954,278.1475 Q274.8907,278.1475 275.1157,278.3865 Q275.3548,278.6115 275.3548,278.9209 Q275.3548,279.2303 275.0454,279.5959 Q274.5954,280.1162 273.8782,280.4115 Q272.9079,280.8193 271.7407,280.8193 Q270.3767,280.8193 269.2939,280.2568 Q268.4079,279.8068 267.7892,278.8506 Q267.1704,277.8803 267.1704,276.7271 L267.1704,275.6865 Q267.1704,274.4912 267.7189,273.4646 Q268.2814,272.424 269.2657,271.8756 Q270.2501,271.3131 271.361,271.3131 Q272.022,271.3131 272.5985,271.4678 Q273.1892,271.6084 273.6814,271.9318 Z " fill="#000000"/><text fill="#000000" font-family="sans-serif" font-size="10.8" font-style="italic" lengthAdjust="spacing" textLength="39.6" x="283.3423" y="264.5543">&#171;Entity&#187;</text><text fill="#000000" font-family="sans-serif" font-size="10.8" font-style="italic" lengthAdjust="spacing" textLength="36" x="285.1423" y="278.9191">&#171;Root&#187;</text><text fill="#000000" font-family="sans-serif" font-size="12.6" lengthAdjust="spacing" textLength="38.7" x="283.7923" y="295.2264">Device</text><line style="stroke:#181818;stroke-width:0.45;" x1="258.5923" x2="324.2923" y1="302.8887" y2="302.8887"/><line style="stroke:#181818;stroke-width:0.45;" x1="258.5923" x2="324.2923" y1="310.0887" y2="310.0887"/></g><!--class DeviceType--><g id="elem_DeviceType"><rect codeLine="7" fill="#F1F1F1" height="68.8887" id="DeviceType" rx="2.25" ry="2.25" style="stroke:#181818;stroke-width:0.45;" width="96.3" x="279.2923" y="129.6"/><ellipse cx="292.7923" cy="156.8443" fill="#ADD1B2" rx="9.9" ry="9.9" style="stroke:#181818;stroke-width:0.9;"/><path d="M295.2814,153.1318 Q295.422,152.935 295.5907,152.8365 Q295.7595,152.7381 295.9564,152.7381 Q296.2939,152.7381 296.5048,152.9771 Q296.7157,153.2021 296.7157,153.7506 L296.7157,155.0584 Q296.7157,155.6068 296.5048,155.8459 Q296.2939,156.085 295.9564,156.085 Q295.647,156.085 295.4642,155.9021 Q295.2814,155.7334 295.1829,155.2693 Q295.1407,154.9459 294.972,154.7771 Q294.6767,154.4396 294.1282,154.2428 Q293.5798,154.0459 293.0173,154.0459 Q292.3282,154.0459 291.7517,154.3412 Q291.1892,154.6365 290.7392,155.3115 Q290.3032,155.9865 290.3032,156.9146 L290.3032,157.899 Q290.3032,159.01 291.1048,159.7553 Q291.9064,160.4865 293.3407,160.4865 Q294.1845,160.4865 294.7751,160.2615 Q295.1267,160.1209 295.5064,159.7271 Q295.7454,159.4881 295.872,159.4178 Q296.0126,159.3475 296.1954,159.3475 Q296.4907,159.3475 296.7157,159.5865 Q296.9548,159.8115 296.9548,160.1209 Q296.9548,160.4303 296.6454,160.7959 Q296.1954,161.3162 295.4782,161.6115 Q294.5079,162.0193 293.3407,162.0193 Q291.9767,162.0193 290.8939,161.4568 Q290.0079,161.0068 289.3892,160.0506 Q288.7704,159.0803 288.7704,157.9271 L288.7704,156.8865 Q288.7704,155.6912 289.3189,154.6646 Q289.8814,153.624 290.8657,153.0756 Q291.8501,152.5131 292.961,152.5131 Q293.622,152.5131 294.1985,152.6678 Q294.7892,152.8084 295.2814,153.1318 Z " fill="#000000"/><text fill="#000000" font-family="sans-serif" font-size="10.8" font-style="italic" lengthAdjust="spacing" textLength="39.6" x="319.3423" y="145.7543">&#171;Entity&#187;</text><text fill="#000000" font-family="sans-serif" font-size="10.8" font-style="italic" lengthAdjust="spacing" textLength="36" x="321.1423" y="160.1191">&#171;Root&#187;</text><text fill="#000000" font-family="sans-serif" font-size="12.6" lengthAdjust="spacing" textLength="67.5" x="305.3923" y="176.4264">DeviceType</text><line style="stroke:#181818;stroke-width:0.45;" x1="280.1923" x2="374.6923" y1="184.0887" y2="184.0887"/><line style="stroke:#181818;stroke-width:0.45;" x1="280.1923" x2="374.6923" y1="191.2887" y2="191.2887"/></g><!--class Sensor--><g id="elem_Sensor"><rect codeLine="8" fill="#F1F1F1" height="68.8887" id="Sensor" rx="2.25" ry="2.25" style="stroke:#181818;stroke-width:0.45;" width="69.3" x="122.6923" y="367.2"/><ellipse cx="136.1923" cy="394.4443" fill="#ADD1B2" rx="9.9" ry="9.9" style="stroke:#181818;stroke-width:0.9;"/><path d="M138.6814,390.7318 Q138.822,390.535 138.9907,390.4365 Q139.1595,390.3381 139.3564,390.3381 Q139.6939,390.3381 139.9048,390.5771 Q140.1157,390.8021 140.1157,391.3506 L140.1157,392.6584 Q140.1157,393.2068 139.9048,393.4459 Q139.6939,393.685 139.3564,393.685 Q139.047,393.685 138.8642,393.5021 Q138.6814,393.3334 138.5829,392.8693 Q138.5407,392.5459 138.372,392.3771 Q138.0767,392.0396 137.5282,391.8428 Q136.9798,391.6459 136.4173,391.6459 Q135.7282,391.6459 135.1517,391.9412 Q134.5892,392.2365 134.1392,392.9115 Q133.7032,393.5865 133.7032,394.5146 L133.7032,395.499 Q133.7032,396.61 134.5048,397.3553 Q135.3064,398.0865 136.7407,398.0865 Q137.5845,398.0865 138.1751,397.8615 Q138.5267,397.7209 138.9064,397.3271 Q139.1454,397.0881 139.272,397.0178 Q139.4126,396.9475 139.5954,396.9475 Q139.8907,396.9475 140.1157,397.1865 Q140.3548,397.4115 140.3548,397.7209 Q140.3548,398.0303 140.0454,398.3959 Q139.5954,398.9162 138.8782,399.2115 Q137.9079,399.6193 136.7407,399.6193 Q135.3767,399.6193 134.2939,399.0568 Q133.4079,398.6068 132.7892,397.6506 Q132.1704,396.6803 132.1704,395.5271 L132.1704,394.4865 Q132.1704,393.2912 132.7189,392.2646 Q133.2814,391.224 134.2657,390.6756 Q135.2501,390.1131 136.361,390.1131 Q137.022,390.1131 137.5985,390.2678 Q138.1892,390.4084 138.6814,390.7318 Z " fill="#000000"/><text fill="#000000" font-family="sans-serif" font-size="10.8" font-style="italic" lengthAdjust="spacing" textLength="39.6" x="149.2423" y="383.3543">&#171;Entity&#187;</text><text fill="#000000" font-family="sans-serif" font-size="10.8" font-style="italic" lengthAdjust="spacing" textLength="36" x="151.0423" y="397.7191">&#171;Root&#187;</text><text fill="#000000" font-family="sans-serif" font-size="12.6" lengthAdjust="spacing" textLength="40.5" x="148.7923" y="414.0264">Sensor</text><line style="stroke:#181818;stroke-width:0.45;" x1="123.5923" x2="191.0923" y1="421.6887" y2="421.6887"/><line style="stroke:#181818;stroke-width:0.45;" x1="123.5923" x2="191.0923" y1="428.8887" y2="428.8887"/></g><!--class Actuator--><g id="elem_Actuator"><rect codeLine="9" fill="#F1F1F1" height="68.8887" id="Actuator" rx="2.25" ry="2.25" style="stroke:#181818;stroke-width:0.45;" width="76.5" x="328.7923" y="367.2"/><ellipse cx="342.2923" cy="394.4443" fill="#ADD1B2" rx="9.9" ry="9.9" style="stroke:#181818;stroke-width:0.9;"/><path d="M344.7814,390.7318 Q344.922,390.535 345.0907,390.4365 Q345.2595,390.3381 345.4564,390.3381 Q345.7939,390.3381 346.0048,390.5771 Q346.2157,390.8021 346.2157,391.3506 L346.2157,392.6584 Q346.2157,393.2068 346.0048,393.4459 Q345.7939,393.685 345.4564,393.685 Q345.147,393.685 344.9642,393.5021 Q344.7814,393.3334 344.6829,392.8693 Q344.6407,392.5459 344.472,392.3771 Q344.1767,392.0396 343.6282,391.8428 Q343.0798,391.6459 342.5173,391.6459 Q341.8282,391.6459 341.2517,391.9412 Q340.6892,392.2365 340.2392,392.9115 Q339.8032,393.5865 339.8032,394.5146 L339.8032,395.499 Q339.8032,396.61 340.6048,397.3553 Q341.4064,398.0865 342.8407,398.0865 Q343.6845,398.0865 344.2751,397.8615 Q344.6267,397.7209 345.0064,397.3271 Q345.2454,397.0881 345.372,397.0178 Q345.5126,396.9475 345.6954,396.9475 Q345.9907,396.9475 346.2157,397.1865 Q346.4548,397.4115 346.4548,397.7209 Q346.4548,398.0303 346.1454,398.3959 Q345.6954,398.9162 344.9782,399.2115 Q344.0079,399.6193 342.8407,399.6193 Q341.4767,399.6193 340.3939,399.0568 Q339.5079,398.6068 338.8892,397.6506 Q338.2704,396.6803 338.2704,395.5271 L338.2704,394.4865 Q338.2704,393.2912 338.8189,392.2646 Q339.3814,391.224 340.3657,390.6756 Q341.3501,390.1131 342.461,390.1131 Q343.122,390.1131 343.6985,390.2678 Q344.2892,390.4084 344.7814,390.7318 Z " fill="#000000"/><text fill="#000000" font-family="sans-serif" font-size="10.8" font-style="italic" lengthAdjust="spacing" textLength="39.6" x="358.9423" y="383.3543">&#171;Entity&#187;</text><text fill="#000000" font-family="sans-serif" font-size="10.8" font-style="italic" lengthAdjust="spacing" textLength="36" x="360.7423" y="397.7191">&#171;Root&#187;</text><text fill="#000000" font-family="sans-serif" font-size="12.6" lengthAdjust="spacing" textLength="47.7" x="354.8923" y="414.0264">Actuator</text><line style="stroke:#181818;stroke-width:0.45;" x1="329.6923" x2="404.3923" y1="421.6887" y2="421.6887"/><line style="stroke:#181818;stroke-width:0.45;" x1="329.6923" x2="404.3923" y1="428.8887" y2="428.8887"/></g><!--class ActuatorType--><g id="elem_ActuatorType"><rect codeLine="10" fill="#F1F1F1" height="68.8887" id="ActuatorType" rx="2.25" ry="2.25" style="stroke:#181818;stroke-width:0.45;" width="105.3" x="362.9923" y="248.4"/><ellipse cx="376.4923" cy="275.6443" fill="#ADD1B2" rx="9.9" ry="9.9" style="stroke:#181818;stroke-width:0.9;"/><path d="M378.9814,271.9318 Q379.122,271.735 379.2907,271.6365 Q379.4595,271.5381 379.6564,271.5381 Q379.9939,271.5381 380.2048,271.7771 Q380.4157,272.0021 380.4157,272.5506 L380.4157,273.8584 Q380.4157,274.4068 380.2048,274.6459 Q379.9939,274.885 379.6564,274.885 Q379.347,274.885 379.1642,274.7021 Q378.9814,274.5334 378.8829,274.0693 Q378.8407,273.7459 378.672,273.5771 Q378.3767,273.2396 377.8282,273.0428 Q377.2798,272.8459 376.7173,272.8459 Q376.0282,272.8459 375.4517,273.1412 Q374.8892,273.4365 374.4392,274.1115 Q374.0032,274.7865 374.0032,275.7146 L374.0032,276.699 Q374.0032,277.81 374.8048,278.5553 Q375.6064,279.2865 377.0407,279.2865 Q377.8845,279.2865 378.4751,279.0615 Q378.8267,278.9209 379.2064,278.5271 Q379.4454,278.2881 379.572,278.2178 Q379.7126,278.1475 379.8954,278.1475 Q380.1907,278.1475 380.4157,278.3865 Q380.6548,278.6115 380.6548,278.9209 Q380.6548,279.2303 380.3454,279.5959 Q379.8954,280.1162 379.1782,280.4115 Q378.2079,280.8193 377.0407,280.8193 Q375.6767,280.8193 374.5939,280.2568 Q373.7079,279.8068 373.0892,278.8506 Q372.4704,277.8803 372.4704,276.7271 L372.4704,275.6865 Q372.4704,274.4912 373.0189,273.4646 Q373.5814,272.424 374.5657,271.8756 Q375.5501,271.3131 376.661,271.3131 Q377.322,271.3131 377.8985,271.4678 Q378.4892,271.6084 378.9814,271.9318 Z " fill="#000000"/><text fill="#000000" font-family="sans-serif" font-size="10.8" font-style="italic" lengthAdjust="spacing" textLength="39.6" x="407.5423" y="264.5543">&#171;Entity&#187;</text><text fill="#000000" font-family="sans-serif" font-size="10.8" font-style="italic" lengthAdjust="spacing" textLength="36" x="409.3423" y="278.9191">&#171;Root&#187;</text><text fill="#000000" font-family="sans-serif" font-size="12.6" lengthAdjust="spacing" textLength="76.5" x="389.0923" y="295.2264">ActuatorType</text><line style="stroke:#181818;stroke-width:0.45;" x1="363.8923" x2="467.3923" y1="302.8887" y2="302.8887"/><line style="stroke:#181818;stroke-width:0.45;" x1="363.8923" x2="467.3923" y1="310.0887" y2="310.0887"/></g><!--class ActuatorModel--><g id="elem_ActuatorModel"><rect codeLine="11" fill="#F1F1F1" height="68.8887" id="ActuatorModel" rx="2.25" ry="2.25" style="stroke:#181818;stroke-width:0.45;" width="110.7" x="364.7923" y="486"/><ellipse cx="378.2923" cy="513.2443" fill="#ADD1B2" rx="9.9" ry="9.9" style="stroke:#181818;stroke-width:0.9;"/><path d="M380.7814,509.5318 Q380.922,509.335 381.0907,509.2365 Q381.2595,509.1381 381.4564,509.1381 Q381.7939,509.1381 382.0048,509.3771 Q382.2157,509.6021 382.2157,510.1506 L382.2157,511.4584 Q382.2157,512.0068 382.0048,512.2459 Q381.7939,512.485 381.4564,512.485 Q381.147,512.485 380.9642,512.3021 Q380.7814,512.1334 380.6829,511.6693 Q380.6407,511.3459 380.472,511.1771 Q380.1767,510.8396 379.6282,510.6428 Q379.0798,510.4459 378.5173,510.4459 Q377.8282,510.4459 377.2517,510.7412 Q376.6892,511.0365 376.2392,511.7115 Q375.8032,512.3865 375.8032,513.3146 L375.8032,514.299 Q375.8032,515.41 376.6048,516.1553 Q377.4064,516.8865 378.8407,516.8865 Q379.6845,516.8865 380.2751,516.6615 Q380.6267,516.5209 381.0064,516.1271 Q381.2454,515.8881 381.372,515.8178 Q381.5126,515.7475 381.6954,515.7475 Q381.9907,515.7475 382.2157,515.9865 Q382.4548,516.2115 382.4548,516.5209 Q382.4548,516.8303 382.1454,517.1959 Q381.6954,517.7162 380.9782,518.0115 Q380.0079,518.4193 378.8407,518.4193 Q377.4767,518.4193 376.3939,517.8568 Q375.5079,517.4068 374.8892,516.4506 Q374.2704,515.4803 374.2704,514.3271 L374.2704,513.2865 Q374.2704,512.0912 374.8189,511.0646 Q375.3814,510.024 376.3657,509.4756 Q377.3501,508.9131 378.461,508.9131 Q379.122,508.9131 379.6985,509.0678 Q380.2892,509.2084 380.7814,509.5318 Z " fill="#000000"/><text fill="#000000" font-family="sans-serif" font-size="10.8" font-style="italic" lengthAdjust="spacing" textLength="39.6" x="412.0423" y="502.1543">&#171;Entity&#187;</text><text fill="#000000" font-family="sans-serif" font-size="10.8" font-style="italic" lengthAdjust="spacing" textLength="36" x="413.8423" y="516.5191">&#171;Root&#187;</text><text fill="#000000" font-family="sans-serif" font-size="12.6" lengthAdjust="spacing" textLength="81.9" x="390.8923" y="532.8264">ActuatorModel</text><line style="stroke:#181818;stroke-width:0.45;" x1="365.6923" x2="474.5923" y1="540.4887" y2="540.4887"/><line style="stroke:#181818;stroke-width:0.45;" x1="365.6923" x2="474.5923" y1="547.6887" y2="547.6887"/></g><!--class SensorType--><g id="elem_SensorType"><rect codeLine="12" fill="#F1F1F1" height="68.8887" id="SensorType" rx="2.25" ry="2.25" style="stroke:#181818;stroke-width:0.45;" width="98.1" x="65.9923" y="248.4"/><ellipse cx="79.4923" cy="275.6443" fill="#ADD1B2" rx="9.9" ry="9.9" style="stroke:#181818;stroke-width:0.9;"/><path d="M81.9814,271.9318 Q82.122,271.735 82.2907,271.6365 Q82.4595,271.5381 82.6564,271.5381 Q82.9939,271.5381 83.2048,271.7771 Q83.4157,272.0021 83.4157,272.5506 L83.4157,273.8584 Q83.4157,274.4068 83.2048,274.6459 Q82.9939,274.885 82.6564,274.885 Q82.347,274.885 82.1642,274.7021 Q81.9814,274.5334 81.8829,274.0693 Q81.8407,273.7459 81.672,273.5771 Q81.3767,273.2396 80.8282,273.0428 Q80.2798,272.8459 79.7173,272.8459 Q79.0282,272.8459 78.4517,273.1412 Q77.8892,273.4365 77.4392,274.1115 Q77.0032,274.7865 77.0032,275.7146 L77.0032,276.699 Q77.0032,277.81 77.8048,278.5553 Q78.6064,279.2865 80.0407,279.2865 Q80.8845,279.2865 81.4751,279.0615 Q81.8267,278.9209 82.2064,278.5271 Q82.4454,278.2881 82.572,278.2178 Q82.7126,278.1475 82.8954,278.1475 Q83.1907,278.1475 83.4157,278.3865 Q83.6548,278.6115 83.6548,278.9209 Q83.6548,279.2303 83.3454,279.5959 Q82.8954,280.1162 82.1782,280.4115 Q81.2079,280.8193 80.0407,280.8193 Q78.6767,280.8193 77.5939,280.2568 Q76.7079,279.8068 76.0892,278.8506 Q75.4704,277.8803 75.4704,276.7271 L75.4704,275.6865 Q75.4704,274.4912 76.0189,273.4646 Q76.5814,272.424 77.5657,271.8756 Q78.5501,271.3131 79.661,271.3131 Q80.322,271.3131 80.8985,271.4678 Q81.4892,271.6084 81.9814,271.9318 Z " fill="#000000"/><text fill="#000000" font-family="sans-serif" font-size="10.8" font-style="italic" lengthAdjust="spacing" textLength="39.6" x="106.9423" y="264.5543">&#171;Entity&#187;</text><text fill="#000000" font-family="sans-serif" font-size="10.8" font-style="italic" lengthAdjust="spacing" textLength="36" x="108.7423" y="278.9191">&#171;Root&#187;</text><text fill="#000000" font-family="sans-serif" font-size="12.6" lengthAdjust="spacing" textLength="69.3" x="92.0923" y="295.2264">SensorType</text><line style="stroke:#181818;stroke-width:0.45;" x1="66.8923" x2="163.1923" y1="302.8887" y2="302.8887"/><line style="stroke:#181818;stroke-width:0.45;" x1="66.8923" x2="163.1923" y1="310.0887" y2="310.0887"/></g><!--class SensorModel--><g id="elem_SensorModel"><rect codeLine="13" fill="#F1F1F1" height="68.8887" id="SensorModel" rx="2.25" ry="2.25" style="stroke:#181818;stroke-width:0.45;" width="103.5" x="11.9923" y="486"/><ellipse cx="25.4923" cy="513.2443" fill="#ADD1B2" rx="9.9" ry="9.9" style="stroke:#181818;stroke-width:0.9;"/><path d="M27.9814,509.5318 Q28.122,509.335 28.2907,509.2365 Q28.4595,509.1381 28.6564,509.1381 Q28.9939,509.1381 29.2048,509.3771 Q29.4157,509.6021 29.4157,510.1506 L29.4157,511.4584 Q29.4157,512.0068 29.2048,512.2459 Q28.9939,512.485 28.6564,512.485 Q28.347,512.485 28.1642,512.3021 Q27.9814,512.1334 27.8829,511.6693 Q27.8407,511.3459 27.672,511.1771 Q27.3767,510.8396 26.8282,510.6428 Q26.2798,510.4459 25.7173,510.4459 Q25.0282,510.4459 24.4517,510.7412 Q23.8892,511.0365 23.4392,511.7115 Q23.0032,512.3865 23.0032,513.3146 L23.0032,514.299 Q23.0032,515.41 23.8048,516.1553 Q24.6064,516.8865 26.0407,516.8865 Q26.8845,516.8865 27.4751,516.6615 Q27.8267,516.5209 28.2064,516.1271 Q28.4454,515.8881 28.572,515.8178 Q28.7126,515.7475 28.8954,515.7475 Q29.1907,515.7475 29.4157,515.9865 Q29.6548,516.2115 29.6548,516.5209 Q29.6548,516.8303 29.3454,517.1959 Q28.8954,517.7162 28.1782,518.0115 Q27.2079,518.4193 26.0407,518.4193 Q24.6767,518.4193 23.5939,517.8568 Q22.7079,517.4068 22.0892,516.4506 Q21.4704,515.4803 21.4704,514.3271 L21.4704,513.2865 Q21.4704,512.0912 22.0189,511.0646 Q22.5814,510.024 23.5657,509.4756 Q24.5501,508.9131 25.661,508.9131 Q26.322,508.9131 26.8985,509.0678 Q27.4892,509.2084 27.9814,509.5318 Z " fill="#000000"/><text fill="#000000" font-family="sans-serif" font-size="10.8" font-style="italic" lengthAdjust="spacing" textLength="39.6" x="55.6423" y="502.1543">&#171;Entity&#187;</text><text fill="#000000" font-family="sans-serif" font-size="10.8" font-style="italic" lengthAdjust="spacing" textLength="31.5" x="59.6923" y="516.5191">&#171;root&#187;</text><text fill="#000000" font-family="sans-serif" font-size="12.6" lengthAdjust="spacing" textLength="74.7" x="38.0923" y="532.8264">SensorModel</text><line style="stroke:#181818;stroke-width:0.45;" x1="12.8923" x2="114.5923" y1="540.4887" y2="540.4887"/><line style="stroke:#181818;stroke-width:0.45;" x1="12.8923" x2="114.5923" y1="547.6887" y2="547.6887"/></g><!--class Unit--><g id="elem_Unit"><rect codeLine="14" fill="#F1F1F1" height="68.8887" id="Unit" rx="2.25" ry="2.25" style="stroke:#181818;stroke-width:0.45;" width="64.8" x="41.2423" y="367.2"/><ellipse cx="54.7423" cy="394.4443" fill="#ADD1B2" rx="9.9" ry="9.9" style="stroke:#181818;stroke-width:0.9;"/><path d="M57.2314,390.7318 Q57.372,390.535 57.5407,390.4365 Q57.7095,390.3381 57.9064,390.3381 Q58.2439,390.3381 58.4548,390.5771 Q58.6657,390.8021 58.6657,391.3506 L58.6657,392.6584 Q58.6657,393.2068 58.4548,393.4459 Q58.2439,393.685 57.9064,393.685 Q57.597,393.685 57.4142,393.5021 Q57.2314,393.3334 57.1329,392.8693 Q57.0907,392.5459 56.922,392.3771 Q56.6267,392.0396 56.0782,391.8428 Q55.5298,391.6459 54.9673,391.6459 Q54.2782,391.6459 53.7017,391.9412 Q53.1392,392.2365 52.6892,392.9115 Q52.2532,393.5865 52.2532,394.5146 L52.2532,395.499 Q52.2532,396.61 53.0548,397.3553 Q53.8564,398.0865 55.2907,398.0865 Q56.1345,398.0865 56.7251,397.8615 Q57.0767,397.7209 57.4564,397.3271 Q57.6954,397.0881 57.822,397.0178 Q57.9626,396.9475 58.1454,396.9475 Q58.4407,396.9475 58.6657,397.1865 Q58.9048,397.4115 58.9048,397.7209 Q58.9048,398.0303 58.5954,398.3959 Q58.1454,398.9162 57.4282,399.2115 Q56.4579,399.6193 55.2907,399.6193 Q53.9267,399.6193 52.8439,399.0568 Q51.9579,398.6068 51.3392,397.6506 Q50.7204,396.6803 50.7204,395.5271 L50.7204,394.4865 Q50.7204,393.2912 51.2689,392.2646 Q51.8314,391.224 52.8157,390.6756 Q53.8001,390.1131 54.911,390.1131 Q55.572,390.1131 56.1485,390.2678 Q56.7392,390.4084 57.2314,390.7318 Z " fill="#000000"/><text fill="#000000" font-family="sans-serif" font-size="10.8" font-style="italic" lengthAdjust="spacing" textLength="39.6" x="65.5423" y="383.3543">&#171;Entity&#187;</text><text fill="#000000" font-family="sans-serif" font-size="10.8" font-style="italic" lengthAdjust="spacing" textLength="36" x="67.3423" y="397.7191">&#171;Root&#187;</text><text fill="#000000" font-family="sans-serif" font-size="12.6" lengthAdjust="spacing" textLength="21.6" x="74.5423" y="414.0264">Unit</text><line style="stroke:#181818;stroke-width:0.45;" x1="42.1423" x2="105.1423" y1="421.6887" y2="421.6887"/><line style="stroke:#181818;stroke-width:0.45;" x1="42.1423" x2="105.1423" y1="428.8887" y2="428.8887"/></g><!--class Log--><g id="elem_Log"><rect codeLine="15" fill="#F1F1F1" height="68.8887" id="Log" rx="2.25" ry="2.25" style="stroke:#181818;stroke-width:0.45;" width="64.8" x="170.8423" y="486"/><ellipse cx="184.3423" cy="513.2443" fill="#ADD1B2" rx="9.9" ry="9.9" style="stroke:#181818;stroke-width:0.9;"/><path d="M186.8314,509.5318 Q186.972,509.335 187.1407,509.2365 Q187.3095,509.1381 187.5064,509.1381 Q187.8439,509.1381 188.0548,509.3771 Q188.2657,509.6021 188.2657,510.1506 L188.2657,511.4584 Q188.2657,512.0068 188.0548,512.2459 Q187.8439,512.485 187.5064,512.485 Q187.197,512.485 187.0142,512.3021 Q186.8314,512.1334 186.7329,511.6693 Q186.6907,511.3459 186.522,511.1771 Q186.2267,510.8396 185.6782,510.6428 Q185.1298,510.4459 184.5673,510.4459 Q183.8782,510.4459 183.3017,510.7412 Q182.7392,511.0365 182.2892,511.7115 Q181.8532,512.3865 181.8532,513.3146 L181.8532,514.299 Q181.8532,515.41 182.6548,516.1553 Q183.4564,516.8865 184.8907,516.8865 Q185.7345,516.8865 186.3251,516.6615 Q186.6767,516.5209 187.0564,516.1271 Q187.2954,515.8881 187.422,515.8178 Q187.5626,515.7475 187.7454,515.7475 Q188.0407,515.7475 188.2657,515.9865 Q188.5048,516.2115 188.5048,516.5209 Q188.5048,516.8303 188.1954,517.1959 Q187.7454,517.7162 187.0282,518.0115 Q186.0579,518.4193 184.8907,518.4193 Q183.5267,518.4193 182.4439,517.8568 Q181.5579,517.4068 180.9392,516.4506 Q180.3204,515.4803 180.3204,514.3271 L180.3204,513.2865 Q180.3204,512.0912 180.8689,511.0646 Q181.4314,510.024 182.4157,509.4756 Q183.4001,508.9131 184.511,508.9131 Q185.172,508.9131 185.7485,509.0678 Q186.3392,509.2084 186.8314,509.5318 Z " fill="#000000"/><text fill="#000000" font-family="sans-serif" font-size="10.8" font-style="italic" lengthAdjust="spacing" textLength="39.6" x="195.1423" y="502.1543">&#171;Entity&#187;</text><text fill="#000000" font-family="sans-serif" font-size="10.8" font-style="italic" lengthAdjust="spacing" textLength="36" x="196.9423" y="516.5191">&#171;Root&#187;</text><text fill="#000000" font-family="sans-serif" font-size="12.6" lengthAdjust="spacing" textLength="21.6" x="204.1423" y="532.8264">Log</text><line style="stroke:#181818;stroke-width:0.45;" x1="171.7423" x2="234.7423" y1="540.4887" y2="540.4887"/><line style="stroke:#181818;stroke-width:0.45;" x1="171.7423" x2="234.7423" y1="547.6887" y2="547.6887"/></g><g id="elem_note"><path d="M279.2923,33.3 L279.2923,57.8619 L602.3923,57.8619 L602.3923,42.3 L593.3923,33.3 L279.2923,33.3 " fill="#FEFFDD" style="stroke:#181818;stroke-width:0.45;"/><path d="M593.3923,33.3 L593.3923,42.3 L602.3923,42.3 L593.3923,33.3 " fill="#FEFFDD" style="stroke:#181818;stroke-width:0.9;"/><text fill="#000000" font-family="sans-serif" font-size="11.7" lengthAdjust="spacing" textLength="304.2" x="284.6923" y="50.4255">Cada agregado est&#225; interligado pelo seu ID e n&#227;o via Root.</text></g><polygon fill="#181818" points="230.2423,80.1912,226.6423,88.2912,230.2423,84.6912,233.8423,88.2912,230.2423,80.1912" style="stroke:#181818;stroke-width:0.9;"/><path d="M230.2423,85.5912 C230.2423,101.1138 230.2423,114.0715 230.2423,129.5848 " fill="none" style="stroke:#181818;stroke-width:0.9;"/><text fill="#000000" font-family="sans-serif" font-size="11.7" lengthAdjust="spacing" textLength="21.6" x="231.1423" y="109.8255">is in</text><text fill="#000000" font-family="sans-serif" font-size="11.7" lengthAdjust="spacing" textLength="18" x="211.3423" y="126.0103">0..*</text><text fill="#000000" font-family="sans-serif" font-size="11.7" lengthAdjust="spacing" textLength="6.3" x="223.0423" y="93.7167">1</text><polygon fill="#181818" points="247.9439,198.9912,248.5082,207.8372,250.0296,202.9787,254.8881,204.5001,247.9439,198.9912" style="stroke:#181818;stroke-width:0.9;"/><path d="M250.4468,203.7762 C258.5662,219.2987 265.6659,232.8715 273.7805,248.3848 " fill="none" style="stroke:#181818;stroke-width:0.9;"/><text fill="#000000" font-family="sans-serif" font-size="11.7" lengthAdjust="spacing" textLength="21.6" x="266.2423" y="228.6255">is in</text><text fill="#000000" font-family="sans-serif" font-size="11.7" lengthAdjust="spacing" textLength="18" x="254.8805" y="244.8103">0..*</text><text fill="#000000" font-family="sans-serif" font-size="11.7" lengthAdjust="spacing" textLength="6.3" x="240.7439" y="212.5167">1</text><polygon fill="#181818" points="317.0296,198.9912,311.2067,205.6743,315.7062,203.2923,318.0883,207.7918,317.0296,198.9912" style="stroke:#181818;stroke-width:0.9;"/><path d="M315.4415,204.1525 C310.6654,219.675 306.6049,232.8715 301.8316,248.3848 " fill="none" style="stroke:#181818;stroke-width:0.9;"/><text fill="#000000" font-family="sans-serif" font-size="11.7" lengthAdjust="spacing" textLength="18.9" x="313.0423" y="228.6255">has</text><text fill="#000000" font-family="sans-serif" font-size="11.7" lengthAdjust="spacing" textLength="4.5" x="296.4316" y="244.8103">*</text><text fill="#000000" font-family="sans-serif" font-size="11.7" lengthAdjust="spacing" textLength="6.3" x="309.8296" y="212.5167">1</text><polygon fill="#181818" points="257.6032,313.474,249.133,316.0866,254.2124,316.4325,253.8665,321.5119,257.6032,313.474" style="stroke:#181818;stroke-width:0.9;"/><path d="M253.5342,317.0242 C233.516,334.4897 212.283,353.0152 192.1053,370.6198 " fill="none" style="stroke:#181818;stroke-width:0.9;"/><text fill="#000000" font-family="sans-serif" font-size="11.7" lengthAdjust="spacing" textLength="21.6" x="233.8423" y="347.4255">is in</text><text fill="#000000" font-family="sans-serif" font-size="11.7" lengthAdjust="spacing" textLength="18" x="193.0053" y="367.0453">0..*</text><text fill="#000000" font-family="sans-serif" font-size="11.7" lengthAdjust="spacing" textLength="6.3" x="250.4032" y="309.8995">1</text><polygon fill="#181818" points="313.3089,317.7912,314.6812,326.5483,315.7512,321.5709,320.7286,322.6408,313.3089,317.7912" style="stroke:#181818;stroke-width:0.9;"/><path d="M316.2396,322.3268 C326.2696,337.8493 335.2008,351.6715 345.2248,367.1848 " fill="none" style="stroke:#181818;stroke-width:0.9;"/><text fill="#000000" font-family="sans-serif" font-size="11.7" lengthAdjust="spacing" textLength="21.6" x="335.5423" y="347.4255">is in</text><text fill="#000000" font-family="sans-serif" font-size="11.7" lengthAdjust="spacing" textLength="18" x="326.3248" y="363.6103">0..*</text><text fill="#000000" font-family="sans-serif" font-size="11.7" lengthAdjust="spacing" textLength="6.3" x="306.1089" y="331.3167">1</text><polygon fill="#181818" points="127.2772,317.7912,126.6457,326.6327,128.8072,322.0232,133.4167,324.1847,127.2772,317.7912" style="stroke:#181818;stroke-width:0.9;"/><path d="M129.1132,322.8695 C134.7252,338.3921 139.5262,351.6715 145.1349,367.1848 " fill="none" style="stroke:#181818;stroke-width:0.9;"/><text fill="#000000" font-family="sans-serif" font-size="11.7" lengthAdjust="spacing" textLength="18.9" x="140.2423" y="347.4255">has</text><text fill="#000000" font-family="sans-serif" font-size="11.7" lengthAdjust="spacing" textLength="18" x="126.2349" y="363.6103">1..*</text><text fill="#000000" font-family="sans-serif" font-size="11.7" lengthAdjust="spacing" textLength="6.3" x="120.0772" y="331.3167">1</text><polygon fill="#181818" points="85.59,367.1848,91.6858,360.7496,87.0911,362.9426,84.8982,358.3479,85.59,367.1848" style="stroke:#181818;stroke-width:0.9;"/><path d="M103.0677,317.7912 C97.5751,333.3138 92.8806,346.5808 87.3913,362.0941 " fill="none" style="stroke:#181818;stroke-width:0.9;"/><text fill="#000000" font-family="sans-serif" font-size="11.7" lengthAdjust="spacing" textLength="18.9" x="97.9423" y="347.4255">has</text><text fill="#000000" font-family="sans-serif" font-size="11.7" lengthAdjust="spacing" textLength="6.3" x="78.39" y="363.6103">1</text><text fill="#000000" font-family="sans-serif" font-size="11.7" lengthAdjust="spacing" textLength="4.5" x="97.6677" y="331.3167">*</text><polygon fill="#181818" points="90.7544,485.9848,98.6256,481.9087,93.5656,482.4709,93.0033,477.4109,90.7544,485.9848" style="stroke:#181818;stroke-width:0.9;"/><path d="M130.2693,436.5912 C117.8512,452.1138 106.5384,466.2548 94.1278,481.7681 " fill="none" style="stroke:#181818;stroke-width:0.9;"/><text fill="#000000" font-family="sans-serif" font-size="11.7" lengthAdjust="spacing" textLength="18.9" x="117.7423" y="466.2255">has</text><text fill="#000000" font-family="sans-serif" font-size="11.7" lengthAdjust="spacing" textLength="6.3" x="83.5544" y="482.4103">1</text><text fill="#000000" font-family="sans-serif" font-size="11.7" lengthAdjust="spacing" textLength="4.5" x="124.8693" y="450.1167">*</text><polygon fill="#181818" points="65.7402,310.5858,57.0173,312.1612,62.0183,313.1152,61.0643,318.1162,65.7402,310.5858" style="stroke:#181818;stroke-width:0.9;"/><path d="M61.274,313.6211 C40.7984,327.5363 23.6886,343.5919 12.4423,367.2 C-6.244,406.426 16.6983,454.2836 37.5915,485.8139 " fill="none" style="stroke:#181818;stroke-width:0.9;"/><text fill="#000000" font-family="sans-serif" font-size="11.7" lengthAdjust="spacing" textLength="18.9" x="13.3423" y="406.8255">has</text><text fill="#000000" font-family="sans-serif" font-size="11.7" lengthAdjust="spacing" textLength="4.5" x="32.1915" y="482.2393">*</text><text fill="#000000" font-family="sans-serif" font-size="11.7" lengthAdjust="spacing" textLength="6.3" x="58.5402" y="307.0113">1</text><polygon fill="#181818" points="401.5852,317.7912,395.1534,323.8906,399.8589,321.947,401.8025,326.6526,401.5852,317.7912" style="stroke:#181818;stroke-width:0.9;"/><path d="M399.5137,322.7781 C393.0659,338.3007 387.5118,351.6715 381.0678,367.1848 " fill="none" style="stroke:#181818;stroke-width:0.9;"/><text fill="#000000" font-family="sans-serif" font-size="11.7" lengthAdjust="spacing" textLength="18.9" x="395.8423" y="347.4255">has</text><text fill="#000000" font-family="sans-serif" font-size="11.7" lengthAdjust="spacing" textLength="18" x="362.1678" y="363.6103">1..*</text><text fill="#000000" font-family="sans-serif" font-size="11.7" lengthAdjust="spacing" textLength="6.3" x="394.3852" y="331.3167">1</text><polygon fill="#181818" points="418.3076,317.7913,415.2542,326.1127,418.6069,322.2813,422.4383,325.634,418.3076,317.7913" style="stroke:#181818;stroke-width:0.9;"/><path d="M418.6667,323.1793 C419.0256,328.5652 418.9954,328.6892 419.2423,333.9 C422.1008,394.2443 423.0303,409.3979 421.9423,469.8 C421.8485,475.0057 421.6998,480.515 421.5271,485.8997 " fill="none" style="stroke:#181818;stroke-width:0.9;"/><text fill="#000000" font-family="sans-serif" font-size="11.7" lengthAdjust="spacing" textLength="18.9" x="423.7423" y="406.8255">has</text><text fill="#000000" font-family="sans-serif" font-size="11.7" lengthAdjust="spacing" textLength="4.5" x="422.4271" y="482.3252">*</text><text fill="#000000" font-family="sans-serif" font-size="11.7" lengthAdjust="spacing" textLength="6.3" x="419.2076" y="331.3168">1</text><polygon fill="#181818" points="404.8181,485.9848,404.7487,477.1211,402.9583,481.8871,398.1924,480.0967,404.8181,485.9848" style="stroke:#181818;stroke-width:0.9;"/><path d="M382.401,436.5912 C389.4459,452.1138 395.5458,465.5543 402.5864,481.0675 " fill="none" style="stroke:#181818;stroke-width:0.9;"/><text fill="#000000" font-family="sans-serif" font-size="11.7" lengthAdjust="spacing" textLength="18.9" x="398.5423" y="466.2255">has</text><text fill="#000000" font-family="sans-serif" font-size="11.7" lengthAdjust="spacing" textLength="6.3" x="397.6181" y="482.4103">1</text><text fill="#000000" font-family="sans-serif" font-size="11.7" lengthAdjust="spacing" textLength="4.5" x="377.001" y="450.1167">*</text><polygon fill="#181818" points="285.5309,317.9168,280.433,325.1681,284.661,322.3319,287.4972,326.5599,285.5309,317.9168" style="stroke:#181818;stroke-width:0.9;"/><path d="M284.487,323.215 C276.926,361.5911 262.735,419.8999 237.4423,469.8 C234.7339,475.1434 231.5361,480.5836 228.2011,485.8126 " fill="none" style="stroke:#181818;stroke-width:0.9;"/><text fill="#000000" font-family="sans-serif" font-size="11.7" lengthAdjust="spacing" textLength="18.9" x="275.2423" y="406.8255">has</text><text fill="#000000" font-family="sans-serif" font-size="11.7" lengthAdjust="spacing" textLength="4.5" x="222.8011" y="482.2381">*</text><text fill="#000000" font-family="sans-serif" font-size="11.7" lengthAdjust="spacing" textLength="6.3" x="278.3309" y="331.4423">1</text><polygon fill="#181818" points="170.6185,436.5912,170.2253,445.4465,172.2619,440.7804,176.928,442.817,170.6185,436.5912" style="stroke:#181818;stroke-width:0.9;"/><path d="M172.5906,441.6182 C178.6802,457.1408 183.91,470.4715 189.9959,485.9848 " fill="none" style="stroke:#181818;stroke-width:0.9;"/><text fill="#000000" font-family="sans-serif" font-size="11.7" lengthAdjust="spacing" textLength="18.9" x="184.3423" y="466.2255">has</text><text fill="#000000" font-family="sans-serif" font-size="11.7" lengthAdjust="spacing" textLength="4.5" x="184.5959" y="482.4103">*</text><text fill="#000000" font-family="sans-serif" font-size="11.7" lengthAdjust="spacing" textLength="6.3" x="163.4185" y="450.1167">1</text><polygon fill="#181818" points="70.4494,436.7647,67.2699,445.0389,70.6804,441.2588,74.4605,444.6692,70.4494,436.7647" style="stroke:#181818;stroke-width:0.9;"/><path d="M70.7266,442.1576 C71.3176,453.655 73.7011,460.5226 80.8423,469.8 C93.1218,485.7529 104.4637,478.4905 123.1423,486 C138.8235,492.3044 156.1153,499.5524 170.607,505.7117 " fill="none" style="stroke:#181818;stroke-width:0.9;"/><text fill="#000000" font-family="sans-serif" font-size="11.7" lengthAdjust="spacing" textLength="18.9" x="81.7423" y="466.2255">has</text><text fill="#000000" font-family="sans-serif" font-size="11.7" lengthAdjust="spacing" textLength="4.5" x="165.207" y="502.1372">*</text><text fill="#000000" font-family="sans-serif" font-size="11.7" lengthAdjust="spacing" textLength="6.3" x="63.2494" y="450.2902">1</text><polygon fill="#181818" points="160.6968,317.88,164.266,325.9936,164.0255,320.9082,169.111,320.6677,160.6968,317.88" style="stroke:#181818;stroke-width:0.9;"/><path d="M164.6913,321.5138 C179.6437,335.1162 190.7033,348.4052 199.6423,367.2 C217.5064,404.7602 214.8131,453.6267 210.0584,485.8046 " fill="none" style="stroke:#181818;stroke-width:0.9;"/><text fill="#000000" font-family="sans-serif" font-size="11.7" lengthAdjust="spacing" textLength="18.9" x="214.9423" y="406.8255">has</text><text fill="#000000" font-family="sans-serif" font-size="11.7" lengthAdjust="spacing" textLength="4.5" x="204.6584" y="482.2301">*</text><text fill="#000000" font-family="sans-serif" font-size="11.7" lengthAdjust="spacing" textLength="6.3" x="161.5968" y="331.4055">1</text><!--SRC=[ZPBTIiGm48Nl-nHZBeKMzrPAGDm51Rtnvm66TgY1DYbDkb34Xn4VPL_CDBKq_J6xbydvvcHcJgxg1eiAeSHEjGPqHGObHb6KbQWrFAXMKveUf16cupnDNvGod7z-_UdsM0NaFHr5HcU1jwuEGQyajMe2m5rcMZGN8MUU6h5dbLDvjgMB-bvPDNFgNGeJC7bInQOQIMK8s3tc25WqL62kWBGvVOEGXffIk9kQIWMQMdZS0u4y_IWu2knpCma3rD3RsBWZbpIm7OCqZe7T9CarS_72BGXjFO57xhX0XWGzQ8fqGdtkmpuwKakpOMChioKsfkI1Ko0Jl9jx3W_xe5NZcBk2FeK5CzEzB3Ujl4ctKF_xBHlqfWd17kbxU_oiuIrslKzRO3_OQl1_PBUaSEsgPn_v1G00]--></g></svg>