<?xml version="1.0" encoding="us-ascii" standalone="no"?><svg xmlns="http://www.w3.org/2000/svg" xmlns:xlink="http://www.w3.org/1999/xlink" contentStyleType="text/css" height="436.1px" preserveAspectRatio="none" style="width:470px;height:436px;background:#FFFFFF;" version="1.1" viewBox="0 0 470 436" width="470.4px" zoomAndPan="magnify"><defs/><g><!--class House--><g id="elem_House"><rect codeLine="4" fill="#F1F1F1" height="53.5801" id="House" rx="1.75" ry="1.75" style="stroke:#181818;stroke-width:0.3499999999999999;" width="50.4" x="153.8773" y="8.4"/><ellipse cx="164.3773" cy="29.59" fill="#ADD1B2" rx="7.7" ry="7.7" style="stroke:#181818;stroke-width:0.6999999999999998;"/><path d="M166.3133,26.7025 Q166.4226,26.5494 166.5539,26.4729 Q166.6851,26.3963 166.8383,26.3963 Q167.1008,26.3963 167.2648,26.5822 Q167.4289,26.7572 167.4289,27.1838 L167.4289,28.201 Q167.4289,28.6275 167.2648,28.8135 Q167.1008,28.9994 166.8383,28.9994 Q166.5976,28.9994 166.4555,28.8572 Q166.3133,28.726 166.2367,28.365 Q166.2039,28.1135 166.0726,27.9822 Q165.843,27.7197 165.4164,27.5666 Q164.9898,27.4135 164.5523,27.4135 Q164.0164,27.4135 163.568,27.6432 Q163.1305,27.8729 162.7805,28.3979 Q162.4414,28.9229 162.4414,29.6447 L162.4414,30.4104 Q162.4414,31.2744 163.0648,31.8541 Q163.6883,32.4229 164.8039,32.4229 Q165.4601,32.4229 165.9195,32.2479 Q166.193,32.1385 166.4883,31.8322 Q166.6742,31.6463 166.7726,31.5916 Q166.882,31.5369 167.0242,31.5369 Q167.2539,31.5369 167.4289,31.7229 Q167.6148,31.8979 167.6148,32.1385 Q167.6148,32.3791 167.3742,32.6635 Q167.0242,33.0682 166.4664,33.2979 Q165.7117,33.615 164.8039,33.615 Q163.743,33.615 162.9008,33.1775 Q162.2117,32.8275 161.7305,32.0838 Q161.2492,31.3291 161.2492,30.4322 L161.2492,29.6229 Q161.2492,28.6932 161.6758,27.8947 Q162.1133,27.0854 162.8789,26.6588 Q163.6445,26.2213 164.5086,26.2213 Q165.0226,26.2213 165.4711,26.3416 Q165.9305,26.451 166.3133,26.7025 Z " fill="#000000"/><text fill="#000000" font-family="sans-serif" font-size="8.4" font-style="italic" lengthAdjust="spacing" textLength="30.8" x="172.7773" y="20.9645">&#171;Entity&#187;</text><text fill="#000000" font-family="sans-serif" font-size="8.4" font-style="italic" lengthAdjust="spacing" textLength="28" x="174.1773" y="32.1371">&#171;Root&#187;</text><text fill="#000000" font-family="sans-serif" font-size="9.8" lengthAdjust="spacing" textLength="28" x="174.1773" y="44.8205">House</text><line style="stroke:#181818;stroke-width:0.3499999999999999;" x1="154.5773" x2="203.5773" y1="50.7801" y2="50.7801"/><line style="stroke:#181818;stroke-width:0.3499999999999999;" x1="154.5773" x2="203.5773" y1="56.3801" y2="56.3801"/></g><!--class Room--><g id="elem_Room"><rect codeLine="5" fill="#F1F1F1" height="53.5801" id="Room" rx="1.75" ry="1.75" style="stroke:#181818;stroke-width:0.3499999999999999;" width="50.4" x="153.8773" y="100.8"/><ellipse cx="164.3773" cy="121.99" fill="#ADD1B2" rx="7.7" ry="7.7" style="stroke:#181818;stroke-width:0.6999999999999998;"/><path d="M166.3133,119.1025 Q166.4226,118.9494 166.5539,118.8729 Q166.6851,118.7963 166.8383,118.7963 Q167.1008,118.7963 167.2648,118.9822 Q167.4289,119.1572 167.4289,119.5838 L167.4289,120.601 Q167.4289,121.0275 167.2648,121.2135 Q167.1008,121.3994 166.8383,121.3994 Q166.5976,121.3994 166.4555,121.2572 Q166.3133,121.126 166.2367,120.765 Q166.2039,120.5135 166.0726,120.3822 Q165.843,120.1197 165.4164,119.9666 Q164.9898,119.8135 164.5523,119.8135 Q164.0164,119.8135 163.568,120.0432 Q163.1305,120.2729 162.7805,120.7979 Q162.4414,121.3229 162.4414,122.0447 L162.4414,122.8104 Q162.4414,123.6744 163.0648,124.2541 Q163.6883,124.8229 164.8039,124.8229 Q165.4601,124.8229 165.9195,124.6479 Q166.193,124.5385 166.4883,124.2322 Q166.6742,124.0463 166.7726,123.9916 Q166.882,123.9369 167.0242,123.9369 Q167.2539,123.9369 167.4289,124.1229 Q167.6148,124.2979 167.6148,124.5385 Q167.6148,124.7791 167.3742,125.0635 Q167.0242,125.4682 166.4664,125.6979 Q165.7117,126.015 164.8039,126.015 Q163.743,126.015 162.9008,125.5775 Q162.2117,125.2275 161.7305,124.4838 Q161.2492,123.7291 161.2492,122.8322 L161.2492,122.0229 Q161.2492,121.0932 161.6758,120.2947 Q162.1133,119.4854 162.8789,119.0588 Q163.6445,118.6213 164.5086,118.6213 Q165.0226,118.6213 165.4711,118.7416 Q165.9305,118.851 166.3133,119.1025 Z " fill="#000000"/><text fill="#000000" font-family="sans-serif" font-size="8.4" font-style="italic" lengthAdjust="spacing" textLength="30.8" x="172.7773" y="113.3645">&#171;Entity&#187;</text><text fill="#000000" font-family="sans-serif" font-size="8.4" font-style="italic" lengthAdjust="spacing" textLength="28" x="174.1773" y="124.5371">&#171;Root&#187;</text><text fill="#000000" font-family="sans-serif" font-size="9.8" lengthAdjust="spacing" textLength="25.9" x="175.2273" y="137.2205">Room</text><line style="stroke:#181818;stroke-width:0.3499999999999999;" x1="154.5773" x2="203.5773" y1="143.1801" y2="143.1801"/><line style="stroke:#181818;stroke-width:0.3499999999999999;" x1="154.5773" x2="203.5773" y1="148.7801" y2="148.7801"/></g><!--class Device--><g id="elem_Device"><rect codeLine="6" fill="#F1F1F1" height="53.5801" id="Device" rx="1.75" ry="1.75" style="stroke:#181818;stroke-width:0.3499999999999999;" width="52.5" x="200.4273" y="193.2"/><ellipse cx="210.9273" cy="214.39" fill="#ADD1B2" rx="7.7" ry="7.7" style="stroke:#181818;stroke-width:0.6999999999999998;"/><path d="M212.8633,211.5025 Q212.9726,211.3494 213.1039,211.2729 Q213.2351,211.1963 213.3883,211.1963 Q213.6508,211.1963 213.8148,211.3822 Q213.9789,211.5572 213.9789,211.9838 L213.9789,213.001 Q213.9789,213.4275 213.8148,213.6135 Q213.6508,213.7994 213.3883,213.7994 Q213.1476,213.7994 213.0055,213.6572 Q212.8633,213.526 212.7867,213.165 Q212.7539,212.9135 212.6226,212.7822 Q212.393,212.5197 211.9664,212.3666 Q211.5398,212.2135 211.1023,212.2135 Q210.5664,212.2135 210.118,212.4432 Q209.6805,212.6729 209.3305,213.1979 Q208.9914,213.7229 208.9914,214.4447 L208.9914,215.2104 Q208.9914,216.0744 209.6148,216.6541 Q210.2383,217.2229 211.3539,217.2229 Q212.0101,217.2229 212.4695,217.0479 Q212.743,216.9385 213.0383,216.6322 Q213.2242,216.4463 213.3226,216.3916 Q213.432,216.3369 213.5742,216.3369 Q213.8039,216.3369 213.9789,216.5229 Q214.1648,216.6979 214.1648,216.9385 Q214.1648,217.1791 213.9242,217.4635 Q213.5742,217.8682 213.0164,218.0979 Q212.2617,218.415 211.3539,218.415 Q210.293,218.415 209.4508,217.9775 Q208.7617,217.6275 208.2805,216.8838 Q207.7992,216.1291 207.7992,215.2322 L207.7992,214.4229 Q207.7992,213.4932 208.2258,212.6947 Q208.6633,211.8854 209.4289,211.4588 Q210.1945,211.0213 211.0586,211.0213 Q211.5726,211.0213 212.0211,211.1416 Q212.4805,211.251 212.8633,211.5025 Z " fill="#000000"/><text fill="#000000" font-family="sans-serif" font-size="8.4" font-style="italic" lengthAdjust="spacing" textLength="30.8" x="220.3773" y="205.7645">&#171;Entity&#187;</text><text fill="#000000" font-family="sans-serif" font-size="8.4" font-style="italic" lengthAdjust="spacing" textLength="28" x="221.7773" y="216.9371">&#171;Root&#187;</text><text fill="#000000" font-family="sans-serif" font-size="9.8" lengthAdjust="spacing" textLength="30.1" x="220.7273" y="229.6205">Device</text><line style="stroke:#181818;stroke-width:0.3499999999999999;" x1="201.1273" x2="252.2273" y1="235.5801" y2="235.5801"/><line style="stroke:#181818;stroke-width:0.3499999999999999;" x1="201.1273" x2="252.2273" y1="241.1801" y2="241.1801"/></g><!--class DeviceType--><g id="elem_DeviceType"><rect codeLine="7" fill="#F1F1F1" height="53.5801" id="DeviceType" rx="1.75" ry="1.75" style="stroke:#181818;stroke-width:0.3499999999999999;" width="74.9" x="217.2273" y="100.8"/><ellipse cx="227.7273" cy="121.99" fill="#ADD1B2" rx="7.7" ry="7.7" style="stroke:#181818;stroke-width:0.6999999999999998;"/><path d="M229.6633,119.1025 Q229.7726,118.9494 229.9039,118.8729 Q230.0351,118.7963 230.1883,118.7963 Q230.4508,118.7963 230.6148,118.9822 Q230.7789,119.1572 230.7789,119.5838 L230.7789,120.601 Q230.7789,121.0275 230.6148,121.2135 Q230.4508,121.3994 230.1883,121.3994 Q229.9476,121.3994 229.8055,121.2572 Q229.6633,121.126 229.5867,120.765 Q229.5539,120.5135 229.4226,120.3822 Q229.193,120.1197 228.7664,119.9666 Q228.3398,119.8135 227.9023,119.8135 Q227.3664,119.8135 226.918,120.0432 Q226.4805,120.2729 226.1305,120.7979 Q225.7914,121.3229 225.7914,122.0447 L225.7914,122.8104 Q225.7914,123.6744 226.4148,124.2541 Q227.0383,124.8229 228.1539,124.8229 Q228.8101,124.8229 229.2695,124.6479 Q229.543,124.5385 229.8383,124.2322 Q230.0242,124.0463 230.1226,123.9916 Q230.232,123.9369 230.3742,123.9369 Q230.6039,123.9369 230.7789,124.1229 Q230.9648,124.2979 230.9648,124.5385 Q230.9648,124.7791 230.7242,125.0635 Q230.3742,125.4682 229.8164,125.6979 Q229.0617,126.015 228.1539,126.015 Q227.093,126.015 226.2508,125.5775 Q225.5617,125.2275 225.0805,124.4838 Q224.5992,123.7291 224.5992,122.8322 L224.5992,122.0229 Q224.5992,121.0932 225.0258,120.2947 Q225.4633,119.4854 226.2289,119.0588 Q226.9945,118.6213 227.8586,118.6213 Q228.3726,118.6213 228.8211,118.7416 Q229.2805,118.851 229.6633,119.1025 Z " fill="#000000"/><text fill="#000000" font-family="sans-serif" font-size="8.4" font-style="italic" lengthAdjust="spacing" textLength="30.8" x="248.3773" y="113.3645">&#171;Entity&#187;</text><text fill="#000000" font-family="sans-serif" font-size="8.4" font-style="italic" lengthAdjust="spacing" textLength="28" x="249.7773" y="124.5371">&#171;Root&#187;</text><text fill="#000000" font-family="sans-serif" font-size="9.8" lengthAdjust="spacing" textLength="52.5" x="237.5273" y="137.2205">DeviceType</text><line style="stroke:#181818;stroke-width:0.3499999999999999;" x1="217.9273" x2="291.4273" y1="143.1801" y2="143.1801"/><line style="stroke:#181818;stroke-width:0.3499999999999999;" x1="217.9273" x2="291.4273" y1="148.7801" y2="148.7801"/></g><!--class Sensor--><g id="elem_Sensor"><rect codeLine="8" fill="#F1F1F1" height="53.5801" id="Sensor" rx="1.75" ry="1.75" style="stroke:#181818;stroke-width:0.3499999999999999;" width="53.9" x="95.4273" y="285.6"/><ellipse cx="105.9273" cy="306.79" fill="#ADD1B2" rx="7.7" ry="7.7" style="stroke:#181818;stroke-width:0.6999999999999998;"/><path d="M107.8633,303.9025 Q107.9726,303.7494 108.1039,303.6729 Q108.2351,303.5963 108.3883,303.5963 Q108.6508,303.5963 108.8148,303.7822 Q108.9789,303.9572 108.9789,304.3838 L108.9789,305.401 Q108.9789,305.8275 108.8148,306.0135 Q108.6508,306.1994 108.3883,306.1994 Q108.1476,306.1994 108.0055,306.0572 Q107.8633,305.926 107.7867,305.565 Q107.7539,305.3135 107.6226,305.1822 Q107.393,304.9197 106.9664,304.7666 Q106.5398,304.6135 106.1023,304.6135 Q105.5664,304.6135 105.118,304.8432 Q104.6805,305.0729 104.3305,305.5979 Q103.9914,306.1229 103.9914,306.8447 L103.9914,307.6104 Q103.9914,308.4744 104.6148,309.0541 Q105.2383,309.6229 106.3539,309.6229 Q107.0101,309.6229 107.4695,309.4479 Q107.743,309.3385 108.0383,309.0322 Q108.2242,308.8463 108.3226,308.7916 Q108.432,308.7369 108.5742,308.7369 Q108.8039,308.7369 108.9789,308.9229 Q109.1648,309.0979 109.1648,309.3385 Q109.1648,309.5791 108.9242,309.8635 Q108.5742,310.2682 108.0164,310.4979 Q107.2617,310.815 106.3539,310.815 Q105.293,310.815 104.4508,310.3775 Q103.7617,310.0275 103.2805,309.2838 Q102.7992,308.5291 102.7992,307.6322 L102.7992,306.8229 Q102.7992,305.8932 103.2258,305.0947 Q103.6633,304.2854 104.4289,303.8588 Q105.1945,303.4213 106.0586,303.4213 Q106.5726,303.4213 107.0211,303.5416 Q107.4805,303.651 107.8633,303.9025 Z " fill="#000000"/><text fill="#000000" font-family="sans-serif" font-size="8.4" font-style="italic" lengthAdjust="spacing" textLength="30.8" x="116.0773" y="298.1645">&#171;Entity&#187;</text><text fill="#000000" font-family="sans-serif" font-size="8.4" font-style="italic" lengthAdjust="spacing" textLength="28" x="117.4773" y="309.3371">&#171;Root&#187;</text><text fill="#000000" font-family="sans-serif" font-size="9.8" lengthAdjust="spacing" textLength="31.5" x="115.7273" y="322.0205">Sensor</text><line style="stroke:#181818;stroke-width:0.3499999999999999;" x1="96.1273" x2="148.6273" y1="327.9801" y2="327.9801"/><line style="stroke:#181818;stroke-width:0.3499999999999999;" x1="96.1273" x2="148.6273" y1="333.5801" y2="333.5801"/></g><!--class Actuator--><g id="elem_Actuator"><rect codeLine="9" fill="#F1F1F1" height="53.5801" id="Actuator" rx="1.75" ry="1.75" style="stroke:#181818;stroke-width:0.3499999999999999;" width="59.5" x="255.7273" y="285.6"/><ellipse cx="266.2273" cy="306.79" fill="#ADD1B2" rx="7.7" ry="7.7" style="stroke:#181818;stroke-width:0.6999999999999998;"/><path d="M268.1633,303.9025 Q268.2726,303.7494 268.4039,303.6729 Q268.5351,303.5963 268.6883,303.5963 Q268.9508,303.5963 269.1148,303.7822 Q269.2789,303.9572 269.2789,304.3838 L269.2789,305.401 Q269.2789,305.8275 269.1148,306.0135 Q268.9508,306.1994 268.6883,306.1994 Q268.4476,306.1994 268.3055,306.0572 Q268.1633,305.926 268.0867,305.565 Q268.0539,305.3135 267.9226,305.1822 Q267.693,304.9197 267.2664,304.7666 Q266.8398,304.6135 266.4023,304.6135 Q265.8664,304.6135 265.418,304.8432 Q264.9805,305.0729 264.6305,305.5979 Q264.2914,306.1229 264.2914,306.8447 L264.2914,307.6104 Q264.2914,308.4744 264.9148,309.0541 Q265.5383,309.6229 266.6539,309.6229 Q267.3101,309.6229 267.7695,309.4479 Q268.043,309.3385 268.3383,309.0322 Q268.5242,308.8463 268.6226,308.7916 Q268.732,308.7369 268.8742,308.7369 Q269.1039,308.7369 269.2789,308.9229 Q269.4648,309.0979 269.4648,309.3385 Q269.4648,309.5791 269.2242,309.8635 Q268.8742,310.2682 268.3164,310.4979 Q267.5617,310.815 266.6539,310.815 Q265.593,310.815 264.7508,310.3775 Q264.0617,310.0275 263.5805,309.2838 Q263.0992,308.5291 263.0992,307.6322 L263.0992,306.8229 Q263.0992,305.8932 263.5258,305.0947 Q263.9633,304.2854 264.7289,303.8588 Q265.4945,303.4213 266.3586,303.4213 Q266.8726,303.4213 267.3211,303.5416 Q267.7805,303.651 268.1633,303.9025 Z " fill="#000000"/><text fill="#000000" font-family="sans-serif" font-size="8.4" font-style="italic" lengthAdjust="spacing" textLength="30.8" x="279.1773" y="298.1645">&#171;Entity&#187;</text><text fill="#000000" font-family="sans-serif" font-size="8.4" font-style="italic" lengthAdjust="spacing" textLength="28" x="280.5773" y="309.3371">&#171;Root&#187;</text><text fill="#000000" font-family="sans-serif" font-size="9.8" lengthAdjust="spacing" textLength="37.1" x="276.0273" y="322.0205">Actuator</text><line style="stroke:#181818;stroke-width:0.3499999999999999;" x1="256.4273" x2="314.5273" y1="327.9801" y2="327.9801"/><line style="stroke:#181818;stroke-width:0.3499999999999999;" x1="256.4273" x2="314.5273" y1="333.5801" y2="333.5801"/></g><!--class ActuatorType--><g id="elem_ActuatorType"><rect codeLine="10" fill="#F1F1F1" height="53.5801" id="ActuatorType" rx="1.75" ry="1.75" style="stroke:#181818;stroke-width:0.3499999999999999;" width="81.9" x="282.3273" y="193.2"/><ellipse cx="292.8273" cy="214.39" fill="#ADD1B2" rx="7.7" ry="7.7" style="stroke:#181818;stroke-width:0.6999999999999998;"/><path d="M294.7633,211.5025 Q294.8726,211.3494 295.0039,211.2729 Q295.1351,211.1963 295.2883,211.1963 Q295.5508,211.1963 295.7148,211.3822 Q295.8789,211.5572 295.8789,211.9838 L295.8789,213.001 Q295.8789,213.4275 295.7148,213.6135 Q295.5508,213.7994 295.2883,213.7994 Q295.0476,213.7994 294.9055,213.6572 Q294.7633,213.526 294.6867,213.165 Q294.6539,212.9135 294.5226,212.7822 Q294.293,212.5197 293.8664,212.3666 Q293.4398,212.2135 293.0023,212.2135 Q292.4664,212.2135 292.018,212.4432 Q291.5805,212.6729 291.2305,213.1979 Q290.8914,213.7229 290.8914,214.4447 L290.8914,215.2104 Q290.8914,216.0744 291.5148,216.6541 Q292.1383,217.2229 293.2539,217.2229 Q293.9101,217.2229 294.3695,217.0479 Q294.643,216.9385 294.9383,216.6322 Q295.1242,216.4463 295.2226,216.3916 Q295.332,216.3369 295.4742,216.3369 Q295.7039,216.3369 295.8789,216.5229 Q296.0648,216.6979 296.0648,216.9385 Q296.0648,217.1791 295.8242,217.4635 Q295.4742,217.8682 294.9164,218.0979 Q294.1617,218.415 293.2539,218.415 Q292.193,218.415 291.3508,217.9775 Q290.6617,217.6275 290.1805,216.8838 Q289.6992,216.1291 289.6992,215.2322 L289.6992,214.4229 Q289.6992,213.4932 290.1258,212.6947 Q290.5633,211.8854 291.3289,211.4588 Q292.0945,211.0213 292.9586,211.0213 Q293.4726,211.0213 293.9211,211.1416 Q294.3805,211.251 294.7633,211.5025 Z " fill="#000000"/><text fill="#000000" font-family="sans-serif" font-size="8.4" font-style="italic" lengthAdjust="spacing" textLength="30.8" x="316.9773" y="205.7645">&#171;Entity&#187;</text><text fill="#000000" font-family="sans-serif" font-size="8.4" font-style="italic" lengthAdjust="spacing" textLength="28" x="318.3773" y="216.9371">&#171;Root&#187;</text><text fill="#000000" font-family="sans-serif" font-size="9.8" lengthAdjust="spacing" textLength="59.5" x="302.6273" y="229.6205">ActuatorType</text><line style="stroke:#181818;stroke-width:0.3499999999999999;" x1="283.0273" x2="363.5273" y1="235.5801" y2="235.5801"/><line style="stroke:#181818;stroke-width:0.3499999999999999;" x1="283.0273" x2="363.5273" y1="241.1801" y2="241.1801"/></g><!--class ActuatorModel--><g id="elem_ActuatorModel"><rect codeLine="11" fill="#F1F1F1" height="53.5801" id="ActuatorModel" rx="1.75" ry="1.75" style="stroke:#181818;stroke-width:0.3499999999999999;" width="86.1" x="283.7273" y="378"/><ellipse cx="294.2273" cy="399.19" fill="#ADD1B2" rx="7.7" ry="7.7" style="stroke:#181818;stroke-width:0.6999999999999998;"/><path d="M296.1633,396.3025 Q296.2726,396.1494 296.4039,396.0729 Q296.5351,395.9963 296.6883,395.9963 Q296.9508,395.9963 297.1148,396.1822 Q297.2789,396.3572 297.2789,396.7838 L297.2789,397.801 Q297.2789,398.2275 297.1148,398.4135 Q296.9508,398.5994 296.6883,398.5994 Q296.4476,398.5994 296.3055,398.4572 Q296.1633,398.326 296.0867,397.965 Q296.0539,397.7135 295.9226,397.5822 Q295.693,397.3197 295.2664,397.1666 Q294.8398,397.0135 294.4023,397.0135 Q293.8664,397.0135 293.418,397.2432 Q292.9805,397.4729 292.6305,397.9979 Q292.2914,398.5229 292.2914,399.2447 L292.2914,400.0104 Q292.2914,400.8744 292.9148,401.4541 Q293.5383,402.0229 294.6539,402.0229 Q295.3101,402.0229 295.7695,401.8479 Q296.043,401.7385 296.3383,401.4322 Q296.5242,401.2463 296.6226,401.1916 Q296.732,401.1369 296.8742,401.1369 Q297.1039,401.1369 297.2789,401.3229 Q297.4648,401.4979 297.4648,401.7385 Q297.4648,401.9791 297.2242,402.2635 Q296.8742,402.6682 296.3164,402.8979 Q295.5617,403.215 294.6539,403.215 Q293.593,403.215 292.7508,402.7775 Q292.0617,402.4275 291.5805,401.6838 Q291.0992,400.9291 291.0992,400.0322 L291.0992,399.2229 Q291.0992,398.2932 291.5258,397.4947 Q291.9633,396.6854 292.7289,396.2588 Q293.4945,395.8213 294.3586,395.8213 Q294.8726,395.8213 295.3211,395.9416 Q295.7805,396.051 296.1633,396.3025 Z " fill="#000000"/><text fill="#000000" font-family="sans-serif" font-size="8.4" font-style="italic" lengthAdjust="spacing" textLength="30.8" x="320.4773" y="390.5645">&#171;Entity&#187;</text><text fill="#000000" font-family="sans-serif" font-size="8.4" font-style="italic" lengthAdjust="spacing" textLength="28" x="321.8773" y="401.7371">&#171;Root&#187;</text><text fill="#000000" font-family="sans-serif" font-size="9.8" lengthAdjust="spacing" textLength="63.7" x="304.0273" y="414.4205">ActuatorModel</text><line style="stroke:#181818;stroke-width:0.3499999999999999;" x1="284.4273" x2="369.1273" y1="420.3801" y2="420.3801"/><line style="stroke:#181818;stroke-width:0.3499999999999999;" x1="284.4273" x2="369.1273" y1="425.9801" y2="425.9801"/></g><!--class SensorType--><g id="elem_SensorType"><rect codeLine="12" fill="#F1F1F1" height="53.5801" id="SensorType" rx="1.75" ry="1.75" style="stroke:#181818;stroke-width:0.3499999999999999;" width="76.3" x="51.3273" y="193.2"/><ellipse cx="61.8273" cy="214.39" fill="#ADD1B2" rx="7.7" ry="7.7" style="stroke:#181818;stroke-width:0.6999999999999998;"/><path d="M63.7633,211.5025 Q63.8726,211.3494 64.0039,211.2729 Q64.1351,211.1963 64.2883,211.1963 Q64.5508,211.1963 64.7148,211.3822 Q64.8789,211.5572 64.8789,211.9838 L64.8789,213.001 Q64.8789,213.4275 64.7148,213.6135 Q64.5508,213.7994 64.2883,213.7994 Q64.0476,213.7994 63.9055,213.6572 Q63.7633,213.526 63.6867,213.165 Q63.6539,212.9135 63.5226,212.7822 Q63.293,212.5197 62.8664,212.3666 Q62.4398,212.2135 62.0023,212.2135 Q61.4664,212.2135 61.018,212.4432 Q60.5805,212.6729 60.2305,213.1979 Q59.8914,213.7229 59.8914,214.4447 L59.8914,215.2104 Q59.8914,216.0744 60.5148,216.6541 Q61.1383,217.2229 62.2539,217.2229 Q62.9101,217.2229 63.3695,217.0479 Q63.643,216.9385 63.9383,216.6322 Q64.1242,216.4463 64.2226,216.3916 Q64.332,216.3369 64.4742,216.3369 Q64.7039,216.3369 64.8789,216.5229 Q65.0648,216.6979 65.0648,216.9385 Q65.0648,217.1791 64.8242,217.4635 Q64.4742,217.8682 63.9164,218.0979 Q63.1617,218.415 62.2539,218.415 Q61.193,218.415 60.3508,217.9775 Q59.6617,217.6275 59.1805,216.8838 Q58.6992,216.1291 58.6992,215.2322 L58.6992,214.4229 Q58.6992,213.4932 59.1258,212.6947 Q59.5633,211.8854 60.3289,211.4588 Q61.0945,211.0213 61.9586,211.0213 Q62.4726,211.0213 62.9211,211.1416 Q63.3805,211.251 63.7633,211.5025 Z " fill="#000000"/><text fill="#000000" font-family="sans-serif" font-size="8.4" font-style="italic" lengthAdjust="spacing" textLength="30.8" x="83.1773" y="205.7645">&#171;Entity&#187;</text><text fill="#000000" font-family="sans-serif" font-size="8.4" font-style="italic" lengthAdjust="spacing" textLength="28" x="84.5773" y="216.9371">&#171;Root&#187;</text><text fill="#000000" font-family="sans-serif" font-size="9.8" lengthAdjust="spacing" textLength="53.9" x="71.6273" y="229.6205">SensorType</text><line style="stroke:#181818;stroke-width:0.3499999999999999;" x1="52.0273" x2="126.9273" y1="235.5801" y2="235.5801"/><line style="stroke:#181818;stroke-width:0.3499999999999999;" x1="52.0273" x2="126.9273" y1="241.1801" y2="241.1801"/></g><!--class SensorModel--><g id="elem_SensorModel"><rect codeLine="13" fill="#F1F1F1" height="53.5801" id="SensorModel" rx="1.75" ry="1.75" style="stroke:#181818;stroke-width:0.3499999999999999;" width="80.5" x="9.3273" y="378"/><ellipse cx="19.8273" cy="399.19" fill="#ADD1B2" rx="7.7" ry="7.7" style="stroke:#181818;stroke-width:0.6999999999999998;"/><path d="M21.7633,396.3025 Q21.8726,396.1494 22.0039,396.0729 Q22.1351,395.9963 22.2883,395.9963 Q22.5508,395.9963 22.7148,396.1822 Q22.8789,396.3572 22.8789,396.7838 L22.8789,397.801 Q22.8789,398.2275 22.7148,398.4135 Q22.5508,398.5994 22.2883,398.5994 Q22.0476,398.5994 21.9055,398.4572 Q21.7633,398.326 21.6867,397.965 Q21.6539,397.7135 21.5226,397.5822 Q21.293,397.3197 20.8664,397.1666 Q20.4398,397.0135 20.0023,397.0135 Q19.4664,397.0135 19.018,397.2432 Q18.5805,397.4729 18.2305,397.9979 Q17.8914,398.5229 17.8914,399.2447 L17.8914,400.0104 Q17.8914,400.8744 18.5148,401.4541 Q19.1383,402.0229 20.2539,402.0229 Q20.9101,402.0229 21.3695,401.8479 Q21.643,401.7385 21.9383,401.4322 Q22.1242,401.2463 22.2226,401.1916 Q22.332,401.1369 22.4742,401.1369 Q22.7039,401.1369 22.8789,401.3229 Q23.0648,401.4979 23.0648,401.7385 Q23.0648,401.9791 22.8242,402.2635 Q22.4742,402.6682 21.9164,402.8979 Q21.1617,403.215 20.2539,403.215 Q19.193,403.215 18.3508,402.7775 Q17.6617,402.4275 17.1805,401.6838 Q16.6992,400.9291 16.6992,400.0322 L16.6992,399.2229 Q16.6992,398.2932 17.1258,397.4947 Q17.5633,396.6854 18.3289,396.2588 Q19.0945,395.8213 19.9586,395.8213 Q20.4726,395.8213 20.9211,395.9416 Q21.3805,396.051 21.7633,396.3025 Z " fill="#000000"/><text fill="#000000" font-family="sans-serif" font-size="8.4" font-style="italic" lengthAdjust="spacing" textLength="30.8" x="43.2773" y="390.5645">&#171;Entity&#187;</text><text fill="#000000" font-family="sans-serif" font-size="8.4" font-style="italic" lengthAdjust="spacing" textLength="24.5" x="46.4273" y="401.7371">&#171;root&#187;</text><text fill="#000000" font-family="sans-serif" font-size="9.8" lengthAdjust="spacing" textLength="58.1" x="29.6273" y="414.4205">SensorModel</text><line style="stroke:#181818;stroke-width:0.3499999999999999;" x1="10.0273" x2="89.1273" y1="420.3801" y2="420.3801"/><line style="stroke:#181818;stroke-width:0.3499999999999999;" x1="10.0273" x2="89.1273" y1="425.9801" y2="425.9801"/></g><!--class Unit--><g id="elem_Unit"><rect codeLine="14" fill="#F1F1F1" height="53.5801" id="Unit" rx="1.75" ry="1.75" style="stroke:#181818;stroke-width:0.3499999999999999;" width="50.4" x="32.0773" y="285.6"/><ellipse cx="42.5773" cy="306.79" fill="#ADD1B2" rx="7.7" ry="7.7" style="stroke:#181818;stroke-width:0.6999999999999998;"/><path d="M44.5133,303.9025 Q44.6226,303.7494 44.7539,303.6729 Q44.8851,303.5963 45.0383,303.5963 Q45.3008,303.5963 45.4648,303.7822 Q45.6289,303.9572 45.6289,304.3838 L45.6289,305.401 Q45.6289,305.8275 45.4648,306.0135 Q45.3008,306.1994 45.0383,306.1994 Q44.7976,306.1994 44.6555,306.0572 Q44.5133,305.926 44.4367,305.565 Q44.4039,305.3135 44.2726,305.1822 Q44.043,304.9197 43.6164,304.7666 Q43.1898,304.6135 42.7523,304.6135 Q42.2164,304.6135 41.768,304.8432 Q41.3305,305.0729 40.9805,305.5979 Q40.6414,306.1229 40.6414,306.8447 L40.6414,307.6104 Q40.6414,308.4744 41.2648,309.0541 Q41.8883,309.6229 43.0039,309.6229 Q43.6601,309.6229 44.1195,309.4479 Q44.393,309.3385 44.6883,309.0322 Q44.8742,308.8463 44.9726,308.7916 Q45.082,308.7369 45.2242,308.7369 Q45.4539,308.7369 45.6289,308.9229 Q45.8148,309.0979 45.8148,309.3385 Q45.8148,309.5791 45.5742,309.8635 Q45.2242,310.2682 44.6664,310.4979 Q43.9117,310.815 43.0039,310.815 Q41.943,310.815 41.1008,310.3775 Q40.4117,310.0275 39.9305,309.2838 Q39.4492,308.5291 39.4492,307.6322 L39.4492,306.8229 Q39.4492,305.8932 39.8758,305.0947 Q40.3133,304.2854 41.0789,303.8588 Q41.8445,303.4213 42.7086,303.4213 Q43.2226,303.4213 43.6711,303.5416 Q44.1305,303.651 44.5133,303.9025 Z " fill="#000000"/><text fill="#000000" font-family="sans-serif" font-size="8.4" font-style="italic" lengthAdjust="spacing" textLength="30.8" x="50.9773" y="298.1645">&#171;Entity&#187;</text><text fill="#000000" font-family="sans-serif" font-size="8.4" font-style="italic" lengthAdjust="spacing" textLength="28" x="52.3773" y="309.3371">&#171;Root&#187;</text><text fill="#000000" font-family="sans-serif" font-size="9.8" lengthAdjust="spacing" textLength="16.8" x="57.9773" y="322.0205">Unit</text><line style="stroke:#181818;stroke-width:0.3499999999999999;" x1="32.7773" x2="81.7773" y1="327.9801" y2="327.9801"/><line style="stroke:#181818;stroke-width:0.3499999999999999;" x1="32.7773" x2="81.7773" y1="333.5801" y2="333.5801"/></g><!--class Log--><g id="elem_Log"><rect codeLine="15" fill="#F1F1F1" height="53.5801" id="Log" rx="1.75" ry="1.75" style="stroke:#181818;stroke-width:0.3499999999999999;" width="50.4" x="132.8773" y="378"/><ellipse cx="143.3773" cy="399.19" fill="#ADD1B2" rx="7.7" ry="7.7" style="stroke:#181818;stroke-width:0.6999999999999998;"/><path d="M145.3133,396.3025 Q145.4226,396.1494 145.5539,396.0729 Q145.6851,395.9963 145.8383,395.9963 Q146.1008,395.9963 146.2648,396.1822 Q146.4289,396.3572 146.4289,396.7838 L146.4289,397.801 Q146.4289,398.2275 146.2648,398.4135 Q146.1008,398.5994 145.8383,398.5994 Q145.5976,398.5994 145.4555,398.4572 Q145.3133,398.326 145.2367,397.965 Q145.2039,397.7135 145.0726,397.5822 Q144.843,397.3197 144.4164,397.1666 Q143.9898,397.0135 143.5523,397.0135 Q143.0164,397.0135 142.568,397.2432 Q142.1305,397.4729 141.7805,397.9979 Q141.4414,398.5229 141.4414,399.2447 L141.4414,400.0104 Q141.4414,400.8744 142.0648,401.4541 Q142.6883,402.0229 143.8039,402.0229 Q144.4601,402.0229 144.9195,401.8479 Q145.193,401.7385 145.4883,401.4322 Q145.6742,401.2463 145.7726,401.1916 Q145.882,401.1369 146.0242,401.1369 Q146.2539,401.1369 146.4289,401.3229 Q146.6148,401.4979 146.6148,401.7385 Q146.6148,401.9791 146.3742,402.2635 Q146.0242,402.6682 145.4664,402.8979 Q144.7117,403.215 143.8039,403.215 Q142.743,403.215 141.9008,402.7775 Q141.2117,402.4275 140.7305,401.6838 Q140.2492,400.9291 140.2492,400.0322 L140.2492,399.2229 Q140.2492,398.2932 140.6758,397.4947 Q141.1133,396.6854 141.8789,396.2588 Q142.6445,395.8213 143.5086,395.8213 Q144.0226,395.8213 144.4711,395.9416 Q144.9305,396.051 145.3133,396.3025 Z " fill="#000000"/><text fill="#000000" font-family="sans-serif" font-size="8.4" font-style="italic" lengthAdjust="spacing" textLength="30.8" x="151.7773" y="390.5645">&#171;Entity&#187;</text><text fill="#000000" font-family="sans-serif" font-size="8.4" font-style="italic" lengthAdjust="spacing" textLength="28" x="153.1773" y="401.7371">&#171;Root&#187;</text><text fill="#000000" font-family="sans-serif" font-size="9.8" lengthAdjust="spacing" textLength="16.8" x="158.7773" y="414.4205">Log</text><line style="stroke:#181818;stroke-width:0.3499999999999999;" x1="133.5773" x2="182.5773" y1="420.3801" y2="420.3801"/><line style="stroke:#181818;stroke-width:0.3499999999999999;" x1="133.5773" x2="182.5773" y1="425.9801" y2="425.9801"/></g><g id="elem_note"><path d="M217.2273,25.9 L217.2273,45.0037 L465.7273,45.0037 L465.7273,32.9 L458.7273,25.9 L217.2273,25.9 " fill="#FEFFDD" style="stroke:#181818;stroke-width:0.3499999999999999;"/><path d="M458.7273,25.9 L458.7273,32.9 L465.7273,32.9 L458.7273,25.9 " fill="#FEFFDD" style="stroke:#181818;stroke-width:0.6999999999999998;"/><text fill="#000000" font-family="sans-serif" font-size="9.1" lengthAdjust="spacing" textLength="233.8" x="221.4273" y="39.2198">Each aggregate is only known to the outside via their ID's.</text></g><polygon fill="#181818" points="179.0773,62.371,176.2773,68.671,179.0773,65.871,181.8773,68.671,179.0773,62.371" style="stroke:#181818;stroke-width:0.6999999999999998;"/><path d="M179.0773,66.571 C179.0773,78.6441 179.0773,88.7223 179.0773,100.7882 " fill="none" style="stroke:#181818;stroke-width:0.6999999999999998;"/><text fill="#000000" font-family="sans-serif" font-size="9.1" lengthAdjust="spacing" textLength="16.8" x="179.7773" y="85.4198">is in</text><text fill="#000000" font-family="sans-serif" font-size="9.1" lengthAdjust="spacing" textLength="14" x="164.3773" y="98.008">0..*</text><text fill="#000000" font-family="sans-serif" font-size="9.1" lengthAdjust="spacing" textLength="4.9" x="173.4773" y="72.8908">1</text><polygon fill="#181818" points="192.8452,154.771,193.2842,161.6512,194.4675,157.8723,198.2463,159.0556,192.8452,154.771" style="stroke:#181818;stroke-width:0.6999999999999998;"/><path d="M194.7919,158.4926 C201.1071,170.5657 206.629,181.1223 212.9404,193.1882 " fill="none" style="stroke:#181818;stroke-width:0.6999999999999998;"/><text fill="#000000" font-family="sans-serif" font-size="9.1" lengthAdjust="spacing" textLength="16.8" x="207.0773" y="177.8198">is in</text><text fill="#000000" font-family="sans-serif" font-size="9.1" lengthAdjust="spacing" textLength="14" x="198.2404" y="190.408">0..*</text><text fill="#000000" font-family="sans-serif" font-size="9.1" lengthAdjust="spacing" textLength="4.9" x="187.2452" y="165.2908">1</text><polygon fill="#181818" points="246.5786,154.771,242.0497,159.9689,245.5493,158.1162,247.402,161.6158,246.5786,154.771" style="stroke:#181818;stroke-width:0.6999999999999998;"/><path d="M245.3434,158.7852 C241.6286,170.8583 238.4705,181.1223 234.7579,193.1882 " fill="none" style="stroke:#181818;stroke-width:0.6999999999999998;"/><text fill="#000000" font-family="sans-serif" font-size="9.1" lengthAdjust="spacing" textLength="14.7" x="243.4773" y="177.8198">has</text><text fill="#000000" font-family="sans-serif" font-size="9.1" lengthAdjust="spacing" textLength="3.5" x="230.5579" y="190.408">*</text><text fill="#000000" font-family="sans-serif" font-size="9.1" lengthAdjust="spacing" textLength="4.9" x="240.9786" y="165.2908">1</text><polygon fill="#181818" points="200.358,243.8131,193.7701,245.8451,197.7207,246.1141,197.4517,250.0648,200.358,243.8131" style="stroke:#181818;stroke-width:0.6999999999999998;"/><path d="M197.1933,246.5743 C181.6236,260.1587 165.109,274.5673 149.4152,288.2599 " fill="none" style="stroke:#181818;stroke-width:0.6999999999999998;"/><text fill="#000000" font-family="sans-serif" font-size="9.1" lengthAdjust="spacing" textLength="16.8" x="181.8773" y="270.2198">is in</text><text fill="#000000" font-family="sans-serif" font-size="9.1" lengthAdjust="spacing" textLength="14" x="150.1152" y="285.4797">0..*</text><text fill="#000000" font-family="sans-serif" font-size="9.1" lengthAdjust="spacing" textLength="4.9" x="194.758" y="241.033">1</text><polygon fill="#181818" points="243.6847,247.171,244.7521,253.982,245.5842,250.1107,249.4556,250.9428,243.6847,247.171" style="stroke:#181818;stroke-width:0.6999999999999998;"/><path d="M245.9641,250.6986 C253.7652,262.7717 260.7117,273.5223 268.5082,285.5882 " fill="none" style="stroke:#181818;stroke-width:0.6999999999999998;"/><text fill="#000000" font-family="sans-serif" font-size="9.1" lengthAdjust="spacing" textLength="16.8" x="260.9773" y="270.2198">is in</text><text fill="#000000" font-family="sans-serif" font-size="9.1" lengthAdjust="spacing" textLength="14" x="253.8082" y="282.808">0..*</text><text fill="#000000" font-family="sans-serif" font-size="9.1" lengthAdjust="spacing" textLength="4.9" x="238.0847" y="257.6908">1</text><polygon fill="#181818" points="98.9934,247.171,98.5022,254.0477,100.1834,250.4625,103.7686,252.1437,98.9934,247.171" style="stroke:#181818;stroke-width:0.6999999999999998;"/><path d="M100.4214,251.1208 C104.7863,263.1939 108.5204,273.5223 112.8827,285.5882 " fill="none" style="stroke:#181818;stroke-width:0.6999999999999998;"/><text fill="#000000" font-family="sans-serif" font-size="9.1" lengthAdjust="spacing" textLength="14.7" x="109.0773" y="270.2198">has</text><text fill="#000000" font-family="sans-serif" font-size="9.1" lengthAdjust="spacing" textLength="14" x="98.1827" y="282.808">1..*</text><text fill="#000000" font-family="sans-serif" font-size="9.1" lengthAdjust="spacing" textLength="4.9" x="93.3934" y="257.6908">1</text><polygon fill="#181818" points="66.57,285.5882,71.3111,280.5831,67.7375,282.2887,66.0319,278.715,66.57,285.5882" style="stroke:#181818;stroke-width:0.6999999999999998;"/><path d="M80.1638,247.171 C75.8917,259.2441 72.2405,269.5629 67.971,281.6288 " fill="none" style="stroke:#181818;stroke-width:0.6999999999999998;"/><text fill="#000000" font-family="sans-serif" font-size="9.1" lengthAdjust="spacing" textLength="14.7" x="76.1773" y="270.2198">has</text><text fill="#000000" font-family="sans-serif" font-size="9.1" lengthAdjust="spacing" textLength="4.9" x="60.97" y="282.808">1</text><text fill="#000000" font-family="sans-serif" font-size="9.1" lengthAdjust="spacing" textLength="3.5" x="75.9638" y="257.6908">*</text><polygon fill="#181818" points="70.5868,377.9882,76.7088,374.8179,72.7732,375.2551,72.3359,371.3196,70.5868,377.9882" style="stroke:#181818;stroke-width:0.6999999999999998;"/><path d="M101.3206,339.571 C91.6621,351.6441 82.8632,362.6427 73.2105,374.7085 " fill="none" style="stroke:#181818;stroke-width:0.6999999999999998;"/><text fill="#000000" font-family="sans-serif" font-size="9.1" lengthAdjust="spacing" textLength="14.7" x="91.5773" y="362.6198">has</text><text fill="#000000" font-family="sans-serif" font-size="9.1" lengthAdjust="spacing" textLength="4.9" x="64.9868" y="375.208">1</text><text fill="#000000" font-family="sans-serif" font-size="9.1" lengthAdjust="spacing" textLength="3.5" x="97.1206" y="350.0908">*</text><polygon fill="#181818" points="51.1313,241.5667,44.3468,242.792,48.2365,243.534,47.4945,247.4237,51.1313,241.5667" style="stroke:#181818;stroke-width:0.6999999999999998;"/><path d="M47.6575,243.9275 C31.7321,254.7505 18.4245,267.2382 9.6773,285.6 C-4.8565,316.1091 12.9876,353.3317 29.2379,377.8552 " fill="none" style="stroke:#181818;stroke-width:0.6999999999999998;"/><text fill="#000000" font-family="sans-serif" font-size="9.1" lengthAdjust="spacing" textLength="14.7" x="10.3773" y="316.4198">has</text><text fill="#000000" font-family="sans-serif" font-size="9.1" lengthAdjust="spacing" textLength="3.5" x="25.0379" y="375.075">*</text><text fill="#000000" font-family="sans-serif" font-size="9.1" lengthAdjust="spacing" textLength="4.9" x="45.5313" y="238.7866">1</text><polygon fill="#181818" points="312.344,247.171,307.3415,251.9149,311.0014,250.4032,312.5131,254.0631,312.344,247.171" style="stroke:#181818;stroke-width:0.6999999999999998;"/><path d="M310.7329,251.0497 C305.7179,263.1228 301.3981,273.5223 296.3861,285.5882 " fill="none" style="stroke:#181818;stroke-width:0.6999999999999998;"/><text fill="#000000" font-family="sans-serif" font-size="9.1" lengthAdjust="spacing" textLength="14.7" x="307.8773" y="270.2198">has</text><text fill="#000000" font-family="sans-serif" font-size="9.1" lengthAdjust="spacing" textLength="14" x="281.6861" y="282.808">1..*</text><text fill="#000000" font-family="sans-serif" font-size="9.1" lengthAdjust="spacing" textLength="4.9" x="306.744" y="257.6908">1</text><polygon fill="#181818" points="325.3504,247.171,322.9755,253.6432,325.5831,250.6632,328.5631,253.2709,325.3504,247.171" style="stroke:#181818;stroke-width:0.6999999999999998;"/><path d="M325.6297,251.3617 C325.9088,255.5507 325.8853,255.6472 326.0773,259.7 C328.3007,306.6344 329.0235,318.4206 328.1773,365.4 C328.1044,369.4488 327.9888,373.7339 327.8544,377.922 " fill="none" style="stroke:#181818;stroke-width:0.6999999999999998;"/><text fill="#000000" font-family="sans-serif" font-size="9.1" lengthAdjust="spacing" textLength="14.7" x="329.5773" y="316.4198">has</text><text fill="#000000" font-family="sans-serif" font-size="9.1" lengthAdjust="spacing" textLength="3.5" x="328.5544" y="375.1418">*</text><text fill="#000000" font-family="sans-serif" font-size="9.1" lengthAdjust="spacing" textLength="4.9" x="326.0504" y="257.6908">1</text><polygon fill="#181818" points="314.8585,377.9882,314.8046,371.0942,313.412,374.8011,309.7052,373.4085,314.8585,377.9882" style="stroke:#181818;stroke-width:0.6999999999999998;"/><path d="M297.423,339.571 C302.9023,351.6441 307.6467,362.0978 313.1228,374.1636 " fill="none" style="stroke:#181818;stroke-width:0.6999999999999998;"/><text fill="#000000" font-family="sans-serif" font-size="9.1" lengthAdjust="spacing" textLength="14.7" x="309.9773" y="362.6198">has</text><text fill="#000000" font-family="sans-serif" font-size="9.1" lengthAdjust="spacing" textLength="4.9" x="309.2585" y="375.208">1</text><text fill="#000000" font-family="sans-serif" font-size="9.1" lengthAdjust="spacing" textLength="3.5" x="293.223" y="350.0908">*</text><polygon fill="#181818" points="222.0796,247.2686,218.1145,252.9085,221.403,250.7026,223.6089,253.9911,222.0796,247.2686" style="stroke:#181818;stroke-width:0.6999999999999998;"/><path d="M221.2677,251.3894 C215.3869,281.2375 204.3494,326.5888 184.6773,365.4 C182.5708,369.556 180.0836,373.7872 177.4898,377.8543 " fill="none" style="stroke:#181818;stroke-width:0.6999999999999998;"/><text fill="#000000" font-family="sans-serif" font-size="9.1" lengthAdjust="spacing" textLength="14.7" x="214.0773" y="316.4198">has</text><text fill="#000000" font-family="sans-serif" font-size="9.1" lengthAdjust="spacing" textLength="3.5" x="173.2898" y="375.0741">*</text><text fill="#000000" font-family="sans-serif" font-size="9.1" lengthAdjust="spacing" textLength="4.9" x="216.4796" y="257.7885">1</text><polygon fill="#181818" points="132.7033,339.571,132.3975,346.4584,133.9815,342.8292,137.6107,344.4132,132.7033,339.571" style="stroke:#181818;stroke-width:0.6999999999999998;"/><path d="M134.2371,343.4809 C138.9735,355.554 143.0411,365.9223 147.7746,377.9882 " fill="none" style="stroke:#181818;stroke-width:0.6999999999999998;"/><text fill="#000000" font-family="sans-serif" font-size="9.1" lengthAdjust="spacing" textLength="14.7" x="143.3773" y="362.6198">has</text><text fill="#000000" font-family="sans-serif" font-size="9.1" lengthAdjust="spacing" textLength="3.5" x="143.5746" y="375.208">*</text><text fill="#000000" font-family="sans-serif" font-size="9.1" lengthAdjust="spacing" textLength="4.9" x="127.1033" y="350.0908">1</text><polygon fill="#181818" points="54.794,339.7059,52.3211,346.1413,54.9736,343.2013,57.9137,345.8539,54.794,339.7059" style="stroke:#181818;stroke-width:0.6999999999999998;"/><path d="M55.0096,343.9004 C55.4693,352.8428 57.3231,358.1842 62.8773,365.4 C72.428,377.8078 81.2496,372.1593 95.7773,378 C107.9739,382.9034 121.423,388.5408 132.6943,393.3313 " fill="none" style="stroke:#181818;stroke-width:0.6999999999999998;"/><text fill="#000000" font-family="sans-serif" font-size="9.1" lengthAdjust="spacing" textLength="14.7" x="63.5773" y="362.6198">has</text><text fill="#000000" font-family="sans-serif" font-size="9.1" lengthAdjust="spacing" textLength="3.5" x="128.4943" y="390.5511">*</text><text fill="#000000" font-family="sans-serif" font-size="9.1" lengthAdjust="spacing" textLength="4.9" x="49.194" y="350.2257">1</text><polygon fill="#181818" points="124.9864,247.24,127.7624,253.5506,127.5754,249.5952,131.5308,249.4082,124.9864,247.24" style="stroke:#181818;stroke-width:0.6999999999999998;"/><path d="M128.0932,250.0663 C139.7229,260.6459 148.3248,270.9818 155.2773,285.6 C169.1716,314.8135 167.0768,352.8207 163.3787,377.848 " fill="none" style="stroke:#181818;stroke-width:0.6999999999999998;"/><text fill="#000000" font-family="sans-serif" font-size="9.1" lengthAdjust="spacing" textLength="14.7" x="167.1773" y="316.4198">has</text><text fill="#000000" font-family="sans-serif" font-size="9.1" lengthAdjust="spacing" textLength="3.5" x="159.1787" y="375.0679">*</text><text fill="#000000" font-family="sans-serif" font-size="9.1" lengthAdjust="spacing" textLength="4.9" x="125.6864" y="257.7598">1</text><!--SRC=[ZPBTQeGm48NlynJJt1GAIlUsIA2m2osqD_rvWC4D6bQJnSGjKlhkZLfn_6dSo-5ySp8p9pVd2hCIeS36r0viAHrgP8ob1LeBJwQsCaaEsYdN294aRyOu8Rv__dHVbW5vBoygbPl0HtCEGUzIMrC5WCVKrUYkGZQU6h1NSvJ5vaXNpRsmggRKfrOkOF9YibMLQUCay0EcEM2MLJ93NoiBHXSDdBJvqk0Ck5o23zQgeuIBmhPM5JplRstC0IsqBZvjrWKDVCSXYIBWzt5ynxjquQ4rLHe4wyePqWT8e37H4QLSxXyTgBbPVx25sHmRGYBWcCS8xwQU_SCKz6eKYQwX3M76J7GIvQeLsNGDfRzlFY3P9WGJadeJVZBm6hkyfs_m_skn-3zoTwHmxs9cYlm2]--></g></svg>