<?xml version="1.0" encoding="us-ascii" standalone="no"?><svg xmlns="http://www.w3.org/2000/svg" xmlns:xlink="http://www.w3.org/1999/xlink" contentStyleType="text/css" height="554px" preserveAspectRatio="none" style="width:457px;height:554px;background:#FFFFFF;" version="1.1" viewBox="0 0 457 554" width="457px" zoomAndPan="magnify"><defs/><g><!--cluster SmartHome--><g id="cluster_SmartHome"><rect fill="none" height="437" rx="2.5" ry="2.5" style="stroke:#181818;stroke-width:1.0;" width="438" x="13" y="111"/><rect fill="none" height="10" style="stroke:#181818;stroke-width:1.0;" width="15" x="431" y="116"/><rect fill="none" height="2" style="stroke:#181818;stroke-width:1.0;" width="4" x="429" y="118"/><rect fill="none" height="2" style="stroke:#181818;stroke-width:1.0;" width="4" x="429" y="122"/><text fill="#000000" font-family="sans-serif" font-size="14" font-style="italic" lengthAdjust="spacing" textLength="92" x="186" y="139.1074">&#171;system (C4)&#187;</text><text fill="#000000" font-family="sans-serif" font-size="14" font-weight="bold" lengthAdjust="spacing" textLength="80" x="192" y="157.7285">SmartHome</text></g><!--cluster Backend--><g id="cluster_Backend"><rect fill="none" height="244.5" rx="2.5" ry="2.5" style="stroke:#181818;stroke-width:1.0;" width="156" x="201" y="287.5"/><rect fill="none" height="10" style="stroke:#181818;stroke-width:1.0;" width="15" x="337" y="292.5"/><rect fill="none" height="2" style="stroke:#181818;stroke-width:1.0;" width="4" x="335" y="294.5"/><rect fill="none" height="2" style="stroke:#181818;stroke-width:1.0;" width="4" x="335" y="298.5"/><text fill="#000000" font-family="sans-serif" font-size="14" font-weight="bold" lengthAdjust="spacing" textLength="61" x="248.5" y="315.6074">Backend</text></g><!--cluster CLI--><g id="cluster_CLI"><rect fill="none" height="117" rx="2.5" ry="2.5" style="stroke:#181818;stroke-width:1.0;" width="64" x="371" y="197"/><rect fill="none" height="10" style="stroke:#181818;stroke-width:1.0;" width="15" x="415" y="202"/><rect fill="none" height="2" style="stroke:#181818;stroke-width:1.0;" width="4" x="413" y="204"/><rect fill="none" height="2" style="stroke:#181818;stroke-width:1.0;" width="4" x="413" y="208"/><text fill="#000000" font-family="sans-serif" font-size="14" font-weight="bold" lengthAdjust="spacing" textLength="22" x="392" y="225.1074">CLI</text></g><!--cluster Rest--><g id="cluster_Rest"><rect fill="none" height="117" rx="2.5" ry="2.5" style="stroke:#181818;stroke-width:1.0;" width="80" x="42" y="197"/><rect fill="none" height="10" style="stroke:#181818;stroke-width:1.0;" width="15" x="102" y="202"/><rect fill="none" height="2" style="stroke:#181818;stroke-width:1.0;" width="4" x="100" y="204"/><rect fill="none" height="2" style="stroke:#181818;stroke-width:1.0;" width="4" x="100" y="208"/><text fill="#000000" font-family="sans-serif" font-size="14" font-weight="bold" lengthAdjust="spacing" textLength="32" x="66" y="225.1074">Rest</text></g><text fill="#000000" font-family="sans-serif" font-size="14" lengthAdjust="spacing" textLength="16" x="23" y="89.4863">p1</text><rect fill="#F1F1F1" height="12" style="stroke:#181818;stroke-width:1.5;" width="12" x="25" y="105"/><text fill="#000000" font-family="sans-serif" font-size="14" lengthAdjust="spacing" textLength="16" x="292" y="265.9863">p2</text><rect fill="#F1F1F1" height="12" style="stroke:#181818;stroke-width:1.5;" width="12" x="294" y="281.5"/><text fill="#000000" font-family="sans-serif" font-size="14" lengthAdjust="spacing" textLength="16" x="211" y="265.9863">p3</text><rect fill="#F1F1F1" height="12" style="stroke:#181818;stroke-width:1.5;" width="12" x="213" y="281.5"/><!--entity Database--><g id="elem_Database"><rect fill="#F1F1F1" height="48.6211" rx="2.5" ry="2.5" style="stroke:#181818;stroke-width:0.5;" width="101" x="239.5" y="467"/><rect fill="#F1F1F1" height="10" style="stroke:#181818;stroke-width:0.5;" width="15" x="320.5" y="472"/><rect fill="#F1F1F1" height="2" style="stroke:#181818;stroke-width:0.5;" width="4" x="318.5" y="474"/><rect fill="#F1F1F1" height="2" style="stroke:#181818;stroke-width:0.5;" width="4" x="318.5" y="478"/><text fill="#000000" font-family="sans-serif" font-size="14" lengthAdjust="spacing" textLength="61" x="254.5" y="502.1074">Database</text></g><!--entity Server--><g id="elem_Server"><rect fill="#F1F1F1" height="48.6211" rx="2.5" ry="2.5" style="stroke:#181818;stroke-width:0.5;" width="82" x="259" y="358"/><rect fill="#F1F1F1" height="10" style="stroke:#181818;stroke-width:0.5;" width="15" x="321" y="363"/><rect fill="#F1F1F1" height="2" style="stroke:#181818;stroke-width:0.5;" width="4" x="319" y="365"/><rect fill="#F1F1F1" height="2" style="stroke:#181818;stroke-width:0.5;" width="4" x="319" y="369"/><text fill="#000000" font-family="sans-serif" font-size="14" lengthAdjust="spacing" textLength="42" x="274" y="393.1074">Server</text></g><text fill="#000000" font-family="sans-serif" font-size="14" lengthAdjust="spacing" textLength="16" x="381" y="175.4863">p4</text><rect fill="#F1F1F1" height="12" style="stroke:#181818;stroke-width:1.5;" width="12" x="383" y="191"/><text fill="#000000" font-family="sans-serif" font-size="14" lengthAdjust="spacing" textLength="16" x="74" y="175.4863">p5</text><rect fill="#F1F1F1" height="12" style="stroke:#181818;stroke-width:1.5;" width="12" x="76" y="191"/><!--entity APIRest--><g id="elem_APIRest"><ellipse cx="31" cy="14" fill="#F1F1F1" rx="8" ry="8" style="stroke:#181818;stroke-width:0.5;"/><text fill="#000000" font-family="sans-serif" font-size="14" lengthAdjust="spacing" textLength="50" x="6" y="46.1074">APIRest</text></g><!--link p5 to p1--><g id="link_p5_p1"><path d="M80.55,190.85 C78.87,185.28 75.85,176.24 72,169 C61,148.34 43.44,126.61 35.34,117.03 " fill="none" id="p5-p1" style="stroke:#181818;stroke-width:1.0;"/></g><!--link p5 to p3--><g id="link_p5_p3"><path d="M88.24,202.03 C111.07,216.78 189.84,267.66 212.72,282.44 " fill="none" id="p5-p3" style="stroke:#181818;stroke-width:1.0;"/><path d="M148.3583,232.4474 A10,10 0 0 0 140.6849 244.3267" fill="none" style="stroke:#181818;stroke-width:1.5;"/><ellipse cx="150.4612" cy="242.2238" fill="#FFFFFF" rx="6" ry="6" style="stroke:#181818;stroke-width:1.5;"/></g><!--link p4 to p2--><g id="link_p4_p2"><path d="M383.96,203.01 C368.37,218.52 321.02,265.6 305.21,281.32 " fill="none" id="p4-p2" style="stroke:#181818;stroke-width:1.0;"/><path d="M354.6675,242.1145 A10,10 0 0 0 344.6957 232.0863" fill="none" style="stroke:#181818;stroke-width:1.5;"/><ellipse cx="344.6675" cy="242.0863" fill="#FFFFFF" rx="6" ry="6" style="stroke:#181818;stroke-width:1.5;"/></g><!--link APIRest to p1--><g id="link_APIRest_p1"><path d="M31,23.1 C31,42.12 31,89.23 31,104.87 " fill="none" id="APIRest-p1" style="stroke:#181818;stroke-width:1.0;"/></g><!--link Server to Database--><g id="link_Server_Database"><path d="M297.78,407.25 C296.12,424.98 293.87,449.1 292.21,466.82 " fill="none" id="Server-Database" style="stroke:#181818;stroke-width:1.0;"/><path d="M287.2967,443.4213 A10,10 0 0 0 301.3775 444.737" fill="none" style="stroke:#181818;stroke-width:1.5;"/><ellipse cx="294.995" cy="437.0388" fill="#FFFFFF" rx="6" ry="6" style="stroke:#181818;stroke-width:1.5;"/></g><!--link Server to p2--><g id="link_Server_p2"><path d="M300,357.93 C300,336.15 300,305.42 300,293.5 " fill="none" id="Server-p2" style="stroke:#181818;stroke-width:1.0;"/></g><!--link Server to p3--><g id="link_Server_p3"><path d="M279.47,357.93 C260.5,336.15 233.74,305.42 223.35,293.5 " fill="none" id="Server-p3" style="stroke:#181818;stroke-width:1.0;"/></g><!--SRC=[RO_F2i8m3CRlUOhSt0vrK-T5ni0_1mSUH9-WRaN5TGjj54HyTrUT5eQ5qdp9BydNmOcPx2oAg98rNtKrB1eTjPUQMjKiohCy6gdXby6zbeRNZLQOflPkMMaCbacOPVW0R0yrXf56y1Q-RI6BYwhB3lBWkASdF-rxLvBbGLhrfxHNvgRCk_3ihrnkylwsv3-vKvRxwBH3MnXeYiBzoRr1B9nBeAIBnq0Z55SIED_cRXB0nnMAE1JU_3VfEdmyWHS0]--></g></svg>