<?xml version="1.0" encoding="us-ascii" standalone="no"?><svg xmlns="http://www.w3.org/2000/svg" xmlns:xlink="http://www.w3.org/1999/xlink" contentStyleType="text/css" height="501px" preserveAspectRatio="none" style="width:1949px;height:501px;background:#FFFFFF;" version="1.1" viewBox="0 0 1949 501" width="1949px" zoomAndPan="magnify"><defs/><g><rect fill="#FFFFFF" height="325.9102" style="stroke:#181818;stroke-width:1.0;" width="10" x="661" y="120.1641"/><rect fill="#FFFFFF" height="93.873" style="stroke:#181818;stroke-width:1.0;" width="10" x="1277" y="151.4551"/><rect fill="#FFFFFF" height="93.873" style="stroke:#181818;stroke-width:1.0;" width="10" x="1277" y="276.6191"/><rect fill="#FFFFFF" height="31.291" style="stroke:#181818;stroke-width:1.0;" width="10" x="1836" y="182.7461"/><rect fill="#FFFFFF" height="31.291" style="stroke:#181818;stroke-width:1.0;" width="10" x="1836" y="307.9102"/><line style="stroke:#181818;stroke-width:0.5;stroke-dasharray:5.0,5.0;" x1="14" x2="14" y1="38.6211" y2="464.0742"/><line style="stroke:#181818;stroke-width:0.5;stroke-dasharray:5.0,5.0;" x1="666" x2="666" y1="38.6211" y2="464.0742"/><line style="stroke:#181818;stroke-width:0.5;stroke-dasharray:5.0,5.0;" x1="1281.5" x2="1281.5" y1="38.6211" y2="464.0742"/><line style="stroke:#181818;stroke-width:0.5;stroke-dasharray:5.0,5.0;" x1="1840.5" x2="1840.5" y1="38.6211" y2="464.0742"/><rect fill="#E2E2F0" height="32.6211" rx="2.5" ry="2.5" style="stroke:#181818;stroke-width:0.5;" width="18" x="5" y="5"/><text fill="#000000" font-family="sans-serif" font-size="14" lengthAdjust="spacing" textLength="4" x="12" y="27.1074">&#160;</text><rect fill="#E2E2F0" height="32.6211" rx="2.5" ry="2.5" style="stroke:#181818;stroke-width:0.5;" width="18" x="5" y="463.0742"/><text fill="#000000" font-family="sans-serif" font-size="14" lengthAdjust="spacing" textLength="4" x="12" y="485.1816">&#160;</text><rect fill="#E2E2F0" height="32.6211" rx="2.5" ry="2.5" style="stroke:#181818;stroke-width:0.5;" width="410" x="461" y="5"/><text fill="#000000" font-family="sans-serif" font-size="14" lengthAdjust="spacing" textLength="396" x="468" y="27.1074">:GetMaxInstantaneousTempDifBetweenRoomAndOutsideCTRL</text><rect fill="#E2E2F0" height="32.6211" rx="2.5" ry="2.5" style="stroke:#181818;stroke-width:0.5;" width="410" x="461" y="463.0742"/><text fill="#000000" font-family="sans-serif" font-size="14" lengthAdjust="spacing" textLength="396" x="468" y="485.1816">:GetMaxInstantaneousTempDifBetweenRoomAndOutsideCTRL</text><rect fill="#E2E2F0" height="32.6211" rx="2.5" ry="2.5" style="stroke:#181818;stroke-width:0.5;" width="163" x="1200.5" y="5"/><text fill="#000000" font-family="sans-serif" font-size="14" lengthAdjust="spacing" textLength="149" x="1207.5" y="27.1074">logService : LogService</text><rect fill="#E2E2F0" height="32.6211" rx="2.5" ry="2.5" style="stroke:#181818;stroke-width:0.5;" width="163" x="1200.5" y="463.0742"/><text fill="#000000" font-family="sans-serif" font-size="14" lengthAdjust="spacing" textLength="149" x="1207.5" y="485.1816">logService : LogService</text><rect fill="#E2E2F0" height="32.6211" rx="2.5" ry="2.5" style="stroke:#181818;stroke-width:0.5;" width="205" x="1738.5" y="5"/><text fill="#000000" font-family="sans-serif" font-size="14" lengthAdjust="spacing" textLength="191" x="1745.5" y="27.1074">logRepository : LogRepository</text><rect fill="#E2E2F0" height="32.6211" rx="2.5" ry="2.5" style="stroke:#181818;stroke-width:0.5;" width="205" x="1738.5" y="463.0742"/><text fill="#000000" font-family="sans-serif" font-size="14" lengthAdjust="spacing" textLength="191" x="1745.5" y="485.1816">logRepository : LogRepository</text><rect fill="#FFFFFF" height="325.9102" style="stroke:#181818;stroke-width:1.0;" width="10" x="661" y="120.1641"/><rect fill="#FFFFFF" height="93.873" style="stroke:#181818;stroke-width:1.0;" width="10" x="1277" y="151.4551"/><rect fill="#FFFFFF" height="93.873" style="stroke:#181818;stroke-width:1.0;" width="10" x="1277" y="276.6191"/><rect fill="#FFFFFF" height="31.291" style="stroke:#181818;stroke-width:1.0;" width="10" x="1836" y="182.7461"/><rect fill="#FFFFFF" height="31.291" style="stroke:#181818;stroke-width:1.0;" width="10" x="1836" y="307.9102"/><rect fill="none" height="43.252" style="stroke:#000000;stroke-width:1.5;" width="872" x="2" y="48.6211"/><path d="M2,48.6211 L64,48.6211 L64,57.6211 L54,67.6211 L2,67.6211 L2,48.6211 " fill="#EEEEEE" style="stroke:#000000;stroke-width:2.0;"/><text fill="#000000" font-family="sans-serif" font-size="13" font-weight="bold" lengthAdjust="spacing" textLength="17" x="15" y="64.6494">ref</text><text fill="#000000" font-family="sans-serif" font-size="12" lengthAdjust="spacing" textLength="268" x="304" y="84.5703">getDevicesByRoomAndTemperatureFunctionality</text><polygon fill="#181818" points="649,116.1641,659,120.1641,649,124.1641,653,120.1641" style="stroke:#181818;stroke-width:1.0;"/><line style="stroke:#181818;stroke-width:1.0;" x1="14" x2="655" y1="120.1641" y2="120.1641"/><text fill="#000000" font-family="sans-serif" font-size="13" font-weight="bold" lengthAdjust="spacing" textLength="7" x="21" y="114.9014">1</text><text fill="#000000" font-family="sans-serif" font-size="13" lengthAdjust="spacing" textLength="617" x="32" y="114.9014">getMaxInstTempDiffBetweenDeviceAndOutside (outsideDeviceDTO, insideDeviceDTO, initialTime, endTime)</text><polygon fill="#181818" points="1265,147.4551,1275,151.4551,1265,155.4551,1269,151.4551" style="stroke:#181818;stroke-width:1.0;"/><line style="stroke:#181818;stroke-width:1.0;" x1="671" x2="1271" y1="151.4551" y2="151.4551"/><text fill="#000000" font-family="sans-serif" font-size="13" font-weight="bold" lengthAdjust="spacing" textLength="7" x="678" y="146.1924">2</text><text fill="#000000" font-family="sans-serif" font-size="13" lengthAdjust="spacing" textLength="365" x="689" y="146.1924">getDeviceReadingsByTimePeriod (outsideDeviceID, datePeriod)</text><polygon fill="#181818" points="1824,178.7461,1834,182.7461,1824,186.7461,1828,182.7461" style="stroke:#181818;stroke-width:1.0;"/><line style="stroke:#181818;stroke-width:1.0;" x1="1287" x2="1830" y1="182.7461" y2="182.7461"/><text fill="#000000" font-family="sans-serif" font-size="13" font-weight="bold" lengthAdjust="spacing" textLength="7" x="1294" y="177.4834">3</text><text fill="#000000" font-family="sans-serif" font-size="13" lengthAdjust="spacing" textLength="348" x="1305" y="177.4834">findByDeviceIDAndTimePeriod (outsideDeviceID, datePeriod)</text><polygon fill="#181818" points="1298,210.0371,1288,214.0371,1298,218.0371,1294,214.0371" style="stroke:#181818;stroke-width:1.0;"/><line style="stroke:#181818;stroke-width:1.0;stroke-dasharray:2.0,2.0;" x1="1292" x2="1840" y1="214.0371" y2="214.0371"/><text fill="#000000" font-family="sans-serif" font-size="13" font-weight="bold" lengthAdjust="spacing" textLength="7" x="1304" y="208.7744">4</text><text fill="#000000" font-family="sans-serif" font-size="13" lengthAdjust="spacing" textLength="168" x="1315" y="208.7744">outsideTemperatureReadings</text><polygon fill="#181818" points="682,241.3281,672,245.3281,682,249.3281,678,245.3281" style="stroke:#181818;stroke-width:1.0;"/><line style="stroke:#181818;stroke-width:1.0;stroke-dasharray:2.0,2.0;" x1="676" x2="1281" y1="245.3281" y2="245.3281"/><text fill="#000000" font-family="sans-serif" font-size="13" font-weight="bold" lengthAdjust="spacing" textLength="7" x="688" y="240.0654">5</text><text fill="#000000" font-family="sans-serif" font-size="13" lengthAdjust="spacing" textLength="168" x="699" y="240.0654">outsideTemperatureReadings</text><polygon fill="#181818" points="1265,272.6191,1275,276.6191,1265,280.6191,1269,276.6191" style="stroke:#181818;stroke-width:1.0;"/><line style="stroke:#181818;stroke-width:1.0;" x1="671" x2="1271" y1="276.6191" y2="276.6191"/><text fill="#000000" font-family="sans-serif" font-size="13" font-weight="bold" lengthAdjust="spacing" textLength="7" x="678" y="271.3564">6</text><text fill="#000000" font-family="sans-serif" font-size="13" lengthAdjust="spacing" textLength="444" x="689" y="271.3564">getDeviceReadingsByTimePeriod (insideDeviceID, sensorTypeID, datePeriod)</text><polygon fill="#181818" points="1824,303.9102,1834,307.9102,1824,311.9102,1828,307.9102" style="stroke:#181818;stroke-width:1.0;"/><line style="stroke:#181818;stroke-width:1.0;" x1="1287" x2="1830" y1="307.9102" y2="307.9102"/><text fill="#000000" font-family="sans-serif" font-size="13" font-weight="bold" lengthAdjust="spacing" textLength="7" x="1294" y="302.6475">7</text><text fill="#000000" font-family="sans-serif" font-size="13" lengthAdjust="spacing" textLength="519" x="1305" y="302.6475">findByDeviceIDAndSensorTypeAndTimePeriod (insideDeviceID, sensorTypeID, datePeriod)</text><polygon fill="#181818" points="1298,335.2012,1288,339.2012,1298,343.2012,1294,339.2012" style="stroke:#181818;stroke-width:1.0;"/><line style="stroke:#181818;stroke-width:1.0;stroke-dasharray:2.0,2.0;" x1="1292" x2="1840" y1="339.2012" y2="339.2012"/><text fill="#000000" font-family="sans-serif" font-size="13" font-weight="bold" lengthAdjust="spacing" textLength="7" x="1304" y="333.9385">8</text><text fill="#000000" font-family="sans-serif" font-size="13" lengthAdjust="spacing" textLength="162" x="1315" y="333.9385">deviceTemperatureReadings</text><polygon fill="#181818" points="682,366.4922,672,370.4922,682,374.4922,678,370.4922" style="stroke:#181818;stroke-width:1.0;"/><line style="stroke:#181818;stroke-width:1.0;stroke-dasharray:2.0,2.0;" x1="676" x2="1281" y1="370.4922" y2="370.4922"/><text fill="#000000" font-family="sans-serif" font-size="13" font-weight="bold" lengthAdjust="spacing" textLength="7" x="688" y="365.2295">9</text><text fill="#000000" font-family="sans-serif" font-size="13" lengthAdjust="spacing" textLength="162" x="699" y="365.2295">deviceTemperatureReadings</text><line style="stroke:#181818;stroke-width:1.0;" x1="671" x2="713" y1="401.7832" y2="401.7832"/><line style="stroke:#181818;stroke-width:1.0;" x1="713" x2="713" y1="401.7832" y2="414.7832"/><line style="stroke:#181818;stroke-width:1.0;" x1="672" x2="713" y1="414.7832" y2="414.7832"/><polygon fill="#181818" points="682,410.7832,672,414.7832,682,418.7832,678,414.7832" style="stroke:#181818;stroke-width:1.0;"/><text fill="#000000" font-family="sans-serif" font-size="13" font-weight="bold" lengthAdjust="spacing" textLength="14" x="678" y="396.5205">10</text><text fill="#000000" font-family="sans-serif" font-size="13" lengthAdjust="spacing" textLength="574" x="696" y="396.5205">getTempDiffBetweenDeviceAndOutside (outsideTemperatureReadings, deviceTemperatureReadings)</text><polygon fill="#181818" points="25,442.0742,15,446.0742,25,450.0742,21,446.0742" style="stroke:#181818;stroke-width:1.0;"/><line style="stroke:#181818;stroke-width:1.0;stroke-dasharray:2.0,2.0;" x1="19" x2="665" y1="446.0742" y2="446.0742"/><text fill="#000000" font-family="sans-serif" font-size="13" font-weight="bold" lengthAdjust="spacing" textLength="14" x="31" y="440.8115">11</text><text fill="#000000" font-family="sans-serif" font-size="13" lengthAdjust="spacing" textLength="156" x="49" y="440.8115">maxInstantaneousTempDiff</text><!--SRC=[jLJRQi8m6BxFK_ppQa9zWLuCrB8XE1orUu3C_2s1DYb9wjQtNs9FQTNXPAEzo85yHvA7Kj6ie93JMbO6T8662af8IPNX1rvIOM1cFwhXNQCQhQ-bC4hcEIgtFGjVqBpIhutG5iB-A2kTO556F5sX-KGKiPJ5Kh1TPJHdk4xYxMp2bCjiZ-h83mWXRFl9YN-Odfs9iPIQ6wdgvjWmxquEAuJGoaXH5H_M3b6OWZnQ1yvTu5aA8KCJeQFJgxfLxkoWegPI-5o9W-5Iq9mRY-cEm-9f2j3cqSRGvT303ad0esm6pKQKx0BWuco16qxpX1SO05ejTZ2tPgoA8pNeCHFYDMCr3S5vfcAaZ8lCUdD0RwYuP1CTcoW0Pg6RJP_Bgu8CuvPhY3g4b0ksgZkuPQFwzsH-UwCfB2R-MaolgCue8Gn_mEmzJ4gy7R1FvExq_SvT7Xg5bYgfot-fOj-ZJtgvKyRj9R4JzDzrT3FUbOecb_RMstg1CBYkPJvcjRJkpGYXkFnafYFj_kN-1W00]--></g></svg>