<?xml version="1.0" encoding="us-ascii" standalone="no"?><svg xmlns="http://www.w3.org/2000/svg" xmlns:xlink="http://www.w3.org/1999/xlink" contentStyleType="text/css" height="403px" preserveAspectRatio="none" style="width:523px;height:403px;background:#FFFFFF;" version="1.1" viewBox="0 0 523 403" width="523px" zoomAndPan="magnify"><defs/><g><!--class GetMaxInstantaneousTempDifBetweenRoomAndOutsideCTRL--><g id="elem_GetMaxInstantaneousTempDifBetweenRoomAndOutsideCTRL"><rect codeLine="5" fill="#F1F1F1" height="103.8633" id="GetMaxInstantaneousTempDifBetweenRoomAndOutsideCTRL" rx="2.5" ry="2.5" style="stroke:#181818;stroke-width:0.5;" width="510" x="6" y="12"/><ellipse cx="60.75" cy="28" fill="#ADD1B2" rx="11" ry="11" style="stroke:#181818;stroke-width:1.0;"/><path d="M63.5156,23.875 Q63.6719,23.6563 63.8594,23.5469 Q64.0469,23.4375 64.2656,23.4375 Q64.6406,23.4375 64.875,23.7031 Q65.1094,23.9531 65.1094,24.5625 L65.1094,26.0156 Q65.1094,26.625 64.875,26.8906 Q64.6406,27.1563 64.2656,27.1563 Q63.9219,27.1563 63.7188,26.9531 Q63.5156,26.7656 63.4063,26.25 Q63.3594,25.8906 63.1719,25.7031 Q62.8438,25.3281 62.2344,25.1094 Q61.625,24.8906 61,24.8906 Q60.2344,24.8906 59.5938,25.2188 Q58.9688,25.5469 58.4688,26.2969 Q57.9844,27.0469 57.9844,28.0781 L57.9844,29.1719 Q57.9844,30.4063 58.875,31.2344 Q59.7656,32.0469 61.3594,32.0469 Q62.2969,32.0469 62.9531,31.7969 Q63.3438,31.6406 63.7656,31.2031 Q64.0313,30.9375 64.1719,30.8594 Q64.3281,30.7813 64.5313,30.7813 Q64.8594,30.7813 65.1094,31.0469 Q65.375,31.2969 65.375,31.6406 Q65.375,31.9844 65.0313,32.3906 Q64.5313,32.9688 63.7344,33.2969 Q62.6563,33.75 61.3594,33.75 Q59.8438,33.75 58.6406,33.125 Q57.6563,32.625 56.9688,31.5625 Q56.2813,30.4844 56.2813,29.2031 L56.2813,28.0469 Q56.2813,26.7188 56.8906,25.5781 Q57.5156,24.4219 58.6094,23.8125 Q59.7031,23.1875 60.9375,23.1875 Q61.6719,23.1875 62.3125,23.3594 Q62.9688,23.5156 63.5156,23.875 Z " fill="#000000"/><text fill="#000000" font-family="sans-serif" font-size="14" lengthAdjust="spacing" textLength="392" x="81.25" y="33.7969">GetMaxInstantaneousTempDifBetweenRoomAndOutsideCTRL</text><line style="stroke:#181818;stroke-width:0.5;" x1="7" x2="515" y1="44" y2="44"/><rect fill="none" height="6" style="stroke:#C82930;stroke-width:1.0;" width="6" x="14" y="55.8105"/><text fill="#000000" font-family="sans-serif" font-size="14" lengthAdjust="spacing" textLength="145" x="26" y="63.1074">LogService: logService</text><line style="stroke:#181818;stroke-width:0.5;" x1="7" x2="515" y1="70.6211" y2="70.6211"/><ellipse cx="17" cy="85.4316" fill="#84BE84" rx="3" ry="3" style="stroke:#038048;stroke-width:1.0;"/><text fill="#000000" font-family="sans-serif" font-size="14" lengthAdjust="spacing" textLength="424" x="26" y="89.7285">getDevicesByTypeDescription(Map, RoomDTO) : List&lt;DeviceDTO&gt;</text><ellipse cx="17" cy="104.0527" fill="#84BE84" rx="3" ry="3" style="stroke:#038048;stroke-width:1.0;"/><text fill="#000000" font-family="sans-serif" font-size="14" lengthAdjust="spacing" textLength="484" x="26" y="108.3496">getMaxInstTempDiffBetweenDeviceAndOutside(DeviceDTO, DatePeriod) : int</text></g><!--class LogService--><g id="elem_LogService"><rect codeLine="15" fill="#F1F1F1" height="85.2422" id="LogService" rx="2.5" ry="2.5" style="stroke:#181818;stroke-width:0.5;" width="460" x="31" y="171"/><ellipse cx="221.25" cy="187" fill="#ADD1B2" rx="11" ry="11" style="stroke:#181818;stroke-width:1.0;"/><path d="M224.0156,182.875 Q224.1719,182.6563 224.3594,182.5469 Q224.5469,182.4375 224.7656,182.4375 Q225.1406,182.4375 225.375,182.7031 Q225.6094,182.9531 225.6094,183.5625 L225.6094,185.0156 Q225.6094,185.625 225.375,185.8906 Q225.1406,186.1563 224.7656,186.1563 Q224.4219,186.1563 224.2188,185.9531 Q224.0156,185.7656 223.9063,185.25 Q223.8594,184.8906 223.6719,184.7031 Q223.3438,184.3281 222.7344,184.1094 Q222.125,183.8906 221.5,183.8906 Q220.7344,183.8906 220.0938,184.2188 Q219.4688,184.5469 218.9688,185.2969 Q218.4844,186.0469 218.4844,187.0781 L218.4844,188.1719 Q218.4844,189.4063 219.375,190.2344 Q220.2656,191.0469 221.8594,191.0469 Q222.7969,191.0469 223.4531,190.7969 Q223.8438,190.6406 224.2656,190.2031 Q224.5313,189.9375 224.6719,189.8594 Q224.8281,189.7813 225.0313,189.7813 Q225.3594,189.7813 225.6094,190.0469 Q225.875,190.2969 225.875,190.6406 Q225.875,190.9844 225.5313,191.3906 Q225.0313,191.9688 224.2344,192.2969 Q223.1563,192.75 221.8594,192.75 Q220.3438,192.75 219.1406,192.125 Q218.1563,191.625 217.4688,190.5625 Q216.7813,189.4844 216.7813,188.2031 L216.7813,187.0469 Q216.7813,185.7188 217.3906,184.5781 Q218.0156,183.4219 219.1094,182.8125 Q220.2031,182.1875 221.4375,182.1875 Q222.1719,182.1875 222.8125,182.3594 Q223.4688,182.5156 224.0156,182.875 Z " fill="#000000"/><text fill="#000000" font-family="sans-serif" font-size="14" lengthAdjust="spacing" textLength="71" x="241.75" y="192.7969">LogService</text><line style="stroke:#181818;stroke-width:0.5;" x1="32" x2="490" y1="203" y2="203"/><rect fill="none" height="6" style="stroke:#C82930;stroke-width:1.0;" width="6" x="39" y="214.8105"/><text fill="#000000" font-family="sans-serif" font-size="14" lengthAdjust="spacing" textLength="187" x="51" y="222.1074">LogRepository: logRepository</text><line style="stroke:#181818;stroke-width:0.5;" x1="32" x2="490" y1="229.6211" y2="229.6211"/><ellipse cx="42" cy="244.4316" fill="#84BE84" rx="3" ry="3" style="stroke:#038048;stroke-width:1.0;"/><text fill="#000000" font-family="sans-serif" font-size="14" lengthAdjust="spacing" textLength="434" x="51" y="248.7285">getDeviceReadingsByTimePeriod (DeviceID, DatePeriod) : List&lt;Log&gt;</text></g><!--class LogRepository--><g id="elem_LogRepository"><rect codeLine="23" fill="#F1F1F1" height="85.2422" id="LogRepository" rx="2.5" ry="2.5" style="stroke:#181818;stroke-width:0.5;" width="441" x="40.5" y="311"/><ellipse cx="210.75" cy="327" fill="#ADD1B2" rx="11" ry="11" style="stroke:#181818;stroke-width:1.0;"/><path d="M213.5156,322.875 Q213.6719,322.6563 213.8594,322.5469 Q214.0469,322.4375 214.2656,322.4375 Q214.6406,322.4375 214.875,322.7031 Q215.1094,322.9531 215.1094,323.5625 L215.1094,325.0156 Q215.1094,325.625 214.875,325.8906 Q214.6406,326.1563 214.2656,326.1563 Q213.9219,326.1563 213.7188,325.9531 Q213.5156,325.7656 213.4063,325.25 Q213.3594,324.8906 213.1719,324.7031 Q212.8438,324.3281 212.2344,324.1094 Q211.625,323.8906 211,323.8906 Q210.2344,323.8906 209.5938,324.2188 Q208.9688,324.5469 208.4688,325.2969 Q207.9844,326.0469 207.9844,327.0781 L207.9844,328.1719 Q207.9844,329.4063 208.875,330.2344 Q209.7656,331.0469 211.3594,331.0469 Q212.2969,331.0469 212.9531,330.7969 Q213.3438,330.6406 213.7656,330.2031 Q214.0313,329.9375 214.1719,329.8594 Q214.3281,329.7813 214.5313,329.7813 Q214.8594,329.7813 215.1094,330.0469 Q215.375,330.2969 215.375,330.6406 Q215.375,330.9844 215.0313,331.3906 Q214.5313,331.9688 213.7344,332.2969 Q212.6563,332.75 211.3594,332.75 Q209.8438,332.75 208.6406,332.125 Q207.6563,331.625 206.9688,330.5625 Q206.2813,329.4844 206.2813,328.2031 L206.2813,327.0469 Q206.2813,325.7188 206.8906,324.5781 Q207.5156,323.4219 208.6094,322.8125 Q209.7031,322.1875 210.9375,322.1875 Q211.6719,322.1875 212.3125,322.3594 Q212.9688,322.5156 213.5156,322.875 Z " fill="#000000"/><text fill="#000000" font-family="sans-serif" font-size="14" lengthAdjust="spacing" textLength="92" x="231.25" y="332.7969">LogRepository</text><line style="stroke:#181818;stroke-width:0.5;" x1="41.5" x2="480.5" y1="343" y2="343"/><rect fill="none" height="6" style="stroke:#C82930;stroke-width:1.0;" width="6" x="48.5" y="354.8105"/><text fill="#000000" font-family="sans-serif" font-size="14" lengthAdjust="spacing" textLength="169" x="60.5" y="362.1074">Map&lt;LogID, Log&gt;: logData</text><line style="stroke:#181818;stroke-width:0.5;" x1="41.5" x2="480.5" y1="369.6211" y2="369.6211"/><ellipse cx="51.5" cy="384.4316" fill="#84BE84" rx="3" ry="3" style="stroke:#038048;stroke-width:1.0;"/><text fill="#000000" font-family="sans-serif" font-size="14" lengthAdjust="spacing" textLength="415" x="60.5" y="388.7285">findByDeviceIDAndTimePeriod (DeviceID, DatePeriod) : List&lt;Log&gt;</text></g><polygon fill="#181818" points="261,170.687,265,161.687,261,165.687,257,161.687,261,170.687" style="stroke:#181818;stroke-width:1.0;"/><path d="M261,116.1744 C261,133.9805 261,147.7297 261,164.687 " fill="none" style="stroke:#181818;stroke-width:1.0;stroke-dasharray:7.0,7.0;"/><text fill="#000000" font-family="sans-serif" font-size="13" lengthAdjust="spacing" textLength="30" x="262" y="149.0283">Uses</text><text fill="#000000" font-family="sans-serif" font-size="13" lengthAdjust="spacing" textLength="7" x="253" y="166.7153">1</text><text fill="#000000" font-family="sans-serif" font-size="13" lengthAdjust="spacing" textLength="7" x="253" y="131.2027">1</text><polygon fill="#181818" points="261,310.863,265,301.863,261,305.863,257,301.863,261,310.863" style="stroke:#181818;stroke-width:1.0;"/><path d="M261,256.279 C261,273.573 261,287.5839 261,304.863 " fill="none" style="stroke:#181818;stroke-width:1.0;stroke-dasharray:7.0,7.0;"/><text fill="#000000" font-family="sans-serif" font-size="13" lengthAdjust="spacing" textLength="30" x="262" y="289.0283">Uses</text><text fill="#000000" font-family="sans-serif" font-size="13" lengthAdjust="spacing" textLength="7" x="253" y="306.8913">1</text><text fill="#000000" font-family="sans-serif" font-size="13" lengthAdjust="spacing" textLength="7" x="253" y="271.3074">1</text><!--SRC=[dPBTIiD048NlzodMtgHYV_0sIA4r88MMIemFi6QdwKBsXyn43UAxkvkc9gtUA0GsEvoPyvrXemEHmtW-TwKmLEjobbizpqk1E9LA59NGxCfLej22bwAnDN7KGC88nbWhumz0M_6-DkYh_WDROmRQ9Mg_0de3CAcrUcdahYPK4kwpTCC_MBIaIhtK11YnAT_OuWcgLvL3pCllVyQYBT31IgzXDxm0IY3KSTLaZOC4CA-K8sNDU2lSX0UZ9DjTyvXl5DBTKUqhYsDtXzdHdV2EgXvm_DqsuOaWU8HAMHc6AaFiynIxH_ujJGhEeY9RDMsW_ZhCD8YKWf3A526PqfqbxqZMoIL8cywxBCvmUfCVH7uzGHycXRQMoOyKvpHxPUIgEPdwZVoD9S3yvp6CRaTyDbkqvs2hCNz6G3QeN0W7UJij-m80]--></g></svg>