<?xml version="1.0" encoding="us-ascii" standalone="no"?><svg xmlns="http://www.w3.org/2000/svg" xmlns:xlink="http://www.w3.org/1999/xlink" contentStyleType="text/css" height="660px" preserveAspectRatio="none" style="width:1461px;height:660px;background:#FFFFFF;" version="1.1" viewBox="0 0 1461 660" width="1461px" zoomAndPan="magnify"><defs/><g><rect fill="#FFFFFF" height="443.7734" style="stroke:#181818;stroke-width:1.0;" width="10" x="229" y="161.0762"/><rect fill="#FFFFFF" height="33.6211" style="stroke:#181818;stroke-width:1.0;" width="10" x="470" y="202.3672"/><rect fill="#FFFFFF" height="33.6211" style="stroke:#181818;stroke-width:1.0;" width="10" x="608.5" y="277.2793"/><rect fill="#FFFFFF" height="93.873" style="stroke:#181818;stroke-width:1.0;" width="10" x="727" y="342.1914"/><rect fill="#FFFFFF" height="31.291" style="stroke:#181818;stroke-width:1.0;" width="10" x="1087" y="373.4824"/><rect fill="#FFFFFF" height="106.2031" style="stroke:#181818;stroke-width:1.0;" width="10" x="1206" y="467.3555"/><rect fill="#FFFFFF" height="33.6211" style="stroke:#181818;stroke-width:1.0;" width="10" x="1389.5" y="508.6465"/><line style="stroke:#181818;stroke-width:0.5;stroke-dasharray:5.0,5.0;" x1="14" x2="14" y1="38.6211" y2="622.8496"/><line style="stroke:#181818;stroke-width:0.5;stroke-dasharray:5.0,5.0;" x1="233.5" x2="233.5" y1="38.6211" y2="622.8496"/><line style="stroke:#181818;stroke-width:0.5;stroke-dasharray:5.0,5.0;" x1="474.5" x2="474.5" y1="200.8867" y2="622.8496"/><line style="stroke:#181818;stroke-width:0.5;stroke-dasharray:5.0,5.0;" x1="613.5" x2="613.5" y1="275.7988" y2="622.8496"/><line style="stroke:#181818;stroke-width:0.5;stroke-dasharray:5.0,5.0;" x1="731.5" x2="731.5" y1="38.6211" y2="622.8496"/><line style="stroke:#181818;stroke-width:0.5;stroke-dasharray:5.0,5.0;" x1="1092" x2="1092" y1="38.6211" y2="622.8496"/><line style="stroke:#181818;stroke-width:0.5;stroke-dasharray:5.0,5.0;" x1="1211" x2="1211" y1="38.6211" y2="622.8496"/><line style="stroke:#181818;stroke-width:0.5;stroke-dasharray:5.0,5.0;" x1="1394" x2="1394" y1="507.166" y2="622.8496"/><rect fill="#E2E2F0" height="32.6211" rx="2.5" ry="2.5" style="stroke:#181818;stroke-width:0.5;" width="18" x="5" y="5"/><text fill="#000000" font-family="sans-serif" font-size="14" lengthAdjust="spacing" textLength="4" x="12" y="27.1074">&#160;</text><rect fill="#E2E2F0" height="32.6211" rx="2.5" ry="2.5" style="stroke:#181818;stroke-width:0.5;" width="18" x="5" y="621.8496"/><text fill="#000000" font-family="sans-serif" font-size="14" lengthAdjust="spacing" textLength="4" x="12" y="643.957">&#160;</text><rect fill="#E2E2F0" height="32.6211" rx="2.5" ry="2.5" style="stroke:#181818;stroke-width:0.5;" width="333" x="67.5" y="5"/><text fill="#000000" font-family="sans-serif" font-size="14" lengthAdjust="spacing" textLength="319" x="74.5" y="27.1074">:GetListOfAllMeasurementsOfOneDeviceController</text><rect fill="#E2E2F0" height="32.6211" rx="2.5" ry="2.5" style="stroke:#181818;stroke-width:0.5;" width="333" x="67.5" y="621.8496"/><text fill="#000000" font-family="sans-serif" font-size="14" lengthAdjust="spacing" textLength="319" x="74.5" y="643.957">:GetListOfAllMeasurementsOfOneDeviceController</text><rect fill="#E2E2F0" height="32.6211" rx="2.5" ry="2.5" style="stroke:#181818;stroke-width:0.5;" width="129" x="410.5" y="621.8496"/><text fill="#000000" font-family="sans-serif" font-size="14" lengthAdjust="spacing" textLength="115" x="417.5" y="643.957">period:DatePeriod</text><rect fill="#E2E2F0" height="32.6211" rx="2.5" ry="2.5" style="stroke:#181818;stroke-width:0.5;" width="128" x="549.5" y="621.8496"/><text fill="#000000" font-family="sans-serif" font-size="14" lengthAdjust="spacing" textLength="114" x="556.5" y="643.957">deviceID:DeviceID</text><rect fill="#E2E2F0" height="32.6211" rx="2.5" ry="2.5" style="stroke:#181818;stroke-width:0.5;" width="89" x="687.5" y="5"/><text fill="#000000" font-family="sans-serif" font-size="14" lengthAdjust="spacing" textLength="75" x="694.5" y="27.1074">:LogService</text><rect fill="#E2E2F0" height="32.6211" rx="2.5" ry="2.5" style="stroke:#181818;stroke-width:0.5;" width="89" x="687.5" y="621.8496"/><text fill="#000000" font-family="sans-serif" font-size="14" lengthAdjust="spacing" textLength="75" x="694.5" y="643.957">:LogService</text><rect fill="#E2E2F0" height="32.6211" rx="2.5" ry="2.5" style="stroke:#181818;stroke-width:0.5;" width="110" x="1037" y="5"/><text fill="#000000" font-family="sans-serif" font-size="14" lengthAdjust="spacing" textLength="96" x="1044" y="27.1074">:LogRepository</text><rect fill="#E2E2F0" height="32.6211" rx="2.5" ry="2.5" style="stroke:#181818;stroke-width:0.5;" width="110" x="1037" y="621.8496"/><text fill="#000000" font-family="sans-serif" font-size="14" lengthAdjust="spacing" textLength="96" x="1044" y="643.957">:LogRepository</text><rect fill="#E2E2F0" height="32.6211" rx="2.5" ry="2.5" style="stroke:#181818;stroke-width:0.5;" width="108" x="1157" y="5"/><text fill="#000000" font-family="sans-serif" font-size="14" lengthAdjust="spacing" textLength="94" x="1164" y="27.1074">:LogAssembler</text><rect fill="#E2E2F0" height="32.6211" rx="2.5" ry="2.5" style="stroke:#181818;stroke-width:0.5;" width="108" x="1157" y="621.8496"/><text fill="#000000" font-family="sans-serif" font-size="14" lengthAdjust="spacing" textLength="94" x="1164" y="643.957">:LogAssembler</text><rect fill="#E2E2F0" height="32.6211" rx="2.5" ry="2.5" style="stroke:#181818;stroke-width:0.5;" width="121" x="1334" y="621.8496"/><text fill="#000000" font-family="sans-serif" font-size="14" lengthAdjust="spacing" textLength="107" x="1341" y="643.957">logDTO:LogDTO</text><rect fill="#FFFFFF" height="443.7734" style="stroke:#181818;stroke-width:1.0;" width="10" x="229" y="161.0762"/><rect fill="#FFFFFF" height="33.6211" style="stroke:#181818;stroke-width:1.0;" width="10" x="470" y="202.3672"/><rect fill="#FFFFFF" height="33.6211" style="stroke:#181818;stroke-width:1.0;" width="10" x="608.5" y="277.2793"/><rect fill="#FFFFFF" height="93.873" style="stroke:#181818;stroke-width:1.0;" width="10" x="727" y="342.1914"/><rect fill="#FFFFFF" height="31.291" style="stroke:#181818;stroke-width:1.0;" width="10" x="1087" y="373.4824"/><rect fill="#FFFFFF" height="106.2031" style="stroke:#181818;stroke-width:1.0;" width="10" x="1206" y="467.3555"/><rect fill="#FFFFFF" height="33.6211" style="stroke:#181818;stroke-width:1.0;" width="10" x="1389.5" y="508.6465"/><path d="M19,53.6211 L19,132.6211 L178,132.6211 L178,63.6211 L168,53.6211 L19,53.6211 " fill="#FEFFDD" style="stroke:#181818;stroke-width:0.5;"/><path d="M168,53.6211 L168,63.6211 L178,63.6211 L168,53.6211 " fill="#FEFFDD" style="stroke:#181818;stroke-width:0.5;"/><text fill="#000000" font-family="sans-serif" font-size="13" lengthAdjust="spacing" textLength="4" x="25" y="72.6494">&#160;</text><text fill="#000000" font-family="sans-serif" font-size="13" lengthAdjust="spacing" textLength="59" x="25" y="89.9404">Ref UC06:</text><text fill="#000000" font-family="sans-serif" font-size="13" lengthAdjust="spacing" textLength="134" x="29" y="107.2314">I want to get a list of all</text><text fill="#000000" font-family="sans-serif" font-size="13" lengthAdjust="spacing" textLength="105" x="29" y="124.5225">devices in a room.</text><ellipse cx="13.5" cy="160.3262" fill="none" rx="4" ry="4" style="stroke:#181818;stroke-width:1.5;"/><polygon fill="#181818" points="217,157.0762,227,161.0762,217,165.0762,221,161.0762" style="stroke:#181818;stroke-width:1.0;"/><line style="stroke:#181818;stroke-width:1.0;" x1="18" x2="223" y1="161.0762" y2="161.0762"/><text fill="#000000" font-family="sans-serif" font-size="13" font-weight="bold" lengthAdjust="spacing" textLength="7" x="21" y="155.8135">1</text><text fill="#000000" font-family="sans-serif" font-size="13" lengthAdjust="spacing" textLength="185" x="32" y="155.8135">getLogFromDevice(logDataDTO)</text><polygon fill="#181818" points="398.5,188.3672,408.5,192.3672,398.5,196.3672,402.5,192.3672" style="stroke:#181818;stroke-width:1.0;"/><line style="stroke:#181818;stroke-width:1.0;" x1="239" x2="404.5" y1="192.3672" y2="192.3672"/><text fill="#000000" font-family="sans-serif" font-size="13" font-weight="bold" lengthAdjust="spacing" textLength="7" x="246" y="187.1045">2</text><text fill="#000000" font-family="sans-serif" font-size="13" lengthAdjust="spacing" textLength="131" x="257" y="187.1045">DatePeriod (start, end)</text><rect fill="#E2E2F0" height="32.6211" rx="2.5" ry="2.5" style="stroke:#181818;stroke-width:0.5;" width="129" x="410.5" y="169.0762"/><text fill="#000000" font-family="sans-serif" font-size="14" lengthAdjust="spacing" textLength="115" x="417.5" y="191.1836">period:DatePeriod</text><polygon fill="#181818" points="250,231.9883,240,235.9883,250,239.9883,246,235.9883" style="stroke:#181818;stroke-width:1.0;"/><line style="stroke:#181818;stroke-width:1.0;stroke-dasharray:2.0,2.0;" x1="244" x2="474" y1="235.9883" y2="235.9883"/><text fill="#000000" font-family="sans-serif" font-size="13" font-weight="bold" lengthAdjust="spacing" textLength="7" x="256" y="230.7256">3</text><text fill="#000000" font-family="sans-serif" font-size="13" lengthAdjust="spacing" textLength="35" x="267" y="230.7256">period</text><polygon fill="#181818" points="537.5,263.2793,547.5,267.2793,537.5,271.2793,541.5,267.2793" style="stroke:#181818;stroke-width:1.0;"/><line style="stroke:#181818;stroke-width:1.0;" x1="239" x2="543.5" y1="267.2793" y2="267.2793"/><text fill="#000000" font-family="sans-serif" font-size="13" font-weight="bold" lengthAdjust="spacing" textLength="7" x="246" y="262.0166">4</text><text fill="#000000" font-family="sans-serif" font-size="13" lengthAdjust="spacing" textLength="110" x="257" y="262.0166">DeviceID (deviceID)</text><rect fill="#E2E2F0" height="32.6211" rx="2.5" ry="2.5" style="stroke:#181818;stroke-width:0.5;" width="128" x="549.5" y="243.9883"/><text fill="#000000" font-family="sans-serif" font-size="14" lengthAdjust="spacing" textLength="114" x="556.5" y="266.0957">deviceID:DeviceID</text><polygon fill="#181818" points="250,306.9004,240,310.9004,250,314.9004,246,310.9004" style="stroke:#181818;stroke-width:1.0;"/><line style="stroke:#181818;stroke-width:1.0;stroke-dasharray:2.0,2.0;" x1="244" x2="612.5" y1="310.9004" y2="310.9004"/><text fill="#000000" font-family="sans-serif" font-size="13" font-weight="bold" lengthAdjust="spacing" textLength="7" x="256" y="305.6377">5</text><text fill="#000000" font-family="sans-serif" font-size="13" lengthAdjust="spacing" textLength="48" x="267" y="305.6377">deviceID</text><polygon fill="#181818" points="715,338.1914,725,342.1914,715,346.1914,719,342.1914" style="stroke:#181818;stroke-width:1.0;"/><line style="stroke:#181818;stroke-width:1.0;" x1="239" x2="721" y1="342.1914" y2="342.1914"/><text fill="#000000" font-family="sans-serif" font-size="13" font-weight="bold" lengthAdjust="spacing" textLength="7" x="246" y="336.9287">6</text><text fill="#000000" font-family="sans-serif" font-size="13" lengthAdjust="spacing" textLength="294" x="257" y="336.9287">getDeviceReadingsByTimePeriod (deviceID, period)</text><polygon fill="#181818" points="1075,369.4824,1085,373.4824,1075,377.4824,1079,373.4824" style="stroke:#181818;stroke-width:1.0;"/><line style="stroke:#181818;stroke-width:1.0;" x1="737" x2="1081" y1="373.4824" y2="373.4824"/><text fill="#000000" font-family="sans-serif" font-size="13" font-weight="bold" lengthAdjust="spacing" textLength="7" x="744" y="368.2197">7</text><text fill="#000000" font-family="sans-serif" font-size="13" lengthAdjust="spacing" textLength="320" x="755" y="368.2197">findByDeviceIdAndDatePeriodBetween(deviceID, period)</text><polygon fill="#181818" points="748,400.7734,738,404.7734,748,408.7734,744,404.7734" style="stroke:#181818;stroke-width:1.0;"/><line style="stroke:#181818;stroke-width:1.0;stroke-dasharray:2.0,2.0;" x1="742" x2="1091" y1="404.7734" y2="404.7734"/><text fill="#000000" font-family="sans-serif" font-size="13" font-weight="bold" lengthAdjust="spacing" textLength="7" x="754" y="399.5107">8</text><text fill="#000000" font-family="sans-serif" font-size="13" lengthAdjust="spacing" textLength="38" x="765" y="399.5107">logList</text><polygon fill="#181818" points="250,432.0645,240,436.0645,250,440.0645,246,436.0645" style="stroke:#181818;stroke-width:1.0;"/><line style="stroke:#181818;stroke-width:1.0;stroke-dasharray:2.0,2.0;" x1="244" x2="731" y1="436.0645" y2="436.0645"/><text fill="#000000" font-family="sans-serif" font-size="13" font-weight="bold" lengthAdjust="spacing" textLength="7" x="256" y="430.8018">9</text><text fill="#000000" font-family="sans-serif" font-size="13" lengthAdjust="spacing" textLength="38" x="267" y="430.8018">logList</text><polygon fill="#181818" points="1194,463.3555,1204,467.3555,1194,471.3555,1198,467.3555" style="stroke:#181818;stroke-width:1.0;"/><line style="stroke:#181818;stroke-width:1.0;" x1="239" x2="1200" y1="467.3555" y2="467.3555"/><text fill="#000000" font-family="sans-serif" font-size="13" font-weight="bold" lengthAdjust="spacing" textLength="14" x="246" y="462.0928">10</text><text fill="#000000" font-family="sans-serif" font-size="13" lengthAdjust="spacing" textLength="128" x="264" y="462.0928">domainToDTO(logList)</text><polygon fill="#181818" points="1322,494.6465,1332,498.6465,1322,502.6465,1326,498.6465" style="stroke:#181818;stroke-width:1.0;"/><line style="stroke:#181818;stroke-width:1.0;" x1="1216" x2="1328" y1="498.6465" y2="498.6465"/><text fill="#000000" font-family="sans-serif" font-size="13" font-weight="bold" lengthAdjust="spacing" textLength="14" x="1223" y="493.3838">11</text><text fill="#000000" font-family="sans-serif" font-size="13" lengthAdjust="spacing" textLength="76" x="1241" y="493.3838">LogDTO (log)</text><rect fill="#E2E2F0" height="32.6211" rx="2.5" ry="2.5" style="stroke:#181818;stroke-width:0.5;" width="121" x="1334" y="475.3555"/><text fill="#000000" font-family="sans-serif" font-size="14" lengthAdjust="spacing" textLength="107" x="1341" y="497.4629">logDTO:LogDTO</text><polygon fill="#181818" points="1227,538.2676,1217,542.2676,1227,546.2676,1223,542.2676" style="stroke:#181818;stroke-width:1.0;"/><line style="stroke:#181818;stroke-width:1.0;stroke-dasharray:2.0,2.0;" x1="1221" x2="1393.5" y1="542.2676" y2="542.2676"/><text fill="#000000" font-family="sans-serif" font-size="13" font-weight="bold" lengthAdjust="spacing" textLength="14" x="1233" y="537.0049">12</text><text fill="#000000" font-family="sans-serif" font-size="13" lengthAdjust="spacing" textLength="43" x="1251" y="537.0049">logDTO</text><polygon fill="#181818" points="250,569.5586,240,573.5586,250,577.5586,246,573.5586" style="stroke:#181818;stroke-width:1.0;"/><line style="stroke:#181818;stroke-width:1.0;stroke-dasharray:2.0,2.0;" x1="244" x2="1210" y1="573.5586" y2="573.5586"/><text fill="#000000" font-family="sans-serif" font-size="13" font-weight="bold" lengthAdjust="spacing" textLength="14" x="256" y="568.2959">13</text><text fill="#000000" font-family="sans-serif" font-size="13" lengthAdjust="spacing" textLength="64" x="274" y="568.2959">logListDTO</text><polygon fill="#181818" points="25,600.8496,15,604.8496,25,608.8496,21,604.8496" style="stroke:#181818;stroke-width:1.0;"/><line style="stroke:#181818;stroke-width:1.0;stroke-dasharray:2.0,2.0;" x1="19" x2="233" y1="604.8496" y2="604.8496"/><text fill="#000000" font-family="sans-serif" font-size="13" font-weight="bold" lengthAdjust="spacing" textLength="14" x="31" y="599.5869">14</text><text fill="#000000" font-family="sans-serif" font-size="13" lengthAdjust="spacing" textLength="64" x="49" y="599.5869">logListDTO</text><!--SRC=[RLJ1Rjim3BthAxXTaW39iDCEFXH8cgqeq253cts06ZEkC5aA92L5_dwaPLcoa-HWKIAV7XyfVZavsRGIjBpQSm3VOf162d6IBgY3EaaJu2lzfOU_7jrulth2yA9ys1tNMlz6wSyEMpJ1xuuxWrkyg0C-MXESrHfT1vBDoHqdTChMrLO6_DCjE_TiZhth3ljvMstxHVJkZGdB5zkyeUEZpYkRjtwlUB9U1UkkdMisRrtNtcFxdl8QhB6ZjirslsDt-aIE-vqGyXoiERVlh8An0S6fvYE0FKQH1T3Dj7xy_gEYDJp39wC52mq6e6AHvkmijURZA8O7PUZCMTj-4sXgO611FuO4kteejAyOY4ZzShQDeisPgGoIw2s8to6e2qbVbckMQm6Iu9FO81t2mI6TrY9-ox9b120A-Q0grZ3tWLHR0j5UvCiBbC9tDSaaDeweyLxSG2XrneHEQgESpJorLaaaHGzUKn8fQ4GZxGan8xbldaX_RfxK1KrAxe4hyyPgS1PBjdwQcjSJwhcBks96i5UKjJADtrptgXt4JUIMlLQBI6YuXU6qFKZD1WTs9pdzui68sL6PUdFjkTThK_S1xMc3uHFHH3Jxhsj7hQ7DIODBxqcX5ncMG_9Jg-3cZbpH_f9xEGryYrURbrt9Ij6euNbsYR9aHMJ9RbBi8R8CBKGQ5sgO3DGbjfNAx2qzidaFKlBECoHrBSsAORFhLveb48S9C4BPe-JBswlnbN40ZPXEKEydDmtAtChiA9QdooYg22g7_Ny0]--></g></svg>