<?xml version="1.0" encoding="us-ascii" standalone="no"?><svg xmlns="http://www.w3.org/2000/svg" xmlns:xlink="http://www.w3.org/1999/xlink" contentStyleType="text/css" height="589.6px" preserveAspectRatio="none" style="width:1980px;height:589px;background:#FFFFFF;" version="1.1" viewBox="0 0 1980 589" width="1980.8px" zoomAndPan="magnify"><defs/><g><rect fill="#FFFFFF" height="427.85" style="stroke:#181818;stroke-width:0.8000000000000002;" width="8" x="385.6" y="119.2328"/><rect fill="#FFFFFF" height="25.1906" style="stroke:#181818;stroke-width:0.8000000000000002;" width="8" x="613.2" y="150.6813"/><rect fill="#FFFFFF" height="25.1906" style="stroke:#181818;stroke-width:0.8000000000000002;" width="8" x="688.8" y="207.3203"/><rect fill="#FFFFFF" height="70.3453" style="stroke:#181818;stroke-width:0.8000000000000002;" width="8" x="771.2" y="255.9594"/><rect fill="#FFFFFF" height="23.4484" style="stroke:#181818;stroke-width:0.8000000000000002;" width="8" x="924.8" y="279.4078"/><rect fill="#FFFFFF" height="70.3453" style="stroke:#181818;stroke-width:0.8000000000000002;" width="8" x="1053.2" y="349.7531"/><rect fill="#FFFFFF" height="23.4484" style="stroke:#181818;stroke-width:0.8000000000000002;" width="8" x="1496.4" y="373.2016"/><rect fill="#FFFFFF" height="80.0875" style="stroke:#181818;stroke-width:0.8000000000000002;" width="8" x="1651.2" y="443.5469"/><rect fill="#FFFFFF" height="25.1906" style="stroke:#181818;stroke-width:0.8000000000000002;" width="8" x="1915.6" y="474.9953"/><line style="stroke:#181818;stroke-width:0.4000000000000001;stroke-dasharray:5.0,5.0;" x1="11.2" x2="11.2" y1="29.1906" y2="561.4828"/><line style="stroke:#181818;stroke-width:0.4000000000000001;stroke-dasharray:5.0,5.0;" x1="389.6" x2="389.6" y1="29.1906" y2="561.4828"/><line style="stroke:#181818;stroke-width:0.4000000000000001;stroke-dasharray:5.0,5.0;" x1="616.8" x2="616.8" y1="150.2281" y2="561.4828"/><line style="stroke:#181818;stroke-width:0.4000000000000001;stroke-dasharray:5.0,5.0;" x1="692.8" x2="692.8" y1="206.8672" y2="561.4828"/><line style="stroke:#181818;stroke-width:0.4000000000000001;stroke-dasharray:5.0,5.0;" x1="775.2" x2="775.2" y1="29.1906" y2="561.4828"/><line style="stroke:#181818;stroke-width:0.4000000000000001;stroke-dasharray:5.0,5.0;" x1="928.4" x2="928.4" y1="29.1906" y2="561.4828"/><line style="stroke:#181818;stroke-width:0.4000000000000001;stroke-dasharray:5.0,5.0;" x1="1057.2" x2="1057.2" y1="29.1906" y2="561.4828"/><line style="stroke:#181818;stroke-width:0.4000000000000001;stroke-dasharray:5.0,5.0;" x1="1500.4" x2="1500.4" y1="29.1906" y2="561.4828"/><line style="stroke:#181818;stroke-width:0.4000000000000001;stroke-dasharray:5.0,5.0;" x1="1654.8" x2="1654.8" y1="29.1906" y2="561.4828"/><line style="stroke:#181818;stroke-width:0.4000000000000001;stroke-dasharray:5.0,5.0;" x1="1919.2" x2="1919.2" y1="474.5422" y2="561.4828"/><rect fill="#E2E2F0" height="24.3906" rx="2" ry="2" style="stroke:#181818;stroke-width:0.4000000000000001;" width="14.4" x="4" y="4"/><text fill="#000000" font-family="sans-serif" font-size="11.2" lengthAdjust="spacing" textLength="3.2" x="9.6" y="20.4281">&#160;</text><rect fill="#E2E2F0" height="24.3906" rx="2" ry="2" style="stroke:#181818;stroke-width:0.4000000000000001;" width="14.4" x="4" y="560.6828"/><text fill="#000000" font-family="sans-serif" font-size="11.2" lengthAdjust="spacing" textLength="3.2" x="9.6" y="577.1109">&#160;</text><rect fill="#E2E2F0" height="24.3906" rx="2" ry="2" style="stroke:#181818;stroke-width:0.4000000000000001;" width="284.8" x="247.2" y="4"/><text fill="#000000" font-family="sans-serif" font-size="11.2" lengthAdjust="spacing" textLength="273.6" x="252.8" y="20.4281">:GetListOfAllMeasurementsOfOneDeviceController</text><rect fill="#E2E2F0" height="24.3906" rx="2" ry="2" style="stroke:#181818;stroke-width:0.4000000000000001;" width="284.8" x="247.2" y="560.6828"/><text fill="#000000" font-family="sans-serif" font-size="11.2" lengthAdjust="spacing" textLength="273.6" x="252.8" y="577.1109">:GetListOfAllMeasurementsOfOneDeviceController</text><rect fill="#E2E2F0" height="24.3906" rx="2" ry="2" style="stroke:#181818;stroke-width:0.4000000000000001;" width="74.4" x="580" y="560.6828"/><text fill="#000000" font-family="sans-serif" font-size="11.2" lengthAdjust="spacing" textLength="63.2" x="585.6" y="577.1109">:DatePeriod</text><rect fill="#E2E2F0" height="24.3906" rx="2" ry="2" style="stroke:#181818;stroke-width:0.4000000000000001;" width="60.8" x="662.4" y="560.6828"/><text fill="#000000" font-family="sans-serif" font-size="11.2" lengthAdjust="spacing" textLength="49.6" x="668" y="577.1109">:DeviceID</text><rect fill="#E2E2F0" height="24.3906" rx="2" ry="2" style="stroke:#181818;stroke-width:0.4000000000000001;" width="88" x="731.2" y="4"/><text fill="#000000" font-family="sans-serif" font-size="11.2" lengthAdjust="spacing" textLength="76.8" x="736.8" y="20.4281">:DeviceService</text><rect fill="#E2E2F0" height="24.3906" rx="2" ry="2" style="stroke:#181818;stroke-width:0.4000000000000001;" width="88" x="731.2" y="560.6828"/><text fill="#000000" font-family="sans-serif" font-size="11.2" lengthAdjust="spacing" textLength="76.8" x="736.8" y="577.1109">:DeviceService</text><rect fill="#E2E2F0" height="24.3906" rx="2" ry="2" style="stroke:#181818;stroke-width:0.4000000000000001;" width="108" x="874.8" y="4"/><text fill="#000000" font-family="sans-serif" font-size="11.2" lengthAdjust="spacing" textLength="96.8" x="880.4" y="20.4281">:DeviceRepository</text><rect fill="#E2E2F0" height="24.3906" rx="2" ry="2" style="stroke:#181818;stroke-width:0.4000000000000001;" width="108" x="874.8" y="560.6828"/><text fill="#000000" font-family="sans-serif" font-size="11.2" lengthAdjust="spacing" textLength="96.8" x="880.4" y="577.1109">:DeviceRepository</text><rect fill="#E2E2F0" height="24.3906" rx="2" ry="2" style="stroke:#181818;stroke-width:0.4000000000000001;" width="132.8" x="990.8" y="4"/><text fill="#000000" font-family="sans-serif" font-size="11.2" lengthAdjust="spacing" textLength="121.6" x="996.4" y="20.4281">:MeasurementsService</text><rect fill="#E2E2F0" height="24.3906" rx="2" ry="2" style="stroke:#181818;stroke-width:0.4000000000000001;" width="132.8" x="990.8" y="560.6828"/><text fill="#000000" font-family="sans-serif" font-size="11.2" lengthAdjust="spacing" textLength="121.6" x="996.4" y="577.1109">:MeasurementsService</text><rect fill="#E2E2F0" height="24.3906" rx="2" ry="2" style="stroke:#181818;stroke-width:0.4000000000000001;" width="147.2" x="1426.8" y="4"/><text fill="#000000" font-family="sans-serif" font-size="11.2" lengthAdjust="spacing" textLength="136" x="1432.4" y="20.4281">:MeasurementRepository</text><rect fill="#E2E2F0" height="24.3906" rx="2" ry="2" style="stroke:#181818;stroke-width:0.4000000000000001;" width="147.2" x="1426.8" y="560.6828"/><text fill="#000000" font-family="sans-serif" font-size="11.2" lengthAdjust="spacing" textLength="136" x="1432.4" y="577.1109">:MeasurementRepository</text><rect fill="#E2E2F0" height="24.3906" rx="2" ry="2" style="stroke:#181818;stroke-width:0.4000000000000001;" width="146.4" x="1582" y="4"/><text fill="#000000" font-family="sans-serif" font-size="11.2" lengthAdjust="spacing" textLength="135.2" x="1587.6" y="20.4281">:MeasurementAssembler</text><rect fill="#E2E2F0" height="24.3906" rx="2" ry="2" style="stroke:#181818;stroke-width:0.4000000000000001;" width="146.4" x="1582" y="560.6828"/><text fill="#000000" font-family="sans-serif" font-size="11.2" lengthAdjust="spacing" textLength="135.2" x="1587.6" y="577.1109">:MeasurementAssembler</text><rect fill="#E2E2F0" height="24.3906" rx="2" ry="2" style="stroke:#181818;stroke-width:0.4000000000000001;" width="112.8" x="1863.2" y="560.6828"/><text fill="#000000" font-family="sans-serif" font-size="11.2" lengthAdjust="spacing" textLength="101.6" x="1868.8" y="577.1109">:MeasurementDTO</text><rect fill="#FFFFFF" height="427.85" style="stroke:#181818;stroke-width:0.8000000000000002;" width="8" x="385.6" y="119.2328"/><rect fill="#FFFFFF" height="25.1906" style="stroke:#181818;stroke-width:0.8000000000000002;" width="8" x="613.2" y="150.6813"/><rect fill="#FFFFFF" height="25.1906" style="stroke:#181818;stroke-width:0.8000000000000002;" width="8" x="688.8" y="207.3203"/><rect fill="#FFFFFF" height="70.3453" style="stroke:#181818;stroke-width:0.8000000000000002;" width="8" x="771.2" y="255.9594"/><rect fill="#FFFFFF" height="23.4484" style="stroke:#181818;stroke-width:0.8000000000000002;" width="8" x="924.8" y="279.4078"/><rect fill="#FFFFFF" height="70.3453" style="stroke:#181818;stroke-width:0.8000000000000002;" width="8" x="1053.2" y="349.7531"/><rect fill="#FFFFFF" height="23.4484" style="stroke:#181818;stroke-width:0.8000000000000002;" width="8" x="1496.4" y="373.2016"/><rect fill="#FFFFFF" height="80.0875" style="stroke:#181818;stroke-width:0.8000000000000002;" width="8" x="1651.2" y="443.5469"/><rect fill="#FFFFFF" height="25.1906" style="stroke:#181818;stroke-width:0.8000000000000002;" width="8" x="1915.6" y="474.9953"/><path d="M15.2,41.1906 L15.2,97.9906 L155.2,97.9906 L155.2,49.1906 L147.2,41.1906 L15.2,41.1906 " fill="#FEFFDD" style="stroke:#181818;stroke-width:0.4000000000000001;"/><path d="M147.2,41.1906 L147.2,49.1906 L155.2,49.1906 L147.2,41.1906 " fill="#FEFFDD" style="stroke:#181818;stroke-width:0.4000000000000001;"/><text fill="#000000" font-family="sans-serif" font-size="10.4" lengthAdjust="spacing" textLength="3.2" x="20" y="55.2453">&#160;</text><text fill="#000000" font-family="sans-serif" font-size="10.4" lengthAdjust="spacing" textLength="49.6" x="20" y="67.4938">Ref UC06:</text><text fill="#000000" font-family="sans-serif" font-size="10.4" lengthAdjust="spacing" textLength="120" x="23.2" y="79.7422">I want to get a list of all</text><text fill="#000000" font-family="sans-serif" font-size="10.4" lengthAdjust="spacing" textLength="92" x="23.2" y="91.9906">devices in a room.</text><ellipse cx="10.8" cy="118.6328" fill="none" rx="3.2" ry="3.2" style="stroke:#181818;stroke-width:1.2000000000000002;"/><polygon fill="#181818" points="376,116.0328,384,119.2328,376,122.4328,379.2,119.2328" style="stroke:#181818;stroke-width:0.8000000000000002;"/><line style="stroke:#181818;stroke-width:0.8000000000000002;" x1="14.4" x2="380.8" y1="119.2328" y2="119.2328"/><text fill="#000000" font-family="sans-serif" font-size="10.4" font-weight="bold" lengthAdjust="spacing" textLength="7.2" x="16.8" y="115.4391">1</text><text fill="#000000" font-family="sans-serif" font-size="10.4" lengthAdjust="spacing" textLength="348.8" x="27.2" y="115.4391">getMeasurementsOfOneDeviceInGivenPeriod(measurementsDataDTO)</text><polygon fill="#181818" points="570.4,139.4813,578.4,142.6813,570.4,145.8813,573.6,142.6813" style="stroke:#181818;stroke-width:0.8000000000000002;"/><line style="stroke:#181818;stroke-width:0.8000000000000002;" x1="393.6" x2="575.2" y1="142.6813" y2="142.6813"/><text fill="#000000" font-family="sans-serif" font-size="10.4" font-weight="bold" lengthAdjust="spacing" textLength="7.2" x="399.2" y="138.8875">2</text><text fill="#000000" font-family="sans-serif" font-size="10.4" lengthAdjust="spacing" textLength="156.8" x="409.6" y="138.8875">TimeStamp (startDate, endDate</text><rect fill="#E2E2F0" height="24.3906" rx="2" ry="2" style="stroke:#181818;stroke-width:0.4000000000000001;" width="74.4" x="580" y="125.6328"/><text fill="#000000" font-family="sans-serif" font-size="11.2" lengthAdjust="spacing" textLength="63.2" x="585.6" y="142.0609">:DatePeriod</text><polygon fill="#181818" points="402.4,172.6719,394.4,175.8719,402.4,179.0719,399.2,175.8719" style="stroke:#181818;stroke-width:0.8000000000000002;"/><line style="stroke:#181818;stroke-width:0.8000000000000002;stroke-dasharray:2.0,2.0;" x1="397.6" x2="616.4" y1="175.8719" y2="175.8719"/><text fill="#000000" font-family="sans-serif" font-size="10.4" font-weight="bold" lengthAdjust="spacing" textLength="7.2" x="407.2" y="172.0781">3</text><text fill="#000000" font-family="sans-serif" font-size="10.4" lengthAdjust="spacing" textLength="76.8" x="417.6" y="172.0781">timeStampStart</text><polygon fill="#181818" points="652.8,196.1203,660.8,199.3203,652.8,202.5203,656,199.3203" style="stroke:#181818;stroke-width:0.8000000000000002;"/><line style="stroke:#181818;stroke-width:0.8000000000000002;" x1="393.6" x2="657.6" y1="199.3203" y2="199.3203"/><text fill="#000000" font-family="sans-serif" font-size="10.4" font-weight="bold" lengthAdjust="spacing" textLength="7.2" x="399.2" y="195.5266">4</text><text fill="#000000" font-family="sans-serif" font-size="10.4" lengthAdjust="spacing" textLength="94.4" x="409.6" y="195.5266">DeviceID(deviceID)</text><rect fill="#E2E2F0" height="24.3906" rx="2" ry="2" style="stroke:#181818;stroke-width:0.4000000000000001;" width="60.8" x="662.4" y="182.2719"/><text fill="#000000" font-family="sans-serif" font-size="11.2" lengthAdjust="spacing" textLength="49.6" x="668" y="198.7">:DeviceID</text><polygon fill="#181818" points="402.4,229.3109,394.4,232.5109,402.4,235.7109,399.2,232.5109" style="stroke:#181818;stroke-width:0.8000000000000002;"/><line style="stroke:#181818;stroke-width:0.8000000000000002;stroke-dasharray:2.0,2.0;" x1="397.6" x2="692" y1="232.5109" y2="232.5109"/><text fill="#000000" font-family="sans-serif" font-size="10.4" font-weight="bold" lengthAdjust="spacing" textLength="7.2" x="407.2" y="228.7172">5</text><text fill="#000000" font-family="sans-serif" font-size="10.4" lengthAdjust="spacing" textLength="43.2" x="417.6" y="228.7172">deviceID</text><polygon fill="#181818" points="761.6,252.7594,769.6,255.9594,761.6,259.1594,764.8,255.9594" style="stroke:#181818;stroke-width:0.8000000000000002;"/><line style="stroke:#181818;stroke-width:0.8000000000000002;" x1="393.6" x2="766.4" y1="255.9594" y2="255.9594"/><text fill="#000000" font-family="sans-serif" font-size="10.4" font-weight="bold" lengthAdjust="spacing" textLength="7.2" x="399.2" y="252.1656">6</text><text fill="#000000" font-family="sans-serif" font-size="10.4" lengthAdjust="spacing" textLength="120" x="409.6" y="252.1656">getDeviceById(deviceID)</text><polygon fill="#181818" points="915.2,276.2078,923.2,279.4078,915.2,282.6078,918.4,279.4078" style="stroke:#181818;stroke-width:0.8000000000000002;"/><line style="stroke:#181818;stroke-width:0.8000000000000002;" x1="779.2" x2="920" y1="279.4078" y2="279.4078"/><text fill="#000000" font-family="sans-serif" font-size="10.4" font-weight="bold" lengthAdjust="spacing" textLength="7.2" x="784.8" y="275.6141">7</text><text fill="#000000" font-family="sans-serif" font-size="10.4" lengthAdjust="spacing" textLength="120" x="795.2" y="275.6141">getDeviceById(deviceID)</text><polygon fill="#181818" points="788,299.6563,780,302.8563,788,306.0563,784.8,302.8563" style="stroke:#181818;stroke-width:0.8000000000000002;"/><line style="stroke:#181818;stroke-width:0.8000000000000002;stroke-dasharray:2.0,2.0;" x1="783.2" x2="928" y1="302.8563" y2="302.8563"/><text fill="#000000" font-family="sans-serif" font-size="10.4" font-weight="bold" lengthAdjust="spacing" textLength="7.2" x="792.8" y="299.0625">8</text><text fill="#000000" font-family="sans-serif" font-size="10.4" lengthAdjust="spacing" textLength="32" x="803.2" y="299.0625">device</text><polygon fill="#181818" points="402.4,323.1047,394.4,326.3047,402.4,329.5047,399.2,326.3047" style="stroke:#181818;stroke-width:0.8000000000000002;"/><line style="stroke:#181818;stroke-width:0.8000000000000002;stroke-dasharray:2.0,2.0;" x1="397.6" x2="774.4" y1="326.3047" y2="326.3047"/><text fill="#000000" font-family="sans-serif" font-size="10.4" font-weight="bold" lengthAdjust="spacing" textLength="7.2" x="407.2" y="322.5109">9</text><text fill="#000000" font-family="sans-serif" font-size="10.4" lengthAdjust="spacing" textLength="32" x="417.6" y="322.5109">device</text><polygon fill="#181818" points="1043.6,346.5531,1051.6,349.7531,1043.6,352.9531,1046.8,349.7531" style="stroke:#181818;stroke-width:0.8000000000000002;"/><line style="stroke:#181818;stroke-width:0.8000000000000002;" x1="393.6" x2="1048.4" y1="349.7531" y2="349.7531"/><text fill="#000000" font-family="sans-serif" font-size="10.4" font-weight="bold" lengthAdjust="spacing" textLength="14.4" x="399.2" y="345.9594">10</text><text fill="#000000" font-family="sans-serif" font-size="10.4" lengthAdjust="spacing" textLength="325.6" x="416.8" y="345.9594">getAllMeasurementsOfDeviceInGivenPeriod(deviceID, datePeriod)</text><polygon fill="#181818" points="1486.8,370.0016,1494.8,373.2016,1486.8,376.4016,1490,373.2016" style="stroke:#181818;stroke-width:0.8000000000000002;"/><line style="stroke:#181818;stroke-width:0.8000000000000002;" x1="1061.2" x2="1491.6" y1="373.2016" y2="373.2016"/><text fill="#000000" font-family="sans-serif" font-size="10.4" font-weight="bold" lengthAdjust="spacing" textLength="14.4" x="1066.8" y="369.4078">11</text><text fill="#000000" font-family="sans-serif" font-size="10.4" lengthAdjust="spacing" textLength="402.4" x="1084.4" y="369.4078">findByDeviceIdAndTimeStampBetween(deviceID, timeStampStart, timeStampEnd)</text><polygon fill="#181818" points="1070,393.45,1062,396.65,1070,399.85,1066.8,396.65" style="stroke:#181818;stroke-width:0.8000000000000002;"/><line style="stroke:#181818;stroke-width:0.8000000000000002;stroke-dasharray:2.0,2.0;" x1="1065.2" x2="1499.6" y1="396.65" y2="396.65"/><text fill="#000000" font-family="sans-serif" font-size="10.4" font-weight="bold" lengthAdjust="spacing" textLength="14.4" x="1074.8" y="392.8563">12</text><text fill="#000000" font-family="sans-serif" font-size="10.4" lengthAdjust="spacing" textLength="101.6" x="1092.4" y="392.8563">List&lt;Measurement&gt;</text><polygon fill="#181818" points="402.4,416.8984,394.4,420.0984,402.4,423.2984,399.2,420.0984" style="stroke:#181818;stroke-width:0.8000000000000002;"/><line style="stroke:#181818;stroke-width:0.8000000000000002;stroke-dasharray:2.0,2.0;" x1="397.6" x2="1056.4" y1="420.0984" y2="420.0984"/><text fill="#000000" font-family="sans-serif" font-size="10.4" font-weight="bold" lengthAdjust="spacing" textLength="14.4" x="407.2" y="416.3047">13</text><text fill="#000000" font-family="sans-serif" font-size="10.4" lengthAdjust="spacing" textLength="120.8" x="424.8" y="416.3047">Iterable&lt;Measurement&gt;</text><polygon fill="#181818" points="1641.6,440.3469,1649.6,443.5469,1641.6,446.7469,1644.8,443.5469" style="stroke:#181818;stroke-width:0.8000000000000002;"/><line style="stroke:#181818;stroke-width:0.8000000000000002;" x1="393.6" x2="1646.4" y1="443.5469" y2="443.5469"/><text fill="#000000" font-family="sans-serif" font-size="10.4" font-weight="bold" lengthAdjust="spacing" textLength="14.4" x="399.2" y="439.7531">14</text><text fill="#000000" font-family="sans-serif" font-size="10.4" lengthAdjust="spacing" textLength="165.6" x="416.8" y="439.7531">domainToDTO(measurementList)</text><polygon fill="#181818" points="1853.6,463.7953,1861.6,466.9953,1853.6,470.1953,1856.8,466.9953" style="stroke:#181818;stroke-width:0.8000000000000002;"/><line style="stroke:#181818;stroke-width:0.8000000000000002;" x1="1659.2" x2="1858.4" y1="466.9953" y2="466.9953"/><text fill="#000000" font-family="sans-serif" font-size="10.4" font-weight="bold" lengthAdjust="spacing" textLength="14.4" x="1664.8" y="463.2016">15</text><text fill="#000000" font-family="sans-serif" font-size="10.4" lengthAdjust="spacing" textLength="167.2" x="1682.4" y="463.2016">MeasurementDTO (measurement)</text><rect fill="#E2E2F0" height="24.3906" rx="2" ry="2" style="stroke:#181818;stroke-width:0.4000000000000001;" width="112.8" x="1863.2" y="449.9469"/><text fill="#000000" font-family="sans-serif" font-size="11.2" lengthAdjust="spacing" textLength="101.6" x="1868.8" y="466.375">:MeasurementDTO</text><polygon fill="#181818" points="1668,496.9859,1660,500.1859,1668,503.3859,1664.8,500.1859" style="stroke:#181818;stroke-width:0.8000000000000002;"/><line style="stroke:#181818;stroke-width:0.8000000000000002;stroke-dasharray:2.0,2.0;" x1="1663.2" x2="1918.8" y1="500.1859" y2="500.1859"/><text fill="#000000" font-family="sans-serif" font-size="10.4" font-weight="bold" lengthAdjust="spacing" textLength="14.4" x="1672.8" y="496.3922">16</text><text fill="#000000" font-family="sans-serif" font-size="10.4" lengthAdjust="spacing" textLength="90.4" x="1690.4" y="496.3922">measurementDTO</text><polygon fill="#181818" points="402.4,520.4344,394.4,523.6344,402.4,526.8344,399.2,523.6344" style="stroke:#181818;stroke-width:0.8000000000000002;"/><line style="stroke:#181818;stroke-width:0.8000000000000002;stroke-dasharray:2.0,2.0;" x1="397.6" x2="1654.4" y1="523.6344" y2="523.6344"/><text fill="#000000" font-family="sans-serif" font-size="10.4" font-weight="bold" lengthAdjust="spacing" textLength="14.4" x="407.2" y="519.8406">17</text><text fill="#000000" font-family="sans-serif" font-size="10.4" lengthAdjust="spacing" textLength="105.6" x="424.8" y="519.8406">listMeasurementDTO</text><polygon fill="#181818" points="20,543.8828,12,547.0828,20,550.2828,16.8,547.0828" style="stroke:#181818;stroke-width:0.8000000000000002;"/><line style="stroke:#181818;stroke-width:0.8000000000000002;stroke-dasharray:2.0,2.0;" x1="15.2" x2="388.8" y1="547.0828" y2="547.0828"/><text fill="#000000" font-family="sans-serif" font-size="10.4" font-weight="bold" lengthAdjust="spacing" textLength="14.4" x="24.8" y="543.2891">18</text><text fill="#000000" font-family="sans-serif" font-size="10.4" lengthAdjust="spacing" textLength="105.6" x="42.4" y="543.2891">listMeasurementDTO</text><!--SRC=[ZLNDRXen4BxxAQQzX4XGzTJ3gee4eOgG6crLw0Cux40ihUsLROXu-uuNrZ-BLmeSiCSpttppovVEyAFaqFABFZcm4XrNdB6E6oVsekFAmLVwSWl_B9fSNhsW-osigm_Bjdr5Ray69IfdwqEjS8rdiSTdhPpHROkc1udN4TIQE_o3HkYcrzi9YLl7PJTMwq4twrvfk1HrjcZyJw9uanIr_sAdhN3QN1A3A1pPfB6cVWhoQSkHoyyuMrgByct8PRXD6wntzJMUNSqOFpcjJlAD39ZI3i68uxi3VRYMbW5neFFpznyLdM437nxFQJYY0seHghHNvcthdvi-HHQ4eZUZjVp6K3NWWHbzF2JenLDIySe3JRJ9Hhs8Cwfh1ynaeaIDmOd-8_7VEt6cDacRw27s3N1oFxG4S8EmDqYl3Rl-9ZqL0O0O1daLZp2pZfBgqUT0SVb3912Hei5Y5AiRNhOUYB462-Piu1PQEQSsYAjmcZMtmsEa4un3z6CoWr7A8bWnza25kLvNbqtZ7Ol3pGQ4zJM5pg2bSip1e3iP1IWxTm7TEQ4LRukqRnFGbpsYJmSmJ4nsYt1nG3wDcCpKMD2dQCJpYdEVepkOmAsOvdk08RB-awUgi3BwyEusQcbEXi3dq8GnI0Ubj8yACiyZpUv1g6PrkJbibge93Rj2zu6e4iTvcoVtNogZakHmL8HY1lpVoi_avIaRe0Ii6CweB1k7XjEYd0Oi9IglKrYsL6KjkL0xJLiftLIUSXfnNC_3ZDCI3iA-htTr1VcsXXGnxMUozS-Bd8hCZBEGHjv6AV7B_7NQE79Fiq0OVgqNhHFZP3sp_m00]--></g></svg>