<?xml version="1.0" encoding="us-ascii" standalone="no"?><svg xmlns="http://www.w3.org/2000/svg" xmlns:xlink="http://www.w3.org/1999/xlink" contentStyleType="text/css" height="426.4px" preserveAspectRatio="none" style="width:1351px;height:426px;background:#FFFFFF;" version="1.1" viewBox="0 0 1351 426" width="1351.2px" zoomAndPan="magnify"><defs/><g><!--class GetListOfAllDevicesGroupedByFunctionalityController--><g id="elem_GetListOfAllDevicesGroupedByFunctionalityController"><rect codeLine="4" fill="#F1F1F1" height="112.8844" id="GetListOfAllDevicesGroupedByFunctionalityController" rx="2" ry="2" style="stroke:#181818;stroke-width:0.4000000000000001;" width="840.8" x="278.4" y="9.6"/><ellipse cx="559.8" cy="22.4" fill="#ADD1B2" rx="8.8" ry="8.8" style="stroke:#181818;stroke-width:0.8000000000000002;"/><path d="M562.0125,19.1 Q562.1375,18.925 562.2875,18.8375 Q562.4375,18.75 562.6125,18.75 Q562.9125,18.75 563.1,18.9625 Q563.2875,19.1625 563.2875,19.65 L563.2875,20.8125 Q563.2875,21.3 563.1,21.5125 Q562.9125,21.725 562.6125,21.725 Q562.3375,21.725 562.175,21.5625 Q562.0125,21.4125 561.925,21 Q561.8875,20.7125 561.7375,20.5625 Q561.475,20.2625 560.9875,20.0875 Q560.5,19.9125 560,19.9125 Q559.3875,19.9125 558.875,20.175 Q558.375,20.4375 557.975,21.0375 Q557.5875,21.6375 557.5875,22.4625 L557.5875,23.3375 Q557.5875,24.325 558.3,24.9875 Q559.0125,25.6375 560.2875,25.6375 Q561.0375,25.6375 561.5625,25.4375 Q561.875,25.3125 562.2125,24.9625 Q562.425,24.75 562.5375,24.6875 Q562.6625,24.625 562.825,24.625 Q563.0875,24.625 563.2875,24.8375 Q563.5,25.0375 563.5,25.3125 Q563.5,25.5875 563.225,25.9125 Q562.825,26.375 562.1875,26.6375 Q561.325,27 560.2875,27 Q559.075,27 558.1125,26.5 Q557.325,26.1 556.775,25.25 Q556.225,24.3875 556.225,23.3625 L556.225,22.4375 Q556.225,21.375 556.7125,20.4625 Q557.2125,19.5375 558.0875,19.05 Q558.9625,18.55 559.95,18.55 Q560.5375,18.55 561.05,18.6875 Q561.575,18.8125 562.0125,19.1 Z " fill="#000000"/><text fill="#000000" font-family="sans-serif" font-size="11.2" lengthAdjust="spacing" textLength="271.2" x="576.2" y="27.0375">GetListOfAllDevicesGroupedByFunctionalityController</text><line style="stroke:#181818;stroke-width:0.4000000000000001;" x1="279.2" x2="1118.4" y1="35.2" y2="35.2"/><rect fill="none" height="4.8" style="stroke:#C82930;stroke-width:0.8000000000000002;" width="4.8" x="284.8" y="44.6484"/><text fill="#000000" font-family="sans-serif" font-size="11.2" lengthAdjust="spacing" textLength="155.2" x="294.4" y="50.4859">_deviceService: DeviceService</text><rect fill="none" height="4.8" style="stroke:#C82930;stroke-width:0.8000000000000002;" width="4.8" x="284.8" y="59.5453"/><text fill="#000000" font-family="sans-serif" font-size="11.2" lengthAdjust="spacing" textLength="206.4" x="294.4" y="65.3828">_deviceTypeService: DeviceTypeService</text><rect fill="none" height="4.8" style="stroke:#C82930;stroke-width:0.8000000000000002;" width="4.8" x="284.8" y="74.4422"/><text fill="#000000" font-family="sans-serif" font-size="11.2" lengthAdjust="spacing" textLength="185.6" x="294.4" y="80.2797">_deviceAssembler: DeviceAssembler</text><line style="stroke:#181818;stroke-width:0.4000000000000001;" x1="279.2" x2="1118.4" y1="86.2906" y2="86.2906"/><ellipse cx="287.2" cy="98.1391" fill="#84BE84" rx="2.4" ry="2.4" style="stroke:#038048;stroke-width:0.8000000000000002;"/><text fill="#000000" font-family="sans-serif" font-size="11.2" lengthAdjust="spacing" textLength="820" x="294.4" y="101.5766">GetListOfAllDevicesGroupedByFunctionalityController(deviceService: DeviceService, deviceTypeService: DeviceTypeService, deviceAssembler: DeviceAssembler)</text><ellipse cx="287.2" cy="113.0359" fill="#84BE84" rx="2.4" ry="2.4" style="stroke:#038048;stroke-width:0.8000000000000002;"/><text fill="#000000" font-family="sans-serif" font-size="11.2" lengthAdjust="spacing" textLength="393.6" x="294.4" y="116.4734">getAllDevicesGroupedByFunctionality(): Map&lt;DeviceType, List&lt;DeviceDTO&gt;&gt;</text></g><!--class DeviceService--><g id="elem_DeviceService"><rect codeLine="14" fill="#F1F1F1" height="97.9875" id="DeviceService" rx="2" ry="2" style="stroke:#181818;stroke-width:0.4000000000000001;" width="410.4" x="4.8" y="166.4"/><ellipse cx="170.6" cy="179.2" fill="#ADD1B2" rx="8.8" ry="8.8" style="stroke:#181818;stroke-width:0.8000000000000002;"/><path d="M172.8125,175.9 Q172.9375,175.725 173.0875,175.6375 Q173.2375,175.55 173.4125,175.55 Q173.7125,175.55 173.9,175.7625 Q174.0875,175.9625 174.0875,176.45 L174.0875,177.6125 Q174.0875,178.1 173.9,178.3125 Q173.7125,178.525 173.4125,178.525 Q173.1375,178.525 172.975,178.3625 Q172.8125,178.2125 172.725,177.8 Q172.6875,177.5125 172.5375,177.3625 Q172.275,177.0625 171.7875,176.8875 Q171.3,176.7125 170.8,176.7125 Q170.1875,176.7125 169.675,176.975 Q169.175,177.2375 168.775,177.8375 Q168.3875,178.4375 168.3875,179.2625 L168.3875,180.1375 Q168.3875,181.125 169.1,181.7875 Q169.8125,182.4375 171.0875,182.4375 Q171.8375,182.4375 172.3625,182.2375 Q172.675,182.1125 173.0125,181.7625 Q173.225,181.55 173.3375,181.4875 Q173.4625,181.425 173.625,181.425 Q173.8875,181.425 174.0875,181.6375 Q174.3,181.8375 174.3,182.1125 Q174.3,182.3875 174.025,182.7125 Q173.625,183.175 172.9875,183.4375 Q172.125,183.8 171.0875,183.8 Q169.875,183.8 168.9125,183.3 Q168.125,182.9 167.575,182.05 Q167.025,181.1875 167.025,180.1625 L167.025,179.2375 Q167.025,178.175 167.5125,177.2625 Q168.0125,176.3375 168.8875,175.85 Q169.7625,175.35 170.75,175.35 Q171.3375,175.35 171.85,175.4875 Q172.375,175.6125 172.8125,175.9 Z " fill="#000000"/><text fill="#000000" font-family="sans-serif" font-size="11.2" lengthAdjust="spacing" textLength="72" x="187" y="183.8375">DeviceService</text><line style="stroke:#181818;stroke-width:0.4000000000000001;" x1="5.6" x2="414.4" y1="192" y2="192"/><rect fill="none" height="4.8" style="stroke:#C82930;stroke-width:0.8000000000000002;" width="4.8" x="11.2" y="201.4484"/><text fill="#000000" font-family="sans-serif" font-size="11.2" lengthAdjust="spacing" textLength="156.8" x="20.8" y="207.2859">_deviceFactory: DeviceFactory</text><rect fill="none" height="4.8" style="stroke:#C82930;stroke-width:0.8000000000000002;" width="4.8" x="11.2" y="216.3453"/><text fill="#000000" font-family="sans-serif" font-size="11.2" lengthAdjust="spacing" textLength="161.6" x="20.8" y="222.1828">_deviceRepo: DeviceRepository</text><line style="stroke:#181818;stroke-width:0.4000000000000001;" x1="5.6" x2="414.4" y1="228.1938" y2="228.1938"/><ellipse cx="13.6" cy="240.0422" fill="#84BE84" rx="2.4" ry="2.4" style="stroke:#038048;stroke-width:0.8000000000000002;"/><text fill="#000000" font-family="sans-serif" font-size="11.2" lengthAdjust="spacing" textLength="389.6" x="20.8" y="243.4797">DeviceService(factoryDevice: FactoryDevice, deviceRepo: DeviceRepository)</text><ellipse cx="13.6" cy="254.9391" fill="#84BE84" rx="2.4" ry="2.4" style="stroke:#038048;stroke-width:0.8000000000000002;"/><text fill="#000000" font-family="sans-serif" font-size="11.2" lengthAdjust="spacing" textLength="147.2" x="20.8" y="258.3766">getAllDevices(): List&lt;Device&gt;</text></g><!--class DeviceTypeService--><g id="elem_DeviceTypeService"><rect codeLine="21" fill="#F1F1F1" height="97.9875" id="DeviceTypeService" rx="2" ry="2" style="stroke:#181818;stroke-width:0.4000000000000001;" width="538.4" x="429.6" y="166.4"/><ellipse cx="646.6" cy="179.2" fill="#ADD1B2" rx="8.8" ry="8.8" style="stroke:#181818;stroke-width:0.8000000000000002;"/><path d="M648.8125,175.9 Q648.9375,175.725 649.0875,175.6375 Q649.2375,175.55 649.4125,175.55 Q649.7125,175.55 649.9,175.7625 Q650.0875,175.9625 650.0875,176.45 L650.0875,177.6125 Q650.0875,178.1 649.9,178.3125 Q649.7125,178.525 649.4125,178.525 Q649.1375,178.525 648.975,178.3625 Q648.8125,178.2125 648.725,177.8 Q648.6875,177.5125 648.5375,177.3625 Q648.275,177.0625 647.7875,176.8875 Q647.3,176.7125 646.8,176.7125 Q646.1875,176.7125 645.675,176.975 Q645.175,177.2375 644.775,177.8375 Q644.3875,178.4375 644.3875,179.2625 L644.3875,180.1375 Q644.3875,181.125 645.1,181.7875 Q645.8125,182.4375 647.0875,182.4375 Q647.8375,182.4375 648.3625,182.2375 Q648.675,182.1125 649.0125,181.7625 Q649.225,181.55 649.3375,181.4875 Q649.4625,181.425 649.625,181.425 Q649.8875,181.425 650.0875,181.6375 Q650.3,181.8375 650.3,182.1125 Q650.3,182.3875 650.025,182.7125 Q649.625,183.175 648.9875,183.4375 Q648.125,183.8 647.0875,183.8 Q645.875,183.8 644.9125,183.3 Q644.125,182.9 643.575,182.05 Q643.025,181.1875 643.025,180.1625 L643.025,179.2375 Q643.025,178.175 643.5125,177.2625 Q644.0125,176.3375 644.8875,175.85 Q645.7625,175.35 646.75,175.35 Q647.3375,175.35 647.85,175.4875 Q648.375,175.6125 648.8125,175.9 Z " fill="#000000"/><text fill="#000000" font-family="sans-serif" font-size="11.2" lengthAdjust="spacing" textLength="97.6" x="663" y="183.8375">DeviceTypeService</text><line style="stroke:#181818;stroke-width:0.4000000000000001;" x1="430.4" x2="967.2" y1="192" y2="192"/><rect fill="none" height="4.8" style="stroke:#C82930;stroke-width:0.8000000000000002;" width="4.8" x="436" y="201.4484"/><text fill="#000000" font-family="sans-serif" font-size="11.2" lengthAdjust="spacing" textLength="208" x="445.6" y="207.2859">_deviceTypeFactory: DeviceTypeFactory</text><rect fill="none" height="4.8" style="stroke:#C82930;stroke-width:0.8000000000000002;" width="4.8" x="436" y="216.3453"/><text fill="#000000" font-family="sans-serif" font-size="11.2" lengthAdjust="spacing" textLength="212.8" x="445.6" y="222.1828">_deviceTypeRepo: DeviceTypeRepository</text><line style="stroke:#181818;stroke-width:0.4000000000000001;" x1="430.4" x2="967.2" y1="228.1938" y2="228.1938"/><ellipse cx="438.4" cy="240.0422" fill="#84BE84" rx="2.4" ry="2.4" style="stroke:#038048;stroke-width:0.8000000000000002;"/><text fill="#000000" font-family="sans-serif" font-size="11.2" lengthAdjust="spacing" textLength="517.6" x="445.6" y="243.4797">DeviceTypeService(factoryDeviceType: FactoryDeviceType, deviceTypeRepo: DeviceTypeRepository)</text><ellipse cx="438.4" cy="254.9391" fill="#84BE84" rx="2.4" ry="2.4" style="stroke:#038048;stroke-width:0.8000000000000002;"/><text fill="#000000" font-family="sans-serif" font-size="11.2" lengthAdjust="spacing" textLength="319.2" x="445.6" y="258.3766">getDeviceTypeByID(deviceTypeID: DeviceTypeID): DeviceType</text></g><!--class DeviceRepository--><g id="elem_DeviceRepository"><rect codeLine="28" fill="#F1F1F1" height="83.0906" id="DeviceRepository" rx="2" ry="2" style="stroke:#181818;stroke-width:0.4000000000000001;" width="201.6" x="109.2" y="322.8"/><ellipse cx="162.2" cy="335.6" fill="#ADD1B2" rx="8.8" ry="8.8" style="stroke:#181818;stroke-width:0.8000000000000002;"/><path d="M164.4125,332.3 Q164.5375,332.125 164.6875,332.0375 Q164.8375,331.95 165.0125,331.95 Q165.3125,331.95 165.5,332.1625 Q165.6875,332.3625 165.6875,332.85 L165.6875,334.0125 Q165.6875,334.5 165.5,334.7125 Q165.3125,334.925 165.0125,334.925 Q164.7375,334.925 164.575,334.7625 Q164.4125,334.6125 164.325,334.2 Q164.2875,333.9125 164.1375,333.7625 Q163.875,333.4625 163.3875,333.2875 Q162.9,333.1125 162.4,333.1125 Q161.7875,333.1125 161.275,333.375 Q160.775,333.6375 160.375,334.2375 Q159.9875,334.8375 159.9875,335.6625 L159.9875,336.5375 Q159.9875,337.525 160.7,338.1875 Q161.4125,338.8375 162.6875,338.8375 Q163.4375,338.8375 163.9625,338.6375 Q164.275,338.5125 164.6125,338.1625 Q164.825,337.95 164.9375,337.8875 Q165.0625,337.825 165.225,337.825 Q165.4875,337.825 165.6875,338.0375 Q165.9,338.2375 165.9,338.5125 Q165.9,338.7875 165.625,339.1125 Q165.225,339.575 164.5875,339.8375 Q163.725,340.2 162.6875,340.2 Q161.475,340.2 160.5125,339.7 Q159.725,339.3 159.175,338.45 Q158.625,337.5875 158.625,336.5625 L158.625,335.6375 Q158.625,334.575 159.1125,333.6625 Q159.6125,332.7375 160.4875,332.25 Q161.3625,331.75 162.35,331.75 Q162.9375,331.75 163.45,331.8875 Q163.975,332.0125 164.4125,332.3 Z " fill="#000000"/><text fill="#000000" font-family="sans-serif" font-size="11.2" lengthAdjust="spacing" textLength="88.8" x="178.6" y="340.2375">DeviceRepository</text><line style="stroke:#181818;stroke-width:0.4000000000000001;" x1="110" x2="310" y1="348.4" y2="348.4"/><rect fill="none" height="4.8" style="stroke:#C82930;stroke-width:0.8000000000000002;" width="4.8" x="115.6" y="357.8484"/><text fill="#000000" font-family="sans-serif" font-size="11.2" lengthAdjust="spacing" textLength="180.8" x="125.2" y="363.6859">_data: HashMap&lt;DeviceID, Device&gt;</text><line style="stroke:#181818;stroke-width:0.4000000000000001;" x1="110" x2="310" y1="369.6969" y2="369.6969"/><ellipse cx="118" cy="381.5453" fill="#84BE84" rx="2.4" ry="2.4" style="stroke:#038048;stroke-width:0.8000000000000002;"/><text fill="#000000" font-family="sans-serif" font-size="11.2" lengthAdjust="spacing" textLength="96.8" x="125.2" y="384.9828">DeviceRepository()</text><ellipse cx="118" cy="396.4422" fill="#84BE84" rx="2.4" ry="2.4" style="stroke:#038048;stroke-width:0.8000000000000002;"/><text fill="#000000" font-family="sans-serif" font-size="11.2" lengthAdjust="spacing" textLength="109.6" x="125.2" y="399.8797">findAll(): List&lt;Device&gt;</text></g><!--class DeviceTypeRepository--><g id="elem_DeviceTypeRepository"><rect codeLine="34" fill="#F1F1F1" height="83.0906" id="DeviceTypeRepository" rx="2" ry="2" style="stroke:#181818;stroke-width:0.4000000000000001;" width="252.8" x="572.4" y="322.8"/><ellipse cx="638.2" cy="335.6" fill="#ADD1B2" rx="8.8" ry="8.8" style="stroke:#181818;stroke-width:0.8000000000000002;"/><path d="M640.4125,332.3 Q640.5375,332.125 640.6875,332.0375 Q640.8375,331.95 641.0125,331.95 Q641.3125,331.95 641.5,332.1625 Q641.6875,332.3625 641.6875,332.85 L641.6875,334.0125 Q641.6875,334.5 641.5,334.7125 Q641.3125,334.925 641.0125,334.925 Q640.7375,334.925 640.575,334.7625 Q640.4125,334.6125 640.325,334.2 Q640.2875,333.9125 640.1375,333.7625 Q639.875,333.4625 639.3875,333.2875 Q638.9,333.1125 638.4,333.1125 Q637.7875,333.1125 637.275,333.375 Q636.775,333.6375 636.375,334.2375 Q635.9875,334.8375 635.9875,335.6625 L635.9875,336.5375 Q635.9875,337.525 636.7,338.1875 Q637.4125,338.8375 638.6875,338.8375 Q639.4375,338.8375 639.9625,338.6375 Q640.275,338.5125 640.6125,338.1625 Q640.825,337.95 640.9375,337.8875 Q641.0625,337.825 641.225,337.825 Q641.4875,337.825 641.6875,338.0375 Q641.9,338.2375 641.9,338.5125 Q641.9,338.7875 641.625,339.1125 Q641.225,339.575 640.5875,339.8375 Q639.725,340.2 638.6875,340.2 Q637.475,340.2 636.5125,339.7 Q635.725,339.3 635.175,338.45 Q634.625,337.5875 634.625,336.5625 L634.625,335.6375 Q634.625,334.575 635.1125,333.6625 Q635.6125,332.7375 636.4875,332.25 Q637.3625,331.75 638.35,331.75 Q638.9375,331.75 639.45,331.8875 Q639.975,332.0125 640.4125,332.3 Z " fill="#000000"/><text fill="#000000" font-family="sans-serif" font-size="11.2" lengthAdjust="spacing" textLength="114.4" x="654.6" y="340.2375">DeviceTypeRepository</text><line style="stroke:#181818;stroke-width:0.4000000000000001;" x1="573.2" x2="824.4" y1="348.4" y2="348.4"/><rect fill="none" height="4.8" style="stroke:#C82930;stroke-width:0.8000000000000002;" width="4.8" x="578.8" y="357.8484"/><text fill="#000000" font-family="sans-serif" font-size="11.2" lengthAdjust="spacing" textLength="232" x="588.4" y="363.6859">_data: HashMap&lt;DeviceTypeID, DeviceType&gt;</text><line style="stroke:#181818;stroke-width:0.4000000000000001;" x1="573.2" x2="824.4" y1="369.6969" y2="369.6969"/><ellipse cx="581.2" cy="381.5453" fill="#84BE84" rx="2.4" ry="2.4" style="stroke:#038048;stroke-width:0.8000000000000002;"/><text fill="#000000" font-family="sans-serif" font-size="11.2" lengthAdjust="spacing" textLength="122.4" x="588.4" y="384.9828">DeviceTypeRepository()</text><ellipse cx="581.2" cy="396.4422" fill="#84BE84" rx="2.4" ry="2.4" style="stroke:#038048;stroke-width:0.8000000000000002;"/><text fill="#000000" font-family="sans-serif" font-size="11.2" lengthAdjust="spacing" textLength="188.8" x="588.4" y="399.8797">ofIdentity(deviceTypeID): DeviceType</text></g><!--class DeviceAssembler--><g id="elem_DeviceAssembler"><rect codeLine="40" fill="#F1F1F1" height="68.1938" id="DeviceAssembler" rx="2" ry="2" style="stroke:#181818;stroke-width:0.4000000000000001;" width="241.6" x="982.8" y="181.2"/><ellipse cx="1056.6" cy="194" fill="#ADD1B2" rx="8.8" ry="8.8" style="stroke:#181818;stroke-width:0.8000000000000002;"/><path d="M1058.8125,190.7 Q1058.9375,190.525 1059.0875,190.4375 Q1059.2375,190.35 1059.4125,190.35 Q1059.7125,190.35 1059.9,190.5625 Q1060.0875,190.7625 1060.0875,191.25 L1060.0875,192.4125 Q1060.0875,192.9 1059.9,193.1125 Q1059.7125,193.325 1059.4125,193.325 Q1059.1375,193.325 1058.975,193.1625 Q1058.8125,193.0125 1058.725,192.6 Q1058.6875,192.3125 1058.5375,192.1625 Q1058.275,191.8625 1057.7875,191.6875 Q1057.3,191.5125 1056.8,191.5125 Q1056.1875,191.5125 1055.675,191.775 Q1055.175,192.0375 1054.775,192.6375 Q1054.3875,193.2375 1054.3875,194.0625 L1054.3875,194.9375 Q1054.3875,195.925 1055.1,196.5875 Q1055.8125,197.2375 1057.0875,197.2375 Q1057.8375,197.2375 1058.3625,197.0375 Q1058.675,196.9125 1059.0125,196.5625 Q1059.225,196.35 1059.3375,196.2875 Q1059.4625,196.225 1059.625,196.225 Q1059.8875,196.225 1060.0875,196.4375 Q1060.3,196.6375 1060.3,196.9125 Q1060.3,197.1875 1060.025,197.5125 Q1059.625,197.975 1058.9875,198.2375 Q1058.125,198.6 1057.0875,198.6 Q1055.875,198.6 1054.9125,198.1 Q1054.125,197.7 1053.575,196.85 Q1053.025,195.9875 1053.025,194.9625 L1053.025,194.0375 Q1053.025,192.975 1053.5125,192.0625 Q1054.0125,191.1375 1054.8875,190.65 Q1055.7625,190.15 1056.75,190.15 Q1057.3375,190.15 1057.85,190.2875 Q1058.375,190.4125 1058.8125,190.7 Z " fill="#000000"/><text fill="#000000" font-family="sans-serif" font-size="11.2" lengthAdjust="spacing" textLength="87.2" x="1073" y="198.6375">DeviceAssembler</text><line style="stroke:#181818;stroke-width:0.4000000000000001;" x1="983.6" x2="1223.6" y1="206.8" y2="206.8"/><line style="stroke:#181818;stroke-width:0.4000000000000001;" x1="983.6" x2="1223.6" y1="213.2" y2="213.2"/><ellipse cx="991.6" cy="225.0484" fill="#84BE84" rx="2.4" ry="2.4" style="stroke:#038048;stroke-width:0.8000000000000002;"/><text fill="#000000" font-family="sans-serif" font-size="11.2" lengthAdjust="spacing" textLength="95.2" x="998.8" y="228.4859">DeviceAssembler()</text><ellipse cx="991.6" cy="239.9453" fill="#84BE84" rx="2.4" ry="2.4" style="stroke:#038048;stroke-width:0.8000000000000002;"/><text fill="#000000" font-family="sans-serif" font-size="11.2" lengthAdjust="spacing" textLength="220.8" x="998.8" y="243.3828">domainToDTO(device: Device): DeviceDTO</text></g><!--class DeviceDTO--><g id="elem_DeviceDTO"><rect codeLine="45" fill="#F1F1F1" height="112.8844" id="DeviceDTO" rx="2" ry="2" style="stroke:#181818;stroke-width:0.4000000000000001;" width="484" x="861.6" y="308"/><ellipse cx="1071" cy="320.8" fill="#ADD1B2" rx="8.8" ry="8.8" style="stroke:#181818;stroke-width:0.8000000000000002;"/><path d="M1073.2125,317.5 Q1073.3375,317.325 1073.4875,317.2375 Q1073.6375,317.15 1073.8125,317.15 Q1074.1125,317.15 1074.3,317.3625 Q1074.4875,317.5625 1074.4875,318.05 L1074.4875,319.2125 Q1074.4875,319.7 1074.3,319.9125 Q1074.1125,320.125 1073.8125,320.125 Q1073.5375,320.125 1073.375,319.9625 Q1073.2125,319.8125 1073.125,319.4 Q1073.0875,319.1125 1072.9375,318.9625 Q1072.675,318.6625 1072.1875,318.4875 Q1071.7,318.3125 1071.2,318.3125 Q1070.5875,318.3125 1070.075,318.575 Q1069.575,318.8375 1069.175,319.4375 Q1068.7875,320.0375 1068.7875,320.8625 L1068.7875,321.7375 Q1068.7875,322.725 1069.5,323.3875 Q1070.2125,324.0375 1071.4875,324.0375 Q1072.2375,324.0375 1072.7625,323.8375 Q1073.075,323.7125 1073.4125,323.3625 Q1073.625,323.15 1073.7375,323.0875 Q1073.8625,323.025 1074.025,323.025 Q1074.2875,323.025 1074.4875,323.2375 Q1074.7,323.4375 1074.7,323.7125 Q1074.7,323.9875 1074.425,324.3125 Q1074.025,324.775 1073.3875,325.0375 Q1072.525,325.4 1071.4875,325.4 Q1070.275,325.4 1069.3125,324.9 Q1068.525,324.5 1067.975,323.65 Q1067.425,322.7875 1067.425,321.7625 L1067.425,320.8375 Q1067.425,319.775 1067.9125,318.8625 Q1068.4125,317.9375 1069.2875,317.45 Q1070.1625,316.95 1071.15,316.95 Q1071.7375,316.95 1072.25,317.0875 Q1072.775,317.2125 1073.2125,317.5 Z " fill="#000000"/><text fill="#000000" font-family="sans-serif" font-size="11.2" lengthAdjust="spacing" textLength="58.4" x="1087.4" y="325.4375">DeviceDTO</text><line style="stroke:#181818;stroke-width:0.4000000000000001;" x1="862.4" x2="1344.8" y1="333.6" y2="333.6"/><ellipse cx="870.4" cy="345.4484" fill="none" rx="2.4" ry="2.4" style="stroke:#038048;stroke-width:0.8000000000000002;"/><text fill="#000000" font-family="sans-serif" font-size="11.2" lengthAdjust="spacing" textLength="44.8" x="877.6" y="348.8859">id: String</text><ellipse cx="870.4" cy="360.3453" fill="none" rx="2.4" ry="2.4" style="stroke:#038048;stroke-width:0.8000000000000002;"/><text fill="#000000" font-family="sans-serif" font-size="11.2" lengthAdjust="spacing" textLength="72" x="877.6" y="363.7828">roomID: String</text><ellipse cx="870.4" cy="375.2422" fill="none" rx="2.4" ry="2.4" style="stroke:#038048;stroke-width:0.8000000000000002;"/><text fill="#000000" font-family="sans-serif" font-size="11.2" lengthAdjust="spacing" textLength="64" x="877.6" y="378.6797">name: String</text><ellipse cx="870.4" cy="390.1391" fill="none" rx="2.4" ry="2.4" style="stroke:#038048;stroke-width:0.8000000000000002;"/><text fill="#000000" font-family="sans-serif" font-size="11.2" lengthAdjust="spacing" textLength="100.8" x="877.6" y="393.5766">deviceStatus: String</text><line style="stroke:#181818;stroke-width:0.4000000000000001;" x1="862.4" x2="1344.8" y1="399.5875" y2="399.5875"/><ellipse cx="870.4" cy="411.4359" fill="#84BE84" rx="2.4" ry="2.4" style="stroke:#038048;stroke-width:0.8000000000000002;"/><text fill="#000000" font-family="sans-serif" font-size="11.2" lengthAdjust="spacing" textLength="463.2" x="877.6" y="414.8734">DeviceDTO(id: DeviceID, roomID: RoomID, name: DeviceName, deviceStatus: DeviceStatus)</text></g><polygon fill="#181818" points="369.2876,166.3009,377.1052,167.2829,373.1168,165.1446,375.2552,161.1562,369.2876,166.3009" style="stroke:#181818;stroke-width:0.8000000000000002;"/><path d="M514.354,122.4961 C466.6128,136.9122 420.2137,150.923 373.8827,164.9133 " fill="none" style="stroke:#181818;stroke-width:0.8000000000000002;stroke-dasharray:7.0,7.0;"/><text fill="#000000" font-family="sans-serif" font-size="10.4" lengthAdjust="spacing" textLength="22.4" x="455.6" y="148.8227">uses</text><text fill="#000000" font-family="sans-serif" font-size="10.4" lengthAdjust="spacing" textLength="5.6" x="362.8876" y="163.1235">1</text><text fill="#000000" font-family="sans-serif" font-size="10.4" lengthAdjust="spacing" textLength="5.6" x="507.954" y="134.5187">1</text><polygon fill="#181818" points="698.8,166.249,702,159.049,698.8,162.249,695.6,159.049,698.8,166.249" style="stroke:#181818;stroke-width:0.8000000000000002;"/><path d="M698.8,122.6012 C698.8,136.9692 698.8,147.5065 698.8,161.449 " fill="none" style="stroke:#181818;stroke-width:0.8000000000000002;stroke-dasharray:7.0,7.0;"/><text fill="#000000" font-family="sans-serif" font-size="10.4" lengthAdjust="spacing" textLength="22.4" x="699.6" y="148.8227">uses</text><text fill="#000000" font-family="sans-serif" font-size="10.4" lengthAdjust="spacing" textLength="5.6" x="692.4" y="163.0716">1</text><text fill="#000000" font-family="sans-serif" font-size="10.4" lengthAdjust="spacing" textLength="5.6" x="692.4" y="134.6239">1</text><polygon fill="#181818" points="210,322.7152,213.2,315.5152,210,318.7152,206.8,315.5152,210,322.7152" style="stroke:#181818;stroke-width:0.8000000000000002;"/><path d="M210,264.1255 C210,283.0539 210,299.7564 210,317.9152 " fill="none" style="stroke:#181818;stroke-width:0.8000000000000002;stroke-dasharray:7.0,7.0;"/><text fill="#000000" font-family="sans-serif" font-size="10.4" lengthAdjust="spacing" textLength="22.4" x="210.8" y="290.4227">uses</text><text fill="#000000" font-family="sans-serif" font-size="10.4" lengthAdjust="spacing" textLength="5.6" x="203.6" y="319.5379">1</text><text fill="#000000" font-family="sans-serif" font-size="10.4" lengthAdjust="spacing" textLength="5.6" x="203.6" y="276.1482">1</text><polygon fill="#181818" points="698.8,322.7152,702,315.5152,698.8,318.7152,695.6,315.5152,698.8,322.7152" style="stroke:#181818;stroke-width:0.8000000000000002;"/><path d="M698.8,264.1255 C698.8,283.0539 698.8,299.7564 698.8,317.9152 " fill="none" style="stroke:#181818;stroke-width:0.8000000000000002;stroke-dasharray:7.0,7.0;"/><text fill="#000000" font-family="sans-serif" font-size="10.4" lengthAdjust="spacing" textLength="22.4" x="699.6" y="290.4227">uses</text><text fill="#000000" font-family="sans-serif" font-size="10.4" lengthAdjust="spacing" textLength="5.6" x="692.4" y="319.5379">1</text><text fill="#000000" font-family="sans-serif" font-size="10.4" lengthAdjust="spacing" textLength="5.6" x="692.4" y="276.1482">1</text><polygon fill="#181818" points="1014.6105,181.0989,1008.9743,175.5931,1010.8606,179.7068,1006.747,181.5931,1014.6105,181.0989" style="stroke:#181818;stroke-width:0.8000000000000002;"/><path d="M853.9974,122.486 C893.4298,136.7225 935.7022,152.0605 974.8,166.4 C987.6824,171.1247 996.7757,174.4781 1010.1106,179.4284 " fill="none" style="stroke:#181818;stroke-width:0.8000000000000002;stroke-dasharray:7.0,7.0;"/><text fill="#000000" font-family="sans-serif" font-size="10.4" lengthAdjust="spacing" textLength="22.4" x="930.8" y="148.8227">uses</text><text fill="#000000" font-family="sans-serif" font-size="10.4" lengthAdjust="spacing" textLength="5.6" x="1008.2105" y="177.9215">1</text><text fill="#000000" font-family="sans-serif" font-size="10.4" lengthAdjust="spacing" textLength="5.6" x="847.5974" y="134.5086">1</text><polygon fill="#181818" points="1103.6,307.9483,1106.8,300.7483,1103.6,303.9483,1100.4,300.7483,1103.6,307.9483" style="stroke:#181818;stroke-width:0.8000000000000002;"/><path d="M1103.6,249.4927 C1103.6,266.7589 1103.6,283.4712 1103.6,303.1483 " fill="none" style="stroke:#181818;stroke-width:0.8000000000000002;stroke-dasharray:7.0,7.0;"/><text fill="#000000" font-family="sans-serif" font-size="10.4" lengthAdjust="spacing" textLength="34.4" x="1104.4" y="290.4227">creates</text><text fill="#000000" font-family="sans-serif" font-size="10.4" lengthAdjust="spacing" textLength="4" x="1098.8" y="304.771">*</text><text fill="#000000" font-family="sans-serif" font-size="10.4" lengthAdjust="spacing" textLength="5.6" x="1097.2" y="261.5154">1</text><!--SRC=[hLHDRvmm4BtpAzozbEsINVMAAgIargP8RICbUu-cuDrO0XlPfXAg-j-B0UCFjYsAmWNcwyrxOpFlNvHgP7euD1KmrTRLlk3reQX0ofkImaL07Rrh15ngG1Lql5L8raG1WoWQij0zKL-fL0_dswh2v2SjYBmNl6r8UTSTMrOeoXbKL7MVELE2LnKHw5U4-kVckHpoduZGhnHXr_HIJbqJfZakB_LMIbB_wBkOnDaH3NcxLn2E_qKqGMiucgo_qzkEz2v4_OzOl4tHDsW-sIO9qf8c1puzP5aK_JOdvB4DPd-4Gd7H6JAJwQKyaeQRkFwMT4xPUT3nUQmUdIawkgRHVntjcdQjqb6LXOASuGQYT2GGvhWMgIubOoz5EkryeJeGY1sFP4q7Azn6xxeSnxOunsvfZhUk6Gx58jkPW88KVG7vOkzCZXDankfejDNnHEnCMTaVoPgpMDbw594uXLauvYKDVivBmfI- - -NQKSm_raHd5xWDTibheEp4-zzc0ZUeCtmV2j5xby6bPOgUbA3iCjg2yreVckjZK1FVCwqK1QgLVcHk46jaUs06zt5u9sZ47EFV-szpummcTgojvl-QLRtvk47xVJQyiRy5Mqda6s5wktF0zPVMiiBU4Q_0NGhNsomAtqQ1izSTElOEpXKVDlO6fQWG11IHVm00]--></g></svg>