<?xml version="1.0" encoding="us-ascii" standalone="no"?><svg xmlns="http://www.w3.org/2000/svg" xmlns:xlink="http://www.w3.org/1999/xlink" contentStyleType="text/css" height="225px" preserveAspectRatio="none" style="width:354px;height:225px;background:#FFFFFF;" version="1.1" viewBox="0 0 354 225" width="354px" zoomAndPan="magnify"><defs/><g><!--class WindSensor--><g id="elem_WindSensor"><rect codeLine="3" fill="#F1F1F1" height="85.2422" id="WindSensor" rx="2.5" ry="2.5" style="stroke:#181818;stroke-width:0.5;" width="109" x="103.5" y="12"/><ellipse cx="118.5" cy="28" fill="#ADD1B2" rx="11" ry="11" style="stroke:#181818;stroke-width:1.0;"/><path d="M121.2656,23.875 Q121.4219,23.6563 121.6094,23.5469 Q121.7969,23.4375 122.0156,23.4375 Q122.3906,23.4375 122.625,23.7031 Q122.8594,23.9531 122.8594,24.5625 L122.8594,26.0156 Q122.8594,26.625 122.625,26.8906 Q122.3906,27.1563 122.0156,27.1563 Q121.6719,27.1563 121.4688,26.9531 Q121.2656,26.7656 121.1563,26.25 Q121.1094,25.8906 120.9219,25.7031 Q120.5938,25.3281 119.9844,25.1094 Q119.375,24.8906 118.75,24.8906 Q117.9844,24.8906 117.3438,25.2188 Q116.7188,25.5469 116.2188,26.2969 Q115.7344,27.0469 115.7344,28.0781 L115.7344,29.1719 Q115.7344,30.4063 116.625,31.2344 Q117.5156,32.0469 119.1094,32.0469 Q120.0469,32.0469 120.7031,31.7969 Q121.0938,31.6406 121.5156,31.2031 Q121.7813,30.9375 121.9219,30.8594 Q122.0781,30.7813 122.2813,30.7813 Q122.6094,30.7813 122.8594,31.0469 Q123.125,31.2969 123.125,31.6406 Q123.125,31.9844 122.7813,32.3906 Q122.2813,32.9688 121.4844,33.2969 Q120.4063,33.75 119.1094,33.75 Q117.5938,33.75 116.3906,33.125 Q115.4063,32.625 114.7188,31.5625 Q114.0313,30.4844 114.0313,29.2031 L114.0313,28.0469 Q114.0313,26.7188 114.6406,25.5781 Q115.2656,24.4219 116.3594,23.8125 Q117.4531,23.1875 118.6875,23.1875 Q119.4219,23.1875 120.0625,23.3594 Q120.7188,23.5156 121.2656,23.875 Z " fill="#000000"/><text fill="#000000" font-family="sans-serif" font-size="14" lengthAdjust="spacing" textLength="77" x="132.5" y="33.7969">WindSensor</text><line style="stroke:#181818;stroke-width:0.5;" x1="104.5" x2="211.5" y1="44" y2="44"/><rect fill="none" height="6" style="stroke:#C82930;stroke-width:1.0;" width="6" x="111.5" y="55.8105"/><text fill="#000000" font-family="sans-serif" font-size="14" lengthAdjust="spacing" textLength="54" x="123.5" y="63.1074">sensorId</text><rect fill="none" height="6" style="stroke:#C82930;stroke-width:1.0;" width="6" x="111.5" y="74.4316"/><text fill="#000000" font-family="sans-serif" font-size="14" lengthAdjust="spacing" textLength="35" x="123.5" y="81.7285">name</text><line style="stroke:#181818;stroke-width:0.5;" x1="104.5" x2="211.5" y1="89.2422" y2="89.2422"/></g><!--class Device--><g id="elem_Device"><rect codeLine="8" fill="#F1F1F1" height="66.6211" id="Device" rx="2.5" ry="2.5" style="stroke:#181818;stroke-width:0.5;" width="78" x="6" y="152"/><ellipse cx="22.35" cy="168" fill="#ADD1B2" rx="11" ry="11" style="stroke:#181818;stroke-width:1.0;"/><path d="M25.1156,163.875 Q25.2719,163.6563 25.4594,163.5469 Q25.6469,163.4375 25.8656,163.4375 Q26.2406,163.4375 26.475,163.7031 Q26.7094,163.9531 26.7094,164.5625 L26.7094,166.0156 Q26.7094,166.625 26.475,166.8906 Q26.2406,167.1563 25.8656,167.1563 Q25.5219,167.1563 25.3188,166.9531 Q25.1156,166.7656 25.0063,166.25 Q24.9594,165.8906 24.7719,165.7031 Q24.4438,165.3281 23.8344,165.1094 Q23.225,164.8906 22.6,164.8906 Q21.8344,164.8906 21.1938,165.2188 Q20.5688,165.5469 20.0688,166.2969 Q19.5844,167.0469 19.5844,168.0781 L19.5844,169.1719 Q19.5844,170.4063 20.475,171.2344 Q21.3656,172.0469 22.9594,172.0469 Q23.8969,172.0469 24.5531,171.7969 Q24.9438,171.6406 25.3656,171.2031 Q25.6313,170.9375 25.7719,170.8594 Q25.9281,170.7813 26.1313,170.7813 Q26.4594,170.7813 26.7094,171.0469 Q26.975,171.2969 26.975,171.6406 Q26.975,171.9844 26.6313,172.3906 Q26.1313,172.9688 25.3344,173.2969 Q24.2563,173.75 22.9594,173.75 Q21.4438,173.75 20.2406,173.125 Q19.2563,172.625 18.5688,171.5625 Q17.8813,170.4844 17.8813,169.2031 L17.8813,168.0469 Q17.8813,166.7188 18.4906,165.5781 Q19.1156,164.4219 20.2094,163.8125 Q21.3031,163.1875 22.5375,163.1875 Q23.2719,163.1875 23.9125,163.3594 Q24.5688,163.5156 25.1156,163.875 Z " fill="#000000"/><text fill="#000000" font-family="sans-serif" font-size="14" lengthAdjust="spacing" textLength="43" x="36.65" y="173.7969">Device</text><line style="stroke:#181818;stroke-width:0.5;" x1="7" x2="83" y1="184" y2="184"/><rect fill="none" height="6" style="stroke:#C82930;stroke-width:1.0;" width="6" x="14" y="195.8105"/><text fill="#000000" font-family="sans-serif" font-size="14" lengthAdjust="spacing" textLength="52" x="26" y="203.1074">deviceId</text><line style="stroke:#181818;stroke-width:0.5;" x1="7" x2="83" y1="210.6211" y2="210.6211"/></g><!--class SensorType--><g id="elem_SensorType"><rect codeLine="12" fill="#F1F1F1" height="66.6211" id="SensorType" rx="2.5" ry="2.5" style="stroke:#181818;stroke-width:0.5;" width="112" x="102" y="152"/><ellipse cx="118.35" cy="168" fill="#ADD1B2" rx="11" ry="11" style="stroke:#181818;stroke-width:1.0;"/><path d="M121.1156,163.875 Q121.2719,163.6563 121.4594,163.5469 Q121.6469,163.4375 121.8656,163.4375 Q122.2406,163.4375 122.475,163.7031 Q122.7094,163.9531 122.7094,164.5625 L122.7094,166.0156 Q122.7094,166.625 122.475,166.8906 Q122.2406,167.1563 121.8656,167.1563 Q121.5219,167.1563 121.3188,166.9531 Q121.1156,166.7656 121.0063,166.25 Q120.9594,165.8906 120.7719,165.7031 Q120.4438,165.3281 119.8344,165.1094 Q119.225,164.8906 118.6,164.8906 Q117.8344,164.8906 117.1938,165.2188 Q116.5688,165.5469 116.0688,166.2969 Q115.5844,167.0469 115.5844,168.0781 L115.5844,169.1719 Q115.5844,170.4063 116.475,171.2344 Q117.3656,172.0469 118.9594,172.0469 Q119.8969,172.0469 120.5531,171.7969 Q120.9438,171.6406 121.3656,171.2031 Q121.6313,170.9375 121.7719,170.8594 Q121.9281,170.7813 122.1313,170.7813 Q122.4594,170.7813 122.7094,171.0469 Q122.975,171.2969 122.975,171.6406 Q122.975,171.9844 122.6313,172.3906 Q122.1313,172.9688 121.3344,173.2969 Q120.2563,173.75 118.9594,173.75 Q117.4438,173.75 116.2406,173.125 Q115.2563,172.625 114.5688,171.5625 Q113.8813,170.4844 113.8813,169.2031 L113.8813,168.0469 Q113.8813,166.7188 114.4906,165.5781 Q115.1156,164.4219 116.2094,163.8125 Q117.3031,163.1875 118.5375,163.1875 Q119.2719,163.1875 119.9125,163.3594 Q120.5688,163.5156 121.1156,163.875 Z " fill="#000000"/><text fill="#000000" font-family="sans-serif" font-size="14" lengthAdjust="spacing" textLength="77" x="132.65" y="173.7969">SensorType</text><line style="stroke:#181818;stroke-width:0.5;" x1="103" x2="213" y1="184" y2="184"/><rect fill="none" height="6" style="stroke:#C82930;stroke-width:1.0;" width="6" x="110" y="195.8105"/><text fill="#000000" font-family="sans-serif" font-size="14" lengthAdjust="spacing" textLength="86" x="122" y="203.1074">sensorTypeId</text><line style="stroke:#181818;stroke-width:0.5;" x1="103" x2="213" y1="210.6211" y2="210.6211"/></g><!--class SensorModel--><g id="elem_SensorModel"><rect codeLine="16" fill="#F1F1F1" height="66.6211" id="SensorModel" rx="2.5" ry="2.5" style="stroke:#181818;stroke-width:0.5;" width="115" x="232.5" y="152"/><ellipse cx="247.5" cy="168" fill="#ADD1B2" rx="11" ry="11" style="stroke:#181818;stroke-width:1.0;"/><path d="M250.2656,163.875 Q250.4219,163.6563 250.6094,163.5469 Q250.7969,163.4375 251.0156,163.4375 Q251.3906,163.4375 251.625,163.7031 Q251.8594,163.9531 251.8594,164.5625 L251.8594,166.0156 Q251.8594,166.625 251.625,166.8906 Q251.3906,167.1563 251.0156,167.1563 Q250.6719,167.1563 250.4688,166.9531 Q250.2656,166.7656 250.1563,166.25 Q250.1094,165.8906 249.9219,165.7031 Q249.5938,165.3281 248.9844,165.1094 Q248.375,164.8906 247.75,164.8906 Q246.9844,164.8906 246.3438,165.2188 Q245.7188,165.5469 245.2188,166.2969 Q244.7344,167.0469 244.7344,168.0781 L244.7344,169.1719 Q244.7344,170.4063 245.625,171.2344 Q246.5156,172.0469 248.1094,172.0469 Q249.0469,172.0469 249.7031,171.7969 Q250.0938,171.6406 250.5156,171.2031 Q250.7813,170.9375 250.9219,170.8594 Q251.0781,170.7813 251.2813,170.7813 Q251.6094,170.7813 251.8594,171.0469 Q252.125,171.2969 252.125,171.6406 Q252.125,171.9844 251.7813,172.3906 Q251.2813,172.9688 250.4844,173.2969 Q249.4063,173.75 248.1094,173.75 Q246.5938,173.75 245.3906,173.125 Q244.4063,172.625 243.7188,171.5625 Q243.0313,170.4844 243.0313,169.2031 L243.0313,168.0469 Q243.0313,166.7188 243.6406,165.5781 Q244.2656,164.4219 245.3594,163.8125 Q246.4531,163.1875 247.6875,163.1875 Q248.4219,163.1875 249.0625,163.3594 Q249.7188,163.5156 250.2656,163.875 Z " fill="#000000"/><text fill="#000000" font-family="sans-serif" font-size="14" lengthAdjust="spacing" textLength="83" x="261.5" y="173.7969">SensorModel</text><line style="stroke:#181818;stroke-width:0.5;" x1="233.5" x2="346.5" y1="184" y2="184"/><rect fill="none" height="6" style="stroke:#C82930;stroke-width:1.0;" width="6" x="240.5" y="195.8105"/><text fill="#000000" font-family="sans-serif" font-size="14" lengthAdjust="spacing" textLength="67" x="252.5" y="203.1074">modelPath</text><line style="stroke:#181818;stroke-width:0.5;" x1="233.5" x2="346.5" y1="210.6211" y2="210.6211"/></g><polygon fill="#181818" points="72.3934,151.7804,81.2597,147.4921,75.6224,147.9629,75.1516,142.3257,72.3934,151.7804" style="stroke:#181818;stroke-width:1.0;"/><path d="M119.7673,97.2772 C114.4406,103.1992 109.0615,109.234 104,115 C93.5586,126.8947 86.1467,135.5206 76.2682,147.1994 " fill="none" style="stroke:#181818;stroke-width:1.0;"/><text fill="#000000" font-family="sans-serif" font-size="13" lengthAdjust="spacing" textLength="48" x="105" y="130.0283">deviceID</text><text fill="#000000" font-family="sans-serif" font-size="13" lengthAdjust="spacing" textLength="7" x="64.3934" y="147.8088">1</text><polygon fill="#181818" points="158,151.635,162,142.635,158,146.635,154,142.635,158,151.635" style="stroke:#181818;stroke-width:1.0;"/><path d="M158,97.0265 C158,114.7034 158,129.0285 158,145.635 " fill="none" style="stroke:#181818;stroke-width:1.0;"/><text fill="#000000" font-family="sans-serif" font-size="13" lengthAdjust="spacing" textLength="79" x="159" y="130.0283">sensorTypeID</text><text fill="#000000" font-family="sans-serif" font-size="13" lengthAdjust="spacing" textLength="7" x="150" y="147.6633">1</text><polygon fill="#181818" points="271.4307,151.863,269.9538,142.1255,268.7378,147.6501,263.2132,146.4342,271.4307,151.863" style="stroke:#181818;stroke-width:1.0;"/><path d="M212.5132,89.2008 C223.2,97.0047 233.9034,105.7556 243,115 C253.7272,125.9015 260.33,134.4968 268.1992,146.8075 " fill="none" style="stroke:#181818;stroke-width:1.0;"/><text fill="#000000" font-family="sans-serif" font-size="13" lengthAdjust="spacing" textLength="62" x="259" y="130.0283">modelPath</text><text fill="#000000" font-family="sans-serif" font-size="13" lengthAdjust="spacing" textLength="7" x="263.4307" y="147.8913">1</text><!--SRC=[VP2n3e8m54LtlkBAmYA3AuCJ2uE9YIRE3Nqg2MsnBIJ4-45-Xpyc1Qer6hlTllFklNcBHhEJOAXPhreB8yWooQAeh9anE5IIxqWQfN6DCBpKZAhWav9CK7JpT4vTLP8d-QW6yZMVdFPzGvzkxkURsoXEjGU54rjcpuuAMgNf6l4gzj4PvjJy5nJaPmYY_y1JYGpl_2JHr956gGGQhOvat9OXFEuOwck5IqjGuUai2RHYxbZmPL2au21ilFaJ]--></g></svg>