<?xml version="1.0" encoding="us-ascii" standalone="no"?><svg xmlns="http://www.w3.org/2000/svg" xmlns:xlink="http://www.w3.org/1999/xlink" contentStyleType="text/css" height="526px" preserveAspectRatio="none" style="width:907px;height:526px;background:#FFFFFF;" version="1.1" viewBox="0 0 907 526" width="907px" zoomAndPan="magnify"><defs/><g><rect fill="#ADD8E6" height="514.3555" style="stroke:#181818;stroke-width:0.5;" width="200" x="88" y="6"/><text fill="#000000" font-family="sans-serif" font-size="13" font-weight="bold" lengthAdjust="spacing" textLength="63" x="156.5" y="20.0283">Controller</text><rect fill="#90EE90" height="514.3555" style="stroke:#181818;stroke-width:0.5;" width="110" x="290" y="6"/><text fill="#000000" font-family="sans-serif" font-size="13" font-weight="bold" lengthAdjust="spacing" textLength="48" x="321" y="20.0283">Service</text><rect fill="#FFFFE0" height="514.3555" style="stroke:#181818;stroke-width:0.5;" width="131" x="402" y="6"/><text fill="#000000" font-family="sans-serif" font-size="13" font-weight="bold" lengthAdjust="spacing" textLength="67" x="434" y="20.0283">Repository</text><rect fill="#E0FFFF" height="514.3555" style="stroke:#181818;stroke-width:0.5;" width="360" x="535" y="6"/><text fill="#000000" font-family="sans-serif" font-size="13" font-weight="bold" lengthAdjust="spacing" textLength="66" x="682" y="20.0283">Assembler</text><rect fill="#FFFFFF" height="371.5313" style="stroke:#181818;stroke-width:1.0;" width="10" x="183" y="94.2031"/><rect fill="#FFFFFF" height="93.873" style="stroke:#181818;stroke-width:1.0;" width="10" x="340" y="125.4941"/><rect fill="#FFFFFF" height="31.291" style="stroke:#181818;stroke-width:1.0;" width="10" x="462.5" y="156.7852"/><rect fill="#FFFFFF" height="183.7852" style="stroke:#181818;stroke-width:1.0;" width="10" x="594.5" y="250.6582"/><rect fill="#FFFFFF" height="33.6211" style="stroke:#181818;stroke-width:1.0;" width="10" x="812.5" y="318.2402"/><rect fill="none" height="138.4941" style="stroke:#000000;stroke-width:1.5;" width="372" x="529" y="265.6582"/><line style="stroke:#181818;stroke-width:0.5;stroke-dasharray:5.0,5.0;" x1="14" x2="14" y1="60.9121" y2="483.7344"/><line style="stroke:#181818;stroke-width:0.5;stroke-dasharray:5.0,5.0;" x1="188" x2="188" y1="60.9121" y2="483.7344"/><line style="stroke:#181818;stroke-width:0.5;stroke-dasharray:5.0,5.0;" x1="345" x2="345" y1="60.9121" y2="483.7344"/><line style="stroke:#181818;stroke-width:0.5;stroke-dasharray:5.0,5.0;" x1="467" x2="467" y1="60.9121" y2="483.7344"/><line style="stroke:#181818;stroke-width:0.5;stroke-dasharray:5.0,5.0;" x1="599" x2="599" y1="60.9121" y2="483.7344"/><line style="stroke:#181818;stroke-width:0.5;stroke-dasharray:5.0,5.0;" x1="817" x2="817" y1="316.7598" y2="483.7344"/><rect fill="#E2E2F0" height="32.6211" rx="2.5" ry="2.5" style="stroke:#181818;stroke-width:0.5;" width="18" x="5" y="27.291"/><text fill="#000000" font-family="sans-serif" font-size="14" lengthAdjust="spacing" textLength="4" x="12" y="49.3984">&#160;</text><rect fill="#E2E2F0" height="32.6211" rx="2.5" ry="2.5" style="stroke:#181818;stroke-width:0.5;" width="18" x="5" y="482.7344"/><text fill="#000000" font-family="sans-serif" font-size="14" lengthAdjust="spacing" textLength="4" x="12" y="504.8418">&#160;</text><rect fill="#E2E2F0" height="32.6211" rx="2.5" ry="2.5" style="stroke:#181818;stroke-width:0.5;" width="192" x="92" y="27.291"/><text fill="#000000" font-family="sans-serif" font-size="14" lengthAdjust="spacing" textLength="178" x="99" y="49.3984">:GetListOfRooms_Controller</text><rect fill="#E2E2F0" height="32.6211" rx="2.5" ry="2.5" style="stroke:#181818;stroke-width:0.5;" width="192" x="92" y="482.7344"/><text fill="#000000" font-family="sans-serif" font-size="14" lengthAdjust="spacing" textLength="178" x="99" y="504.8418">:GetListOfRooms_Controller</text><rect fill="#E2E2F0" height="32.6211" rx="2.5" ry="2.5" style="stroke:#181818;stroke-width:0.5;" width="102" x="294" y="27.291"/><text fill="#000000" font-family="sans-serif" font-size="14" lengthAdjust="spacing" textLength="88" x="301" y="49.3984">:ServiceRoom</text><rect fill="#E2E2F0" height="32.6211" rx="2.5" ry="2.5" style="stroke:#181818;stroke-width:0.5;" width="102" x="294" y="482.7344"/><text fill="#000000" font-family="sans-serif" font-size="14" lengthAdjust="spacing" textLength="88" x="301" y="504.8418">:ServiceRoom</text><rect fill="#E2E2F0" height="32.6211" rx="2.5" ry="2.5" style="stroke:#181818;stroke-width:0.5;" width="123" x="406" y="27.291"/><text fill="#000000" font-family="sans-serif" font-size="14" lengthAdjust="spacing" textLength="109" x="413" y="49.3984">:RepositoryRoom</text><rect fill="#E2E2F0" height="32.6211" rx="2.5" ry="2.5" style="stroke:#181818;stroke-width:0.5;" width="123" x="406" y="482.7344"/><text fill="#000000" font-family="sans-serif" font-size="14" lengthAdjust="spacing" textLength="109" x="413" y="504.8418">:RepositoryRoom</text><rect fill="#E2E2F0" height="32.6211" rx="2.5" ry="2.5" style="stroke:#181818;stroke-width:0.5;" width="121" x="539" y="27.291"/><text fill="#000000" font-family="sans-serif" font-size="14" lengthAdjust="spacing" textLength="107" x="546" y="49.3984">:RoomAssembler</text><rect fill="#E2E2F0" height="32.6211" rx="2.5" ry="2.5" style="stroke:#181818;stroke-width:0.5;" width="121" x="539" y="482.7344"/><text fill="#000000" font-family="sans-serif" font-size="14" lengthAdjust="spacing" textLength="107" x="546" y="504.8418">:RoomAssembler</text><rect fill="#E2E2F0" height="32.6211" rx="2.5" ry="2.5" style="stroke:#181818;stroke-width:0.5;" width="147" x="744" y="482.7344"/><text fill="#000000" font-family="sans-serif" font-size="14" lengthAdjust="spacing" textLength="133" x="751" y="504.8418">roomDTO:RoomDTO</text><rect fill="#FFFFFF" height="371.5313" style="stroke:#181818;stroke-width:1.0;" width="10" x="183" y="94.2031"/><rect fill="#FFFFFF" height="93.873" style="stroke:#181818;stroke-width:1.0;" width="10" x="340" y="125.4941"/><rect fill="#FFFFFF" height="31.291" style="stroke:#181818;stroke-width:1.0;" width="10" x="462.5" y="156.7852"/><rect fill="#FFFFFF" height="183.7852" style="stroke:#181818;stroke-width:1.0;" width="10" x="594.5" y="250.6582"/><rect fill="#FFFFFF" height="33.6211" style="stroke:#181818;stroke-width:1.0;" width="10" x="812.5" y="318.2402"/><ellipse cx="13.5" cy="93.4531" fill="none" rx="4" ry="4" style="stroke:#181818;stroke-width:1.5;"/><polygon fill="#181818" points="171,90.2031,181,94.2031,171,98.2031,175,94.2031" style="stroke:#181818;stroke-width:1.0;"/><line style="stroke:#181818;stroke-width:1.0;" x1="18" x2="177" y1="94.2031" y2="94.2031"/><text fill="#000000" font-family="sans-serif" font-size="13" font-weight="bold" lengthAdjust="spacing" textLength="7" x="21" y="88.9404">1</text><text fill="#000000" font-family="sans-serif" font-size="13" lengthAdjust="spacing" textLength="67" x="32" y="88.9404">getRooms()</text><polygon fill="#181818" points="328,121.4941,338,125.4941,328,129.4941,332,125.4941" style="stroke:#181818;stroke-width:1.0;"/><line style="stroke:#181818;stroke-width:1.0;" x1="193" x2="334" y1="125.4941" y2="125.4941"/><text fill="#000000" font-family="sans-serif" font-size="13" font-weight="bold" lengthAdjust="spacing" textLength="7" x="200" y="120.2314">2</text><text fill="#000000" font-family="sans-serif" font-size="13" lengthAdjust="spacing" textLength="67" x="211" y="120.2314">getRooms()</text><polygon fill="#181818" points="450.5,152.7852,460.5,156.7852,450.5,160.7852,454.5,156.7852" style="stroke:#181818;stroke-width:1.0;"/><line style="stroke:#181818;stroke-width:1.0;" x1="350" x2="456.5" y1="156.7852" y2="156.7852"/><text fill="#000000" font-family="sans-serif" font-size="13" font-weight="bold" lengthAdjust="spacing" textLength="7" x="357" y="151.5225">3</text><text fill="#000000" font-family="sans-serif" font-size="13" lengthAdjust="spacing" textLength="43" x="368" y="151.5225">findAll()</text><polygon fill="#181818" points="361,184.0762,351,188.0762,361,192.0762,357,188.0762" style="stroke:#181818;stroke-width:1.0;"/><line style="stroke:#181818;stroke-width:1.0;stroke-dasharray:2.0,2.0;" x1="355" x2="466.5" y1="188.0762" y2="188.0762"/><text fill="#000000" font-family="sans-serif" font-size="13" font-weight="bold" lengthAdjust="spacing" textLength="7" x="367" y="182.8135">4</text><text fill="#000000" font-family="sans-serif" font-size="13" lengthAdjust="spacing" textLength="71" x="378" y="182.8135">listOfRooms</text><polygon fill="#181818" points="204,215.3672,194,219.3672,204,223.3672,200,219.3672" style="stroke:#181818;stroke-width:1.0;"/><line style="stroke:#181818;stroke-width:1.0;stroke-dasharray:2.0,2.0;" x1="198" x2="344" y1="219.3672" y2="219.3672"/><text fill="#000000" font-family="sans-serif" font-size="13" font-weight="bold" lengthAdjust="spacing" textLength="7" x="210" y="214.1045">5</text><text fill="#000000" font-family="sans-serif" font-size="13" lengthAdjust="spacing" textLength="71" x="221" y="214.1045">listOfRooms</text><polygon fill="#181818" points="582.5,246.6582,592.5,250.6582,582.5,254.6582,586.5,250.6582" style="stroke:#181818;stroke-width:1.0;"/><line style="stroke:#181818;stroke-width:1.0;" x1="193" x2="588.5" y1="250.6582" y2="250.6582"/><text fill="#000000" font-family="sans-serif" font-size="13" font-weight="bold" lengthAdjust="spacing" textLength="7" x="200" y="245.3955">6</text><text fill="#000000" font-family="sans-serif" font-size="13" lengthAdjust="spacing" textLength="161" x="211" y="245.3955">domainToDTO(listOfRooms)</text><path d="M529,265.6582 L602,265.6582 L602,274.9492 L592,284.9492 L529,284.9492 L529,265.6582 " fill="#EEEEEE" style="stroke:#000000;stroke-width:1.5;"/><rect fill="none" height="138.4941" style="stroke:#000000;stroke-width:1.5;" width="372" x="529" y="265.6582"/><text fill="#000000" font-family="sans-serif" font-size="13" font-weight="bold" lengthAdjust="spacing" textLength="28" x="544" y="280.6865">loop</text><text fill="#000000" font-family="sans-serif" font-size="11" font-weight="bold" lengthAdjust="spacing" textLength="141" x="617" y="279.5283">[for each room in Rooms]</text><polygon fill="#181818" points="732,304.2402,742,308.2402,732,312.2402,736,308.2402" style="stroke:#181818;stroke-width:1.0;"/><line style="stroke:#181818;stroke-width:1.0;" x1="604.5" x2="738" y1="308.2402" y2="308.2402"/><text fill="#000000" font-family="sans-serif" font-size="13" font-weight="bold" lengthAdjust="spacing" textLength="7" x="611.5" y="302.9775">7</text><text fill="#000000" font-family="sans-serif" font-size="13" lengthAdjust="spacing" textLength="97" x="622.5" y="302.9775">RoomDTO(room)</text><rect fill="#E2E2F0" height="32.6211" rx="2.5" ry="2.5" style="stroke:#181818;stroke-width:0.5;" width="147" x="744" y="284.9492"/><text fill="#000000" font-family="sans-serif" font-size="14" lengthAdjust="spacing" textLength="133" x="751" y="307.0566">roomDTO:RoomDTO</text><polygon fill="#181818" points="615.5,347.8613,605.5,351.8613,615.5,355.8613,611.5,351.8613" style="stroke:#181818;stroke-width:1.0;"/><line style="stroke:#181818;stroke-width:1.0;stroke-dasharray:2.0,2.0;" x1="609.5" x2="816.5" y1="351.8613" y2="351.8613"/><text fill="#000000" font-family="sans-serif" font-size="13" font-weight="bold" lengthAdjust="spacing" textLength="7" x="621.5" y="346.5986">8</text><text fill="#000000" font-family="sans-serif" font-size="13" lengthAdjust="spacing" textLength="55" x="632.5" y="346.5986">roomDTO</text><line style="stroke:#181818;stroke-width:1.0;" x1="604.5" x2="646.5" y1="383.1523" y2="383.1523"/><line style="stroke:#181818;stroke-width:1.0;" x1="646.5" x2="646.5" y1="383.1523" y2="396.1523"/><line style="stroke:#181818;stroke-width:1.0;" x1="605.5" x2="646.5" y1="396.1523" y2="396.1523"/><polygon fill="#181818" points="615.5,392.1523,605.5,396.1523,615.5,400.1523,611.5,396.1523" style="stroke:#181818;stroke-width:1.0;"/><text fill="#000000" font-family="sans-serif" font-size="13" font-weight="bold" lengthAdjust="spacing" textLength="7" x="611.5" y="377.8896">9</text><text fill="#000000" font-family="sans-serif" font-size="13" lengthAdjust="spacing" textLength="183" x="622.5" y="377.8896">addRoomDTOToList (roomDTO)</text><polygon fill="#181818" points="204,430.4434,194,434.4434,204,438.4434,200,434.4434" style="stroke:#181818;stroke-width:1.0;"/><line style="stroke:#181818;stroke-width:1.0;stroke-dasharray:2.0,2.0;" x1="198" x2="598.5" y1="434.4434" y2="434.4434"/><text fill="#000000" font-family="sans-serif" font-size="13" font-weight="bold" lengthAdjust="spacing" textLength="14" x="210" y="429.1807">10</text><text fill="#000000" font-family="sans-serif" font-size="13" lengthAdjust="spacing" textLength="146" x="228" y="429.1807">copyOf(listOfRoomsDTO)</text><polygon fill="#181818" points="11,461.7344,1,465.7344,11,469.7344,7,465.7344" style="stroke:#181818;stroke-width:1.0;"/><line style="stroke:#181818;stroke-width:1.0;stroke-dasharray:2.0,2.0;" x1="5" x2="187" y1="465.7344" y2="465.7344"/><text fill="#000000" font-family="sans-serif" font-size="13" font-weight="bold" lengthAdjust="spacing" textLength="14" x="17" y="460.4717">11</text><text fill="#000000" font-family="sans-serif" font-size="13" lengthAdjust="spacing" textLength="146" x="35" y="460.4717">copyOf(listOfRoomsDTO)</text><!--SRC=[ZPCzRzim48Pt_egBEyGULEz24I1rWIm13AJEqAcWfRDDWEIf99NM_pwaIaaa0nc11dxTFI_vtkd-ubndw-ssaroxNicl3QcjnJyzwWQhLl2puOhTTOQV5GV9hzGxi0eTrvonZXid6j7vN5ZvZrjujMWOEz8_MEr8EqDIebd1bsTnlhZliiSygNv2zooisvzUY9JzdUPuMduw7pBKBNYHgFGJpPjeS9HvCeYwq8aXWJEGuxe0lM17LZWorv7r2wMalmLi3fju-LQ1VRGMrJ4nOdVbcfLGdvS41cQwKuGRV_RZi1-o_3Z5-pcRr7dlIFVg6B93OO2gXqLFQpYZ6_RM6yPuuyGRTxXS0hPq0buashl07CrdSH8oSWDhE0dTFagPvHKcitmDLIeivwinrk8YOxh23MjW6JSzvPORMI5hQ4bneG_aQxLEkFwbagW3E941ht21K6GG6lxBDWQ71yGgpo_AsYHRZUAXKyR9Eb0tUNhWnN4mehXmRBRCnYJhWzoyKGDlsnXxe60Gh2Dj4zgKbO2R3TfGTzsVKiy6Jdclv9_vLbMtgle9u7B_lmC0]--></g></svg>