<?xml version="1.0" encoding="us-ascii" standalone="no"?><svg xmlns="http://www.w3.org/2000/svg" xmlns:xlink="http://www.w3.org/1999/xlink" contentStyleType="text/css" height="558px" preserveAspectRatio="none" style="width:2876px;height:558px;background:#FFFFFF;" version="1.1" viewBox="0 0 2876 558" width="2876px" zoomAndPan="magnify"><defs/><g><rect fill="#FFFFFF" height="431.4434" style="stroke:#181818;stroke-width:1.0;" width="10" x="588" y="71.9121"/><rect fill="#FFFFFF" height="368.8613" style="stroke:#181818;stroke-width:1.0;" width="10" x="1172" y="103.2031"/><rect fill="#FFFFFF" height="106.2031" style="stroke:#181818;stroke-width:1.0;" width="10" x="1713" y="134.4941"/><rect fill="#FFFFFF" height="33.6211" style="stroke:#181818;stroke-width:1.0;" width="10" x="2299.5" y="175.7852"/><rect fill="#FFFFFF" height="31.291" style="stroke:#181818;stroke-width:1.0;" width="10" x="2416.5" y="271.9883"/><rect fill="#FFFFFF" height="106.2031" style="stroke:#181818;stroke-width:1.0;" width="10" x="2548.5" y="334.5703"/><rect fill="#FFFFFF" height="33.6211" style="stroke:#181818;stroke-width:1.0;" width="10" x="2790" y="375.8613"/><line style="stroke:#181818;stroke-width:0.5;stroke-dasharray:5.0,5.0;" x1="14" x2="14" y1="38.6211" y2="521.3555"/><line style="stroke:#181818;stroke-width:0.5;stroke-dasharray:5.0,5.0;" x1="593" x2="593" y1="38.6211" y2="521.3555"/><line style="stroke:#181818;stroke-width:0.5;stroke-dasharray:5.0,5.0;" x1="1177" x2="1177" y1="38.6211" y2="521.3555"/><line style="stroke:#181818;stroke-width:0.5;stroke-dasharray:5.0,5.0;" x1="1717.5" x2="1717.5" y1="38.6211" y2="521.3555"/><line style="stroke:#181818;stroke-width:0.5;stroke-dasharray:5.0,5.0;" x1="2304" x2="2304" y1="174.3047" y2="521.3555"/><line style="stroke:#181818;stroke-width:0.5;stroke-dasharray:5.0,5.0;" x1="2421" x2="2421" y1="38.6211" y2="521.3555"/><line style="stroke:#181818;stroke-width:0.5;stroke-dasharray:5.0,5.0;" x1="2553" x2="2553" y1="38.6211" y2="521.3555"/><line style="stroke:#181818;stroke-width:0.5;stroke-dasharray:5.0,5.0;" x1="2794.5" x2="2794.5" y1="374.3809" y2="521.3555"/><rect fill="#E2E2F0" height="32.6211" rx="2.5" ry="2.5" style="stroke:#181818;stroke-width:0.5;" width="18" x="5" y="5"/><text fill="#000000" font-family="sans-serif" font-size="14" lengthAdjust="spacing" textLength="4" x="12" y="27.1074">&#160;</text><rect fill="#E2E2F0" height="32.6211" rx="2.5" ry="2.5" style="stroke:#181818;stroke-width:0.5;" width="18" x="5" y="520.3555"/><text fill="#000000" font-family="sans-serif" font-size="14" lengthAdjust="spacing" textLength="4" x="12" y="542.4629">&#160;</text><rect fill="#E2E2F0" height="32.6211" rx="2.5" ry="2.5" style="stroke:#181818;stroke-width:0.5;" width="142" x="522" y="5"/><text fill="#000000" font-family="sans-serif" font-size="14" lengthAdjust="spacing" textLength="128" x="529" y="27.1074">:AddRoomController</text><rect fill="#E2E2F0" height="32.6211" rx="2.5" ry="2.5" style="stroke:#181818;stroke-width:0.5;" width="142" x="522" y="520.3555"/><text fill="#000000" font-family="sans-serif" font-size="14" lengthAdjust="spacing" textLength="128" x="529" y="542.4629">:AddRoomController</text><rect fill="#E2E2F0" height="32.6211" rx="2.5" ry="2.5" style="stroke:#181818;stroke-width:0.5;" width="184" x="1085" y="5"/><text fill="#000000" font-family="sans-serif" font-size="14" lengthAdjust="spacing" textLength="170" x="1092" y="27.1074">serviceRoom:ServiceRoom</text><rect fill="#E2E2F0" height="32.6211" rx="2.5" ry="2.5" style="stroke:#181818;stroke-width:0.5;" width="184" x="1085" y="520.3555"/><text fill="#000000" font-family="sans-serif" font-size="14" lengthAdjust="spacing" textLength="170" x="1092" y="542.4629">serviceRoom:ServiceRoom</text><rect fill="#E2E2F0" height="32.6211" rx="2.5" ry="2.5" style="stroke:#181818;stroke-width:0.5;" width="103" x="1666.5" y="5"/><text fill="#000000" font-family="sans-serif" font-size="14" lengthAdjust="spacing" textLength="89" x="1673.5" y="27.1074">:RoomFactory</text><rect fill="#E2E2F0" height="32.6211" rx="2.5" ry="2.5" style="stroke:#181818;stroke-width:0.5;" width="103" x="1666.5" y="520.3555"/><text fill="#000000" font-family="sans-serif" font-size="14" lengthAdjust="spacing" textLength="89" x="1673.5" y="542.4629">:RoomFactory</text><rect fill="#E2E2F0" height="32.6211" rx="2.5" ry="2.5" style="stroke:#181818;stroke-width:0.5;" width="91" x="2259" y="520.3555"/><text fill="#000000" font-family="sans-serif" font-size="14" lengthAdjust="spacing" textLength="77" x="2266" y="542.4629">room :Room</text><rect fill="#E2E2F0" height="32.6211" rx="2.5" ry="2.5" style="stroke:#181818;stroke-width:0.5;" width="123" x="2360" y="5"/><text fill="#000000" font-family="sans-serif" font-size="14" lengthAdjust="spacing" textLength="109" x="2367" y="27.1074">:RoomRepository</text><rect fill="#E2E2F0" height="32.6211" rx="2.5" ry="2.5" style="stroke:#181818;stroke-width:0.5;" width="123" x="2360" y="520.3555"/><text fill="#000000" font-family="sans-serif" font-size="14" lengthAdjust="spacing" textLength="109" x="2367" y="542.4629">:RoomRepository</text><rect fill="#E2E2F0" height="32.6211" rx="2.5" ry="2.5" style="stroke:#181818;stroke-width:0.5;" width="121" x="2493" y="5"/><text fill="#000000" font-family="sans-serif" font-size="14" lengthAdjust="spacing" textLength="107" x="2500" y="27.1074">:RoomAssembler</text><rect fill="#E2E2F0" height="32.6211" rx="2.5" ry="2.5" style="stroke:#181818;stroke-width:0.5;" width="121" x="2493" y="520.3555"/><text fill="#000000" font-family="sans-serif" font-size="14" lengthAdjust="spacing" textLength="107" x="2500" y="542.4629">:RoomAssembler</text><rect fill="#E2E2F0" height="32.6211" rx="2.5" ry="2.5" style="stroke:#181818;stroke-width:0.5;" width="151" x="2719.5" y="520.3555"/><text fill="#000000" font-family="sans-serif" font-size="14" lengthAdjust="spacing" textLength="137" x="2726.5" y="542.4629">roomDTO :RoomDTO</text><rect fill="#FFFFFF" height="431.4434" style="stroke:#181818;stroke-width:1.0;" width="10" x="588" y="71.9121"/><rect fill="#FFFFFF" height="368.8613" style="stroke:#181818;stroke-width:1.0;" width="10" x="1172" y="103.2031"/><rect fill="#FFFFFF" height="106.2031" style="stroke:#181818;stroke-width:1.0;" width="10" x="1713" y="134.4941"/><rect fill="#FFFFFF" height="33.6211" style="stroke:#181818;stroke-width:1.0;" width="10" x="2299.5" y="175.7852"/><rect fill="#FFFFFF" height="31.291" style="stroke:#181818;stroke-width:1.0;" width="10" x="2416.5" y="271.9883"/><rect fill="#FFFFFF" height="106.2031" style="stroke:#181818;stroke-width:1.0;" width="10" x="2548.5" y="334.5703"/><rect fill="#FFFFFF" height="33.6211" style="stroke:#181818;stroke-width:1.0;" width="10" x="2790" y="375.8613"/><ellipse cx="13.5" cy="71.1621" fill="none" rx="4" ry="4" style="stroke:#181818;stroke-width:1.5;"/><polygon fill="#181818" points="576,67.9121,586,71.9121,576,75.9121,580,71.9121" style="stroke:#181818;stroke-width:1.0;"/><line style="stroke:#181818;stroke-width:1.0;" x1="18" x2="582" y1="71.9121" y2="71.9121"/><text fill="#000000" font-family="sans-serif" font-size="13" font-weight="bold" lengthAdjust="spacing" textLength="7" x="21" y="66.6494">1</text><text fill="#000000" font-family="sans-serif" font-size="13" lengthAdjust="spacing" textLength="544" x="32" y="66.6494">addRoom(roomDataDTO(String houseID, String name, int floor, int width, int length, int height))</text><polygon fill="#181818" points="1160,99.2031,1170,103.2031,1160,107.2031,1164,103.2031" style="stroke:#181818;stroke-width:1.0;"/><line style="stroke:#181818;stroke-width:1.0;" x1="598" x2="1166" y1="103.2031" y2="103.2031"/><text fill="#000000" font-family="sans-serif" font-size="13" font-weight="bold" lengthAdjust="spacing" textLength="7" x="605" y="97.9404">2</text><text fill="#000000" font-family="sans-serif" font-size="13" lengthAdjust="spacing" textLength="544" x="616" y="97.9404">addRoom(roomDataDTO(String houseID, String name, int floor, int width, int length, int height))</text><polygon fill="#181818" points="1701,130.4941,1711,134.4941,1701,138.4941,1705,134.4941" style="stroke:#181818;stroke-width:1.0;"/><line style="stroke:#181818;stroke-width:1.0;" x1="1182" x2="1707" y1="134.4941" y2="134.4941"/><text fill="#000000" font-family="sans-serif" font-size="13" font-weight="bold" lengthAdjust="spacing" textLength="7" x="1189" y="129.2314">3</text><text fill="#000000" font-family="sans-serif" font-size="13" lengthAdjust="spacing" textLength="501" x="1200" y="129.2314">createRoom(HouseID houseID, RoomName name, Dimensions dimensions, Floor floor)</text><polygon fill="#181818" points="2247,161.7852,2257,165.7852,2247,169.7852,2251,165.7852" style="stroke:#181818;stroke-width:1.0;"/><line style="stroke:#181818;stroke-width:1.0;" x1="1723" x2="2253" y1="165.7852" y2="165.7852"/><text fill="#000000" font-family="sans-serif" font-size="13" font-weight="bold" lengthAdjust="spacing" textLength="7" x="1730" y="160.5225">4</text><text fill="#000000" font-family="sans-serif" font-size="13" lengthAdjust="spacing" textLength="501" x="1741" y="160.5225">createRoom(HouseID houseID, RoomName name, Dimensions dimensions, Floor floor)</text><rect fill="#E2E2F0" height="32.6211" rx="2.5" ry="2.5" style="stroke:#181818;stroke-width:0.5;" width="91" x="2259" y="142.4941"/><text fill="#000000" font-family="sans-serif" font-size="14" lengthAdjust="spacing" textLength="77" x="2266" y="164.6016">room :Room</text><polygon fill="#181818" points="1734,205.4063,1724,209.4063,1734,213.4063,1730,209.4063" style="stroke:#181818;stroke-width:1.0;"/><line style="stroke:#181818;stroke-width:1.0;stroke-dasharray:2.0,2.0;" x1="1728" x2="2303.5" y1="209.4063" y2="209.4063"/><text fill="#000000" font-family="sans-serif" font-size="13" font-weight="bold" lengthAdjust="spacing" textLength="7" x="1740" y="204.1436">5</text><text fill="#000000" font-family="sans-serif" font-size="13" lengthAdjust="spacing" textLength="29" x="1751" y="204.1436">room</text><polygon fill="#181818" points="609,236.6973,599,240.6973,609,244.6973,605,240.6973" style="stroke:#181818;stroke-width:1.0;"/><line style="stroke:#181818;stroke-width:1.0;stroke-dasharray:2.0,2.0;" x1="603" x2="1717" y1="240.6973" y2="240.6973"/><text fill="#000000" font-family="sans-serif" font-size="13" font-weight="bold" lengthAdjust="spacing" textLength="7" x="615" y="235.4346">6</text><text fill="#000000" font-family="sans-serif" font-size="13" lengthAdjust="spacing" textLength="29" x="626" y="235.4346">room</text><polygon fill="#181818" points="2404.5,267.9883,2414.5,271.9883,2404.5,275.9883,2408.5,271.9883" style="stroke:#181818;stroke-width:1.0;"/><line style="stroke:#181818;stroke-width:1.0;" x1="598" x2="2410.5" y1="271.9883" y2="271.9883"/><text fill="#000000" font-family="sans-serif" font-size="13" font-weight="bold" lengthAdjust="spacing" textLength="7" x="605" y="266.7256">7</text><text fill="#000000" font-family="sans-serif" font-size="13" lengthAdjust="spacing" textLength="63" x="616" y="266.7256">save(room)</text><polygon fill="#181818" points="1193,299.2793,1183,303.2793,1193,307.2793,1189,303.2793" style="stroke:#181818;stroke-width:1.0;"/><line style="stroke:#181818;stroke-width:1.0;stroke-dasharray:2.0,2.0;" x1="1187" x2="2420.5" y1="303.2793" y2="303.2793"/><text fill="#000000" font-family="sans-serif" font-size="13" font-weight="bold" lengthAdjust="spacing" textLength="7" x="1199" y="298.0166">8</text><text fill="#000000" font-family="sans-serif" font-size="13" lengthAdjust="spacing" textLength="29" x="1210" y="298.0166">room</text><polygon fill="#181818" points="2536.5,330.5703,2546.5,334.5703,2536.5,338.5703,2540.5,334.5703" style="stroke:#181818;stroke-width:1.0;"/><line style="stroke:#181818;stroke-width:1.0;" x1="1182" x2="2542.5" y1="334.5703" y2="334.5703"/><text fill="#000000" font-family="sans-serif" font-size="13" font-weight="bold" lengthAdjust="spacing" textLength="7" x="1189" y="329.3076">9</text><text fill="#000000" font-family="sans-serif" font-size="13" lengthAdjust="spacing" textLength="106" x="1200" y="329.3076">roomToDTO(room)</text><polygon fill="#181818" points="2707.5,361.8613,2717.5,365.8613,2707.5,369.8613,2711.5,365.8613" style="stroke:#181818;stroke-width:1.0;"/><line style="stroke:#181818;stroke-width:1.0;" x1="2558.5" x2="2713.5" y1="365.8613" y2="365.8613"/><text fill="#000000" font-family="sans-serif" font-size="13" font-weight="bold" lengthAdjust="spacing" textLength="14" x="2565.5" y="360.5986">10</text><text fill="#000000" font-family="sans-serif" font-size="13" lengthAdjust="spacing" textLength="119" x="2583.5" y="360.5986">domainToDTO(room)</text><rect fill="#E2E2F0" height="32.6211" rx="2.5" ry="2.5" style="stroke:#181818;stroke-width:0.5;" width="151" x="2719.5" y="342.5703"/><text fill="#000000" font-family="sans-serif" font-size="14" lengthAdjust="spacing" textLength="137" x="2726.5" y="364.6777">roomDTO :RoomDTO</text><polygon fill="#181818" points="2569.5,405.4824,2559.5,409.4824,2569.5,413.4824,2565.5,409.4824" style="stroke:#181818;stroke-width:1.0;"/><line style="stroke:#181818;stroke-width:1.0;stroke-dasharray:2.0,2.0;" x1="2563.5" x2="2794" y1="409.4824" y2="409.4824"/><text fill="#000000" font-family="sans-serif" font-size="13" font-weight="bold" lengthAdjust="spacing" textLength="14" x="2575.5" y="404.2197">11</text><text fill="#000000" font-family="sans-serif" font-size="13" lengthAdjust="spacing" textLength="55" x="2593.5" y="404.2197">roomDTO</text><polygon fill="#181818" points="1193,436.7734,1183,440.7734,1193,444.7734,1189,440.7734" style="stroke:#181818;stroke-width:1.0;"/><line style="stroke:#181818;stroke-width:1.0;stroke-dasharray:2.0,2.0;" x1="1187" x2="2552.5" y1="440.7734" y2="440.7734"/><text fill="#000000" font-family="sans-serif" font-size="13" font-weight="bold" lengthAdjust="spacing" textLength="14" x="1199" y="435.5107">12</text><text fill="#000000" font-family="sans-serif" font-size="13" lengthAdjust="spacing" textLength="55" x="1217" y="435.5107">roomDTO</text><polygon fill="#181818" points="609,468.0645,599,472.0645,609,476.0645,605,472.0645" style="stroke:#181818;stroke-width:1.0;"/><line style="stroke:#181818;stroke-width:1.0;stroke-dasharray:2.0,2.0;" x1="603" x2="1176" y1="472.0645" y2="472.0645"/><text fill="#000000" font-family="sans-serif" font-size="13" font-weight="bold" lengthAdjust="spacing" textLength="14" x="615" y="466.8018">13</text><text fill="#000000" font-family="sans-serif" font-size="13" lengthAdjust="spacing" textLength="55" x="633" y="466.8018">roomDTO</text><polygon fill="#181818" points="25,499.3555,15,503.3555,25,507.3555,21,503.3555" style="stroke:#181818;stroke-width:1.0;"/><line style="stroke:#181818;stroke-width:1.0;stroke-dasharray:2.0,2.0;" x1="19" x2="592" y1="503.3555" y2="503.3555"/><text fill="#000000" font-family="sans-serif" font-size="13" font-weight="bold" lengthAdjust="spacing" textLength="14" x="31" y="498.0928">14</text><text fill="#000000" font-family="sans-serif" font-size="13" lengthAdjust="spacing" textLength="55" x="49" y="498.0928">roomDTO</text><!--SRC=[lLDBRiCW4Dtx5DEk4YcvW1ULeaPHkscb93t0nAOEaW4BSAhSlWnWWnrlMrko1tWpxp6VfqvZ8n1QlAlUWX7CeiG2UwjaBovC5qM7slAAToWjFBiN3NmPTp3PBtTrVLHAl2ffjMfRfZqmBQTmvt_Z5IEFyfHixnFNi_XqVC3AAdttg6XFKTg1e1mZaR4GviWwPVWOAIqNi3jZcBWCrnbNZxJxysTWTeR7kdzHKA90RL-oH9I08LKhxuOM7N9rifhB1gwgD-nzlu6ubYZO1hWZ-MwLqi7yuRMz1hDbiXdiA-FDrQxNXSiClw5bUVQJ2KvDJF4_IXcA6lya8bQmX4ep1_4wtW9f8gVT3ySSwVTSC6cuaWRgqTp0WHG5NHddq28XVkY6k4Vylld-ZDopqGUs-LqfqKNDfh1HrAnHvk3XGjDYflujmU2D-MBcIb9_9zDp3SLOa9LyiegDxHySpehQPSQMHYIcdUPWtAGeRgE4MWdaSZ42ET0qRHyPwIXJEGkTD_O2EYaRhxIGxvdJqBTvofqNpVKYFXivUdu1]--></g></svg>