<?xml version="1.0" encoding="us-ascii" standalone="no"?><svg xmlns="http://www.w3.org/2000/svg" xmlns:xlink="http://www.w3.org/1999/xlink" contentStyleType="text/css" height="652.8px" preserveAspectRatio="none" style="width:974px;height:652px;background:#FFFFFF;" version="1.1" viewBox="0 0 974 652" width="974.4px" zoomAndPan="magnify"><defs/><g><!--class AddRoomController--><g id="elem_AddRoomController"><rect codeLine="3" fill="#F1F1F1" height="93.1563" id="AddRoomController" rx="2" ry="2" style="stroke:#181818;stroke-width:0.4000000000000001;" width="659.2" x="261.2" y="9.6"/><ellipse cx="537.8" cy="27.4328" fill="#ADD1B2" rx="8.8" ry="8.8" style="stroke:#181818;stroke-width:0.8000000000000002;"/><path d="M540.0125,24.1328 Q540.1375,23.9578 540.2875,23.8703 Q540.4375,23.7828 540.6125,23.7828 Q540.9125,23.7828 541.1,23.9953 Q541.2875,24.1953 541.2875,24.6828 L541.2875,25.8453 Q541.2875,26.3328 541.1,26.5453 Q540.9125,26.7578 540.6125,26.7578 Q540.3375,26.7578 540.175,26.5953 Q540.0125,26.4453 539.925,26.0328 Q539.8875,25.7453 539.7375,25.5953 Q539.475,25.2953 538.9875,25.1203 Q538.5,24.9453 538,24.9453 Q537.3875,24.9453 536.875,25.2078 Q536.375,25.4703 535.975,26.0703 Q535.5875,26.6703 535.5875,27.4953 L535.5875,28.3703 Q535.5875,29.3578 536.3,30.0203 Q537.0125,30.6703 538.2875,30.6703 Q539.0375,30.6703 539.5625,30.4703 Q539.875,30.3453 540.2125,29.9953 Q540.425,29.7828 540.5375,29.7203 Q540.6625,29.6578 540.825,29.6578 Q541.0875,29.6578 541.2875,29.8703 Q541.5,30.0703 541.5,30.3453 Q541.5,30.6203 541.225,30.9453 Q540.825,31.4078 540.1875,31.6703 Q539.325,32.0328 538.2875,32.0328 Q537.075,32.0328 536.1125,31.5328 Q535.325,31.1328 534.775,30.2828 Q534.225,29.4203 534.225,28.3953 L534.225,27.4703 Q534.225,26.4078 534.7125,25.4953 Q535.2125,24.5703 536.0875,24.0828 Q536.9625,23.5828 537.95,23.5828 Q538.5375,23.5828 539.05,23.7203 Q539.575,23.8453 540.0125,24.1328 Z " fill="#000000"/><text fill="#000000" font-family="sans-serif" font-size="9.6" font-style="italic" lengthAdjust="spacing" textLength="54.4" x="576.6" y="23.9594">&#171;Controller&#187;</text><text fill="#000000" font-family="sans-serif" font-size="11.2" lengthAdjust="spacing" textLength="99.2" x="554.2" y="38.4547">AddRoomController</text><line style="stroke:#181818;stroke-width:0.4000000000000001;" x1="262" x2="919.6" y1="45.2656" y2="45.2656"/><rect fill="none" height="4.8" style="stroke:#C82930;stroke-width:0.8000000000000002;" width="4.8" x="267.6" y="54.7141"/><text fill="#000000" font-family="sans-serif" font-size="11.2" lengthAdjust="spacing" textLength="143.2" x="277.2" y="60.5516">_roomService: RoomService</text><line style="stroke:#181818;stroke-width:0.4000000000000001;" x1="262" x2="919.6" y1="66.5625" y2="66.5625"/><ellipse cx="270" cy="78.4109" fill="#84BE84" rx="2.4" ry="2.4" style="stroke:#038048;stroke-width:0.8000000000000002;"/><text fill="#000000" font-family="sans-serif" font-size="11.2" lengthAdjust="spacing" textLength="286.4" x="277.2" y="81.8484">AddRoomToHouseController(roomService:RoomService)</text><ellipse cx="270" cy="93.3078" fill="#84BE84" rx="2.4" ry="2.4" style="stroke:#038048;stroke-width:0.8000000000000002;"/><text fill="#000000" font-family="sans-serif" font-size="11.2" lengthAdjust="spacing" textLength="638.4" x="277.2" y="96.7453">CreateRoom(houseID: String, name: String, description: String, int floor, double width, double length, double height):RoomDTO</text></g><!--class RoomService--><g id="elem_RoomService"><rect codeLine="9" fill="#F1F1F1" height="137.8469" id="RoomService" rx="2" ry="2" style="stroke:#181818;stroke-width:0.4000000000000001;" width="756.8" x="212.4" y="146.4"/><ellipse cx="553.8" cy="164.2328" fill="#ADD1B2" rx="8.8" ry="8.8" style="stroke:#181818;stroke-width:0.8000000000000002;"/><path d="M556.0125,160.9328 Q556.1375,160.7578 556.2875,160.6703 Q556.4375,160.5828 556.6125,160.5828 Q556.9125,160.5828 557.1,160.7953 Q557.2875,160.9953 557.2875,161.4828 L557.2875,162.6453 Q557.2875,163.1328 557.1,163.3453 Q556.9125,163.5578 556.6125,163.5578 Q556.3375,163.5578 556.175,163.3953 Q556.0125,163.2453 555.925,162.8328 Q555.8875,162.5453 555.7375,162.3953 Q555.475,162.0953 554.9875,161.9203 Q554.5,161.7453 554,161.7453 Q553.3875,161.7453 552.875,162.0078 Q552.375,162.2703 551.975,162.8703 Q551.5875,163.4703 551.5875,164.2953 L551.5875,165.1703 Q551.5875,166.1578 552.3,166.8203 Q553.0125,167.4703 554.2875,167.4703 Q555.0375,167.4703 555.5625,167.2703 Q555.875,167.1453 556.2125,166.7953 Q556.425,166.5828 556.5375,166.5203 Q556.6625,166.4578 556.825,166.4578 Q557.0875,166.4578 557.2875,166.6703 Q557.5,166.8703 557.5,167.1453 Q557.5,167.4203 557.225,167.7453 Q556.825,168.2078 556.1875,168.4703 Q555.325,168.8328 554.2875,168.8328 Q553.075,168.8328 552.1125,168.3328 Q551.325,167.9328 550.775,167.0828 Q550.225,166.2203 550.225,165.1953 L550.225,164.2703 Q550.225,163.2078 550.7125,162.2953 Q551.2125,161.3703 552.0875,160.8828 Q552.9625,160.3828 553.95,160.3828 Q554.5375,160.3828 555.05,160.5203 Q555.575,160.6453 556.0125,160.9328 Z " fill="#000000"/><text fill="#000000" font-family="sans-serif" font-size="9.6" font-style="italic" lengthAdjust="spacing" textLength="44" x="581.8" y="160.7594">&#171;Service&#187;</text><text fill="#000000" font-family="sans-serif" font-size="11.2" lengthAdjust="spacing" textLength="67.2" x="570.2" y="175.2547">RoomService</text><line style="stroke:#181818;stroke-width:0.4000000000000001;" x1="213.2" x2="968.4" y1="182.0656" y2="182.0656"/><rect fill="none" height="4.8" style="stroke:#C82930;stroke-width:0.8000000000000002;" width="4.8" x="218.8" y="191.5141"/><text fill="#000000" font-family="sans-serif" font-size="11.2" lengthAdjust="spacing" textLength="176.8" x="228.4" y="197.3516">_roomRepository: RoomRepository</text><rect fill="none" height="4.8" style="stroke:#C82930;stroke-width:0.8000000000000002;" width="4.8" x="218.8" y="206.4109"/><text fill="#000000" font-family="sans-serif" font-size="11.2" lengthAdjust="spacing" textLength="144.8" x="228.4" y="212.2484">_roomFactory: RoomFactory</text><rect fill="none" height="4.8" style="stroke:#C82930;stroke-width:0.8000000000000002;" width="4.8" x="218.8" y="221.3078"/><text fill="#000000" font-family="sans-serif" font-size="11.2" lengthAdjust="spacing" textLength="173.6" x="228.4" y="227.1453">_roomAssembler: RoomAssembler</text><rect fill="none" height="4.8" style="stroke:#C82930;stroke-width:0.8000000000000002;" width="4.8" x="218.8" y="236.2047"/><text fill="#000000" font-family="sans-serif" font-size="11.2" lengthAdjust="spacing" textLength="184.8" x="228.4" y="242.0422">_houseRepository: HouseRepository</text><line style="stroke:#181818;stroke-width:0.4000000000000001;" x1="213.2" x2="968.4" y1="248.0531" y2="248.0531"/><ellipse cx="221.2" cy="259.9016" fill="#84BE84" rx="2.4" ry="2.4" style="stroke:#038048;stroke-width:0.8000000000000002;"/><text fill="#000000" font-family="sans-serif" font-size="11.2" lengthAdjust="spacing" textLength="736" x="228.4" y="263.3391">RoomService(roomRepository:RoomRepository, roomFactory:RoomFactory, roomAssembler:RoomAssembler, houseRepository:HouseRepository)</text><ellipse cx="221.2" cy="274.7984" fill="#84BE84" rx="2.4" ry="2.4" style="stroke:#038048;stroke-width:0.8000000000000002;"/><text fill="#000000" font-family="sans-serif" font-size="11.2" lengthAdjust="spacing" textLength="626.4" x="228.4" y="278.2359">addRoom(houseID: String, name: String, description: String, int floor, double width, double length, double height): RoomDTO</text></g><!--class RoomRepository--><g id="elem_RoomRepository"><rect codeLine="18" fill="#F1F1F1" height="78.2594" id="RoomRepository" rx="2" ry="2" style="stroke:#181818;stroke-width:0.4000000000000001;" width="236.8" x="593.2" y="502"/><ellipse cx="666.2" cy="519.8328" fill="#ADD1B2" rx="8.8" ry="8.8" style="stroke:#181818;stroke-width:0.8000000000000002;"/><path d="M668.4125,516.5328 Q668.5375,516.3578 668.6875,516.2703 Q668.8375,516.1828 669.0125,516.1828 Q669.3125,516.1828 669.5,516.3953 Q669.6875,516.5953 669.6875,517.0828 L669.6875,518.2453 Q669.6875,518.7328 669.5,518.9453 Q669.3125,519.1578 669.0125,519.1578 Q668.7375,519.1578 668.575,518.9953 Q668.4125,518.8453 668.325,518.4328 Q668.2875,518.1453 668.1375,517.9953 Q667.875,517.6953 667.3875,517.5203 Q666.9,517.3453 666.4,517.3453 Q665.7875,517.3453 665.275,517.6078 Q664.775,517.8703 664.375,518.4703 Q663.9875,519.0703 663.9875,519.8953 L663.9875,520.7703 Q663.9875,521.7578 664.7,522.4203 Q665.4125,523.0703 666.6875,523.0703 Q667.4375,523.0703 667.9625,522.8703 Q668.275,522.7453 668.6125,522.3953 Q668.825,522.1828 668.9375,522.1203 Q669.0625,522.0578 669.225,522.0578 Q669.4875,522.0578 669.6875,522.2703 Q669.9,522.4703 669.9,522.7453 Q669.9,523.0203 669.625,523.3453 Q669.225,523.8078 668.5875,524.0703 Q667.725,524.4328 666.6875,524.4328 Q665.475,524.4328 664.5125,523.9328 Q663.725,523.5328 663.175,522.6828 Q662.625,521.8203 662.625,520.7953 L662.625,519.8703 Q662.625,518.8078 663.1125,517.8953 Q663.6125,516.9703 664.4875,516.4828 Q665.3625,515.9828 666.35,515.9828 Q666.9375,515.9828 667.45,516.1203 Q667.975,516.2453 668.4125,516.5328 Z " fill="#000000"/><text fill="#000000" font-family="sans-serif" font-size="9.6" font-style="italic" lengthAdjust="spacing" textLength="58.4" x="695.4" y="516.3594">&#171;Repository&#187;</text><text fill="#000000" font-family="sans-serif" font-size="11.2" lengthAdjust="spacing" textLength="84" x="682.6" y="530.8547">RoomRepository</text><line style="stroke:#181818;stroke-width:0.4000000000000001;" x1="594" x2="829.2" y1="537.6656" y2="537.6656"/><rect fill="none" height="4.8" style="stroke:#C82930;stroke-width:0.8000000000000002;" width="4.8" x="599.6" y="547.1141"/><text fill="#000000" font-family="sans-serif" font-size="11.2" lengthAdjust="spacing" textLength="142.4" x="609.2" y="552.9516">_map&lt;RoomID,Room&gt; room</text><line style="stroke:#181818;stroke-width:0.4000000000000001;" x1="594" x2="829.2" y1="558.9625" y2="558.9625"/><ellipse cx="602" cy="570.8109" fill="#84BE84" rx="2.4" ry="2.4" style="stroke:#038048;stroke-width:0.8000000000000002;"/><text fill="#000000" font-family="sans-serif" font-size="11.2" lengthAdjust="spacing" textLength="216" x="609.2" y="574.2484">addRoomToRepository(room:Room) Room</text></g><!--class RoomFactory--><g id="elem_RoomFactory"><rect codeLine="23" fill="#F1F1F1" height="63.3625" id="RoomFactory" rx="2" ry="2" style="stroke:#181818;stroke-width:0.4000000000000001;" width="529.6" x="106" y="328"/><ellipse cx="333.4" cy="345.8328" fill="#ADD1B2" rx="8.8" ry="8.8" style="stroke:#181818;stroke-width:0.8000000000000002;"/><path d="M335.6125,342.5328 Q335.7375,342.3578 335.8875,342.2703 Q336.0375,342.1828 336.2125,342.1828 Q336.5125,342.1828 336.7,342.3953 Q336.8875,342.5953 336.8875,343.0828 L336.8875,344.2453 Q336.8875,344.7328 336.7,344.9453 Q336.5125,345.1578 336.2125,345.1578 Q335.9375,345.1578 335.775,344.9953 Q335.6125,344.8453 335.525,344.4328 Q335.4875,344.1453 335.3375,343.9953 Q335.075,343.6953 334.5875,343.5203 Q334.1,343.3453 333.6,343.3453 Q332.9875,343.3453 332.475,343.6078 Q331.975,343.8703 331.575,344.4703 Q331.1875,345.0703 331.1875,345.8953 L331.1875,346.7703 Q331.1875,347.7578 331.9,348.4203 Q332.6125,349.0703 333.8875,349.0703 Q334.6375,349.0703 335.1625,348.8703 Q335.475,348.7453 335.8125,348.3953 Q336.025,348.1828 336.1375,348.1203 Q336.2625,348.0578 336.425,348.0578 Q336.6875,348.0578 336.8875,348.2703 Q337.1,348.4703 337.1,348.7453 Q337.1,349.0203 336.825,349.3453 Q336.425,349.8078 335.7875,350.0703 Q334.925,350.4328 333.8875,350.4328 Q332.675,350.4328 331.7125,349.9328 Q330.925,349.5328 330.375,348.6828 Q329.825,347.8203 329.825,346.7953 L329.825,345.8703 Q329.825,344.8078 330.3125,343.8953 Q330.8125,342.9703 331.6875,342.4828 Q332.5625,341.9828 333.55,341.9828 Q334.1375,341.9828 334.65,342.1203 Q335.175,342.2453 335.6125,342.5328 Z " fill="#000000"/><text fill="#000000" font-family="sans-serif" font-size="9.6" font-style="italic" lengthAdjust="spacing" textLength="43.2" x="362.2" y="342.3594">&#171;Factory&#187;</text><text fill="#000000" font-family="sans-serif" font-size="11.2" lengthAdjust="spacing" textLength="68" x="349.8" y="356.8547">RoomFactory</text><line style="stroke:#181818;stroke-width:0.4000000000000001;" x1="106.8" x2="634.8" y1="363.6656" y2="363.6656"/><line style="stroke:#181818;stroke-width:0.4000000000000001;" x1="106.8" x2="634.8" y1="370.0656" y2="370.0656"/><ellipse cx="114.8" cy="381.9141" fill="#84BE84" rx="2.4" ry="2.4" style="stroke:#038048;stroke-width:0.8000000000000002;"/><text fill="#000000" font-family="sans-serif" font-size="11.2" lengthAdjust="spacing" textLength="508.8" x="122" y="385.3516">createRoom(houseID: HouseID, name: RoomName, dimensions: Dimensions, floor: Floor):Description</text></g><!--class RoomAssembler--><g id="elem_RoomAssembler"><rect codeLine="27" fill="#F1F1F1" height="63.3625" id="RoomAssembler" rx="2" ry="2" style="stroke:#181818;stroke-width:0.4000000000000001;" width="218.4" x="4.8" y="24.4"/><ellipse cx="69.4" cy="42.2328" fill="#ADD1B2" rx="8.8" ry="8.8" style="stroke:#181818;stroke-width:0.8000000000000002;"/><path d="M71.6125,38.9328 Q71.7375,38.7578 71.8875,38.6703 Q72.0375,38.5828 72.2125,38.5828 Q72.5125,38.5828 72.7,38.7953 Q72.8875,38.9953 72.8875,39.4828 L72.8875,40.6453 Q72.8875,41.1328 72.7,41.3453 Q72.5125,41.5578 72.2125,41.5578 Q71.9375,41.5578 71.775,41.3953 Q71.6125,41.2453 71.525,40.8328 Q71.4875,40.5453 71.3375,40.3953 Q71.075,40.0953 70.5875,39.9203 Q70.1,39.7453 69.6,39.7453 Q68.9875,39.7453 68.475,40.0078 Q67.975,40.2703 67.575,40.8703 Q67.1875,41.4703 67.1875,42.2953 L67.1875,43.1703 Q67.1875,44.1578 67.9,44.8203 Q68.6125,45.4703 69.8875,45.4703 Q70.6375,45.4703 71.1625,45.2703 Q71.475,45.1453 71.8125,44.7953 Q72.025,44.5828 72.1375,44.5203 Q72.2625,44.4578 72.425,44.4578 Q72.6875,44.4578 72.8875,44.6703 Q73.1,44.8703 73.1,45.1453 Q73.1,45.4203 72.825,45.7453 Q72.425,46.2078 71.7875,46.4703 Q70.925,46.8328 69.8875,46.8328 Q68.675,46.8328 67.7125,46.3328 Q66.925,45.9328 66.375,45.0828 Q65.825,44.2203 65.825,43.1953 L65.825,42.2703 Q65.825,41.2078 66.3125,40.2953 Q66.8125,39.3703 67.6875,38.8828 Q68.5625,38.3828 69.55,38.3828 Q70.1375,38.3828 70.65,38.5203 Q71.175,38.6453 71.6125,38.9328 Z " fill="#000000"/><text fill="#000000" font-family="sans-serif" font-size="9.6" font-style="italic" lengthAdjust="spacing" textLength="59.2" x="97.4" y="38.7594">&#171;Assembler&#187;</text><text fill="#000000" font-family="sans-serif" font-size="11.2" lengthAdjust="spacing" textLength="82.4" x="85.8" y="53.2547">RoomAssembler</text><line style="stroke:#181818;stroke-width:0.4000000000000001;" x1="5.6" x2="222.4" y1="60.0656" y2="60.0656"/><line style="stroke:#181818;stroke-width:0.4000000000000001;" x1="5.6" x2="222.4" y1="66.4656" y2="66.4656"/><ellipse cx="13.6" cy="78.3141" fill="#84BE84" rx="2.4" ry="2.4" style="stroke:#038048;stroke-width:0.8000000000000002;"/><text fill="#000000" font-family="sans-serif" font-size="11.2" lengthAdjust="spacing" textLength="197.6" x="20.8" y="81.7516">domainToDTO(room:Room):RoomDTO</text></g><!--class RoomDTO--><g id="elem_RoomDTO"><rect codeLine="31" fill="#F1F1F1" height="108.0531" id="RoomDTO" rx="2" ry="2" style="stroke:#181818;stroke-width:0.4000000000000001;" width="144.8" x="41.6" y="161.2"/><ellipse cx="83.8" cy="179.0328" fill="#ADD1B2" rx="8.8" ry="8.8" style="stroke:#181818;stroke-width:0.8000000000000002;"/><path d="M86.0125,175.7328 Q86.1375,175.5578 86.2875,175.4703 Q86.4375,175.3828 86.6125,175.3828 Q86.9125,175.3828 87.1,175.5953 Q87.2875,175.7953 87.2875,176.2828 L87.2875,177.4453 Q87.2875,177.9328 87.1,178.1453 Q86.9125,178.3578 86.6125,178.3578 Q86.3375,178.3578 86.175,178.1953 Q86.0125,178.0453 85.925,177.6328 Q85.8875,177.3453 85.7375,177.1953 Q85.475,176.8953 84.9875,176.7203 Q84.5,176.5453 84,176.5453 Q83.3875,176.5453 82.875,176.8078 Q82.375,177.0703 81.975,177.6703 Q81.5875,178.2703 81.5875,179.0953 L81.5875,179.9703 Q81.5875,180.9578 82.3,181.6203 Q83.0125,182.2703 84.2875,182.2703 Q85.0375,182.2703 85.5625,182.0703 Q85.875,181.9453 86.2125,181.5953 Q86.425,181.3828 86.5375,181.3203 Q86.6625,181.2578 86.825,181.2578 Q87.0875,181.2578 87.2875,181.4703 Q87.5,181.6703 87.5,181.9453 Q87.5,182.2203 87.225,182.5453 Q86.825,183.0078 86.1875,183.2703 Q85.325,183.6328 84.2875,183.6328 Q83.075,183.6328 82.1125,183.1328 Q81.325,182.7328 80.775,181.8828 Q80.225,181.0203 80.225,179.9953 L80.225,179.0703 Q80.225,178.0078 80.7125,177.0953 Q81.2125,176.1703 82.0875,175.6828 Q82.9625,175.1828 83.95,175.1828 Q84.5375,175.1828 85.05,175.3203 Q85.575,175.4453 86.0125,175.7328 Z " fill="#000000"/><text fill="#000000" font-family="sans-serif" font-size="9.6" font-style="italic" lengthAdjust="spacing" textLength="31.2" x="111.4" y="175.5594">&#171;DTO&#187;</text><text fill="#000000" font-family="sans-serif" font-size="11.2" lengthAdjust="spacing" textLength="53.6" x="100.2" y="190.0547">RoomDTO</text><line style="stroke:#181818;stroke-width:0.4000000000000001;" x1="42.4" x2="185.6" y1="196.8656" y2="196.8656"/><ellipse cx="50.4" cy="208.7141" fill="none" rx="2.4" ry="2.4" style="stroke:#038048;stroke-width:0.8000000000000002;"/><text fill="#000000" font-family="sans-serif" font-size="11.2" lengthAdjust="spacing" textLength="70.4" x="57.6" y="212.1516">_name: String</text><ellipse cx="50.4" cy="223.6109" fill="none" rx="2.4" ry="2.4" style="stroke:#038048;stroke-width:0.8000000000000002;"/><text fill="#000000" font-family="sans-serif" font-size="11.2" lengthAdjust="spacing" textLength="64.8" x="57.6" y="227.0484">_floor: String</text><ellipse cx="50.4" cy="238.5078" fill="none" rx="2.4" ry="2.4" style="stroke:#038048;stroke-width:0.8000000000000002;"/><text fill="#000000" font-family="sans-serif" font-size="11.2" lengthAdjust="spacing" textLength="99.2" x="57.6" y="241.9453">_dimensions: String</text><line style="stroke:#181818;stroke-width:0.4000000000000001;" x1="42.4" x2="185.6" y1="247.9563" y2="247.9563"/><ellipse cx="50.4" cy="259.8047" fill="#84BE84" rx="2.4" ry="2.4" style="stroke:#038048;stroke-width:0.8000000000000002;"/><text fill="#000000" font-family="sans-serif" font-size="11.2" lengthAdjust="spacing" textLength="124" x="57.6" y="263.2422">RoomDTO(room:Room))</text></g><!--class Room--><g id="elem_Room"><rect codeLine="38" fill="#F1F1F1" height="212.3313" id="Room" rx="2" ry="2" style="stroke:#181818;stroke-width:0.4000000000000001;" width="437.6" x="123.2" y="435.2"/><ellipse cx="322.6" cy="453.0328" fill="#ADD1B2" rx="8.8" ry="8.8" style="stroke:#181818;stroke-width:0.8000000000000002;"/><path d="M324.8125,449.7328 Q324.9375,449.5578 325.0875,449.4703 Q325.2375,449.3828 325.4125,449.3828 Q325.7125,449.3828 325.9,449.5953 Q326.0875,449.7953 326.0875,450.2828 L326.0875,451.4453 Q326.0875,451.9328 325.9,452.1453 Q325.7125,452.3578 325.4125,452.3578 Q325.1375,452.3578 324.975,452.1953 Q324.8125,452.0453 324.725,451.6328 Q324.6875,451.3453 324.5375,451.1953 Q324.275,450.8953 323.7875,450.7203 Q323.3,450.5453 322.8,450.5453 Q322.1875,450.5453 321.675,450.8078 Q321.175,451.0703 320.775,451.6703 Q320.3875,452.2703 320.3875,453.0953 L320.3875,453.9703 Q320.3875,454.9578 321.1,455.6203 Q321.8125,456.2703 323.0875,456.2703 Q323.8375,456.2703 324.3625,456.0703 Q324.675,455.9453 325.0125,455.5953 Q325.225,455.3828 325.3375,455.3203 Q325.4625,455.2578 325.625,455.2578 Q325.8875,455.2578 326.0875,455.4703 Q326.3,455.6703 326.3,455.9453 Q326.3,456.2203 326.025,456.5453 Q325.625,457.0078 324.9875,457.2703 Q324.125,457.6328 323.0875,457.6328 Q321.875,457.6328 320.9125,457.1328 Q320.125,456.7328 319.575,455.8828 Q319.025,455.0203 319.025,453.9953 L319.025,453.0703 Q319.025,452.0078 319.5125,451.0953 Q320.0125,450.1703 320.8875,449.6828 Q321.7625,449.1828 322.75,449.1828 Q323.3375,449.1828 323.85,449.3203 Q324.375,449.4453 324.8125,449.7328 Z " fill="#000000"/><text fill="#000000" font-family="sans-serif" font-size="9.6" font-style="italic" lengthAdjust="spacing" textLength="35.2" x="337.4" y="449.5594">&#171;Entity&#187;</text><text fill="#000000" font-family="sans-serif" font-size="11.2" lengthAdjust="spacing" textLength="29.6" x="340.2" y="464.0547">Room</text><line style="stroke:#181818;stroke-width:0.4000000000000001;" x1="124" x2="560" y1="470.8656" y2="470.8656"/><rect fill="none" height="4.8" style="stroke:#C82930;stroke-width:0.8000000000000002;" width="4.8" x="129.6" y="480.3141"/><text fill="#000000" font-family="sans-serif" font-size="11.2" lengthAdjust="spacing" textLength="96.8" x="139.2" y="486.1516">_houseID: HouseID</text><rect fill="none" height="4.8" style="stroke:#C82930;stroke-width:0.8000000000000002;" width="4.8" x="129.6" y="495.2109"/><text fill="#000000" font-family="sans-serif" font-size="11.2" lengthAdjust="spacing" textLength="88.8" x="139.2" y="501.0484">_roomID: RoomID</text><rect fill="none" height="4.8" style="stroke:#C82930;stroke-width:0.8000000000000002;" width="4.8" x="129.6" y="510.1078"/><text fill="#000000" font-family="sans-serif" font-size="11.2" lengthAdjust="spacing" textLength="125.6" x="139.2" y="515.9453">_roomName: RoomName</text><rect fill="none" height="4.8" style="stroke:#C82930;stroke-width:0.8000000000000002;" width="4.8" x="129.6" y="525.0047"/><text fill="#000000" font-family="sans-serif" font-size="11.2" lengthAdjust="spacing" textLength="128" x="139.2" y="530.8422">_dimensions: Dimensions</text><rect fill="none" height="4.8" style="stroke:#C82930;stroke-width:0.8000000000000002;" width="4.8" x="129.6" y="539.9016"/><text fill="#000000" font-family="sans-serif" font-size="11.2" lengthAdjust="spacing" textLength="61.6" x="139.2" y="545.7391">_floor: Floor</text><line style="stroke:#181818;stroke-width:0.4000000000000001;" x1="124" x2="560" y1="551.75" y2="551.75"/><ellipse cx="132" cy="563.5984" fill="#84BE84" rx="2.4" ry="2.4" style="stroke:#038048;stroke-width:0.8000000000000002;"/><text fill="#000000" font-family="sans-serif" font-size="11.2" lengthAdjust="spacing" textLength="416.8" x="139.2" y="567.0359">Room(houseID: HouseID, name: RoomName, dimensions: Dimensions, floor: Floor)</text><ellipse cx="132" cy="578.4953" fill="#84BE84" rx="2.4" ry="2.4" style="stroke:#038048;stroke-width:0.8000000000000002;"/><text fill="#000000" font-family="sans-serif" font-size="11.2" lengthAdjust="spacing" textLength="70.4" x="139.2" y="581.9328">getID(): String</text><ellipse cx="132" cy="593.3922" fill="#84BE84" rx="2.4" ry="2.4" style="stroke:#038048;stroke-width:0.8000000000000002;"/><text fill="#000000" font-family="sans-serif" font-size="11.2" lengthAdjust="spacing" textLength="118.4" x="139.2" y="596.8297">getRoomName(): String</text><ellipse cx="132" cy="608.2891" fill="#84BE84" rx="2.4" ry="2.4" style="stroke:#038048;stroke-width:0.8000000000000002;"/><text fill="#000000" font-family="sans-serif" font-size="11.2" lengthAdjust="spacing" textLength="147.2" x="139.2" y="611.7266">getDimensions(): Dimensions</text><ellipse cx="132" cy="623.1859" fill="#84BE84" rx="2.4" ry="2.4" style="stroke:#038048;stroke-width:0.8000000000000002;"/><text fill="#000000" font-family="sans-serif" font-size="11.2" lengthAdjust="spacing" textLength="83.2" x="139.2" y="626.6234">getFloor(): Floor</text><ellipse cx="132" cy="638.0828" fill="#84BE84" rx="2.4" ry="2.4" style="stroke:#038048;stroke-width:0.8000000000000002;"/><text fill="#000000" font-family="sans-serif" font-size="11.2" lengthAdjust="spacing" textLength="115.2" x="139.2" y="641.5203">getHouseID(): HouseID</text></g><polygon fill="#181818" points="590.8,146.2062,594,139.0062,590.8,142.2062,587.6,139.0062,590.8,146.2062" style="stroke:#181818;stroke-width:0.8000000000000002;"/><path d="M590.8,102.5961 C590.8,116.2285 590.8,126.6694 590.8,141.4062 " fill="none" style="stroke:#181818;stroke-width:0.8000000000000002;stroke-dasharray:7.0,7.0;"/><text fill="#000000" font-family="sans-serif" font-size="10.4" lengthAdjust="spacing" textLength="22.4" x="591.6" y="128.8227">uses</text><text fill="#000000" font-family="sans-serif" font-size="10.4" lengthAdjust="spacing" textLength="5.6" x="584.4" y="143.0288">1</text><text fill="#000000" font-family="sans-serif" font-size="10.4" lengthAdjust="spacing" textLength="5.6" x="584.4" y="114.6188">1</text><polygon fill="#181818" points="418.3505,327.9354,426.132,326.6995,421.7056,325.7576,422.6475,321.3312,418.3505,327.9354" style="stroke:#181818;stroke-width:0.8000000000000002;"/><path d="M485.9546,284.0542 C462.2711,299.427 442.2944,312.3936 422.3767,325.3221 " fill="none" style="stroke:#181818;stroke-width:0.8000000000000002;stroke-dasharray:7.0,7.0;"/><text fill="#000000" font-family="sans-serif" font-size="10.4" lengthAdjust="spacing" textLength="22.4" x="462" y="310.4227">uses</text><text fill="#000000" font-family="sans-serif" font-size="10.4" lengthAdjust="spacing" textLength="5.6" x="411.9505" y="324.7581">1</text><text fill="#000000" font-family="sans-serif" font-size="10.4" lengthAdjust="spacing" textLength="5.6" x="486.7546" y="296.0769">1</text><polygon fill="#181818" points="700.6707,501.9235,701.7223,494.1149,699.5485,498.0841,695.5793,495.9103,700.6707,501.9235" style="stroke:#181818;stroke-width:0.8000000000000002;"/><path d="M624.0351,284.1368 C630.5812,298.4858 637.1614,313.6314 642.8,328 C666.2343,387.7163 686.7767,454.385 699.3241,497.3163 " fill="none" style="stroke:#181818;stroke-width:0.8000000000000002;stroke-dasharray:7.0,7.0;"/><text fill="#000000" font-family="sans-serif" font-size="10.4" lengthAdjust="spacing" textLength="22.4" x="665.2" y="364.0227">uses</text><text fill="#000000" font-family="sans-serif" font-size="10.4" lengthAdjust="spacing" textLength="5.6" x="694.2707" y="498.7462">1</text><text fill="#000000" font-family="sans-serif" font-size="10.4" lengthAdjust="spacing" textLength="5.6" x="617.6351" y="296.1594">1</text><polygon fill="#181818" points="561.003,541.2,568.203,544.4,565.003,541.2,568.203,538,561.003,541.2" style="stroke:#181818;stroke-width:0.8000000000000002;"/><path d="M565.803,541.2 C576.6989,541.2 582.6303,541.2 593.0387,541.2 " fill="none" style="stroke:#181818;stroke-width:0.8000000000000002;"/><text fill="#000000" font-family="sans-serif" font-size="10.4" lengthAdjust="spacing" textLength="16.8" x="568.6" y="535.6227">has</text><text fill="#000000" font-family="sans-serif" font-size="10.4" lengthAdjust="spacing" textLength="5.6" x="586.6387" y="553.2227">1</text><text fill="#000000" font-family="sans-serif" font-size="10.4" lengthAdjust="spacing" textLength="16" x="561.803" y="553.2227">1..*</text><polygon fill="#181818" points="223.3876,56,230.5876,59.2,227.3876,56,230.5876,52.8,223.3876,56" style="stroke:#181818;stroke-width:0.8000000000000002;"/><path d="M228.1876,56 C240.216,56 248.0716,56 261.1591,56 " fill="none" style="stroke:#181818;stroke-width:0.8000000000000002;stroke-dasharray:7.0,7.0;"/><text fill="#000000" font-family="sans-serif" font-size="10.4" lengthAdjust="spacing" textLength="22.4" x="231" y="50.4227">uses</text><text fill="#000000" font-family="sans-serif" font-size="10.4" lengthAdjust="spacing" textLength="5.6" x="254.7591" y="68.0227">1</text><text fill="#000000" font-family="sans-serif" font-size="10.4" lengthAdjust="spacing" textLength="5.6" x="224.1876" y="52.8227">1</text><polygon fill="#181818" points="114,160.9751,117.2,153.7751,114,156.9751,110.8,153.7751,114,160.9751" style="stroke:#181818;stroke-width:0.8000000000000002;"/><path d="M114,87.9367 C114,108.7485 114,131.8653 114,156.1751 " fill="none" style="stroke:#181818;stroke-width:0.8000000000000002;stroke-dasharray:7.0,7.0;"/><text fill="#000000" font-family="sans-serif" font-size="10.4" lengthAdjust="spacing" textLength="34.4" x="114.8" y="128.8227">creates</text><text fill="#000000" font-family="sans-serif" font-size="10.4" lengthAdjust="spacing" textLength="5.6" x="107.6" y="157.7978">1</text><text fill="#000000" font-family="sans-serif" font-size="10.4" lengthAdjust="spacing" textLength="5.6" x="107.6" y="99.9593">1</text><polygon fill="#181818" points="358.833,435.1938,363.1303,428.5898,359.465,431.244,356.8107,427.5787,358.833,435.1938" style="stroke:#181818;stroke-width:0.8000000000000002;"/><path d="M365.8491,391.3431 C363.8388,403.9077 362.1469,414.482 359.5913,430.4541 " fill="none" style="stroke:#181818;stroke-width:0.8000000000000002;stroke-dasharray:7.0,7.0;"/><text fill="#000000" font-family="sans-serif" font-size="10.4" lengthAdjust="spacing" textLength="34.4" x="364.4" y="417.6227">creates</text><text fill="#000000" font-family="sans-serif" font-size="10.4" lengthAdjust="spacing" textLength="5.6" x="352.433" y="432.0165">1</text><text fill="#000000" font-family="sans-serif" font-size="10.4" lengthAdjust="spacing" textLength="5.6" x="359.4491" y="403.3658">1</text><!--SRC=[lLHDRvmm4BtxLqnpMWgxKgy88KMXqUubaJPxZrnmm1BOAzlRA8hwtsjZZ0TARrKlCD_pvetjBrT5su52Jp_apO0UcA624bBtL6kuRvgpbCE354R9lcUgAA9Sbl19zl2gRCGBKpzvpN8uHuMaK_f57kLDivYvmoae8o7fWsBKC6VRTIxfLENmOXGNRGQ23Yng3TErubV3fOX6BWoyzL8gwvUt7ps3TzwORjPw9bgaTeotdKb63DNbcVmAWoDGK1IJL9Rpl6TsbPeRgJxyo54F4O-qZkv92RvxhTbW-olldLNd7wV6vOzB0qaHjjqAon9A1XW8mk4T4SK2H0Ph22i4TalKB_P_hWWsTnHHsJL5PThKGA-5YpfLcVkLuzWp-ekC2IEH8m_9M7VPPQBDjfWaLp-jDuxgqGk12ETyifATXWzCQ4k4pg6QvSmpaSEZ-oLv5GbR8fYtOp7CyeYYaGFbuY8jDMY8xHDj3JRVViTCUCNRSle49Xemwc2T2g5coRABRV5T66x25jRaX5lWJ7uxmVAq8CrPjsbp7aoS1_Mlja3IbfbJjKlYpDOGYgpCiOfp88ZEETPpzWcbDKtGd37GOSaZVpoqSFVj3WwDV1U7SfJF-9MrYPhWDsehUdw1jgELkrSe7ByvSmQwNovktxCtitSvXyDNdvP3H_NVyBjmr0AzUtE7UBAtPh07BGT_qNnuk8fRmJ6I_0O0]--></g></svg>