<?xml version="1.0" encoding="us-ascii" standalone="no"?><svg xmlns="http://www.w3.org/2000/svg" xmlns:xlink="http://www.w3.org/1999/xlink" contentStyleType="text/css" height="1083px" preserveAspectRatio="none" style="width:752px;height:1083px;background:#FFFFFF;" version="1.1" viewBox="0 0 752 1083" width="752px" zoomAndPan="magnify"><defs/><g><!--class House--><g id="elem_House"><rect codeLine="7" fill="#F1F1F1" height="103.8633" id="House" rx="2.5" ry="2.5" style="stroke:#181818;stroke-width:0.5;" width="137" x="315.5" y="21"/><ellipse cx="359.75" cy="37" fill="#ADD1B2" rx="11" ry="11" style="stroke:#181818;stroke-width:1.0;"/><path d="M362.5156,32.875 Q362.6719,32.6563 362.8594,32.5469 Q363.0469,32.4375 363.2656,32.4375 Q363.6406,32.4375 363.875,32.7031 Q364.1094,32.9531 364.1094,33.5625 L364.1094,35.0156 Q364.1094,35.625 363.875,35.8906 Q363.6406,36.1563 363.2656,36.1563 Q362.9219,36.1563 362.7188,35.9531 Q362.5156,35.7656 362.4063,35.25 Q362.3594,34.8906 362.1719,34.7031 Q361.8438,34.3281 361.2344,34.1094 Q360.625,33.8906 360,33.8906 Q359.2344,33.8906 358.5938,34.2188 Q357.9688,34.5469 357.4688,35.2969 Q356.9844,36.0469 356.9844,37.0781 L356.9844,38.1719 Q356.9844,39.4063 357.875,40.2344 Q358.7656,41.0469 360.3594,41.0469 Q361.2969,41.0469 361.9531,40.7969 Q362.3438,40.6406 362.7656,40.2031 Q363.0313,39.9375 363.1719,39.8594 Q363.3281,39.7813 363.5313,39.7813 Q363.8594,39.7813 364.1094,40.0469 Q364.375,40.2969 364.375,40.6406 Q364.375,40.9844 364.0313,41.3906 Q363.5313,41.9688 362.7344,42.2969 Q361.6563,42.75 360.3594,42.75 Q358.8438,42.75 357.6406,42.125 Q356.6563,41.625 355.9688,40.5625 Q355.2813,39.4844 355.2813,38.2031 L355.2813,37.0469 Q355.2813,35.7188 355.8906,34.5781 Q356.5156,33.4219 357.6094,32.8125 Q358.7031,32.1875 359.9375,32.1875 Q360.6719,32.1875 361.3125,32.3594 Q361.9688,32.5156 362.5156,32.875 Z " fill="#000000"/><text fill="#000000" font-family="sans-serif" font-size="14" lengthAdjust="spacing" textLength="40" x="380.25" y="42.7969">House</text><line style="stroke:#181818;stroke-width:0.5;" x1="316.5" x2="451.5" y1="53" y2="53"/><rect fill="none" height="6" style="stroke:#C82930;stroke-width:1.0;" width="6" x="323.5" y="64.8105"/><text fill="#000000" font-family="sans-serif" font-size="14" lengthAdjust="spacing" textLength="72" x="335.5" y="72.1074">id: HouseID</text><rect fill="none" height="6" style="stroke:#C82930;stroke-width:1.0;" width="6" x="323.5" y="83.4316"/><text fill="#000000" font-family="sans-serif" font-size="14" lengthAdjust="spacing" textLength="111" x="335.5" y="90.7285">address: Address</text><rect fill="none" height="6" style="stroke:#C82930;stroke-width:1.0;" width="6" x="323.5" y="102.0527"/><text fill="#000000" font-family="sans-serif" font-size="14" lengthAdjust="spacing" textLength="60" x="335.5" y="109.3496">gps: GPS</text><line style="stroke:#181818;stroke-width:0.5;" x1="316.5" x2="451.5" y1="116.8633" y2="116.8633"/></g><!--class Address--><g id="elem_Address"><rect codeLine="12" fill="#F1F1F1" height="122.4844" id="Address" rx="2.5" ry="2.5" style="stroke:#181818;stroke-width:0.5;" width="182" x="93" y="12"/><ellipse cx="153.75" cy="28" fill="#ADD1B2" rx="11" ry="11" style="stroke:#181818;stroke-width:1.0;"/><path d="M156.5156,23.875 Q156.6719,23.6563 156.8594,23.5469 Q157.0469,23.4375 157.2656,23.4375 Q157.6406,23.4375 157.875,23.7031 Q158.1094,23.9531 158.1094,24.5625 L158.1094,26.0156 Q158.1094,26.625 157.875,26.8906 Q157.6406,27.1563 157.2656,27.1563 Q156.9219,27.1563 156.7188,26.9531 Q156.5156,26.7656 156.4063,26.25 Q156.3594,25.8906 156.1719,25.7031 Q155.8438,25.3281 155.2344,25.1094 Q154.625,24.8906 154,24.8906 Q153.2344,24.8906 152.5938,25.2188 Q151.9688,25.5469 151.4688,26.2969 Q150.9844,27.0469 150.9844,28.0781 L150.9844,29.1719 Q150.9844,30.4063 151.875,31.2344 Q152.7656,32.0469 154.3594,32.0469 Q155.2969,32.0469 155.9531,31.7969 Q156.3438,31.6406 156.7656,31.2031 Q157.0313,30.9375 157.1719,30.8594 Q157.3281,30.7813 157.5313,30.7813 Q157.8594,30.7813 158.1094,31.0469 Q158.375,31.2969 158.375,31.6406 Q158.375,31.9844 158.0313,32.3906 Q157.5313,32.9688 156.7344,33.2969 Q155.6563,33.75 154.3594,33.75 Q152.8438,33.75 151.6406,33.125 Q150.6563,32.625 149.9688,31.5625 Q149.2813,30.4844 149.2813,29.2031 L149.2813,28.0469 Q149.2813,26.7188 149.8906,25.5781 Q150.5156,24.4219 151.6094,23.8125 Q152.7031,23.1875 153.9375,23.1875 Q154.6719,23.1875 155.3125,23.3594 Q155.9688,23.5156 156.5156,23.875 Z " fill="#000000"/><text fill="#000000" font-family="sans-serif" font-size="14" lengthAdjust="spacing" textLength="52" x="174.25" y="33.7969">Address</text><line style="stroke:#181818;stroke-width:0.5;" x1="94" x2="274" y1="44" y2="44"/><rect fill="none" height="6" style="stroke:#C82930;stroke-width:1.0;" width="6" x="101" y="55.8105"/><text fill="#000000" font-family="sans-serif" font-size="14" lengthAdjust="spacing" textLength="81" x="113" y="63.1074">street: String</text><rect fill="none" height="6" style="stroke:#C82930;stroke-width:1.0;" width="6" x="101" y="74.4316"/><text fill="#000000" font-family="sans-serif" font-size="14" lengthAdjust="spacing" textLength="123" x="113" y="81.7285">doorNumber: String</text><rect fill="none" height="6" style="stroke:#C82930;stroke-width:1.0;" width="6" x="101" y="93.0527"/><text fill="#000000" font-family="sans-serif" font-size="14" lengthAdjust="spacing" textLength="126" x="113" y="100.3496">countryCode: String</text><rect fill="none" height="6" style="stroke:#C82930;stroke-width:1.0;" width="6" x="101" y="111.6738"/><text fill="#000000" font-family="sans-serif" font-size="14" lengthAdjust="spacing" textLength="156" x="113" y="118.9707">postalCode: IPostalCode</text><line style="stroke:#181818;stroke-width:0.5;" x1="94" x2="274" y1="126.4844" y2="126.4844"/></g><!--class GPS--><g id="elem_GPS"><rect codeLine="18" fill="#F1F1F1" height="85.2422" id="GPS" rx="2.5" ry="2.5" style="stroke:#181818;stroke-width:0.5;" width="135" x="493.5" y="30.5"/><ellipse cx="542.25" cy="46.5" fill="#ADD1B2" rx="11" ry="11" style="stroke:#181818;stroke-width:1.0;"/><path d="M545.0156,42.375 Q545.1719,42.1563 545.3594,42.0469 Q545.5469,41.9375 545.7656,41.9375 Q546.1406,41.9375 546.375,42.2031 Q546.6094,42.4531 546.6094,43.0625 L546.6094,44.5156 Q546.6094,45.125 546.375,45.3906 Q546.1406,45.6563 545.7656,45.6563 Q545.4219,45.6563 545.2188,45.4531 Q545.0156,45.2656 544.9063,44.75 Q544.8594,44.3906 544.6719,44.2031 Q544.3438,43.8281 543.7344,43.6094 Q543.125,43.3906 542.5,43.3906 Q541.7344,43.3906 541.0938,43.7188 Q540.4688,44.0469 539.9688,44.7969 Q539.4844,45.5469 539.4844,46.5781 L539.4844,47.6719 Q539.4844,48.9063 540.375,49.7344 Q541.2656,50.5469 542.8594,50.5469 Q543.7969,50.5469 544.4531,50.2969 Q544.8438,50.1406 545.2656,49.7031 Q545.5313,49.4375 545.6719,49.3594 Q545.8281,49.2813 546.0313,49.2813 Q546.3594,49.2813 546.6094,49.5469 Q546.875,49.7969 546.875,50.1406 Q546.875,50.4844 546.5313,50.8906 Q546.0313,51.4688 545.2344,51.7969 Q544.1563,52.25 542.8594,52.25 Q541.3438,52.25 540.1406,51.625 Q539.1563,51.125 538.4688,50.0625 Q537.7813,48.9844 537.7813,47.7031 L537.7813,46.5469 Q537.7813,45.2188 538.3906,44.0781 Q539.0156,42.9219 540.1094,42.3125 Q541.2031,41.6875 542.4375,41.6875 Q543.1719,41.6875 543.8125,41.8594 Q544.4688,42.0156 545.0156,42.375 Z " fill="#000000"/><text fill="#000000" font-family="sans-serif" font-size="14" lengthAdjust="spacing" textLength="29" x="562.75" y="52.2969">GPS</text><line style="stroke:#181818;stroke-width:0.5;" x1="494.5" x2="627.5" y1="62.5" y2="62.5"/><rect fill="none" height="6" style="stroke:#C82930;stroke-width:1.0;" width="6" x="501.5" y="74.3105"/><text fill="#000000" font-family="sans-serif" font-size="14" lengthAdjust="spacing" textLength="97" x="513.5" y="81.6074">latitude: double</text><rect fill="none" height="6" style="stroke:#C82930;stroke-width:1.0;" width="6" x="501.5" y="92.9316"/><text fill="#000000" font-family="sans-serif" font-size="14" lengthAdjust="spacing" textLength="109" x="513.5" y="100.2285">longitude: double</text><line style="stroke:#181818;stroke-width:0.5;" x1="494.5" x2="627.5" y1="107.7422" y2="107.7422"/></g><!--class Room--><g id="elem_Room"><rect codeLine="23" fill="#F1F1F1" height="141.1055" id="Room" rx="2.5" ry="2.5" style="stroke:#181818;stroke-width:0.5;" width="164" x="302" y="189"/><ellipse cx="361.25" cy="205" fill="#ADD1B2" rx="11" ry="11" style="stroke:#181818;stroke-width:1.0;"/><path d="M364.0156,200.875 Q364.1719,200.6563 364.3594,200.5469 Q364.5469,200.4375 364.7656,200.4375 Q365.1406,200.4375 365.375,200.7031 Q365.6094,200.9531 365.6094,201.5625 L365.6094,203.0156 Q365.6094,203.625 365.375,203.8906 Q365.1406,204.1563 364.7656,204.1563 Q364.4219,204.1563 364.2188,203.9531 Q364.0156,203.7656 363.9063,203.25 Q363.8594,202.8906 363.6719,202.7031 Q363.3438,202.3281 362.7344,202.1094 Q362.125,201.8906 361.5,201.8906 Q360.7344,201.8906 360.0938,202.2188 Q359.4688,202.5469 358.9688,203.2969 Q358.4844,204.0469 358.4844,205.0781 L358.4844,206.1719 Q358.4844,207.4063 359.375,208.2344 Q360.2656,209.0469 361.8594,209.0469 Q362.7969,209.0469 363.4531,208.7969 Q363.8438,208.6406 364.2656,208.2031 Q364.5313,207.9375 364.6719,207.8594 Q364.8281,207.7813 365.0313,207.7813 Q365.3594,207.7813 365.6094,208.0469 Q365.875,208.2969 365.875,208.6406 Q365.875,208.9844 365.5313,209.3906 Q365.0313,209.9688 364.2344,210.2969 Q363.1563,210.75 361.8594,210.75 Q360.3438,210.75 359.1406,210.125 Q358.1563,209.625 357.4688,208.5625 Q356.7813,207.4844 356.7813,206.2031 L356.7813,205.0469 Q356.7813,203.7188 357.3906,202.5781 Q358.0156,201.4219 359.1094,200.8125 Q360.2031,200.1875 361.4375,200.1875 Q362.1719,200.1875 362.8125,200.3594 Q363.4688,200.5156 364.0156,200.875 Z " fill="#000000"/><text fill="#000000" font-family="sans-serif" font-size="14" lengthAdjust="spacing" textLength="37" x="381.75" y="210.7969">Room</text><line style="stroke:#181818;stroke-width:0.5;" x1="303" x2="465" y1="221" y2="221"/><rect fill="none" height="6" style="stroke:#C82930;stroke-width:1.0;" width="6" x="310" y="232.8105"/><text fill="#000000" font-family="sans-serif" font-size="14" lengthAdjust="spacing" textLength="113" x="322" y="240.1074">houseID: HouseID</text><rect fill="none" height="6" style="stroke:#C82930;stroke-width:1.0;" width="6" x="310" y="251.4316"/><text fill="#000000" font-family="sans-serif" font-size="14" lengthAdjust="spacing" textLength="106" x="322" y="258.7285">floor: RoomFloor</text><rect fill="none" height="6" style="stroke:#C82930;stroke-width:1.0;" width="6" x="310" y="270.0527"/><text fill="#000000" font-family="sans-serif" font-size="14" lengthAdjust="spacing" textLength="116" x="322" y="277.3496">name: RoomName</text><rect fill="none" height="6" style="stroke:#C82930;stroke-width:1.0;" width="6" x="310" y="288.6738"/><text fill="#000000" font-family="sans-serif" font-size="14" lengthAdjust="spacing" textLength="138" x="322" y="295.9707">dimension: Dimension</text><rect fill="none" height="6" style="stroke:#C82930;stroke-width:1.0;" width="6" x="310" y="307.2949"/><text fill="#000000" font-family="sans-serif" font-size="14" lengthAdjust="spacing" textLength="69" x="322" y="314.5918">id: RoomID</text><line style="stroke:#181818;stroke-width:0.5;" x1="303" x2="465" y1="322.1055" y2="322.1055"/></g><!--class Dimensions--><g id="elem_Dimensions"><rect codeLine="31" fill="#F1F1F1" height="103.8633" id="Dimensions" rx="2.5" ry="2.5" style="stroke:#181818;stroke-width:0.5;" width="105" x="506.5" y="207.5"/><ellipse cx="521.5" cy="223.5" fill="#ADD1B2" rx="11" ry="11" style="stroke:#181818;stroke-width:1.0;"/><path d="M524.2656,219.375 Q524.4219,219.1563 524.6094,219.0469 Q524.7969,218.9375 525.0156,218.9375 Q525.3906,218.9375 525.625,219.2031 Q525.8594,219.4531 525.8594,220.0625 L525.8594,221.5156 Q525.8594,222.125 525.625,222.3906 Q525.3906,222.6563 525.0156,222.6563 Q524.6719,222.6563 524.4688,222.4531 Q524.2656,222.2656 524.1563,221.75 Q524.1094,221.3906 523.9219,221.2031 Q523.5938,220.8281 522.9844,220.6094 Q522.375,220.3906 521.75,220.3906 Q520.9844,220.3906 520.3438,220.7188 Q519.7188,221.0469 519.2188,221.7969 Q518.7344,222.5469 518.7344,223.5781 L518.7344,224.6719 Q518.7344,225.9063 519.625,226.7344 Q520.5156,227.5469 522.1094,227.5469 Q523.0469,227.5469 523.7031,227.2969 Q524.0938,227.1406 524.5156,226.7031 Q524.7813,226.4375 524.9219,226.3594 Q525.0781,226.2813 525.2813,226.2813 Q525.6094,226.2813 525.8594,226.5469 Q526.125,226.7969 526.125,227.1406 Q526.125,227.4844 525.7813,227.8906 Q525.2813,228.4688 524.4844,228.7969 Q523.4063,229.25 522.1094,229.25 Q520.5938,229.25 519.3906,228.625 Q518.4063,228.125 517.7188,227.0625 Q517.0313,225.9844 517.0313,224.7031 L517.0313,223.5469 Q517.0313,222.2188 517.6406,221.0781 Q518.2656,219.9219 519.3594,219.3125 Q520.4531,218.6875 521.6875,218.6875 Q522.4219,218.6875 523.0625,218.8594 Q523.7188,219.0156 524.2656,219.375 Z " fill="#000000"/><text fill="#000000" font-family="sans-serif" font-size="14" lengthAdjust="spacing" textLength="73" x="535.5" y="229.2969">Dimensions</text><line style="stroke:#181818;stroke-width:0.5;" x1="507.5" x2="610.5" y1="239.5" y2="239.5"/><rect fill="none" height="6" style="stroke:#C82930;stroke-width:1.0;" width="6" x="514.5" y="251.3105"/><text fill="#000000" font-family="sans-serif" font-size="14" lengthAdjust="spacing" textLength="55" x="526.5" y="258.6074">width: int</text><rect fill="none" height="6" style="stroke:#C82930;stroke-width:1.0;" width="6" x="514.5" y="269.9316"/><text fill="#000000" font-family="sans-serif" font-size="14" lengthAdjust="spacing" textLength="62" x="526.5" y="277.2285">length: int</text><rect fill="none" height="6" style="stroke:#C82930;stroke-width:1.0;" width="6" x="514.5" y="288.5527"/><text fill="#000000" font-family="sans-serif" font-size="14" lengthAdjust="spacing" textLength="62" x="526.5" y="295.8496">height: int</text><line style="stroke:#181818;stroke-width:0.5;" x1="507.5" x2="610.5" y1="303.3633" y2="303.3633"/></g><!--class Device--><g id="elem_Device"><rect codeLine="37" fill="#F1F1F1" height="141.1055" id="Device" rx="2.5" ry="2.5" style="stroke:#181818;stroke-width:0.5;" width="208" x="280" y="385"/><ellipse cx="358.25" cy="401" fill="#ADD1B2" rx="11" ry="11" style="stroke:#181818;stroke-width:1.0;"/><path d="M361.0156,396.875 Q361.1719,396.6563 361.3594,396.5469 Q361.5469,396.4375 361.7656,396.4375 Q362.1406,396.4375 362.375,396.7031 Q362.6094,396.9531 362.6094,397.5625 L362.6094,399.0156 Q362.6094,399.625 362.375,399.8906 Q362.1406,400.1563 361.7656,400.1563 Q361.4219,400.1563 361.2188,399.9531 Q361.0156,399.7656 360.9063,399.25 Q360.8594,398.8906 360.6719,398.7031 Q360.3438,398.3281 359.7344,398.1094 Q359.125,397.8906 358.5,397.8906 Q357.7344,397.8906 357.0938,398.2188 Q356.4688,398.5469 355.9688,399.2969 Q355.4844,400.0469 355.4844,401.0781 L355.4844,402.1719 Q355.4844,403.4063 356.375,404.2344 Q357.2656,405.0469 358.8594,405.0469 Q359.7969,405.0469 360.4531,404.7969 Q360.8438,404.6406 361.2656,404.2031 Q361.5313,403.9375 361.6719,403.8594 Q361.8281,403.7813 362.0313,403.7813 Q362.3594,403.7813 362.6094,404.0469 Q362.875,404.2969 362.875,404.6406 Q362.875,404.9844 362.5313,405.3906 Q362.0313,405.9688 361.2344,406.2969 Q360.1563,406.75 358.8594,406.75 Q357.3438,406.75 356.1406,406.125 Q355.1563,405.625 354.4688,404.5625 Q353.7813,403.4844 353.7813,402.2031 L353.7813,401.0469 Q353.7813,399.7188 354.3906,398.5781 Q355.0156,397.4219 356.1094,396.8125 Q357.2031,396.1875 358.4375,396.1875 Q359.1719,396.1875 359.8125,396.3594 Q360.4688,396.5156 361.0156,396.875 Z " fill="#000000"/><text fill="#000000" font-family="sans-serif" font-size="14" lengthAdjust="spacing" textLength="43" x="378.75" y="406.7969">Device</text><line style="stroke:#181818;stroke-width:0.5;" x1="281" x2="487" y1="417" y2="417"/><rect fill="none" height="6" style="stroke:#C82930;stroke-width:1.0;" width="6" x="288" y="428.8105"/><text fill="#000000" font-family="sans-serif" font-size="14" lengthAdjust="spacing" textLength="103" x="300" y="436.1074">roomID: RoomID</text><rect fill="none" height="6" style="stroke:#C82930;stroke-width:1.0;" width="6" x="288" y="447.4316"/><text fill="#000000" font-family="sans-serif" font-size="14" lengthAdjust="spacing" textLength="122" x="300" y="454.7285">name: DeviceName</text><rect fill="none" height="6" style="stroke:#C82930;stroke-width:1.0;" width="6" x="288" y="466.0527"/><text fill="#000000" font-family="sans-serif" font-size="14" lengthAdjust="spacing" textLength="182" x="300" y="473.3496">deviceTypeID: DeviceTypeID</text><rect fill="none" height="6" style="stroke:#C82930;stroke-width:1.0;" width="6" x="288" y="484.6738"/><text fill="#000000" font-family="sans-serif" font-size="14" lengthAdjust="spacing" textLength="75" x="300" y="491.9707">id: DeviceID</text><rect fill="none" height="6" style="stroke:#C82930;stroke-width:1.0;" width="6" x="288" y="503.2949"/><text fill="#000000" font-family="sans-serif" font-size="14" lengthAdjust="spacing" textLength="129" x="300" y="510.5918">status: DeviceStatus</text><line style="stroke:#181818;stroke-width:0.5;" x1="281" x2="487" y1="518.1055" y2="518.1055"/></g><!--class Sensor--><g id="elem_Sensor"><rect codeLine="45" fill="#F1F1F1" height="141.1055" id="Sensor" rx="2.5" ry="2.5" style="stroke:#181818;stroke-width:0.5;" width="212" x="6" y="599.5"/><ellipse cx="85.25" cy="615.5" fill="#ADD1B2" rx="11" ry="11" style="stroke:#181818;stroke-width:1.0;"/><path d="M88.0156,611.375 Q88.1719,611.1563 88.3594,611.0469 Q88.5469,610.9375 88.7656,610.9375 Q89.1406,610.9375 89.375,611.2031 Q89.6094,611.4531 89.6094,612.0625 L89.6094,613.5156 Q89.6094,614.125 89.375,614.3906 Q89.1406,614.6563 88.7656,614.6563 Q88.4219,614.6563 88.2188,614.4531 Q88.0156,614.2656 87.9063,613.75 Q87.8594,613.3906 87.6719,613.2031 Q87.3438,612.8281 86.7344,612.6094 Q86.125,612.3906 85.5,612.3906 Q84.7344,612.3906 84.0938,612.7188 Q83.4688,613.0469 82.9688,613.7969 Q82.4844,614.5469 82.4844,615.5781 L82.4844,616.6719 Q82.4844,617.9063 83.375,618.7344 Q84.2656,619.5469 85.8594,619.5469 Q86.7969,619.5469 87.4531,619.2969 Q87.8438,619.1406 88.2656,618.7031 Q88.5313,618.4375 88.6719,618.3594 Q88.8281,618.2813 89.0313,618.2813 Q89.3594,618.2813 89.6094,618.5469 Q89.875,618.7969 89.875,619.1406 Q89.875,619.4844 89.5313,619.8906 Q89.0313,620.4688 88.2344,620.7969 Q87.1563,621.25 85.8594,621.25 Q84.3438,621.25 83.1406,620.625 Q82.1563,620.125 81.4688,619.0625 Q80.7813,617.9844 80.7813,616.7031 L80.7813,615.5469 Q80.7813,614.2188 81.3906,613.0781 Q82.0156,611.9219 83.1094,611.3125 Q84.2031,610.6875 85.4375,610.6875 Q86.1719,610.6875 86.8125,610.8594 Q87.4688,611.0156 88.0156,611.375 Z " fill="#000000"/><text fill="#000000" font-family="sans-serif" font-size="14" lengthAdjust="spacing" textLength="45" x="105.75" y="621.2969">Sensor</text><line style="stroke:#181818;stroke-width:0.5;" x1="7" x2="217" y1="631.5" y2="631.5"/><rect fill="none" height="6" style="stroke:#C82930;stroke-width:1.0;" width="6" x="14" y="643.3105"/><text fill="#000000" font-family="sans-serif" font-size="14" lengthAdjust="spacing" textLength="77" x="26" y="650.6074">id: SensorID</text><rect fill="none" height="6" style="stroke:#C82930;stroke-width:1.0;" width="6" x="14" y="661.9316"/><text fill="#000000" font-family="sans-serif" font-size="14" lengthAdjust="spacing" textLength="124" x="26" y="669.2285">name: SensorName</text><rect fill="none" height="6" style="stroke:#C82930;stroke-width:1.0;" width="6" x="14" y="680.5527"/><text fill="#000000" font-family="sans-serif" font-size="14" lengthAdjust="spacing" textLength="103" x="26" y="687.8496">path: ModelPath</text><rect fill="none" height="6" style="stroke:#C82930;stroke-width:1.0;" width="6" x="14" y="699.1738"/><text fill="#000000" font-family="sans-serif" font-size="14" lengthAdjust="spacing" textLength="186" x="26" y="706.4707">sensorTypeID: SensorTypeID</text><rect fill="none" height="6" style="stroke:#C82930;stroke-width:1.0;" width="6" x="14" y="717.7949"/><text fill="#000000" font-family="sans-serif" font-size="14" lengthAdjust="spacing" textLength="118" x="26" y="725.0918">deviceID: DeviceID</text><line style="stroke:#181818;stroke-width:0.5;" x1="7" x2="217" y1="732.6055" y2="732.6055"/></g><!--class SensorType--><g id="elem_SensorType"><rect codeLine="53" fill="#F1F1F1" height="103.8633" id="SensorType" rx="2.5" ry="2.5" style="stroke:#181818;stroke-width:0.5;" width="172" x="174" y="814"/><ellipse cx="217.35" cy="830" fill="#ADD1B2" rx="11" ry="11" style="stroke:#181818;stroke-width:1.0;"/><path d="M220.1156,825.875 Q220.2719,825.6563 220.4594,825.5469 Q220.6469,825.4375 220.8656,825.4375 Q221.2406,825.4375 221.475,825.7031 Q221.7094,825.9531 221.7094,826.5625 L221.7094,828.0156 Q221.7094,828.625 221.475,828.8906 Q221.2406,829.1563 220.8656,829.1563 Q220.5219,829.1563 220.3188,828.9531 Q220.1156,828.7656 220.0063,828.25 Q219.9594,827.8906 219.7719,827.7031 Q219.4438,827.3281 218.8344,827.1094 Q218.225,826.8906 217.6,826.8906 Q216.8344,826.8906 216.1938,827.2188 Q215.5688,827.5469 215.0688,828.2969 Q214.5844,829.0469 214.5844,830.0781 L214.5844,831.1719 Q214.5844,832.4063 215.475,833.2344 Q216.3656,834.0469 217.9594,834.0469 Q218.8969,834.0469 219.5531,833.7969 Q219.9438,833.6406 220.3656,833.2031 Q220.6313,832.9375 220.7719,832.8594 Q220.9281,832.7813 221.1313,832.7813 Q221.4594,832.7813 221.7094,833.0469 Q221.975,833.2969 221.975,833.6406 Q221.975,833.9844 221.6313,834.3906 Q221.1313,834.9688 220.3344,835.2969 Q219.2563,835.75 217.9594,835.75 Q216.4438,835.75 215.2406,835.125 Q214.2563,834.625 213.5688,833.5625 Q212.8813,832.4844 212.8813,831.2031 L212.8813,830.0469 Q212.8813,828.7188 213.4906,827.5781 Q214.1156,826.4219 215.2094,825.8125 Q216.3031,825.1875 217.5375,825.1875 Q218.2719,825.1875 218.9125,825.3594 Q219.5688,825.5156 220.1156,825.875 Z " fill="#000000"/><text fill="#000000" font-family="sans-serif" font-size="14" lengthAdjust="spacing" textLength="77" x="237.65" y="835.7969">SensorType</text><line style="stroke:#181818;stroke-width:0.5;" x1="175" x2="345" y1="846" y2="846"/><rect fill="none" height="6" style="stroke:#C82930;stroke-width:1.0;" width="6" x="182" y="857.8105"/><text fill="#000000" font-family="sans-serif" font-size="14" lengthAdjust="spacing" textLength="146" x="194" y="865.1074">name: TypeDescription</text><rect fill="none" height="6" style="stroke:#C82930;stroke-width:1.0;" width="6" x="182" y="876.4316"/><text fill="#000000" font-family="sans-serif" font-size="14" lengthAdjust="spacing" textLength="68" x="194" y="883.7285">unit: UnitID</text><rect fill="none" height="6" style="stroke:#C82930;stroke-width:1.0;" width="6" x="182" y="895.0527"/><text fill="#000000" font-family="sans-serif" font-size="14" lengthAdjust="spacing" textLength="109" x="194" y="902.3496">id: SensorTypeID</text><line style="stroke:#181818;stroke-width:0.5;" x1="175" x2="345" y1="909.8633" y2="909.8633"/></g><!--class SensorModel--><g id="elem_SensorModel"><rect codeLine="59" fill="#F1F1F1" height="103.8633" id="SensorModel" rx="2.5" ry="2.5" style="stroke:#181818;stroke-width:0.5;" width="212" x="32" y="973"/><ellipse cx="92.25" cy="989" fill="#ADD1B2" rx="11" ry="11" style="stroke:#181818;stroke-width:1.0;"/><path d="M95.0156,984.875 Q95.1719,984.6563 95.3594,984.5469 Q95.5469,984.4375 95.7656,984.4375 Q96.1406,984.4375 96.375,984.7031 Q96.6094,984.9531 96.6094,985.5625 L96.6094,987.0156 Q96.6094,987.625 96.375,987.8906 Q96.1406,988.1563 95.7656,988.1563 Q95.4219,988.1563 95.2188,987.9531 Q95.0156,987.7656 94.9063,987.25 Q94.8594,986.8906 94.6719,986.7031 Q94.3438,986.3281 93.7344,986.1094 Q93.125,985.8906 92.5,985.8906 Q91.7344,985.8906 91.0938,986.2188 Q90.4688,986.5469 89.9688,987.2969 Q89.4844,988.0469 89.4844,989.0781 L89.4844,990.1719 Q89.4844,991.4063 90.375,992.2344 Q91.2656,993.0469 92.8594,993.0469 Q93.7969,993.0469 94.4531,992.7969 Q94.8438,992.6406 95.2656,992.2031 Q95.5313,991.9375 95.6719,991.8594 Q95.8281,991.7813 96.0313,991.7813 Q96.3594,991.7813 96.6094,992.0469 Q96.875,992.2969 96.875,992.6406 Q96.875,992.9844 96.5313,993.3906 Q96.0313,993.9688 95.2344,994.2969 Q94.1563,994.75 92.8594,994.75 Q91.3438,994.75 90.1406,994.125 Q89.1563,993.625 88.4688,992.5625 Q87.7813,991.4844 87.7813,990.2031 L87.7813,989.0469 Q87.7813,987.7188 88.3906,986.5781 Q89.0156,985.4219 90.1094,984.8125 Q91.2031,984.1875 92.4375,984.1875 Q93.1719,984.1875 93.8125,984.3594 Q94.4688,984.5156 95.0156,984.875 Z " fill="#000000"/><text fill="#000000" font-family="sans-serif" font-size="14" lengthAdjust="spacing" textLength="83" x="112.75" y="994.7969">SensorModel</text><line style="stroke:#181818;stroke-width:0.5;" x1="33" x2="243" y1="1005" y2="1005"/><rect fill="none" height="6" style="stroke:#C82930;stroke-width:1.0;" width="6" x="40" y="1016.8105"/><text fill="#000000" font-family="sans-serif" font-size="14" lengthAdjust="spacing" textLength="162" x="52" y="1024.1074">name: SensorModelName</text><rect fill="none" height="6" style="stroke:#C82930;stroke-width:1.0;" width="6" x="40" y="1035.4316"/><text fill="#000000" font-family="sans-serif" font-size="14" lengthAdjust="spacing" textLength="142" x="52" y="1042.7285">modelPath: ModelPath</text><rect fill="none" height="6" style="stroke:#C82930;stroke-width:1.0;" width="6" x="40" y="1054.0527"/><text fill="#000000" font-family="sans-serif" font-size="14" lengthAdjust="spacing" textLength="186" x="52" y="1061.3496">sensorTypeID: SensorTypeID</text><line style="stroke:#181818;stroke-width:0.5;" x1="33" x2="243" y1="1068.8633" y2="1068.8633"/></g><!--class Actuator--><g id="elem_Actuator"><rect codeLine="65" fill="#F1F1F1" height="141.1055" id="Actuator" rx="2.5" ry="2.5" style="stroke:#181818;stroke-width:0.5;" width="229" x="511.5" y="599.5"/><ellipse cx="595.25" cy="615.5" fill="#ADD1B2" rx="11" ry="11" style="stroke:#181818;stroke-width:1.0;"/><path d="M598.0156,611.375 Q598.1719,611.1563 598.3594,611.0469 Q598.5469,610.9375 598.7656,610.9375 Q599.1406,610.9375 599.375,611.2031 Q599.6094,611.4531 599.6094,612.0625 L599.6094,613.5156 Q599.6094,614.125 599.375,614.3906 Q599.1406,614.6563 598.7656,614.6563 Q598.4219,614.6563 598.2188,614.4531 Q598.0156,614.2656 597.9063,613.75 Q597.8594,613.3906 597.6719,613.2031 Q597.3438,612.8281 596.7344,612.6094 Q596.125,612.3906 595.5,612.3906 Q594.7344,612.3906 594.0938,612.7188 Q593.4688,613.0469 592.9688,613.7969 Q592.4844,614.5469 592.4844,615.5781 L592.4844,616.6719 Q592.4844,617.9063 593.375,618.7344 Q594.2656,619.5469 595.8594,619.5469 Q596.7969,619.5469 597.4531,619.2969 Q597.8438,619.1406 598.2656,618.7031 Q598.5313,618.4375 598.6719,618.3594 Q598.8281,618.2813 599.0313,618.2813 Q599.3594,618.2813 599.6094,618.5469 Q599.875,618.7969 599.875,619.1406 Q599.875,619.4844 599.5313,619.8906 Q599.0313,620.4688 598.2344,620.7969 Q597.1563,621.25 595.8594,621.25 Q594.3438,621.25 593.1406,620.625 Q592.1563,620.125 591.4688,619.0625 Q590.7813,617.9844 590.7813,616.7031 L590.7813,615.5469 Q590.7813,614.2188 591.3906,613.0781 Q592.0156,611.9219 593.1094,611.3125 Q594.2031,610.6875 595.4375,610.6875 Q596.1719,610.6875 596.8125,610.8594 Q597.4688,611.0156 598.0156,611.375 Z " fill="#000000"/><text fill="#000000" font-family="sans-serif" font-size="14" lengthAdjust="spacing" textLength="53" x="615.75" y="621.2969">Actuator</text><line style="stroke:#181818;stroke-width:0.5;" x1="512.5" x2="739.5" y1="631.5" y2="631.5"/><rect fill="none" height="6" style="stroke:#C82930;stroke-width:1.0;" width="6" x="519.5" y="643.3105"/><text fill="#000000" font-family="sans-serif" font-size="14" lengthAdjust="spacing" textLength="77" x="531.5" y="650.6074">id: SensorID</text><rect fill="none" height="6" style="stroke:#C82930;stroke-width:1.0;" width="6" x="519.5" y="661.9316"/><text fill="#000000" font-family="sans-serif" font-size="14" lengthAdjust="spacing" textLength="132" x="531.5" y="669.2285">name: ActuatorName</text><rect fill="none" height="6" style="stroke:#C82930;stroke-width:1.0;" width="6" x="519.5" y="680.5527"/><text fill="#000000" font-family="sans-serif" font-size="14" lengthAdjust="spacing" textLength="103" x="531.5" y="687.8496">path: ModelPath</text><rect fill="none" height="6" style="stroke:#C82930;stroke-width:1.0;" width="6" x="519.5" y="699.1738"/><text fill="#000000" font-family="sans-serif" font-size="14" lengthAdjust="spacing" textLength="203" x="531.5" y="706.4707">actuatorTypeID: ActuatorTypeID</text><rect fill="none" height="6" style="stroke:#C82930;stroke-width:1.0;" width="6" x="519.5" y="717.7949"/><text fill="#000000" font-family="sans-serif" font-size="14" lengthAdjust="spacing" textLength="118" x="531.5" y="725.0918">deviceID: DeviceID</text><line style="stroke:#181818;stroke-width:0.5;" x1="512.5" x2="739.5" y1="732.6055" y2="732.6055"/></g><!--class ActuatorType--><g id="elem_ActuatorType"><rect codeLine="73" fill="#F1F1F1" height="103.8633" id="ActuatorType" rx="2.5" ry="2.5" style="stroke:#181818;stroke-width:0.5;" width="172" x="440" y="814"/><ellipse cx="479.75" cy="830" fill="#ADD1B2" rx="11" ry="11" style="stroke:#181818;stroke-width:1.0;"/><path d="M482.5156,825.875 Q482.6719,825.6563 482.8594,825.5469 Q483.0469,825.4375 483.2656,825.4375 Q483.6406,825.4375 483.875,825.7031 Q484.1094,825.9531 484.1094,826.5625 L484.1094,828.0156 Q484.1094,828.625 483.875,828.8906 Q483.6406,829.1563 483.2656,829.1563 Q482.9219,829.1563 482.7188,828.9531 Q482.5156,828.7656 482.4063,828.25 Q482.3594,827.8906 482.1719,827.7031 Q481.8438,827.3281 481.2344,827.1094 Q480.625,826.8906 480,826.8906 Q479.2344,826.8906 478.5938,827.2188 Q477.9688,827.5469 477.4688,828.2969 Q476.9844,829.0469 476.9844,830.0781 L476.9844,831.1719 Q476.9844,832.4063 477.875,833.2344 Q478.7656,834.0469 480.3594,834.0469 Q481.2969,834.0469 481.9531,833.7969 Q482.3438,833.6406 482.7656,833.2031 Q483.0313,832.9375 483.1719,832.8594 Q483.3281,832.7813 483.5313,832.7813 Q483.8594,832.7813 484.1094,833.0469 Q484.375,833.2969 484.375,833.6406 Q484.375,833.9844 484.0313,834.3906 Q483.5313,834.9688 482.7344,835.2969 Q481.6563,835.75 480.3594,835.75 Q478.8438,835.75 477.6406,835.125 Q476.6563,834.625 475.9688,833.5625 Q475.2813,832.4844 475.2813,831.2031 L475.2813,830.0469 Q475.2813,828.7188 475.8906,827.5781 Q476.5156,826.4219 477.6094,825.8125 Q478.7031,825.1875 479.9375,825.1875 Q480.6719,825.1875 481.3125,825.3594 Q481.9688,825.5156 482.5156,825.875 Z " fill="#000000"/><text fill="#000000" font-family="sans-serif" font-size="14" lengthAdjust="spacing" textLength="85" x="499.25" y="835.7969">ActuatorType</text><line style="stroke:#181818;stroke-width:0.5;" x1="441" x2="611" y1="846" y2="846"/><rect fill="none" height="6" style="stroke:#C82930;stroke-width:1.0;" width="6" x="448" y="857.8105"/><text fill="#000000" font-family="sans-serif" font-size="14" lengthAdjust="spacing" textLength="146" x="460" y="865.1074">name: TypeDescription</text><rect fill="none" height="6" style="stroke:#C82930;stroke-width:1.0;" width="6" x="448" y="876.4316"/><text fill="#000000" font-family="sans-serif" font-size="14" lengthAdjust="spacing" textLength="68" x="460" y="883.7285">unit: UnitID</text><rect fill="none" height="6" style="stroke:#C82930;stroke-width:1.0;" width="6" x="448" y="895.0527"/><text fill="#000000" font-family="sans-serif" font-size="14" lengthAdjust="spacing" textLength="117" x="460" y="902.3496">id: ActuatorTypeID</text><line style="stroke:#181818;stroke-width:0.5;" x1="441" x2="611" y1="909.8633" y2="909.8633"/></g><!--class ActuatorModel--><g id="elem_ActuatorModel"><rect codeLine="79" fill="#F1F1F1" height="103.8633" id="ActuatorModel" rx="2.5" ry="2.5" style="stroke:#181818;stroke-width:0.5;" width="229" x="516.5" y="973"/><ellipse cx="581.25" cy="989" fill="#ADD1B2" rx="11" ry="11" style="stroke:#181818;stroke-width:1.0;"/><path d="M584.0156,984.875 Q584.1719,984.6563 584.3594,984.5469 Q584.5469,984.4375 584.7656,984.4375 Q585.1406,984.4375 585.375,984.7031 Q585.6094,984.9531 585.6094,985.5625 L585.6094,987.0156 Q585.6094,987.625 585.375,987.8906 Q585.1406,988.1563 584.7656,988.1563 Q584.4219,988.1563 584.2188,987.9531 Q584.0156,987.7656 583.9063,987.25 Q583.8594,986.8906 583.6719,986.7031 Q583.3438,986.3281 582.7344,986.1094 Q582.125,985.8906 581.5,985.8906 Q580.7344,985.8906 580.0938,986.2188 Q579.4688,986.5469 578.9688,987.2969 Q578.4844,988.0469 578.4844,989.0781 L578.4844,990.1719 Q578.4844,991.4063 579.375,992.2344 Q580.2656,993.0469 581.8594,993.0469 Q582.7969,993.0469 583.4531,992.7969 Q583.8438,992.6406 584.2656,992.2031 Q584.5313,991.9375 584.6719,991.8594 Q584.8281,991.7813 585.0313,991.7813 Q585.3594,991.7813 585.6094,992.0469 Q585.875,992.2969 585.875,992.6406 Q585.875,992.9844 585.5313,993.3906 Q585.0313,993.9688 584.2344,994.2969 Q583.1563,994.75 581.8594,994.75 Q580.3438,994.75 579.1406,994.125 Q578.1563,993.625 577.4688,992.5625 Q576.7813,991.4844 576.7813,990.2031 L576.7813,989.0469 Q576.7813,987.7188 577.3906,986.5781 Q578.0156,985.4219 579.1094,984.8125 Q580.2031,984.1875 581.4375,984.1875 Q582.1719,984.1875 582.8125,984.3594 Q583.4688,984.5156 584.0156,984.875 Z " fill="#000000"/><text fill="#000000" font-family="sans-serif" font-size="14" lengthAdjust="spacing" textLength="91" x="601.75" y="994.7969">ActuatorModel</text><line style="stroke:#181818;stroke-width:0.5;" x1="517.5" x2="744.5" y1="1005" y2="1005"/><rect fill="none" height="6" style="stroke:#C82930;stroke-width:1.0;" width="6" x="524.5" y="1016.8105"/><text fill="#000000" font-family="sans-serif" font-size="14" lengthAdjust="spacing" textLength="170" x="536.5" y="1024.1074">name: ActuatorModelName</text><rect fill="none" height="6" style="stroke:#C82930;stroke-width:1.0;" width="6" x="524.5" y="1035.4316"/><text fill="#000000" font-family="sans-serif" font-size="14" lengthAdjust="spacing" textLength="142" x="536.5" y="1042.7285">modelPath: ModelPath</text><rect fill="none" height="6" style="stroke:#C82930;stroke-width:1.0;" width="6" x="524.5" y="1054.0527"/><text fill="#000000" font-family="sans-serif" font-size="14" lengthAdjust="spacing" textLength="203" x="536.5" y="1061.3496">actuatorTypeID: ActuatorTypeID</text><line style="stroke:#181818;stroke-width:0.5;" x1="517.5" x2="744.5" y1="1068.8633" y2="1068.8633"/></g><!--class Unit--><g id="elem_Unit"><rect codeLine="85" fill="#F1F1F1" height="103.8633" id="Unit" rx="2.5" ry="2.5" style="stroke:#181818;stroke-width:0.5;" width="198" x="284" y="973"/><ellipse cx="366.75" cy="989" fill="#ADD1B2" rx="11" ry="11" style="stroke:#181818;stroke-width:1.0;"/><path d="M369.5156,984.875 Q369.6719,984.6563 369.8594,984.5469 Q370.0469,984.4375 370.2656,984.4375 Q370.6406,984.4375 370.875,984.7031 Q371.1094,984.9531 371.1094,985.5625 L371.1094,987.0156 Q371.1094,987.625 370.875,987.8906 Q370.6406,988.1563 370.2656,988.1563 Q369.9219,988.1563 369.7188,987.9531 Q369.5156,987.7656 369.4063,987.25 Q369.3594,986.8906 369.1719,986.7031 Q368.8438,986.3281 368.2344,986.1094 Q367.625,985.8906 367,985.8906 Q366.2344,985.8906 365.5938,986.2188 Q364.9688,986.5469 364.4688,987.2969 Q363.9844,988.0469 363.9844,989.0781 L363.9844,990.1719 Q363.9844,991.4063 364.875,992.2344 Q365.7656,993.0469 367.3594,993.0469 Q368.2969,993.0469 368.9531,992.7969 Q369.3438,992.6406 369.7656,992.2031 Q370.0313,991.9375 370.1719,991.8594 Q370.3281,991.7813 370.5313,991.7813 Q370.8594,991.7813 371.1094,992.0469 Q371.375,992.2969 371.375,992.6406 Q371.375,992.9844 371.0313,993.3906 Q370.5313,993.9688 369.7344,994.2969 Q368.6563,994.75 367.3594,994.75 Q365.8438,994.75 364.6406,994.125 Q363.6563,993.625 362.9688,992.5625 Q362.2813,991.4844 362.2813,990.2031 L362.2813,989.0469 Q362.2813,987.7188 362.8906,986.5781 Q363.5156,985.4219 364.6094,984.8125 Q365.7031,984.1875 366.9375,984.1875 Q367.6719,984.1875 368.3125,984.3594 Q368.9688,984.5156 369.5156,984.875 Z " fill="#000000"/><text fill="#000000" font-family="sans-serif" font-size="14" lengthAdjust="spacing" textLength="24" x="387.25" y="994.7969">Unit</text><line style="stroke:#181818;stroke-width:0.5;" x1="285" x2="481" y1="1005" y2="1005"/><rect fill="none" height="6" style="stroke:#C82930;stroke-width:1.0;" width="6" x="292" y="1016.8105"/><text fill="#000000" font-family="sans-serif" font-size="14" lengthAdjust="spacing" textLength="122" x="304" y="1024.1074">symbol: UnitSymbol</text><rect fill="none" height="6" style="stroke:#C82930;stroke-width:1.0;" width="6" x="292" y="1035.4316"/><text fill="#000000" font-family="sans-serif" font-size="14" lengthAdjust="spacing" textLength="172" x="304" y="1042.7285">description: UnitDescription</text><rect fill="none" height="6" style="stroke:#C82930;stroke-width:1.0;" width="6" x="292" y="1054.0527"/><text fill="#000000" font-family="sans-serif" font-size="14" lengthAdjust="spacing" textLength="56" x="304" y="1061.3496">id: UnitID</text><line style="stroke:#181818;stroke-width:0.5;" x1="285" x2="481" y1="1068.8633" y2="1068.8633"/></g><!--class Log--><g id="elem_Log"><rect codeLine="91" fill="#F1F1F1" height="178.3477" id="Log" rx="2.5" ry="2.5" style="stroke:#181818;stroke-width:0.5;" width="219" x="274.5" y="581"/><ellipse cx="367.75" cy="597" fill="#ADD1B2" rx="11" ry="11" style="stroke:#181818;stroke-width:1.0;"/><path d="M370.5156,592.875 Q370.6719,592.6563 370.8594,592.5469 Q371.0469,592.4375 371.2656,592.4375 Q371.6406,592.4375 371.875,592.7031 Q372.1094,592.9531 372.1094,593.5625 L372.1094,595.0156 Q372.1094,595.625 371.875,595.8906 Q371.6406,596.1563 371.2656,596.1563 Q370.9219,596.1563 370.7188,595.9531 Q370.5156,595.7656 370.4063,595.25 Q370.3594,594.8906 370.1719,594.7031 Q369.8438,594.3281 369.2344,594.1094 Q368.625,593.8906 368,593.8906 Q367.2344,593.8906 366.5938,594.2188 Q365.9688,594.5469 365.4688,595.2969 Q364.9844,596.0469 364.9844,597.0781 L364.9844,598.1719 Q364.9844,599.4063 365.875,600.2344 Q366.7656,601.0469 368.3594,601.0469 Q369.2969,601.0469 369.9531,600.7969 Q370.3438,600.6406 370.7656,600.2031 Q371.0313,599.9375 371.1719,599.8594 Q371.3281,599.7813 371.5313,599.7813 Q371.8594,599.7813 372.1094,600.0469 Q372.375,600.2969 372.375,600.6406 Q372.375,600.9844 372.0313,601.3906 Q371.5313,601.9688 370.7344,602.2969 Q369.6563,602.75 368.3594,602.75 Q366.8438,602.75 365.6406,602.125 Q364.6563,601.625 363.9688,600.5625 Q363.2813,599.4844 363.2813,598.2031 L363.2813,597.0469 Q363.2813,595.7188 363.8906,594.5781 Q364.5156,593.4219 365.6094,592.8125 Q366.7031,592.1875 367.9375,592.1875 Q368.6719,592.1875 369.3125,592.3594 Q369.9688,592.5156 370.5156,592.875 Z " fill="#000000"/><text fill="#000000" font-family="sans-serif" font-size="14" lengthAdjust="spacing" textLength="24" x="388.25" y="602.7969">Log</text><line style="stroke:#181818;stroke-width:0.5;" x1="275.5" x2="492.5" y1="613" y2="613"/><rect fill="none" height="6" style="stroke:#C82930;stroke-width:1.0;" width="6" x="282.5" y="624.8105"/><text fill="#000000" font-family="sans-serif" font-size="14" lengthAdjust="spacing" textLength="56" x="294.5" y="632.1074">id: LogID</text><rect fill="none" height="6" style="stroke:#C82930;stroke-width:1.0;" width="6" x="282.5" y="643.4316"/><text fill="#000000" font-family="sans-serif" font-size="14" lengthAdjust="spacing" textLength="118" x="294.5" y="650.7285">deviceID: DeviceID</text><rect fill="none" height="6" style="stroke:#C82930;stroke-width:1.0;" width="6" x="282.5" y="662.0527"/><text fill="#000000" font-family="sans-serif" font-size="14" lengthAdjust="spacing" textLength="122" x="294.5" y="669.3496">sensorID: SensorID</text><rect fill="none" height="6" style="stroke:#C82930;stroke-width:1.0;" width="6" x="282.5" y="680.6738"/><text fill="#000000" font-family="sans-serif" font-size="14" lengthAdjust="spacing" textLength="167" x="294.5" y="687.9707">description: SensorTypeID</text><rect fill="none" height="6" style="stroke:#C82930;stroke-width:1.0;" width="6" x="282.5" y="699.2949"/><text fill="#000000" font-family="sans-serif" font-size="14" lengthAdjust="spacing" textLength="81" x="294.5" y="706.5918">unitID: UnitID</text><rect fill="none" height="6" style="stroke:#C82930;stroke-width:1.0;" width="6" x="282.5" y="717.916"/><text fill="#000000" font-family="sans-serif" font-size="14" lengthAdjust="spacing" textLength="145" x="294.5" y="725.2129">reading: ReadingValue</text><rect fill="none" height="6" style="stroke:#C82930;stroke-width:1.0;" width="6" x="282.5" y="736.5371"/><text fill="#000000" font-family="sans-serif" font-size="14" lengthAdjust="spacing" textLength="193" x="294.5" y="743.834">localDateTime: LocalDateTime</text><line style="stroke:#181818;stroke-width:0.5;" x1="275.5" x2="492.5" y1="751.3477" y2="751.3477"/></g><polygon fill="#181818" points="275.221,73,284.221,77,280.221,73,284.221,69,275.221,73" style="stroke:#181818;stroke-width:1.0;"/><path d="M281.221,73 C294.7171,73 302.428,73 315.3605,73 " fill="none" style="stroke:#181818;stroke-width:1.0;"/><text fill="#000000" font-family="sans-serif" font-size="13" lengthAdjust="spacing" textLength="21" x="284.75" y="66.0283">has</text><text fill="#000000" font-family="sans-serif" font-size="13" lengthAdjust="spacing" textLength="7" x="276.221" y="88.0283">1</text><polygon fill="#181818" points="493.226,73,484.226,69,488.226,73,484.226,77,493.226,73" style="stroke:#181818;stroke-width:1.0;"/><path d="M452.6862,73 C465.9991,73 473.9426,73 487.226,73 " fill="none" style="stroke:#181818;stroke-width:1.0;"/><text fill="#000000" font-family="sans-serif" font-size="13" lengthAdjust="spacing" textLength="21" x="462.5" y="66.0283">has</text><text fill="#000000" font-family="sans-serif" font-size="13" lengthAdjust="spacing" textLength="7" x="485.226" y="69.0283">1</text><polygon fill="#181818" points="384,125.3935,380,134.3935,384,130.3935,388,134.3935,384,125.3935" style="stroke:#181818;stroke-width:1.0;"/><path d="M384,131.3935 C384,151.0126 384,167.7212 384,188.7649 " fill="none" style="stroke:#181818;stroke-width:1.0;"/><text fill="#000000" font-family="sans-serif" font-size="13" lengthAdjust="spacing" textLength="60" x="385" y="167.0283">belongs to</text><text fill="#000000" font-family="sans-serif" font-size="13" lengthAdjust="spacing" textLength="20" x="363" y="184.7932">1..*</text><text fill="#000000" font-family="sans-serif" font-size="13" lengthAdjust="spacing" textLength="7" x="376" y="140.4219">1</text><polygon fill="#181818" points="384,330.2644,380,339.2644,384,335.2644,388,339.2644,384,330.2644" style="stroke:#181818;stroke-width:1.0;"/><path d="M384,336.2644 C384,353.9708 384,366.9949 384,384.703 " fill="none" style="stroke:#181818;stroke-width:1.0;"/><text fill="#000000" font-family="sans-serif" font-size="13" lengthAdjust="spacing" textLength="60" x="385" y="363.0283">belongs to</text><text fill="#000000" font-family="sans-serif" font-size="13" lengthAdjust="spacing" textLength="7" x="376" y="345.2927">1</text><polygon fill="#181818" points="506.332,259.5,497.332,255.5,501.332,259.5,497.332,263.5,506.332,259.5" style="stroke:#181818;stroke-width:1.0;"/><path d="M466.1197,259.5 C479.7956,259.5 487.6474,259.5 500.332,259.5 " fill="none" style="stroke:#181818;stroke-width:1.0;"/><text fill="#000000" font-family="sans-serif" font-size="13" lengthAdjust="spacing" textLength="21" x="475.75" y="252.5283">has</text><text fill="#000000" font-family="sans-serif" font-size="13" lengthAdjust="spacing" textLength="7" x="498.332" y="255.5283">1</text><text fill="#000000" font-family="sans-serif" font-size="13" lengthAdjust="spacing" textLength="5" x="467.1197" y="255.5283">*</text><polygon fill="#181818" points="294.937,526.0804,285.3822,528.4691,290.9969,529.1587,290.3074,534.7733,294.937,526.0804" style="stroke:#181818;stroke-width:1.0;"/><path d="M290.2089,529.7743 C260.1515,553.2566 231.3359,575.7688 201.2631,599.2632 " fill="none" style="stroke:#181818;stroke-width:1.0;"/><text fill="#000000" font-family="sans-serif" font-size="13" lengthAdjust="spacing" textLength="37" x="265" y="559.0283">knows</text><text fill="#000000" font-family="sans-serif" font-size="13" lengthAdjust="spacing" textLength="7" x="286.937" y="541.1088">1</text><polygon fill="#181818" points="463.2399,526.0804,467.3634,535.0245,466.997,529.3796,472.6419,529.0132,463.2399,526.0804" style="stroke:#181818;stroke-width:1.0;"/><path d="M467.7484,530.0394 C494.4906,553.5217 519.8262,575.7688 546.5821,599.2632 " fill="none" style="stroke:#181818;stroke-width:1.0;"/><text fill="#000000" font-family="sans-serif" font-size="13" lengthAdjust="spacing" textLength="37" x="506" y="559.0283">knows</text><text fill="#000000" font-family="sans-serif" font-size="13" lengthAdjust="spacing" textLength="7" x="455.2399" y="541.1088">1</text><polygon fill="#181818" points="220.9325,813.7899,218.6539,804.2083,217.8998,809.8146,212.2934,809.0605,220.9325,813.7899" style="stroke:#181818;stroke-width:1.0;"/><path d="M165.2223,740.7644 C183.6197,764.8799 200.2425,786.6692 217.2933,809.0196 " fill="none" style="stroke:#181818;stroke-width:1.0;"/><text fill="#000000" font-family="sans-serif" font-size="13" lengthAdjust="spacing" textLength="37" x="204" y="792.0283">knows</text><text fill="#000000" font-family="sans-serif" font-size="13" lengthAdjust="spacing" textLength="7" x="212.9325" y="809.8182">1</text><polygon fill="#181818" points="552.397,813.7899,560.076,807.6228,554.6878,809.3456,552.9651,803.9574,552.397,813.7899" style="stroke:#181818;stroke-width:1.0;"/><path d="M590.039,740.7644 C577.6083,764.8799 566.6668,786.1064 555.146,808.4567 " fill="none" style="stroke:#181818;stroke-width:1.0;"/><text fill="#000000" font-family="sans-serif" font-size="13" lengthAdjust="spacing" textLength="37" x="571" y="792.0283">knows</text><text fill="#000000" font-family="sans-serif" font-size="13" lengthAdjust="spacing" textLength="7" x="544.397" y="809.8182">1</text><polygon fill="#181818" points="220.0526,918.4077,211.3718,923.0599,216.9847,922.3558,217.6888,927.9686,220.0526,918.4077" style="stroke:#181818;stroke-width:1.0;"/><path d="M216.3711,923.1454 C202.82,940.5841 191.3705,955.3183 177.8286,972.7451 " fill="none" style="stroke:#181818;stroke-width:1.0;"/><text fill="#000000" font-family="sans-serif" font-size="13" lengthAdjust="spacing" textLength="37" x="207" y="951.0283">knows</text><text fill="#000000" font-family="sans-serif" font-size="13" lengthAdjust="spacing" textLength="7" x="212.0526" y="933.436">1</text><polygon fill="#181818" points="342.8449,972.7451,340.4432,963.1936,339.7613,968.8092,334.1457,968.1273,342.8449,972.7451" style="stroke:#181818;stroke-width:1.0;"/><path d="M300.2748,918.4077 C313.937,935.8464 325.4918,950.5952 339.1446,968.022 " fill="none" style="stroke:#181818;stroke-width:1.0;"/><text fill="#000000" font-family="sans-serif" font-size="13" lengthAdjust="spacing" textLength="37" x="329" y="951.0283">knows</text><text fill="#000000" font-family="sans-serif" font-size="13" lengthAdjust="spacing" textLength="7" x="334.8449" y="968.7734">1</text><polygon fill="#181818" points="560.3809,918.4077,562.0593,928.1125,563.1605,922.5638,568.7092,923.6651,560.3809,918.4077" style="stroke:#181818;stroke-width:1.0;"/><path d="M563.7165,923.3951 C575.3793,940.8338 585.0664,955.3183 596.7212,972.7451 " fill="none" style="stroke:#181818;stroke-width:1.0;"/><text fill="#000000" font-family="sans-serif" font-size="13" lengthAdjust="spacing" textLength="37" x="585" y="951.0283">knows</text><text fill="#000000" font-family="sans-serif" font-size="13" lengthAdjust="spacing" textLength="7" x="552.3809" y="933.436">1</text><polygon fill="#181818" points="429.6844,972.7451,438.702,968.7849,433.0513,969.0486,432.7876,963.3979,429.6844,972.7451" style="stroke:#181818;stroke-width:1.0;"/><path d="M479.1765,918.4077 C463.2928,935.8464 449.5975,950.8825 433.7247,968.3093 " fill="none" style="stroke:#181818;stroke-width:1.0;"/><text fill="#000000" font-family="sans-serif" font-size="13" lengthAdjust="spacing" textLength="37" x="464" y="951.0283">knows</text><text fill="#000000" font-family="sans-serif" font-size="13" lengthAdjust="spacing" textLength="7" x="421.6844" y="968.7734">1</text><polygon fill="#181818" points="131.6212,972.8381,134.5604,963.4381,131.0466,967.8712,126.6134,964.3574,131.6212,972.8381" style="stroke:#181818;stroke-width:1.0;"/><path d="M114.8985,740.5433 C117.2176,790.0743 120.9236,858.1913 126,918 C127.5193,935.9004 128.9206,949.4938 130.9317,966.8779 " fill="none" style="stroke:#181818;stroke-width:1.0;"/><text fill="#000000" font-family="sans-serif" font-size="13" lengthAdjust="spacing" textLength="37" x="127" y="871.5283">knows</text><text fill="#000000" font-family="sans-serif" font-size="13" lengthAdjust="spacing" textLength="7" x="123.6212" y="968.8664">1</text><polygon fill="#181818" points="630.2773,972.9757,634.1494,963.9199,630.2065,967.9762,626.1502,964.0332,630.2773,972.9757" style="stroke:#181818;stroke-width:1.0;"/><path d="M626.9878,740.7414 C627.9569,809.1573 629.3265,905.8541 630.1923,966.9763 " fill="none" style="stroke:#181818;stroke-width:1.0;"/><text fill="#000000" font-family="sans-serif" font-size="13" lengthAdjust="spacing" textLength="37" x="630" y="871.5283">knows</text><text fill="#000000" font-family="sans-serif" font-size="13" lengthAdjust="spacing" textLength="7" x="631.2773" y="969.004">1</text><polygon fill="#181818" points="384,526.0804,380,535.0804,384,531.0804,388,535.0804,384,526.0804" style="stroke:#181818;stroke-width:1.0;"/><path d="M384,532.0804 C384,549.5106 384,562.4415 384,580.6501 " fill="none" style="stroke:#181818;stroke-width:1.0;"/><text fill="#000000" font-family="sans-serif" font-size="13" lengthAdjust="spacing" textLength="37" x="385" y="559.0283">knows</text><text fill="#000000" font-family="sans-serif" font-size="13" lengthAdjust="spacing" textLength="7" x="376" y="541.1088">1</text><polygon fill="#181818" points="218.3309,670,227.3309,674,223.3309,670,227.3309,666,218.3309,670" style="stroke:#181818;stroke-width:1.0;"/><path d="M224.3309,670 C242.6579,670 255.7406,670 274.1581,670 " fill="none" style="stroke:#181818;stroke-width:1.0;"/><text fill="#000000" font-family="sans-serif" font-size="13" lengthAdjust="spacing" textLength="37" x="227.75" y="663.0283">knows</text><text fill="#000000" font-family="sans-serif" font-size="13" lengthAdjust="spacing" textLength="7" x="219.3309" y="685.0283">1</text><polygon fill="#181818" points="292.6894,813.8568,300.9068,808.4278,295.3822,809.6439,294.1661,804.1193,292.6894,813.8568" style="stroke:#181818;stroke-width:1.0;"/><path d="M327.624,759.2012 C315.6602,777.9187 306.6462,792.0213 295.9208,808.8013 " fill="none" style="stroke:#181818;stroke-width:1.0;"/><text fill="#000000" font-family="sans-serif" font-size="13" lengthAdjust="spacing" textLength="37" x="315" y="792.0283">knows</text><text fill="#000000" font-family="sans-serif" font-size="13" lengthAdjust="spacing" textLength="7" x="284.6894" y="809.8852">1</text><polygon fill="#181818" points="383.1446,972.9448,387.1701,963.9562,383.1588,967.9448,379.1701,963.9335,383.1446,972.9448" style="stroke:#181818;stroke-width:1.0;"/><path d="M383.7502,759.1662 C383.5593,826.5559 383.3198,911.0935 383.1616,966.9448 " fill="none" style="stroke:#181818;stroke-width:1.0;"/><text fill="#000000" font-family="sans-serif" font-size="13" lengthAdjust="spacing" textLength="37" x="384" y="871.5283">knows</text><text fill="#000000" font-family="sans-serif" font-size="13" lengthAdjust="spacing" textLength="7" x="375.1446" y="968.9731">1</text><!--SRC=[dLN1RjmW4BtxA-WUApbIhrPLQTLLsqXfjAgJtbcRs2WsM30qMbNvzm8367QttROv9F3cUTwR0IPl5aM7cPA97gK1ecS6LD2g0haGaEGW0UHCUgvO1roAIZzpiL15Pp9nmU2uC28LZBAggcwYMfClqcX6VbR4_jIyRn2utI50-runhHkonGMYmsAHp_ksUWr9GZHaqQ0OWuQqeBWO4EkbLFTcFZ1Lufqq0jJne-nP6LYa1ZeXVhjFcoHfvOFSH863SRnUciF40Yh5KCAliUHlqhOeV3nYjITbFqtMRkE9dzmIKK5dXk2zNOMw-Co4jfrko2ukrruwhisPb1D5H_qNtiFO42uWs6PYA82HyM441DOyx0VlqgafhvBKCg_8ozpw_OEz1Ow_otQhPqGZOliEHaUqzRlLHskhaIg_FOYKBX1RNIpKLVZLdkQqjyiWv4dHMfljSkkhxRojApjQGM67x9Zk55yWdOiHtBRpqVxEgou4Jn9xfsNcBB3MDSUA_gMufBNjm52utit8kz9F6cXHT5lih_Sqv_ztLqz4pv9Vw6mH-flUNYaqQJflKKeVvuESq6_hrx4XgImCdjNfgWfLfintSiWFpMx_qE3iFgntOULd-kTlm7ZXiisAqTuEJVlwSV6TJYQDm8vEEmhiWRlEtkLRvnv7lnqvJr1_89jtcpZ7IKD6gcDSkG4K27Rg5a67lQzh-_Vcvkq69sj33inDNst_8LKUYQmmjYuGxBU5JZOeKIvy6ZE5mTEGPo5VpgBfASLueDSXUpOl8gDAtqHIyG3AH1ughVXBUO4Liptwzu7X8lEfvo9HmRoKwc9X-AfESvmLLj8gTujhiyG3Y4U5KH_CBif9_ttuzytDm_uPni0l]--></g></svg>