<?xml version="1.0" encoding="us-ascii" standalone="no"?><svg xmlns="http://www.w3.org/2000/svg" xmlns:xlink="http://www.w3.org/1999/xlink" contentStyleType="text/css" height="343px" preserveAspectRatio="none" style="width:862px;height:343px;background:#FFFFFF;" version="1.1" viewBox="0 0 862 343" width="862px" zoomAndPan="magnify"><defs/><g><line style="stroke:#181818;stroke-width:0.5;stroke-dasharray:5.0,5.0;" x1="61" x2="61" y1="83.6211" y2="260.0762"/><line style="stroke:#181818;stroke-width:0.5;stroke-dasharray:5.0,5.0;" x1="826.5" x2="826.5" y1="83.6211" y2="260.0762"/><text fill="#000000" font-family="sans-serif" font-size="14" lengthAdjust="spacing" textLength="107" x="5" y="80.1074">RO, PU or Admin</text><ellipse cx="61.5" cy="13.5" fill="#E2E2F0" rx="8" ry="8" style="stroke:#181818;stroke-width:0.5;"/><path d="M61.5,21.5 L61.5,48.5 M48.5,29.5 L74.5,29.5 M61.5,48.5 L48.5,63.5 M61.5,48.5 L74.5,63.5 " fill="none" style="stroke:#181818;stroke-width:0.5;"/><text fill="#000000" font-family="sans-serif" font-size="14" lengthAdjust="spacing" textLength="107" x="5" y="274.1836">RO, PU or Admin</text><ellipse cx="61.5" cy="286.1973" fill="#E2E2F0" rx="8" ry="8" style="stroke:#181818;stroke-width:0.5;"/><path d="M61.5,294.1973 L61.5,321.1973 M48.5,302.1973 L74.5,302.1973 M61.5,321.1973 L48.5,336.1973 M61.5,321.1973 L74.5,336.1973 " fill="none" style="stroke:#181818;stroke-width:0.5;"/><rect fill="#E2E2F0" height="32.6211" rx="2.5" ry="2.5" style="stroke:#181818;stroke-width:0.5;" width="60" x="796.5" y="50"/><text fill="#000000" font-family="sans-serif" font-size="14" lengthAdjust="spacing" textLength="46" x="803.5" y="72.1074">System</text><rect fill="#E2E2F0" height="32.6211" rx="2.5" ry="2.5" style="stroke:#181818;stroke-width:0.5;" width="60" x="796.5" y="259.0762"/><text fill="#000000" font-family="sans-serif" font-size="14" lengthAdjust="spacing" textLength="46" x="803.5" y="281.1836">System</text><polygon fill="#181818" points="814.5,112.9121,824.5,116.9121,814.5,120.9121,818.5,116.9121" style="stroke:#181818;stroke-width:1.0;"/><line style="stroke:#181818;stroke-width:1.0;" x1="61.5" x2="820.5" y1="116.9121" y2="116.9121"/><text fill="#000000" font-family="sans-serif" font-size="13" lengthAdjust="spacing" textLength="741" x="68.5" y="111.6494">I want to get the maximum instantaneous temperature difference between a device in the room and the outside, in a given period.</text><polygon fill="#181818" points="72.5,144.2031,62.5,148.2031,72.5,152.2031,68.5,148.2031" style="stroke:#181818;stroke-width:1.0;"/><line style="stroke:#181818;stroke-width:1.0;stroke-dasharray:2.0,2.0;" x1="66.5" x2="825.5" y1="148.2031" y2="148.2031"/><text fill="#000000" font-family="sans-serif" font-size="13" lengthAdjust="spacing" textLength="87" x="78.5" y="142.9404">In which room?</text><polygon fill="#181818" points="814.5,175.4941,824.5,179.4941,814.5,183.4941,818.5,179.4941" style="stroke:#181818;stroke-width:1.0;"/><line style="stroke:#181818;stroke-width:1.0;" x1="61.5" x2="820.5" y1="179.4941" y2="179.4941"/><text fill="#000000" font-family="sans-serif" font-size="13" lengthAdjust="spacing" textLength="37" x="68.5" y="174.2314">Room!</text><polygon fill="#181818" points="72.5,206.7852,62.5,210.7852,72.5,214.7852,68.5,210.7852" style="stroke:#181818;stroke-width:1.0;"/><line style="stroke:#181818;stroke-width:1.0;stroke-dasharray:2.0,2.0;" x1="66.5" x2="825.5" y1="210.7852" y2="210.7852"/><text fill="#000000" font-family="sans-serif" font-size="13" lengthAdjust="spacing" textLength="303" x="78.5" y="205.5225">Which device with temperature reading functionality?</text><polygon fill="#181818" points="814.5,238.0762,824.5,242.0762,814.5,246.0762,818.5,242.0762" style="stroke:#181818;stroke-width:1.0;"/><line style="stroke:#181818;stroke-width:1.0;" x1="61.5" x2="820.5" y1="242.0762" y2="242.0762"/><text fill="#000000" font-family="sans-serif" font-size="13" lengthAdjust="spacing" textLength="41" x="68.5" y="236.8135">Device!</text><!--SRC=[ROx1JiD034Jl-nMJdbi-W0C8YGidKAkAiyawYQMkDzfr6lBtEA4NHAMLlFPungyP2_M9SA4bJuQQs4WfK6kvO7Tyt-FZ3F- -n2Iw0rMSAvSmKZ5fPIGrd9Pgd49O1HoURlqZtZ2licNqx6LW9FgMD2M8Lh_YZ_DKuSiZ5xAfCA9q7HVMbl75DZCh296luWFHBQJad40QjyQPgqJUhoAXbwiRF4noV0ZX5mG7PrhPd4Wn3z8EMyRpV-AZZvixli_DTCEOnOO_p8KfYlRe9crDij95RBcJ_hhvcny0]--></g></svg>