<?xml version="1.0" encoding="us-ascii" standalone="no"?><svg xmlns="http://www.w3.org/2000/svg" xmlns:xlink="http://www.w3.org/1999/xlink" contentStyleType="text/css" height="249px" preserveAspectRatio="none" style="width:537px;height:249px;background:#FFFFFF;" version="1.1" viewBox="0 0 537 249" width="537px" zoomAndPan="magnify"><defs/><g><line style="stroke:#181818;stroke-width:0.5;stroke-dasharray:5.0,5.0;" x1="69" x2="69" y1="83.6211" y2="166.2031"/><line style="stroke:#181818;stroke-width:0.5;stroke-dasharray:5.0,5.0;" x1="501.5" x2="501.5" y1="83.6211" y2="166.2031"/><text fill="#000000" font-family="sans-serif" font-size="14" lengthAdjust="spacing" textLength="123" x="5" y="80.1074">Power User / Admin</text><ellipse cx="69.5" cy="13.5" fill="#E2E2F0" rx="8" ry="8" style="stroke:#181818;stroke-width:0.5;"/><path d="M69.5,21.5 L69.5,48.5 M56.5,29.5 L82.5,29.5 M69.5,48.5 L56.5,63.5 M69.5,48.5 L82.5,63.5 " fill="none" style="stroke:#181818;stroke-width:0.5;"/><text fill="#000000" font-family="sans-serif" font-size="14" lengthAdjust="spacing" textLength="123" x="5" y="180.3105">Power User / Admin</text><ellipse cx="69.5" cy="192.3242" fill="#E2E2F0" rx="8" ry="8" style="stroke:#181818;stroke-width:0.5;"/><path d="M69.5,200.3242 L69.5,227.3242 M56.5,208.3242 L82.5,208.3242 M69.5,227.3242 L56.5,242.3242 M69.5,227.3242 L82.5,242.3242 " fill="none" style="stroke:#181818;stroke-width:0.5;"/><rect fill="#E2E2F0" height="32.6211" rx="2.5" ry="2.5" style="stroke:#181818;stroke-width:0.5;" width="60" x="471.5" y="50"/><text fill="#000000" font-family="sans-serif" font-size="14" lengthAdjust="spacing" textLength="46" x="478.5" y="72.1074">System</text><rect fill="#E2E2F0" height="32.6211" rx="2.5" ry="2.5" style="stroke:#181818;stroke-width:0.5;" width="60" x="471.5" y="165.2031"/><text fill="#000000" font-family="sans-serif" font-size="14" lengthAdjust="spacing" textLength="46" x="478.5" y="187.3105">System</text><polygon fill="#181818" points="489.5,112.9121,499.5,116.9121,489.5,120.9121,493.5,116.9121" style="stroke:#181818;stroke-width:1.0;"/><line style="stroke:#181818;stroke-width:1.0;" x1="69.5" x2="495.5" y1="116.9121" y2="116.9121"/><text fill="#000000" font-family="sans-serif" font-size="13" font-weight="bold" lengthAdjust="spacing" textLength="7" x="76.5" y="111.6494">1</text><text fill="#000000" font-family="sans-serif" font-size="13" lengthAdjust="spacing" textLength="397" x="87.5" y="111.6494">I want to get a list of all devices in the house grouped by functionality</text><polygon fill="#181818" points="80.5,144.2031,70.5,148.2031,80.5,152.2031,76.5,148.2031" style="stroke:#181818;stroke-width:1.0;"/><line style="stroke:#181818;stroke-width:1.0;stroke-dasharray:2.0,2.0;" x1="74.5" x2="500.5" y1="148.2031" y2="148.2031"/><text fill="#000000" font-family="sans-serif" font-size="13" font-weight="bold" lengthAdjust="spacing" textLength="7" x="86.5" y="142.9404">2</text><text fill="#000000" font-family="sans-serif" font-size="13" lengthAdjust="spacing" textLength="298" x="97.5" y="142.9404">List of devices in the house grouped by functionality</text><!--SRC=[bSp1QiCm40JG-tx5u4jFZky-57eCv60e_e2DlB45abQLLWd- -xfDVY2NOM2Ozx6PvJeEGmwShCLmSXg7AZzDafD-yRmMZiJEjA2Rz245SprYmDSIVUh05TDCbBcOTpuV2hhllPh4_-rPYRYPfXQlKeYc6VtdQnbnnkFlP8fL38pWgq5lu12moDqxgV09jWasRLMm5crP5bntt5fovZLnyBRJKqH_uDCyulA2taFe5m00]--></g></svg>