<?xml version="1.0" encoding="us-ascii" standalone="no"?><svg xmlns="http://www.w3.org/2000/svg" xmlns:xlink="http://www.w3.org/1999/xlink" contentStyleType="text/css" height="1067px" preserveAspectRatio="none" style="width:2743px;height:1067px;background:#FFFFFF;" version="1.1" viewBox="0 0 2743 1067" width="2743px" zoomAndPan="magnify"><defs/><g><rect fill="#DDDDDD" height="1055.3906" style="stroke:#181818;stroke-width:0.5;" width="1373" x="1364.5" y="6"/><text fill="#000000" font-family="sans-serif" font-size="13" font-weight="bold" lengthAdjust="spacing" textLength="128" x="1987" y="20.0283">Power Consumption</text><rect fill="#FFFFFF" height="844.8574" style="stroke:#181818;stroke-width:1.0;" width="10" x="681.5" y="116.9121"/><rect fill="#FFFFFF" height="782.2754" style="stroke:#181818;stroke-width:1.0;" width="10" x="1401.5" y="148.2031"/><rect fill="#FFFFFF" height="156.4551" style="stroke:#181818;stroke-width:1.0;" width="10" x="1981.5" y="492.4043"/><rect fill="#FFFFFF" height="156.4551" style="stroke:#181818;stroke-width:1.0;" width="10" x="1981.5" y="680.1504"/><rect fill="#FFFFFF" height="31.291" style="stroke:#181818;stroke-width:1.0;" width="10" x="1981.5" y="867.8965"/><rect fill="#FFFFFF" height="93.873" style="stroke:#181818;stroke-width:1.0;" width="10" x="2529.5" y="523.6953"/><rect fill="#FFFFFF" height="93.873" style="stroke:#181818;stroke-width:1.0;" width="10" x="2529.5" y="711.4414"/><rect fill="#FFFFFF" height="31.291" style="stroke:#181818;stroke-width:1.0;" width="10" x="2611.5" y="179.4941"/><rect fill="#FFFFFF" height="31.291" style="stroke:#181818;stroke-width:1.0;" width="10" x="2611.5" y="242.0762"/><rect fill="#FFFFFF" height="31.291" style="stroke:#181818;stroke-width:1.0;" width="10" x="2611.5" y="304.6582"/><rect fill="#FFFFFF" height="31.291" style="stroke:#181818;stroke-width:1.0;" width="10" x="2611.5" y="367.2402"/><rect fill="#FFFFFF" height="31.291" style="stroke:#181818;stroke-width:1.0;" width="10" x="2611.5" y="429.8223"/><rect fill="#FFFFFF" height="31.291" style="stroke:#181818;stroke-width:1.0;" width="10" x="2690.5" y="554.9863"/><rect fill="#FFFFFF" height="31.291" style="stroke:#181818;stroke-width:1.0;" width="10" x="2690.5" y="742.7324"/><line style="stroke:#181818;stroke-width:0.5;stroke-dasharray:5.0,5.0;" x1="22" x2="22" y1="83.6211" y2="979.7695"/><line style="stroke:#181818;stroke-width:0.5;stroke-dasharray:5.0,5.0;" x1="686" x2="686" y1="83.6211" y2="979.7695"/><line style="stroke:#181818;stroke-width:0.5;stroke-dasharray:5.0,5.0;" x1="1406.5" x2="1406.5" y1="83.6211" y2="979.7695"/><line style="stroke:#181818;stroke-width:0.5;stroke-dasharray:5.0,5.0;" x1="1986" x2="1986" y1="83.6211" y2="979.7695"/><line style="stroke:#181818;stroke-width:0.5;stroke-dasharray:5.0,5.0;" x1="2534.5" x2="2534.5" y1="83.6211" y2="979.7695"/><line style="stroke:#181818;stroke-width:0.5;stroke-dasharray:5.0,5.0;" x1="2616.5" x2="2616.5" y1="83.6211" y2="979.7695"/><line style="stroke:#181818;stroke-width:0.5;stroke-dasharray:5.0,5.0;" x1="2695.5" x2="2695.5" y1="83.6211" y2="979.7695"/><text fill="#000000" font-family="sans-serif" font-size="14" lengthAdjust="spacing" textLength="29" x="5" y="80.1074">User</text><ellipse cx="22.5" cy="13.5" fill="#E2E2F0" rx="8" ry="8" style="stroke:#181818;stroke-width:0.5;"/><path d="M22.5,21.5 L22.5,48.5 M9.5,29.5 L35.5,29.5 M22.5,48.5 L9.5,63.5 M22.5,48.5 L35.5,63.5 " fill="none" style="stroke:#181818;stroke-width:0.5;"/><text fill="#000000" font-family="sans-serif" font-size="14" lengthAdjust="spacing" textLength="29" x="5" y="993.877">User</text><ellipse cx="22.5" cy="1005.8906" fill="#E2E2F0" rx="8" ry="8" style="stroke:#181818;stroke-width:0.5;"/><path d="M22.5,1013.8906 L22.5,1040.8906 M9.5,1021.8906 L35.5,1021.8906 M22.5,1040.8906 L9.5,1055.8906 M22.5,1040.8906 L35.5,1055.8906 " fill="none" style="stroke:#181818;stroke-width:0.5;"/><rect fill="#E2E2F0" height="32.6211" rx="2.5" ry="2.5" style="stroke:#181818;stroke-width:0.5;" width="79" x="647" y="50"/><text fill="#000000" font-family="sans-serif" font-size="14" lengthAdjust="spacing" textLength="65" x="654" y="72.1074">RestClient</text><rect fill="#E2E2F0" height="32.6211" rx="2.5" ry="2.5" style="stroke:#181818;stroke-width:0.5;" width="79" x="647" y="978.7695"/><text fill="#000000" font-family="sans-serif" font-size="14" lengthAdjust="spacing" textLength="65" x="654" y="1000.877">RestClient</text><rect fill="#E2E2F0" height="32.6211" rx="2.5" ry="2.5" style="stroke:#181818;stroke-width:0.5;" width="76" x="1368.5" y="50"/><text fill="#000000" font-family="sans-serif" font-size="14" lengthAdjust="spacing" textLength="62" x="1375.5" y="72.1074">Controller</text><rect fill="#E2E2F0" height="32.6211" rx="2.5" ry="2.5" style="stroke:#181818;stroke-width:0.5;" width="76" x="1368.5" y="978.7695"/><text fill="#000000" font-family="sans-serif" font-size="14" lengthAdjust="spacing" textLength="62" x="1375.5" y="1000.877">Controller</text><rect fill="#E2E2F0" height="32.6211" rx="2.5" ry="2.5" style="stroke:#181818;stroke-width:0.5;" width="61" x="1956" y="50"/><text fill="#000000" font-family="sans-serif" font-size="14" lengthAdjust="spacing" textLength="47" x="1963" y="72.1074">Service</text><rect fill="#E2E2F0" height="32.6211" rx="2.5" ry="2.5" style="stroke:#181818;stroke-width:0.5;" width="61" x="1956" y="978.7695"/><text fill="#000000" font-family="sans-serif" font-size="14" lengthAdjust="spacing" textLength="47" x="1963" y="1000.877">Service</text><rect fill="#E2E2F0" height="32.6211" rx="2.5" ry="2.5" style="stroke:#181818;stroke-width:0.5;" width="82" x="2493.5" y="50"/><text fill="#000000" font-family="sans-serif" font-size="14" lengthAdjust="spacing" textLength="68" x="2500.5" y="72.1074">Repository</text><rect fill="#E2E2F0" height="32.6211" rx="2.5" ry="2.5" style="stroke:#181818;stroke-width:0.5;" width="82" x="2493.5" y="978.7695"/><text fill="#000000" font-family="sans-serif" font-size="14" lengthAdjust="spacing" textLength="68" x="2500.5" y="1000.877">Repository</text><rect fill="#E2E2F0" height="32.6211" rx="2.5" ry="2.5" style="stroke:#181818;stroke-width:0.5;" width="62" x="2585.5" y="50"/><text fill="#000000" font-family="sans-serif" font-size="14" lengthAdjust="spacing" textLength="48" x="2592.5" y="72.1074">Domain</text><rect fill="#E2E2F0" height="32.6211" rx="2.5" ry="2.5" style="stroke:#181818;stroke-width:0.5;" width="62" x="2585.5" y="978.7695"/><text fill="#000000" font-family="sans-serif" font-size="14" lengthAdjust="spacing" textLength="48" x="2592.5" y="1000.877">Domain</text><rect fill="#E2E2F0" height="32.6211" rx="2.5" ry="2.5" style="stroke:#181818;stroke-width:0.5;" width="76" x="2657.5" y="50"/><text fill="#000000" font-family="sans-serif" font-size="14" lengthAdjust="spacing" textLength="62" x="2664.5" y="72.1074">DataBase</text><rect fill="#E2E2F0" height="32.6211" rx="2.5" ry="2.5" style="stroke:#181818;stroke-width:0.5;" width="76" x="2657.5" y="978.7695"/><text fill="#000000" font-family="sans-serif" font-size="14" lengthAdjust="spacing" textLength="62" x="2664.5" y="1000.877">DataBase</text><rect fill="#FFFFFF" height="844.8574" style="stroke:#181818;stroke-width:1.0;" width="10" x="681.5" y="116.9121"/><rect fill="#FFFFFF" height="782.2754" style="stroke:#181818;stroke-width:1.0;" width="10" x="1401.5" y="148.2031"/><rect fill="#FFFFFF" height="156.4551" style="stroke:#181818;stroke-width:1.0;" width="10" x="1981.5" y="492.4043"/><rect fill="#FFFFFF" height="156.4551" style="stroke:#181818;stroke-width:1.0;" width="10" x="1981.5" y="680.1504"/><rect fill="#FFFFFF" height="31.291" style="stroke:#181818;stroke-width:1.0;" width="10" x="1981.5" y="867.8965"/><rect fill="#FFFFFF" height="93.873" style="stroke:#181818;stroke-width:1.0;" width="10" x="2529.5" y="523.6953"/><rect fill="#FFFFFF" height="93.873" style="stroke:#181818;stroke-width:1.0;" width="10" x="2529.5" y="711.4414"/><rect fill="#FFFFFF" height="31.291" style="stroke:#181818;stroke-width:1.0;" width="10" x="2611.5" y="179.4941"/><rect fill="#FFFFFF" height="31.291" style="stroke:#181818;stroke-width:1.0;" width="10" x="2611.5" y="242.0762"/><rect fill="#FFFFFF" height="31.291" style="stroke:#181818;stroke-width:1.0;" width="10" x="2611.5" y="304.6582"/><rect fill="#FFFFFF" height="31.291" style="stroke:#181818;stroke-width:1.0;" width="10" x="2611.5" y="367.2402"/><rect fill="#FFFFFF" height="31.291" style="stroke:#181818;stroke-width:1.0;" width="10" x="2611.5" y="429.8223"/><rect fill="#FFFFFF" height="31.291" style="stroke:#181818;stroke-width:1.0;" width="10" x="2690.5" y="554.9863"/><rect fill="#FFFFFF" height="31.291" style="stroke:#181818;stroke-width:1.0;" width="10" x="2690.5" y="742.7324"/><polygon fill="#181818" points="669.5,112.9121,679.5,116.9121,669.5,120.9121,673.5,116.9121" style="stroke:#181818;stroke-width:1.0;"/><line style="stroke:#181818;stroke-width:1.0;" x1="22.5" x2="675.5" y1="116.9121" y2="116.9121"/><text fill="#000000" font-family="sans-serif" font-size="13" font-weight="bold" lengthAdjust="spacing" textLength="7" x="29.5" y="111.6494">1</text><text fill="#000000" font-family="sans-serif" font-size="13" lengthAdjust="spacing" textLength="629" x="40.5" y="111.6494">want to get the maximum instantaneous temperature difference between a device in the room and the outside</text><polygon fill="#181818" points="1389.5,144.2031,1399.5,148.2031,1389.5,152.2031,1393.5,148.2031" style="stroke:#181818;stroke-width:1.0;"/><line style="stroke:#181818;stroke-width:1.0;" x1="691.5" x2="1395.5" y1="148.2031" y2="148.2031"/><text fill="#000000" font-family="sans-serif" font-size="13" font-weight="bold" lengthAdjust="spacing" textLength="7" x="698.5" y="142.9404">2</text><text fill="#000000" font-family="sans-serif" font-size="13" lengthAdjust="spacing" textLength="680" x="709.5" y="142.9404">getMaxInstTempDiffBetweenDeviceAndOutside (outsideDeviceDTO, insideDeviceDTO, initialTime, endTime, timeDelta)</text><polygon fill="#181818" points="2599.5,175.4941,2609.5,179.4941,2599.5,183.4941,2603.5,179.4941" style="stroke:#181818;stroke-width:1.0;"/><line style="stroke:#181818;stroke-width:1.0;" x1="1411.5" x2="2605.5" y1="179.4941" y2="179.4941"/><text fill="#000000" font-family="sans-serif" font-size="13" font-weight="bold" lengthAdjust="spacing" textLength="7" x="1418.5" y="174.2314">3</text><text fill="#000000" font-family="sans-serif" font-size="13" lengthAdjust="spacing" textLength="167" x="1429.5" y="174.2314">DeviceID(outsideDeviceIDStr)</text><polygon fill="#181818" points="1422.5,206.7852,1412.5,210.7852,1422.5,214.7852,1418.5,210.7852" style="stroke:#181818;stroke-width:1.0;"/><line style="stroke:#181818;stroke-width:1.0;stroke-dasharray:2.0,2.0;" x1="1416.5" x2="2615.5" y1="210.7852" y2="210.7852"/><text fill="#000000" font-family="sans-serif" font-size="13" font-weight="bold" lengthAdjust="spacing" textLength="7" x="1428.5" y="205.5225">4</text><text fill="#000000" font-family="sans-serif" font-size="13" lengthAdjust="spacing" textLength="48" x="1439.5" y="205.5225">deviceID</text><polygon fill="#181818" points="2599.5,238.0762,2609.5,242.0762,2599.5,246.0762,2603.5,242.0762" style="stroke:#181818;stroke-width:1.0;"/><line style="stroke:#181818;stroke-width:1.0;" x1="1411.5" x2="2605.5" y1="242.0762" y2="242.0762"/><text fill="#000000" font-family="sans-serif" font-size="13" font-weight="bold" lengthAdjust="spacing" textLength="7" x="1418.5" y="236.8135">5</text><text fill="#000000" font-family="sans-serif" font-size="13" lengthAdjust="spacing" textLength="159" x="1429.5" y="236.8135">DeviceID(insideDeviceIDStr)</text><polygon fill="#181818" points="1422.5,269.3672,1412.5,273.3672,1422.5,277.3672,1418.5,273.3672" style="stroke:#181818;stroke-width:1.0;"/><line style="stroke:#181818;stroke-width:1.0;stroke-dasharray:2.0,2.0;" x1="1416.5" x2="2615.5" y1="273.3672" y2="273.3672"/><text fill="#000000" font-family="sans-serif" font-size="13" font-weight="bold" lengthAdjust="spacing" textLength="7" x="1428.5" y="268.1045">6</text><text fill="#000000" font-family="sans-serif" font-size="13" lengthAdjust="spacing" textLength="48" x="1439.5" y="268.1045">deviceID</text><polygon fill="#181818" points="2599.5,300.6582,2609.5,304.6582,2599.5,308.6582,2603.5,304.6582" style="stroke:#181818;stroke-width:1.0;"/><line style="stroke:#181818;stroke-width:1.0;" x1="1411.5" x2="2605.5" y1="304.6582" y2="304.6582"/><text fill="#000000" font-family="sans-serif" font-size="13" font-weight="bold" lengthAdjust="spacing" textLength="7" x="1418.5" y="299.3955">7</text><text fill="#000000" font-family="sans-serif" font-size="13" lengthAdjust="spacing" textLength="164" x="1429.5" y="299.3955">SensorType(strTemperature)</text><polygon fill="#181818" points="1422.5,331.9492,1412.5,335.9492,1422.5,339.9492,1418.5,335.9492" style="stroke:#181818;stroke-width:1.0;"/><line style="stroke:#181818;stroke-width:1.0;stroke-dasharray:2.0,2.0;" x1="1416.5" x2="2615.5" y1="335.9492" y2="335.9492"/><text fill="#000000" font-family="sans-serif" font-size="13" font-weight="bold" lengthAdjust="spacing" textLength="7" x="1428.5" y="330.6865">8</text><text fill="#000000" font-family="sans-serif" font-size="13" lengthAdjust="spacing" textLength="67" x="1439.5" y="330.6865">sensorType</text><polygon fill="#181818" points="2599.5,363.2402,2609.5,367.2402,2599.5,371.2402,2603.5,367.2402" style="stroke:#181818;stroke-width:1.0;"/><line style="stroke:#181818;stroke-width:1.0;" x1="1411.5" x2="2605.5" y1="367.2402" y2="367.2402"/><text fill="#000000" font-family="sans-serif" font-size="13" font-weight="bold" lengthAdjust="spacing" textLength="7" x="1418.5" y="361.9775">9</text><text fill="#000000" font-family="sans-serif" font-size="13" lengthAdjust="spacing" textLength="187" x="1429.5" y="361.9775">DatePeriod(initialTime, endTime)</text><polygon fill="#181818" points="1422.5,394.5313,1412.5,398.5313,1422.5,402.5313,1418.5,398.5313" style="stroke:#181818;stroke-width:1.0;"/><line style="stroke:#181818;stroke-width:1.0;stroke-dasharray:2.0,2.0;" x1="1416.5" x2="2615.5" y1="398.5313" y2="398.5313"/><text fill="#000000" font-family="sans-serif" font-size="13" font-weight="bold" lengthAdjust="spacing" textLength="14" x="1428.5" y="393.2686">10</text><text fill="#000000" font-family="sans-serif" font-size="13" lengthAdjust="spacing" textLength="62" x="1446.5" y="393.2686">datePeriod</text><polygon fill="#181818" points="2599.5,425.8223,2609.5,429.8223,2599.5,433.8223,2603.5,429.8223" style="stroke:#181818;stroke-width:1.0;"/><line style="stroke:#181818;stroke-width:1.0;" x1="1411.5" x2="2605.5" y1="429.8223" y2="429.8223"/><text fill="#000000" font-family="sans-serif" font-size="13" font-weight="bold" lengthAdjust="spacing" textLength="14" x="1418.5" y="424.5596">11</text><text fill="#000000" font-family="sans-serif" font-size="13" lengthAdjust="spacing" textLength="138" x="1436.5" y="424.5596">TimeDelta(intTimeDelta)</text><polygon fill="#181818" points="1422.5,457.1133,1412.5,461.1133,1422.5,465.1133,1418.5,461.1133" style="stroke:#181818;stroke-width:1.0;"/><line style="stroke:#181818;stroke-width:1.0;stroke-dasharray:2.0,2.0;" x1="1416.5" x2="2615.5" y1="461.1133" y2="461.1133"/><text fill="#000000" font-family="sans-serif" font-size="13" font-weight="bold" lengthAdjust="spacing" textLength="14" x="1428.5" y="455.8506">12</text><text fill="#000000" font-family="sans-serif" font-size="13" lengthAdjust="spacing" textLength="55" x="1446.5" y="455.8506">timeDelta</text><polygon fill="#181818" points="1969.5,488.4043,1979.5,492.4043,1969.5,496.4043,1973.5,492.4043" style="stroke:#181818;stroke-width:1.0;"/><line style="stroke:#181818;stroke-width:1.0;" x1="1411.5" x2="1975.5" y1="492.4043" y2="492.4043"/><text fill="#000000" font-family="sans-serif" font-size="13" font-weight="bold" lengthAdjust="spacing" textLength="14" x="1418.5" y="487.1416">13</text><text fill="#000000" font-family="sans-serif" font-size="13" lengthAdjust="spacing" textLength="500" x="1436.5" y="487.1416">getMaxInstTempDiffBetweenDeviceAndOutside(insideDeviceID, sensorType, timeDelta)</text><polygon fill="#181818" points="2517.5,519.6953,2527.5,523.6953,2517.5,527.6953,2521.5,523.6953" style="stroke:#181818;stroke-width:1.0;"/><line style="stroke:#181818;stroke-width:1.0;" x1="1991.5" x2="2523.5" y1="523.6953" y2="523.6953"/><text fill="#000000" font-family="sans-serif" font-size="13" font-weight="bold" lengthAdjust="spacing" textLength="14" x="1998.5" y="518.4326">14</text><text fill="#000000" font-family="sans-serif" font-size="13" lengthAdjust="spacing" textLength="501" x="2016.5" y="518.4326">findByDeviceIDAndSensorTypeAndDatePeriodBetween(deviceID, sensorTypeID, period)</text><polygon fill="#181818" points="2678.5,550.9863,2688.5,554.9863,2678.5,558.9863,2682.5,554.9863" style="stroke:#181818;stroke-width:1.0;"/><line style="stroke:#181818;stroke-width:1.0;" x1="2539.5" x2="2684.5" y1="554.9863" y2="554.9863"/><text fill="#000000" font-family="sans-serif" font-size="13" font-weight="bold" lengthAdjust="spacing" textLength="14" x="2546.5" y="549.7236">15</text><text fill="#000000" font-family="sans-serif" font-size="13" lengthAdjust="spacing" textLength="20" x="2564.5" y="549.7236">find</text><polygon fill="#181818" points="2550.5,582.2773,2540.5,586.2773,2550.5,590.2773,2546.5,586.2773" style="stroke:#181818;stroke-width:1.0;"/><line style="stroke:#181818;stroke-width:1.0;stroke-dasharray:2.0,2.0;" x1="2544.5" x2="2694.5" y1="586.2773" y2="586.2773"/><text fill="#000000" font-family="sans-serif" font-size="13" font-weight="bold" lengthAdjust="spacing" textLength="14" x="2556.5" y="581.0146">16</text><text fill="#000000" font-family="sans-serif" font-size="13" lengthAdjust="spacing" textLength="38" x="2574.5" y="581.0146">logList</text><polygon fill="#181818" points="2002.5,613.5684,1992.5,617.5684,2002.5,621.5684,1998.5,617.5684" style="stroke:#181818;stroke-width:1.0;"/><line style="stroke:#181818;stroke-width:1.0;stroke-dasharray:2.0,2.0;" x1="1996.5" x2="2533.5" y1="617.5684" y2="617.5684"/><text fill="#000000" font-family="sans-serif" font-size="13" font-weight="bold" lengthAdjust="spacing" textLength="14" x="2008.5" y="612.3057">17</text><text fill="#000000" font-family="sans-serif" font-size="13" lengthAdjust="spacing" textLength="126" x="2026.5" y="612.3057">logInsideReadingsList</text><polygon fill="#181818" points="1422.5,644.8594,1412.5,648.8594,1422.5,652.8594,1418.5,648.8594" style="stroke:#181818;stroke-width:1.0;"/><line style="stroke:#181818;stroke-width:1.0;stroke-dasharray:2.0,2.0;" x1="1416.5" x2="1985.5" y1="648.8594" y2="648.8594"/><text fill="#000000" font-family="sans-serif" font-size="13" font-weight="bold" lengthAdjust="spacing" textLength="14" x="1428.5" y="643.5967">18</text><text fill="#000000" font-family="sans-serif" font-size="13" lengthAdjust="spacing" textLength="126" x="1446.5" y="643.5967">logInsideReadingsList</text><polygon fill="#181818" points="1969.5,676.1504,1979.5,680.1504,1969.5,684.1504,1973.5,680.1504" style="stroke:#181818;stroke-width:1.0;"/><line style="stroke:#181818;stroke-width:1.0;" x1="1411.5" x2="1975.5" y1="680.1504" y2="680.1504"/><text fill="#000000" font-family="sans-serif" font-size="13" font-weight="bold" lengthAdjust="spacing" textLength="14" x="1418.5" y="674.8877">19</text><text fill="#000000" font-family="sans-serif" font-size="13" lengthAdjust="spacing" textLength="508" x="1436.5" y="674.8877">getMaxInstTempDiffBetweenDeviceAndOutside(outsideDeviceID, sensorType, timeDelta)</text><polygon fill="#181818" points="2517.5,707.4414,2527.5,711.4414,2517.5,715.4414,2521.5,711.4414" style="stroke:#181818;stroke-width:1.0;"/><line style="stroke:#181818;stroke-width:1.0;" x1="1991.5" x2="2523.5" y1="711.4414" y2="711.4414"/><text fill="#000000" font-family="sans-serif" font-size="13" font-weight="bold" lengthAdjust="spacing" textLength="14" x="1998.5" y="706.1787">20</text><text fill="#000000" font-family="sans-serif" font-size="13" lengthAdjust="spacing" textLength="501" x="2016.5" y="706.1787">findByDeviceIDAndSensorTypeAndDatePeriodBetween(deviceID, sensorTypeID, period)</text><polygon fill="#181818" points="2678.5,738.7324,2688.5,742.7324,2678.5,746.7324,2682.5,742.7324" style="stroke:#181818;stroke-width:1.0;"/><line style="stroke:#181818;stroke-width:1.0;" x1="2539.5" x2="2684.5" y1="742.7324" y2="742.7324"/><text fill="#000000" font-family="sans-serif" font-size="13" font-weight="bold" lengthAdjust="spacing" textLength="14" x="2546.5" y="737.4697">21</text><text fill="#000000" font-family="sans-serif" font-size="13" lengthAdjust="spacing" textLength="20" x="2564.5" y="737.4697">find</text><polygon fill="#181818" points="2550.5,770.0234,2540.5,774.0234,2550.5,778.0234,2546.5,774.0234" style="stroke:#181818;stroke-width:1.0;"/><line style="stroke:#181818;stroke-width:1.0;stroke-dasharray:2.0,2.0;" x1="2544.5" x2="2694.5" y1="774.0234" y2="774.0234"/><text fill="#000000" font-family="sans-serif" font-size="13" font-weight="bold" lengthAdjust="spacing" textLength="14" x="2556.5" y="768.7607">22</text><text fill="#000000" font-family="sans-serif" font-size="13" lengthAdjust="spacing" textLength="34" x="2574.5" y="768.7607">loglist</text><polygon fill="#181818" points="2002.5,801.3145,1992.5,805.3145,2002.5,809.3145,1998.5,805.3145" style="stroke:#181818;stroke-width:1.0;"/><line style="stroke:#181818;stroke-width:1.0;stroke-dasharray:2.0,2.0;" x1="1996.5" x2="2533.5" y1="805.3145" y2="805.3145"/><text fill="#000000" font-family="sans-serif" font-size="13" font-weight="bold" lengthAdjust="spacing" textLength="14" x="2008.5" y="800.0518">23</text><text fill="#000000" font-family="sans-serif" font-size="13" lengthAdjust="spacing" textLength="144" x="2026.5" y="800.0518">listLogsOutsideReadings</text><polygon fill="#181818" points="1422.5,832.6055,1412.5,836.6055,1422.5,840.6055,1418.5,836.6055" style="stroke:#181818;stroke-width:1.0;"/><line style="stroke:#181818;stroke-width:1.0;stroke-dasharray:2.0,2.0;" x1="1416.5" x2="1985.5" y1="836.6055" y2="836.6055"/><text fill="#000000" font-family="sans-serif" font-size="13" font-weight="bold" lengthAdjust="spacing" textLength="14" x="1428.5" y="831.3428">24</text><text fill="#000000" font-family="sans-serif" font-size="13" lengthAdjust="spacing" textLength="144" x="1446.5" y="831.3428">listLogsOutsideReadings</text><polygon fill="#181818" points="1969.5,863.8965,1979.5,867.8965,1969.5,871.8965,1973.5,867.8965" style="stroke:#181818;stroke-width:1.0;"/><line style="stroke:#181818;stroke-width:1.0;" x1="1411.5" x2="1975.5" y1="867.8965" y2="867.8965"/><text fill="#000000" font-family="sans-serif" font-size="13" font-weight="bold" lengthAdjust="spacing" textLength="14" x="1418.5" y="862.6338">25</text><text fill="#000000" font-family="sans-serif" font-size="13" lengthAdjust="spacing" textLength="533" x="1436.5" y="862.6338">getMaxInstTempDiffBetweenDeviceAndOutside(insideReadings, outsideReadings, timeDelta)</text><polygon fill="#181818" points="1422.5,895.1875,1412.5,899.1875,1422.5,903.1875,1418.5,899.1875" style="stroke:#181818;stroke-width:1.0;"/><line style="stroke:#181818;stroke-width:1.0;stroke-dasharray:2.0,2.0;" x1="1416.5" x2="1985.5" y1="899.1875" y2="899.1875"/><text fill="#000000" font-family="sans-serif" font-size="13" font-weight="bold" lengthAdjust="spacing" textLength="14" x="1428.5" y="893.9248">26</text><text fill="#000000" font-family="sans-serif" font-size="13" lengthAdjust="spacing" textLength="96" x="1446.5" y="893.9248">maxInstTempDiff</text><polygon fill="#181818" points="702.5,926.4785,692.5,930.4785,702.5,934.4785,698.5,930.4785" style="stroke:#181818;stroke-width:1.0;"/><line style="stroke:#181818;stroke-width:1.0;stroke-dasharray:2.0,2.0;" x1="696.5" x2="1405.5" y1="930.4785" y2="930.4785"/><text fill="#000000" font-family="sans-serif" font-size="13" font-weight="bold" lengthAdjust="spacing" textLength="14" x="708.5" y="925.2158">27</text><text fill="#000000" font-family="sans-serif" font-size="13" lengthAdjust="spacing" textLength="96" x="726.5" y="925.2158">maxInstTempDiff</text><polygon fill="#181818" points="33.5,957.7695,23.5,961.7695,33.5,965.7695,29.5,961.7695" style="stroke:#181818;stroke-width:1.0;"/><line style="stroke:#181818;stroke-width:1.0;stroke-dasharray:2.0,2.0;" x1="27.5" x2="685.5" y1="961.7695" y2="961.7695"/><text fill="#000000" font-family="sans-serif" font-size="13" font-weight="bold" lengthAdjust="spacing" textLength="14" x="39.5" y="956.5068">28</text><text fill="#000000" font-family="sans-serif" font-size="13" lengthAdjust="spacing" textLength="96" x="57.5" y="956.5068">maxInstTempDiff</text><!--SRC=[vLPDZzem4BtxLrYv52GeznmgbSq5QQjTBUaFC7XWBSLsQZiB_FkE4uVO4Sk7sfxA0UnuPjxpUsQSB-_ErJPVBEgAATV8wkjMouM5NmseBSovO7l3925iwxIXsKyB9gFCKZyWDJDER4MDcVGDh7kg1E0GbxDXcf6DFjBiLH_0q2UjR2Dh9xJAadHSS4PN5SRuz66QXgt1V8Wjj35Xd8rerDeAv7eADFff6bPeoOHgGxhXQ9avjcIsm-ad6G75AMu6rMYSLetSe0R4Aq7dts81SaeFlepJT0_uymvKigEGZQH2MOTBJ85kB7KWQp3CDGOe5xiT6AywtO0x020zog7TBbBrHOpMaZ8auIUwSLPmQAqH7yn1n82GY0ro6-JCFQCVxBX27YMY5uYwxE2A5kkxuYzTPJe94Dr2KRxCFFtn0-44gqeXOKPHdsxWyBk0oh5fH6yWGKXaDz8BRkHTtLMH0g-AjJFJeKuNJKBIFDaUIiz34k4mJha8czCpRBoxVuww1cMrAKyrJAmpvN0IxWUrvn8FR1P3Ni48pIUNl7jWn-T2zuEN_Rb0R5SEX-HUpFEvkWqPkiC3vtra_ooIDpdHP-00GVgcr3Q1lj_aT2SKNvxwSeWpE8wJmOT0Py8l0FjPtKPDapzwZqAYVkTr3gsg0uza3S_9kR7DHsGhlNyMrYMwzaa9I2mj9grQpTw0SQ7sTbmY8ZgeDEf7DulqCl-vmQEsyjyvN7tgy1MFCUTPxstGi3VfOPTlb_bxFelaFCtwgt9uSCthJxSWK_2Rr9DtWglfySqONznOmRzTNCsDBtt_-Gq0]--></g></svg>