<?xml version="1.0" encoding="us-ascii" standalone="no"?><svg xmlns="http://www.w3.org/2000/svg" xmlns:xlink="http://www.w3.org/1999/xlink" contentStyleType="text/css" height="499px" preserveAspectRatio="none" style="width:1143px;height:499px;background:#FFFFFF;" version="1.1" viewBox="0 0 1143 499" width="1143px" zoomAndPan="magnify"><defs/><g><rect fill="#DDDDDD" height="487.0254" style="stroke:#181818;stroke-width:0.5;" width="985" x="128" y="6"/><text fill="#000000" font-family="sans-serif" font-size="13" font-weight="bold" lengthAdjust="spacing" textLength="42" x="599.5" y="20.0283">Server</text><rect fill="#FFFFFF" height="353.2012" style="stroke:#181818;stroke-width:1.0;" width="10" x="165" y="94.2031"/><rect fill="#FFFFFF" height="156.4551" style="stroke:#181818;stroke-width:1.0;" width="10" x="621" y="125.4941"/><rect fill="#FFFFFF" height="93.873" style="stroke:#181818;stroke-width:1.0;" width="10" x="621" y="313.2402"/><rect fill="#FFFFFF" height="93.873" style="stroke:#181818;stroke-width:1.0;" width="10" x="918" y="156.7852"/><rect fill="#FFFFFF" height="31.291" style="stroke:#181818;stroke-width:1.0;" width="10" x="1036.5" y="344.5313"/><line style="stroke:#181818;stroke-width:0.5;stroke-dasharray:5.0,5.0;" x1="14" x2="14" y1="60.9121" y2="456.4043"/><line style="stroke:#181818;stroke-width:0.5;stroke-dasharray:5.0,5.0;" x1="170" x2="170" y1="60.9121" y2="456.4043"/><line style="stroke:#181818;stroke-width:0.5;stroke-dasharray:5.0,5.0;" x1="625.5" x2="625.5" y1="60.9121" y2="456.4043"/><line style="stroke:#181818;stroke-width:0.5;stroke-dasharray:5.0,5.0;" x1="923" x2="923" y1="60.9121" y2="456.4043"/><line style="stroke:#181818;stroke-width:0.5;stroke-dasharray:5.0,5.0;" x1="1041" x2="1041" y1="60.9121" y2="456.4043"/><line style="stroke:#181818;stroke-width:0.5;stroke-dasharray:5.0,5.0;" x1="1128" x2="1128" y1="60.9121" y2="456.4043"/><rect fill="#E2E2F0" height="32.6211" rx="2.5" ry="2.5" style="stroke:#181818;stroke-width:0.5;" width="18" x="5" y="27.291"/><text fill="#000000" font-family="sans-serif" font-size="14" lengthAdjust="spacing" textLength="4" x="12" y="49.3984">&#160;</text><rect fill="#E2E2F0" height="32.6211" rx="2.5" ry="2.5" style="stroke:#181818;stroke-width:0.5;" width="18" x="5" y="455.4043"/><text fill="#000000" font-family="sans-serif" font-size="14" lengthAdjust="spacing" textLength="4" x="12" y="477.5117">&#160;</text><rect fill="#E2E2F0" height="32.6211" rx="2.5" ry="2.5" style="stroke:#181818;stroke-width:0.5;" width="76" x="132" y="27.291"/><text fill="#000000" font-family="sans-serif" font-size="14" lengthAdjust="spacing" textLength="62" x="139" y="49.3984">Controller</text><rect fill="#E2E2F0" height="32.6211" rx="2.5" ry="2.5" style="stroke:#181818;stroke-width:0.5;" width="76" x="132" y="455.4043"/><text fill="#000000" font-family="sans-serif" font-size="14" lengthAdjust="spacing" textLength="62" x="139" y="477.5117">Controller</text><rect fill="#E2E2F0" height="32.6211" rx="2.5" ry="2.5" style="stroke:#181818;stroke-width:0.5;" width="61" x="595.5" y="27.291"/><text fill="#000000" font-family="sans-serif" font-size="14" lengthAdjust="spacing" textLength="47" x="602.5" y="49.3984">Service</text><rect fill="#E2E2F0" height="32.6211" rx="2.5" ry="2.5" style="stroke:#181818;stroke-width:0.5;" width="61" x="595.5" y="455.4043"/><text fill="#000000" font-family="sans-serif" font-size="14" lengthAdjust="spacing" textLength="47" x="602.5" y="477.5117">Service</text><rect fill="#E2E2F0" height="32.6211" rx="2.5" ry="2.5" style="stroke:#181818;stroke-width:0.5;" width="82" x="882" y="27.291"/><text fill="#000000" font-family="sans-serif" font-size="14" lengthAdjust="spacing" textLength="68" x="889" y="49.3984">Repository</text><rect fill="#E2E2F0" height="32.6211" rx="2.5" ry="2.5" style="stroke:#181818;stroke-width:0.5;" width="82" x="882" y="455.4043"/><text fill="#000000" font-family="sans-serif" font-size="14" lengthAdjust="spacing" textLength="68" x="889" y="477.5117">Repository</text><rect fill="#E2E2F0" height="32.6211" rx="2.5" ry="2.5" style="stroke:#181818;stroke-width:0.5;" width="135" x="974" y="27.291"/><text fill="#000000" font-family="sans-serif" font-size="14" lengthAdjust="spacing" textLength="121" x="981" y="49.3984">BlindRollerActuator</text><rect fill="#E2E2F0" height="32.6211" rx="2.5" ry="2.5" style="stroke:#181818;stroke-width:0.5;" width="135" x="974" y="455.4043"/><text fill="#000000" font-family="sans-serif" font-size="14" lengthAdjust="spacing" textLength="121" x="981" y="477.5117">BlindRollerActuator</text><rect fill="#E2E2F0" height="32.6211" rx="2.5" ry="2.5" style="stroke:#181818;stroke-width:0.5;" width="18" x="1119" y="27.291"/><text fill="#000000" font-family="sans-serif" font-size="14" lengthAdjust="spacing" textLength="4" x="1126" y="49.3984">&#160;</text><rect fill="#E2E2F0" height="32.6211" rx="2.5" ry="2.5" style="stroke:#181818;stroke-width:0.5;" width="18" x="1119" y="455.4043"/><text fill="#000000" font-family="sans-serif" font-size="14" lengthAdjust="spacing" textLength="4" x="1126" y="477.5117">&#160;</text><rect fill="#FFFFFF" height="353.2012" style="stroke:#181818;stroke-width:1.0;" width="10" x="165" y="94.2031"/><rect fill="#FFFFFF" height="156.4551" style="stroke:#181818;stroke-width:1.0;" width="10" x="621" y="125.4941"/><rect fill="#FFFFFF" height="93.873" style="stroke:#181818;stroke-width:1.0;" width="10" x="621" y="313.2402"/><rect fill="#FFFFFF" height="93.873" style="stroke:#181818;stroke-width:1.0;" width="10" x="918" y="156.7852"/><rect fill="#FFFFFF" height="31.291" style="stroke:#181818;stroke-width:1.0;" width="10" x="1036.5" y="344.5313"/><polygon fill="#181818" points="153,90.2031,163,94.2031,153,98.2031,157,94.2031" style="stroke:#181818;stroke-width:1.0;"/><line style="stroke:#181818;stroke-width:1.0;" x1="14" x2="159" y1="94.2031" y2="94.2031"/><text fill="#000000" font-family="sans-serif" font-size="13" font-weight="bold" lengthAdjust="spacing" textLength="7" x="21" y="88.9404">1</text><text fill="#000000" font-family="sans-serif" font-size="13" lengthAdjust="spacing" textLength="121" x="32" y="88.9404">POST/set-blindRoller</text><polygon fill="#181818" points="609,121.4941,619,125.4941,609,129.4941,613,125.4941" style="stroke:#181818;stroke-width:1.0;"/><line style="stroke:#181818;stroke-width:1.0;" x1="175" x2="615" y1="125.4941" y2="125.4941"/><text fill="#000000" font-family="sans-serif" font-size="13" font-weight="bold" lengthAdjust="spacing" textLength="7" x="182" y="120.2314">2</text><text fill="#000000" font-family="sans-serif" font-size="13" lengthAdjust="spacing" textLength="257" x="193" y="120.2314">getDeviceReadings (deviceID, sensorTypeID)</text><polygon fill="#181818" points="906,152.7852,916,156.7852,906,160.7852,910,156.7852" style="stroke:#181818;stroke-width:1.0;"/><line style="stroke:#181818;stroke-width:1.0;" x1="631" x2="912" y1="156.7852" y2="156.7852"/><text fill="#000000" font-family="sans-serif" font-size="13" font-weight="bold" lengthAdjust="spacing" textLength="7" x="638" y="151.5225">3</text><text fill="#000000" font-family="sans-serif" font-size="13" lengthAdjust="spacing" textLength="257" x="649" y="151.5225">getDeviceReadings (deviceID, sensorTypeID)</text><ellipse cx="1127.5" cy="187.3262" fill="none" rx="4" ry="4" style="stroke:#181818;stroke-width:1.5;"/><polygon fill="#181818" points="1110.5,184.0762,1120.5,188.0762,1110.5,192.0762,1114.5,188.0762" style="stroke:#181818;stroke-width:1.0;"/><line style="stroke:#181818;stroke-width:1.0;" x1="928" x2="1116.5" y1="188.0762" y2="188.0762"/><text fill="#000000" font-family="sans-serif" font-size="13" font-weight="bold" lengthAdjust="spacing" textLength="7" x="935" y="182.8135">4</text><text fill="#000000" font-family="sans-serif" font-size="13" lengthAdjust="spacing" textLength="43" x="946" y="182.8135">findAll()</text><polygon fill="#181818" points="939,215.3672,929,219.3672,939,223.3672,935,219.3672" style="stroke:#181818;stroke-width:1.0;"/><ellipse cx="1127.5" cy="218.6172" fill="none" rx="4" ry="4" style="stroke:#181818;stroke-width:1.5;"/><line style="stroke:#181818;stroke-width:1.0;stroke-dasharray:2.0,2.0;" x1="933" x2="1123" y1="219.3672" y2="219.3672"/><text fill="#000000" font-family="sans-serif" font-size="13" font-weight="bold" lengthAdjust="spacing" textLength="7" x="945" y="214.1045">5</text><text fill="#000000" font-family="sans-serif" font-size="13" lengthAdjust="spacing" textLength="111" x="956" y="214.1045">deviceReadingsList</text><polygon fill="#181818" points="642,246.6582,632,250.6582,642,254.6582,638,250.6582" style="stroke:#181818;stroke-width:1.0;"/><line style="stroke:#181818;stroke-width:1.0;stroke-dasharray:2.0,2.0;" x1="636" x2="922" y1="250.6582" y2="250.6582"/><text fill="#000000" font-family="sans-serif" font-size="13" font-weight="bold" lengthAdjust="spacing" textLength="7" x="648" y="245.3955">6</text><text fill="#000000" font-family="sans-serif" font-size="13" lengthAdjust="spacing" textLength="111" x="659" y="245.3955">deviceReadingsList</text><polygon fill="#181818" points="186,277.9492,176,281.9492,186,285.9492,182,281.9492" style="stroke:#181818;stroke-width:1.0;"/><line style="stroke:#181818;stroke-width:1.0;stroke-dasharray:2.0,2.0;" x1="180" x2="625" y1="281.9492" y2="281.9492"/><text fill="#000000" font-family="sans-serif" font-size="13" font-weight="bold" lengthAdjust="spacing" textLength="7" x="192" y="276.6865">7</text><text fill="#000000" font-family="sans-serif" font-size="13" lengthAdjust="spacing" textLength="111" x="203" y="276.6865">deviceReadingsList</text><polygon fill="#181818" points="609,309.2402,619,313.2402,609,317.2402,613,313.2402" style="stroke:#181818;stroke-width:1.0;"/><line style="stroke:#181818;stroke-width:1.0;" x1="175" x2="615" y1="313.2402" y2="313.2402"/><text fill="#000000" font-family="sans-serif" font-size="13" font-weight="bold" lengthAdjust="spacing" textLength="7" x="182" y="307.9775">8</text><text fill="#000000" font-family="sans-serif" font-size="13" lengthAdjust="spacing" textLength="416" x="193" y="307.9775">setValue (actuatorBlindRoller, blindRollerValue, blindRollerCurrentValue)</text><polygon fill="#181818" points="1024.5,340.5313,1034.5,344.5313,1024.5,348.5313,1028.5,344.5313" style="stroke:#181818;stroke-width:1.0;"/><line style="stroke:#181818;stroke-width:1.0;" x1="631" x2="1030.5" y1="344.5313" y2="344.5313"/><text fill="#000000" font-family="sans-serif" font-size="13" font-weight="bold" lengthAdjust="spacing" textLength="7" x="638" y="339.2686">9</text><text fill="#000000" font-family="sans-serif" font-size="13" lengthAdjust="spacing" textLength="152" x="649" y="339.2686">setValue(blindRollerValue)</text><polygon fill="#181818" points="642,371.8223,632,375.8223,642,379.8223,638,375.8223" style="stroke:#181818;stroke-width:1.0;"/><line style="stroke:#181818;stroke-width:1.0;stroke-dasharray:2.0,2.0;" x1="636" x2="1040.5" y1="375.8223" y2="375.8223"/><text fill="#000000" font-family="sans-serif" font-size="13" font-weight="bold" lengthAdjust="spacing" textLength="14" x="648" y="370.5596">10</text><text fill="#000000" font-family="sans-serif" font-size="13" lengthAdjust="spacing" textLength="93" x="666" y="370.5596">blindRollerValue</text><polygon fill="#181818" points="186,403.1133,176,407.1133,186,411.1133,182,407.1133" style="stroke:#181818;stroke-width:1.0;"/><line style="stroke:#181818;stroke-width:1.0;stroke-dasharray:2.0,2.0;" x1="180" x2="625" y1="407.1133" y2="407.1133"/><text fill="#000000" font-family="sans-serif" font-size="13" font-weight="bold" lengthAdjust="spacing" textLength="14" x="192" y="401.8506">11</text><text fill="#000000" font-family="sans-serif" font-size="13" lengthAdjust="spacing" textLength="93" x="210" y="401.8506">blindRollerValue</text><polygon fill="#181818" points="25,434.4043,15,438.4043,25,442.4043,21,438.4043" style="stroke:#181818;stroke-width:1.0;"/><line style="stroke:#181818;stroke-width:1.0;stroke-dasharray:2.0,2.0;" x1="19" x2="164" y1="438.4043" y2="438.4043"/><text fill="#000000" font-family="sans-serif" font-size="13" font-weight="bold" lengthAdjust="spacing" textLength="14" x="31" y="433.1416">12</text><text fill="#000000" font-family="sans-serif" font-size="13" lengthAdjust="spacing" textLength="109" x="49" y="433.1416">JSON / Status 201</text><!--SRC=[dLF1JkCm4BtFLmozK2IoNVQO0nBGmu8GeBRYFarckvOSEzXZjFrxx6nfd3Q0H7APSTwyyNipEVqhqlfoDcir6GcD_b7PPkRv9R2fkAWLRHmrSD8wsZI4chOs2Fg6XGm11R4cD6js02qvKPLg8mrEuaiUVwzMJm1h-mydItQlx2Q0yHaWRwmHPxME7rD9dnv14uMgEA5suH5amQtrIgpR9bIV7G6ljJBrekjpLKcW24eL8yVGrRAfCUg08w8v2LsJxsuLLGD04et5PQQanAV7vIgQAiMwRm1KYNebuLmpz77YsEaiSSCovnGkc6fbDXwdTPVVpi_Hi_7MhRPjpCvwsdUJuDsuIDXRyZtEp5B8p2ukxTw94lz4ZLTQJyy0zlROug1xFMXzhxmC6NFr8zYQH- -qbtemWCyPzavzu7wSt3Ffm3YbtLPaYtAEsL0xsE3a9ZZ7vd_z5yCPsRw-z_ImIqOskhPZApvmzP0mTsIKyIDpFoCQjJRMfx-anBlbumFES2aamUEldnS0Rm00]--></g></svg>