<?xml version="1.0" encoding="us-ascii" standalone="no"?>
<svg xmlns="http://www.w3.org/2000/svg" contentStyleType="text/css"
     height="644px" preserveAspectRatio="none" style="width:799px;height:644px;background:#FFFFFF;" version="1.1"
     viewBox="0 0 799 644" width="799px" zoomAndPan="magnify">
    <defs/>
    <g>
        <rect fill="#DDDDDD" height="632.877" style="stroke:#181818;stroke-width:0.5;" width="580.5" x="185" y="6"/>
        <text fill="#000000" font-family="sans-serif" font-size="13" font-weight="bold" lengthAdjust="spacing"
              textLength="43" x="453.75" y="18.5684">Server
        </text>
        <rect fill="#FFFFFF" height="498.2793" style="stroke:#181818;stroke-width:1.0;" width="10" x="226" y="88.1094"/>
        <rect fill="#FFFFFF" height="146.5527" style="stroke:#181818;stroke-width:1.0;" width="10" x="473" y="176.041"/>
        <rect fill="#FFFFFF" height="205.1738" style="stroke:#181818;stroke-width:1.0;" width="10" x="473"
              y="351.9043"/>
        <rect fill="#FFFFFF" height="87.9316" style="stroke:#181818;stroke-width:1.0;" width="10" x="636" y="205.3516"/>
        <rect fill="#FFFFFF" height="87.9316" style="stroke:#181818;stroke-width:1.0;" width="10" x="636" y="439.8359"/>
        <rect fill="#FFFFFF" height="29.3105" style="stroke:#181818;stroke-width:1.0;" width="10" x="723" y="117.4199"/>
        <rect fill="#FFFFFF" height="29.3105" style="stroke:#181818;stroke-width:1.0;" width="10" x="723" y="381.2148"/>
        <line style="stroke:#181818;stroke-width:0.5;stroke-dasharray:5.0,5.0;" x1="14" x2="14" y1="56.7988"
              y2="604.3887"/>
        <line style="stroke:#181818;stroke-width:0.5;stroke-dasharray:5.0,5.0;" x1="231" x2="231" y1="56.7988"
              y2="604.3887"/>
        <line style="stroke:#181818;stroke-width:0.5;stroke-dasharray:5.0,5.0;" x1="478" x2="478" y1="56.7988"
              y2="604.3887"/>
        <line style="stroke:#181818;stroke-width:0.5;stroke-dasharray:5.0,5.0;" x1="640.5" x2="640.5" y1="56.7988"
              y2="604.3887"/>
        <line style="stroke:#181818;stroke-width:0.5;stroke-dasharray:5.0,5.0;" x1="727.5" x2="727.5" y1="56.7988"
              y2="604.3887"/>
        <line style="stroke:#181818;stroke-width:0.5;stroke-dasharray:5.0,5.0;" x1="784" x2="784" y1="56.7988"
              y2="604.3887"/>
        <rect fill="#E2E2F0" height="30.4883" rx="2.5" ry="2.5" style="stroke:#181818;stroke-width:0.5;" width="18"
              x="5" y="25.3105"/>
        <text fill="#000000" font-family="sans-serif" font-size="14" lengthAdjust="spacing" textLength="4" x="12"
              y="45.8457">&#160;
        </text>
        <rect fill="#E2E2F0" height="30.4883" rx="2.5" ry="2.5" style="stroke:#181818;stroke-width:0.5;" width="18"
              x="5" y="603.3887"/>
        <text fill="#000000" font-family="sans-serif" font-size="14" lengthAdjust="spacing" textLength="4" x="12"
              y="623.9238">&#160;
        </text>
        <rect fill="#E2E2F0" height="30.4883" rx="2.5" ry="2.5" style="stroke:#181818;stroke-width:0.5;" width="84"
              x="189" y="25.3105"/>
        <text fill="#000000" font-family="sans-serif" font-size="14" lengthAdjust="spacing" textLength="70" x="196"
              y="45.8457">Controller
        </text>
        <rect fill="#E2E2F0" height="30.4883" rx="2.5" ry="2.5" style="stroke:#181818;stroke-width:0.5;" width="84"
              x="189" y="603.3887"/>
        <text fill="#000000" font-family="sans-serif" font-size="14" lengthAdjust="spacing" textLength="70" x="196"
              y="623.9238">Controller
        </text>
        <rect fill="#E2E2F0" height="30.4883" rx="2.5" ry="2.5" style="stroke:#181818;stroke-width:0.5;" width="62"
              x="447" y="25.3105"/>
        <text fill="#000000" font-family="sans-serif" font-size="14" lengthAdjust="spacing" textLength="48" x="454"
              y="45.8457">Service
        </text>
        <rect fill="#E2E2F0" height="30.4883" rx="2.5" ry="2.5" style="stroke:#181818;stroke-width:0.5;" width="62"
              x="447" y="603.3887"/>
        <text fill="#000000" font-family="sans-serif" font-size="14" lengthAdjust="spacing" textLength="48" x="454"
              y="623.9238">Service
        </text>
        <rect fill="#E2E2F0" height="30.4883" rx="2.5" ry="2.5" style="stroke:#181818;stroke-width:0.5;" width="87"
              x="597.5" y="25.3105"/>
        <text fill="#000000" font-family="sans-serif" font-size="14" lengthAdjust="spacing" textLength="73" x="604.5"
              y="45.8457">Repository
        </text>
        <rect fill="#E2E2F0" height="30.4883" rx="2.5" ry="2.5" style="stroke:#181818;stroke-width:0.5;" width="87"
              x="597.5" y="603.3887"/>
        <text fill="#000000" font-family="sans-serif" font-size="14" lengthAdjust="spacing" textLength="73" x="604.5"
              y="623.9238">Repository
        </text>
        <rect fill="#E2E2F0" height="30.4883" rx="2.5" ry="2.5" style="stroke:#181818;stroke-width:0.5;" width="67"
              x="694.5" y="25.3105"/>
        <text fill="#000000" font-family="sans-serif" font-size="14" lengthAdjust="spacing" textLength="53" x="701.5"
              y="45.8457">Domain
        </text>
        <rect fill="#E2E2F0" height="30.4883" rx="2.5" ry="2.5" style="stroke:#181818;stroke-width:0.5;" width="67"
              x="694.5" y="603.3887"/>
        <text fill="#000000" font-family="sans-serif" font-size="14" lengthAdjust="spacing" textLength="53" x="701.5"
              y="623.9238">Domain
        </text>
        <rect fill="#E2E2F0" height="30.4883" rx="2.5" ry="2.5" style="stroke:#181818;stroke-width:0.5;" width="18"
              x="775" y="25.3105"/>
        <text fill="#000000" font-family="sans-serif" font-size="14" lengthAdjust="spacing" textLength="4" x="782"
              y="45.8457">&#160;
        </text>
        <rect fill="#E2E2F0" height="30.4883" rx="2.5" ry="2.5" style="stroke:#181818;stroke-width:0.5;" width="18"
              x="775" y="603.3887"/>
        <text fill="#000000" font-family="sans-serif" font-size="14" lengthAdjust="spacing" textLength="4" x="782"
              y="623.9238">&#160;
        </text>
        <rect fill="#FFFFFF" height="498.2793" style="stroke:#181818;stroke-width:1.0;" width="10" x="226" y="88.1094"/>
        <rect fill="#FFFFFF" height="146.5527" style="stroke:#181818;stroke-width:1.0;" width="10" x="473" y="176.041"/>
        <rect fill="#FFFFFF" height="205.1738" style="stroke:#181818;stroke-width:1.0;" width="10" x="473"
              y="351.9043"/>
        <rect fill="#FFFFFF" height="87.9316" style="stroke:#181818;stroke-width:1.0;" width="10" x="636" y="205.3516"/>
        <rect fill="#FFFFFF" height="87.9316" style="stroke:#181818;stroke-width:1.0;" width="10" x="636" y="439.8359"/>
        <rect fill="#FFFFFF" height="29.3105" style="stroke:#181818;stroke-width:1.0;" width="10" x="723" y="117.4199"/>
        <rect fill="#FFFFFF" height="29.3105" style="stroke:#181818;stroke-width:1.0;" width="10" x="723" y="381.2148"/>
        <ellipse cx="13.5" cy="87.3594" fill="none" rx="4" ry="4" style="stroke:#181818;stroke-width:1.5;"/>
        <polygon fill="#181818" points="214,84.1094,224,88.1094,214,92.1094,218,88.1094"
                 style="stroke:#181818;stroke-width:1.0;"/>
        <line style="stroke:#181818;stroke-width:1.0;" x1="18" x2="220" y1="88.1094" y2="88.1094"/>
        <text fill="#000000" font-family="sans-serif" font-size="13" font-weight="bold" lengthAdjust="spacing"
              textLength="9" x="21" y="83.3672">1
        </text>
        <text fill="#000000" font-family="sans-serif" font-size="13" lengthAdjust="spacing" textLength="180" x="34"
              y="83.3672">PUT /devices/deactivate/{id}
        </text>
        <polygon fill="#181818" points="711,113.4199,721,117.4199,711,121.4199,715,117.4199"
                 style="stroke:#181818;stroke-width:1.0;"/>
        <line style="stroke:#181818;stroke-width:1.0;" x1="236" x2="717" y1="117.4199" y2="117.4199"/>
        <text fill="#000000" font-family="sans-serif" font-size="13" font-weight="bold" lengthAdjust="spacing"
              textLength="9" x="243" y="112.6777">2
        </text>
        <text fill="#000000" font-family="sans-serif" font-size="13" lengthAdjust="spacing" textLength="137" x="256"
              y="112.6777">DeviceID(strDeviceID)
        </text>
        <polygon fill="#181818" points="247,142.7305,237,146.7305,247,150.7305,243,146.7305"
                 style="stroke:#181818;stroke-width:1.0;"/>
        <line style="stroke:#181818;stroke-width:1.0;stroke-dasharray:2.0,2.0;" x1="241" x2="727" y1="146.7305"
              y2="146.7305"/>
        <text fill="#000000" font-family="sans-serif" font-size="13" font-weight="bold" lengthAdjust="spacing"
              textLength="9" x="253" y="141.9883">3
        </text>
        <text fill="#000000" font-family="sans-serif" font-size="13" lengthAdjust="spacing" textLength="54" x="266"
              y="141.9883">deviceID
        </text>
        <polygon fill="#181818" points="461,172.041,471,176.041,461,180.041,465,176.041"
                 style="stroke:#181818;stroke-width:1.0;"/>
        <line style="stroke:#181818;stroke-width:1.0;" x1="236" x2="467" y1="176.041" y2="176.041"/>
        <text fill="#000000" font-family="sans-serif" font-size="13" font-weight="bold" lengthAdjust="spacing"
              textLength="9" x="243" y="171.2988">4
        </text>
        <text fill="#000000" font-family="sans-serif" font-size="13" lengthAdjust="spacing" textLength="152" x="256"
              y="171.2988">getDeviceByID(deviceID)
        </text>
        <polygon fill="#181818" points="624,201.3516,634,205.3516,624,209.3516,628,205.3516"
                 style="stroke:#181818;stroke-width:1.0;"/>
        <line style="stroke:#181818;stroke-width:1.0;" x1="483" x2="630" y1="205.3516" y2="205.3516"/>
        <text fill="#000000" font-family="sans-serif" font-size="13" font-weight="bold" lengthAdjust="spacing"
              textLength="9" x="490" y="200.6094">5
        </text>
        <text fill="#000000" font-family="sans-serif" font-size="13" lengthAdjust="spacing" textLength="121" x="503"
              y="200.6094">ofIdentity(deviceId)
        </text>
        <ellipse cx="783.5" cy="233.9121" fill="none" rx="4" ry="4" style="stroke:#181818;stroke-width:1.5;"/>
        <polygon fill="#181818" points="766.5,230.6621,776.5,234.6621,766.5,238.6621,770.5,234.6621"
                 style="stroke:#181818;stroke-width:1.0;"/>
        <line style="stroke:#181818;stroke-width:1.0;" x1="646" x2="772.5" y1="234.6621" y2="234.6621"/>
        <text fill="#000000" font-family="sans-serif" font-size="13" font-weight="bold" lengthAdjust="spacing"
              textLength="9" x="653" y="229.9199">6
        </text>
        <text fill="#000000" font-family="sans-serif" font-size="13" lengthAdjust="spacing" textLength="95" x="666"
              y="229.9199">findDeviceByID
        </text>
        <polygon fill="#181818" points="657,259.9727,647,263.9727,657,267.9727,653,263.9727"
                 style="stroke:#181818;stroke-width:1.0;"/>
        <ellipse cx="783.5" cy="263.2227" fill="none" rx="4" ry="4" style="stroke:#181818;stroke-width:1.5;"/>
        <line style="stroke:#181818;stroke-width:1.0;stroke-dasharray:2.0,2.0;" x1="651" x2="779" y1="263.9727"
              y2="263.9727"/>
        <text fill="#000000" font-family="sans-serif" font-size="13" font-weight="bold" lengthAdjust="spacing"
              textLength="9" x="663" y="259.2305">7
        </text>
        <text fill="#000000" font-family="sans-serif" font-size="13" lengthAdjust="spacing" textLength="40" x="676"
              y="259.2305">device
        </text>
        <polygon fill="#181818" points="494,289.2832,484,293.2832,494,297.2832,490,293.2832"
                 style="stroke:#181818;stroke-width:1.0;"/>
        <line style="stroke:#181818;stroke-width:1.0;stroke-dasharray:2.0,2.0;" x1="488" x2="640" y1="293.2832"
              y2="293.2832"/>
        <text fill="#000000" font-family="sans-serif" font-size="13" font-weight="bold" lengthAdjust="spacing"
              textLength="9" x="500" y="288.541">8
        </text>
        <text fill="#000000" font-family="sans-serif" font-size="13" lengthAdjust="spacing" textLength="40" x="513"
              y="288.541">device
        </text>
        <polygon fill="#181818" points="247,318.5938,237,322.5938,247,326.5938,243,322.5938"
                 style="stroke:#181818;stroke-width:1.0;"/>
        <line style="stroke:#181818;stroke-width:1.0;stroke-dasharray:2.0,2.0;" x1="241" x2="477" y1="322.5938"
              y2="322.5938"/>
        <text fill="#000000" font-family="sans-serif" font-size="13" font-weight="bold" lengthAdjust="spacing"
              textLength="9" x="253" y="317.8516">9
        </text>
        <text fill="#000000" font-family="sans-serif" font-size="13" lengthAdjust="spacing" textLength="40" x="266"
              y="317.8516">device
        </text>
        <polygon fill="#181818" points="461,347.9043,471,351.9043,461,355.9043,465,351.9043"
                 style="stroke:#181818;stroke-width:1.0;"/>
        <line style="stroke:#181818;stroke-width:1.0;" x1="236" x2="467" y1="351.9043" y2="351.9043"/>
        <text fill="#000000" font-family="sans-serif" font-size="13" font-weight="bold" lengthAdjust="spacing"
              textLength="18" x="243" y="347.1621">10
        </text>
        <text fill="#000000" font-family="sans-serif" font-size="13" lengthAdjust="spacing" textLength="196" x="265"
              y="347.1621">deactivateDeviceByID(deviceID)
        </text>
        <polygon fill="#181818" points="711,377.2148,721,381.2148,711,385.2148,715,381.2148"
                 style="stroke:#181818;stroke-width:1.0;"/>
        <line style="stroke:#181818;stroke-width:1.0;" x1="483" x2="717" y1="381.2148" y2="381.2148"/>
        <text fill="#000000" font-family="sans-serif" font-size="13" font-weight="bold" lengthAdjust="spacing"
              textLength="18" x="490" y="376.4727">11
        </text>
        <text fill="#000000" font-family="sans-serif" font-size="13" lengthAdjust="spacing" textLength="161" x="512"
              y="376.4727">deactivateDevice(): Status
        </text>
        <polygon fill="#181818" points="494,406.5254,484,410.5254,494,414.5254,490,410.5254"
                 style="stroke:#181818;stroke-width:1.0;"/>
        <line style="stroke:#181818;stroke-width:1.0;stroke-dasharray:2.0,2.0;" x1="488" x2="727" y1="410.5254"
              y2="410.5254"/>
        <text fill="#000000" font-family="sans-serif" font-size="13" font-weight="bold" lengthAdjust="spacing"
              textLength="18" x="500" y="405.7832">12
        </text>
        <text fill="#000000" font-family="sans-serif" font-size="13" lengthAdjust="spacing" textLength="39" x="522"
              y="405.7832">status
        </text>
        <polygon fill="#181818" points="624,435.8359,634,439.8359,624,443.8359,628,439.8359"
                 style="stroke:#181818;stroke-width:1.0;"/>
        <line style="stroke:#181818;stroke-width:1.0;" x1="483" x2="630" y1="439.8359" y2="439.8359"/>
        <text fill="#000000" font-family="sans-serif" font-size="13" font-weight="bold" lengthAdjust="spacing"
              textLength="18" x="490" y="435.0938">13
        </text>
        <text fill="#000000" font-family="sans-serif" font-size="13" lengthAdjust="spacing" textLength="91" x="512"
              y="435.0938">update(device)
        </text>
        <ellipse cx="783.5" cy="468.3965" fill="none" rx="4" ry="4" style="stroke:#181818;stroke-width:1.5;"/>
        <polygon fill="#181818" points="766.5,465.1465,776.5,469.1465,766.5,473.1465,770.5,469.1465"
                 style="stroke:#181818;stroke-width:1.0;"/>
        <line style="stroke:#181818;stroke-width:1.0;" x1="646" x2="772.5" y1="469.1465" y2="469.1465"/>
        <text fill="#000000" font-family="sans-serif" font-size="13" font-weight="bold" lengthAdjust="spacing"
              textLength="18" x="653" y="464.4043">14
        </text>
        <text fill="#000000" font-family="sans-serif" font-size="13" lengthAdjust="spacing" textLength="43" x="675"
              y="464.4043">update
        </text>
        <polygon fill="#181818" points="657,494.457,647,498.457,657,502.457,653,498.457"
                 style="stroke:#181818;stroke-width:1.0;"/>
        <ellipse cx="783.5" cy="497.707" fill="none" rx="4" ry="4" style="stroke:#181818;stroke-width:1.5;"/>
        <line style="stroke:#181818;stroke-width:1.0;stroke-dasharray:2.0,2.0;" x1="651" x2="779" y1="498.457"
              y2="498.457"/>
        <text fill="#000000" font-family="sans-serif" font-size="13" font-weight="bold" lengthAdjust="spacing"
              textLength="18" x="663" y="493.7148">15
        </text>
        <text fill="#000000" font-family="sans-serif" font-size="13" lengthAdjust="spacing" textLength="92" x="685"
              y="493.7148">deviceUpdated
        </text>
        <polygon fill="#181818" points="494,523.7676,484,527.7676,494,531.7676,490,527.7676"
                 style="stroke:#181818;stroke-width:1.0;"/>
        <line style="stroke:#181818;stroke-width:1.0;stroke-dasharray:2.0,2.0;" x1="488" x2="640" y1="527.7676"
              y2="527.7676"/>
        <text fill="#000000" font-family="sans-serif" font-size="13" font-weight="bold" lengthAdjust="spacing"
              textLength="18" x="500" y="523.0254">16
        </text>
        <text fill="#000000" font-family="sans-serif" font-size="13" lengthAdjust="spacing" textLength="92" x="522"
              y="523.0254">deviceUpdated
        </text>
        <polygon fill="#181818" points="247,553.0781,237,557.0781,247,561.0781,243,557.0781"
                 style="stroke:#181818;stroke-width:1.0;"/>
        <line style="stroke:#181818;stroke-width:1.0;stroke-dasharray:2.0,2.0;" x1="241" x2="477" y1="557.0781"
              y2="557.0781"/>
        <text fill="#000000" font-family="sans-serif" font-size="13" font-weight="bold" lengthAdjust="spacing"
              textLength="18" x="253" y="552.3359">17
        </text>
        <text fill="#000000" font-family="sans-serif" font-size="13" lengthAdjust="spacing" textLength="92" x="275"
              y="552.3359">deviceUpdated
        </text>
        <ellipse cx="13.5" cy="585.6387" fill="none" rx="4" ry="4" style="stroke:#181818;stroke-width:1.5;"/>
        <polygon fill="#181818" points="30.5,582.3887,20.5,586.3887,30.5,590.3887,26.5,586.3887"
                 style="stroke:#181818;stroke-width:1.0;"/>
        <line style="stroke:#181818;stroke-width:1.0;stroke-dasharray:2.0,2.0;" x1="28.5" x2="230" y1="586.3887"
              y2="586.3887"/>
        <text fill="#000000" font-family="sans-serif" font-size="13" font-weight="bold" lengthAdjust="spacing"
              textLength="18" x="31" y="581.6465">18
        </text>
        <text fill="#000000" font-family="sans-serif" font-size="13" lengthAdjust="spacing" textLength="124" x="53"
              y="581.6465">JSON status 200 OK
        </text><!--SRC=[ZPBBReCm44Nt_effDaqNbAXB5baqLEexKKYpTx2RMWARsaFKgEg_Tsn0v87KWiHhpfsvSyNb1sBbaZYk2gwnBelht9Inav-rrBcCXE9RoqjsKLc-BJaKV6zg15TAv9epnciqkYutqZ9MSOigLnNrWH6TtC7zQhLWR6E-O9H9kvDsn82E8t9cD5fJ55Jqajbg-HoWCz1tKBaCLBOUPfQoCawXiVk0BUyMys4mDILNEa3f_8L9BO1i3krmcp8w_2PWecdm1maitbOG2-aDERhp7DMEeuo_bVXXtLkp30iIajAW1DAWUKZ73cttVDKhl1b65uZwMQB5M3-duRh6sPgehSIct-sUkelprfGP8v9u7mifpFk3a1eLxZjS7E0Xkq16KqCfaE1TQT7FOFJDH7sxfaShwLor7m-SXxx1oEc6XvGtUxnVN_nxpNPFd-EvS7oLG8OSQtSSUvTwcEOQu3Jne_pgIb2XzN2Qt4bq3JiSsLkeYS7akjg_0Xo0VHfDZDvA-8iJUCpch-s6S3EPmFpfKDByjBy0]-->
    </g>
</svg>