<?xml version="1.0" encoding="us-ascii" standalone="no"?><svg xmlns="http://www.w3.org/2000/svg" xmlns:xlink="http://www.w3.org/1999/xlink" contentStyleType="text/css" height="592px" preserveAspectRatio="none" style="width:933px;height:592px;background:#FFFFFF;" version="1.1" viewBox="0 0 933 592" width="933px" zoomAndPan="magnify"><defs/><g><rect fill="#DDDDDD" height="580.8984" style="stroke:#181818;stroke-width:0.5;" width="783.5" x="119.5" y="6"/><text fill="#000000" font-family="sans-serif" font-size="13" font-weight="bold" lengthAdjust="spacing" textLength="42" x="490.25" y="20.0283">Server</text><rect fill="#FFFFFF" height="438.0742" style="stroke:#181818;stroke-width:1.0;" width="10" x="150" y="94.2031"/><rect fill="#FFFFFF" height="375.4922" style="stroke:#181818;stroke-width:1.0;" width="10" x="354" y="125.4941"/><rect fill="#FFFFFF" height="125.1641" style="stroke:#181818;stroke-width:1.0;" width="10" x="664" y="344.5313"/><rect fill="#FFFFFF" height="62.582" style="stroke:#181818;stroke-width:1.0;" width="10" x="781" y="375.8223"/><rect fill="#FFFFFF" height="31.291" style="stroke:#181818;stroke-width:1.0;" width="10" x="863" y="156.7852"/><rect fill="#FFFFFF" height="31.291" style="stroke:#181818;stroke-width:1.0;" width="10" x="863" y="219.3672"/><rect fill="#FFFFFF" height="31.291" style="stroke:#181818;stroke-width:1.0;" width="10" x="863" y="281.9492"/><line style="stroke:#181818;stroke-width:0.5;stroke-dasharray:5.0,5.0;" x1="14" x2="14" y1="60.9121" y2="550.2773"/><line style="stroke:#181818;stroke-width:0.5;stroke-dasharray:5.0,5.0;" x1="154.5" x2="154.5" y1="60.9121" y2="550.2773"/><line style="stroke:#181818;stroke-width:0.5;stroke-dasharray:5.0,5.0;" x1="359" x2="359" y1="60.9121" y2="550.2773"/><line style="stroke:#181818;stroke-width:0.5;stroke-dasharray:5.0,5.0;" x1="668.5" x2="668.5" y1="60.9121" y2="550.2773"/><line style="stroke:#181818;stroke-width:0.5;stroke-dasharray:5.0,5.0;" x1="786" x2="786" y1="60.9121" y2="550.2773"/><line style="stroke:#181818;stroke-width:0.5;stroke-dasharray:5.0,5.0;" x1="868" x2="868" y1="60.9121" y2="550.2773"/><line style="stroke:#181818;stroke-width:0.5;stroke-dasharray:5.0,5.0;" x1="918" x2="918" y1="60.9121" y2="550.2773"/><rect fill="#E2E2F0" height="32.6211" rx="2.5" ry="2.5" style="stroke:#181818;stroke-width:0.5;" width="18" x="5" y="27.291"/><text fill="#000000" font-family="sans-serif" font-size="14" lengthAdjust="spacing" textLength="4" x="12" y="49.3984">&#160;</text><rect fill="#E2E2F0" height="32.6211" rx="2.5" ry="2.5" style="stroke:#181818;stroke-width:0.5;" width="18" x="5" y="549.2773"/><text fill="#000000" font-family="sans-serif" font-size="14" lengthAdjust="spacing" textLength="4" x="12" y="571.3848">&#160;</text><rect fill="#E2E2F0" height="32.6211" rx="2.5" ry="2.5" style="stroke:#181818;stroke-width:0.5;" width="63" x="123.5" y="27.291"/><text fill="#000000" font-family="sans-serif" font-size="14" lengthAdjust="spacing" textLength="49" x="130.5" y="49.3984">Routing</text><rect fill="#E2E2F0" height="32.6211" rx="2.5" ry="2.5" style="stroke:#181818;stroke-width:0.5;" width="63" x="123.5" y="549.2773"/><text fill="#000000" font-family="sans-serif" font-size="14" lengthAdjust="spacing" textLength="49" x="130.5" y="571.3848">Routing</text><rect fill="#E2E2F0" height="32.6211" rx="2.5" ry="2.5" style="stroke:#181818;stroke-width:0.5;" width="76" x="321" y="27.291"/><text fill="#000000" font-family="sans-serif" font-size="14" lengthAdjust="spacing" textLength="62" x="328" y="49.3984">Controller</text><rect fill="#E2E2F0" height="32.6211" rx="2.5" ry="2.5" style="stroke:#181818;stroke-width:0.5;" width="76" x="321" y="549.2773"/><text fill="#000000" font-family="sans-serif" font-size="14" lengthAdjust="spacing" textLength="62" x="328" y="571.3848">Controller</text><rect fill="#E2E2F0" height="32.6211" rx="2.5" ry="2.5" style="stroke:#181818;stroke-width:0.5;" width="61" x="638.5" y="27.291"/><text fill="#000000" font-family="sans-serif" font-size="14" lengthAdjust="spacing" textLength="47" x="645.5" y="49.3984">Service</text><rect fill="#E2E2F0" height="32.6211" rx="2.5" ry="2.5" style="stroke:#181818;stroke-width:0.5;" width="61" x="638.5" y="549.2773"/><text fill="#000000" font-family="sans-serif" font-size="14" lengthAdjust="spacing" textLength="47" x="645.5" y="571.3848">Service</text><rect fill="#E2E2F0" height="32.6211" rx="2.5" ry="2.5" style="stroke:#181818;stroke-width:0.5;" width="82" x="745" y="27.291"/><text fill="#000000" font-family="sans-serif" font-size="14" lengthAdjust="spacing" textLength="68" x="752" y="49.3984">Repository</text><rect fill="#E2E2F0" height="32.6211" rx="2.5" ry="2.5" style="stroke:#181818;stroke-width:0.5;" width="82" x="745" y="549.2773"/><text fill="#000000" font-family="sans-serif" font-size="14" lengthAdjust="spacing" textLength="68" x="752" y="571.3848">Repository</text><rect fill="#E2E2F0" height="32.6211" rx="2.5" ry="2.5" style="stroke:#181818;stroke-width:0.5;" width="62" x="837" y="27.291"/><text fill="#000000" font-family="sans-serif" font-size="14" lengthAdjust="spacing" textLength="48" x="844" y="49.3984">Domain</text><rect fill="#E2E2F0" height="32.6211" rx="2.5" ry="2.5" style="stroke:#181818;stroke-width:0.5;" width="62" x="837" y="549.2773"/><text fill="#000000" font-family="sans-serif" font-size="14" lengthAdjust="spacing" textLength="48" x="844" y="571.3848">Domain</text><rect fill="#E2E2F0" height="32.6211" rx="2.5" ry="2.5" style="stroke:#181818;stroke-width:0.5;" width="18" x="909" y="27.291"/><text fill="#000000" font-family="sans-serif" font-size="14" lengthAdjust="spacing" textLength="4" x="916" y="49.3984">&#160;</text><rect fill="#E2E2F0" height="32.6211" rx="2.5" ry="2.5" style="stroke:#181818;stroke-width:0.5;" width="18" x="909" y="549.2773"/><text fill="#000000" font-family="sans-serif" font-size="14" lengthAdjust="spacing" textLength="4" x="916" y="571.3848">&#160;</text><rect fill="#FFFFFF" height="438.0742" style="stroke:#181818;stroke-width:1.0;" width="10" x="150" y="94.2031"/><rect fill="#FFFFFF" height="375.4922" style="stroke:#181818;stroke-width:1.0;" width="10" x="354" y="125.4941"/><rect fill="#FFFFFF" height="125.1641" style="stroke:#181818;stroke-width:1.0;" width="10" x="664" y="344.5313"/><rect fill="#FFFFFF" height="62.582" style="stroke:#181818;stroke-width:1.0;" width="10" x="781" y="375.8223"/><rect fill="#FFFFFF" height="31.291" style="stroke:#181818;stroke-width:1.0;" width="10" x="863" y="156.7852"/><rect fill="#FFFFFF" height="31.291" style="stroke:#181818;stroke-width:1.0;" width="10" x="863" y="219.3672"/><rect fill="#FFFFFF" height="31.291" style="stroke:#181818;stroke-width:1.0;" width="10" x="863" y="281.9492"/><polygon fill="#181818" points="138,90.2031,148,94.2031,138,98.2031,142,94.2031" style="stroke:#181818;stroke-width:1.0;"/><line style="stroke:#181818;stroke-width:1.0;" x1="14" x2="144" y1="94.2031" y2="94.2031"/><text fill="#000000" font-family="sans-serif" font-size="13" font-weight="bold" lengthAdjust="spacing" textLength="7" x="21" y="88.9404">1</text><text fill="#000000" font-family="sans-serif" font-size="13" lengthAdjust="spacing" textLength="79" x="32" y="88.9404">POST /device</text><polygon fill="#181818" points="342,121.4941,352,125.4941,342,129.4941,346,125.4941" style="stroke:#181818;stroke-width:1.0;"/><line style="stroke:#181818;stroke-width:1.0;" x1="160" x2="348" y1="125.4941" y2="125.4941"/><text fill="#000000" font-family="sans-serif" font-size="13" font-weight="bold" lengthAdjust="spacing" textLength="7" x="167" y="120.2314">2</text><text fill="#000000" font-family="sans-serif" font-size="13" lengthAdjust="spacing" textLength="164" x="178" y="120.2314">addDevice (deviceEntryDTO)</text><polygon fill="#181818" points="851,152.7852,861,156.7852,851,160.7852,855,156.7852" style="stroke:#181818;stroke-width:1.0;"/><line style="stroke:#181818;stroke-width:1.0;" x1="364" x2="857" y1="156.7852" y2="156.7852"/><text fill="#000000" font-family="sans-serif" font-size="13" font-weight="bold" lengthAdjust="spacing" textLength="7" x="371" y="151.5225">3</text><text fill="#000000" font-family="sans-serif" font-size="13" lengthAdjust="spacing" textLength="81" x="382" y="151.5225">RoomID(idStr)</text><polygon fill="#181818" points="375,184.0762,365,188.0762,375,192.0762,371,188.0762" style="stroke:#181818;stroke-width:1.0;"/><line style="stroke:#181818;stroke-width:1.0;stroke-dasharray:2.0,2.0;" x1="369" x2="867" y1="188.0762" y2="188.0762"/><text fill="#000000" font-family="sans-serif" font-size="13" font-weight="bold" lengthAdjust="spacing" textLength="7" x="381" y="182.8135">4</text><text fill="#000000" font-family="sans-serif" font-size="13" lengthAdjust="spacing" textLength="41" x="392" y="182.8135">roomID</text><polygon fill="#181818" points="851,215.3672,861,219.3672,851,223.3672,855,219.3672" style="stroke:#181818;stroke-width:1.0;"/><line style="stroke:#181818;stroke-width:1.0;" x1="364" x2="857" y1="219.3672" y2="219.3672"/><text fill="#000000" font-family="sans-serif" font-size="13" font-weight="bold" lengthAdjust="spacing" textLength="7" x="371" y="214.1045">5</text><text fill="#000000" font-family="sans-serif" font-size="13" lengthAdjust="spacing" textLength="129" x="382" y="214.1045">DeviceName(strName)</text><polygon fill="#181818" points="375,246.6582,365,250.6582,375,254.6582,371,250.6582" style="stroke:#181818;stroke-width:1.0;"/><line style="stroke:#181818;stroke-width:1.0;stroke-dasharray:2.0,2.0;" x1="369" x2="867" y1="250.6582" y2="250.6582"/><text fill="#000000" font-family="sans-serif" font-size="13" font-weight="bold" lengthAdjust="spacing" textLength="7" x="381" y="245.3955">6</text><text fill="#000000" font-family="sans-serif" font-size="13" lengthAdjust="spacing" textLength="70" x="392" y="245.3955">deviceName</text><polygon fill="#181818" points="851,277.9492,861,281.9492,851,285.9492,855,281.9492" style="stroke:#181818;stroke-width:1.0;"/><line style="stroke:#181818;stroke-width:1.0;" x1="364" x2="857" y1="281.9492" y2="281.9492"/><text fill="#000000" font-family="sans-serif" font-size="13" font-weight="bold" lengthAdjust="spacing" textLength="7" x="371" y="276.6865">7</text><text fill="#000000" font-family="sans-serif" font-size="13" lengthAdjust="spacing" textLength="113" x="382" y="276.6865">DeviceTypeID(idStr)</text><polygon fill="#181818" points="375,309.2402,365,313.2402,375,317.2402,371,313.2402" style="stroke:#181818;stroke-width:1.0;"/><line style="stroke:#181818;stroke-width:1.0;stroke-dasharray:2.0,2.0;" x1="369" x2="867" y1="313.2402" y2="313.2402"/><text fill="#000000" font-family="sans-serif" font-size="13" font-weight="bold" lengthAdjust="spacing" textLength="7" x="381" y="307.9775">8</text><text fill="#000000" font-family="sans-serif" font-size="13" lengthAdjust="spacing" textLength="76" x="392" y="307.9775">deviceTypeID</text><polygon fill="#181818" points="652,340.5313,662,344.5313,652,348.5313,656,344.5313" style="stroke:#181818;stroke-width:1.0;"/><line style="stroke:#181818;stroke-width:1.0;" x1="364" x2="658" y1="344.5313" y2="344.5313"/><text fill="#000000" font-family="sans-serif" font-size="13" font-weight="bold" lengthAdjust="spacing" textLength="7" x="371" y="339.2686">9</text><text fill="#000000" font-family="sans-serif" font-size="13" lengthAdjust="spacing" textLength="270" x="382" y="339.2686">addDevice(roomID, deviceName, deviceTypeID)</text><polygon fill="#181818" points="769,371.8223,779,375.8223,769,379.8223,773,375.8223" style="stroke:#181818;stroke-width:1.0;"/><line style="stroke:#181818;stroke-width:1.0;" x1="674" x2="775" y1="375.8223" y2="375.8223"/><text fill="#000000" font-family="sans-serif" font-size="13" font-weight="bold" lengthAdjust="spacing" textLength="14" x="681" y="370.5596">10</text><text fill="#000000" font-family="sans-serif" font-size="13" lengthAdjust="spacing" textLength="70" x="699" y="370.5596">save(device)</text><ellipse cx="917.5" cy="406.3633" fill="none" rx="4" ry="4" style="stroke:#181818;stroke-width:1.5;"/><polygon fill="#181818" points="900.5,403.1133,910.5,407.1133,900.5,411.1133,904.5,407.1133" style="stroke:#181818;stroke-width:1.0;"/><line style="stroke:#181818;stroke-width:1.0;" x1="791" x2="906.5" y1="407.1133" y2="407.1133"/><text fill="#000000" font-family="sans-serif" font-size="13" font-weight="bold" lengthAdjust="spacing" textLength="14" x="798" y="401.8506">11</text><text fill="#000000" font-family="sans-serif" font-size="13" lengthAdjust="spacing" textLength="26" x="816" y="401.8506">save</text><polygon fill="#181818" points="685,434.4043,675,438.4043,685,442.4043,681,438.4043" style="stroke:#181818;stroke-width:1.0;"/><line style="stroke:#181818;stroke-width:1.0;stroke-dasharray:2.0,2.0;" x1="679" x2="785" y1="438.4043" y2="438.4043"/><text fill="#000000" font-family="sans-serif" font-size="13" font-weight="bold" lengthAdjust="spacing" textLength="14" x="691" y="433.1416">12</text><text fill="#000000" font-family="sans-serif" font-size="13" lengthAdjust="spacing" textLength="36" x="709" y="433.1416">device</text><polygon fill="#181818" points="375,465.6953,365,469.6953,375,473.6953,371,469.6953" style="stroke:#181818;stroke-width:1.0;"/><line style="stroke:#181818;stroke-width:1.0;stroke-dasharray:2.0,2.0;" x1="369" x2="668" y1="469.6953" y2="469.6953"/><text fill="#000000" font-family="sans-serif" font-size="13" font-weight="bold" lengthAdjust="spacing" textLength="14" x="381" y="464.4326">13</text><text fill="#000000" font-family="sans-serif" font-size="13" lengthAdjust="spacing" textLength="36" x="399" y="464.4326">device</text><polygon fill="#181818" points="171,496.9863,161,500.9863,171,504.9863,167,500.9863" style="stroke:#181818;stroke-width:1.0;"/><line style="stroke:#181818;stroke-width:1.0;stroke-dasharray:2.0,2.0;" x1="165" x2="358" y1="500.9863" y2="500.9863"/><text fill="#000000" font-family="sans-serif" font-size="13" font-weight="bold" lengthAdjust="spacing" textLength="14" x="177" y="495.7236">14</text><text fill="#000000" font-family="sans-serif" font-size="13" lengthAdjust="spacing" textLength="62" x="195" y="495.7236">deviceDTO</text><polygon fill="#181818" points="25,528.2773,15,532.2773,25,536.2773,21,532.2773" style="stroke:#181818;stroke-width:1.0;"/><line style="stroke:#181818;stroke-width:1.0;stroke-dasharray:2.0,2.0;" x1="19" x2="154" y1="532.2773" y2="532.2773"/><text fill="#000000" font-family="sans-serif" font-size="13" font-weight="bold" lengthAdjust="spacing" textLength="14" x="31" y="527.0146">15</text><text fill="#000000" font-family="sans-serif" font-size="13" lengthAdjust="spacing" textLength="94" x="49" y="527.0146">JSON Status ok</text><!--SRC=[ZP8nJyCm48Nt-nMc2qLgwDwX0wGI86Yg97I_nbQnYEFWE1NzzvpjGfqMK9CXalFTk_TyT_rcRTlDfjEsniRsghwjj9fsugCNJIKIBd5hKC5LQt2haDMurxrbdH8M6mJ0tkgcLnjX05eqLbQo9HqseXSxzb2MAu2D_cIZGfYTCACXbPEORBQUpRFN4XWz0-9UDzRekgPI1zsN-VCvvBHb9JnHhC__vwBLdRJQx4EdnIexXrAjK3OUIBCN40rdPFotL7SfW4l6ahbtpMPibHKbctBXR01MLkxGYX09F4AeyqueSfvwZeq3lw24-xJCRew5FYRu0YeaErINQwqUqx7aXJKHwhmw83bsC9u4BWRGYLpmi4Gbnfqrxlk_AF_XBn8kzwsup2sF-3-bYtLyS-EGS1APcWnqeewq3q3LRbGqTbBfS2SEDnzXVYSyaSmrJVW00XmElpqSHXpvz9M-nMccc78sGfZZqWIA9X-3OVHXPmZrUpPZJqMsP8L5stTClm_Q-ntx0W00]--></g></svg>