<?xml version="1.0" encoding="us-ascii" standalone="no"?><svg xmlns="http://www.w3.org/2000/svg" xmlns:xlink="http://www.w3.org/1999/xlink" contentStyleType="text/css" height="1129px" preserveAspectRatio="none" style="width:2482px;height:1129px;background:#FFFFFF;" version="1.1" viewBox="0 0 2482 1129" width="2482px" zoomAndPan="magnify"><defs/><g><rect fill="#DDDDDD" height="1117.9727" style="stroke:#181818;stroke-width:0.5;" width="1726" x="750.5" y="6"/><text fill="#000000" font-family="sans-serif" font-size="13" font-weight="bold" lengthAdjust="spacing" textLength="128" x="1549.5" y="20.0283">Power Consumption</text><rect fill="#FFFFFF" height="907.4395" style="stroke:#181818;stroke-width:1.0;" width="10" x="469.5" y="116.9121"/><rect fill="#FFFFFF" height="844.8574" style="stroke:#181818;stroke-width:1.0;" width="10" x="787.5" y="148.2031"/><rect fill="#FFFFFF" height="156.4551" style="stroke:#181818;stroke-width:1.0;" width="10" x="1411.5" y="179.4941"/><rect fill="#FFFFFF" height="156.4551" style="stroke:#181818;stroke-width:1.0;" width="10" x="1411.5" y="367.2402"/><rect fill="#FFFFFF" height="156.4551" style="stroke:#181818;stroke-width:1.0;" width="10" x="1411.5" y="554.9863"/><rect fill="#FFFFFF" height="156.4551" style="stroke:#181818;stroke-width:1.0;" width="10" x="1411.5" y="742.7324"/><rect fill="#FFFFFF" height="31.291" style="stroke:#181818;stroke-width:1.0;" width="10" x="1411.5" y="930.4785"/><rect fill="#FFFFFF" height="93.873" style="stroke:#181818;stroke-width:1.0;" width="10" x="2067.5" y="210.7852"/><rect fill="#FFFFFF" height="93.873" style="stroke:#181818;stroke-width:1.0;" width="10" x="2067.5" y="398.5313"/><rect fill="#FFFFFF" height="93.873" style="stroke:#181818;stroke-width:1.0;" width="10" x="2067.5" y="586.2773"/><rect fill="#FFFFFF" height="93.873" style="stroke:#181818;stroke-width:1.0;" width="10" x="2067.5" y="774.0234"/><rect fill="#FFFFFF" height="31.291" style="stroke:#181818;stroke-width:1.0;" width="10" x="2429.5" y="242.0762"/><rect fill="#FFFFFF" height="31.291" style="stroke:#181818;stroke-width:1.0;" width="10" x="2429.5" y="429.8223"/><rect fill="#FFFFFF" height="31.291" style="stroke:#181818;stroke-width:1.0;" width="10" x="2429.5" y="617.5684"/><rect fill="#FFFFFF" height="31.291" style="stroke:#181818;stroke-width:1.0;" width="10" x="2429.5" y="805.3145"/><line style="stroke:#181818;stroke-width:0.5;stroke-dasharray:5.0,5.0;" x1="22" x2="22" y1="83.6211" y2="1042.3516"/><line style="stroke:#181818;stroke-width:0.5;stroke-dasharray:5.0,5.0;" x1="474" x2="474" y1="83.6211" y2="1042.3516"/><line style="stroke:#181818;stroke-width:0.5;stroke-dasharray:5.0,5.0;" x1="792.5" x2="792.5" y1="83.6211" y2="1042.3516"/><line style="stroke:#181818;stroke-width:0.5;stroke-dasharray:5.0,5.0;" x1="1416" x2="1416" y1="83.6211" y2="1042.3516"/><line style="stroke:#181818;stroke-width:0.5;stroke-dasharray:5.0,5.0;" x1="2072.5" x2="2072.5" y1="83.6211" y2="1042.3516"/><line style="stroke:#181818;stroke-width:0.5;stroke-dasharray:5.0,5.0;" x1="2434.5" x2="2434.5" y1="83.6211" y2="1042.3516"/><text fill="#000000" font-family="sans-serif" font-size="14" lengthAdjust="spacing" textLength="29" x="5" y="80.1074">User</text><ellipse cx="22.5" cy="13.5" fill="#E2E2F0" rx="8" ry="8" style="stroke:#181818;stroke-width:0.5;"/><path d="M22.5,21.5 L22.5,48.5 M9.5,29.5 L35.5,29.5 M22.5,48.5 L9.5,63.5 M22.5,48.5 L35.5,63.5 " fill="none" style="stroke:#181818;stroke-width:0.5;"/><text fill="#000000" font-family="sans-serif" font-size="14" lengthAdjust="spacing" textLength="29" x="5" y="1056.459">User</text><ellipse cx="22.5" cy="1068.4727" fill="#E2E2F0" rx="8" ry="8" style="stroke:#181818;stroke-width:0.5;"/><path d="M22.5,1076.4727 L22.5,1103.4727 M9.5,1084.4727 L35.5,1084.4727 M22.5,1103.4727 L9.5,1118.4727 M22.5,1103.4727 L35.5,1118.4727 " fill="none" style="stroke:#181818;stroke-width:0.5;"/><rect fill="#E2E2F0" height="32.6211" rx="2.5" ry="2.5" style="stroke:#181818;stroke-width:0.5;" width="79" x="435" y="50"/><text fill="#000000" font-family="sans-serif" font-size="14" lengthAdjust="spacing" textLength="65" x="442" y="72.1074">RestClient</text><rect fill="#E2E2F0" height="32.6211" rx="2.5" ry="2.5" style="stroke:#181818;stroke-width:0.5;" width="79" x="435" y="1041.3516"/><text fill="#000000" font-family="sans-serif" font-size="14" lengthAdjust="spacing" textLength="65" x="442" y="1063.459">RestClient</text><rect fill="#E2E2F0" height="32.6211" rx="2.5" ry="2.5" style="stroke:#181818;stroke-width:0.5;" width="76" x="754.5" y="50"/><text fill="#000000" font-family="sans-serif" font-size="14" lengthAdjust="spacing" textLength="62" x="761.5" y="72.1074">Controller</text><rect fill="#E2E2F0" height="32.6211" rx="2.5" ry="2.5" style="stroke:#181818;stroke-width:0.5;" width="76" x="754.5" y="1041.3516"/><text fill="#000000" font-family="sans-serif" font-size="14" lengthAdjust="spacing" textLength="62" x="761.5" y="1063.459">Controller</text><rect fill="#E2E2F0" height="32.6211" rx="2.5" ry="2.5" style="stroke:#181818;stroke-width:0.5;" width="61" x="1386" y="50"/><text fill="#000000" font-family="sans-serif" font-size="14" lengthAdjust="spacing" textLength="47" x="1393" y="72.1074">Service</text><rect fill="#E2E2F0" height="32.6211" rx="2.5" ry="2.5" style="stroke:#181818;stroke-width:0.5;" width="61" x="1386" y="1041.3516"/><text fill="#000000" font-family="sans-serif" font-size="14" lengthAdjust="spacing" textLength="47" x="1393" y="1063.459">Service</text><rect fill="#E2E2F0" height="32.6211" rx="2.5" ry="2.5" style="stroke:#181818;stroke-width:0.5;" width="82" x="2031.5" y="50"/><text fill="#000000" font-family="sans-serif" font-size="14" lengthAdjust="spacing" textLength="68" x="2038.5" y="72.1074">Repository</text><rect fill="#E2E2F0" height="32.6211" rx="2.5" ry="2.5" style="stroke:#181818;stroke-width:0.5;" width="82" x="2031.5" y="1041.3516"/><text fill="#000000" font-family="sans-serif" font-size="14" lengthAdjust="spacing" textLength="68" x="2038.5" y="1063.459">Repository</text><rect fill="#E2E2F0" height="32.6211" rx="2.5" ry="2.5" style="stroke:#181818;stroke-width:0.5;" width="76" x="2396.5" y="50"/><text fill="#000000" font-family="sans-serif" font-size="14" lengthAdjust="spacing" textLength="62" x="2403.5" y="72.1074">DataBase</text><rect fill="#E2E2F0" height="32.6211" rx="2.5" ry="2.5" style="stroke:#181818;stroke-width:0.5;" width="76" x="2396.5" y="1041.3516"/><text fill="#000000" font-family="sans-serif" font-size="14" lengthAdjust="spacing" textLength="62" x="2403.5" y="1063.459">DataBase</text><rect fill="#FFFFFF" height="907.4395" style="stroke:#181818;stroke-width:1.0;" width="10" x="469.5" y="116.9121"/><rect fill="#FFFFFF" height="844.8574" style="stroke:#181818;stroke-width:1.0;" width="10" x="787.5" y="148.2031"/><rect fill="#FFFFFF" height="156.4551" style="stroke:#181818;stroke-width:1.0;" width="10" x="1411.5" y="179.4941"/><rect fill="#FFFFFF" height="156.4551" style="stroke:#181818;stroke-width:1.0;" width="10" x="1411.5" y="367.2402"/><rect fill="#FFFFFF" height="156.4551" style="stroke:#181818;stroke-width:1.0;" width="10" x="1411.5" y="554.9863"/><rect fill="#FFFFFF" height="156.4551" style="stroke:#181818;stroke-width:1.0;" width="10" x="1411.5" y="742.7324"/><rect fill="#FFFFFF" height="31.291" style="stroke:#181818;stroke-width:1.0;" width="10" x="1411.5" y="930.4785"/><rect fill="#FFFFFF" height="93.873" style="stroke:#181818;stroke-width:1.0;" width="10" x="2067.5" y="210.7852"/><rect fill="#FFFFFF" height="93.873" style="stroke:#181818;stroke-width:1.0;" width="10" x="2067.5" y="398.5313"/><rect fill="#FFFFFF" height="93.873" style="stroke:#181818;stroke-width:1.0;" width="10" x="2067.5" y="586.2773"/><rect fill="#FFFFFF" height="93.873" style="stroke:#181818;stroke-width:1.0;" width="10" x="2067.5" y="774.0234"/><rect fill="#FFFFFF" height="31.291" style="stroke:#181818;stroke-width:1.0;" width="10" x="2429.5" y="242.0762"/><rect fill="#FFFFFF" height="31.291" style="stroke:#181818;stroke-width:1.0;" width="10" x="2429.5" y="429.8223"/><rect fill="#FFFFFF" height="31.291" style="stroke:#181818;stroke-width:1.0;" width="10" x="2429.5" y="617.5684"/><rect fill="#FFFFFF" height="31.291" style="stroke:#181818;stroke-width:1.0;" width="10" x="2429.5" y="805.3145"/><polygon fill="#181818" points="457.5,112.9121,467.5,116.9121,457.5,120.9121,461.5,116.9121" style="stroke:#181818;stroke-width:1.0;"/><line style="stroke:#181818;stroke-width:1.0;" x1="22.5" x2="463.5" y1="116.9121" y2="116.9121"/><text fill="#000000" font-family="sans-serif" font-size="13" font-weight="bold" lengthAdjust="spacing" textLength="7" x="29.5" y="111.6494">1</text><text fill="#000000" font-family="sans-serif" font-size="13" lengthAdjust="spacing" textLength="417" x="40.5" y="111.6494">I want to get the peak power consumption of the house, in a given period</text><polygon fill="#181818" points="775.5,144.2031,785.5,148.2031,775.5,152.2031,779.5,148.2031" style="stroke:#181818;stroke-width:1.0;"/><line style="stroke:#181818;stroke-width:1.0;" x1="479.5" x2="781.5" y1="148.2031" y2="148.2031"/><text fill="#000000" font-family="sans-serif" font-size="13" font-weight="bold" lengthAdjust="spacing" textLength="7" x="486.5" y="142.9404">2</text><text fill="#000000" font-family="sans-serif" font-size="13" lengthAdjust="spacing" textLength="278" x="497.5" y="142.9404">getMaxPowerConsumption(initialTime, endTime)</text><polygon fill="#181818" points="1399.5,175.4941,1409.5,179.4941,1399.5,183.4941,1403.5,179.4941" style="stroke:#181818;stroke-width:1.0;"/><line style="stroke:#181818;stroke-width:1.0;" x1="797.5" x2="1405.5" y1="179.4941" y2="179.4941"/><text fill="#000000" font-family="sans-serif" font-size="13" font-weight="bold" lengthAdjust="spacing" textLength="7" x="804.5" y="174.2314">3</text><text fill="#000000" font-family="sans-serif" font-size="13" lengthAdjust="spacing" textLength="272" x="815.5" y="174.2314">getDevicesByDeviceTypeID(powerMeterTypeID)</text><polygon fill="#181818" points="2055.5,206.7852,2065.5,210.7852,2055.5,214.7852,2059.5,210.7852" style="stroke:#181818;stroke-width:1.0;"/><line style="stroke:#181818;stroke-width:1.0;" x1="1421.5" x2="2061.5" y1="210.7852" y2="210.7852"/><text fill="#000000" font-family="sans-serif" font-size="13" font-weight="bold" lengthAdjust="spacing" textLength="7" x="1428.5" y="205.5225">4</text><text fill="#000000" font-family="sans-serif" font-size="13" lengthAdjust="spacing" textLength="272" x="1439.5" y="205.5225">getDevicesByDeviceTypeID(powerMeterTypeID)</text><polygon fill="#181818" points="2417.5,238.0762,2427.5,242.0762,2417.5,246.0762,2421.5,242.0762" style="stroke:#181818;stroke-width:1.0;"/><line style="stroke:#181818;stroke-width:1.0;" x1="2077.5" x2="2423.5" y1="242.0762" y2="242.0762"/><text fill="#000000" font-family="sans-serif" font-size="13" font-weight="bold" lengthAdjust="spacing" textLength="7" x="2084.5" y="236.8135">5</text><text fill="#000000" font-family="sans-serif" font-size="13" lengthAdjust="spacing" textLength="114" x="2095.5" y="236.8135">findByDeviceTypeID</text><polygon fill="#181818" points="2088.5,269.3672,2078.5,273.3672,2088.5,277.3672,2084.5,273.3672" style="stroke:#181818;stroke-width:1.0;"/><line style="stroke:#181818;stroke-width:1.0;stroke-dasharray:2.0,2.0;" x1="2082.5" x2="2433.5" y1="273.3672" y2="273.3672"/><text fill="#000000" font-family="sans-serif" font-size="13" font-weight="bold" lengthAdjust="spacing" textLength="7" x="2094.5" y="268.1045">6</text><text fill="#000000" font-family="sans-serif" font-size="13" lengthAdjust="spacing" textLength="57" x="2105.5" y="268.1045">deviceList</text><polygon fill="#181818" points="1432.5,300.6582,1422.5,304.6582,1432.5,308.6582,1428.5,304.6582" style="stroke:#181818;stroke-width:1.0;"/><line style="stroke:#181818;stroke-width:1.0;stroke-dasharray:2.0,2.0;" x1="1426.5" x2="2071.5" y1="304.6582" y2="304.6582"/><text fill="#000000" font-family="sans-serif" font-size="13" font-weight="bold" lengthAdjust="spacing" textLength="7" x="1438.5" y="299.3955">7</text><text fill="#000000" font-family="sans-serif" font-size="13" lengthAdjust="spacing" textLength="57" x="1449.5" y="299.3955">deviceList</text><polygon fill="#181818" points="808.5,331.9492,798.5,335.9492,808.5,339.9492,804.5,335.9492" style="stroke:#181818;stroke-width:1.0;"/><line style="stroke:#181818;stroke-width:1.0;" x1="802.5" x2="1415.5" y1="335.9492" y2="335.9492"/><text fill="#000000" font-family="sans-serif" font-size="13" font-weight="bold" lengthAdjust="spacing" textLength="7" x="814.5" y="330.6865">8</text><text fill="#000000" font-family="sans-serif" font-size="13" lengthAdjust="spacing" textLength="57" x="825.5" y="330.6865">deviceList</text><polygon fill="#181818" points="1399.5,363.2402,1409.5,367.2402,1399.5,371.2402,1403.5,367.2402" style="stroke:#181818;stroke-width:1.0;"/><line style="stroke:#181818;stroke-width:1.0;" x1="797.5" x2="1405.5" y1="367.2402" y2="367.2402"/><text fill="#000000" font-family="sans-serif" font-size="13" font-weight="bold" lengthAdjust="spacing" textLength="7" x="804.5" y="361.9775">9</text><text fill="#000000" font-family="sans-serif" font-size="13" lengthAdjust="spacing" textLength="268" x="815.5" y="361.9775">getDevicesByDeviceType(powerSourceTypeID)</text><polygon fill="#181818" points="2055.5,394.5313,2065.5,398.5313,2055.5,402.5313,2059.5,398.5313" style="stroke:#181818;stroke-width:1.0;"/><line style="stroke:#181818;stroke-width:1.0;" x1="1421.5" x2="2061.5" y1="398.5313" y2="398.5313"/><text fill="#000000" font-family="sans-serif" font-size="13" font-weight="bold" lengthAdjust="spacing" textLength="14" x="1428.5" y="393.2686">10</text><text fill="#000000" font-family="sans-serif" font-size="13" lengthAdjust="spacing" textLength="268" x="1446.5" y="393.2686">getDevicesByDeviceType(powerSourceTypeID)</text><polygon fill="#181818" points="2417.5,425.8223,2427.5,429.8223,2417.5,433.8223,2421.5,429.8223" style="stroke:#181818;stroke-width:1.0;"/><line style="stroke:#181818;stroke-width:1.0;" x1="2077.5" x2="2423.5" y1="429.8223" y2="429.8223"/><text fill="#000000" font-family="sans-serif" font-size="13" font-weight="bold" lengthAdjust="spacing" textLength="14" x="2084.5" y="424.5596">11</text><text fill="#000000" font-family="sans-serif" font-size="13" lengthAdjust="spacing" textLength="114" x="2102.5" y="424.5596">findByDeviceTypeID</text><polygon fill="#181818" points="2088.5,457.1133,2078.5,461.1133,2088.5,465.1133,2084.5,461.1133" style="stroke:#181818;stroke-width:1.0;"/><line style="stroke:#181818;stroke-width:1.0;stroke-dasharray:2.0,2.0;" x1="2082.5" x2="2433.5" y1="461.1133" y2="461.1133"/><text fill="#000000" font-family="sans-serif" font-size="13" font-weight="bold" lengthAdjust="spacing" textLength="14" x="2094.5" y="455.8506">12</text><text fill="#000000" font-family="sans-serif" font-size="13" lengthAdjust="spacing" textLength="57" x="2112.5" y="455.8506">deviceList</text><polygon fill="#181818" points="1432.5,488.4043,1422.5,492.4043,1432.5,496.4043,1428.5,492.4043" style="stroke:#181818;stroke-width:1.0;"/><line style="stroke:#181818;stroke-width:1.0;stroke-dasharray:2.0,2.0;" x1="1426.5" x2="2071.5" y1="492.4043" y2="492.4043"/><text fill="#000000" font-family="sans-serif" font-size="13" font-weight="bold" lengthAdjust="spacing" textLength="14" x="1438.5" y="487.1416">13</text><text fill="#000000" font-family="sans-serif" font-size="13" lengthAdjust="spacing" textLength="57" x="1456.5" y="487.1416">deviceList</text><polygon fill="#181818" points="808.5,519.6953,798.5,523.6953,808.5,527.6953,804.5,523.6953" style="stroke:#181818;stroke-width:1.0;"/><line style="stroke:#181818;stroke-width:1.0;" x1="802.5" x2="1415.5" y1="523.6953" y2="523.6953"/><text fill="#000000" font-family="sans-serif" font-size="13" font-weight="bold" lengthAdjust="spacing" textLength="14" x="814.5" y="518.4326">14</text><text fill="#000000" font-family="sans-serif" font-size="13" lengthAdjust="spacing" textLength="57" x="832.5" y="518.4326">deviceList</text><polygon fill="#181818" points="1399.5,550.9863,1409.5,554.9863,1399.5,558.9863,1403.5,554.9863" style="stroke:#181818;stroke-width:1.0;"/><line style="stroke:#181818;stroke-width:1.0;" x1="797.5" x2="1405.5" y1="554.9863" y2="554.9863"/><text fill="#000000" font-family="sans-serif" font-size="13" font-weight="bold" lengthAdjust="spacing" textLength="14" x="804.5" y="549.7236">15</text><text fill="#000000" font-family="sans-serif" font-size="13" lengthAdjust="spacing" textLength="569" x="822.5" y="549.7236">getDeviceReadingsBySensorTypeAndTimePeriod (powerMeterDeviceID, sensorTypeID, datePeriod)</text><polygon fill="#181818" points="2055.5,582.2773,2065.5,586.2773,2055.5,590.2773,2059.5,586.2773" style="stroke:#181818;stroke-width:1.0;"/><line style="stroke:#181818;stroke-width:1.0;" x1="1421.5" x2="2061.5" y1="586.2773" y2="586.2773"/><text fill="#000000" font-family="sans-serif" font-size="13" font-weight="bold" lengthAdjust="spacing" textLength="14" x="1428.5" y="581.0146">16</text><text fill="#000000" font-family="sans-serif" font-size="13" lengthAdjust="spacing" textLength="601" x="1446.5" y="581.0146">findByDeviceIDAndSensorTypeAndDatePeriodBetween (powerMeterDeviceID, sensorTypeID, datePeriod)</text><polygon fill="#181818" points="2417.5,613.5684,2427.5,617.5684,2417.5,621.5684,2421.5,617.5684" style="stroke:#181818;stroke-width:1.0;"/><line style="stroke:#181818;stroke-width:1.0;" x1="2077.5" x2="2423.5" y1="617.5684" y2="617.5684"/><text fill="#000000" font-family="sans-serif" font-size="13" font-weight="bold" lengthAdjust="spacing" textLength="14" x="2084.5" y="612.3057">17</text><text fill="#000000" font-family="sans-serif" font-size="13" lengthAdjust="spacing" textLength="114" x="2102.5" y="612.3057">findByDeviceTypeID</text><polygon fill="#181818" points="2088.5,644.8594,2078.5,648.8594,2088.5,652.8594,2084.5,648.8594" style="stroke:#181818;stroke-width:1.0;"/><line style="stroke:#181818;stroke-width:1.0;stroke-dasharray:2.0,2.0;" x1="2082.5" x2="2433.5" y1="648.8594" y2="648.8594"/><text fill="#000000" font-family="sans-serif" font-size="13" font-weight="bold" lengthAdjust="spacing" textLength="14" x="2094.5" y="643.5967">18</text><text fill="#000000" font-family="sans-serif" font-size="13" lengthAdjust="spacing" textLength="70" x="2112.5" y="643.5967">readingsList</text><polygon fill="#181818" points="1432.5,676.1504,1422.5,680.1504,1432.5,684.1504,1428.5,680.1504" style="stroke:#181818;stroke-width:1.0;"/><line style="stroke:#181818;stroke-width:1.0;stroke-dasharray:2.0,2.0;" x1="1426.5" x2="2071.5" y1="680.1504" y2="680.1504"/><text fill="#000000" font-family="sans-serif" font-size="13" font-weight="bold" lengthAdjust="spacing" textLength="14" x="1438.5" y="674.8877">19</text><text fill="#000000" font-family="sans-serif" font-size="13" lengthAdjust="spacing" textLength="121" x="1456.5" y="674.8877">powerMeterReadings</text><polygon fill="#181818" points="808.5,707.4414,798.5,711.4414,808.5,715.4414,804.5,711.4414" style="stroke:#181818;stroke-width:1.0;"/><line style="stroke:#181818;stroke-width:1.0;stroke-dasharray:2.0,2.0;" x1="802.5" x2="1415.5" y1="711.4414" y2="711.4414"/><text fill="#000000" font-family="sans-serif" font-size="13" font-weight="bold" lengthAdjust="spacing" textLength="14" x="814.5" y="706.1787">20</text><text fill="#000000" font-family="sans-serif" font-size="13" lengthAdjust="spacing" textLength="121" x="832.5" y="706.1787">powerMeterReadings</text><polygon fill="#181818" points="1399.5,738.7324,1409.5,742.7324,1399.5,746.7324,1403.5,742.7324" style="stroke:#181818;stroke-width:1.0;"/><line style="stroke:#181818;stroke-width:1.0;" x1="797.5" x2="1405.5" y1="742.7324" y2="742.7324"/><text fill="#000000" font-family="sans-serif" font-size="13" font-weight="bold" lengthAdjust="spacing" textLength="14" x="804.5" y="737.4697">21</text><text fill="#000000" font-family="sans-serif" font-size="13" lengthAdjust="spacing" textLength="577" x="822.5" y="737.4697">getDeviceReadingsBySensorTypeAndTimePeriod (powerSourceDeviceID, sensorTypeID, datePeriod)</text><polygon fill="#181818" points="2055.5,770.0234,2065.5,774.0234,2055.5,778.0234,2059.5,774.0234" style="stroke:#181818;stroke-width:1.0;"/><line style="stroke:#181818;stroke-width:1.0;" x1="1421.5" x2="2061.5" y1="774.0234" y2="774.0234"/><text fill="#000000" font-family="sans-serif" font-size="13" font-weight="bold" lengthAdjust="spacing" textLength="14" x="1428.5" y="768.7607">22</text><text fill="#000000" font-family="sans-serif" font-size="13" lengthAdjust="spacing" textLength="609" x="1446.5" y="768.7607">findByDeviceIDAndSensorTypeAndDatePeriodBetween (powerSourceDeviceID, sensorTypeID, datePeriod)</text><polygon fill="#181818" points="2417.5,801.3145,2427.5,805.3145,2417.5,809.3145,2421.5,805.3145" style="stroke:#181818;stroke-width:1.0;"/><line style="stroke:#181818;stroke-width:1.0;" x1="2077.5" x2="2423.5" y1="805.3145" y2="805.3145"/><text fill="#000000" font-family="sans-serif" font-size="13" font-weight="bold" lengthAdjust="spacing" textLength="14" x="2084.5" y="800.0518">23</text><text fill="#000000" font-family="sans-serif" font-size="13" lengthAdjust="spacing" textLength="315" x="2102.5" y="800.0518">findByDeviceIDAndSensorTypeAndDatePeriodBetween</text><polygon fill="#181818" points="2088.5,832.6055,2078.5,836.6055,2088.5,840.6055,2084.5,836.6055" style="stroke:#181818;stroke-width:1.0;"/><line style="stroke:#181818;stroke-width:1.0;stroke-dasharray:2.0,2.0;" x1="2082.5" x2="2433.5" y1="836.6055" y2="836.6055"/><text fill="#000000" font-family="sans-serif" font-size="13" font-weight="bold" lengthAdjust="spacing" textLength="14" x="2094.5" y="831.3428">24</text><text fill="#000000" font-family="sans-serif" font-size="13" lengthAdjust="spacing" textLength="70" x="2112.5" y="831.3428">readingsList</text><polygon fill="#181818" points="1432.5,863.8965,1422.5,867.8965,1432.5,871.8965,1428.5,867.8965" style="stroke:#181818;stroke-width:1.0;"/><line style="stroke:#181818;stroke-width:1.0;stroke-dasharray:2.0,2.0;" x1="1426.5" x2="2071.5" y1="867.8965" y2="867.8965"/><text fill="#000000" font-family="sans-serif" font-size="13" font-weight="bold" lengthAdjust="spacing" textLength="14" x="1438.5" y="862.6338">25</text><text fill="#000000" font-family="sans-serif" font-size="13" lengthAdjust="spacing" textLength="129" x="1456.5" y="862.6338">powerSourceReadings</text><polygon fill="#181818" points="808.5,895.1875,798.5,899.1875,808.5,903.1875,804.5,899.1875" style="stroke:#181818;stroke-width:1.0;"/><line style="stroke:#181818;stroke-width:1.0;stroke-dasharray:2.0,2.0;" x1="802.5" x2="1415.5" y1="899.1875" y2="899.1875"/><text fill="#000000" font-family="sans-serif" font-size="13" font-weight="bold" lengthAdjust="spacing" textLength="14" x="814.5" y="893.9248">26</text><text fill="#000000" font-family="sans-serif" font-size="13" lengthAdjust="spacing" textLength="129" x="832.5" y="893.9248">powerSourceReadings</text><polygon fill="#181818" points="1399.5,926.4785,1409.5,930.4785,1399.5,934.4785,1403.5,930.4785" style="stroke:#181818;stroke-width:1.0;"/><line style="stroke:#181818;stroke-width:1.0;" x1="797.5" x2="1405.5" y1="930.4785" y2="930.4785"/><text fill="#000000" font-family="sans-serif" font-size="13" font-weight="bold" lengthAdjust="spacing" textLength="14" x="804.5" y="925.2158">27</text><text fill="#000000" font-family="sans-serif" font-size="13" lengthAdjust="spacing" textLength="484" x="822.5" y="925.2158">getMaxPowerConsumption(powerMeterReadings, powerSourceReadings, timeDelta)</text><polygon fill="#181818" points="808.5,957.7695,798.5,961.7695,808.5,965.7695,804.5,961.7695" style="stroke:#181818;stroke-width:1.0;"/><line style="stroke:#181818;stroke-width:1.0;stroke-dasharray:2.0,2.0;" x1="802.5" x2="1415.5" y1="961.7695" y2="961.7695"/><text fill="#000000" font-family="sans-serif" font-size="13" font-weight="bold" lengthAdjust="spacing" textLength="14" x="814.5" y="956.5068">28</text><text fill="#000000" font-family="sans-serif" font-size="13" lengthAdjust="spacing" textLength="170" x="832.5" y="956.5068">maxPowerConsumptionValue</text><polygon fill="#181818" points="490.5,989.0605,480.5,993.0605,490.5,997.0605,486.5,993.0605" style="stroke:#181818;stroke-width:1.0;"/><line style="stroke:#181818;stroke-width:1.0;stroke-dasharray:2.0,2.0;" x1="484.5" x2="791.5" y1="993.0605" y2="993.0605"/><text fill="#000000" font-family="sans-serif" font-size="13" font-weight="bold" lengthAdjust="spacing" textLength="14" x="496.5" y="987.7979">29</text><text fill="#000000" font-family="sans-serif" font-size="13" lengthAdjust="spacing" textLength="170" x="514.5" y="987.7979">maxPowerConsumptionValue</text><polygon fill="#181818" points="33.5,1020.3516,23.5,1024.3516,33.5,1028.3516,29.5,1024.3516" style="stroke:#181818;stroke-width:1.0;"/><line style="stroke:#181818;stroke-width:1.0;stroke-dasharray:2.0,2.0;" x1="27.5" x2="473.5" y1="1024.3516" y2="1024.3516"/><text fill="#000000" font-family="sans-serif" font-size="13" font-weight="bold" lengthAdjust="spacing" textLength="14" x="39.5" y="1019.0889">30</text><text fill="#000000" font-family="sans-serif" font-size="13" lengthAdjust="spacing" textLength="170" x="57.5" y="1019.0889">maxPowerConsumptionValue</text><!--SRC=[xLOzRzim4DtvAmvQd09slNieK4UBWGO8uhGx8rrieXAfafGT__iUgI_ASMB9SJFLYqdfxjtTUuy29rjh2xEOpukCIrlcsTT4vNE3VqgK2SvImJUQvupnn2eDqK-3EW9km2rOmRKLYIWe4nxGsDjC82tfTTHj8_QaNY2wLtlKSAkaAVF22YMZNZgzi5fb6SMuz6xR3rkZtea4VKozZexQA9GHrEkXRgFPziDYRlcIcmgesKGCPGhKBOrRMYNB_8c6P6vKc7qB9rm0h63lWAo23TBV5g50_XiAFsRIZGdgsR_TgjBW58G43XknGqdnMgZKCIjst6A0prXGYoftR2nSjJl-ujaCoBmHKbZ1iqUHKn4Qmos-i0wyWs0iu9h0QnezSenkQPQ7Ql5uA70Lt_YPxj2YhXw4k7KsOuqodgY6z0j1Em37H2ieGJTIBU1PoBGF6G0qOOorGizwZP62gK_z8GpHdUA9rB1ooDCRYM7J0HcXTczajXnEPYD-av52LeolLQaRmZwku_kO_sMyZemFo5CXDyJy6gLH_i1yhuxulV-6G72QgfHLF0NJ1hjTIYrMqMDa3-LPnLIqrq7SOYxHxf6-QHStyYbUqJMH5xYbcwjHuxnhZcnp1gALubfsg8xb81d6ElOV-sT4vnSRQ40td-okQkgFsUiTZ07-EdMnUEtQwQbIKx3alnWpow_hfwCfyzSj_k9PYUT7xTtW1WA5jwRmIaPOxbOu42MusFq5]--></g></svg>