<?xml version="1.0" encoding="us-ascii" standalone="no"?><svg xmlns="http://www.w3.org/2000/svg" xmlns:xlink="http://www.w3.org/1999/xlink" contentStyleType="text/css" height="480.2px" preserveAspectRatio="none" style="width:817px;height:480px;background:#FFFFFF;" version="1.1" viewBox="0 0 817 480" width="817.6px" zoomAndPan="magnify"><defs/><g><rect fill="#DDDDDD" height="472.34" style="stroke:#181818;stroke-width:0.3499999999999999;" width="551.6" x="261.8" y="4.2"/><text fill="#000000" font-family="sans-serif" font-size="9.1" font-weight="bold" lengthAdjust="spacing" textLength="52.5" x="511.35" y="14.0198">SmartHome</text><rect fill="#FFFFFF" height="372.3631" style="stroke:#181818;stroke-width:0.6999999999999998;" width="7" x="287.7" y="65.9422"/><rect fill="#FFFFFF" height="109.5186" style="stroke:#181818;stroke-width:0.6999999999999998;" width="7" x="489.3" y="131.6533"/><rect fill="#FFFFFF" height="109.5186" style="stroke:#181818;stroke-width:0.6999999999999998;" width="7" x="489.3" y="306.883"/><rect fill="#FFFFFF" height="65.7111" style="stroke:#181818;stroke-width:0.6999999999999998;" width="7" x="660.8" y="153.557"/><rect fill="#FFFFFF" height="65.7111" style="stroke:#181818;stroke-width:0.6999999999999998;" width="7" x="660.8" y="328.7867"/><rect fill="#FFFFFF" height="21.9037" style="stroke:#181818;stroke-width:0.6999999999999998;" width="7" x="718.2" y="87.8459"/><rect fill="#FFFFFF" height="21.9037" style="stroke:#181818;stroke-width:0.6999999999999998;" width="7" x="718.2" y="263.0756"/><rect fill="#FFFFFF" height="21.9037" style="stroke:#181818;stroke-width:0.6999999999999998;" width="7" x="780.5" y="175.4607"/><rect fill="#FFFFFF" height="21.9037" style="stroke:#181818;stroke-width:0.6999999999999998;" width="7" x="780.5" y="350.6904"/><line style="stroke:#181818;stroke-width:0.3499999999999999;stroke-dasharray:5.0,5.0;" x1="9.8" x2="9.8" y1="42.6385" y2="450.9053"/><line style="stroke:#181818;stroke-width:0.3499999999999999;stroke-dasharray:5.0,5.0;" x1="291.2" x2="291.2" y1="42.6385" y2="450.9053"/><line style="stroke:#181818;stroke-width:0.3499999999999999;stroke-dasharray:5.0,5.0;" x1="492.45" x2="492.45" y1="42.6385" y2="450.9053"/><line style="stroke:#181818;stroke-width:0.3499999999999999;stroke-dasharray:5.0,5.0;" x1="664.3" x2="664.3" y1="42.6385" y2="450.9053"/><line style="stroke:#181818;stroke-width:0.3499999999999999;stroke-dasharray:5.0,5.0;" x1="721.7" x2="721.7" y1="42.6385" y2="450.9053"/><line style="stroke:#181818;stroke-width:0.3499999999999999;stroke-dasharray:5.0,5.0;" x1="784" x2="784" y1="42.6385" y2="450.9053"/><rect fill="#E2E2F0" height="22.8348" rx="1.75" ry="1.75" style="stroke:#181818;stroke-width:0.3499999999999999;" width="12.6" x="3.5" y="19.1037"/><text fill="#000000" font-family="sans-serif" font-size="9.8" lengthAdjust="spacing" textLength="2.8" x="8.4" y="34.5789">&#160;</text><rect fill="#E2E2F0" height="22.8348" rx="1.75" ry="1.75" style="stroke:#181818;stroke-width:0.3499999999999999;" width="12.6" x="3.5" y="450.2053"/><text fill="#000000" font-family="sans-serif" font-size="9.8" lengthAdjust="spacing" textLength="2.8" x="8.4" y="465.6805">&#160;</text><rect fill="#E2E2F0" height="22.8348" rx="1.75" ry="1.75" style="stroke:#181818;stroke-width:0.3499999999999999;" width="53.2" x="264.6" y="19.1037"/><text fill="#000000" font-family="sans-serif" font-size="9.8" lengthAdjust="spacing" textLength="43.4" x="269.5" y="34.5789">Controller</text><rect fill="#E2E2F0" height="22.8348" rx="1.75" ry="1.75" style="stroke:#181818;stroke-width:0.3499999999999999;" width="53.2" x="264.6" y="450.2053"/><text fill="#000000" font-family="sans-serif" font-size="9.8" lengthAdjust="spacing" textLength="43.4" x="269.5" y="465.6805">Controller</text><rect fill="#E2E2F0" height="22.8348" rx="1.75" ry="1.75" style="stroke:#181818;stroke-width:0.3499999999999999;" width="42.7" x="471.45" y="19.1037"/><text fill="#000000" font-family="sans-serif" font-size="9.8" lengthAdjust="spacing" textLength="32.9" x="476.35" y="34.5789">Service</text><rect fill="#E2E2F0" height="22.8348" rx="1.75" ry="1.75" style="stroke:#181818;stroke-width:0.3499999999999999;" width="42.7" x="471.45" y="450.2053"/><text fill="#000000" font-family="sans-serif" font-size="9.8" lengthAdjust="spacing" textLength="32.9" x="476.35" y="465.6805">Service</text><rect fill="#E2E2F0" height="22.8348" rx="1.75" ry="1.75" style="stroke:#181818;stroke-width:0.3499999999999999;" width="57.4" x="635.6" y="19.1037"/><text fill="#000000" font-family="sans-serif" font-size="9.8" lengthAdjust="spacing" textLength="47.6" x="640.5" y="34.5789">Repository</text><rect fill="#E2E2F0" height="22.8348" rx="1.75" ry="1.75" style="stroke:#181818;stroke-width:0.3499999999999999;" width="57.4" x="635.6" y="450.2053"/><text fill="#000000" font-family="sans-serif" font-size="9.8" lengthAdjust="spacing" textLength="47.6" x="640.5" y="465.6805">Repository</text><rect fill="#E2E2F0" height="22.8348" rx="1.75" ry="1.75" style="stroke:#181818;stroke-width:0.3499999999999999;" width="43.4" x="700" y="19.1037"/><text fill="#000000" font-family="sans-serif" font-size="9.8" lengthAdjust="spacing" textLength="33.6" x="704.9" y="34.5789">Domain</text><rect fill="#E2E2F0" height="22.8348" rx="1.75" ry="1.75" style="stroke:#181818;stroke-width:0.3499999999999999;" width="43.4" x="700" y="450.2053"/><text fill="#000000" font-family="sans-serif" font-size="9.8" lengthAdjust="spacing" textLength="33.6" x="704.9" y="465.6805">Domain</text><rect fill="#E2E2F0" height="22.8348" rx="1.75" ry="1.75" style="stroke:#181818;stroke-width:0.3499999999999999;" width="53.2" x="757.4" y="19.1037"/><text fill="#000000" font-family="sans-serif" font-size="9.8" lengthAdjust="spacing" textLength="43.4" x="762.3" y="34.5789">DataBase</text><rect fill="#E2E2F0" height="22.8348" rx="1.75" ry="1.75" style="stroke:#181818;stroke-width:0.3499999999999999;" width="53.2" x="757.4" y="450.2053"/><text fill="#000000" font-family="sans-serif" font-size="9.8" lengthAdjust="spacing" textLength="43.4" x="762.3" y="465.6805">DataBase</text><rect fill="#FFFFFF" height="372.3631" style="stroke:#181818;stroke-width:0.6999999999999998;" width="7" x="287.7" y="65.9422"/><rect fill="#FFFFFF" height="109.5186" style="stroke:#181818;stroke-width:0.6999999999999998;" width="7" x="489.3" y="131.6533"/><rect fill="#FFFFFF" height="109.5186" style="stroke:#181818;stroke-width:0.6999999999999998;" width="7" x="489.3" y="306.883"/><rect fill="#FFFFFF" height="65.7111" style="stroke:#181818;stroke-width:0.6999999999999998;" width="7" x="660.8" y="153.557"/><rect fill="#FFFFFF" height="65.7111" style="stroke:#181818;stroke-width:0.6999999999999998;" width="7" x="660.8" y="328.7867"/><rect fill="#FFFFFF" height="21.9037" style="stroke:#181818;stroke-width:0.6999999999999998;" width="7" x="718.2" y="87.8459"/><rect fill="#FFFFFF" height="21.9037" style="stroke:#181818;stroke-width:0.6999999999999998;" width="7" x="718.2" y="263.0756"/><rect fill="#FFFFFF" height="21.9037" style="stroke:#181818;stroke-width:0.6999999999999998;" width="7" x="780.5" y="175.4607"/><rect fill="#FFFFFF" height="21.9037" style="stroke:#181818;stroke-width:0.6999999999999998;" width="7" x="780.5" y="350.6904"/><ellipse cx="9.45" cy="65.4172" fill="none" rx="2.8" ry="2.8" style="stroke:#181818;stroke-width:1.0499999999999998;"/><polygon fill="#181818" points="279.3,63.1422,286.3,65.9422,279.3,68.7422,282.1,65.9422" style="stroke:#181818;stroke-width:0.6999999999999998;"/><line style="stroke:#181818;stroke-width:0.6999999999999998;" x1="12.6" x2="283.5" y1="65.9422" y2="65.9422"/><text fill="#000000" font-family="sans-serif" font-size="9.1" font-weight="bold" lengthAdjust="spacing" textLength="4.9" x="14.7" y="62.2583">1</text><text fill="#000000" font-family="sans-serif" font-size="9.1" lengthAdjust="spacing" textLength="256.9" x="22.4" y="62.2583">GET /devices?room_id={roomId}&amp;device_type_id={Temperature}</text><polygon fill="#181818" points="709.8,85.0459,716.8,87.8459,709.8,90.6459,712.6,87.8459" style="stroke:#181818;stroke-width:0.6999999999999998;"/><line style="stroke:#181818;stroke-width:0.6999999999999998;" x1="294.7" x2="714" y1="87.8459" y2="87.8459"/><text fill="#000000" font-family="sans-serif" font-size="9.1" font-weight="bold" lengthAdjust="spacing" textLength="4.9" x="299.6" y="84.162">2</text><text fill="#000000" font-family="sans-serif" font-size="9.1" lengthAdjust="spacing" textLength="80.5" x="307.3" y="84.162">RoomID(strRoomID)</text><polygon fill="#181818" points="302.4,106.9496,295.4,109.7496,302.4,112.5496,299.6,109.7496" style="stroke:#181818;stroke-width:0.6999999999999998;"/><line style="stroke:#181818;stroke-width:0.6999999999999998;stroke-dasharray:2.0,2.0;" x1="298.2" x2="721" y1="109.7496" y2="109.7496"/><text fill="#000000" font-family="sans-serif" font-size="9.1" font-weight="bold" lengthAdjust="spacing" textLength="4.9" x="306.6" y="106.0657">3</text><text fill="#000000" font-family="sans-serif" font-size="9.1" lengthAdjust="spacing" textLength="28.7" x="314.3" y="106.0657">roomID</text><polygon fill="#181818" points="480.9,128.8533,487.9,131.6533,480.9,134.4533,483.7,131.6533" style="stroke:#181818;stroke-width:0.6999999999999998;"/><line style="stroke:#181818;stroke-width:0.6999999999999998;" x1="294.7" x2="485.1" y1="131.6533" y2="131.6533"/><text fill="#000000" font-family="sans-serif" font-size="9.1" font-weight="bold" lengthAdjust="spacing" textLength="4.9" x="299.6" y="127.9694">4</text><text fill="#000000" font-family="sans-serif" font-size="9.1" lengthAdjust="spacing" textLength="121.8" x="307.3" y="127.9694">getDevicesByRoomID(roomID)</text><polygon fill="#181818" points="652.4,150.757,659.4,153.557,652.4,156.357,655.2,153.557" style="stroke:#181818;stroke-width:0.6999999999999998;"/><line style="stroke:#181818;stroke-width:0.6999999999999998;" x1="496.3" x2="656.6" y1="153.557" y2="153.557"/><text fill="#000000" font-family="sans-serif" font-size="9.1" font-weight="bold" lengthAdjust="spacing" textLength="4.9" x="501.2" y="149.8731">5</text><text fill="#000000" font-family="sans-serif" font-size="9.1" lengthAdjust="spacing" textLength="91.7" x="508.9" y="149.8731">findByRoomID(roomID)</text><polygon fill="#181818" points="772.1,172.6607,779.1,175.4607,772.1,178.2607,774.9,175.4607" style="stroke:#181818;stroke-width:0.6999999999999998;"/><line style="stroke:#181818;stroke-width:0.6999999999999998;" x1="667.8" x2="776.3" y1="175.4607" y2="175.4607"/><text fill="#000000" font-family="sans-serif" font-size="9.1" font-weight="bold" lengthAdjust="spacing" textLength="4.9" x="672.7" y="171.7769">6</text><text fill="#000000" font-family="sans-serif" font-size="9.1" lengthAdjust="spacing" textLength="14" x="680.4" y="171.7769">find</text><polygon fill="#181818" points="675.5,194.5645,668.5,197.3645,675.5,200.1645,672.7,197.3645" style="stroke:#181818;stroke-width:0.6999999999999998;"/><line style="stroke:#181818;stroke-width:0.6999999999999998;stroke-dasharray:2.0,2.0;" x1="671.3" x2="783.3" y1="197.3645" y2="197.3645"/><text fill="#000000" font-family="sans-serif" font-size="9.1" font-weight="bold" lengthAdjust="spacing" textLength="4.9" x="679.7" y="193.6806">7</text><text fill="#000000" font-family="sans-serif" font-size="9.1" lengthAdjust="spacing" textLength="83.3" x="687.4" y="193.6806">deviceDataModelList</text><polygon fill="#181818" points="504,216.4682,497,219.2682,504,222.0682,501.2,219.2682" style="stroke:#181818;stroke-width:0.6999999999999998;"/><line style="stroke:#181818;stroke-width:0.6999999999999998;stroke-dasharray:2.0,2.0;" x1="499.8" x2="663.6" y1="219.2682" y2="219.2682"/><text fill="#000000" font-family="sans-serif" font-size="9.1" font-weight="bold" lengthAdjust="spacing" textLength="4.9" x="508.2" y="215.5843">8</text><text fill="#000000" font-family="sans-serif" font-size="9.1" lengthAdjust="spacing" textLength="39.9" x="515.9" y="215.5843">deviceList</text><polygon fill="#181818" points="302.4,238.3719,295.4,241.1719,302.4,243.9719,299.6,241.1719" style="stroke:#181818;stroke-width:0.6999999999999998;"/><line style="stroke:#181818;stroke-width:0.6999999999999998;stroke-dasharray:2.0,2.0;" x1="298.2" x2="492.1" y1="241.1719" y2="241.1719"/><text fill="#000000" font-family="sans-serif" font-size="9.1" font-weight="bold" lengthAdjust="spacing" textLength="4.9" x="306.6" y="237.488">9</text><text fill="#000000" font-family="sans-serif" font-size="9.1" lengthAdjust="spacing" textLength="39.9" x="314.3" y="237.488">deviceList</text><polygon fill="#181818" points="709.8,260.2756,716.8,263.0756,709.8,265.8756,712.6,263.0756" style="stroke:#181818;stroke-width:0.6999999999999998;"/><line style="stroke:#181818;stroke-width:0.6999999999999998;" x1="294.7" x2="714" y1="263.0756" y2="263.0756"/><text fill="#000000" font-family="sans-serif" font-size="9.1" font-weight="bold" lengthAdjust="spacing" textLength="9.8" x="299.6" y="259.3917">10</text><text fill="#000000" font-family="sans-serif" font-size="9.1" lengthAdjust="spacing" textLength="115.5" x="312.2" y="259.3917">deviceTypeID(strDeviceType)</text><polygon fill="#181818" points="302.4,282.1793,295.4,284.9793,302.4,287.7793,299.6,284.9793" style="stroke:#181818;stroke-width:0.6999999999999998;"/><line style="stroke:#181818;stroke-width:0.6999999999999998;stroke-dasharray:2.0,2.0;" x1="298.2" x2="721" y1="284.9793" y2="284.9793"/><text fill="#000000" font-family="sans-serif" font-size="9.1" font-weight="bold" lengthAdjust="spacing" textLength="9.8" x="306.6" y="281.2954">11</text><text fill="#000000" font-family="sans-serif" font-size="9.1" lengthAdjust="spacing" textLength="53.2" x="319.2" y="281.2954">deviceTypeID</text><polygon fill="#181818" points="480.9,304.083,487.9,306.883,480.9,309.683,483.7,306.883" style="stroke:#181818;stroke-width:0.6999999999999998;"/><line style="stroke:#181818;stroke-width:0.6999999999999998;" x1="294.7" x2="485.1" y1="306.883" y2="306.883"/><text fill="#000000" font-family="sans-serif" font-size="9.1" font-weight="bold" lengthAdjust="spacing" textLength="9.8" x="299.6" y="303.1991">12</text><text fill="#000000" font-family="sans-serif" font-size="9.1" lengthAdjust="spacing" textLength="168.7" x="312.2" y="303.1991">getDevicesByDeviceTypeID(deviceTypeID)</text><polygon fill="#181818" points="652.4,325.9867,659.4,328.7867,652.4,331.5867,655.2,328.7867" style="stroke:#181818;stroke-width:0.6999999999999998;"/><line style="stroke:#181818;stroke-width:0.6999999999999998;" x1="496.3" x2="656.6" y1="328.7867" y2="328.7867"/><text fill="#000000" font-family="sans-serif" font-size="9.1" font-weight="bold" lengthAdjust="spacing" textLength="9.8" x="501.2" y="325.1028">13</text><text fill="#000000" font-family="sans-serif" font-size="9.1" lengthAdjust="spacing" textLength="138.6" x="513.8" y="325.1028">findByDeviceTypeID(deviceTypeID)</text><polygon fill="#181818" points="772.1,347.8904,779.1,350.6904,772.1,353.4904,774.9,350.6904" style="stroke:#181818;stroke-width:0.6999999999999998;"/><line style="stroke:#181818;stroke-width:0.6999999999999998;" x1="667.8" x2="776.3" y1="350.6904" y2="350.6904"/><text fill="#000000" font-family="sans-serif" font-size="9.1" font-weight="bold" lengthAdjust="spacing" textLength="9.8" x="672.7" y="347.0065">14</text><text fill="#000000" font-family="sans-serif" font-size="9.1" lengthAdjust="spacing" textLength="14" x="685.3" y="347.0065">find</text><polygon fill="#181818" points="675.5,369.7941,668.5,372.5941,675.5,375.3941,672.7,372.5941" style="stroke:#181818;stroke-width:0.6999999999999998;"/><line style="stroke:#181818;stroke-width:0.6999999999999998;stroke-dasharray:2.0,2.0;" x1="671.3" x2="783.3" y1="372.5941" y2="372.5941"/><text fill="#000000" font-family="sans-serif" font-size="9.1" font-weight="bold" lengthAdjust="spacing" textLength="9.8" x="679.7" y="368.9103">15</text><text fill="#000000" font-family="sans-serif" font-size="9.1" lengthAdjust="spacing" textLength="83.3" x="692.3" y="368.9103">deviceDataModelList</text><polygon fill="#181818" points="504,391.6979,497,394.4979,504,397.2979,501.2,394.4979" style="stroke:#181818;stroke-width:0.6999999999999998;"/><line style="stroke:#181818;stroke-width:0.6999999999999998;stroke-dasharray:2.0,2.0;" x1="499.8" x2="663.6" y1="394.4979" y2="394.4979"/><text fill="#000000" font-family="sans-serif" font-size="9.1" font-weight="bold" lengthAdjust="spacing" textLength="9.8" x="508.2" y="390.814">16</text><text fill="#000000" font-family="sans-serif" font-size="9.1" lengthAdjust="spacing" textLength="39.9" x="520.8" y="390.814">deviceList</text><polygon fill="#181818" points="302.4,413.6016,295.4,416.4016,302.4,419.2016,299.6,416.4016" style="stroke:#181818;stroke-width:0.6999999999999998;"/><line style="stroke:#181818;stroke-width:0.6999999999999998;stroke-dasharray:2.0,2.0;" x1="298.2" x2="492.1" y1="416.4016" y2="416.4016"/><text fill="#000000" font-family="sans-serif" font-size="9.1" font-weight="bold" lengthAdjust="spacing" textLength="9.8" x="306.6" y="412.7177">17</text><text fill="#000000" font-family="sans-serif" font-size="9.1" lengthAdjust="spacing" textLength="39.9" x="319.2" y="412.7177">deviceList</text><ellipse cx="9.45" cy="437.7803" fill="none" rx="2.8" ry="2.8" style="stroke:#181818;stroke-width:1.0499999999999998;"/><polygon fill="#181818" points="21.35,435.5053,14.35,438.3053,21.35,441.1053,18.55,438.3053" style="stroke:#181818;stroke-width:0.6999999999999998;"/><line style="stroke:#181818;stroke-width:0.6999999999999998;stroke-dasharray:2.0,2.0;" x1="19.95" x2="290.5" y1="438.3053" y2="438.3053"/><text fill="#000000" font-family="sans-serif" font-size="9.1" font-weight="bold" lengthAdjust="spacing" textLength="9.8" x="21.7" y="434.6214">18</text><text fill="#000000" font-family="sans-serif" font-size="9.1" lengthAdjust="spacing" textLength="64.4" x="34.3" y="434.6214">Json/status 200</text><!--SRC=[nLHDJzmm4BtFhp1xeFIG1d5S2IejHgK81DfizufCCjrQYktKdg2k4F-TiGqaovQF6yabzhptvlcDd2z_YBemBSkkLPPwqtwhdIa3_ktHrbWqMgsyCh3JURKoIhHgxNeImI0fgm1KJyxsvWOzGASywLfth2Cc_AeWVeLOk77_nAGoN3vr1YSW-Da07pjBthKj-iGwNipFjq4L-bjTOq9Ko-tw73iND3c_Jf3voTNbDaWwexHD07bvyP-w8ZLJ8NUPIK3R2BOF0F4emXL7oPsOYXyd2r4s62s5xzuvSwsRmxluyREvtys5QrftcFONQ3hqYdgFzvnQJVfM4UQJGb9aPNR4mlCe8VS2-VprTO17on1HnU0ZTPJGu2RgIRDQJiKAIMQZi_MZkdyfpOb2jOoC61ph_jQsUHsUqeK4PSfCFX8606S7mFl5e9WpYGbVk0RRSnreR3ioic2o_KnuYSkjezSXX3UGetKyusRMcRVWAUN4vVFwdTJ7n3Uo5vlXot6xiSJxW_W8zKD3-UIP33CeZbpwFp3qB3XR1kBh4SJ1_luOdsy8F000]--></g></svg>