<?xml version="1.0" encoding="us-ascii" standalone="no"?><svg xmlns="http://www.w3.org/2000/svg" xmlns:xlink="http://www.w3.org/1999/xlink" contentStyleType="text/css" height="562.2px" preserveAspectRatio="none" style="width:1714px;height:562px;background:#FFFFFF;" version="1.1" viewBox="0 0 1714 562" width="1714.2px" zoomAndPan="magnify"><defs/><g><rect fill="#DDDDDD" height="555.0598" style="stroke:#181818;stroke-width:0.3;" width="823.8" x="886.8" y="3.6"/><text fill="#000000" font-family="sans-serif" font-size="7.8" font-weight="bold" lengthAdjust="spacing" textLength="76.8" x="1260.3" y="12.017">Power Consumption</text><rect fill="#FFFFFF" height="469.3652" style="stroke:#181818;stroke-width:0.6;" width="6" x="909" y="56.5219"/><rect fill="#FFFFFF" height="93.873" style="stroke:#181818;stroke-width:0.6;" width="6" x="1257" y="263.0426"/><rect fill="#FFFFFF" height="93.873" style="stroke:#181818;stroke-width:0.6;" width="6" x="1257" y="375.6902"/><rect fill="#FFFFFF" height="18.7746" style="stroke:#181818;stroke-width:0.6;" width="6" x="1257" y="488.3379"/><rect fill="#FFFFFF" height="56.3238" style="stroke:#181818;stroke-width:0.6;" width="6" x="1585.8" y="281.8172"/><rect fill="#FFFFFF" height="56.3238" style="stroke:#181818;stroke-width:0.6;" width="6" x="1585.8" y="394.4648"/><rect fill="#FFFFFF" height="18.7746" style="stroke:#181818;stroke-width:0.6;" width="6" x="1635" y="75.2965"/><rect fill="#FFFFFF" height="18.7746" style="stroke:#181818;stroke-width:0.6;" width="6" x="1635" y="112.8457"/><rect fill="#FFFFFF" height="18.7746" style="stroke:#181818;stroke-width:0.6;" width="6" x="1635" y="150.3949"/><rect fill="#FFFFFF" height="18.7746" style="stroke:#181818;stroke-width:0.6;" width="6" x="1635" y="187.9441"/><rect fill="#FFFFFF" height="18.7746" style="stroke:#181818;stroke-width:0.6;" width="6" x="1635" y="225.4934"/><rect fill="#FFFFFF" height="18.7746" style="stroke:#181818;stroke-width:0.6;" width="6" x="1682.4" y="300.5918"/><rect fill="#FFFFFF" height="18.7746" style="stroke:#181818;stroke-width:0.6;" width="6" x="1682.4" y="413.2395"/><line style="stroke:#181818;stroke-width:0.3;stroke-dasharray:5.0,5.0;" x1="8.4" x2="8.4" y1="36.5473" y2="536.6871"/><line style="stroke:#181818;stroke-width:0.3;stroke-dasharray:5.0,5.0;" x1="912" x2="912" y1="36.5473" y2="536.6871"/><line style="stroke:#181818;stroke-width:0.3;stroke-dasharray:5.0,5.0;" x1="1259.7" x2="1259.7" y1="36.5473" y2="536.6871"/><line style="stroke:#181818;stroke-width:0.3;stroke-dasharray:5.0,5.0;" x1="1588.8" x2="1588.8" y1="36.5473" y2="536.6871"/><line style="stroke:#181818;stroke-width:0.3;stroke-dasharray:5.0,5.0;" x1="1638" x2="1638" y1="36.5473" y2="536.6871"/><line style="stroke:#181818;stroke-width:0.3;stroke-dasharray:5.0,5.0;" x1="1685.4" x2="1685.4" y1="36.5473" y2="536.6871"/><rect fill="#E2E2F0" height="19.5727" rx="1.5" ry="1.5" style="stroke:#181818;stroke-width:0.3;" width="10.8" x="3" y="16.3746"/><text fill="#000000" font-family="sans-serif" font-size="8.4" lengthAdjust="spacing" textLength="2.4" x="7.2" y="29.6391">&#160;</text><rect fill="#E2E2F0" height="19.5727" rx="1.5" ry="1.5" style="stroke:#181818;stroke-width:0.3;" width="10.8" x="3" y="536.0871"/><text fill="#000000" font-family="sans-serif" font-size="8.4" lengthAdjust="spacing" textLength="2.4" x="7.2" y="549.3516">&#160;</text><rect fill="#E2E2F0" height="19.5727" rx="1.5" ry="1.5" style="stroke:#181818;stroke-width:0.3;" width="45.6" x="889.2" y="16.3746"/><text fill="#000000" font-family="sans-serif" font-size="8.4" lengthAdjust="spacing" textLength="37.2" x="893.4" y="29.6391">Controller</text><rect fill="#E2E2F0" height="19.5727" rx="1.5" ry="1.5" style="stroke:#181818;stroke-width:0.3;" width="45.6" x="889.2" y="536.0871"/><text fill="#000000" font-family="sans-serif" font-size="8.4" lengthAdjust="spacing" textLength="37.2" x="893.4" y="549.3516">Controller</text><rect fill="#E2E2F0" height="19.5727" rx="1.5" ry="1.5" style="stroke:#181818;stroke-width:0.3;" width="36.6" x="1241.7" y="16.3746"/><text fill="#000000" font-family="sans-serif" font-size="8.4" lengthAdjust="spacing" textLength="28.2" x="1245.9" y="29.6391">Service</text><rect fill="#E2E2F0" height="19.5727" rx="1.5" ry="1.5" style="stroke:#181818;stroke-width:0.3;" width="36.6" x="1241.7" y="536.0871"/><text fill="#000000" font-family="sans-serif" font-size="8.4" lengthAdjust="spacing" textLength="28.2" x="1245.9" y="549.3516">Service</text><rect fill="#E2E2F0" height="19.5727" rx="1.5" ry="1.5" style="stroke:#181818;stroke-width:0.3;" width="49.2" x="1564.2" y="16.3746"/><text fill="#000000" font-family="sans-serif" font-size="8.4" lengthAdjust="spacing" textLength="40.8" x="1568.4" y="29.6391">Repository</text><rect fill="#E2E2F0" height="19.5727" rx="1.5" ry="1.5" style="stroke:#181818;stroke-width:0.3;" width="49.2" x="1564.2" y="536.0871"/><text fill="#000000" font-family="sans-serif" font-size="8.4" lengthAdjust="spacing" textLength="40.8" x="1568.4" y="549.3516">Repository</text><rect fill="#E2E2F0" height="19.5727" rx="1.5" ry="1.5" style="stroke:#181818;stroke-width:0.3;" width="37.2" x="1619.4" y="16.3746"/><text fill="#000000" font-family="sans-serif" font-size="8.4" lengthAdjust="spacing" textLength="28.8" x="1623.6" y="29.6391">Domain</text><rect fill="#E2E2F0" height="19.5727" rx="1.5" ry="1.5" style="stroke:#181818;stroke-width:0.3;" width="37.2" x="1619.4" y="536.0871"/><text fill="#000000" font-family="sans-serif" font-size="8.4" lengthAdjust="spacing" textLength="28.8" x="1623.6" y="549.3516">Domain</text><rect fill="#E2E2F0" height="19.5727" rx="1.5" ry="1.5" style="stroke:#181818;stroke-width:0.3;" width="45.6" x="1662.6" y="16.3746"/><text fill="#000000" font-family="sans-serif" font-size="8.4" lengthAdjust="spacing" textLength="37.2" x="1666.8" y="29.6391">DataBase</text><rect fill="#E2E2F0" height="19.5727" rx="1.5" ry="1.5" style="stroke:#181818;stroke-width:0.3;" width="45.6" x="1662.6" y="536.0871"/><text fill="#000000" font-family="sans-serif" font-size="8.4" lengthAdjust="spacing" textLength="37.2" x="1666.8" y="549.3516">DataBase</text><rect fill="#FFFFFF" height="469.3652" style="stroke:#181818;stroke-width:0.6;" width="6" x="909" y="56.5219"/><rect fill="#FFFFFF" height="93.873" style="stroke:#181818;stroke-width:0.6;" width="6" x="1257" y="263.0426"/><rect fill="#FFFFFF" height="93.873" style="stroke:#181818;stroke-width:0.6;" width="6" x="1257" y="375.6902"/><rect fill="#FFFFFF" height="18.7746" style="stroke:#181818;stroke-width:0.6;" width="6" x="1257" y="488.3379"/><rect fill="#FFFFFF" height="56.3238" style="stroke:#181818;stroke-width:0.6;" width="6" x="1585.8" y="281.8172"/><rect fill="#FFFFFF" height="56.3238" style="stroke:#181818;stroke-width:0.6;" width="6" x="1585.8" y="394.4648"/><rect fill="#FFFFFF" height="18.7746" style="stroke:#181818;stroke-width:0.6;" width="6" x="1635" y="75.2965"/><rect fill="#FFFFFF" height="18.7746" style="stroke:#181818;stroke-width:0.6;" width="6" x="1635" y="112.8457"/><rect fill="#FFFFFF" height="18.7746" style="stroke:#181818;stroke-width:0.6;" width="6" x="1635" y="150.3949"/><rect fill="#FFFFFF" height="18.7746" style="stroke:#181818;stroke-width:0.6;" width="6" x="1635" y="187.9441"/><rect fill="#FFFFFF" height="18.7746" style="stroke:#181818;stroke-width:0.6;" width="6" x="1635" y="225.4934"/><rect fill="#FFFFFF" height="18.7746" style="stroke:#181818;stroke-width:0.6;" width="6" x="1682.4" y="300.5918"/><rect fill="#FFFFFF" height="18.7746" style="stroke:#181818;stroke-width:0.6;" width="6" x="1682.4" y="413.2395"/><ellipse cx="8.1" cy="56.0719" fill="none" rx="2.4" ry="2.4" style="stroke:#181818;stroke-width:0.8999999999999999;"/><polygon fill="#181818" points="901.8,54.1219,907.8,56.5219,901.8,58.9219,904.2,56.5219" style="stroke:#181818;stroke-width:0.6;"/><line style="stroke:#181818;stroke-width:0.6;" x1="10.8" x2="905.4" y1="56.5219" y2="56.5219"/><text fill="#000000" font-family="sans-serif" font-size="7.8" font-weight="bold" lengthAdjust="spacing" textLength="4.2" x="12.6" y="53.3643">1</text><text fill="#000000" font-family="sans-serif" font-size="7.8" lengthAdjust="spacing" textLength="882.6" x="19.2" y="53.3643">GET /logs/temperature-difference?outsideDeviceIDStr={outsideDeviceIDStr}&amp;insideDeviceIDStr={insideDeviceIDStr}&amp;initialTime={initialTime}&amp;finalTime={finalTime}&amp;timeDelta={timeDelta} (outsideDeviceDTO, insideDeviceDTO, initialTime, endTime, timeDelta)</text><polygon fill="#181818" points="1627.8,72.8965,1633.8,75.2965,1627.8,77.6965,1630.2,75.2965" style="stroke:#181818;stroke-width:0.6;"/><line style="stroke:#181818;stroke-width:0.6;" x1="915" x2="1631.4" y1="75.2965" y2="75.2965"/><text fill="#000000" font-family="sans-serif" font-size="7.8" font-weight="bold" lengthAdjust="spacing" textLength="4.2" x="919.2" y="72.1389">2</text><text fill="#000000" font-family="sans-serif" font-size="7.8" lengthAdjust="spacing" textLength="100.2" x="925.8" y="72.1389">DeviceID(outsideDeviceIDStr)</text><polygon fill="#181818" points="921.6,91.6711,915.6,94.0711,921.6,96.4711,919.2,94.0711" style="stroke:#181818;stroke-width:0.6;"/><line style="stroke:#181818;stroke-width:0.6;stroke-dasharray:2.0,2.0;" x1="918" x2="1637.4" y1="94.0711" y2="94.0711"/><text fill="#000000" font-family="sans-serif" font-size="7.8" font-weight="bold" lengthAdjust="spacing" textLength="4.2" x="925.2" y="90.9135">3</text><text fill="#000000" font-family="sans-serif" font-size="7.8" lengthAdjust="spacing" textLength="28.8" x="931.8" y="90.9135">deviceID</text><polygon fill="#181818" points="1627.8,110.4457,1633.8,112.8457,1627.8,115.2457,1630.2,112.8457" style="stroke:#181818;stroke-width:0.6;"/><line style="stroke:#181818;stroke-width:0.6;" x1="915" x2="1631.4" y1="112.8457" y2="112.8457"/><text fill="#000000" font-family="sans-serif" font-size="7.8" font-weight="bold" lengthAdjust="spacing" textLength="4.2" x="919.2" y="109.6881">4</text><text fill="#000000" font-family="sans-serif" font-size="7.8" lengthAdjust="spacing" textLength="95.4" x="925.8" y="109.6881">DeviceID(insideDeviceIDStr)</text><polygon fill="#181818" points="921.6,129.2203,915.6,131.6203,921.6,134.0203,919.2,131.6203" style="stroke:#181818;stroke-width:0.6;"/><line style="stroke:#181818;stroke-width:0.6;stroke-dasharray:2.0,2.0;" x1="918" x2="1637.4" y1="131.6203" y2="131.6203"/><text fill="#000000" font-family="sans-serif" font-size="7.8" font-weight="bold" lengthAdjust="spacing" textLength="4.2" x="925.2" y="128.4627">5</text><text fill="#000000" font-family="sans-serif" font-size="7.8" lengthAdjust="spacing" textLength="28.8" x="931.8" y="128.4627">deviceID</text><polygon fill="#181818" points="1627.8,147.9949,1633.8,150.3949,1627.8,152.7949,1630.2,150.3949" style="stroke:#181818;stroke-width:0.6;"/><line style="stroke:#181818;stroke-width:0.6;" x1="915" x2="1631.4" y1="150.3949" y2="150.3949"/><text fill="#000000" font-family="sans-serif" font-size="7.8" font-weight="bold" lengthAdjust="spacing" textLength="4.2" x="919.2" y="147.2373">6</text><text fill="#000000" font-family="sans-serif" font-size="7.8" lengthAdjust="spacing" textLength="98.4" x="925.8" y="147.2373">SensorType(strTemperature)</text><polygon fill="#181818" points="921.6,166.7695,915.6,169.1695,921.6,171.5695,919.2,169.1695" style="stroke:#181818;stroke-width:0.6;"/><line style="stroke:#181818;stroke-width:0.6;stroke-dasharray:2.0,2.0;" x1="918" x2="1637.4" y1="169.1695" y2="169.1695"/><text fill="#000000" font-family="sans-serif" font-size="7.8" font-weight="bold" lengthAdjust="spacing" textLength="4.2" x="925.2" y="166.0119">7</text><text fill="#000000" font-family="sans-serif" font-size="7.8" lengthAdjust="spacing" textLength="40.2" x="931.8" y="166.0119">sensorType</text><polygon fill="#181818" points="1627.8,185.5441,1633.8,187.9441,1627.8,190.3441,1630.2,187.9441" style="stroke:#181818;stroke-width:0.6;"/><line style="stroke:#181818;stroke-width:0.6;" x1="915" x2="1631.4" y1="187.9441" y2="187.9441"/><text fill="#000000" font-family="sans-serif" font-size="7.8" font-weight="bold" lengthAdjust="spacing" textLength="4.2" x="919.2" y="184.7865">8</text><text fill="#000000" font-family="sans-serif" font-size="7.8" lengthAdjust="spacing" textLength="112.2" x="925.8" y="184.7865">DatePeriod(initialTime, endTime)</text><polygon fill="#181818" points="921.6,204.3188,915.6,206.7188,921.6,209.1188,919.2,206.7188" style="stroke:#181818;stroke-width:0.6;"/><line style="stroke:#181818;stroke-width:0.6;stroke-dasharray:2.0,2.0;" x1="918" x2="1637.4" y1="206.7188" y2="206.7188"/><text fill="#000000" font-family="sans-serif" font-size="7.8" font-weight="bold" lengthAdjust="spacing" textLength="4.2" x="925.2" y="203.5611">9</text><text fill="#000000" font-family="sans-serif" font-size="7.8" lengthAdjust="spacing" textLength="37.2" x="931.8" y="203.5611">datePeriod</text><polygon fill="#181818" points="1627.8,223.0934,1633.8,225.4934,1627.8,227.8934,1630.2,225.4934" style="stroke:#181818;stroke-width:0.6;"/><line style="stroke:#181818;stroke-width:0.6;" x1="915" x2="1631.4" y1="225.4934" y2="225.4934"/><text fill="#000000" font-family="sans-serif" font-size="7.8" font-weight="bold" lengthAdjust="spacing" textLength="8.4" x="919.2" y="222.3357">10</text><text fill="#000000" font-family="sans-serif" font-size="7.8" lengthAdjust="spacing" textLength="82.8" x="930" y="222.3357">TimeDelta(intTimeDelta)</text><polygon fill="#181818" points="921.6,241.868,915.6,244.268,921.6,246.668,919.2,244.268" style="stroke:#181818;stroke-width:0.6;"/><line style="stroke:#181818;stroke-width:0.6;stroke-dasharray:2.0,2.0;" x1="918" x2="1637.4" y1="244.268" y2="244.268"/><text fill="#000000" font-family="sans-serif" font-size="7.8" font-weight="bold" lengthAdjust="spacing" textLength="8.4" x="925.2" y="241.1104">11</text><text fill="#000000" font-family="sans-serif" font-size="7.8" lengthAdjust="spacing" textLength="33" x="936" y="241.1104">timeDelta</text><polygon fill="#181818" points="1249.8,260.6426,1255.8,263.0426,1249.8,265.4426,1252.2,263.0426" style="stroke:#181818;stroke-width:0.6;"/><line style="stroke:#181818;stroke-width:0.6;" x1="915" x2="1253.4" y1="263.0426" y2="263.0426"/><text fill="#000000" font-family="sans-serif" font-size="7.8" font-weight="bold" lengthAdjust="spacing" textLength="8.4" x="919.2" y="259.885">12</text><text fill="#000000" font-family="sans-serif" font-size="7.8" lengthAdjust="spacing" textLength="300" x="930" y="259.885">getMaxInstTempDiffBetweenDeviceAndOutside(insideDeviceID, sensorType, timeDelta)</text><polygon fill="#181818" points="1578.6,279.4172,1584.6,281.8172,1578.6,284.2172,1581,281.8172" style="stroke:#181818;stroke-width:0.6;"/><line style="stroke:#181818;stroke-width:0.6;" x1="1263" x2="1582.2" y1="281.8172" y2="281.8172"/><text fill="#000000" font-family="sans-serif" font-size="7.8" font-weight="bold" lengthAdjust="spacing" textLength="8.4" x="1267.2" y="278.6596">13</text><text fill="#000000" font-family="sans-serif" font-size="7.8" lengthAdjust="spacing" textLength="300.6" x="1278" y="278.6596">findByDeviceIDAndSensorTypeAndDatePeriodBetween(deviceID, sensorTypeID, period)</text><polygon fill="#181818" points="1675.2,298.1918,1681.2,300.5918,1675.2,302.9918,1677.6,300.5918" style="stroke:#181818;stroke-width:0.6;"/><line style="stroke:#181818;stroke-width:0.6;" x1="1591.8" x2="1678.8" y1="300.5918" y2="300.5918"/><text fill="#000000" font-family="sans-serif" font-size="7.8" font-weight="bold" lengthAdjust="spacing" textLength="8.4" x="1596" y="297.4342">14</text><text fill="#000000" font-family="sans-serif" font-size="7.8" lengthAdjust="spacing" textLength="12" x="1606.8" y="297.4342">find</text><polygon fill="#181818" points="1598.4,316.9664,1592.4,319.3664,1598.4,321.7664,1596,319.3664" style="stroke:#181818;stroke-width:0.6;"/><line style="stroke:#181818;stroke-width:0.6;stroke-dasharray:2.0,2.0;" x1="1594.8" x2="1684.8" y1="319.3664" y2="319.3664"/><text fill="#000000" font-family="sans-serif" font-size="7.8" font-weight="bold" lengthAdjust="spacing" textLength="8.4" x="1602" y="316.2088">15</text><text fill="#000000" font-family="sans-serif" font-size="7.8" lengthAdjust="spacing" textLength="22.8" x="1612.8" y="316.2088">logList</text><polygon fill="#181818" points="1269.6,335.741,1263.6,338.141,1269.6,340.541,1267.2,338.141" style="stroke:#181818;stroke-width:0.6;"/><line style="stroke:#181818;stroke-width:0.6;stroke-dasharray:2.0,2.0;" x1="1266" x2="1588.2" y1="338.141" y2="338.141"/><text fill="#000000" font-family="sans-serif" font-size="7.8" font-weight="bold" lengthAdjust="spacing" textLength="8.4" x="1273.2" y="334.9834">16</text><text fill="#000000" font-family="sans-serif" font-size="7.8" lengthAdjust="spacing" textLength="75.6" x="1284" y="334.9834">logInsideReadingsList</text><polygon fill="#181818" points="921.6,354.5156,915.6,356.9156,921.6,359.3156,919.2,356.9156" style="stroke:#181818;stroke-width:0.6;"/><line style="stroke:#181818;stroke-width:0.6;stroke-dasharray:2.0,2.0;" x1="918" x2="1259.4" y1="356.9156" y2="356.9156"/><text fill="#000000" font-family="sans-serif" font-size="7.8" font-weight="bold" lengthAdjust="spacing" textLength="8.4" x="925.2" y="353.758">17</text><text fill="#000000" font-family="sans-serif" font-size="7.8" lengthAdjust="spacing" textLength="75.6" x="936" y="353.758">logInsideReadingsList</text><polygon fill="#181818" points="1249.8,373.2902,1255.8,375.6902,1249.8,378.0902,1252.2,375.6902" style="stroke:#181818;stroke-width:0.6;"/><line style="stroke:#181818;stroke-width:0.6;" x1="915" x2="1253.4" y1="375.6902" y2="375.6902"/><text fill="#000000" font-family="sans-serif" font-size="7.8" font-weight="bold" lengthAdjust="spacing" textLength="8.4" x="919.2" y="372.5326">18</text><text fill="#000000" font-family="sans-serif" font-size="7.8" lengthAdjust="spacing" textLength="304.8" x="930" y="372.5326">getMaxInstTempDiffBetweenDeviceAndOutside(outsideDeviceID, sensorType, timeDelta)</text><polygon fill="#181818" points="1578.6,392.0648,1584.6,394.4648,1578.6,396.8648,1581,394.4648" style="stroke:#181818;stroke-width:0.6;"/><line style="stroke:#181818;stroke-width:0.6;" x1="1263" x2="1582.2" y1="394.4648" y2="394.4648"/><text fill="#000000" font-family="sans-serif" font-size="7.8" font-weight="bold" lengthAdjust="spacing" textLength="8.4" x="1267.2" y="391.3072">19</text><text fill="#000000" font-family="sans-serif" font-size="7.8" lengthAdjust="spacing" textLength="300.6" x="1278" y="391.3072">findByDeviceIDAndSensorTypeAndDatePeriodBetween(deviceID, sensorTypeID, period)</text><polygon fill="#181818" points="1675.2,410.8395,1681.2,413.2395,1675.2,415.6395,1677.6,413.2395" style="stroke:#181818;stroke-width:0.6;"/><line style="stroke:#181818;stroke-width:0.6;" x1="1591.8" x2="1678.8" y1="413.2395" y2="413.2395"/><text fill="#000000" font-family="sans-serif" font-size="7.8" font-weight="bold" lengthAdjust="spacing" textLength="8.4" x="1596" y="410.0818">20</text><text fill="#000000" font-family="sans-serif" font-size="7.8" lengthAdjust="spacing" textLength="12" x="1606.8" y="410.0818">find</text><polygon fill="#181818" points="1598.4,429.6141,1592.4,432.0141,1598.4,434.4141,1596,432.0141" style="stroke:#181818;stroke-width:0.6;"/><line style="stroke:#181818;stroke-width:0.6;stroke-dasharray:2.0,2.0;" x1="1594.8" x2="1684.8" y1="432.0141" y2="432.0141"/><text fill="#000000" font-family="sans-serif" font-size="7.8" font-weight="bold" lengthAdjust="spacing" textLength="8.4" x="1602" y="428.8564">21</text><text fill="#000000" font-family="sans-serif" font-size="7.8" lengthAdjust="spacing" textLength="20.4" x="1612.8" y="428.8564">loglist</text><polygon fill="#181818" points="1269.6,448.3887,1263.6,450.7887,1269.6,453.1887,1267.2,450.7887" style="stroke:#181818;stroke-width:0.6;"/><line style="stroke:#181818;stroke-width:0.6;stroke-dasharray:2.0,2.0;" x1="1266" x2="1588.2" y1="450.7887" y2="450.7887"/><text fill="#000000" font-family="sans-serif" font-size="7.8" font-weight="bold" lengthAdjust="spacing" textLength="8.4" x="1273.2" y="447.6311">22</text><text fill="#000000" font-family="sans-serif" font-size="7.8" lengthAdjust="spacing" textLength="86.4" x="1284" y="447.6311">listLogsOutsideReadings</text><polygon fill="#181818" points="921.6,467.1633,915.6,469.5633,921.6,471.9633,919.2,469.5633" style="stroke:#181818;stroke-width:0.6;"/><line style="stroke:#181818;stroke-width:0.6;stroke-dasharray:2.0,2.0;" x1="918" x2="1259.4" y1="469.5633" y2="469.5633"/><text fill="#000000" font-family="sans-serif" font-size="7.8" font-weight="bold" lengthAdjust="spacing" textLength="8.4" x="925.2" y="466.4057">23</text><text fill="#000000" font-family="sans-serif" font-size="7.8" lengthAdjust="spacing" textLength="86.4" x="936" y="466.4057">listLogsOutsideReadings</text><polygon fill="#181818" points="1249.8,485.9379,1255.8,488.3379,1249.8,490.7379,1252.2,488.3379" style="stroke:#181818;stroke-width:0.6;"/><line style="stroke:#181818;stroke-width:0.6;" x1="915" x2="1253.4" y1="488.3379" y2="488.3379"/><text fill="#000000" font-family="sans-serif" font-size="7.8" font-weight="bold" lengthAdjust="spacing" textLength="8.4" x="919.2" y="485.1803">24</text><text fill="#000000" font-family="sans-serif" font-size="7.8" lengthAdjust="spacing" textLength="319.8" x="930" y="485.1803">getMaxInstTempDiffBetweenDeviceAndOutside(insideReadings, outsideReadings, timeDelta)</text><polygon fill="#181818" points="921.6,504.7125,915.6,507.1125,921.6,509.5125,919.2,507.1125" style="stroke:#181818;stroke-width:0.6;"/><line style="stroke:#181818;stroke-width:0.6;stroke-dasharray:2.0,2.0;" x1="918" x2="1259.4" y1="507.1125" y2="507.1125"/><text fill="#000000" font-family="sans-serif" font-size="7.8" font-weight="bold" lengthAdjust="spacing" textLength="8.4" x="925.2" y="503.9549">25</text><text fill="#000000" font-family="sans-serif" font-size="7.8" lengthAdjust="spacing" textLength="57.6" x="936" y="503.9549">maxInstTempDiff</text><ellipse cx="8.1" cy="525.4371" fill="none" rx="2.4" ry="2.4" style="stroke:#181818;stroke-width:0.8999999999999999;"/><polygon fill="#181818" points="18.3,523.4871,12.3,525.8871,18.3,528.2871,15.9,525.8871" style="stroke:#181818;stroke-width:0.6;"/><line style="stroke:#181818;stroke-width:0.6;stroke-dasharray:2.0,2.0;" x1="17.1" x2="911.4" y1="525.8871" y2="525.8871"/><text fill="#000000" font-family="sans-serif" font-size="7.8" font-weight="bold" lengthAdjust="spacing" textLength="8.4" x="18.6" y="522.7295">26</text><text fill="#000000" font-family="sans-serif" font-size="7.8" lengthAdjust="spacing" textLength="57.6" x="29.4" y="522.7295">maxInstTempDiff</text><!--SRC=[vLPTQzim57tNhn1vo598bdT3EvQvZ417I-Fz03MwoGIsv4dNRKF9VvzioxPavwjiUse2GPBFlKVt7EawdtuXvYQQp_EKIIoozFDQPNC3lmkGQvXnmRQQPOJaJADOYzo2wCX-cQ4_3MZof5xfw46zWARVb3H5bgDGSXJWxGFKAaqjneQDkca8Mu5-5ckeC6uS0XuXLqQWqhiAqqr3MAmo9cG5gOUznmpPWfcQfvcC24XERJ64i0ALBB8dMnmXPOrKpMwy6YBw_JQXyrHjpHmXoq4pB7GfrMO3kbJjYohG20unb3KiunNgwxVXsduiv00sM2fH0WLB4v51-RoTxCSR8PlrThWVe_sD8KLs_TOEztGIR21ExgVKvt8BRV8fjOBKWpR9bHLdZUAP8NXw4EBvQvLoyaTD3PDXvLTTdXfDY8kQ1LBJY78NHJWCOWxnHhJb7KZvNsbN88tIoIw7YK6TT0TZo7gCrBGftb6jXJo05efF3hbtEJbl4rrEdZGdmt9ZqXsJIpdRatMUqZM4Y6u1Vx3NfJHOQXpRIxS0V06GjT5V9R-lprlF_wadRt2cMs97GPe-P5cx5XDHUyFuOjUaipoTutRI-U2sC-47YCjPNg7ykzIn4A_5bJgxxbIJUxAwTTBsibblixOxtGc3WQvDK43YIsk3bfLcZy2ua5lJJ-5jj5EfrnpF9cba_dk3UutbmpcS7dNuXCSsviw-kfo6ZKdlTlbycd_dimZEqvIgaFIqrqTBo4BoirkVtQZgBy_9IF-rM7t-0000]--></g></svg>