<?xml version="1.0" encoding="us-ascii" standalone="no"?><svg xmlns="http://www.w3.org/2000/svg" xmlns:xlink="http://www.w3.org/1999/xlink" contentStyleType="text/css" height="686px" preserveAspectRatio="none" style="width:1130px;height:686px;background:#FFFFFF;" version="1.1" viewBox="0 0 1130 686" width="1130px" zoomAndPan="magnify"><defs/><g><rect fill="#DDDDDD" height="674.7715" style="stroke:#181818;stroke-width:0.5;" width="692" x="374" y="6"/><text fill="#000000" font-family="sans-serif" font-size="13" font-weight="bold" lengthAdjust="spacing" textLength="75" x="682.5" y="20.0283">SmartHome</text><rect fill="#FFFFFF" height="531.9473" style="stroke:#181818;stroke-width:1.0;" width="10" x="411" y="94.2031"/><rect fill="#FFFFFF" height="156.4551" style="stroke:#181818;stroke-width:1.0;" width="10" x="699" y="188.0762"/><rect fill="#FFFFFF" height="156.4551" style="stroke:#181818;stroke-width:1.0;" width="10" x="699" y="438.4043"/><rect fill="#FFFFFF" height="93.873" style="stroke:#181818;stroke-width:1.0;" width="10" x="944" y="219.3672"/><rect fill="#FFFFFF" height="93.873" style="stroke:#181818;stroke-width:1.0;" width="10" x="944" y="469.6953"/><rect fill="#FFFFFF" height="31.291" style="stroke:#181818;stroke-width:1.0;" width="10" x="1026" y="125.4941"/><rect fill="#FFFFFF" height="31.291" style="stroke:#181818;stroke-width:1.0;" width="10" x="1026" y="375.8223"/><line style="stroke:#181818;stroke-width:0.5;stroke-dasharray:5.0,5.0;" x1="14" x2="14" y1="60.9121" y2="644.1504"/><line style="stroke:#181818;stroke-width:0.5;stroke-dasharray:5.0,5.0;" x1="416" x2="416" y1="60.9121" y2="644.1504"/><line style="stroke:#181818;stroke-width:0.5;stroke-dasharray:5.0,5.0;" x1="703.5" x2="703.5" y1="60.9121" y2="644.1504"/><line style="stroke:#181818;stroke-width:0.5;stroke-dasharray:5.0,5.0;" x1="949" x2="949" y1="60.9121" y2="644.1504"/><line style="stroke:#181818;stroke-width:0.5;stroke-dasharray:5.0,5.0;" x1="1031" x2="1031" y1="60.9121" y2="644.1504"/><line style="stroke:#181818;stroke-width:0.5;stroke-dasharray:5.0,5.0;" x1="1115" x2="1115" y1="60.9121" y2="644.1504"/><rect fill="#E2E2F0" height="32.6211" rx="2.5" ry="2.5" style="stroke:#181818;stroke-width:0.5;" width="18" x="5" y="27.291"/><text fill="#000000" font-family="sans-serif" font-size="14" lengthAdjust="spacing" textLength="4" x="12" y="49.3984">&#160;</text><rect fill="#E2E2F0" height="32.6211" rx="2.5" ry="2.5" style="stroke:#181818;stroke-width:0.5;" width="18" x="5" y="643.1504"/><text fill="#000000" font-family="sans-serif" font-size="14" lengthAdjust="spacing" textLength="4" x="12" y="665.2578">&#160;</text><rect fill="#E2E2F0" height="32.6211" rx="2.5" ry="2.5" style="stroke:#181818;stroke-width:0.5;" width="76" x="378" y="27.291"/><text fill="#000000" font-family="sans-serif" font-size="14" lengthAdjust="spacing" textLength="62" x="385" y="49.3984">Controller</text><rect fill="#E2E2F0" height="32.6211" rx="2.5" ry="2.5" style="stroke:#181818;stroke-width:0.5;" width="76" x="378" y="643.1504"/><text fill="#000000" font-family="sans-serif" font-size="14" lengthAdjust="spacing" textLength="62" x="385" y="665.2578">Controller</text><rect fill="#E2E2F0" height="32.6211" rx="2.5" ry="2.5" style="stroke:#181818;stroke-width:0.5;" width="61" x="673.5" y="27.291"/><text fill="#000000" font-family="sans-serif" font-size="14" lengthAdjust="spacing" textLength="47" x="680.5" y="49.3984">Service</text><rect fill="#E2E2F0" height="32.6211" rx="2.5" ry="2.5" style="stroke:#181818;stroke-width:0.5;" width="61" x="673.5" y="643.1504"/><text fill="#000000" font-family="sans-serif" font-size="14" lengthAdjust="spacing" textLength="47" x="680.5" y="665.2578">Service</text><rect fill="#E2E2F0" height="32.6211" rx="2.5" ry="2.5" style="stroke:#181818;stroke-width:0.5;" width="82" x="908" y="27.291"/><text fill="#000000" font-family="sans-serif" font-size="14" lengthAdjust="spacing" textLength="68" x="915" y="49.3984">Repository</text><rect fill="#E2E2F0" height="32.6211" rx="2.5" ry="2.5" style="stroke:#181818;stroke-width:0.5;" width="82" x="908" y="643.1504"/><text fill="#000000" font-family="sans-serif" font-size="14" lengthAdjust="spacing" textLength="68" x="915" y="665.2578">Repository</text><rect fill="#E2E2F0" height="32.6211" rx="2.5" ry="2.5" style="stroke:#181818;stroke-width:0.5;" width="62" x="1000" y="27.291"/><text fill="#000000" font-family="sans-serif" font-size="14" lengthAdjust="spacing" textLength="48" x="1007" y="49.3984">Domain</text><rect fill="#E2E2F0" height="32.6211" rx="2.5" ry="2.5" style="stroke:#181818;stroke-width:0.5;" width="62" x="1000" y="643.1504"/><text fill="#000000" font-family="sans-serif" font-size="14" lengthAdjust="spacing" textLength="48" x="1007" y="665.2578">Domain</text><rect fill="#E2E2F0" height="32.6211" rx="2.5" ry="2.5" style="stroke:#181818;stroke-width:0.5;" width="18" x="1106" y="27.291"/><text fill="#000000" font-family="sans-serif" font-size="14" lengthAdjust="spacing" textLength="4" x="1113" y="49.3984">&#160;</text><rect fill="#E2E2F0" height="32.6211" rx="2.5" ry="2.5" style="stroke:#181818;stroke-width:0.5;" width="18" x="1106" y="643.1504"/><text fill="#000000" font-family="sans-serif" font-size="14" lengthAdjust="spacing" textLength="4" x="1113" y="665.2578">&#160;</text><rect fill="#FFFFFF" height="531.9473" style="stroke:#181818;stroke-width:1.0;" width="10" x="411" y="94.2031"/><rect fill="#FFFFFF" height="156.4551" style="stroke:#181818;stroke-width:1.0;" width="10" x="699" y="188.0762"/><rect fill="#FFFFFF" height="156.4551" style="stroke:#181818;stroke-width:1.0;" width="10" x="699" y="438.4043"/><rect fill="#FFFFFF" height="93.873" style="stroke:#181818;stroke-width:1.0;" width="10" x="944" y="219.3672"/><rect fill="#FFFFFF" height="93.873" style="stroke:#181818;stroke-width:1.0;" width="10" x="944" y="469.6953"/><rect fill="#FFFFFF" height="31.291" style="stroke:#181818;stroke-width:1.0;" width="10" x="1026" y="125.4941"/><rect fill="#FFFFFF" height="31.291" style="stroke:#181818;stroke-width:1.0;" width="10" x="1026" y="375.8223"/><ellipse cx="13.5" cy="93.4531" fill="none" rx="4" ry="4" style="stroke:#181818;stroke-width:1.5;"/><polygon fill="#181818" points="399,90.2031,409,94.2031,399,98.2031,403,94.2031" style="stroke:#181818;stroke-width:1.0;"/><line style="stroke:#181818;stroke-width:1.0;" x1="18" x2="405" y1="94.2031" y2="94.2031"/><text fill="#000000" font-family="sans-serif" font-size="13" font-weight="bold" lengthAdjust="spacing" textLength="7" x="21" y="88.9404">1</text><text fill="#000000" font-family="sans-serif" font-size="13" lengthAdjust="spacing" textLength="367" x="32" y="88.9404">GET /devices?room_id={roomId}&amp;device_type_id={Temperature}</text><polygon fill="#181818" points="1014,121.4941,1024,125.4941,1014,129.4941,1018,125.4941" style="stroke:#181818;stroke-width:1.0;"/><line style="stroke:#181818;stroke-width:1.0;" x1="421" x2="1020" y1="125.4941" y2="125.4941"/><text fill="#000000" font-family="sans-serif" font-size="13" font-weight="bold" lengthAdjust="spacing" textLength="7" x="428" y="120.2314">2</text><text fill="#000000" font-family="sans-serif" font-size="13" lengthAdjust="spacing" textLength="115" x="439" y="120.2314">RoomID(strRoomID)</text><polygon fill="#181818" points="432,152.7852,422,156.7852,432,160.7852,428,156.7852" style="stroke:#181818;stroke-width:1.0;"/><line style="stroke:#181818;stroke-width:1.0;stroke-dasharray:2.0,2.0;" x1="426" x2="1030" y1="156.7852" y2="156.7852"/><text fill="#000000" font-family="sans-serif" font-size="13" font-weight="bold" lengthAdjust="spacing" textLength="7" x="438" y="151.5225">3</text><text fill="#000000" font-family="sans-serif" font-size="13" lengthAdjust="spacing" textLength="41" x="449" y="151.5225">roomID</text><polygon fill="#181818" points="687,184.0762,697,188.0762,687,192.0762,691,188.0762" style="stroke:#181818;stroke-width:1.0;"/><line style="stroke:#181818;stroke-width:1.0;" x1="421" x2="693" y1="188.0762" y2="188.0762"/><text fill="#000000" font-family="sans-serif" font-size="13" font-weight="bold" lengthAdjust="spacing" textLength="7" x="428" y="182.8135">4</text><text fill="#000000" font-family="sans-serif" font-size="13" lengthAdjust="spacing" textLength="174" x="439" y="182.8135">getDevicesByRoomID(roomID)</text><polygon fill="#181818" points="932,215.3672,942,219.3672,932,223.3672,936,219.3672" style="stroke:#181818;stroke-width:1.0;"/><line style="stroke:#181818;stroke-width:1.0;" x1="709" x2="938" y1="219.3672" y2="219.3672"/><text fill="#000000" font-family="sans-serif" font-size="13" font-weight="bold" lengthAdjust="spacing" textLength="7" x="716" y="214.1045">5</text><text fill="#000000" font-family="sans-serif" font-size="13" lengthAdjust="spacing" textLength="131" x="727" y="214.1045">findByRoomID(roomID)</text><ellipse cx="1114.5" cy="249.9082" fill="none" rx="4" ry="4" style="stroke:#181818;stroke-width:1.5;"/><polygon fill="#181818" points="1097.5,246.6582,1107.5,250.6582,1097.5,254.6582,1101.5,250.6582" style="stroke:#181818;stroke-width:1.0;"/><line style="stroke:#181818;stroke-width:1.0;" x1="954" x2="1103.5" y1="250.6582" y2="250.6582"/><text fill="#000000" font-family="sans-serif" font-size="13" font-weight="bold" lengthAdjust="spacing" textLength="7" x="961" y="245.3955">6</text><text fill="#000000" font-family="sans-serif" font-size="13" lengthAdjust="spacing" textLength="20" x="972" y="245.3955">find</text><polygon fill="#181818" points="965,277.9492,955,281.9492,965,285.9492,961,281.9492" style="stroke:#181818;stroke-width:1.0;"/><ellipse cx="1114.5" cy="281.1992" fill="none" rx="4" ry="4" style="stroke:#181818;stroke-width:1.5;"/><line style="stroke:#181818;stroke-width:1.0;stroke-dasharray:2.0,2.0;" x1="959" x2="1110" y1="281.9492" y2="281.9492"/><text fill="#000000" font-family="sans-serif" font-size="13" font-weight="bold" lengthAdjust="spacing" textLength="7" x="971" y="276.6865">7</text><text fill="#000000" font-family="sans-serif" font-size="13" lengthAdjust="spacing" textLength="119" x="982" y="276.6865">deviceDataModelList</text><polygon fill="#181818" points="720,309.2402,710,313.2402,720,317.2402,716,313.2402" style="stroke:#181818;stroke-width:1.0;"/><line style="stroke:#181818;stroke-width:1.0;stroke-dasharray:2.0,2.0;" x1="714" x2="948" y1="313.2402" y2="313.2402"/><text fill="#000000" font-family="sans-serif" font-size="13" font-weight="bold" lengthAdjust="spacing" textLength="7" x="726" y="307.9775">8</text><text fill="#000000" font-family="sans-serif" font-size="13" lengthAdjust="spacing" textLength="57" x="737" y="307.9775">deviceList</text><polygon fill="#181818" points="432,340.5313,422,344.5313,432,348.5313,428,344.5313" style="stroke:#181818;stroke-width:1.0;"/><line style="stroke:#181818;stroke-width:1.0;stroke-dasharray:2.0,2.0;" x1="426" x2="703" y1="344.5313" y2="344.5313"/><text fill="#000000" font-family="sans-serif" font-size="13" font-weight="bold" lengthAdjust="spacing" textLength="7" x="438" y="339.2686">9</text><text fill="#000000" font-family="sans-serif" font-size="13" lengthAdjust="spacing" textLength="57" x="449" y="339.2686">deviceList</text><polygon fill="#181818" points="1014,371.8223,1024,375.8223,1014,379.8223,1018,375.8223" style="stroke:#181818;stroke-width:1.0;"/><line style="stroke:#181818;stroke-width:1.0;" x1="421" x2="1020" y1="375.8223" y2="375.8223"/><text fill="#000000" font-family="sans-serif" font-size="13" font-weight="bold" lengthAdjust="spacing" textLength="14" x="428" y="370.5596">10</text><text fill="#000000" font-family="sans-serif" font-size="13" lengthAdjust="spacing" textLength="165" x="446" y="370.5596">deviceTypeID(strDeviceType)</text><polygon fill="#181818" points="432,403.1133,422,407.1133,432,411.1133,428,407.1133" style="stroke:#181818;stroke-width:1.0;"/><line style="stroke:#181818;stroke-width:1.0;stroke-dasharray:2.0,2.0;" x1="426" x2="1030" y1="407.1133" y2="407.1133"/><text fill="#000000" font-family="sans-serif" font-size="13" font-weight="bold" lengthAdjust="spacing" textLength="14" x="438" y="401.8506">11</text><text fill="#000000" font-family="sans-serif" font-size="13" lengthAdjust="spacing" textLength="76" x="456" y="401.8506">deviceTypeID</text><polygon fill="#181818" points="687,434.4043,697,438.4043,687,442.4043,691,438.4043" style="stroke:#181818;stroke-width:1.0;"/><line style="stroke:#181818;stroke-width:1.0;" x1="421" x2="693" y1="438.4043" y2="438.4043"/><text fill="#000000" font-family="sans-serif" font-size="13" font-weight="bold" lengthAdjust="spacing" textLength="14" x="428" y="433.1416">12</text><text fill="#000000" font-family="sans-serif" font-size="13" lengthAdjust="spacing" textLength="241" x="446" y="433.1416">getDevicesByDeviceTypeID(deviceTypeID)</text><polygon fill="#181818" points="932,465.6953,942,469.6953,932,473.6953,936,469.6953" style="stroke:#181818;stroke-width:1.0;"/><line style="stroke:#181818;stroke-width:1.0;" x1="709" x2="938" y1="469.6953" y2="469.6953"/><text fill="#000000" font-family="sans-serif" font-size="13" font-weight="bold" lengthAdjust="spacing" textLength="14" x="716" y="464.4326">13</text><text fill="#000000" font-family="sans-serif" font-size="13" lengthAdjust="spacing" textLength="198" x="734" y="464.4326">findByDeviceTypeID(deviceTypeID)</text><ellipse cx="1114.5" cy="500.2363" fill="none" rx="4" ry="4" style="stroke:#181818;stroke-width:1.5;"/><polygon fill="#181818" points="1097.5,496.9863,1107.5,500.9863,1097.5,504.9863,1101.5,500.9863" style="stroke:#181818;stroke-width:1.0;"/><line style="stroke:#181818;stroke-width:1.0;" x1="954" x2="1103.5" y1="500.9863" y2="500.9863"/><text fill="#000000" font-family="sans-serif" font-size="13" font-weight="bold" lengthAdjust="spacing" textLength="14" x="961" y="495.7236">14</text><text fill="#000000" font-family="sans-serif" font-size="13" lengthAdjust="spacing" textLength="20" x="979" y="495.7236">find</text><polygon fill="#181818" points="965,528.2773,955,532.2773,965,536.2773,961,532.2773" style="stroke:#181818;stroke-width:1.0;"/><ellipse cx="1114.5" cy="531.5273" fill="none" rx="4" ry="4" style="stroke:#181818;stroke-width:1.5;"/><line style="stroke:#181818;stroke-width:1.0;stroke-dasharray:2.0,2.0;" x1="959" x2="1110" y1="532.2773" y2="532.2773"/><text fill="#000000" font-family="sans-serif" font-size="13" font-weight="bold" lengthAdjust="spacing" textLength="14" x="971" y="527.0146">15</text><text fill="#000000" font-family="sans-serif" font-size="13" lengthAdjust="spacing" textLength="119" x="989" y="527.0146">deviceDataModelList</text><polygon fill="#181818" points="720,559.5684,710,563.5684,720,567.5684,716,563.5684" style="stroke:#181818;stroke-width:1.0;"/><line style="stroke:#181818;stroke-width:1.0;stroke-dasharray:2.0,2.0;" x1="714" x2="948" y1="563.5684" y2="563.5684"/><text fill="#000000" font-family="sans-serif" font-size="13" font-weight="bold" lengthAdjust="spacing" textLength="14" x="726" y="558.3057">16</text><text fill="#000000" font-family="sans-serif" font-size="13" lengthAdjust="spacing" textLength="57" x="744" y="558.3057">deviceList</text><polygon fill="#181818" points="432,590.8594,422,594.8594,432,598.8594,428,594.8594" style="stroke:#181818;stroke-width:1.0;"/><line style="stroke:#181818;stroke-width:1.0;stroke-dasharray:2.0,2.0;" x1="426" x2="703" y1="594.8594" y2="594.8594"/><text fill="#000000" font-family="sans-serif" font-size="13" font-weight="bold" lengthAdjust="spacing" textLength="14" x="438" y="589.5967">17</text><text fill="#000000" font-family="sans-serif" font-size="13" lengthAdjust="spacing" textLength="57" x="456" y="589.5967">deviceList</text><ellipse cx="13.5" cy="625.4004" fill="none" rx="4" ry="4" style="stroke:#181818;stroke-width:1.5;"/><polygon fill="#181818" points="30.5,622.1504,20.5,626.1504,30.5,630.1504,26.5,626.1504" style="stroke:#181818;stroke-width:1.0;"/><line style="stroke:#181818;stroke-width:1.0;stroke-dasharray:2.0,2.0;" x1="28.5" x2="415" y1="626.1504" y2="626.1504"/><text fill="#000000" font-family="sans-serif" font-size="13" font-weight="bold" lengthAdjust="spacing" textLength="14" x="31" y="620.8877">18</text><text fill="#000000" font-family="sans-serif" font-size="13" lengthAdjust="spacing" textLength="92" x="49" y="620.8877">Json/status 200</text><!--SRC=[lPD1Jzmm48Nl_XNk7cWvXAnwNAaWWH6qOhNLPhjNP99XiHHxKdk2kghuxntRGB9TiVJKv69dtZo_-P9yV23gmgmikrOxwcrxKgCj0_pimTLGD4PllBRYG-VrnchPwYts98C5qauBeNj2rzixy49qsfEfJSS-SiAt3l97Y8Kx_2KdbUNoDLgO2CdNZlW27NbiM_2fwsArlDaNLU0VJGr9KQttwqleC1X2lqsIvUNtnRv8eTN69O5Qp0MuHdAwVLsEVwu4Nt48YSLfoYLdykfo9Si6OfXmvX7jhMc-_8wBhytJKIxSqhQ3z7m5jWElgVVmnBngCe-Q8CyeaYCxSnOsNaOBzIcGpwlZGHx3YgWgXXpfH2KQs5MzU5RhcTm0gHpqVFlixl-sPfQYMiUEY8nzxurhtfOdhY99YrDaHCyT38hNM0m-cOJIfEVOG7jZ0hqqfdYlabGPZP6FY9c6OGyeH_iuooxJtBVYjv79gjVzEtJ7ZGSOort8QdpSsE9zuF_I-ZRy_yz-O1sZf9za9hy5T6KW_jo3_3oTZlNvYnT_0000]--></g></svg>