<?xml version="1.0" encoding="us-ascii" standalone="no"?><svg xmlns="http://www.w3.org/2000/svg" xmlns:xlink="http://www.w3.org/1999/xlink" contentStyleType="text/css" height="937px" preserveAspectRatio="none" style="width:2795px;height:937px;background:#FFFFFF;" version="1.1" viewBox="0 0 2795 937" width="2795px" zoomAndPan="magnify"><defs/><g><rect fill="#DDDDDD" height="925.0996" style="stroke:#181818;stroke-width:0.5;" width="1287" x="1478" y="6"/><text fill="#000000" font-family="sans-serif" font-size="13" font-weight="bold" lengthAdjust="spacing" textLength="128" x="2057.5" y="20.0283">Power Consumption</text><rect fill="#FFFFFF" height="782.2754" style="stroke:#181818;stroke-width:1.0;" width="10" x="1515" y="94.2031"/><rect fill="#FFFFFF" height="156.4551" style="stroke:#181818;stroke-width:1.0;" width="10" x="2095" y="438.4043"/><rect fill="#FFFFFF" height="156.4551" style="stroke:#181818;stroke-width:1.0;" width="10" x="2095" y="626.1504"/><rect fill="#FFFFFF" height="31.291" style="stroke:#181818;stroke-width:1.0;" width="10" x="2095" y="813.8965"/><rect fill="#FFFFFF" height="93.873" style="stroke:#181818;stroke-width:1.0;" width="10" x="2643" y="469.6953"/><rect fill="#FFFFFF" height="93.873" style="stroke:#181818;stroke-width:1.0;" width="10" x="2643" y="657.4414"/><rect fill="#FFFFFF" height="31.291" style="stroke:#181818;stroke-width:1.0;" width="10" x="2725" y="125.4941"/><rect fill="#FFFFFF" height="31.291" style="stroke:#181818;stroke-width:1.0;" width="10" x="2725" y="188.0762"/><rect fill="#FFFFFF" height="31.291" style="stroke:#181818;stroke-width:1.0;" width="10" x="2725" y="250.6582"/><rect fill="#FFFFFF" height="31.291" style="stroke:#181818;stroke-width:1.0;" width="10" x="2725" y="313.2402"/><rect fill="#FFFFFF" height="31.291" style="stroke:#181818;stroke-width:1.0;" width="10" x="2725" y="375.8223"/><line style="stroke:#181818;stroke-width:0.5;stroke-dasharray:5.0,5.0;" x1="14" x2="14" y1="60.9121" y2="894.4785"/><line style="stroke:#181818;stroke-width:0.5;stroke-dasharray:5.0,5.0;" x1="1520" x2="1520" y1="60.9121" y2="894.4785"/><line style="stroke:#181818;stroke-width:0.5;stroke-dasharray:5.0,5.0;" x1="2099.5" x2="2099.5" y1="60.9121" y2="894.4785"/><line style="stroke:#181818;stroke-width:0.5;stroke-dasharray:5.0,5.0;" x1="2648" x2="2648" y1="60.9121" y2="894.4785"/><line style="stroke:#181818;stroke-width:0.5;stroke-dasharray:5.0,5.0;" x1="2730" x2="2730" y1="60.9121" y2="894.4785"/><line style="stroke:#181818;stroke-width:0.5;stroke-dasharray:5.0,5.0;" x1="2780" x2="2780" y1="60.9121" y2="894.4785"/><rect fill="#E2E2F0" height="32.6211" rx="2.5" ry="2.5" style="stroke:#181818;stroke-width:0.5;" width="18" x="5" y="27.291"/><text fill="#000000" font-family="sans-serif" font-size="14" lengthAdjust="spacing" textLength="4" x="12" y="49.3984">&#160;</text><rect fill="#E2E2F0" height="32.6211" rx="2.5" ry="2.5" style="stroke:#181818;stroke-width:0.5;" width="18" x="5" y="893.4785"/><text fill="#000000" font-family="sans-serif" font-size="14" lengthAdjust="spacing" textLength="4" x="12" y="915.5859">&#160;</text><rect fill="#E2E2F0" height="32.6211" rx="2.5" ry="2.5" style="stroke:#181818;stroke-width:0.5;" width="76" x="1482" y="27.291"/><text fill="#000000" font-family="sans-serif" font-size="14" lengthAdjust="spacing" textLength="62" x="1489" y="49.3984">Controller</text><rect fill="#E2E2F0" height="32.6211" rx="2.5" ry="2.5" style="stroke:#181818;stroke-width:0.5;" width="76" x="1482" y="893.4785"/><text fill="#000000" font-family="sans-serif" font-size="14" lengthAdjust="spacing" textLength="62" x="1489" y="915.5859">Controller</text><rect fill="#E2E2F0" height="32.6211" rx="2.5" ry="2.5" style="stroke:#181818;stroke-width:0.5;" width="61" x="2069.5" y="27.291"/><text fill="#000000" font-family="sans-serif" font-size="14" lengthAdjust="spacing" textLength="47" x="2076.5" y="49.3984">Service</text><rect fill="#E2E2F0" height="32.6211" rx="2.5" ry="2.5" style="stroke:#181818;stroke-width:0.5;" width="61" x="2069.5" y="893.4785"/><text fill="#000000" font-family="sans-serif" font-size="14" lengthAdjust="spacing" textLength="47" x="2076.5" y="915.5859">Service</text><rect fill="#E2E2F0" height="32.6211" rx="2.5" ry="2.5" style="stroke:#181818;stroke-width:0.5;" width="82" x="2607" y="27.291"/><text fill="#000000" font-family="sans-serif" font-size="14" lengthAdjust="spacing" textLength="68" x="2614" y="49.3984">Repository</text><rect fill="#E2E2F0" height="32.6211" rx="2.5" ry="2.5" style="stroke:#181818;stroke-width:0.5;" width="82" x="2607" y="893.4785"/><text fill="#000000" font-family="sans-serif" font-size="14" lengthAdjust="spacing" textLength="68" x="2614" y="915.5859">Repository</text><rect fill="#E2E2F0" height="32.6211" rx="2.5" ry="2.5" style="stroke:#181818;stroke-width:0.5;" width="62" x="2699" y="27.291"/><text fill="#000000" font-family="sans-serif" font-size="14" lengthAdjust="spacing" textLength="48" x="2706" y="49.3984">Domain</text><rect fill="#E2E2F0" height="32.6211" rx="2.5" ry="2.5" style="stroke:#181818;stroke-width:0.5;" width="62" x="2699" y="893.4785"/><text fill="#000000" font-family="sans-serif" font-size="14" lengthAdjust="spacing" textLength="48" x="2706" y="915.5859">Domain</text><rect fill="#E2E2F0" height="32.6211" rx="2.5" ry="2.5" style="stroke:#181818;stroke-width:0.5;" width="18" x="2771" y="27.291"/><text fill="#000000" font-family="sans-serif" font-size="14" lengthAdjust="spacing" textLength="4" x="2778" y="49.3984">&#160;</text><rect fill="#E2E2F0" height="32.6211" rx="2.5" ry="2.5" style="stroke:#181818;stroke-width:0.5;" width="18" x="2771" y="893.4785"/><text fill="#000000" font-family="sans-serif" font-size="14" lengthAdjust="spacing" textLength="4" x="2778" y="915.5859">&#160;</text><rect fill="#FFFFFF" height="782.2754" style="stroke:#181818;stroke-width:1.0;" width="10" x="1515" y="94.2031"/><rect fill="#FFFFFF" height="156.4551" style="stroke:#181818;stroke-width:1.0;" width="10" x="2095" y="438.4043"/><rect fill="#FFFFFF" height="156.4551" style="stroke:#181818;stroke-width:1.0;" width="10" x="2095" y="626.1504"/><rect fill="#FFFFFF" height="31.291" style="stroke:#181818;stroke-width:1.0;" width="10" x="2095" y="813.8965"/><rect fill="#FFFFFF" height="93.873" style="stroke:#181818;stroke-width:1.0;" width="10" x="2643" y="469.6953"/><rect fill="#FFFFFF" height="93.873" style="stroke:#181818;stroke-width:1.0;" width="10" x="2643" y="657.4414"/><rect fill="#FFFFFF" height="31.291" style="stroke:#181818;stroke-width:1.0;" width="10" x="2725" y="125.4941"/><rect fill="#FFFFFF" height="31.291" style="stroke:#181818;stroke-width:1.0;" width="10" x="2725" y="188.0762"/><rect fill="#FFFFFF" height="31.291" style="stroke:#181818;stroke-width:1.0;" width="10" x="2725" y="250.6582"/><rect fill="#FFFFFF" height="31.291" style="stroke:#181818;stroke-width:1.0;" width="10" x="2725" y="313.2402"/><rect fill="#FFFFFF" height="31.291" style="stroke:#181818;stroke-width:1.0;" width="10" x="2725" y="375.8223"/><ellipse cx="13.5" cy="93.4531" fill="none" rx="4" ry="4" style="stroke:#181818;stroke-width:1.5;"/><polygon fill="#181818" points="1503,90.2031,1513,94.2031,1503,98.2031,1507,94.2031" style="stroke:#181818;stroke-width:1.0;"/><line style="stroke:#181818;stroke-width:1.0;" x1="18" x2="1509" y1="94.2031" y2="94.2031"/><text fill="#000000" font-family="sans-serif" font-size="13" font-weight="bold" lengthAdjust="spacing" textLength="7" x="21" y="88.9404">1</text><text fill="#000000" font-family="sans-serif" font-size="13" lengthAdjust="spacing" textLength="1471" x="32" y="88.9404">GET /logs/temperature-difference?outsideDeviceIDStr={outsideDeviceIDStr}&amp;insideDeviceIDStr={insideDeviceIDStr}&amp;initialTime={initialTime}&amp;finalTime={finalTime}&amp;timeDelta={timeDelta} (outsideDeviceDTO, insideDeviceDTO, initialTime, endTime, timeDelta)</text><polygon fill="#181818" points="2713,121.4941,2723,125.4941,2713,129.4941,2717,125.4941" style="stroke:#181818;stroke-width:1.0;"/><line style="stroke:#181818;stroke-width:1.0;" x1="1525" x2="2719" y1="125.4941" y2="125.4941"/><text fill="#000000" font-family="sans-serif" font-size="13" font-weight="bold" lengthAdjust="spacing" textLength="7" x="1532" y="120.2314">2</text><text fill="#000000" font-family="sans-serif" font-size="13" lengthAdjust="spacing" textLength="167" x="1543" y="120.2314">DeviceID(outsideDeviceIDStr)</text><polygon fill="#181818" points="1536,152.7852,1526,156.7852,1536,160.7852,1532,156.7852" style="stroke:#181818;stroke-width:1.0;"/><line style="stroke:#181818;stroke-width:1.0;stroke-dasharray:2.0,2.0;" x1="1530" x2="2729" y1="156.7852" y2="156.7852"/><text fill="#000000" font-family="sans-serif" font-size="13" font-weight="bold" lengthAdjust="spacing" textLength="7" x="1542" y="151.5225">3</text><text fill="#000000" font-family="sans-serif" font-size="13" lengthAdjust="spacing" textLength="48" x="1553" y="151.5225">deviceID</text><polygon fill="#181818" points="2713,184.0762,2723,188.0762,2713,192.0762,2717,188.0762" style="stroke:#181818;stroke-width:1.0;"/><line style="stroke:#181818;stroke-width:1.0;" x1="1525" x2="2719" y1="188.0762" y2="188.0762"/><text fill="#000000" font-family="sans-serif" font-size="13" font-weight="bold" lengthAdjust="spacing" textLength="7" x="1532" y="182.8135">4</text><text fill="#000000" font-family="sans-serif" font-size="13" lengthAdjust="spacing" textLength="159" x="1543" y="182.8135">DeviceID(insideDeviceIDStr)</text><polygon fill="#181818" points="1536,215.3672,1526,219.3672,1536,223.3672,1532,219.3672" style="stroke:#181818;stroke-width:1.0;"/><line style="stroke:#181818;stroke-width:1.0;stroke-dasharray:2.0,2.0;" x1="1530" x2="2729" y1="219.3672" y2="219.3672"/><text fill="#000000" font-family="sans-serif" font-size="13" font-weight="bold" lengthAdjust="spacing" textLength="7" x="1542" y="214.1045">5</text><text fill="#000000" font-family="sans-serif" font-size="13" lengthAdjust="spacing" textLength="48" x="1553" y="214.1045">deviceID</text><polygon fill="#181818" points="2713,246.6582,2723,250.6582,2713,254.6582,2717,250.6582" style="stroke:#181818;stroke-width:1.0;"/><line style="stroke:#181818;stroke-width:1.0;" x1="1525" x2="2719" y1="250.6582" y2="250.6582"/><text fill="#000000" font-family="sans-serif" font-size="13" font-weight="bold" lengthAdjust="spacing" textLength="7" x="1532" y="245.3955">6</text><text fill="#000000" font-family="sans-serif" font-size="13" lengthAdjust="spacing" textLength="164" x="1543" y="245.3955">SensorType(strTemperature)</text><polygon fill="#181818" points="1536,277.9492,1526,281.9492,1536,285.9492,1532,281.9492" style="stroke:#181818;stroke-width:1.0;"/><line style="stroke:#181818;stroke-width:1.0;stroke-dasharray:2.0,2.0;" x1="1530" x2="2729" y1="281.9492" y2="281.9492"/><text fill="#000000" font-family="sans-serif" font-size="13" font-weight="bold" lengthAdjust="spacing" textLength="7" x="1542" y="276.6865">7</text><text fill="#000000" font-family="sans-serif" font-size="13" lengthAdjust="spacing" textLength="67" x="1553" y="276.6865">sensorType</text><polygon fill="#181818" points="2713,309.2402,2723,313.2402,2713,317.2402,2717,313.2402" style="stroke:#181818;stroke-width:1.0;"/><line style="stroke:#181818;stroke-width:1.0;" x1="1525" x2="2719" y1="313.2402" y2="313.2402"/><text fill="#000000" font-family="sans-serif" font-size="13" font-weight="bold" lengthAdjust="spacing" textLength="7" x="1532" y="307.9775">8</text><text fill="#000000" font-family="sans-serif" font-size="13" lengthAdjust="spacing" textLength="187" x="1543" y="307.9775">DatePeriod(initialTime, endTime)</text><polygon fill="#181818" points="1536,340.5313,1526,344.5313,1536,348.5313,1532,344.5313" style="stroke:#181818;stroke-width:1.0;"/><line style="stroke:#181818;stroke-width:1.0;stroke-dasharray:2.0,2.0;" x1="1530" x2="2729" y1="344.5313" y2="344.5313"/><text fill="#000000" font-family="sans-serif" font-size="13" font-weight="bold" lengthAdjust="spacing" textLength="7" x="1542" y="339.2686">9</text><text fill="#000000" font-family="sans-serif" font-size="13" lengthAdjust="spacing" textLength="62" x="1553" y="339.2686">datePeriod</text><polygon fill="#181818" points="2713,371.8223,2723,375.8223,2713,379.8223,2717,375.8223" style="stroke:#181818;stroke-width:1.0;"/><line style="stroke:#181818;stroke-width:1.0;" x1="1525" x2="2719" y1="375.8223" y2="375.8223"/><text fill="#000000" font-family="sans-serif" font-size="13" font-weight="bold" lengthAdjust="spacing" textLength="14" x="1532" y="370.5596">10</text><text fill="#000000" font-family="sans-serif" font-size="13" lengthAdjust="spacing" textLength="138" x="1550" y="370.5596">TimeDelta(intTimeDelta)</text><polygon fill="#181818" points="1536,403.1133,1526,407.1133,1536,411.1133,1532,407.1133" style="stroke:#181818;stroke-width:1.0;"/><line style="stroke:#181818;stroke-width:1.0;stroke-dasharray:2.0,2.0;" x1="1530" x2="2729" y1="407.1133" y2="407.1133"/><text fill="#000000" font-family="sans-serif" font-size="13" font-weight="bold" lengthAdjust="spacing" textLength="14" x="1542" y="401.8506">11</text><text fill="#000000" font-family="sans-serif" font-size="13" lengthAdjust="spacing" textLength="55" x="1560" y="401.8506">timeDelta</text><polygon fill="#181818" points="2083,434.4043,2093,438.4043,2083,442.4043,2087,438.4043" style="stroke:#181818;stroke-width:1.0;"/><line style="stroke:#181818;stroke-width:1.0;" x1="1525" x2="2089" y1="438.4043" y2="438.4043"/><text fill="#000000" font-family="sans-serif" font-size="13" font-weight="bold" lengthAdjust="spacing" textLength="14" x="1532" y="433.1416">12</text><text fill="#000000" font-family="sans-serif" font-size="13" lengthAdjust="spacing" textLength="500" x="1550" y="433.1416">getMaxInstTempDiffBetweenDeviceAndOutside(insideDeviceID, sensorType, timeDelta)</text><polygon fill="#181818" points="2631,465.6953,2641,469.6953,2631,473.6953,2635,469.6953" style="stroke:#181818;stroke-width:1.0;"/><line style="stroke:#181818;stroke-width:1.0;" x1="2105" x2="2637" y1="469.6953" y2="469.6953"/><text fill="#000000" font-family="sans-serif" font-size="13" font-weight="bold" lengthAdjust="spacing" textLength="14" x="2112" y="464.4326">13</text><text fill="#000000" font-family="sans-serif" font-size="13" lengthAdjust="spacing" textLength="501" x="2130" y="464.4326">findByDeviceIDAndSensorTypeAndDatePeriodBetween(deviceID, sensorTypeID, period)</text><ellipse cx="2779.5" cy="500.2363" fill="none" rx="4" ry="4" style="stroke:#181818;stroke-width:1.5;"/><polygon fill="#181818" points="2762.5,496.9863,2772.5,500.9863,2762.5,504.9863,2766.5,500.9863" style="stroke:#181818;stroke-width:1.0;"/><line style="stroke:#181818;stroke-width:1.0;" x1="2653" x2="2768.5" y1="500.9863" y2="500.9863"/><text fill="#000000" font-family="sans-serif" font-size="13" font-weight="bold" lengthAdjust="spacing" textLength="14" x="2660" y="495.7236">14</text><text fill="#000000" font-family="sans-serif" font-size="13" lengthAdjust="spacing" textLength="20" x="2678" y="495.7236">find</text><polygon fill="#181818" points="2664,528.2773,2654,532.2773,2664,536.2773,2660,532.2773" style="stroke:#181818;stroke-width:1.0;"/><ellipse cx="2779.5" cy="531.5273" fill="none" rx="4" ry="4" style="stroke:#181818;stroke-width:1.5;"/><line style="stroke:#181818;stroke-width:1.0;stroke-dasharray:2.0,2.0;" x1="2658" x2="2775" y1="532.2773" y2="532.2773"/><text fill="#000000" font-family="sans-serif" font-size="13" font-weight="bold" lengthAdjust="spacing" textLength="14" x="2670" y="527.0146">15</text><text fill="#000000" font-family="sans-serif" font-size="13" lengthAdjust="spacing" textLength="38" x="2688" y="527.0146">logList</text><polygon fill="#181818" points="2116,559.5684,2106,563.5684,2116,567.5684,2112,563.5684" style="stroke:#181818;stroke-width:1.0;"/><line style="stroke:#181818;stroke-width:1.0;stroke-dasharray:2.0,2.0;" x1="2110" x2="2647" y1="563.5684" y2="563.5684"/><text fill="#000000" font-family="sans-serif" font-size="13" font-weight="bold" lengthAdjust="spacing" textLength="14" x="2122" y="558.3057">16</text><text fill="#000000" font-family="sans-serif" font-size="13" lengthAdjust="spacing" textLength="126" x="2140" y="558.3057">logInsideReadingsList</text><polygon fill="#181818" points="1536,590.8594,1526,594.8594,1536,598.8594,1532,594.8594" style="stroke:#181818;stroke-width:1.0;"/><line style="stroke:#181818;stroke-width:1.0;stroke-dasharray:2.0,2.0;" x1="1530" x2="2099" y1="594.8594" y2="594.8594"/><text fill="#000000" font-family="sans-serif" font-size="13" font-weight="bold" lengthAdjust="spacing" textLength="14" x="1542" y="589.5967">17</text><text fill="#000000" font-family="sans-serif" font-size="13" lengthAdjust="spacing" textLength="126" x="1560" y="589.5967">logInsideReadingsList</text><polygon fill="#181818" points="2083,622.1504,2093,626.1504,2083,630.1504,2087,626.1504" style="stroke:#181818;stroke-width:1.0;"/><line style="stroke:#181818;stroke-width:1.0;" x1="1525" x2="2089" y1="626.1504" y2="626.1504"/><text fill="#000000" font-family="sans-serif" font-size="13" font-weight="bold" lengthAdjust="spacing" textLength="14" x="1532" y="620.8877">18</text><text fill="#000000" font-family="sans-serif" font-size="13" lengthAdjust="spacing" textLength="508" x="1550" y="620.8877">getMaxInstTempDiffBetweenDeviceAndOutside(outsideDeviceID, sensorType, timeDelta)</text><polygon fill="#181818" points="2631,653.4414,2641,657.4414,2631,661.4414,2635,657.4414" style="stroke:#181818;stroke-width:1.0;"/><line style="stroke:#181818;stroke-width:1.0;" x1="2105" x2="2637" y1="657.4414" y2="657.4414"/><text fill="#000000" font-family="sans-serif" font-size="13" font-weight="bold" lengthAdjust="spacing" textLength="14" x="2112" y="652.1787">19</text><text fill="#000000" font-family="sans-serif" font-size="13" lengthAdjust="spacing" textLength="501" x="2130" y="652.1787">findByDeviceIDAndSensorTypeAndDatePeriodBetween(deviceID, sensorTypeID, period)</text><ellipse cx="2779.5" cy="687.9824" fill="none" rx="4" ry="4" style="stroke:#181818;stroke-width:1.5;"/><polygon fill="#181818" points="2762.5,684.7324,2772.5,688.7324,2762.5,692.7324,2766.5,688.7324" style="stroke:#181818;stroke-width:1.0;"/><line style="stroke:#181818;stroke-width:1.0;" x1="2653" x2="2768.5" y1="688.7324" y2="688.7324"/><text fill="#000000" font-family="sans-serif" font-size="13" font-weight="bold" lengthAdjust="spacing" textLength="14" x="2660" y="683.4697">20</text><text fill="#000000" font-family="sans-serif" font-size="13" lengthAdjust="spacing" textLength="20" x="2678" y="683.4697">find</text><polygon fill="#181818" points="2664,716.0234,2654,720.0234,2664,724.0234,2660,720.0234" style="stroke:#181818;stroke-width:1.0;"/><ellipse cx="2779.5" cy="719.2734" fill="none" rx="4" ry="4" style="stroke:#181818;stroke-width:1.5;"/><line style="stroke:#181818;stroke-width:1.0;stroke-dasharray:2.0,2.0;" x1="2658" x2="2775" y1="720.0234" y2="720.0234"/><text fill="#000000" font-family="sans-serif" font-size="13" font-weight="bold" lengthAdjust="spacing" textLength="14" x="2670" y="714.7607">21</text><text fill="#000000" font-family="sans-serif" font-size="13" lengthAdjust="spacing" textLength="34" x="2688" y="714.7607">loglist</text><polygon fill="#181818" points="2116,747.3145,2106,751.3145,2116,755.3145,2112,751.3145" style="stroke:#181818;stroke-width:1.0;"/><line style="stroke:#181818;stroke-width:1.0;stroke-dasharray:2.0,2.0;" x1="2110" x2="2647" y1="751.3145" y2="751.3145"/><text fill="#000000" font-family="sans-serif" font-size="13" font-weight="bold" lengthAdjust="spacing" textLength="14" x="2122" y="746.0518">22</text><text fill="#000000" font-family="sans-serif" font-size="13" lengthAdjust="spacing" textLength="144" x="2140" y="746.0518">listLogsOutsideReadings</text><polygon fill="#181818" points="1536,778.6055,1526,782.6055,1536,786.6055,1532,782.6055" style="stroke:#181818;stroke-width:1.0;"/><line style="stroke:#181818;stroke-width:1.0;stroke-dasharray:2.0,2.0;" x1="1530" x2="2099" y1="782.6055" y2="782.6055"/><text fill="#000000" font-family="sans-serif" font-size="13" font-weight="bold" lengthAdjust="spacing" textLength="14" x="1542" y="777.3428">23</text><text fill="#000000" font-family="sans-serif" font-size="13" lengthAdjust="spacing" textLength="144" x="1560" y="777.3428">listLogsOutsideReadings</text><polygon fill="#181818" points="2083,809.8965,2093,813.8965,2083,817.8965,2087,813.8965" style="stroke:#181818;stroke-width:1.0;"/><line style="stroke:#181818;stroke-width:1.0;" x1="1525" x2="2089" y1="813.8965" y2="813.8965"/><text fill="#000000" font-family="sans-serif" font-size="13" font-weight="bold" lengthAdjust="spacing" textLength="14" x="1532" y="808.6338">24</text><text fill="#000000" font-family="sans-serif" font-size="13" lengthAdjust="spacing" textLength="533" x="1550" y="808.6338">getMaxInstTempDiffBetweenDeviceAndOutside(insideReadings, outsideReadings, timeDelta)</text><polygon fill="#181818" points="1536,841.1875,1526,845.1875,1536,849.1875,1532,845.1875" style="stroke:#181818;stroke-width:1.0;"/><line style="stroke:#181818;stroke-width:1.0;stroke-dasharray:2.0,2.0;" x1="1530" x2="2099" y1="845.1875" y2="845.1875"/><text fill="#000000" font-family="sans-serif" font-size="13" font-weight="bold" lengthAdjust="spacing" textLength="14" x="1542" y="839.9248">25</text><text fill="#000000" font-family="sans-serif" font-size="13" lengthAdjust="spacing" textLength="96" x="1560" y="839.9248">maxInstTempDiff</text><ellipse cx="13.5" cy="875.7285" fill="none" rx="4" ry="4" style="stroke:#181818;stroke-width:1.5;"/><polygon fill="#181818" points="30.5,872.4785,20.5,876.4785,30.5,880.4785,26.5,876.4785" style="stroke:#181818;stroke-width:1.0;"/><line style="stroke:#181818;stroke-width:1.0;stroke-dasharray:2.0,2.0;" x1="28.5" x2="1519" y1="876.4785" y2="876.4785"/><text fill="#000000" font-family="sans-serif" font-size="13" font-weight="bold" lengthAdjust="spacing" textLength="14" x="31" y="871.2158">26</text><text fill="#000000" font-family="sans-serif" font-size="13" lengthAdjust="spacing" textLength="103" x="49" y="871.2158">JSON, status 200</text><!--SRC=[tLNBRjim4BppAmWTN0Umww170KbHLqNX8cs2MFa0nbgx12HI9LT9ZC3_tjMBeYmZjj7sqXW8I6guipkpMhtxYPZRS3RBKw6moDBtAvtDBFmgGArWcaYnCI9ZB1S6vKhc1E81_OJb3nOCUzGlFBZJps3uPwriaUKejGfwU7g0HgSfOUXQq6txi2MO9xc22jEi-u1xoBMLgCssmdJRFYpIcP2gWjJBW85AE6NQBoCIAER2reGyO8o90hKgiaUgYx6oFAwdrrxw8V_w9UQpL6_i327BmGWiJAdIUWsc5EoZBj3A128eqrz4IpHNhyEptKYg0MnmLA8aIf76CeFokTliHckfsdEtt8sG_aUGehXwTSiT7_SIYEBR2VUvcWCNVC99hdhXWboGE2kKJmB1quCnprfIgb4-R6iO3ok_wEBKQCQQMzEUr3paINEB9J2uSuWtv8vt8EK_fLs2ijh4snp65atSDSOPhDR5EADSWjo1aJeP7xBld9fTfDFPuxOtY1pZhb5E9dNDTPop6GSXtm1-5oyBPR6KEQBtRWxu3A1ghp-fvBPkkRqMc7W2zzhQ4JSKZBLZY6Yx2HDoUikI-RQDHqITwxJfh6Zo6IS7cCjTNg7yzwbZOSmRSTDhxKPKJKz3oSqiFTtBZuRIZRJO3-5BHu15fSazY4IgZQtWdlH-7aw4lVbtD8YJyOyDt9iT_uc3RngOLWQ-OI4zlw6FJoDHwy7P9XuFy_TibBrscN3T9ptLohqIiZxvqTHBAyeFUiY_BMz_aAD80zho3vUN_bN_orRz_GO0]--></g></svg>