<?xml version="1.0" encoding="us-ascii" standalone="no"?><svg xmlns="http://www.w3.org/2000/svg" xmlns:xlink="http://www.w3.org/1999/xlink" contentStyleType="text/css" height="628px" preserveAspectRatio="none" style="width:1187px;height:628px;background:#FFFFFF;" version="1.1" viewBox="0 0 1187 628" width="1187px" zoomAndPan="magnify"><defs/><g><rect fill="#DDDDDD" height="616.0254" style="stroke:#181818;stroke-width:0.5;" width="677" x="504.5" y="6"/><text fill="#000000" font-family="sans-serif" font-size="13" font-weight="bold" lengthAdjust="spacing" textLength="75" x="805.5" y="20.0283">SmartHome</text><rect fill="#FFFFFF" height="405.4922" style="stroke:#181818;stroke-width:1.0;" width="10" x="267.5" y="116.9121"/><rect fill="#FFFFFF" height="342.9102" style="stroke:#181818;stroke-width:1.0;" width="10" x="541.5" y="148.2031"/><rect fill="#FFFFFF" height="155.1641" style="stroke:#181818;stroke-width:1.0;" width="10" x="722.5" y="304.6582"/><rect fill="#FFFFFF" height="92.582" style="stroke:#181818;stroke-width:1.0;" width="10" x="831.5" y="335.9492"/><rect fill="#FFFFFF" height="93.873" style="stroke:#181818;stroke-width:1.0;" width="10" x="1055.5" y="179.4941"/><rect fill="#FFFFFF" height="30" style="stroke:#181818;stroke-width:1.0;" width="10" x="1134.5" y="367.2402"/><line style="stroke:#181818;stroke-width:0.5;stroke-dasharray:5.0,5.0;" x1="22" x2="22" y1="83.6211" y2="540.4043"/><line style="stroke:#181818;stroke-width:0.5;stroke-dasharray:5.0,5.0;" x1="272" x2="272" y1="83.6211" y2="540.4043"/><line style="stroke:#181818;stroke-width:0.5;stroke-dasharray:5.0,5.0;" x1="546.5" x2="546.5" y1="83.6211" y2="540.4043"/><line style="stroke:#181818;stroke-width:0.5;stroke-dasharray:5.0,5.0;" x1="727" x2="727" y1="83.6211" y2="540.4043"/><line style="stroke:#181818;stroke-width:0.5;stroke-dasharray:5.0,5.0;" x1="836.5" x2="836.5" y1="83.6211" y2="540.4043"/><line style="stroke:#181818;stroke-width:0.5;stroke-dasharray:5.0,5.0;" x1="1060.5" x2="1060.5" y1="83.6211" y2="540.4043"/><line style="stroke:#181818;stroke-width:0.5;stroke-dasharray:5.0,5.0;" x1="1139.5" x2="1139.5" y1="83.6211" y2="540.4043"/><text fill="#000000" font-family="sans-serif" font-size="14" lengthAdjust="spacing" textLength="29" x="5" y="80.1074">User</text><ellipse cx="22.5" cy="13.5" fill="#E2E2F0" rx="8" ry="8" style="stroke:#181818;stroke-width:0.5;"/><path d="M22.5,21.5 L22.5,48.5 M9.5,29.5 L35.5,29.5 M22.5,48.5 L9.5,63.5 M22.5,48.5 L35.5,63.5 " fill="none" style="stroke:#181818;stroke-width:0.5;"/><text fill="#000000" font-family="sans-serif" font-size="14" lengthAdjust="spacing" textLength="29" x="5" y="554.5117">User</text><ellipse cx="22.5" cy="566.5254" fill="#E2E2F0" rx="8" ry="8" style="stroke:#181818;stroke-width:0.5;"/><path d="M22.5,574.5254 L22.5,601.5254 M9.5,582.5254 L35.5,582.5254 M22.5,601.5254 L9.5,616.5254 M22.5,601.5254 L35.5,616.5254 " fill="none" style="stroke:#181818;stroke-width:0.5;"/><rect fill="#E2E2F0" height="32.6211" rx="2.5" ry="2.5" style="stroke:#181818;stroke-width:0.5;" width="79" x="233" y="50"/><text fill="#000000" font-family="sans-serif" font-size="14" lengthAdjust="spacing" textLength="65" x="240" y="72.1074">RestClient</text><rect fill="#E2E2F0" height="32.6211" rx="2.5" ry="2.5" style="stroke:#181818;stroke-width:0.5;" width="79" x="233" y="539.4043"/><text fill="#000000" font-family="sans-serif" font-size="14" lengthAdjust="spacing" textLength="65" x="240" y="561.5117">RestClient</text><rect fill="#E2E2F0" height="32.6211" rx="2.5" ry="2.5" style="stroke:#181818;stroke-width:0.5;" width="76" x="508.5" y="50"/><text fill="#000000" font-family="sans-serif" font-size="14" lengthAdjust="spacing" textLength="62" x="515.5" y="72.1074">Controller</text><rect fill="#E2E2F0" height="32.6211" rx="2.5" ry="2.5" style="stroke:#181818;stroke-width:0.5;" width="76" x="508.5" y="539.4043"/><text fill="#000000" font-family="sans-serif" font-size="14" lengthAdjust="spacing" textLength="62" x="515.5" y="561.5117">Controller</text><rect fill="#E2E2F0" height="32.6211" rx="2.5" ry="2.5" style="stroke:#181818;stroke-width:0.5;" width="61" x="697" y="50"/><text fill="#000000" font-family="sans-serif" font-size="14" lengthAdjust="spacing" textLength="47" x="704" y="72.1074">Service</text><rect fill="#E2E2F0" height="32.6211" rx="2.5" ry="2.5" style="stroke:#181818;stroke-width:0.5;" width="61" x="697" y="539.4043"/><text fill="#000000" font-family="sans-serif" font-size="14" lengthAdjust="spacing" textLength="47" x="704" y="561.5117">Service</text><rect fill="#E2E2F0" height="32.6211" rx="2.5" ry="2.5" style="stroke:#181818;stroke-width:0.5;" width="82" x="795.5" y="50"/><text fill="#000000" font-family="sans-serif" font-size="14" lengthAdjust="spacing" textLength="68" x="802.5" y="72.1074">Repository</text><rect fill="#E2E2F0" height="32.6211" rx="2.5" ry="2.5" style="stroke:#181818;stroke-width:0.5;" width="82" x="795.5" y="539.4043"/><text fill="#000000" font-family="sans-serif" font-size="14" lengthAdjust="spacing" textLength="68" x="802.5" y="561.5117">Repository</text><rect fill="#E2E2F0" height="32.6211" rx="2.5" ry="2.5" style="stroke:#181818;stroke-width:0.5;" width="62" x="1029.5" y="50"/><text fill="#000000" font-family="sans-serif" font-size="14" lengthAdjust="spacing" textLength="48" x="1036.5" y="72.1074">Domain</text><rect fill="#E2E2F0" height="32.6211" rx="2.5" ry="2.5" style="stroke:#181818;stroke-width:0.5;" width="62" x="1029.5" y="539.4043"/><text fill="#000000" font-family="sans-serif" font-size="14" lengthAdjust="spacing" textLength="48" x="1036.5" y="561.5117">Domain</text><rect fill="#E2E2F0" height="32.6211" rx="2.5" ry="2.5" style="stroke:#181818;stroke-width:0.5;" width="76" x="1101.5" y="50"/><text fill="#000000" font-family="sans-serif" font-size="14" lengthAdjust="spacing" textLength="62" x="1108.5" y="72.1074">DataBase</text><rect fill="#E2E2F0" height="32.6211" rx="2.5" ry="2.5" style="stroke:#181818;stroke-width:0.5;" width="76" x="1101.5" y="539.4043"/><text fill="#000000" font-family="sans-serif" font-size="14" lengthAdjust="spacing" textLength="62" x="1108.5" y="561.5117">DataBase</text><rect fill="#FFFFFF" height="405.4922" style="stroke:#181818;stroke-width:1.0;" width="10" x="267.5" y="116.9121"/><rect fill="#FFFFFF" height="342.9102" style="stroke:#181818;stroke-width:1.0;" width="10" x="541.5" y="148.2031"/><rect fill="#FFFFFF" height="155.1641" style="stroke:#181818;stroke-width:1.0;" width="10" x="722.5" y="304.6582"/><rect fill="#FFFFFF" height="92.582" style="stroke:#181818;stroke-width:1.0;" width="10" x="831.5" y="335.9492"/><rect fill="#FFFFFF" height="93.873" style="stroke:#181818;stroke-width:1.0;" width="10" x="1055.5" y="179.4941"/><rect fill="#FFFFFF" height="30" style="stroke:#181818;stroke-width:1.0;" width="10" x="1134.5" y="367.2402"/><polygon fill="#181818" points="255.5,112.9121,265.5,116.9121,255.5,120.9121,259.5,116.9121" style="stroke:#181818;stroke-width:1.0;"/><line style="stroke:#181818;stroke-width:1.0;" x1="22.5" x2="261.5" y1="116.9121" y2="116.9121"/><text fill="#000000" font-family="sans-serif" font-size="13" font-weight="bold" lengthAdjust="spacing" textLength="7" x="29.5" y="111.6494">1</text><text fill="#000000" font-family="sans-serif" font-size="13" lengthAdjust="spacing" textLength="215" x="40.5" y="111.6494">I want to configure the house location</text><polygon fill="#181818" points="529.5,144.2031,539.5,148.2031,529.5,152.2031,533.5,148.2031" style="stroke:#181818;stroke-width:1.0;"/><line style="stroke:#181818;stroke-width:1.0;" x1="277.5" x2="535.5" y1="148.2031" y2="148.2031"/><text fill="#000000" font-family="sans-serif" font-size="13" font-weight="bold" lengthAdjust="spacing" textLength="7" x="284.5" y="142.9404">2</text><text fill="#000000" font-family="sans-serif" font-size="13" lengthAdjust="spacing" textLength="234" x="295.5" y="142.9404">configureHouseLocation(houseDataDTO)</text><polygon fill="#181818" points="1043.5,175.4941,1053.5,179.4941,1043.5,183.4941,1047.5,179.4941" style="stroke:#181818;stroke-width:1.0;"/><line style="stroke:#181818;stroke-width:1.0;" x1="551.5" x2="1049.5" y1="179.4941" y2="179.4941"/><text fill="#000000" font-family="sans-serif" font-size="13" font-weight="bold" lengthAdjust="spacing" textLength="7" x="558.5" y="174.2314">3</text><text fill="#000000" font-family="sans-serif" font-size="13" lengthAdjust="spacing" textLength="474" x="569.5" y="174.2314">createAddress(street, doorNumber, postalCode, countryCode, postalCodeFactory)</text><polygon fill="#181818" points="562.5,206.7852,552.5,210.7852,562.5,214.7852,558.5,210.7852" style="stroke:#181818;stroke-width:1.0;"/><line style="stroke:#181818;stroke-width:1.0;stroke-dasharray:2.0,2.0;" x1="556.5" x2="1054.5" y1="210.7852" y2="210.7852"/><text fill="#000000" font-family="sans-serif" font-size="13" font-weight="bold" lengthAdjust="spacing" textLength="7" x="568.5" y="205.5225">4</text><text fill="#000000" font-family="sans-serif" font-size="13" lengthAdjust="spacing" textLength="46" x="579.5" y="205.5225">address</text><polygon fill="#181818" points="1043.5,238.0762,1053.5,242.0762,1043.5,246.0762,1047.5,242.0762" style="stroke:#181818;stroke-width:1.0;"/><line style="stroke:#181818;stroke-width:1.0;" x1="551.5" x2="1049.5" y1="242.0762" y2="242.0762"/><text fill="#000000" font-family="sans-serif" font-size="13" font-weight="bold" lengthAdjust="spacing" textLength="7" x="558.5" y="236.8135">5</text><text fill="#000000" font-family="sans-serif" font-size="13" lengthAdjust="spacing" textLength="174" x="569.5" y="236.8135">createGPS(latitude, longitude)</text><polygon fill="#181818" points="562.5,269.3672,552.5,273.3672,562.5,277.3672,558.5,273.3672" style="stroke:#181818;stroke-width:1.0;"/><line style="stroke:#181818;stroke-width:1.0;stroke-dasharray:2.0,2.0;" x1="556.5" x2="1059.5" y1="273.3672" y2="273.3672"/><text fill="#000000" font-family="sans-serif" font-size="13" font-weight="bold" lengthAdjust="spacing" textLength="7" x="568.5" y="268.1045">6</text><text fill="#000000" font-family="sans-serif" font-size="13" lengthAdjust="spacing" textLength="21" x="579.5" y="268.1045">gps</text><polygon fill="#181818" points="710.5,300.6582,720.5,304.6582,710.5,308.6582,714.5,304.6582" style="stroke:#181818;stroke-width:1.0;"/><line style="stroke:#181818;stroke-width:1.0;" x1="551.5" x2="716.5" y1="304.6582" y2="304.6582"/><text fill="#000000" font-family="sans-serif" font-size="13" font-weight="bold" lengthAdjust="spacing" textLength="7" x="558.5" y="299.3955">7</text><text fill="#000000" font-family="sans-serif" font-size="13" lengthAdjust="spacing" textLength="141" x="569.5" y="299.3955">addHouse(address, gps)</text><polygon fill="#181818" points="819.5,331.9492,829.5,335.9492,819.5,339.9492,823.5,335.9492" style="stroke:#181818;stroke-width:1.0;"/><line style="stroke:#181818;stroke-width:1.0;" x1="732.5" x2="825.5" y1="335.9492" y2="335.9492"/><text fill="#000000" font-family="sans-serif" font-size="13" font-weight="bold" lengthAdjust="spacing" textLength="7" x="739.5" y="330.6865">8</text><text fill="#000000" font-family="sans-serif" font-size="13" lengthAdjust="spacing" textLength="69" x="750.5" y="330.6865">save(house)</text><polygon fill="#181818" points="1122.5,363.2402,1132.5,367.2402,1122.5,371.2402,1126.5,367.2402" style="stroke:#181818;stroke-width:1.0;"/><line style="stroke:#181818;stroke-width:1.0;" x1="841.5" x2="1128.5" y1="367.2402" y2="367.2402"/><text fill="#000000" font-family="sans-serif" font-size="13" font-weight="bold" lengthAdjust="spacing" textLength="7" x="848.5" y="361.9775">9</text><text fill="#000000" font-family="sans-serif" font-size="13" lengthAdjust="spacing" textLength="26" x="859.5" y="361.9775">save</text><polygon fill="#181818" points="743.5,424.5313,733.5,428.5313,743.5,432.5313,739.5,428.5313" style="stroke:#181818;stroke-width:1.0;"/><line style="stroke:#181818;stroke-width:1.0;stroke-dasharray:2.0,2.0;" x1="737.5" x2="835.5" y1="428.5313" y2="428.5313"/><text fill="#000000" font-family="sans-serif" font-size="13" font-weight="bold" lengthAdjust="spacing" textLength="14" x="749.5" y="423.2686">10</text><text fill="#000000" font-family="sans-serif" font-size="13" lengthAdjust="spacing" textLength="35" x="767.5" y="423.2686">house</text><polygon fill="#181818" points="562.5,455.8223,552.5,459.8223,562.5,463.8223,558.5,459.8223" style="stroke:#181818;stroke-width:1.0;"/><line style="stroke:#181818;stroke-width:1.0;stroke-dasharray:2.0,2.0;" x1="556.5" x2="726.5" y1="459.8223" y2="459.8223"/><text fill="#000000" font-family="sans-serif" font-size="13" font-weight="bold" lengthAdjust="spacing" textLength="14" x="568.5" y="454.5596">11</text><text fill="#000000" font-family="sans-serif" font-size="13" lengthAdjust="spacing" textLength="35" x="586.5" y="454.5596">house</text><polygon fill="#181818" points="288.5,487.1133,278.5,491.1133,288.5,495.1133,284.5,491.1133" style="stroke:#181818;stroke-width:1.0;"/><line style="stroke:#181818;stroke-width:1.0;stroke-dasharray:2.0,2.0;" x1="282.5" x2="545.5" y1="491.1133" y2="491.1133"/><text fill="#000000" font-family="sans-serif" font-size="13" font-weight="bold" lengthAdjust="spacing" textLength="14" x="294.5" y="485.8506">12</text><text fill="#000000" font-family="sans-serif" font-size="13" lengthAdjust="spacing" textLength="61" x="312.5" y="485.8506">houseDTO</text><polygon fill="#181818" points="33.5,518.4043,23.5,522.4043,33.5,526.4043,29.5,522.4043" style="stroke:#181818;stroke-width:1.0;"/><line style="stroke:#181818;stroke-width:1.0;stroke-dasharray:2.0,2.0;" x1="27.5" x2="271.5" y1="522.4043" y2="522.4043"/><text fill="#000000" font-family="sans-serif" font-size="13" font-weight="bold" lengthAdjust="spacing" textLength="14" x="39.5" y="517.1416">13</text><text fill="#000000" font-family="sans-serif" font-size="13" lengthAdjust="spacing" textLength="61" x="57.5" y="517.1416">houseDTO</text><!--SRC=[RLBDRjim3BxhAJHVcWB9SkzXm6AlQu5sAUAiTzPc7G6ow4fqjhpzADcjtIKwIU3tHr9N1-OktApNdGN7VMk_LjIk0xxrw2fSrGOQ3wtwqdbeMj0MJjIp3YqoE50AUYRNjo_evLunUPtz3kWp3K77Y-h0iwbC9-8wss7Wt1fqd02xNAaN-gkpiXNK7RMOAItd4oSdnvwi7KNp_UxX75IYFveA4w9yFg_liADW9DvfCFxnj3q75TI2SGbGR1ylr85X0s5msHGANQqblbAnKRtw9lte6tsl_qGqawx8lPgczwZvWFf0VK1jgG8svEAmp14Oqn24AFJOcWXyqEuYus4aB18_HYZss-k9dkOX9v55H9973OzI_5xN7aDO1FQ8lDGraV-LbhNKCWy6crEDIt7iPSQduJ4LRjD2JpEpE9Pei9hImk1nES3Fft9X9JxtKTcIQzBr-d-HfWkgnays7thby-2Ifh4OxPQHCWicErS2Z3kGrGeXm167aSrGQUq98C1DCSAckknqba9U0_OzH9AR8v9UyfrQEGF5Q6CpxrzaMEL-EuSDUumVGL3fGrt6nU_o3m00]--></g></svg>