<?xml version="1.0" encoding="us-ascii" standalone="no"?><svg xmlns="http://www.w3.org/2000/svg" xmlns:xlink="http://www.w3.org/1999/xlink" contentStyleType="text/css" height="560px" preserveAspectRatio="none" style="width:725px;height:560px;background:#FFFFFF;" version="1.1" viewBox="0 0 725 560" width="725px" zoomAndPan="magnify"><defs/><g><rect fill="#DDDDDD" height="548.3164" style="stroke:#181818;stroke-width:0.5;" width="553" x="84" y="6"/><text fill="#000000" font-family="sans-serif" font-size="13" font-weight="bold" lengthAdjust="spacing" textLength="42" x="339.5" y="20.0283">Server</text><rect fill="#FFFFFF" height="405.4922" style="stroke:#181818;stroke-width:1.0;" width="10" x="121" y="94.2031"/><rect fill="#FFFFFF" height="155.1641" style="stroke:#181818;stroke-width:1.0;" width="10" x="412" y="313.2402"/><rect fill="#FFFFFF" height="92.582" style="stroke:#181818;stroke-width:1.0;" width="10" x="515" y="344.5313"/><rect fill="#FFFFFF" height="31.291" style="stroke:#181818;stroke-width:1.0;" width="10" x="597" y="125.4941"/><rect fill="#FFFFFF" height="31.291" style="stroke:#181818;stroke-width:1.0;" width="10" x="597" y="188.0762"/><rect fill="#FFFFFF" height="31.291" style="stroke:#181818;stroke-width:1.0;" width="10" x="597" y="250.6582"/><rect fill="#FFFFFF" height="30" style="stroke:#181818;stroke-width:1.0;" width="10" x="676" y="375.8223"/><line style="stroke:#181818;stroke-width:0.5;stroke-dasharray:5.0,5.0;" x1="14" x2="14" y1="60.9121" y2="517.6953"/><line style="stroke:#181818;stroke-width:0.5;stroke-dasharray:5.0,5.0;" x1="126" x2="126" y1="60.9121" y2="517.6953"/><line style="stroke:#181818;stroke-width:0.5;stroke-dasharray:5.0,5.0;" x1="416.5" x2="416.5" y1="60.9121" y2="517.6953"/><line style="stroke:#181818;stroke-width:0.5;stroke-dasharray:5.0,5.0;" x1="520" x2="520" y1="60.9121" y2="517.6953"/><line style="stroke:#181818;stroke-width:0.5;stroke-dasharray:5.0,5.0;" x1="602" x2="602" y1="60.9121" y2="517.6953"/><line style="stroke:#181818;stroke-width:0.5;stroke-dasharray:5.0,5.0;" x1="681" x2="681" y1="60.9121" y2="517.6953"/><rect fill="#E2E2F0" height="32.6211" rx="2.5" ry="2.5" style="stroke:#181818;stroke-width:0.5;" width="18" x="5" y="27.291"/><text fill="#000000" font-family="sans-serif" font-size="14" lengthAdjust="spacing" textLength="4" x="12" y="49.3984">&#160;</text><rect fill="#E2E2F0" height="32.6211" rx="2.5" ry="2.5" style="stroke:#181818;stroke-width:0.5;" width="18" x="5" y="516.6953"/><text fill="#000000" font-family="sans-serif" font-size="14" lengthAdjust="spacing" textLength="4" x="12" y="538.8027">&#160;</text><rect fill="#E2E2F0" height="32.6211" rx="2.5" ry="2.5" style="stroke:#181818;stroke-width:0.5;" width="76" x="88" y="27.291"/><text fill="#000000" font-family="sans-serif" font-size="14" lengthAdjust="spacing" textLength="62" x="95" y="49.3984">Controller</text><rect fill="#E2E2F0" height="32.6211" rx="2.5" ry="2.5" style="stroke:#181818;stroke-width:0.5;" width="76" x="88" y="516.6953"/><text fill="#000000" font-family="sans-serif" font-size="14" lengthAdjust="spacing" textLength="62" x="95" y="538.8027">Controller</text><rect fill="#E2E2F0" height="32.6211" rx="2.5" ry="2.5" style="stroke:#181818;stroke-width:0.5;" width="61" x="386.5" y="27.291"/><text fill="#000000" font-family="sans-serif" font-size="14" lengthAdjust="spacing" textLength="47" x="393.5" y="49.3984">Service</text><rect fill="#E2E2F0" height="32.6211" rx="2.5" ry="2.5" style="stroke:#181818;stroke-width:0.5;" width="61" x="386.5" y="516.6953"/><text fill="#000000" font-family="sans-serif" font-size="14" lengthAdjust="spacing" textLength="47" x="393.5" y="538.8027">Service</text><rect fill="#E2E2F0" height="32.6211" rx="2.5" ry="2.5" style="stroke:#181818;stroke-width:0.5;" width="82" x="479" y="27.291"/><text fill="#000000" font-family="sans-serif" font-size="14" lengthAdjust="spacing" textLength="68" x="486" y="49.3984">Repository</text><rect fill="#E2E2F0" height="32.6211" rx="2.5" ry="2.5" style="stroke:#181818;stroke-width:0.5;" width="82" x="479" y="516.6953"/><text fill="#000000" font-family="sans-serif" font-size="14" lengthAdjust="spacing" textLength="68" x="486" y="538.8027">Repository</text><rect fill="#E2E2F0" height="32.6211" rx="2.5" ry="2.5" style="stroke:#181818;stroke-width:0.5;" width="62" x="571" y="27.291"/><text fill="#000000" font-family="sans-serif" font-size="14" lengthAdjust="spacing" textLength="48" x="578" y="49.3984">Domain</text><rect fill="#E2E2F0" height="32.6211" rx="2.5" ry="2.5" style="stroke:#181818;stroke-width:0.5;" width="62" x="571" y="516.6953"/><text fill="#000000" font-family="sans-serif" font-size="14" lengthAdjust="spacing" textLength="48" x="578" y="538.8027">Domain</text><rect fill="#E2E2F0" height="32.6211" rx="2.5" ry="2.5" style="stroke:#181818;stroke-width:0.5;" width="76" x="643" y="27.291"/><text fill="#000000" font-family="sans-serif" font-size="14" lengthAdjust="spacing" textLength="62" x="650" y="49.3984">DataBase</text><rect fill="#E2E2F0" height="32.6211" rx="2.5" ry="2.5" style="stroke:#181818;stroke-width:0.5;" width="76" x="643" y="516.6953"/><text fill="#000000" font-family="sans-serif" font-size="14" lengthAdjust="spacing" textLength="62" x="650" y="538.8027">DataBase</text><rect fill="#FFFFFF" height="405.4922" style="stroke:#181818;stroke-width:1.0;" width="10" x="121" y="94.2031"/><rect fill="#FFFFFF" height="155.1641" style="stroke:#181818;stroke-width:1.0;" width="10" x="412" y="313.2402"/><rect fill="#FFFFFF" height="92.582" style="stroke:#181818;stroke-width:1.0;" width="10" x="515" y="344.5313"/><rect fill="#FFFFFF" height="31.291" style="stroke:#181818;stroke-width:1.0;" width="10" x="597" y="125.4941"/><rect fill="#FFFFFF" height="31.291" style="stroke:#181818;stroke-width:1.0;" width="10" x="597" y="188.0762"/><rect fill="#FFFFFF" height="31.291" style="stroke:#181818;stroke-width:1.0;" width="10" x="597" y="250.6582"/><rect fill="#FFFFFF" height="30" style="stroke:#181818;stroke-width:1.0;" width="10" x="676" y="375.8223"/><polygon fill="#181818" points="109,90.2031,119,94.2031,109,98.2031,113,94.2031" style="stroke:#181818;stroke-width:1.0;"/><line style="stroke:#181818;stroke-width:1.0;" x1="14" x2="115" y1="94.2031" y2="94.2031"/><text fill="#000000" font-family="sans-serif" font-size="13" font-weight="bold" lengthAdjust="spacing" textLength="7" x="21" y="88.9404">1</text><text fill="#000000" font-family="sans-serif" font-size="13" lengthAdjust="spacing" textLength="77" x="32" y="88.9404">POST /Room</text><polygon fill="#181818" points="585,121.4941,595,125.4941,585,129.4941,589,125.4941" style="stroke:#181818;stroke-width:1.0;"/><line style="stroke:#181818;stroke-width:1.0;" x1="131" x2="591" y1="125.4941" y2="125.4941"/><text fill="#000000" font-family="sans-serif" font-size="13" font-weight="bold" lengthAdjust="spacing" textLength="7" x="138" y="120.2314">2</text><text fill="#000000" font-family="sans-serif" font-size="13" lengthAdjust="spacing" textLength="129" x="149" y="120.2314">RoomName (strName)</text><polygon fill="#181818" points="142,152.7852,132,156.7852,142,160.7852,138,156.7852" style="stroke:#181818;stroke-width:1.0;"/><line style="stroke:#181818;stroke-width:1.0;stroke-dasharray:2.0,2.0;" x1="136" x2="601" y1="156.7852" y2="156.7852"/><text fill="#000000" font-family="sans-serif" font-size="13" font-weight="bold" lengthAdjust="spacing" textLength="7" x="148" y="151.5225">3</text><text fill="#000000" font-family="sans-serif" font-size="13" lengthAdjust="spacing" textLength="63" x="159" y="151.5225">roomName</text><polygon fill="#181818" points="585,184.0762,595,188.0762,585,192.0762,589,188.0762" style="stroke:#181818;stroke-width:1.0;"/><line style="stroke:#181818;stroke-width:1.0;" x1="131" x2="591" y1="188.0762" y2="188.0762"/><text fill="#000000" font-family="sans-serif" font-size="13" font-weight="bold" lengthAdjust="spacing" textLength="7" x="138" y="182.8135">4</text><text fill="#000000" font-family="sans-serif" font-size="13" lengthAdjust="spacing" textLength="241" x="149" y="182.8135">Dimension (intWidth, intLength, intHeight)</text><polygon fill="#181818" points="142,215.3672,132,219.3672,142,223.3672,138,219.3672" style="stroke:#181818;stroke-width:1.0;"/><line style="stroke:#181818;stroke-width:1.0;stroke-dasharray:2.0,2.0;" x1="136" x2="601" y1="219.3672" y2="219.3672"/><text fill="#000000" font-family="sans-serif" font-size="13" font-weight="bold" lengthAdjust="spacing" textLength="7" x="148" y="214.1045">5</text><text fill="#000000" font-family="sans-serif" font-size="13" lengthAdjust="spacing" textLength="59" x="159" y="214.1045">dimension</text><polygon fill="#181818" points="585,246.6582,595,250.6582,585,254.6582,589,250.6582" style="stroke:#181818;stroke-width:1.0;"/><line style="stroke:#181818;stroke-width:1.0;" x1="131" x2="591" y1="250.6582" y2="250.6582"/><text fill="#000000" font-family="sans-serif" font-size="13" font-weight="bold" lengthAdjust="spacing" textLength="7" x="138" y="245.3955">6</text><text fill="#000000" font-family="sans-serif" font-size="13" lengthAdjust="spacing" textLength="118" x="149" y="245.3955">RoomFloor (intFloor)</text><polygon fill="#181818" points="142,277.9492,132,281.9492,142,285.9492,138,281.9492" style="stroke:#181818;stroke-width:1.0;"/><line style="stroke:#181818;stroke-width:1.0;stroke-dasharray:2.0,2.0;" x1="136" x2="601" y1="281.9492" y2="281.9492"/><text fill="#000000" font-family="sans-serif" font-size="13" font-weight="bold" lengthAdjust="spacing" textLength="7" x="148" y="276.6865">7</text><text fill="#000000" font-family="sans-serif" font-size="13" lengthAdjust="spacing" textLength="58" x="159" y="276.6865">roomFloor</text><polygon fill="#181818" points="400,309.2402,410,313.2402,400,317.2402,404,313.2402" style="stroke:#181818;stroke-width:1.0;"/><line style="stroke:#181818;stroke-width:1.0;" x1="131" x2="406" y1="313.2402" y2="313.2402"/><text fill="#000000" font-family="sans-serif" font-size="13" font-weight="bold" lengthAdjust="spacing" textLength="7" x="138" y="307.9775">8</text><text fill="#000000" font-family="sans-serif" font-size="13" lengthAdjust="spacing" textLength="251" x="149" y="307.9775">addRoom(roomName,dimension,roomFloor)</text><polygon fill="#181818" points="503,340.5313,513,344.5313,503,348.5313,507,344.5313" style="stroke:#181818;stroke-width:1.0;"/><line style="stroke:#181818;stroke-width:1.0;" x1="422" x2="509" y1="344.5313" y2="344.5313"/><text fill="#000000" font-family="sans-serif" font-size="13" font-weight="bold" lengthAdjust="spacing" textLength="7" x="429" y="339.2686">9</text><text fill="#000000" font-family="sans-serif" font-size="13" lengthAdjust="spacing" textLength="63" x="440" y="339.2686">save(room)</text><polygon fill="#181818" points="664,371.8223,674,375.8223,664,379.8223,668,375.8223" style="stroke:#181818;stroke-width:1.0;"/><line style="stroke:#181818;stroke-width:1.0;" x1="525" x2="670" y1="375.8223" y2="375.8223"/><text fill="#000000" font-family="sans-serif" font-size="13" font-weight="bold" lengthAdjust="spacing" textLength="14" x="532" y="370.5596">10</text><text fill="#000000" font-family="sans-serif" font-size="13" lengthAdjust="spacing" textLength="26" x="550" y="370.5596">save</text><polygon fill="#181818" points="433,433.1133,423,437.1133,433,441.1133,429,437.1133" style="stroke:#181818;stroke-width:1.0;"/><line style="stroke:#181818;stroke-width:1.0;stroke-dasharray:2.0,2.0;" x1="427" x2="519" y1="437.1133" y2="437.1133"/><text fill="#000000" font-family="sans-serif" font-size="13" font-weight="bold" lengthAdjust="spacing" textLength="14" x="439" y="431.8506">11</text><text fill="#000000" font-family="sans-serif" font-size="13" lengthAdjust="spacing" textLength="29" x="457" y="431.8506">room</text><polygon fill="#181818" points="142,464.4043,132,468.4043,142,472.4043,138,468.4043" style="stroke:#181818;stroke-width:1.0;"/><line style="stroke:#181818;stroke-width:1.0;stroke-dasharray:2.0,2.0;" x1="136" x2="416" y1="468.4043" y2="468.4043"/><text fill="#000000" font-family="sans-serif" font-size="13" font-weight="bold" lengthAdjust="spacing" textLength="14" x="148" y="463.1416">12</text><text fill="#000000" font-family="sans-serif" font-size="13" lengthAdjust="spacing" textLength="29" x="166" y="463.1416">room</text><polygon fill="#181818" points="25,495.6953,15,499.6953,25,503.6953,21,499.6953" style="stroke:#181818;stroke-width:1.0;"/><line style="stroke:#181818;stroke-width:1.0;stroke-dasharray:2.0,2.0;" x1="19" x2="125" y1="499.6953" y2="499.6953"/><text fill="#000000" font-family="sans-serif" font-size="13" font-weight="bold" lengthAdjust="spacing" textLength="14" x="31" y="494.4326">13</text><text fill="#000000" font-family="sans-serif" font-size="13" lengthAdjust="spacing" textLength="55" x="49" y="494.4326">roomDTO</text><!--SRC=[XP8nRy8m48Nt-nKkIwa4pSxG0TAAWJO88ZeVoIbOYktKTb3vzpsR0A6enLaStNVllTFvSUTzuoP9qjIeVQlgvyAenD5NIxgWSIcnigZWeR5OAHGr7aphXLFaKIC0jjxeLct90ZHelInampfYm1ywCS_p9S3MV8l1ckoUx004dojoPhItfgwv65fc-Mfn2uLkML0arflR-eeQuwGtzX2HrUiokuLIer3g2AJPEm3fKd2sw-0fUfoYErfDKm08GuZnIqmc9cAPhNEHh8nHW8MNU_Hq3Cqd8eooF9E1-K15OkYy3PUdIqS84AZnHTXsE9HqXVrIJQKYxQJHOYYr_vIbtuq4tnQag-uw9rdj_FzkvKdcZbqOugqsnaQxUBi_HiJ-55vln0JBCYWFJqEFpdb6Pu6U3-ySk8sRmshPnU6UOdCFYbkFTUQcQKTTwhpDNYJ-Ex9TeXYy3qIvw7ezN9y9kRgv68elvGYbUTRdJWy4VW00]--></g></svg>