<?xml version="1.0" encoding="us-ascii" standalone="no"?><svg xmlns="http://www.w3.org/2000/svg" xmlns:xlink="http://www.w3.org/1999/xlink" contentStyleType="text/css" height="225px" preserveAspectRatio="none" style="width:386px;height:225px;background:#FFFFFF;" version="1.1" viewBox="0 0 386 225" width="386px" zoomAndPan="magnify"><defs/><g><!--class Room--><g id="elem_Room"><rect codeLine="3" fill="#F1F1F1" height="66.6211" id="Room" rx="2.5" ry="2.5" style="stroke:#181818;stroke-width:0.5;" width="69" x="6" y="21"/><ellipse cx="21" cy="37" fill="#ADD1B2" rx="11" ry="11" style="stroke:#181818;stroke-width:1.0;"/><path d="M23.7656,32.875 Q23.9219,32.6563 24.1094,32.5469 Q24.2969,32.4375 24.5156,32.4375 Q24.8906,32.4375 25.125,32.7031 Q25.3594,32.9531 25.3594,33.5625 L25.3594,35.0156 Q25.3594,35.625 25.125,35.8906 Q24.8906,36.1563 24.5156,36.1563 Q24.1719,36.1563 23.9688,35.9531 Q23.7656,35.7656 23.6563,35.25 Q23.6094,34.8906 23.4219,34.7031 Q23.0938,34.3281 22.4844,34.1094 Q21.875,33.8906 21.25,33.8906 Q20.4844,33.8906 19.8438,34.2188 Q19.2188,34.5469 18.7188,35.2969 Q18.2344,36.0469 18.2344,37.0781 L18.2344,38.1719 Q18.2344,39.4063 19.125,40.2344 Q20.0156,41.0469 21.6094,41.0469 Q22.5469,41.0469 23.2031,40.7969 Q23.5938,40.6406 24.0156,40.2031 Q24.2813,39.9375 24.4219,39.8594 Q24.5781,39.7813 24.7813,39.7813 Q25.1094,39.7813 25.3594,40.0469 Q25.625,40.2969 25.625,40.6406 Q25.625,40.9844 25.2813,41.3906 Q24.7813,41.9688 23.9844,42.2969 Q22.9063,42.75 21.6094,42.75 Q20.0938,42.75 18.8906,42.125 Q17.9063,41.625 17.2188,40.5625 Q16.5313,39.4844 16.5313,38.2031 L16.5313,37.0469 Q16.5313,35.7188 17.1406,34.5781 Q17.7656,33.4219 18.8594,32.8125 Q19.9531,32.1875 21.1875,32.1875 Q21.9219,32.1875 22.5625,32.3594 Q23.2188,32.5156 23.7656,32.875 Z " fill="#000000"/><text fill="#000000" font-family="sans-serif" font-size="14" lengthAdjust="spacing" textLength="37" x="35" y="42.7969">Room</text><line style="stroke:#181818;stroke-width:0.5;" x1="7" x2="74" y1="53" y2="53"/><rect fill="none" height="6" style="stroke:#C82930;stroke-width:1.0;" width="6" x="14" y="64.8105"/><text fill="#000000" font-family="sans-serif" font-size="14" lengthAdjust="spacing" textLength="43" x="26" y="72.1074">roomId</text><line style="stroke:#181818;stroke-width:0.5;" x1="7" x2="74" y1="79.6211" y2="79.6211"/></g><!--class Device--><g id="elem_Device"><rect codeLine="7" fill="#F1F1F1" height="66.6211" id="Device" rx="2.5" ry="2.5" style="stroke:#181818;stroke-width:0.5;" width="78" x="11.5" y="152"/><ellipse cx="27.85" cy="168" fill="#ADD1B2" rx="11" ry="11" style="stroke:#181818;stroke-width:1.0;"/><path d="M30.6156,163.875 Q30.7719,163.6563 30.9594,163.5469 Q31.1469,163.4375 31.3656,163.4375 Q31.7406,163.4375 31.975,163.7031 Q32.2094,163.9531 32.2094,164.5625 L32.2094,166.0156 Q32.2094,166.625 31.975,166.8906 Q31.7406,167.1563 31.3656,167.1563 Q31.0219,167.1563 30.8188,166.9531 Q30.6156,166.7656 30.5063,166.25 Q30.4594,165.8906 30.2719,165.7031 Q29.9438,165.3281 29.3344,165.1094 Q28.725,164.8906 28.1,164.8906 Q27.3344,164.8906 26.6938,165.2188 Q26.0688,165.5469 25.5688,166.2969 Q25.0844,167.0469 25.0844,168.0781 L25.0844,169.1719 Q25.0844,170.4063 25.975,171.2344 Q26.8656,172.0469 28.4594,172.0469 Q29.3969,172.0469 30.0531,171.7969 Q30.4438,171.6406 30.8656,171.2031 Q31.1313,170.9375 31.2719,170.8594 Q31.4281,170.7813 31.6313,170.7813 Q31.9594,170.7813 32.2094,171.0469 Q32.475,171.2969 32.475,171.6406 Q32.475,171.9844 32.1313,172.3906 Q31.6313,172.9688 30.8344,173.2969 Q29.7563,173.75 28.4594,173.75 Q26.9438,173.75 25.7406,173.125 Q24.7563,172.625 24.0688,171.5625 Q23.3813,170.4844 23.3813,169.2031 L23.3813,168.0469 Q23.3813,166.7188 23.9906,165.5781 Q24.6156,164.4219 25.7094,163.8125 Q26.8031,163.1875 28.0375,163.1875 Q28.7719,163.1875 29.4125,163.3594 Q30.0688,163.5156 30.6156,163.875 Z " fill="#000000"/><text fill="#000000" font-family="sans-serif" font-size="14" lengthAdjust="spacing" textLength="43" x="42.15" y="173.7969">Device</text><line style="stroke:#181818;stroke-width:0.5;" x1="12.5" x2="88.5" y1="184" y2="184"/><rect fill="none" height="6" style="stroke:#C82930;stroke-width:1.0;" width="6" x="19.5" y="195.8105"/><text fill="#000000" font-family="sans-serif" font-size="14" lengthAdjust="spacing" textLength="52" x="31.5" y="203.1074">deviceId</text><line style="stroke:#181818;stroke-width:0.5;" x1="12.5" x2="88.5" y1="210.6211" y2="210.6211"/></g><!--class ActuatorType--><g id="elem_ActuatorType"><rect codeLine="11" fill="#F1F1F1" height="66.6211" id="ActuatorType" rx="2.5" ry="2.5" style="stroke:#181818;stroke-width:0.5;" width="121" x="117" y="152"/><ellipse cx="133.8" cy="168" fill="#ADD1B2" rx="11" ry="11" style="stroke:#181818;stroke-width:1.0;"/><path d="M136.5656,163.875 Q136.7219,163.6563 136.9094,163.5469 Q137.0969,163.4375 137.3156,163.4375 Q137.6906,163.4375 137.925,163.7031 Q138.1594,163.9531 138.1594,164.5625 L138.1594,166.0156 Q138.1594,166.625 137.925,166.8906 Q137.6906,167.1563 137.3156,167.1563 Q136.9719,167.1563 136.7688,166.9531 Q136.5656,166.7656 136.4563,166.25 Q136.4094,165.8906 136.2219,165.7031 Q135.8938,165.3281 135.2844,165.1094 Q134.675,164.8906 134.05,164.8906 Q133.2844,164.8906 132.6438,165.2188 Q132.0188,165.5469 131.5188,166.2969 Q131.0344,167.0469 131.0344,168.0781 L131.0344,169.1719 Q131.0344,170.4063 131.925,171.2344 Q132.8156,172.0469 134.4094,172.0469 Q135.3469,172.0469 136.0031,171.7969 Q136.3938,171.6406 136.8156,171.2031 Q137.0813,170.9375 137.2219,170.8594 Q137.3781,170.7813 137.5813,170.7813 Q137.9094,170.7813 138.1594,171.0469 Q138.425,171.2969 138.425,171.6406 Q138.425,171.9844 138.0813,172.3906 Q137.5813,172.9688 136.7844,173.2969 Q135.7063,173.75 134.4094,173.75 Q132.8938,173.75 131.6906,173.125 Q130.7063,172.625 130.0188,171.5625 Q129.3313,170.4844 129.3313,169.2031 L129.3313,168.0469 Q129.3313,166.7188 129.9406,165.5781 Q130.5656,164.4219 131.6594,163.8125 Q132.7531,163.1875 133.9875,163.1875 Q134.7219,163.1875 135.3625,163.3594 Q136.0188,163.5156 136.5656,163.875 Z " fill="#000000"/><text fill="#000000" font-family="sans-serif" font-size="14" lengthAdjust="spacing" textLength="85" x="148.2" y="173.7969">ActuatorType</text><line style="stroke:#181818;stroke-width:0.5;" x1="118" x2="237" y1="184" y2="184"/><rect fill="none" height="6" style="stroke:#C82930;stroke-width:1.0;" width="6" x="125" y="195.8105"/><text fill="#000000" font-family="sans-serif" font-size="14" lengthAdjust="spacing" textLength="95" x="137" y="203.1074">actuatorTypeId</text><line style="stroke:#181818;stroke-width:0.5;" x1="118" x2="237" y1="210.6211" y2="210.6211"/></g><!--class ActuatorModel--><g id="elem_ActuatorModel"><rect codeLine="15" fill="#F1F1F1" height="66.6211" id="ActuatorModel" rx="2.5" ry="2.5" style="stroke:#181818;stroke-width:0.5;" width="123" x="256" y="152"/><ellipse cx="271" cy="168" fill="#ADD1B2" rx="11" ry="11" style="stroke:#181818;stroke-width:1.0;"/><path d="M273.7656,163.875 Q273.9219,163.6563 274.1094,163.5469 Q274.2969,163.4375 274.5156,163.4375 Q274.8906,163.4375 275.125,163.7031 Q275.3594,163.9531 275.3594,164.5625 L275.3594,166.0156 Q275.3594,166.625 275.125,166.8906 Q274.8906,167.1563 274.5156,167.1563 Q274.1719,167.1563 273.9688,166.9531 Q273.7656,166.7656 273.6563,166.25 Q273.6094,165.8906 273.4219,165.7031 Q273.0938,165.3281 272.4844,165.1094 Q271.875,164.8906 271.25,164.8906 Q270.4844,164.8906 269.8438,165.2188 Q269.2188,165.5469 268.7188,166.2969 Q268.2344,167.0469 268.2344,168.0781 L268.2344,169.1719 Q268.2344,170.4063 269.125,171.2344 Q270.0156,172.0469 271.6094,172.0469 Q272.5469,172.0469 273.2031,171.7969 Q273.5938,171.6406 274.0156,171.2031 Q274.2813,170.9375 274.4219,170.8594 Q274.5781,170.7813 274.7813,170.7813 Q275.1094,170.7813 275.3594,171.0469 Q275.625,171.2969 275.625,171.6406 Q275.625,171.9844 275.2813,172.3906 Q274.7813,172.9688 273.9844,173.2969 Q272.9063,173.75 271.6094,173.75 Q270.0938,173.75 268.8906,173.125 Q267.9063,172.625 267.2188,171.5625 Q266.5313,170.4844 266.5313,169.2031 L266.5313,168.0469 Q266.5313,166.7188 267.1406,165.5781 Q267.7656,164.4219 268.8594,163.8125 Q269.9531,163.1875 271.1875,163.1875 Q271.9219,163.1875 272.5625,163.3594 Q273.2188,163.5156 273.7656,163.875 Z " fill="#000000"/><text fill="#000000" font-family="sans-serif" font-size="14" lengthAdjust="spacing" textLength="91" x="285" y="173.7969">ActuatorModel</text><line style="stroke:#181818;stroke-width:0.5;" x1="257" x2="378" y1="184" y2="184"/><rect fill="none" height="6" style="stroke:#C82930;stroke-width:1.0;" width="6" x="264" y="195.8105"/><text fill="#000000" font-family="sans-serif" font-size="14" lengthAdjust="spacing" textLength="67" x="276" y="203.1074">modelPath</text><line style="stroke:#181818;stroke-width:0.5;" x1="257" x2="378" y1="210.6211" y2="210.6211"/></g><!--class Actuator--><g id="elem_Actuator"><rect codeLine="19" fill="#F1F1F1" height="85.2422" id="Actuator" rx="2.5" ry="2.5" style="stroke:#181818;stroke-width:0.5;" width="85" x="135" y="12"/><ellipse cx="150" cy="28" fill="#ADD1B2" rx="11" ry="11" style="stroke:#181818;stroke-width:1.0;"/><path d="M152.7656,23.875 Q152.9219,23.6563 153.1094,23.5469 Q153.2969,23.4375 153.5156,23.4375 Q153.8906,23.4375 154.125,23.7031 Q154.3594,23.9531 154.3594,24.5625 L154.3594,26.0156 Q154.3594,26.625 154.125,26.8906 Q153.8906,27.1563 153.5156,27.1563 Q153.1719,27.1563 152.9688,26.9531 Q152.7656,26.7656 152.6563,26.25 Q152.6094,25.8906 152.4219,25.7031 Q152.0938,25.3281 151.4844,25.1094 Q150.875,24.8906 150.25,24.8906 Q149.4844,24.8906 148.8438,25.2188 Q148.2188,25.5469 147.7188,26.2969 Q147.2344,27.0469 147.2344,28.0781 L147.2344,29.1719 Q147.2344,30.4063 148.125,31.2344 Q149.0156,32.0469 150.6094,32.0469 Q151.5469,32.0469 152.2031,31.7969 Q152.5938,31.6406 153.0156,31.2031 Q153.2813,30.9375 153.4219,30.8594 Q153.5781,30.7813 153.7813,30.7813 Q154.1094,30.7813 154.3594,31.0469 Q154.625,31.2969 154.625,31.6406 Q154.625,31.9844 154.2813,32.3906 Q153.7813,32.9688 152.9844,33.2969 Q151.9063,33.75 150.6094,33.75 Q149.0938,33.75 147.8906,33.125 Q146.9063,32.625 146.2188,31.5625 Q145.5313,30.4844 145.5313,29.2031 L145.5313,28.0469 Q145.5313,26.7188 146.1406,25.5781 Q146.7656,24.4219 147.8594,23.8125 Q148.9531,23.1875 150.1875,23.1875 Q150.9219,23.1875 151.5625,23.3594 Q152.2188,23.5156 152.7656,23.875 Z " fill="#000000"/><text fill="#000000" font-family="sans-serif" font-size="14" lengthAdjust="spacing" textLength="53" x="164" y="33.7969">Actuator</text><line style="stroke:#181818;stroke-width:0.5;" x1="136" x2="219" y1="44" y2="44"/><rect fill="none" height="6" style="stroke:#C82930;stroke-width:1.0;" width="6" x="143" y="55.8105"/><text fill="#000000" font-family="sans-serif" font-size="14" lengthAdjust="spacing" textLength="11" x="155" y="63.1074">id</text><rect fill="none" height="6" style="stroke:#C82930;stroke-width:1.0;" width="6" x="143" y="74.4316"/><text fill="#000000" font-family="sans-serif" font-size="14" lengthAdjust="spacing" textLength="35" x="155" y="81.7285">name</text><line style="stroke:#181818;stroke-width:0.5;" x1="136" x2="219" y1="89.2422" y2="89.2422"/></g><polygon fill="#181818" points="39.7243,88.0277,35.705,97.0191,39.7136,93.0277,43.705,97.0362,39.7243,88.0277" style="stroke:#181818;stroke-width:1.0;"/><path d="M39.7115,94.0277 C39.6811,108.1801 40.0717,118.9387 41.5,134 C42.0465,139.7627 42.8957,145.8547 43.8587,151.7373 " fill="none" style="stroke:#181818;stroke-width:1.0;"/><text fill="#000000" font-family="sans-serif" font-size="13" lengthAdjust="spacing" textLength="39" x="42.5" y="130.0283">roomId</text><text fill="#000000" font-family="sans-serif" font-size="13" lengthAdjust="spacing" textLength="7" x="35.8587" y="147.7656">1</text><polygon fill="#181818" points="82.8555,151.635,92.02,148.0277,86.3633,148.0719,86.3191,142.4152,82.8555,151.635" style="stroke:#181818;stroke-width:1.0;"/><path d="M136.6173,97.0265 C119.2145,114.7034 103.4139,130.7528 87.0649,147.3593 " fill="none" style="stroke:#181818;stroke-width:1.0;"/><text fill="#000000" font-family="sans-serif" font-size="13" lengthAdjust="spacing" textLength="48" x="119.5" y="130.0283">deviceID</text><text fill="#000000" font-family="sans-serif" font-size="13" lengthAdjust="spacing" textLength="7" x="83.8555" y="147.6633">1</text><polygon fill="#181818" points="177.5,151.635,181.5,142.635,177.5,146.635,173.5,142.635,177.5,151.635" style="stroke:#181818;stroke-width:1.0;"/><path d="M177.5,97.0265 C177.5,114.7034 177.5,129.0285 177.5,145.635 " fill="none" style="stroke:#181818;stroke-width:1.0;"/><text fill="#000000" font-family="sans-serif" font-size="13" lengthAdjust="spacing" textLength="87" x="178.5" y="130.0283">actuatorTypeID</text><text fill="#000000" font-family="sans-serif" font-size="13" lengthAdjust="spacing" textLength="7" x="169.5" y="147.6633">1</text><polygon fill="#181818" points="299.3882,151.9801,297.9524,142.2365,296.7131,147.7559,291.1937,146.5166,299.3882,151.9801" style="stroke:#181818;stroke-width:1.0;"/><path d="M220.416,77.956 C237.1581,87.9402 255.8144,100.6835 270.5,115 C281.5558,125.7779 288.304,134.4769 296.1781,146.911 " fill="none" style="stroke:#181818;stroke-width:1.0;"/><text fill="#000000" font-family="sans-serif" font-size="13" lengthAdjust="spacing" textLength="62" x="287.5" y="130.0283">modelPath</text><text fill="#000000" font-family="sans-serif" font-size="13" lengthAdjust="spacing" textLength="7" x="291.3882" y="148.0084">1</text><!--SRC=[VOx12i8m38RlVOguUmvUYmZ2BXu44LyWj4K7xJhQJ1ZYkslhfYiJJ_cJ_mjygoxGnH5O6dpF49rXQaa8PIb6E7dlu2umlEPUYyTqhysjKIOrEgTvjrFS4_jm7hfCq6p_nHsyDZQ1BeKZyNN9fBhH0bjo9hNPQuC8rRgQP2ICbfydn6q9ZBBr4Yca9HJEV_2tkuIl-XC0]--></g></svg>