<?xml version="1.0" encoding="us-ascii" standalone="no"?><svg xmlns="http://www.w3.org/2000/svg" xmlns:xlink="http://www.w3.org/1999/xlink" contentStyleType="text/css" height="526px" preserveAspectRatio="none" style="width:805px;height:526px;background:#FFFFFF;" version="1.1" viewBox="0 0 805 526" width="805.5px" zoomAndPan="magnify"><defs/><g><!--cluster domain--><g id="cluster_domain"><path d="M8.25,2 L34.25,2 A1.875,1.875 0 0 1 35.5,3.25 L39,14.3105 L800.75,14.3105 A1.25,1.25 0 0 1 802,15.5605 L802,521.25 A1.25,1.25 0 0 1 800.75,522.5 L8.25,522.5 A1.25,1.25 0 0 1 7,521.25 L7,3.25 A1.25,1.25 0 0 1 8.25,2 " fill="none" style="stroke:#000000;stroke-width:0.75;"/><line style="stroke:#000000;stroke-width:0.75;" x1="7" x2="39" y1="14.3105" y2="14.3105"/><text fill="#000000" font-family="sans-serif" font-size="7" font-weight="bold" lengthAdjust="spacing" textLength="25.5" x="9" y="10.5537">domain</text></g><!--cluster actuator--><g id="cluster_actuator"><path d="M12.25,16.5 L41.75,16.5 A1.875,1.875 0 0 1 43,17.75 L46.5,28.8105 L796.75,28.8105 A1.25,1.25 0 0 1 798,30.0605 L798,380.25 A1.25,1.25 0 0 1 796.75,381.5 L12.25,381.5 A1.25,1.25 0 0 1 11,380.25 L11,17.75 A1.25,1.25 0 0 1 12.25,16.5 " fill="none" style="stroke:#000000;stroke-width:0.75;"/><line style="stroke:#000000;stroke-width:0.75;" x1="11" x2="46.5" y1="28.8105" y2="28.8105"/><text fill="#000000" font-family="sans-serif" font-size="7" font-weight="bold" lengthAdjust="spacing" textLength="29" x="13" y="25.0537">actuator</text></g><!--cluster SwitchActuator--><g id="cluster_SwitchActuator"><path d="M182.25,87 L235.25,87 A1.875,1.875 0 0 1 236.5,88.25 L240,99.3105 L792.75,99.3105 A1.25,1.25 0 0 1 794,100.5605 L794,369.5 A1.25,1.25 0 0 1 792.75,370.75 L182.25,370.75 A1.25,1.25 0 0 1 181,369.5 L181,88.25 A1.25,1.25 0 0 1 182.25,87 " fill="none" style="stroke:#000000;stroke-width:0.75;"/><line style="stroke:#000000;stroke-width:0.75;" x1="181" x2="240" y1="99.3105" y2="99.3105"/><text fill="#000000" font-family="sans-serif" font-size="7" font-weight="bold" lengthAdjust="spacing" textLength="52.5" x="183" y="95.5537">SwitchActuator</text></g><!--cluster ddd--><g id="cluster_ddd"><path d="M288.75,391 L302.75,391 A1.875,1.875 0 0 1 304,392.25 L307.5,403.3105 L415.75,403.3105 A1.25,1.25 0 0 1 417,404.5605 L417,517.25 A1.25,1.25 0 0 1 415.75,518.5 L288.75,518.5 A1.25,1.25 0 0 1 287.5,517.25 L287.5,392.25 A1.25,1.25 0 0 1 288.75,391 " fill="none" style="stroke:#000000;stroke-width:0.75;"/><line style="stroke:#000000;stroke-width:0.75;" x1="287.5" x2="307.5" y1="403.3105" y2="403.3105"/><text fill="#000000" font-family="sans-serif" font-size="7" font-weight="bold" lengthAdjust="spacing" textLength="13.5" x="289.5" y="399.5537">ddd</text></g><!--class Actuator--><g id="elem_Actuator"><rect codeLine="5" fill="#F1F1F1" height="89.1738" id="Actuator" rx="1.25" ry="1.25" style="stroke:#181818;stroke-width:0.25;" width="151.5" x="24.25" y="288.5"/><ellipse cx="84.625" cy="296.5" fill="#B4A7E5" rx="5.5" ry="5.5" style="stroke:#181818;stroke-width:0.5;"/><path d="M85.1016,294.8203 L85.1016,298.1484 L85.9609,298.1484 Q86.2656,298.1484 86.3984,298.2656 Q86.5313,298.3828 86.5313,298.5781 Q86.5313,298.7656 86.3984,298.8828 Q86.2656,299 85.9609,299 L83.3906,299 Q83.0859,299 82.9531,298.8828 Q82.8203,298.7656 82.8203,298.5703 Q82.8203,298.3828 82.9531,298.2656 Q83.0859,298.1484 83.3906,298.1484 L84.25,298.1484 L84.25,294.8203 L83.3906,294.8203 Q83.0859,294.8203 82.9531,294.7031 Q82.8203,294.5859 82.8203,294.3906 Q82.8203,294.2031 82.9531,294.0859 Q83.0859,293.9688 83.3906,293.9688 L85.9609,293.9688 Q86.2656,293.9688 86.3984,294.0859 Q86.5313,294.2031 86.5313,294.3906 Q86.5313,294.5859 86.3984,294.7031 Q86.2656,294.8203 85.9609,294.8203 L85.1016,294.8203 Z " fill="#000000"/><text fill="#000000" font-family="sans-serif" font-size="7" font-style="italic" lengthAdjust="spacing" textLength="26.5" x="94.875" y="299.3984">Actuator</text><line style="stroke:#181818;stroke-width:0.25;" x1="24.75" x2="175.25" y1="304.5" y2="304.5"/><line style="stroke:#181818;stroke-width:0.25;" x1="24.75" x2="175.25" y1="308.5" y2="308.5"/><ellipse cx="29.75" cy="315.9053" fill="#84BE84" rx="1.5" ry="1.5" style="stroke:#038048;stroke-width:0.5;"/><text fill="#000000" font-family="sans-serif" font-size="7" lengthAdjust="spacing" textLength="60.5" x="34.25" y="318.0537">getID() : ActuatorID</text><ellipse cx="29.75" cy="325.2158" fill="#84BE84" rx="1.5" ry="1.5" style="stroke:#038048;stroke-width:0.5;"/><text fill="#000000" font-family="sans-serif" font-size="7" lengthAdjust="spacing" textLength="83.5" x="34.25" y="327.3643">getName() : ActuatorName</text><ellipse cx="29.75" cy="334.5264" fill="#84BE84" rx="1.5" ry="1.5" style="stroke:#038048;stroke-width:0.5;"/><text fill="#000000" font-family="sans-serif" font-size="7" lengthAdjust="spacing" textLength="88" x="34.25" y="336.6748">getModelPath() : ModelPath</text><ellipse cx="29.75" cy="343.8369" fill="#84BE84" rx="1.5" ry="1.5" style="stroke:#038048;stroke-width:0.5;"/><text fill="#000000" font-family="sans-serif" font-size="7" lengthAdjust="spacing" textLength="119" x="34.25" y="345.9854">getActuatorTypeID() : ActuatorTypeID</text><ellipse cx="29.75" cy="353.1475" fill="#84BE84" rx="1.5" ry="1.5" style="stroke:#038048;stroke-width:0.5;"/><text fill="#000000" font-family="sans-serif" font-size="7" lengthAdjust="spacing" textLength="77" x="34.25" y="355.2959">getDeviceID() : DeviceID</text><ellipse cx="29.75" cy="362.458" fill="#84BE84" rx="1.5" ry="1.5" style="stroke:#038048;stroke-width:0.5;"/><text fill="#000000" font-family="sans-serif" font-size="7" lengthAdjust="spacing" textLength="54" x="34.25" y="364.6064">toString() : String</text><ellipse cx="29.75" cy="371.7686" fill="#84BE84" rx="1.5" ry="1.5" style="stroke:#038048;stroke-width:0.5;"/><text fill="#000000" font-family="sans-serif" font-size="7" lengthAdjust="spacing" textLength="138.5" x="34.25" y="373.917">setValue(value : ValueObject) : ValueObject</text></g><!--class ActuatorFactory--><g id="elem_ActuatorFactory"><rect codeLine="16" fill="#F1F1F1" height="33.3105" id="ActuatorFactory" rx="1.25" ry="1.25" style="stroke:#181818;stroke-width:0.25;" width="161.5" x="15.25" y="164.5"/><ellipse cx="68.625" cy="172.5" fill="#B4A7E5" rx="5.5" ry="5.5" style="stroke:#181818;stroke-width:0.5;"/><path d="M69.1016,170.8203 L69.1016,174.1484 L69.9609,174.1484 Q70.2656,174.1484 70.3984,174.2656 Q70.5313,174.3828 70.5313,174.5781 Q70.5313,174.7656 70.3984,174.8828 Q70.2656,175 69.9609,175 L67.3906,175 Q67.0859,175 66.9531,174.8828 Q66.8203,174.7656 66.8203,174.5703 Q66.8203,174.3828 66.9531,174.2656 Q67.0859,174.1484 67.3906,174.1484 L68.25,174.1484 L68.25,170.8203 L67.3906,170.8203 Q67.0859,170.8203 66.9531,170.7031 Q66.8203,170.5859 66.8203,170.3906 Q66.8203,170.2031 66.9531,170.0859 Q67.0859,169.9688 67.3906,169.9688 L69.9609,169.9688 Q70.2656,169.9688 70.3984,170.0859 Q70.5313,170.2031 70.5313,170.3906 Q70.5313,170.5859 70.3984,170.7031 Q70.2656,170.8203 69.9609,170.8203 L69.1016,170.8203 Z " fill="#000000"/><text fill="#000000" font-family="sans-serif" font-size="7" font-style="italic" lengthAdjust="spacing" textLength="50.5" x="78.875" y="175.3984">ActuatorFactory</text><line style="stroke:#181818;stroke-width:0.25;" x1="15.75" x2="176.25" y1="180.5" y2="180.5"/><line style="stroke:#181818;stroke-width:0.25;" x1="15.75" x2="176.25" y1="184.5" y2="184.5"/><ellipse cx="20.75" cy="191.9053" fill="#84BE84" rx="1.5" ry="1.5" style="stroke:#038048;stroke-width:0.5;"/><text fill="#000000" font-family="sans-serif" font-size="7" lengthAdjust="spacing" textLength="148.5" x="25.25" y="194.0537">createActuator(Object... parameters) : Actuator</text></g><!--class ImplActuatorFactory--><g id="elem_ImplActuatorFactory"><rect codeLine="20" fill="#F1F1F1" height="33.3105" id="ImplActuatorFactory" rx="1.25" ry="1.25" style="stroke:#181818;stroke-width:0.25;" width="159.5" x="185.25" y="31"/><ellipse cx="231.375" cy="39" fill="#ADD1B2" rx="5.5" ry="5.5" style="stroke:#181818;stroke-width:0.5;"/><path d="M232.7578,36.9375 Q232.8359,36.8281 232.9297,36.7734 Q233.0234,36.7188 233.1328,36.7188 Q233.3203,36.7188 233.4375,36.8516 Q233.5547,36.9766 233.5547,37.2813 L233.5547,38.0078 Q233.5547,38.3125 233.4375,38.4453 Q233.3203,38.5781 233.1328,38.5781 Q232.9609,38.5781 232.8594,38.4766 Q232.7578,38.3828 232.7031,38.125 Q232.6797,37.9453 232.5859,37.8516 Q232.4219,37.6641 232.1172,37.5547 Q231.8125,37.4453 231.5,37.4453 Q231.1172,37.4453 230.7969,37.6094 Q230.4844,37.7734 230.2344,38.1484 Q229.9922,38.5234 229.9922,39.0391 L229.9922,39.5859 Q229.9922,40.2031 230.4375,40.6172 Q230.8828,41.0234 231.6797,41.0234 Q232.1484,41.0234 232.4766,40.8984 Q232.6719,40.8203 232.8828,40.6016 Q233.0156,40.4688 233.0859,40.4297 Q233.1641,40.3906 233.2656,40.3906 Q233.4297,40.3906 233.5547,40.5234 Q233.6875,40.6484 233.6875,40.8203 Q233.6875,40.9922 233.5156,41.1953 Q233.2656,41.4844 232.8672,41.6484 Q232.3281,41.875 231.6797,41.875 Q230.9219,41.875 230.3203,41.5625 Q229.8281,41.3125 229.4844,40.7813 Q229.1406,40.2422 229.1406,39.6016 L229.1406,39.0234 Q229.1406,38.3594 229.4453,37.7891 Q229.7578,37.2109 230.3047,36.9063 Q230.8516,36.5938 231.4688,36.5938 Q231.8359,36.5938 232.1563,36.6797 Q232.4844,36.7578 232.7578,36.9375 Z " fill="#000000"/><text fill="#000000" font-family="sans-serif" font-size="7" lengthAdjust="spacing" textLength="63" x="241.625" y="41.8984">ImplActuatorFactory</text><line style="stroke:#181818;stroke-width:0.25;" x1="185.75" x2="344.25" y1="47" y2="47"/><line style="stroke:#181818;stroke-width:0.25;" x1="185.75" x2="344.25" y1="51" y2="51"/><ellipse cx="190.75" cy="58.4053" fill="#84BE84" rx="1.5" ry="1.5" style="stroke:#038048;stroke-width:0.5;"/><text fill="#000000" font-family="sans-serif" font-size="7" lengthAdjust="spacing" textLength="146.5" x="195.25" y="60.5537">createActuator(Object... parameters): Actuator</text></g><!--class SwitchActuator--><g id="elem_SwitchActuator"><rect codeLine="27" fill="#F1F1F1" height="159.3086" id="SwitchActuator" rx="1.25" ry="1.25" style="stroke:#181818;stroke-width:0.25;" width="463.5" x="201.75" y="101.5"/><ellipse cx="408.125" cy="116.6357" fill="#ADD1B2" rx="5.5" ry="5.5" style="stroke:#181818;stroke-width:0.5;"/><path d="M409.5078,114.5732 Q409.5859,114.4639 409.6797,114.4092 Q409.7734,114.3545 409.8828,114.3545 Q410.0703,114.3545 410.1875,114.4873 Q410.3047,114.6123 410.3047,114.917 L410.3047,115.6436 Q410.3047,115.9482 410.1875,116.0811 Q410.0703,116.2139 409.8828,116.2139 Q409.7109,116.2139 409.6094,116.1123 Q409.5078,116.0186 409.4531,115.7607 Q409.4297,115.5811 409.3359,115.4873 Q409.1719,115.2998 408.8672,115.1904 Q408.5625,115.0811 408.25,115.0811 Q407.8672,115.0811 407.5469,115.2451 Q407.2344,115.4092 406.9844,115.7842 Q406.7422,116.1592 406.7422,116.6748 L406.7422,117.2217 Q406.7422,117.8389 407.1875,118.2529 Q407.6328,118.6592 408.4297,118.6592 Q408.8984,118.6592 409.2266,118.5342 Q409.4219,118.4561 409.6328,118.2373 Q409.7656,118.1045 409.8359,118.0654 Q409.9141,118.0264 410.0156,118.0264 Q410.1797,118.0264 410.3047,118.1592 Q410.4375,118.2842 410.4375,118.4561 Q410.4375,118.6279 410.2656,118.8311 Q410.0156,119.1201 409.6172,119.2842 Q409.0781,119.5107 408.4297,119.5107 Q407.6719,119.5107 407.0703,119.1982 Q406.5781,118.9482 406.2344,118.417 Q405.8906,117.8779 405.8906,117.2373 L405.8906,116.6592 Q405.8906,115.9951 406.1953,115.4248 Q406.5078,114.8467 407.0547,114.542 Q407.6016,114.2295 408.2188,114.2295 Q408.5859,114.2295 408.9063,114.3154 Q409.2344,114.3936 409.5078,114.5732 Z " fill="#000000"/><text fill="#000000" font-family="sans-serif" font-size="6" font-style="italic" lengthAdjust="spacing" textLength="21.5" x="430.875" y="110.4746">&#171;entity&#187;</text><text fill="#000000" font-family="sans-serif" font-size="6" font-style="italic" lengthAdjust="spacing" textLength="20" x="431.625" y="118.4551">&#171;Root&#187;</text><text fill="#000000" font-family="sans-serif" font-size="7" lengthAdjust="spacing" textLength="46.5" x="418.375" y="127.5146">SwitchActuator</text><line style="stroke:#181818;stroke-width:0.25;" x1="202.25" x2="664.75" y1="131.7715" y2="131.7715"/><rect fill="none" height="3" style="stroke:#C82930;stroke-width:0.5;" width="3" x="205.75" y="137.6768"/><text fill="#000000" font-family="sans-serif" font-size="7" lengthAdjust="spacing" textLength="65" x="211.75" y="141.3252">_deviceID : DeviceID</text><rect fill="none" height="3" style="stroke:#C82930;stroke-width:0.5;" width="3" x="205.75" y="146.9873"/><text fill="#000000" font-family="sans-serif" font-size="7" lengthAdjust="spacing" textLength="96.5" x="211.75" y="150.6357">_actuatorName :ActuatorName</text><rect fill="none" height="3" style="stroke:#C82930;stroke-width:0.5;" width="3" x="205.75" y="156.2979"/><text fill="#000000" font-family="sans-serif" font-size="7" lengthAdjust="spacing" textLength="77" x="211.75" y="159.9463">_modelPath : ModelPath</text><rect fill="none" height="3" style="stroke:#C82930;stroke-width:0.5;" width="3" x="205.75" y="165.6084"/><text fill="#000000" font-family="sans-serif" font-size="7" lengthAdjust="spacing" textLength="107.5" x="211.75" y="169.2568">_actuatorTypeID : ActuatorTypeID</text><rect fill="none" height="3" style="stroke:#C82930;stroke-width:0.5;" width="3" x="205.75" y="174.9189"/><text fill="#000000" font-family="sans-serif" font-size="7" lengthAdjust="spacing" textLength="75.5" x="211.75" y="178.5674">_actuatorID : ActuatorID</text><rect fill="none" height="3" style="stroke:#C82930;stroke-width:0.5;" width="3" x="205.75" y="184.2295"/><text fill="#000000" font-family="sans-serif" font-size="7" lengthAdjust="spacing" textLength="91.5" x="211.75" y="187.8779">_value : SwitchActuatorValue</text><line style="stroke:#181818;stroke-width:0.25;" x1="202.25" x2="664.75" y1="191.6348" y2="191.6348"/><ellipse cx="207.25" cy="199.04" fill="#84BE84" rx="1.5" ry="1.5" style="stroke:#038048;stroke-width:0.5;"/><text fill="#000000" font-family="sans-serif" font-size="7" lengthAdjust="spacing" textLength="450.5" x="211.75" y="201.1885">domain.actuator.SwitchActuator (deviceID : DeviceID, modelPath : ModelPath, actuatorTypeID : ActuatorTypeID, actuatorName : ActuatorName)</text><ellipse cx="207.25" cy="208.3506" fill="#84BE84" rx="1.5" ry="1.5" style="stroke:#038048;stroke-width:0.5;"/><text fill="#000000" font-family="sans-serif" font-size="7" lengthAdjust="spacing" textLength="62.5" x="211.75" y="210.499">getID () : ActuatorID</text><ellipse cx="207.25" cy="217.6611" fill="#84BE84" rx="1.5" ry="1.5" style="stroke:#038048;stroke-width:0.5;"/><text fill="#000000" font-family="sans-serif" font-size="7" lengthAdjust="spacing" textLength="90" x="211.75" y="219.8096">getModelPath () : ModelPath</text><ellipse cx="207.25" cy="226.9717" fill="#84BE84" rx="1.5" ry="1.5" style="stroke:#038048;stroke-width:0.5;"/><text fill="#000000" font-family="sans-serif" font-size="7" lengthAdjust="spacing" textLength="85.5" x="211.75" y="229.1201">getName () : ActuatorName</text><ellipse cx="207.25" cy="236.2822" fill="#84BE84" rx="1.5" ry="1.5" style="stroke:#038048;stroke-width:0.5;"/><text fill="#000000" font-family="sans-serif" font-size="7" lengthAdjust="spacing" textLength="121" x="211.75" y="238.4307">getActuatorTypeID () : ActuatorTypeID</text><ellipse cx="207.25" cy="245.5928" fill="#84BE84" rx="1.5" ry="1.5" style="stroke:#038048;stroke-width:0.5;"/><text fill="#000000" font-family="sans-serif" font-size="7" lengthAdjust="spacing" textLength="79" x="211.75" y="247.7412">getDeviceID () : DeviceID</text><ellipse cx="207.25" cy="254.9033" fill="#84BE84" rx="1.5" ry="1.5" style="stroke:#038048;stroke-width:0.5;"/><text fill="#000000" font-family="sans-serif" font-size="7" lengthAdjust="spacing" textLength="140.5" x="211.75" y="257.0518">setValue (value : ValueObject) : ValueObject</text></g><!--class SwitchActuatorValue--><g id="elem_SwitchActuatorValue"><rect codeLine="47" fill="#F1F1F1" height="67.5332" id="SwitchActuatorValue" rx="1.25" ry="1.25" style="stroke:#181818;stroke-width:0.25;" width="131" x="185" y="299.25"/><ellipse cx="216.125" cy="310.3955" fill="#ADD1B2" rx="5.5" ry="5.5" style="stroke:#181818;stroke-width:0.5;"/><path d="M217.5078,308.333 Q217.5859,308.2236 217.6797,308.1689 Q217.7734,308.1143 217.8828,308.1143 Q218.0703,308.1143 218.1875,308.2471 Q218.3047,308.3721 218.3047,308.6768 L218.3047,309.4033 Q218.3047,309.708 218.1875,309.8408 Q218.0703,309.9736 217.8828,309.9736 Q217.7109,309.9736 217.6094,309.8721 Q217.5078,309.7783 217.4531,309.5205 Q217.4297,309.3408 217.3359,309.2471 Q217.1719,309.0596 216.8672,308.9502 Q216.5625,308.8408 216.25,308.8408 Q215.8672,308.8408 215.5469,309.0049 Q215.2344,309.1689 214.9844,309.5439 Q214.7422,309.9189 214.7422,310.4346 L214.7422,310.9814 Q214.7422,311.5986 215.1875,312.0127 Q215.6328,312.4189 216.4297,312.4189 Q216.8984,312.4189 217.2266,312.2939 Q217.4219,312.2158 217.6328,311.9971 Q217.7656,311.8643 217.8359,311.8252 Q217.9141,311.7861 218.0156,311.7861 Q218.1797,311.7861 218.3047,311.9189 Q218.4375,312.0439 218.4375,312.2158 Q218.4375,312.3877 218.2656,312.5908 Q218.0156,312.8799 217.6172,313.0439 Q217.0781,313.2705 216.4297,313.2705 Q215.6719,313.2705 215.0703,312.958 Q214.5781,312.708 214.2344,312.1768 Q213.8906,311.6377 213.8906,310.9971 L213.8906,310.4189 Q213.8906,309.7549 214.1953,309.1846 Q214.5078,308.6064 215.0547,308.3018 Q215.6016,307.9893 216.2188,307.9893 Q216.5859,307.9893 216.9063,308.0752 Q217.2344,308.1533 217.5078,308.333 Z " fill="#000000"/><text fill="#000000" font-family="sans-serif" font-size="6" font-style="italic" lengthAdjust="spacing" textLength="41" x="238.125" y="308.2246">&#171;ValueObject&#187;</text><text fill="#000000" font-family="sans-serif" font-size="7" lengthAdjust="spacing" textLength="64.5" x="226.375" y="317.2842">SwitchActuatorValue</text><line style="stroke:#181818;stroke-width:0.25;" x1="185.5" x2="315.5" y1="321.541" y2="321.541"/><rect fill="none" height="3" style="stroke:#C82930;stroke-width:0.5;" width="3" x="189" y="327.4463"/><text fill="#000000" font-family="sans-serif" font-size="7" lengthAdjust="spacing" textLength="52.5" x="195" y="331.0947">_value : boolean</text><line style="stroke:#181818;stroke-width:0.25;" x1="185.5" x2="315.5" y1="334.8516" y2="334.8516"/><ellipse cx="190.5" cy="342.2568" fill="#84BE84" rx="1.5" ry="1.5" style="stroke:#038048;stroke-width:0.5;"/><text fill="#000000" font-family="sans-serif" font-size="7" lengthAdjust="spacing" textLength="118" x="195" y="344.4053">SwitchActuatorValue(value : boolean)</text><ellipse cx="190.5" cy="351.5674" fill="#84BE84" rx="1.5" ry="1.5" style="stroke:#038048;stroke-width:0.5;"/><text fill="#000000" font-family="sans-serif" font-size="7" lengthAdjust="spacing" textLength="80.5" x="195" y="353.7158">performAction() : boolean</text><ellipse cx="190.5" cy="360.8779" fill="#84BE84" rx="1.5" ry="1.5" style="stroke:#038048;stroke-width:0.5;"/><text fill="#000000" font-family="sans-serif" font-size="7" lengthAdjust="spacing" textLength="54" x="195" y="363.0264">toString() : String</text></g><!--class ActuatorTypeID--><g id="elem_ActuatorTypeID"><rect codeLine="57" fill="#F1F1F1" height="58.2227" id="ActuatorTypeID" rx="1.25" ry="1.25" style="stroke:#181818;stroke-width:0.25;" width="93" x="435" y="304"/><ellipse cx="455.1" cy="315.1455" fill="#ADD1B2" rx="5.5" ry="5.5" style="stroke:#181818;stroke-width:0.5;"/><path d="M456.4828,313.083 Q456.5609,312.9736 456.6547,312.9189 Q456.7484,312.8643 456.8578,312.8643 Q457.0453,312.8643 457.1625,312.9971 Q457.2797,313.1221 457.2797,313.4268 L457.2797,314.1533 Q457.2797,314.458 457.1625,314.5908 Q457.0453,314.7236 456.8578,314.7236 Q456.6859,314.7236 456.5844,314.6221 Q456.4828,314.5283 456.4281,314.2705 Q456.4047,314.0908 456.3109,313.9971 Q456.1469,313.8096 455.8422,313.7002 Q455.5375,313.5908 455.225,313.5908 Q454.8422,313.5908 454.5219,313.7549 Q454.2094,313.9189 453.9594,314.2939 Q453.7172,314.6689 453.7172,315.1846 L453.7172,315.7314 Q453.7172,316.3486 454.1625,316.7627 Q454.6078,317.1689 455.4047,317.1689 Q455.8734,317.1689 456.2016,317.0439 Q456.3969,316.9658 456.6078,316.7471 Q456.7406,316.6143 456.8109,316.5752 Q456.8891,316.5361 456.9906,316.5361 Q457.1547,316.5361 457.2797,316.6689 Q457.4125,316.7939 457.4125,316.9658 Q457.4125,317.1377 457.2406,317.3408 Q456.9906,317.6299 456.5922,317.7939 Q456.0531,318.0205 455.4047,318.0205 Q454.6469,318.0205 454.0453,317.708 Q453.5531,317.458 453.2094,316.9268 Q452.8656,316.3877 452.8656,315.7471 L452.8656,315.1689 Q452.8656,314.5049 453.1703,313.9346 Q453.4828,313.3564 454.0297,313.0518 Q454.5766,312.7393 455.1938,312.7393 Q455.5609,312.7393 455.8813,312.8252 Q456.2094,312.9033 456.4828,313.083 Z " fill="#000000"/><text fill="#000000" font-family="sans-serif" font-size="6" font-style="italic" lengthAdjust="spacing" textLength="35.5" x="471.65" y="312.9746">&#171;DomainID&#187;</text><text fill="#000000" font-family="sans-serif" font-size="7" lengthAdjust="spacing" textLength="49" x="464.9" y="322.0342">ActuatorTypeID</text><line style="stroke:#181818;stroke-width:0.25;" x1="435.5" x2="527.5" y1="326.291" y2="326.291"/><rect fill="none" height="3" style="stroke:#C82930;stroke-width:0.5;" width="3" x="439" y="332.1963"/><text fill="#000000" font-family="sans-serif" font-size="7" lengthAdjust="spacing" textLength="32" x="445" y="335.8447">_id: String</text><line style="stroke:#181818;stroke-width:0.25;" x1="435.5" x2="527.5" y1="339.6016" y2="339.6016"/><ellipse cx="440.5" cy="347.0068" fill="#84BE84" rx="1.5" ry="1.5" style="stroke:#038048;stroke-width:0.5;"/><text fill="#000000" font-family="sans-serif" font-size="7" lengthAdjust="spacing" textLength="80" x="445" y="349.1553">ActuatorTypeID(String id)</text><ellipse cx="440.5" cy="356.3174" fill="#84BE84" rx="1.5" ry="1.5" style="stroke:#038048;stroke-width:0.5;"/><text fill="#000000" font-family="sans-serif" font-size="7" lengthAdjust="spacing" textLength="46" x="445" y="358.4658">getID() : String</text></g><!--class ModelPath--><g id="elem_ModelPath"><rect codeLine="64" fill="#F1F1F1" height="58.2227" id="ModelPath" rx="1.25" ry="1.25" style="stroke:#181818;stroke-width:0.25;" width="86" x="537" y="304"/><ellipse cx="561.125" cy="315.1455" fill="#ADD1B2" rx="5.5" ry="5.5" style="stroke:#181818;stroke-width:0.5;"/><path d="M562.5078,313.083 Q562.5859,312.9736 562.6797,312.9189 Q562.7734,312.8643 562.8828,312.8643 Q563.0703,312.8643 563.1875,312.9971 Q563.3047,313.1221 563.3047,313.4268 L563.3047,314.1533 Q563.3047,314.458 563.1875,314.5908 Q563.0703,314.7236 562.8828,314.7236 Q562.7109,314.7236 562.6094,314.6221 Q562.5078,314.5283 562.4531,314.2705 Q562.4297,314.0908 562.3359,313.9971 Q562.1719,313.8096 561.8672,313.7002 Q561.5625,313.5908 561.25,313.5908 Q560.8672,313.5908 560.5469,313.7549 Q560.2344,313.9189 559.9844,314.2939 Q559.7422,314.6689 559.7422,315.1846 L559.7422,315.7314 Q559.7422,316.3486 560.1875,316.7627 Q560.6328,317.1689 561.4297,317.1689 Q561.8984,317.1689 562.2266,317.0439 Q562.4219,316.9658 562.6328,316.7471 Q562.7656,316.6143 562.8359,316.5752 Q562.9141,316.5361 563.0156,316.5361 Q563.1797,316.5361 563.3047,316.6689 Q563.4375,316.7939 563.4375,316.9658 Q563.4375,317.1377 563.2656,317.3408 Q563.0156,317.6299 562.6172,317.7939 Q562.0781,318.0205 561.4297,318.0205 Q560.6719,318.0205 560.0703,317.708 Q559.5781,317.458 559.2344,316.9268 Q558.8906,316.3877 558.8906,315.7471 L558.8906,315.1689 Q558.8906,314.5049 559.1953,313.9346 Q559.5078,313.3564 560.0547,313.0518 Q560.6016,312.7393 561.2188,312.7393 Q561.5859,312.7393 561.9063,312.8252 Q562.2344,312.9033 562.5078,313.083 Z " fill="#000000"/><text fill="#000000" font-family="sans-serif" font-size="6" font-style="italic" lengthAdjust="spacing" textLength="35.5" x="570.375" y="312.9746">&#171;DomainID&#187;</text><text fill="#000000" font-family="sans-serif" font-size="7" lengthAdjust="spacing" textLength="33.5" x="571.375" y="322.0342">ModelPath</text><line style="stroke:#181818;stroke-width:0.25;" x1="537.5" x2="622.5" y1="326.291" y2="326.291"/><rect fill="none" height="3" style="stroke:#C82930;stroke-width:0.5;" width="3" x="541" y="332.1963"/><text fill="#000000" font-family="sans-serif" font-size="7" lengthAdjust="spacing" textLength="40.5" x="547" y="335.8447">_path: String</text><line style="stroke:#181818;stroke-width:0.25;" x1="537.5" x2="622.5" y1="339.6016" y2="339.6016"/><ellipse cx="542.5" cy="347.0068" fill="#84BE84" rx="1.5" ry="1.5" style="stroke:#038048;stroke-width:0.5;"/><text fill="#000000" font-family="sans-serif" font-size="7" lengthAdjust="spacing" textLength="73" x="547" y="349.1553">ModelPath(String path)</text><ellipse cx="542.5" cy="356.3174" fill="#84BE84" rx="1.5" ry="1.5" style="stroke:#038048;stroke-width:0.5;"/><text fill="#000000" font-family="sans-serif" font-size="7" lengthAdjust="spacing" textLength="54" x="547" y="358.4658">getPath() : String</text></g><!--class ActuatorName--><g id="elem_ActuatorName"><rect codeLine="70" fill="#F1F1F1" height="58.2227" id="ActuatorName" rx="1.25" ry="1.25" style="stroke:#181818;stroke-width:0.25;" width="100.5" x="325.25" y="304"/><ellipse cx="351.125" cy="315.1455" fill="#ADD1B2" rx="5.5" ry="5.5" style="stroke:#181818;stroke-width:0.5;"/><path d="M352.5078,313.083 Q352.5859,312.9736 352.6797,312.9189 Q352.7734,312.8643 352.8828,312.8643 Q353.0703,312.8643 353.1875,312.9971 Q353.3047,313.1221 353.3047,313.4268 L353.3047,314.1533 Q353.3047,314.458 353.1875,314.5908 Q353.0703,314.7236 352.8828,314.7236 Q352.7109,314.7236 352.6094,314.6221 Q352.5078,314.5283 352.4531,314.2705 Q352.4297,314.0908 352.3359,313.9971 Q352.1719,313.8096 351.8672,313.7002 Q351.5625,313.5908 351.25,313.5908 Q350.8672,313.5908 350.5469,313.7549 Q350.2344,313.9189 349.9844,314.2939 Q349.7422,314.6689 349.7422,315.1846 L349.7422,315.7314 Q349.7422,316.3486 350.1875,316.7627 Q350.6328,317.1689 351.4297,317.1689 Q351.8984,317.1689 352.2266,317.0439 Q352.4219,316.9658 352.6328,316.7471 Q352.7656,316.6143 352.8359,316.5752 Q352.9141,316.5361 353.0156,316.5361 Q353.1797,316.5361 353.3047,316.6689 Q353.4375,316.7939 353.4375,316.9658 Q353.4375,317.1377 353.2656,317.3408 Q353.0156,317.6299 352.6172,317.7939 Q352.0781,318.0205 351.4297,318.0205 Q350.6719,318.0205 350.0703,317.708 Q349.5781,317.458 349.2344,316.9268 Q348.8906,316.3877 348.8906,315.7471 L348.8906,315.1689 Q348.8906,314.5049 349.1953,313.9346 Q349.5078,313.3564 350.0547,313.0518 Q350.6016,312.7393 351.2188,312.7393 Q351.5859,312.7393 351.9063,312.8252 Q352.2344,312.9033 352.5078,313.083 Z " fill="#000000"/><text fill="#000000" font-family="sans-serif" font-size="6" font-style="italic" lengthAdjust="spacing" textLength="41" x="363.125" y="312.9746">&#171;ValueObject&#187;</text><text fill="#000000" font-family="sans-serif" font-size="7" lengthAdjust="spacing" textLength="44.5" x="361.375" y="322.0342">ActuatorName</text><line style="stroke:#181818;stroke-width:0.25;" x1="325.75" x2="425.25" y1="326.291" y2="326.291"/><rect fill="none" height="3" style="stroke:#C82930;stroke-width:0.5;" width="3" x="329.25" y="332.1963"/><text fill="#000000" font-family="sans-serif" font-size="7" lengthAdjust="spacing" textLength="44" x="335.25" y="335.8447">_name: String</text><line style="stroke:#181818;stroke-width:0.25;" x1="325.75" x2="425.25" y1="339.6016" y2="339.6016"/><ellipse cx="330.75" cy="347.0068" fill="#84BE84" rx="1.5" ry="1.5" style="stroke:#038048;stroke-width:0.5;"/><text fill="#000000" font-family="sans-serif" font-size="7" lengthAdjust="spacing" textLength="87.5" x="335.25" y="349.1553">ActuatorName(String name)</text><ellipse cx="330.75" cy="356.3174" fill="#84BE84" rx="1.5" ry="1.5" style="stroke:#038048;stroke-width:0.5;"/><text fill="#000000" font-family="sans-serif" font-size="7" lengthAdjust="spacing" textLength="57.5" x="335.25" y="358.4658">getName() : String</text></g><!--class ActuatorID--><g id="elem_ActuatorID"><rect codeLine="77" fill="#F1F1F1" height="58.2227" id="ActuatorID" rx="1.25" ry="1.25" style="stroke:#181818;stroke-width:0.25;" width="77" x="632" y="304"/><ellipse cx="651.875" cy="315.1455" fill="#ADD1B2" rx="5.5" ry="5.5" style="stroke:#181818;stroke-width:0.5;"/><path d="M653.2578,313.083 Q653.3359,312.9736 653.4297,312.9189 Q653.5234,312.8643 653.6328,312.8643 Q653.8203,312.8643 653.9375,312.9971 Q654.0547,313.1221 654.0547,313.4268 L654.0547,314.1533 Q654.0547,314.458 653.9375,314.5908 Q653.8203,314.7236 653.6328,314.7236 Q653.4609,314.7236 653.3594,314.6221 Q653.2578,314.5283 653.2031,314.2705 Q653.1797,314.0908 653.0859,313.9971 Q652.9219,313.8096 652.6172,313.7002 Q652.3125,313.5908 652,313.5908 Q651.6172,313.5908 651.2969,313.7549 Q650.9844,313.9189 650.7344,314.2939 Q650.4922,314.6689 650.4922,315.1846 L650.4922,315.7314 Q650.4922,316.3486 650.9375,316.7627 Q651.3828,317.1689 652.1797,317.1689 Q652.6484,317.1689 652.9766,317.0439 Q653.1719,316.9658 653.3828,316.7471 Q653.5156,316.6143 653.5859,316.5752 Q653.6641,316.5361 653.7656,316.5361 Q653.9297,316.5361 654.0547,316.6689 Q654.1875,316.7939 654.1875,316.9658 Q654.1875,317.1377 654.0156,317.3408 Q653.7656,317.6299 653.3672,317.7939 Q652.8281,318.0205 652.1797,318.0205 Q651.4219,318.0205 650.8203,317.708 Q650.3281,317.458 649.9844,316.9268 Q649.6406,316.3877 649.6406,315.7471 L649.6406,315.1689 Q649.6406,314.5049 649.9453,313.9346 Q650.2578,313.3564 650.8047,313.0518 Q651.3516,312.7393 651.9688,312.7393 Q652.3359,312.7393 652.6563,312.8252 Q652.9844,312.9033 653.2578,313.083 Z " fill="#000000"/><text fill="#000000" font-family="sans-serif" font-size="6" font-style="italic" lengthAdjust="spacing" textLength="35.5" x="660.625" y="312.9746">&#171;DomainID&#187;</text><text fill="#000000" font-family="sans-serif" font-size="7" lengthAdjust="spacing" textLength="33" x="661.875" y="322.0342">ActuatorID</text><line style="stroke:#181818;stroke-width:0.25;" x1="632.5" x2="708.5" y1="326.291" y2="326.291"/><rect fill="none" height="3" style="stroke:#C82930;stroke-width:0.5;" width="3" x="636" y="332.1963"/><text fill="#000000" font-family="sans-serif" font-size="7" lengthAdjust="spacing" textLength="32" x="642" y="335.8447">_id: String</text><line style="stroke:#181818;stroke-width:0.25;" x1="632.5" x2="708.5" y1="339.6016" y2="339.6016"/><ellipse cx="637.5" cy="347.0068" fill="#84BE84" rx="1.5" ry="1.5" style="stroke:#038048;stroke-width:0.5;"/><text fill="#000000" font-family="sans-serif" font-size="7" lengthAdjust="spacing" textLength="64" x="642" y="349.1553">ActuatorID(String id)</text><ellipse cx="637.5" cy="356.3174" fill="#84BE84" rx="1.5" ry="1.5" style="stroke:#038048;stroke-width:0.5;"/><text fill="#000000" font-family="sans-serif" font-size="7" lengthAdjust="spacing" textLength="46" x="642" y="358.4658">getID() : String</text></g><!--class DeviceID--><g id="elem_DeviceID"><rect codeLine="83" fill="#F1F1F1" height="58.2227" id="DeviceID" rx="1.25" ry="1.25" style="stroke:#181818;stroke-width:0.25;" width="72" x="718" y="304"/><ellipse cx="735.625" cy="315.1455" fill="#ADD1B2" rx="5.5" ry="5.5" style="stroke:#181818;stroke-width:0.5;"/><path d="M737.0078,313.083 Q737.0859,312.9736 737.1797,312.9189 Q737.2734,312.8643 737.3828,312.8643 Q737.5703,312.8643 737.6875,312.9971 Q737.8047,313.1221 737.8047,313.4268 L737.8047,314.1533 Q737.8047,314.458 737.6875,314.5908 Q737.5703,314.7236 737.3828,314.7236 Q737.2109,314.7236 737.1094,314.6221 Q737.0078,314.5283 736.9531,314.2705 Q736.9297,314.0908 736.8359,313.9971 Q736.6719,313.8096 736.3672,313.7002 Q736.0625,313.5908 735.75,313.5908 Q735.3672,313.5908 735.0469,313.7549 Q734.7344,313.9189 734.4844,314.2939 Q734.2422,314.6689 734.2422,315.1846 L734.2422,315.7314 Q734.2422,316.3486 734.6875,316.7627 Q735.1328,317.1689 735.9297,317.1689 Q736.3984,317.1689 736.7266,317.0439 Q736.9219,316.9658 737.1328,316.7471 Q737.2656,316.6143 737.3359,316.5752 Q737.4141,316.5361 737.5156,316.5361 Q737.6797,316.5361 737.8047,316.6689 Q737.9375,316.7939 737.9375,316.9658 Q737.9375,317.1377 737.7656,317.3408 Q737.5156,317.6299 737.1172,317.7939 Q736.5781,318.0205 735.9297,318.0205 Q735.1719,318.0205 734.5703,317.708 Q734.0781,317.458 733.7344,316.9268 Q733.3906,316.3877 733.3906,315.7471 L733.3906,315.1689 Q733.3906,314.5049 733.6953,313.9346 Q734.0078,313.3564 734.5547,313.0518 Q735.1016,312.7393 735.7188,312.7393 Q736.0859,312.7393 736.4063,312.8252 Q736.7344,312.9033 737.0078,313.083 Z " fill="#000000"/><text fill="#000000" font-family="sans-serif" font-size="6" font-style="italic" lengthAdjust="spacing" textLength="35.5" x="743.875" y="312.9746">&#171;DomainID&#187;</text><text fill="#000000" font-family="sans-serif" font-size="7" lengthAdjust="spacing" textLength="28" x="747.625" y="322.0342">DeviceID</text><line style="stroke:#181818;stroke-width:0.25;" x1="718.5" x2="789.5" y1="326.291" y2="326.291"/><rect fill="none" height="3" style="stroke:#C82930;stroke-width:0.5;" width="3" x="722" y="332.1963"/><text fill="#000000" font-family="sans-serif" font-size="7" lengthAdjust="spacing" textLength="32" x="728" y="335.8447">_id: String</text><line style="stroke:#181818;stroke-width:0.25;" x1="718.5" x2="789.5" y1="339.6016" y2="339.6016"/><ellipse cx="723.5" cy="347.0068" fill="#84BE84" rx="1.5" ry="1.5" style="stroke:#038048;stroke-width:0.5;"/><text fill="#000000" font-family="sans-serif" font-size="7" lengthAdjust="spacing" textLength="59" x="728" y="349.1553">DeviceID(String id)</text><ellipse cx="723.5" cy="356.3174" fill="#84BE84" rx="1.5" ry="1.5" style="stroke:#038048;stroke-width:0.5;"/><text fill="#000000" font-family="sans-serif" font-size="7" lengthAdjust="spacing" textLength="46" x="728" y="358.4658">getID() : String</text></g><!--class DomainEntity--><g id="elem_DomainEntity"><rect codeLine="92" fill="#F1F1F1" height="24" id="DomainEntity" rx="1.25" ry="1.25" style="stroke:#181818;stroke-width:0.25;" width="57.5" x="291.75" y="448"/><ellipse cx="299.25" cy="456" fill="#B4A7E5" rx="5.5" ry="5.5" style="stroke:#181818;stroke-width:0.5;"/><path d="M299.7266,454.3203 L299.7266,457.6484 L300.5859,457.6484 Q300.8906,457.6484 301.0234,457.7656 Q301.1563,457.8828 301.1563,458.0781 Q301.1563,458.2656 301.0234,458.3828 Q300.8906,458.5 300.5859,458.5 L298.0156,458.5 Q297.7109,458.5 297.5781,458.3828 Q297.4453,458.2656 297.4453,458.0703 Q297.4453,457.8828 297.5781,457.7656 Q297.7109,457.6484 298.0156,457.6484 L298.875,457.6484 L298.875,454.3203 L298.0156,454.3203 Q297.7109,454.3203 297.5781,454.2031 Q297.4453,454.0859 297.4453,453.8906 Q297.4453,453.7031 297.5781,453.5859 Q297.7109,453.4688 298.0156,453.4688 L300.5859,453.4688 Q300.8906,453.4688 301.0234,453.5859 Q301.1563,453.7031 301.1563,453.8906 Q301.1563,454.0859 301.0234,454.2031 Q300.8906,454.3203 300.5859,454.3203 L299.7266,454.3203 Z " fill="#000000"/><text fill="#000000" font-family="sans-serif" font-size="7" font-style="italic" lengthAdjust="spacing" textLength="41.5" x="306.25" y="458.8984">DomainEntity</text><line style="stroke:#181818;stroke-width:0.25;" x1="292.25" x2="348.75" y1="464" y2="464"/><line style="stroke:#181818;stroke-width:0.25;" x1="292.25" x2="348.75" y1="468" y2="468"/></g><!--class DomainID--><g id="elem_DomainID"><rect codeLine="95" fill="#F1F1F1" height="24" id="DomainID" rx="1.25" ry="1.25" style="stroke:#181818;stroke-width:0.25;" width="47" x="366" y="490.5"/><ellipse cx="373.5" cy="498.5" fill="#B4A7E5" rx="5.5" ry="5.5" style="stroke:#181818;stroke-width:0.5;"/><path d="M373.9766,496.8203 L373.9766,500.1484 L374.8359,500.1484 Q375.1406,500.1484 375.2734,500.2656 Q375.4063,500.3828 375.4063,500.5781 Q375.4063,500.7656 375.2734,500.8828 Q375.1406,501 374.8359,501 L372.2656,501 Q371.9609,501 371.8281,500.8828 Q371.6953,500.7656 371.6953,500.5703 Q371.6953,500.3828 371.8281,500.2656 Q371.9609,500.1484 372.2656,500.1484 L373.125,500.1484 L373.125,496.8203 L372.2656,496.8203 Q371.9609,496.8203 371.8281,496.7031 Q371.6953,496.5859 371.6953,496.3906 Q371.6953,496.2031 371.8281,496.0859 Q371.9609,495.9688 372.2656,495.9688 L374.8359,495.9688 Q375.1406,495.9688 375.2734,496.0859 Q375.4063,496.2031 375.4063,496.3906 Q375.4063,496.5859 375.2734,496.7031 Q375.1406,496.8203 374.8359,496.8203 L373.9766,496.8203 Z " fill="#000000"/><text fill="#000000" font-family="sans-serif" font-size="7" font-style="italic" lengthAdjust="spacing" textLength="31" x="380.5" y="501.3984">DomainID</text><line style="stroke:#181818;stroke-width:0.25;" x1="366.5" x2="412.5" y1="506.5" y2="506.5"/><line style="stroke:#181818;stroke-width:0.25;" x1="366.5" x2="412.5" y1="510.5" y2="510.5"/></g><!--class ValueObject--><g id="elem_ValueObject"><rect codeLine="101" fill="#F1F1F1" height="24" id="ValueObject" rx="1.25" ry="1.25" style="stroke:#181818;stroke-width:0.25;" width="54.5" x="358.25" y="448"/><ellipse cx="365.75" cy="456" fill="#B4A7E5" rx="5.5" ry="5.5" style="stroke:#181818;stroke-width:0.5;"/><path d="M366.2266,454.3203 L366.2266,457.6484 L367.0859,457.6484 Q367.3906,457.6484 367.5234,457.7656 Q367.6563,457.8828 367.6563,458.0781 Q367.6563,458.2656 367.5234,458.3828 Q367.3906,458.5 367.0859,458.5 L364.5156,458.5 Q364.2109,458.5 364.0781,458.3828 Q363.9453,458.2656 363.9453,458.0703 Q363.9453,457.8828 364.0781,457.7656 Q364.2109,457.6484 364.5156,457.6484 L365.375,457.6484 L365.375,454.3203 L364.5156,454.3203 Q364.2109,454.3203 364.0781,454.2031 Q363.9453,454.0859 363.9453,453.8906 Q363.9453,453.7031 364.0781,453.5859 Q364.2109,453.4688 364.5156,453.4688 L367.0859,453.4688 Q367.3906,453.4688 367.5234,453.5859 Q367.6563,453.7031 367.6563,453.8906 Q367.6563,454.0859 367.5234,454.2031 Q367.3906,454.3203 367.0859,454.3203 L366.2266,454.3203 Z " fill="#000000"/><text fill="#000000" font-family="sans-serif" font-size="7" font-style="italic" lengthAdjust="spacing" textLength="38.5" x="372.75" y="458.8984">ValueObject</text><line style="stroke:#181818;stroke-width:0.25;" x1="358.75" x2="412.25" y1="464" y2="464"/><line style="stroke:#181818;stroke-width:0.25;" x1="358.75" x2="412.25" y1="468" y2="468"/></g><!--class AggregateRoot--><g id="elem_AggregateRoot"><rect codeLine="98" fill="#F1F1F1" height="24" id="AggregateRoot" rx="1.25" ry="1.25" style="stroke:#181818;stroke-width:0.25;" width="64" x="291.5" y="405.5"/><ellipse cx="299" cy="413.5" fill="#B4A7E5" rx="5.5" ry="5.5" style="stroke:#181818;stroke-width:0.5;"/><path d="M299.4766,411.8203 L299.4766,415.1484 L300.3359,415.1484 Q300.6406,415.1484 300.7734,415.2656 Q300.9063,415.3828 300.9063,415.5781 Q300.9063,415.7656 300.7734,415.8828 Q300.6406,416 300.3359,416 L297.7656,416 Q297.4609,416 297.3281,415.8828 Q297.1953,415.7656 297.1953,415.5703 Q297.1953,415.3828 297.3281,415.2656 Q297.4609,415.1484 297.7656,415.1484 L298.625,415.1484 L298.625,411.8203 L297.7656,411.8203 Q297.4609,411.8203 297.3281,411.7031 Q297.1953,411.5859 297.1953,411.3906 Q297.1953,411.2031 297.3281,411.0859 Q297.4609,410.9688 297.7656,410.9688 L300.3359,410.9688 Q300.6406,410.9688 300.7734,411.0859 Q300.9063,411.2031 300.9063,411.3906 Q300.9063,411.5859 300.7734,411.7031 Q300.6406,411.8203 300.3359,411.8203 L299.4766,411.8203 Z " fill="#000000"/><text fill="#000000" font-family="sans-serif" font-size="7" font-style="italic" lengthAdjust="spacing" textLength="48" x="306" y="416.3984">AggregateRoot</text><line style="stroke:#181818;stroke-width:0.25;" x1="292" x2="355" y1="421.5" y2="421.5"/><line style="stroke:#181818;stroke-width:0.25;" x1="292" x2="355" y1="425.5" y2="425.5"/></g><polygon fill="none" points="386.6142,472.0601,384.4915,481.3064,390.4639,480.7307,386.6142,472.0601" style="stroke:#181818;stroke-width:0.5;"/><path d="M387.4777,481.0185 C388.0279,486.7266 387.8266,484.6389 388.3779,490.358 " fill="none" style="stroke:#181818;stroke-width:0.5;"/><polygon fill="none" points="107.0932,164.4315,114.7622,158.8469,109.8776,155.3625,107.0932,164.4315" style="stroke:#181818;stroke-width:0.5;"/><path d="M219.2741,64.5841 C205.6506,70.5491 191.1316,78.0663 179,87 C148.8053,109.2354 126.8437,136.745 112.3199,157.1047 " fill="none" style="stroke:#181818;stroke-width:0.5;stroke-dasharray:7.0,7.0;"/><polygon fill="#181818" points="332.6268,101.4283,330.3257,97.0746,330.6616,99.883,327.8532,100.2189,332.6268,101.4283" style="stroke:#181818;stroke-width:0.5;"/><path d="M285.8304,64.63 C298.2016,74.3581 312.5449,85.637 330.2686,99.5739 " fill="none" style="stroke:#181818;stroke-width:0.5;stroke-dasharray:7.0,7.0;"/><text fill="#000000" font-family="sans-serif" font-size="6.5" lengthAdjust="spacing" textLength="21.5" x="306.5" y="81.0142">creates</text><text fill="#000000" font-family="sans-serif" font-size="6.5" lengthAdjust="spacing" textLength="3.5" x="328.6268" y="99.4425">1</text><text fill="#000000" font-family="sans-serif" font-size="6.5" lengthAdjust="spacing" textLength="3.5" x="281.8304" y="72.1442">1</text><polygon fill="none" points="175.8074,290.0668,185.2042,288.7625,182.5422,283.3853,175.8074,290.0668" style="stroke:#181818;stroke-width:0.5;"/><path d="M238.3171,261.0015 C218.1453,269.9705 198.0664,279.2271 179,288.5 C177.9412,289.015 184.9423,285.5446 183.8732,286.0739 " fill="none" style="stroke:#181818;stroke-width:0.5;stroke-dasharray:7.0,7.0;"/><polygon fill="#181818" points="291.0329,299.1102,295.7778,297.7927,292.9625,297.5206,293.2345,294.7053,291.0329,299.1102" style="stroke:#181818;stroke-width:0.5;"/><path d="M337.1768,261.0982 C320.9025,274.5045 307.1477,285.8353 293.3484,297.2027 " fill="none" style="stroke:#181818;stroke-width:0.5;"/><text fill="#000000" font-family="sans-serif" font-size="6.5" lengthAdjust="spacing" textLength="10.5" x="326" y="277.5142">has</text><text fill="#000000" font-family="sans-serif" font-size="6.5" lengthAdjust="spacing" textLength="3.5" x="287.0329" y="297.1243">1</text><text fill="#000000" font-family="sans-serif" font-size="6.5" lengthAdjust="spacing" textLength="3.5" x="337.6768" y="268.6124">1</text><polygon fill="#181818" points="472.3816,303.8624,472.922,298.9678,471.6231,301.4803,469.1105,300.1814,472.3816,303.8624" style="stroke:#181818;stroke-width:0.5;"/><path d="M458.7651,261.0982 C463.6436,276.4197 467.542,288.6631 471.4714,301.0039 " fill="none" style="stroke:#181818;stroke-width:0.5;"/><text fill="#000000" font-family="sans-serif" font-size="6.5" lengthAdjust="spacing" textLength="10.5" x="465" y="277.5142">has</text><text fill="#000000" font-family="sans-serif" font-size="6.5" lengthAdjust="spacing" textLength="3.5" x="468.3816" y="301.8766">1</text><text fill="#000000" font-family="sans-serif" font-size="6.5" lengthAdjust="spacing" textLength="3.5" x="454.7651" y="268.6124">1</text><polygon fill="#181818" points="552.1698,303.8624,550.4679,299.2414,550.4275,302.0696,547.5994,302.0291,552.1698,303.8624" style="stroke:#181818;stroke-width:0.5;"/><path d="M510.6112,261.0982 C525.5007,276.4197 538.0862,289.3702 550.079,301.711 " fill="none" style="stroke:#181818;stroke-width:0.5;"/><text fill="#000000" font-family="sans-serif" font-size="6.5" lengthAdjust="spacing" textLength="10.5" x="528.5" y="277.5142">has</text><text fill="#000000" font-family="sans-serif" font-size="6.5" lengthAdjust="spacing" textLength="3.5" x="548.1698" y="301.8766">1</text><text fill="#000000" font-family="sans-serif" font-size="6.5" lengthAdjust="spacing" textLength="3.5" x="506.6112" y="268.6124">1</text><polygon fill="#181818" points="386.5181,303.8624,390.0006,300.3807,387.4158,301.5292,386.2674,298.9444,386.5181,303.8624" style="stroke:#181818;stroke-width:0.5;"/><path d="M402.9713,261.0982 C397.0765,276.4197 392.3434,288.7218 387.5953,301.0625 " fill="none" style="stroke:#181818;stroke-width:0.5;"/><text fill="#000000" font-family="sans-serif" font-size="6.5" lengthAdjust="spacing" textLength="10.5" x="399.5" y="277.5142">has</text><text fill="#000000" font-family="sans-serif" font-size="6.5" lengthAdjust="spacing" textLength="3.5" x="382.5181" y="301.8766">1</text><text fill="#000000" font-family="sans-serif" font-size="6.5" lengthAdjust="spacing" textLength="3.5" x="398.9713" y="268.6124">1</text><polygon fill="#181818" points="645.0465,303.966,643.2517,299.3803,643.2683,302.2087,640.44,302.2253,645.0465,303.966" style="stroke:#181818;stroke-width:0.5;"/><path d="M587.7407,261.0597 C601.5298,269.7968 614.9904,278.9908 627.5,288.5 C633.5372,293.0892 637.3995,296.4085 642.9127,301.8572 " fill="none" style="stroke:#181818;stroke-width:0.5;"/><text fill="#000000" font-family="sans-serif" font-size="6.5" lengthAdjust="spacing" textLength="10.5" x="613.5" y="277.5142">has</text><text fill="#000000" font-family="sans-serif" font-size="6.5" lengthAdjust="spacing" textLength="3.5" x="641.0465" y="301.9801">1</text><text fill="#000000" font-family="sans-serif" font-size="6.5" lengthAdjust="spacing" textLength="3.5" x="583.7407" y="268.5739">1</text><polygon fill="#181818" points="731.3399,303.9387,729.6649,299.3079,729.6081,302.1357,726.7802,302.0788,731.3399,303.9387" style="stroke:#181818;stroke-width:0.5;"/><path d="M665.3488,260.1313 C682.1244,268.8026 698.3721,278.2497 713.5,288.5 C719.8603,292.8096 723.8494,296.1407 729.2617,301.7751 " fill="none" style="stroke:#181818;stroke-width:0.5;"/><text fill="#000000" font-family="sans-serif" font-size="6.5" lengthAdjust="spacing" textLength="10.5" x="693.5" y="277.5142">has</text><text fill="#000000" font-family="sans-serif" font-size="6.5" lengthAdjust="spacing" textLength="3.5" x="727.3399" y="301.9528">1</text><text fill="#000000" font-family="sans-serif" font-size="6.5" lengthAdjust="spacing" textLength="3.5" x="665.8488" y="258.1454">1</text><polygon fill="none" points="384.7056,447.9881,386.6902,438.7112,380.7271,439.3758,384.7056,447.9881" style="stroke:#181818;stroke-width:0.5;"/><path d="M294.2174,366.7671 C302.7856,372.2611 311.9348,377.4697 321,381.5 C337.3017,388.7476 346.1212,379.7906 360,391 C377.4733,405.1126 381.9774,423.5114 383.7086,439.0435 " fill="none" style="stroke:#181818;stroke-width:0.5;stroke-dasharray:7.0,7.0;"/><polygon fill="none" points="383.9703,447.803,385.8687,438.5081,379.9121,439.228,383.9703,447.803" style="stroke:#181818;stroke-width:0.5;"/><path d="M377.1479,362.19 C378.4628,383.4248 380.4965,413.0461 383,439 C383.2754,441.8551 382.5429,435.9927 382.8904,438.8681 " fill="none" style="stroke:#181818;stroke-width:0.5;stroke-dasharray:7.0,7.0;"/><polygon fill="none" points="370.1434,490.358,363.9771,483.1485,360.8847,488.2902,370.1434,490.358" style="stroke:#181818;stroke-width:0.5;"/><path d="M339.7203,472.0601 C349.2108,477.7681 352.922,480.0002 362.4309,485.7193 " fill="none" style="stroke:#181818;stroke-width:0.5;"/><polygon fill="none" points="321.3416,447.858,324.9827,439.0977,318.9983,438.6651,321.3416,447.858" style="stroke:#181818;stroke-width:0.5;"/><path d="M322.6643,429.5601 C322.2517,435.2681 322.4039,433.1623 321.9905,438.8814 " fill="none" style="stroke:#181818;stroke-width:0.5;"/><polygon fill="none" points="291.4731,412.028,283.1363,407.5005,282.0872,413.4081,291.4731,412.028" style="stroke:#181818;stroke-width:0.5;"/><path d="M170.0708,377.5296 C173.0521,378.9383 176.0355,380.2695 179,381.5 C216.1604,396.9248 252.7293,405.1473 282.6118,410.4543 " fill="none" style="stroke:#181818;stroke-width:0.5;stroke-dasharray:7.0,7.0;"/><polygon fill="none" points="403.4123,490.4665,411.9548,486.3401,407.7705,482.0399,403.4123,490.4665" style="stroke:#181818;stroke-width:0.5;"/><path d="M447.5829,362.004 C440.769,369.3144 434.369,377.6396 430,386.5 C413.0158,420.9442 434.1369,437.3868 417.5,472 C414.1667,478.9349 415.1128,479.0814 409.8626,484.19 " fill="none" style="stroke:#181818;stroke-width:0.5;stroke-dasharray:7.0,7.0;"/><polygon fill="none" points="413.0153,493.6215,422.4963,493.2909,420.4018,487.6684,413.0153,493.6215" style="stroke:#181818;stroke-width:0.5;"/><path d="M647.9351,362.0609 C641.7458,368.9054 634.7342,375.8578 627.5,381.5 C557.1085,436.4005 466.2275,473.7986 421.4491,490.4797 " fill="none" style="stroke:#181818;stroke-width:0.5;stroke-dasharray:7.0,7.0;"/><polygon fill="none" points="403.8627,490.4558,412.6801,486.9553,408.8163,482.365,403.8627,490.4558" style="stroke:#181818;stroke-width:0.5;"/><path d="M554.15,362.0895 C547.4207,368.8217 539.9567,375.7148 532.5,381.5 C492.841,412.2688 467.062,399.879 435,438.5 C424.898,450.6686 431.2823,458.5268 423,472 C419.9542,476.9548 418.2374,477.5161 414,481.5 C410.8079,484.5012 414.1383,481.8066 410.7482,484.6601 " fill="none" style="stroke:#181818;stroke-width:0.5;stroke-dasharray:7.0,7.0;"/><polygon fill="none" points="413.162,496.9918,422.6457,496.7453,420.601,491.1045,413.162,496.9918" style="stroke:#181818;stroke-width:0.5;"/><path d="M397.0725,362.0393 C410.9147,382.2134 427.6289,410.5409 435,438.5 C439.872,456.9797 445.3731,465.449 435,481.5 C430.0622,489.1406 429.9819,490.8952 421.6233,493.9249 " fill="none" style="stroke:#181818;stroke-width:0.5;stroke-dasharray:7.0,7.0;"/><!--SRC=[hLPDZvim4BtpAwPx2H4Rf5wZA58aMYc7RAjkjTVA0PVG1Op0sJPgyzyxc0z_O9AI9eTTY9zdnZFl-ULTKP8u8v2I4pjog3BAIKuSfo3XAuafH2mZIUwJa1y9PoNyTXp0Jv9pMdud8OMDN07bCzjHVc1HDTE-zI2cV1kuSrZs6xV14F94Cgg1wY-6i1sBQFgPy8F0zcz3O1VcwwcWHlhcg-6MWBubOGVkNWmOPy-yJF9OO9f70r5H_aBI8tNVwh-84c-VzZzeoEVwgzXv7cllHvm0AqzAbpq8IqeuxH1k4yRtVIX8YVt249LwKZL1c9AgWcrMf4Q2gV47uS-ZtF6VVoOyF6mCAiboBkFDxQiLpNd2J-irFdvXZEE3h7wsuJYF_P5JXO8B-1QraxGD5PU9mZTOMjc7gAnZcfLrIfY6NEDiKw0QJ8TqtD4R8AWZMpWKd7Ub_wwb5uzWFTiZN3cH13ITquGxboK9-SEO_ZrLqp0YQg-z7s3yWl06aeTBclSKkODTxrudP9YWP4Lfbj4XQvKz_q3UdWTxnb9AyekpjoHqZVtAM0gyRLYP8JnXkUX0bwE7ZDrrseLYD7sr2WG5ju5sFAHq4WqkJC_OxJRha4HAeOf_w3KeHKW6ZUSlSDbIWJIKDdcDCzBtVdEj2OAauqF6Ad94NEY3SC6sa5pNaMQIevsG4hjr55F787FtWfgOkVVTANc7fXD5KMCmqagRCZu8qn25d6thM37znMaULQgaBV1D79SqHeEilSSMJzdUBYF0OhdW-t_Mfj5RWG_l7n2y5l-dcUMoDVFASQPj5BMPMthBdnQhBdknkA7yb_RYEf3gnfJYOMDws7_6sobMUQVIMlUyKxHx73AGFnBgICuDWrCvXBhqLQky4axhowKuZgRknGAHdPuTNQdAMeCUdidA_ZgZ5ibn34APQ5c0dCSeHfBfQXXhCthKNm00]--></g></svg>