<?xml version="1.0" encoding="us-ascii" standalone="no"?><svg xmlns="http://www.w3.org/2000/svg" xmlns:xlink="http://www.w3.org/1999/xlink" contentStyleType="text/css" height="690px" preserveAspectRatio="none" style="width:1080px;height:690px;background:#FFFFFF;" version="1.1" viewBox="0 0 1080 690" width="1080px" zoomAndPan="magnify"><defs/><g><rect fill="#DDDDDD" height="678.6074" style="stroke:#181818;stroke-width:0.5;" width="672" x="402.5" y="6"/><text fill="#000000" font-family="sans-serif" font-size="13" font-weight="bold" lengthAdjust="spacing" textLength="75" x="701" y="20.0283">SmartHome</text><rect fill="#FFFFFF" height="468.0742" style="stroke:#181818;stroke-width:1.0;" width="10" x="243.5" y="116.9121"/><rect fill="#FFFFFF" height="405.4922" style="stroke:#181818;stroke-width:1.0;" width="10" x="439.5" y="148.2031"/><rect fill="#FFFFFF" height="155.1641" style="stroke:#181818;stroke-width:1.0;" width="10" x="749.5" y="367.2402"/><rect fill="#FFFFFF" height="92.582" style="stroke:#181818;stroke-width:1.0;" width="10" x="866.5" y="398.5313"/><rect fill="#FFFFFF" height="31.291" style="stroke:#181818;stroke-width:1.0;" width="10" x="948.5" y="179.4941"/><rect fill="#FFFFFF" height="31.291" style="stroke:#181818;stroke-width:1.0;" width="10" x="948.5" y="242.0762"/><rect fill="#FFFFFF" height="31.291" style="stroke:#181818;stroke-width:1.0;" width="10" x="948.5" y="304.6582"/><rect fill="#FFFFFF" height="30" style="stroke:#181818;stroke-width:1.0;" width="10" x="1027.5" y="429.8223"/><line style="stroke:#181818;stroke-width:0.5;stroke-dasharray:5.0,5.0;" x1="22" x2="22" y1="83.6211" y2="602.9863"/><line style="stroke:#181818;stroke-width:0.5;stroke-dasharray:5.0,5.0;" x1="248" x2="248" y1="83.6211" y2="602.9863"/><line style="stroke:#181818;stroke-width:0.5;stroke-dasharray:5.0,5.0;" x1="444.5" x2="444.5" y1="83.6211" y2="602.9863"/><line style="stroke:#181818;stroke-width:0.5;stroke-dasharray:5.0,5.0;" x1="754" x2="754" y1="83.6211" y2="602.9863"/><line style="stroke:#181818;stroke-width:0.5;stroke-dasharray:5.0,5.0;" x1="871.5" x2="871.5" y1="83.6211" y2="602.9863"/><line style="stroke:#181818;stroke-width:0.5;stroke-dasharray:5.0,5.0;" x1="953.5" x2="953.5" y1="83.6211" y2="602.9863"/><line style="stroke:#181818;stroke-width:0.5;stroke-dasharray:5.0,5.0;" x1="1032.5" x2="1032.5" y1="83.6211" y2="602.9863"/><text fill="#000000" font-family="sans-serif" font-size="14" lengthAdjust="spacing" textLength="29" x="5" y="80.1074">User</text><ellipse cx="22.5" cy="13.5" fill="#E2E2F0" rx="8" ry="8" style="stroke:#181818;stroke-width:0.5;"/><path d="M22.5,21.5 L22.5,48.5 M9.5,29.5 L35.5,29.5 M22.5,48.5 L9.5,63.5 M22.5,48.5 L35.5,63.5 " fill="none" style="stroke:#181818;stroke-width:0.5;"/><text fill="#000000" font-family="sans-serif" font-size="14" lengthAdjust="spacing" textLength="29" x="5" y="617.0938">User</text><ellipse cx="22.5" cy="629.1074" fill="#E2E2F0" rx="8" ry="8" style="stroke:#181818;stroke-width:0.5;"/><path d="M22.5,637.1074 L22.5,664.1074 M9.5,645.1074 L35.5,645.1074 M22.5,664.1074 L9.5,679.1074 M22.5,664.1074 L35.5,679.1074 " fill="none" style="stroke:#181818;stroke-width:0.5;"/><rect fill="#E2E2F0" height="32.6211" rx="2.5" ry="2.5" style="stroke:#181818;stroke-width:0.5;" width="79" x="209" y="50"/><text fill="#000000" font-family="sans-serif" font-size="14" lengthAdjust="spacing" textLength="65" x="216" y="72.1074">RestClient</text><rect fill="#E2E2F0" height="32.6211" rx="2.5" ry="2.5" style="stroke:#181818;stroke-width:0.5;" width="79" x="209" y="601.9863"/><text fill="#000000" font-family="sans-serif" font-size="14" lengthAdjust="spacing" textLength="65" x="216" y="624.0938">RestClient</text><rect fill="#E2E2F0" height="32.6211" rx="2.5" ry="2.5" style="stroke:#181818;stroke-width:0.5;" width="76" x="406.5" y="50"/><text fill="#000000" font-family="sans-serif" font-size="14" lengthAdjust="spacing" textLength="62" x="413.5" y="72.1074">Controller</text><rect fill="#E2E2F0" height="32.6211" rx="2.5" ry="2.5" style="stroke:#181818;stroke-width:0.5;" width="76" x="406.5" y="601.9863"/><text fill="#000000" font-family="sans-serif" font-size="14" lengthAdjust="spacing" textLength="62" x="413.5" y="624.0938">Controller</text><rect fill="#E2E2F0" height="32.6211" rx="2.5" ry="2.5" style="stroke:#181818;stroke-width:0.5;" width="61" x="724" y="50"/><text fill="#000000" font-family="sans-serif" font-size="14" lengthAdjust="spacing" textLength="47" x="731" y="72.1074">Service</text><rect fill="#E2E2F0" height="32.6211" rx="2.5" ry="2.5" style="stroke:#181818;stroke-width:0.5;" width="61" x="724" y="601.9863"/><text fill="#000000" font-family="sans-serif" font-size="14" lengthAdjust="spacing" textLength="47" x="731" y="624.0938">Service</text><rect fill="#E2E2F0" height="32.6211" rx="2.5" ry="2.5" style="stroke:#181818;stroke-width:0.5;" width="82" x="830.5" y="50"/><text fill="#000000" font-family="sans-serif" font-size="14" lengthAdjust="spacing" textLength="68" x="837.5" y="72.1074">Repository</text><rect fill="#E2E2F0" height="32.6211" rx="2.5" ry="2.5" style="stroke:#181818;stroke-width:0.5;" width="82" x="830.5" y="601.9863"/><text fill="#000000" font-family="sans-serif" font-size="14" lengthAdjust="spacing" textLength="68" x="837.5" y="624.0938">Repository</text><rect fill="#E2E2F0" height="32.6211" rx="2.5" ry="2.5" style="stroke:#181818;stroke-width:0.5;" width="62" x="922.5" y="50"/><text fill="#000000" font-family="sans-serif" font-size="14" lengthAdjust="spacing" textLength="48" x="929.5" y="72.1074">Domain</text><rect fill="#E2E2F0" height="32.6211" rx="2.5" ry="2.5" style="stroke:#181818;stroke-width:0.5;" width="62" x="922.5" y="601.9863"/><text fill="#000000" font-family="sans-serif" font-size="14" lengthAdjust="spacing" textLength="48" x="929.5" y="624.0938">Domain</text><rect fill="#E2E2F0" height="32.6211" rx="2.5" ry="2.5" style="stroke:#181818;stroke-width:0.5;" width="76" x="994.5" y="50"/><text fill="#000000" font-family="sans-serif" font-size="14" lengthAdjust="spacing" textLength="62" x="1001.5" y="72.1074">DataBase</text><rect fill="#E2E2F0" height="32.6211" rx="2.5" ry="2.5" style="stroke:#181818;stroke-width:0.5;" width="76" x="994.5" y="601.9863"/><text fill="#000000" font-family="sans-serif" font-size="14" lengthAdjust="spacing" textLength="62" x="1001.5" y="624.0938">DataBase</text><rect fill="#FFFFFF" height="468.0742" style="stroke:#181818;stroke-width:1.0;" width="10" x="243.5" y="116.9121"/><rect fill="#FFFFFF" height="405.4922" style="stroke:#181818;stroke-width:1.0;" width="10" x="439.5" y="148.2031"/><rect fill="#FFFFFF" height="155.1641" style="stroke:#181818;stroke-width:1.0;" width="10" x="749.5" y="367.2402"/><rect fill="#FFFFFF" height="92.582" style="stroke:#181818;stroke-width:1.0;" width="10" x="866.5" y="398.5313"/><rect fill="#FFFFFF" height="31.291" style="stroke:#181818;stroke-width:1.0;" width="10" x="948.5" y="179.4941"/><rect fill="#FFFFFF" height="31.291" style="stroke:#181818;stroke-width:1.0;" width="10" x="948.5" y="242.0762"/><rect fill="#FFFFFF" height="31.291" style="stroke:#181818;stroke-width:1.0;" width="10" x="948.5" y="304.6582"/><rect fill="#FFFFFF" height="30" style="stroke:#181818;stroke-width:1.0;" width="10" x="1027.5" y="429.8223"/><ellipse cx="22" cy="116.1621" fill="none" rx="4" ry="4" style="stroke:#181818;stroke-width:1.5;"/><polygon fill="#181818" points="231.5,112.9121,241.5,116.9121,231.5,120.9121,235.5,116.9121" style="stroke:#181818;stroke-width:1.0;"/><line style="stroke:#181818;stroke-width:1.0;" x1="26.5" x2="237.5" y1="116.9121" y2="116.9121"/><text fill="#000000" font-family="sans-serif" font-size="13" font-weight="bold" lengthAdjust="spacing" textLength="7" x="29.5" y="111.6494">1</text><text fill="#000000" font-family="sans-serif" font-size="13" lengthAdjust="spacing" textLength="191" x="40.5" y="111.6494">I want to add a Device to a Room</text><polygon fill="#181818" points="427.5,144.2031,437.5,148.2031,427.5,152.2031,431.5,148.2031" style="stroke:#181818;stroke-width:1.0;"/><line style="stroke:#181818;stroke-width:1.0;" x1="253.5" x2="433.5" y1="148.2031" y2="148.2031"/><text fill="#000000" font-family="sans-serif" font-size="13" font-weight="bold" lengthAdjust="spacing" textLength="7" x="260.5" y="142.9404">2</text><text fill="#000000" font-family="sans-serif" font-size="13" lengthAdjust="spacing" textLength="156" x="271.5" y="142.9404">addDevice(deviceDataDTO)</text><polygon fill="#181818" points="936.5,175.4941,946.5,179.4941,936.5,183.4941,940.5,179.4941" style="stroke:#181818;stroke-width:1.0;"/><line style="stroke:#181818;stroke-width:1.0;" x1="449.5" x2="942.5" y1="179.4941" y2="179.4941"/><text fill="#000000" font-family="sans-serif" font-size="13" font-weight="bold" lengthAdjust="spacing" textLength="7" x="456.5" y="174.2314">3</text><text fill="#000000" font-family="sans-serif" font-size="13" lengthAdjust="spacing" textLength="81" x="467.5" y="174.2314">RoomID(idStr)</text><polygon fill="#181818" points="460.5,206.7852,450.5,210.7852,460.5,214.7852,456.5,210.7852" style="stroke:#181818;stroke-width:1.0;"/><line style="stroke:#181818;stroke-width:1.0;stroke-dasharray:2.0,2.0;" x1="454.5" x2="952.5" y1="210.7852" y2="210.7852"/><text fill="#000000" font-family="sans-serif" font-size="13" font-weight="bold" lengthAdjust="spacing" textLength="7" x="466.5" y="205.5225">4</text><text fill="#000000" font-family="sans-serif" font-size="13" lengthAdjust="spacing" textLength="41" x="477.5" y="205.5225">roomID</text><polygon fill="#181818" points="936.5,238.0762,946.5,242.0762,936.5,246.0762,940.5,242.0762" style="stroke:#181818;stroke-width:1.0;"/><line style="stroke:#181818;stroke-width:1.0;" x1="449.5" x2="942.5" y1="242.0762" y2="242.0762"/><text fill="#000000" font-family="sans-serif" font-size="13" font-weight="bold" lengthAdjust="spacing" textLength="7" x="456.5" y="236.8135">5</text><text fill="#000000" font-family="sans-serif" font-size="13" lengthAdjust="spacing" textLength="129" x="467.5" y="236.8135">DeviceName(strName)</text><polygon fill="#181818" points="460.5,269.3672,450.5,273.3672,460.5,277.3672,456.5,273.3672" style="stroke:#181818;stroke-width:1.0;"/><line style="stroke:#181818;stroke-width:1.0;stroke-dasharray:2.0,2.0;" x1="454.5" x2="952.5" y1="273.3672" y2="273.3672"/><text fill="#000000" font-family="sans-serif" font-size="13" font-weight="bold" lengthAdjust="spacing" textLength="7" x="466.5" y="268.1045">6</text><text fill="#000000" font-family="sans-serif" font-size="13" lengthAdjust="spacing" textLength="70" x="477.5" y="268.1045">deviceName</text><polygon fill="#181818" points="936.5,300.6582,946.5,304.6582,936.5,308.6582,940.5,304.6582" style="stroke:#181818;stroke-width:1.0;"/><line style="stroke:#181818;stroke-width:1.0;" x1="449.5" x2="942.5" y1="304.6582" y2="304.6582"/><text fill="#000000" font-family="sans-serif" font-size="13" font-weight="bold" lengthAdjust="spacing" textLength="7" x="456.5" y="299.3955">7</text><text fill="#000000" font-family="sans-serif" font-size="13" lengthAdjust="spacing" textLength="113" x="467.5" y="299.3955">DeviceTypeID(idStr)</text><polygon fill="#181818" points="460.5,331.9492,450.5,335.9492,460.5,339.9492,456.5,335.9492" style="stroke:#181818;stroke-width:1.0;"/><line style="stroke:#181818;stroke-width:1.0;stroke-dasharray:2.0,2.0;" x1="454.5" x2="952.5" y1="335.9492" y2="335.9492"/><text fill="#000000" font-family="sans-serif" font-size="13" font-weight="bold" lengthAdjust="spacing" textLength="7" x="466.5" y="330.6865">8</text><text fill="#000000" font-family="sans-serif" font-size="13" lengthAdjust="spacing" textLength="76" x="477.5" y="330.6865">deviceTypeID</text><polygon fill="#181818" points="737.5,363.2402,747.5,367.2402,737.5,371.2402,741.5,367.2402" style="stroke:#181818;stroke-width:1.0;"/><line style="stroke:#181818;stroke-width:1.0;" x1="449.5" x2="743.5" y1="367.2402" y2="367.2402"/><text fill="#000000" font-family="sans-serif" font-size="13" font-weight="bold" lengthAdjust="spacing" textLength="7" x="456.5" y="361.9775">9</text><text fill="#000000" font-family="sans-serif" font-size="13" lengthAdjust="spacing" textLength="270" x="467.5" y="361.9775">addDevice(roomID, deviceName, deviceTypeID)</text><polygon fill="#181818" points="854.5,394.5313,864.5,398.5313,854.5,402.5313,858.5,398.5313" style="stroke:#181818;stroke-width:1.0;"/><line style="stroke:#181818;stroke-width:1.0;" x1="759.5" x2="860.5" y1="398.5313" y2="398.5313"/><text fill="#000000" font-family="sans-serif" font-size="13" font-weight="bold" lengthAdjust="spacing" textLength="14" x="766.5" y="393.2686">10</text><text fill="#000000" font-family="sans-serif" font-size="13" lengthAdjust="spacing" textLength="70" x="784.5" y="393.2686">save(device)</text><polygon fill="#181818" points="1015.5,425.8223,1025.5,429.8223,1015.5,433.8223,1019.5,429.8223" style="stroke:#181818;stroke-width:1.0;"/><line style="stroke:#181818;stroke-width:1.0;" x1="876.5" x2="1021.5" y1="429.8223" y2="429.8223"/><text fill="#000000" font-family="sans-serif" font-size="13" font-weight="bold" lengthAdjust="spacing" textLength="14" x="883.5" y="424.5596">11</text><text fill="#000000" font-family="sans-serif" font-size="13" lengthAdjust="spacing" textLength="26" x="901.5" y="424.5596">save</text><polygon fill="#181818" points="770.5,487.1133,760.5,491.1133,770.5,495.1133,766.5,491.1133" style="stroke:#181818;stroke-width:1.0;"/><line style="stroke:#181818;stroke-width:1.0;stroke-dasharray:2.0,2.0;" x1="764.5" x2="870.5" y1="491.1133" y2="491.1133"/><text fill="#000000" font-family="sans-serif" font-size="13" font-weight="bold" lengthAdjust="spacing" textLength="14" x="776.5" y="485.8506">12</text><text fill="#000000" font-family="sans-serif" font-size="13" lengthAdjust="spacing" textLength="36" x="794.5" y="485.8506">device</text><polygon fill="#181818" points="460.5,518.4043,450.5,522.4043,460.5,526.4043,456.5,522.4043" style="stroke:#181818;stroke-width:1.0;"/><line style="stroke:#181818;stroke-width:1.0;stroke-dasharray:2.0,2.0;" x1="454.5" x2="753.5" y1="522.4043" y2="522.4043"/><text fill="#000000" font-family="sans-serif" font-size="13" font-weight="bold" lengthAdjust="spacing" textLength="14" x="466.5" y="517.1416">13</text><text fill="#000000" font-family="sans-serif" font-size="13" lengthAdjust="spacing" textLength="36" x="484.5" y="517.1416">device</text><polygon fill="#181818" points="264.5,549.6953,254.5,553.6953,264.5,557.6953,260.5,553.6953" style="stroke:#181818;stroke-width:1.0;"/><line style="stroke:#181818;stroke-width:1.0;stroke-dasharray:2.0,2.0;" x1="258.5" x2="443.5" y1="553.6953" y2="553.6953"/><text fill="#000000" font-family="sans-serif" font-size="13" font-weight="bold" lengthAdjust="spacing" textLength="14" x="270.5" y="548.4326">14</text><text fill="#000000" font-family="sans-serif" font-size="13" lengthAdjust="spacing" textLength="62" x="288.5" y="548.4326">deviceDTO</text><polygon fill="#181818" points="33.5,580.9863,23.5,584.9863,33.5,588.9863,29.5,584.9863" style="stroke:#181818;stroke-width:1.0;"/><line style="stroke:#181818;stroke-width:1.0;stroke-dasharray:2.0,2.0;" x1="27.5" x2="247.5" y1="584.9863" y2="584.9863"/><text fill="#000000" font-family="sans-serif" font-size="13" font-weight="bold" lengthAdjust="spacing" textLength="14" x="39.5" y="579.7236">15</text><text fill="#000000" font-family="sans-serif" font-size="13" lengthAdjust="spacing" textLength="62" x="57.5" y="579.7236">deviceDTO</text><!--SRC=[ZP91Jy9048Nl-ol6NiG4vCx10zH44XNJ8lUXEy5DkjswkqNvzyvkGLeG0vUssM_UlBUysm_lQpSPZ-iIAz_eyhumUkpeiw6ge95KkB6enKrjSQCHIjoPneFJvB528R3nfchqcYo_5zvOIDuTsGJGGNWHDLgl2bMpE2GPEJyh5LK-0jbCYBNvXYJNJ3qPJOa0_lLcPgRorfJbNdIsp9xFePpiLXKKYNnrVfvHRPnYUxjsyUFRuXnAZKPLHI1TlFnnZXwdwDejqrHG9O7j2n62WXazS22Om1o-0kuDe9I0a5Am5hyXCqQ7Ur9Rz1JpymWFXbGyoWCjFP3n4JQcoyNTSIJ65n7dCRR9Kq5qdWwKpBtje25304P7VHj98Qa7dSYr3bvHqy1v6vx_YyfV_YhXvQwcwzpA3dzHEb_rxgrDEEoO6lPqEXkv9uAdmz_6TM0LXzl3nNUms9L8C3bDzzpnVDhpnbyjUx3MwdMHA1WtdqRjKi7TFkIXMFjEB1TThYr4Q15ZiOWNm52s7m00]--></g></svg>