<?xml version="1.0" encoding="us-ascii" standalone="no"?><svg xmlns="http://www.w3.org/2000/svg" xmlns:xlink="http://www.w3.org/1999/xlink" contentStyleType="text/css" height="1116px" preserveAspectRatio="none" style="width:2131px;height:1116px;background:#FFFFFF;" version="1.1" viewBox="0 0 2131 1116" width="2131px" zoomAndPan="magnify"><defs/><g><rect fill="#DDDDDD" height="1104.7109" style="stroke:#181818;stroke-width:0.5;" width="1560.5" x="482.5" y="6"/><text fill="#000000" font-family="sans-serif" font-size="13" font-weight="bold" lengthAdjust="spacing" textLength="75" x="1225.25" y="20.0283">SmartHome</text><rect fill="#FFFFFF" height="894.1777" style="stroke:#181818;stroke-width:1.0;" width="10" x="272.5" y="116.9121"/><rect fill="#FFFFFF" height="831.5957" style="stroke:#181818;stroke-width:1.0;" width="10" x="519.5" y="148.2031"/><rect fill="#FFFFFF" height="33.6211" style="stroke:#181818;stroke-width:1.0;" width="10" x="873.5" y="189.4941"/><rect fill="#FFFFFF" height="33.6211" style="stroke:#181818;stroke-width:1.0;" width="10" x="1094" y="264.4063"/><rect fill="#FFFFFF" height="33.6211" style="stroke:#181818;stroke-width:1.0;" width="10" x="1291" y="339.3184"/><rect fill="#FFFFFF" height="33.6211" style="stroke:#181818;stroke-width:1.0;" width="10" x="1439.5" y="414.2305"/><rect fill="#FFFFFF" height="156.4551" style="stroke:#181818;stroke-width:1.0;" width="10" x="1544" y="479.1426"/><rect fill="#FFFFFF" height="156.4551" style="stroke:#181818;stroke-width:1.0;" width="10" x="1544" y="666.8887"/><rect fill="#FFFFFF" height="93.873" style="stroke:#181818;stroke-width:1.0;" width="10" x="1544" y="854.6348"/><rect fill="#FFFFFF" height="93.873" style="stroke:#181818;stroke-width:1.0;" width="10" x="1848" y="510.4336"/><rect fill="#FFFFFF" height="93.873" style="stroke:#181818;stroke-width:1.0;" width="10" x="1848" y="698.1797"/><rect fill="#FFFFFF" height="31.291" style="stroke:#181818;stroke-width:1.0;" width="10" x="1966.5" y="885.9258"/><rect fill="#FFFFFF" height="31.291" style="stroke:#181818;stroke-width:1.0;" width="10" x="2082" y="541.7246"/><rect fill="#FFFFFF" height="31.291" style="stroke:#181818;stroke-width:1.0;" width="10" x="2082" y="729.4707"/><line style="stroke:#181818;stroke-width:0.5;stroke-dasharray:5.0,5.0;" x1="22" x2="22" y1="83.6211" y2="1029.0898"/><line style="stroke:#181818;stroke-width:0.5;stroke-dasharray:5.0,5.0;" x1="277" x2="277" y1="83.6211" y2="1029.0898"/><line style="stroke:#181818;stroke-width:0.5;stroke-dasharray:5.0,5.0;" x1="524.5" x2="524.5" y1="83.6211" y2="1029.0898"/><line style="stroke:#181818;stroke-width:0.5;stroke-dasharray:5.0,5.0;" x1="878.5" x2="878.5" y1="188.0137" y2="1029.0898"/><line style="stroke:#181818;stroke-width:0.5;stroke-dasharray:5.0,5.0;" x1="1098.5" x2="1098.5" y1="262.9258" y2="1029.0898"/><line style="stroke:#181818;stroke-width:0.5;stroke-dasharray:5.0,5.0;" x1="1295.5" x2="1295.5" y1="337.8379" y2="1029.0898"/><line style="stroke:#181818;stroke-width:0.5;stroke-dasharray:5.0,5.0;" x1="1444.5" x2="1444.5" y1="412.75" y2="1029.0898"/><line style="stroke:#181818;stroke-width:0.5;stroke-dasharray:5.0,5.0;" x1="1548.5" x2="1548.5" y1="83.6211" y2="1029.0898"/><line style="stroke:#181818;stroke-width:0.5;stroke-dasharray:5.0,5.0;" x1="1853" x2="1853" y1="83.6211" y2="1029.0898"/><line style="stroke:#181818;stroke-width:0.5;stroke-dasharray:5.0,5.0;" x1="1971" x2="1971" y1="83.6211" y2="1029.0898"/><line style="stroke:#181818;stroke-width:0.5;stroke-dasharray:5.0,5.0;" x1="2087" x2="2087" y1="83.6211" y2="1029.0898"/><text fill="#000000" font-family="sans-serif" font-size="14" lengthAdjust="spacing" textLength="29" x="5" y="80.1074">User</text><ellipse cx="22.5" cy="13.5" fill="#E2E2F0" rx="8" ry="8" style="stroke:#181818;stroke-width:0.5;"/><path d="M22.5,21.5 L22.5,48.5 M9.5,29.5 L35.5,29.5 M22.5,48.5 L9.5,63.5 M22.5,48.5 L35.5,63.5 " fill="none" style="stroke:#181818;stroke-width:0.5;"/><text fill="#000000" font-family="sans-serif" font-size="14" lengthAdjust="spacing" textLength="29" x="5" y="1043.1973">User</text><ellipse cx="22.5" cy="1055.2109" fill="#E2E2F0" rx="8" ry="8" style="stroke:#181818;stroke-width:0.5;"/><path d="M22.5,1063.2109 L22.5,1090.2109 M9.5,1071.2109 L35.5,1071.2109 M22.5,1090.2109 L9.5,1105.2109 M22.5,1090.2109 L35.5,1105.2109 " fill="none" style="stroke:#181818;stroke-width:0.5;"/><rect fill="#E2E2F0" height="32.6211" rx="2.5" ry="2.5" style="stroke:#181818;stroke-width:0.5;" width="79" x="238" y="50"/><text fill="#000000" font-family="sans-serif" font-size="14" lengthAdjust="spacing" textLength="65" x="245" y="72.1074">RestClient</text><rect fill="#E2E2F0" height="32.6211" rx="2.5" ry="2.5" style="stroke:#181818;stroke-width:0.5;" width="79" x="238" y="1028.0898"/><text fill="#000000" font-family="sans-serif" font-size="14" lengthAdjust="spacing" textLength="65" x="245" y="1050.1973">RestClient</text><rect fill="#E2E2F0" height="32.6211" rx="2.5" ry="2.5" style="stroke:#181818;stroke-width:0.5;" width="76" x="486.5" y="50"/><text fill="#000000" font-family="sans-serif" font-size="14" lengthAdjust="spacing" textLength="62" x="493.5" y="72.1074">Controller</text><rect fill="#E2E2F0" height="32.6211" rx="2.5" ry="2.5" style="stroke:#181818;stroke-width:0.5;" width="76" x="486.5" y="1028.0898"/><text fill="#000000" font-family="sans-serif" font-size="14" lengthAdjust="spacing" textLength="62" x="493.5" y="1050.1973">Controller</text><rect fill="#E2E2F0" height="32.6211" rx="2.5" ry="2.5" style="stroke:#181818;stroke-width:0.5;" width="196" x="780.5" y="1028.0898"/><text fill="#000000" font-family="sans-serif" font-size="14" lengthAdjust="spacing" textLength="182" x="787.5" y="1050.1973">sensorTypeID:SensorTypeID</text><rect fill="#E2E2F0" height="32.6211" rx="2.5" ry="2.5" style="stroke:#181818;stroke-width:0.5;" width="225" x="986.5" y="1028.0898"/><text fill="#000000" font-family="sans-serif" font-size="14" lengthAdjust="spacing" textLength="211" x="993.5" y="1050.1973">blindRollerValue:BlindRollerValue</text><rect fill="#E2E2F0" height="32.6211" rx="2.5" ry="2.5" style="stroke:#181818;stroke-width:0.5;" width="149" x="1221.5" y="1028.0898"/><text fill="#000000" font-family="sans-serif" font-size="14" lengthAdjust="spacing" textLength="135" x="1228.5" y="1050.1973">actuatorID:ActuatorID</text><rect fill="#E2E2F0" height="32.6211" rx="2.5" ry="2.5" style="stroke:#181818;stroke-width:0.5;" width="128" x="1380.5" y="1028.0898"/><text fill="#000000" font-family="sans-serif" font-size="14" lengthAdjust="spacing" textLength="114" x="1387.5" y="1050.1973">deviceID:DeviceID</text><rect fill="#E2E2F0" height="32.6211" rx="2.5" ry="2.5" style="stroke:#181818;stroke-width:0.5;" width="61" x="1518.5" y="50"/><text fill="#000000" font-family="sans-serif" font-size="14" lengthAdjust="spacing" textLength="47" x="1525.5" y="72.1074">Service</text><rect fill="#E2E2F0" height="32.6211" rx="2.5" ry="2.5" style="stroke:#181818;stroke-width:0.5;" width="61" x="1518.5" y="1028.0898"/><text fill="#000000" font-family="sans-serif" font-size="14" lengthAdjust="spacing" textLength="47" x="1525.5" y="1050.1973">Service</text><rect fill="#E2E2F0" height="32.6211" rx="2.5" ry="2.5" style="stroke:#181818;stroke-width:0.5;" width="82" x="1812" y="50"/><text fill="#000000" font-family="sans-serif" font-size="14" lengthAdjust="spacing" textLength="68" x="1819" y="72.1074">Repository</text><rect fill="#E2E2F0" height="32.6211" rx="2.5" ry="2.5" style="stroke:#181818;stroke-width:0.5;" width="82" x="1812" y="1028.0898"/><text fill="#000000" font-family="sans-serif" font-size="14" lengthAdjust="spacing" textLength="68" x="1819" y="1050.1973">Repository</text><rect fill="#E2E2F0" height="32.6211" rx="2.5" ry="2.5" style="stroke:#181818;stroke-width:0.5;" width="135" x="1904" y="50"/><text fill="#000000" font-family="sans-serif" font-size="14" lengthAdjust="spacing" textLength="121" x="1911" y="72.1074">BlindRollerActuator</text><rect fill="#E2E2F0" height="32.6211" rx="2.5" ry="2.5" style="stroke:#181818;stroke-width:0.5;" width="135" x="1904" y="1028.0898"/><text fill="#000000" font-family="sans-serif" font-size="14" lengthAdjust="spacing" textLength="121" x="1911" y="1050.1973">BlindRollerActuator</text><rect fill="#E2E2F0" height="32.6211" rx="2.5" ry="2.5" style="stroke:#181818;stroke-width:0.5;" width="76" x="2049" y="50"/><text fill="#000000" font-family="sans-serif" font-size="14" lengthAdjust="spacing" textLength="62" x="2056" y="72.1074">DataBase</text><rect fill="#E2E2F0" height="32.6211" rx="2.5" ry="2.5" style="stroke:#181818;stroke-width:0.5;" width="76" x="2049" y="1028.0898"/><text fill="#000000" font-family="sans-serif" font-size="14" lengthAdjust="spacing" textLength="62" x="2056" y="1050.1973">DataBase</text><rect fill="#FFFFFF" height="894.1777" style="stroke:#181818;stroke-width:1.0;" width="10" x="272.5" y="116.9121"/><rect fill="#FFFFFF" height="831.5957" style="stroke:#181818;stroke-width:1.0;" width="10" x="519.5" y="148.2031"/><rect fill="#FFFFFF" height="33.6211" style="stroke:#181818;stroke-width:1.0;" width="10" x="873.5" y="189.4941"/><rect fill="#FFFFFF" height="33.6211" style="stroke:#181818;stroke-width:1.0;" width="10" x="1094" y="264.4063"/><rect fill="#FFFFFF" height="33.6211" style="stroke:#181818;stroke-width:1.0;" width="10" x="1291" y="339.3184"/><rect fill="#FFFFFF" height="33.6211" style="stroke:#181818;stroke-width:1.0;" width="10" x="1439.5" y="414.2305"/><rect fill="#FFFFFF" height="156.4551" style="stroke:#181818;stroke-width:1.0;" width="10" x="1544" y="479.1426"/><rect fill="#FFFFFF" height="156.4551" style="stroke:#181818;stroke-width:1.0;" width="10" x="1544" y="666.8887"/><rect fill="#FFFFFF" height="93.873" style="stroke:#181818;stroke-width:1.0;" width="10" x="1544" y="854.6348"/><rect fill="#FFFFFF" height="93.873" style="stroke:#181818;stroke-width:1.0;" width="10" x="1848" y="510.4336"/><rect fill="#FFFFFF" height="93.873" style="stroke:#181818;stroke-width:1.0;" width="10" x="1848" y="698.1797"/><rect fill="#FFFFFF" height="31.291" style="stroke:#181818;stroke-width:1.0;" width="10" x="1966.5" y="885.9258"/><rect fill="#FFFFFF" height="31.291" style="stroke:#181818;stroke-width:1.0;" width="10" x="2082" y="541.7246"/><rect fill="#FFFFFF" height="31.291" style="stroke:#181818;stroke-width:1.0;" width="10" x="2082" y="729.4707"/><polygon fill="#181818" points="260.5,112.9121,270.5,116.9121,260.5,120.9121,264.5,116.9121" style="stroke:#181818;stroke-width:1.0;"/><line style="stroke:#181818;stroke-width:1.0;" x1="22.5" x2="266.5" y1="116.9121" y2="116.9121"/><text fill="#000000" font-family="sans-serif" font-size="13" font-weight="bold" lengthAdjust="spacing" textLength="7" x="29.5" y="111.6494">1</text><text fill="#000000" font-family="sans-serif" font-size="13" lengthAdjust="spacing" textLength="220" x="40.5" y="111.6494">I want to close a blond roller in a room</text><polygon fill="#181818" points="507.5,144.2031,517.5,148.2031,507.5,152.2031,511.5,148.2031" style="stroke:#181818;stroke-width:1.0;"/><line style="stroke:#181818;stroke-width:1.0;" x1="282.5" x2="513.5" y1="148.2031" y2="148.2031"/><text fill="#000000" font-family="sans-serif" font-size="13" font-weight="bold" lengthAdjust="spacing" textLength="7" x="289.5" y="142.9404">2</text><text fill="#000000" font-family="sans-serif" font-size="13" lengthAdjust="spacing" textLength="207" x="300.5" y="142.9404">closeBlindRoller(actuatorValueDTO)</text><polygon fill="#181818" points="768.5,175.4941,778.5,179.4941,768.5,183.4941,772.5,179.4941" style="stroke:#181818;stroke-width:1.0;"/><line style="stroke:#181818;stroke-width:1.0;" x1="529.5" x2="774.5" y1="179.4941" y2="179.4941"/><text fill="#000000" font-family="sans-serif" font-size="13" font-weight="bold" lengthAdjust="spacing" textLength="7" x="536.5" y="174.2314">3</text><text fill="#000000" font-family="sans-serif" font-size="13" lengthAdjust="spacing" textLength="216" x="547.5" y="174.2314">SensorTypeID ("PercentagePosition")</text><rect fill="#E2E2F0" height="32.6211" rx="2.5" ry="2.5" style="stroke:#181818;stroke-width:0.5;" width="196" x="780.5" y="156.2031"/><text fill="#000000" font-family="sans-serif" font-size="14" lengthAdjust="spacing" textLength="182" x="787.5" y="178.3105">sensorTypeID:SensorTypeID</text><polygon fill="#181818" points="540.5,219.1152,530.5,223.1152,540.5,227.1152,536.5,223.1152" style="stroke:#181818;stroke-width:1.0;"/><line style="stroke:#181818;stroke-width:1.0;stroke-dasharray:2.0,2.0;" x1="534.5" x2="877.5" y1="223.1152" y2="223.1152"/><text fill="#000000" font-family="sans-serif" font-size="13" font-weight="bold" lengthAdjust="spacing" textLength="7" x="546.5" y="217.8525">4</text><text fill="#000000" font-family="sans-serif" font-size="13" lengthAdjust="spacing" textLength="79" x="557.5" y="217.8525">sensorTypeID</text><polygon fill="#181818" points="974.5,250.4063,984.5,254.4063,974.5,258.4063,978.5,254.4063" style="stroke:#181818;stroke-width:1.0;"/><line style="stroke:#181818;stroke-width:1.0;" x1="529.5" x2="980.5" y1="254.4063" y2="254.4063"/><text fill="#000000" font-family="sans-serif" font-size="13" font-weight="bold" lengthAdjust="spacing" textLength="7" x="536.5" y="249.1436">5</text><text fill="#000000" font-family="sans-serif" font-size="13" lengthAdjust="spacing" textLength="132" x="547.5" y="249.1436">BlindRollerValue(value)</text><rect fill="#E2E2F0" height="32.6211" rx="2.5" ry="2.5" style="stroke:#181818;stroke-width:0.5;" width="225" x="986.5" y="231.1152"/><text fill="#000000" font-family="sans-serif" font-size="14" lengthAdjust="spacing" textLength="211" x="993.5" y="253.2227">blindRollerValue:BlindRollerValue</text><polygon fill="#181818" points="540.5,294.0273,530.5,298.0273,540.5,302.0273,536.5,298.0273" style="stroke:#181818;stroke-width:1.0;"/><line style="stroke:#181818;stroke-width:1.0;stroke-dasharray:2.0,2.0;" x1="534.5" x2="1098" y1="298.0273" y2="298.0273"/><text fill="#000000" font-family="sans-serif" font-size="13" font-weight="bold" lengthAdjust="spacing" textLength="7" x="546.5" y="292.7646">6</text><text fill="#000000" font-family="sans-serif" font-size="13" lengthAdjust="spacing" textLength="93" x="557.5" y="292.7646">blindRollerValue</text><polygon fill="#181818" points="1209.5,325.3184,1219.5,329.3184,1209.5,333.3184,1213.5,329.3184" style="stroke:#181818;stroke-width:1.0;"/><line style="stroke:#181818;stroke-width:1.0;" x1="529.5" x2="1215.5" y1="329.3184" y2="329.3184"/><text fill="#000000" font-family="sans-serif" font-size="13" font-weight="bold" lengthAdjust="spacing" textLength="7" x="536.5" y="324.0557">7</text><text fill="#000000" font-family="sans-serif" font-size="13" lengthAdjust="spacing" textLength="149" x="547.5" y="324.0557">ActuatorID (strActuatorID)</text><rect fill="#E2E2F0" height="32.6211" rx="2.5" ry="2.5" style="stroke:#181818;stroke-width:0.5;" width="149" x="1221.5" y="306.0273"/><text fill="#000000" font-family="sans-serif" font-size="14" lengthAdjust="spacing" textLength="135" x="1228.5" y="328.1348">actuatorID:ActuatorID</text><polygon fill="#181818" points="540.5,368.9395,530.5,372.9395,540.5,376.9395,536.5,372.9395" style="stroke:#181818;stroke-width:1.0;"/><line style="stroke:#181818;stroke-width:1.0;stroke-dasharray:2.0,2.0;" x1="534.5" x2="1295" y1="372.9395" y2="372.9395"/><text fill="#000000" font-family="sans-serif" font-size="13" font-weight="bold" lengthAdjust="spacing" textLength="7" x="546.5" y="367.6768">8</text><text fill="#000000" font-family="sans-serif" font-size="13" lengthAdjust="spacing" textLength="59" x="557.5" y="367.6768">actuatorID</text><polygon fill="#181818" points="1368.5,400.2305,1378.5,404.2305,1368.5,408.2305,1372.5,404.2305" style="stroke:#181818;stroke-width:1.0;"/><line style="stroke:#181818;stroke-width:1.0;" x1="529.5" x2="1374.5" y1="404.2305" y2="404.2305"/><text fill="#000000" font-family="sans-serif" font-size="13" font-weight="bold" lengthAdjust="spacing" textLength="7" x="536.5" y="398.9678">9</text><text fill="#000000" font-family="sans-serif" font-size="13" lengthAdjust="spacing" textLength="127" x="547.5" y="398.9678">DeviceID (strDeviceID)</text><rect fill="#E2E2F0" height="32.6211" rx="2.5" ry="2.5" style="stroke:#181818;stroke-width:0.5;" width="128" x="1380.5" y="380.9395"/><text fill="#000000" font-family="sans-serif" font-size="14" lengthAdjust="spacing" textLength="114" x="1387.5" y="403.0469">deviceID:DeviceID</text><polygon fill="#181818" points="540.5,443.8516,530.5,447.8516,540.5,451.8516,536.5,447.8516" style="stroke:#181818;stroke-width:1.0;"/><line style="stroke:#181818;stroke-width:1.0;stroke-dasharray:2.0,2.0;" x1="534.5" x2="1443.5" y1="447.8516" y2="447.8516"/><text fill="#000000" font-family="sans-serif" font-size="13" font-weight="bold" lengthAdjust="spacing" textLength="14" x="546.5" y="442.5889">10</text><text fill="#000000" font-family="sans-serif" font-size="13" lengthAdjust="spacing" textLength="48" x="564.5" y="442.5889">deviceID</text><polygon fill="#181818" points="1532,475.1426,1542,479.1426,1532,483.1426,1536,479.1426" style="stroke:#181818;stroke-width:1.0;"/><line style="stroke:#181818;stroke-width:1.0;" x1="529.5" x2="1538" y1="479.1426" y2="479.1426"/><text fill="#000000" font-family="sans-serif" font-size="13" font-weight="bold" lengthAdjust="spacing" textLength="14" x="536.5" y="473.8799">11</text><text fill="#000000" font-family="sans-serif" font-size="13" lengthAdjust="spacing" textLength="166" x="554.5" y="473.8799">getActuatorByID (actuatorID)</text><polygon fill="#181818" points="1836,506.4336,1846,510.4336,1836,514.4336,1840,510.4336" style="stroke:#181818;stroke-width:1.0;"/><line style="stroke:#181818;stroke-width:1.0;" x1="1554" x2="1842" y1="510.4336" y2="510.4336"/><text fill="#000000" font-family="sans-serif" font-size="13" font-weight="bold" lengthAdjust="spacing" textLength="14" x="1561" y="505.1709">12</text><text fill="#000000" font-family="sans-serif" font-size="13" lengthAdjust="spacing" textLength="119" x="1579" y="505.1709">ofIdentity(actuatorID)</text><polygon fill="#181818" points="2070,537.7246,2080,541.7246,2070,545.7246,2074,541.7246" style="stroke:#181818;stroke-width:1.0;"/><line style="stroke:#181818;stroke-width:1.0;" x1="1858" x2="2076" y1="541.7246" y2="541.7246"/><text fill="#000000" font-family="sans-serif" font-size="13" font-weight="bold" lengthAdjust="spacing" textLength="14" x="1865" y="536.4619">13</text><text fill="#000000" font-family="sans-serif" font-size="13" lengthAdjust="spacing" textLength="113" x="1883" y="536.4619">findById(actuatorID)</text><polygon fill="#181818" points="1869,569.0156,1859,573.0156,1869,577.0156,1865,573.0156" style="stroke:#181818;stroke-width:1.0;"/><line style="stroke:#181818;stroke-width:1.0;stroke-dasharray:2.0,2.0;" x1="1863" x2="2086" y1="573.0156" y2="573.0156"/><text fill="#000000" font-family="sans-serif" font-size="13" font-weight="bold" lengthAdjust="spacing" textLength="14" x="1875" y="567.7529">14</text><text fill="#000000" font-family="sans-serif" font-size="13" lengthAdjust="spacing" textLength="109" x="1893" y="567.7529">actuatorBlindRoller</text><polygon fill="#181818" points="1565,600.3066,1555,604.3066,1565,608.3066,1561,604.3066" style="stroke:#181818;stroke-width:1.0;"/><line style="stroke:#181818;stroke-width:1.0;stroke-dasharray:2.0,2.0;" x1="1559" x2="1852" y1="604.3066" y2="604.3066"/><text fill="#000000" font-family="sans-serif" font-size="13" font-weight="bold" lengthAdjust="spacing" textLength="14" x="1571" y="599.0439">15</text><text fill="#000000" font-family="sans-serif" font-size="13" lengthAdjust="spacing" textLength="109" x="1589" y="599.0439">actuatorBlindRoller</text><polygon fill="#181818" points="540.5,631.5977,530.5,635.5977,540.5,639.5977,536.5,635.5977" style="stroke:#181818;stroke-width:1.0;"/><line style="stroke:#181818;stroke-width:1.0;stroke-dasharray:2.0,2.0;" x1="534.5" x2="1548" y1="635.5977" y2="635.5977"/><text fill="#000000" font-family="sans-serif" font-size="13" font-weight="bold" lengthAdjust="spacing" textLength="14" x="546.5" y="630.335">16</text><text fill="#000000" font-family="sans-serif" font-size="13" lengthAdjust="spacing" textLength="109" x="564.5" y="630.335">actuatorBlindRoller</text><polygon fill="#181818" points="1532,662.8887,1542,666.8887,1532,670.8887,1536,666.8887" style="stroke:#181818;stroke-width:1.0;"/><line style="stroke:#181818;stroke-width:1.0;" x1="529.5" x2="1538" y1="666.8887" y2="666.8887"/><text fill="#000000" font-family="sans-serif" font-size="13" font-weight="bold" lengthAdjust="spacing" textLength="14" x="536.5" y="661.626">17</text><text fill="#000000" font-family="sans-serif" font-size="13" lengthAdjust="spacing" textLength="257" x="554.5" y="661.626">getDeviceReadings (deviceID, sensorTypeID)</text><polygon fill="#181818" points="1836,694.1797,1846,698.1797,1836,702.1797,1840,698.1797" style="stroke:#181818;stroke-width:1.0;"/><line style="stroke:#181818;stroke-width:1.0;" x1="1554" x2="1842" y1="698.1797" y2="698.1797"/><text fill="#000000" font-family="sans-serif" font-size="13" font-weight="bold" lengthAdjust="spacing" textLength="14" x="1561" y="692.917">18</text><text fill="#000000" font-family="sans-serif" font-size="13" lengthAdjust="spacing" textLength="257" x="1579" y="692.917">getDeviceReadings (deviceID, sensorTypeID)</text><polygon fill="#181818" points="2070,725.4707,2080,729.4707,2070,733.4707,2074,729.4707" style="stroke:#181818;stroke-width:1.0;"/><line style="stroke:#181818;stroke-width:1.0;" x1="1858" x2="2076" y1="729.4707" y2="729.4707"/><text fill="#000000" font-family="sans-serif" font-size="13" font-weight="bold" lengthAdjust="spacing" textLength="14" x="1865" y="724.208">19</text><text fill="#000000" font-family="sans-serif" font-size="13" lengthAdjust="spacing" textLength="43" x="1883" y="724.208">findAll()</text><polygon fill="#181818" points="1869,756.7617,1859,760.7617,1869,764.7617,1865,760.7617" style="stroke:#181818;stroke-width:1.0;"/><line style="stroke:#181818;stroke-width:1.0;stroke-dasharray:2.0,2.0;" x1="1863" x2="2086" y1="760.7617" y2="760.7617"/><text fill="#000000" font-family="sans-serif" font-size="13" font-weight="bold" lengthAdjust="spacing" textLength="14" x="1875" y="755.499">20</text><text fill="#000000" font-family="sans-serif" font-size="13" lengthAdjust="spacing" textLength="111" x="1893" y="755.499">deviceReadingsList</text><polygon fill="#181818" points="1565,788.0527,1555,792.0527,1565,796.0527,1561,792.0527" style="stroke:#181818;stroke-width:1.0;"/><line style="stroke:#181818;stroke-width:1.0;stroke-dasharray:2.0,2.0;" x1="1559" x2="1852" y1="792.0527" y2="792.0527"/><text fill="#000000" font-family="sans-serif" font-size="13" font-weight="bold" lengthAdjust="spacing" textLength="14" x="1571" y="786.79">21</text><text fill="#000000" font-family="sans-serif" font-size="13" lengthAdjust="spacing" textLength="111" x="1589" y="786.79">deviceReadingsList</text><polygon fill="#181818" points="540.5,819.3438,530.5,823.3438,540.5,827.3438,536.5,823.3438" style="stroke:#181818;stroke-width:1.0;"/><line style="stroke:#181818;stroke-width:1.0;stroke-dasharray:2.0,2.0;" x1="534.5" x2="1548" y1="823.3438" y2="823.3438"/><text fill="#000000" font-family="sans-serif" font-size="13" font-weight="bold" lengthAdjust="spacing" textLength="14" x="546.5" y="818.0811">22</text><text fill="#000000" font-family="sans-serif" font-size="13" lengthAdjust="spacing" textLength="111" x="564.5" y="818.0811">deviceReadingsList</text><polygon fill="#181818" points="1532,850.6348,1542,854.6348,1532,858.6348,1536,854.6348" style="stroke:#181818;stroke-width:1.0;"/><line style="stroke:#181818;stroke-width:1.0;" x1="529.5" x2="1538" y1="854.6348" y2="854.6348"/><text fill="#000000" font-family="sans-serif" font-size="13" font-weight="bold" lengthAdjust="spacing" textLength="14" x="536.5" y="849.3721">23</text><text fill="#000000" font-family="sans-serif" font-size="13" lengthAdjust="spacing" textLength="416" x="554.5" y="849.3721">setValue (actuatorBlindRoller, blindRollerValue, blindRollerCurrentValue)</text><polygon fill="#181818" points="1954.5,881.9258,1964.5,885.9258,1954.5,889.9258,1958.5,885.9258" style="stroke:#181818;stroke-width:1.0;"/><line style="stroke:#181818;stroke-width:1.0;" x1="1554" x2="1960.5" y1="885.9258" y2="885.9258"/><text fill="#000000" font-family="sans-serif" font-size="13" font-weight="bold" lengthAdjust="spacing" textLength="14" x="1561" y="880.6631">24</text><text fill="#000000" font-family="sans-serif" font-size="13" lengthAdjust="spacing" textLength="152" x="1579" y="880.6631">setValue(blindRollerValue)</text><polygon fill="#181818" points="1565,913.2168,1555,917.2168,1565,921.2168,1561,917.2168" style="stroke:#181818;stroke-width:1.0;"/><line style="stroke:#181818;stroke-width:1.0;stroke-dasharray:2.0,2.0;" x1="1559" x2="1970.5" y1="917.2168" y2="917.2168"/><text fill="#000000" font-family="sans-serif" font-size="13" font-weight="bold" lengthAdjust="spacing" textLength="14" x="1571" y="911.9541">25</text><text fill="#000000" font-family="sans-serif" font-size="13" lengthAdjust="spacing" textLength="93" x="1589" y="911.9541">blindRollerValue</text><polygon fill="#181818" points="540.5,944.5078,530.5,948.5078,540.5,952.5078,536.5,948.5078" style="stroke:#181818;stroke-width:1.0;"/><line style="stroke:#181818;stroke-width:1.0;stroke-dasharray:2.0,2.0;" x1="534.5" x2="1548" y1="948.5078" y2="948.5078"/><text fill="#000000" font-family="sans-serif" font-size="13" font-weight="bold" lengthAdjust="spacing" textLength="14" x="546.5" y="943.2451">26</text><text fill="#000000" font-family="sans-serif" font-size="13" lengthAdjust="spacing" textLength="93" x="564.5" y="943.2451">blindRollerValue</text><polygon fill="#181818" points="293.5,975.7988,283.5,979.7988,293.5,983.7988,289.5,979.7988" style="stroke:#181818;stroke-width:1.0;"/><line style="stroke:#181818;stroke-width:1.0;stroke-dasharray:2.0,2.0;" x1="287.5" x2="523.5" y1="979.7988" y2="979.7988"/><text fill="#000000" font-family="sans-serif" font-size="13" font-weight="bold" lengthAdjust="spacing" textLength="14" x="299.5" y="974.5361">27</text><text fill="#000000" font-family="sans-serif" font-size="13" lengthAdjust="spacing" textLength="93" x="317.5" y="974.5361">blindRollerValue</text><polygon fill="#181818" points="33.5,1007.0898,23.5,1011.0898,33.5,1015.0898,29.5,1011.0898" style="stroke:#181818;stroke-width:1.0;"/><line style="stroke:#181818;stroke-width:1.0;stroke-dasharray:2.0,2.0;" x1="27.5" x2="276.5" y1="1011.0898" y2="1011.0898"/><text fill="#000000" font-family="sans-serif" font-size="13" font-weight="bold" lengthAdjust="spacing" textLength="14" x="39.5" y="1005.8271">28</text><text fill="#000000" font-family="sans-serif" font-size="13" lengthAdjust="spacing" textLength="93" x="57.5" y="1005.8271">blindRollerValue</text><!--SRC=[dLPDZziW4BtpAwWlTQLDS_UXqcvoQAHANINRlHERJP6mSG6dpRylu606SBB9xc7533DldkUBVFwjTQ-gvRBdfDD3ox_Mebqg-cUWNKqN3IC7ILhqgPVaq1BCoKaC6gkMQj8HH0Ojkg7TKuaGDd-araBYufUYii14ONjm5psHcjMiDp7mbYgzueoQep4fWbWuqxtuXtUjiVykMfev5olHQIauFqS8OcwgQAU4V3drTBEkTa1mdb2H- -uvwvgj0tubVA3LKw9m6Aaonp4P6OX9Yc7mE1sTRn1phuOUMMrPhyy7v-65p7v7fRqPlyeTPvBU2yLCk9Er2b9c23x9Cqo-rAl7ajEkiIL36T2QQF94b6FbpmZPZi2BRw09Ahp1Vws35hZcmZhWFHS6TgmhPftHI25QP9B9ZaHJu8qGQ2U36_gX6j40yT8NmzLg_VBpIq04VOHgIQqgQf1mRwF0gogIS5ayKraRDkH0dssIcUWA42X2HP7h8k4F-nSrz0B4cMtMYZ7ZzBhADENH_WTCCqIKQZB6wTH0rZdScJaOX9XpkC0L54gbPH01Ou24W7tACimav0UTpyocWOjvURLXDHqj9oy0HXC2cYnJDdxM8PVWblQTc-uA7wZsV9zEDZoPouTV1iWl23TuVlGhBDusZUbKfa_p_c1D8B10R0hE0rtXDrDLGw6PHmY3Fws3HKB2-u7-Y58n8K06C1Vl0C2FcF9meICkG4nvl5oDiM9RIXhM7HGkVLKVeYc-epOVmRorNe-Sb_SLgOce_61AtrUZw_wtbEWwmdiLKbIF6wkSAVL3jhSYpMgGqap9Qx8Uvmeuyqg6s6KQPNxNXkTrxYcEidhZkWs8bv9x3MWsjSaBViqVlgpmhJOGziV0TMVmqFy7]--></g></svg>