<?xml version="1.0" encoding="us-ascii" standalone="no"?><svg xmlns="http://www.w3.org/2000/svg" xmlns:xlink="http://www.w3.org/1999/xlink" contentStyleType="text/css" height="820px" preserveAspectRatio="none" style="width:3174px;height:820px;background:#FFFFFF;" version="1.1" viewBox="0 0 3174 820" width="3174px" zoomAndPan="magnify"><defs/><g><rect fill="#FFFFFF" height="693.1699" style="stroke:#181818;stroke-width:1.0;" width="10" x="429" y="71.9121"/><rect fill="#FFFFFF" height="108.5332" style="stroke:#181818;stroke-width:1.0;" width="10" x="709" y="625.2578"/><rect fill="#FFFFFF" height="33.6211" style="stroke:#181818;stroke-width:1.0;" width="10" x="981.5" y="668.8789"/><rect fill="#FFFFFF" height="31.291" style="stroke:#181818;stroke-width:1.0;" width="10" x="1111" y="103.2031"/><rect fill="#FFFFFF" height="408.1816" style="stroke:#181818;stroke-width:1.0;" width="10" x="1592" y="144.4941"/><rect fill="#FFFFFF" height="333.2695" style="stroke:#181818;stroke-width:1.0;" width="10" x="2061.5" y="188.1152"/><rect fill="#FFFFFF" height="108.5332" style="stroke:#181818;stroke-width:1.0;" width="10" x="2393.5" y="231.7363"/><rect fill="#FFFFFF" height="33.6211" style="stroke:#181818;stroke-width:1.0;" width="10" x="2752" y="275.3574"/><rect fill="#FFFFFF" height="108.5332" style="stroke:#181818;stroke-width:1.0;" width="10" x="2868.5" y="381.5605"/><rect fill="#FFFFFF" height="64.9121" style="stroke:#181818;stroke-width:1.0;" width="10" x="3128.5" y="425.1816"/><line style="stroke:#181818;stroke-width:0.5;stroke-dasharray:5.0,5.0;" x1="14" x2="14" y1="38.6211" y2="783.082"/><line style="stroke:#181818;stroke-width:0.5;stroke-dasharray:5.0,5.0;" x1="434" x2="434" y1="38.6211" y2="783.082"/><line style="stroke:#181818;stroke-width:0.5;stroke-dasharray:5.0,5.0;" x1="714" x2="714" y1="623.7773" y2="783.082"/><line style="stroke:#181818;stroke-width:0.5;stroke-dasharray:5.0,5.0;" x1="986" x2="986" y1="667.3984" y2="783.082"/><line style="stroke:#181818;stroke-width:0.5;stroke-dasharray:5.0,5.0;" x1="1116" x2="1116" y1="38.6211" y2="783.082"/><line style="stroke:#181818;stroke-width:0.5;stroke-dasharray:5.0,5.0;" x1="1597" x2="1597" y1="143.0137" y2="783.082"/><line style="stroke:#181818;stroke-width:0.5;stroke-dasharray:5.0,5.0;" x1="2066" x2="2066" y1="186.6348" y2="783.082"/><line style="stroke:#181818;stroke-width:0.5;stroke-dasharray:5.0,5.0;" x1="2398.5" x2="2398.5" y1="230.2559" y2="783.082"/><line style="stroke:#181818;stroke-width:0.5;stroke-dasharray:5.0,5.0;" x1="2756.5" x2="2756.5" y1="273.877" y2="783.082"/><line style="stroke:#181818;stroke-width:0.5;stroke-dasharray:5.0,5.0;" x1="2873.5" x2="2873.5" y1="380.0801" y2="783.082"/><line style="stroke:#181818;stroke-width:0.5;stroke-dasharray:5.0,5.0;" x1="3133.5" x2="3133.5" y1="423.7012" y2="783.082"/><rect fill="#E2E2F0" height="32.6211" rx="2.5" ry="2.5" style="stroke:#181818;stroke-width:0.5;" width="18" x="5" y="5"/><text fill="#000000" font-family="sans-serif" font-size="14" lengthAdjust="spacing" textLength="4" x="12" y="27.1074">&#160;</text><rect fill="#E2E2F0" height="32.6211" rx="2.5" ry="2.5" style="stroke:#181818;stroke-width:0.5;" width="18" x="5" y="782.082"/><text fill="#000000" font-family="sans-serif" font-size="14" lengthAdjust="spacing" textLength="4" x="12" y="804.1895">&#160;</text><rect fill="#E2E2F0" height="32.6211" rx="2.5" ry="2.5" style="stroke:#181818;stroke-width:0.5;" width="236" x="316" y="5"/><text fill="#000000" font-family="sans-serif" font-size="14" lengthAdjust="spacing" textLength="222" x="323" y="27.1074">:ConfigureHouseLocationController</text><rect fill="#E2E2F0" height="32.6211" rx="2.5" ry="2.5" style="stroke:#181818;stroke-width:0.5;" width="236" x="316" y="782.082"/><text fill="#000000" font-family="sans-serif" font-size="14" lengthAdjust="spacing" textLength="222" x="323" y="804.1895">:ConfigureHouseLocationController</text><rect fill="#E2E2F0" height="32.6211" rx="2.5" ry="2.5" style="stroke:#181818;stroke-width:0.5;" width="138" x="645" y="782.082"/><text fill="#000000" font-family="sans-serif" font-size="14" lengthAdjust="spacing" textLength="124" x="652" y="804.1895">:LocationAssembler</text><rect fill="#E2E2F0" height="32.6211" rx="2.5" ry="2.5" style="stroke:#181818;stroke-width:0.5;" width="181" x="896" y="782.082"/><text fill="#000000" font-family="sans-serif" font-size="14" lengthAdjust="spacing" textLength="167" x="903" y="804.1895">locationDTO:LocationDTO</text><rect fill="#E2E2F0" height="32.6211" rx="2.5" ry="2.5" style="stroke:#181818;stroke-width:0.5;" width="58" x="1087" y="5"/><text fill="#000000" font-family="sans-serif" font-size="14" lengthAdjust="spacing" textLength="44" x="1094" y="27.1074">:House</text><rect fill="#E2E2F0" height="32.6211" rx="2.5" ry="2.5" style="stroke:#181818;stroke-width:0.5;" width="58" x="1087" y="782.082"/><text fill="#000000" font-family="sans-serif" font-size="14" lengthAdjust="spacing" textLength="44" x="1094" y="804.1895">:House</text><rect fill="#E2E2F0" height="32.6211" rx="2.5" ry="2.5" style="stroke:#181818;stroke-width:0.5;" width="120" x="1537" y="782.082"/><text fill="#000000" font-family="sans-serif" font-size="14" lengthAdjust="spacing" textLength="106" x="1544" y="804.1895">:LocationFactory</text><rect fill="#E2E2F0" height="32.6211" rx="2.5" ry="2.5" style="stroke:#181818;stroke-width:0.5;" width="121" x="2006" y="782.082"/><text fill="#000000" font-family="sans-serif" font-size="14" lengthAdjust="spacing" textLength="107" x="2013" y="804.1895">location:Location</text><rect fill="#E2E2F0" height="32.6211" rx="2.5" ry="2.5" style="stroke:#181818;stroke-width:0.5;" width="118" x="2339.5" y="782.082"/><text fill="#000000" font-family="sans-serif" font-size="14" lengthAdjust="spacing" textLength="104" x="2346.5" y="804.1895">:AddressFactory</text><rect fill="#E2E2F0" height="32.6211" rx="2.5" ry="2.5" style="stroke:#181818;stroke-width:0.5;" width="121" x="2696.5" y="782.082"/><text fill="#000000" font-family="sans-serif" font-size="14" lengthAdjust="spacing" textLength="107" x="2703.5" y="804.1895">address:Address</text><rect fill="#E2E2F0" height="32.6211" rx="2.5" ry="2.5" style="stroke:#181818;stroke-width:0.5;" width="92" x="2827.5" y="782.082"/><text fill="#000000" font-family="sans-serif" font-size="14" lengthAdjust="spacing" textLength="78" x="2834.5" y="804.1895">:GpsFactory</text><rect fill="#E2E2F0" height="32.6211" rx="2.5" ry="2.5" style="stroke:#181818;stroke-width:0.5;" width="70" x="3098.5" y="782.082"/><text fill="#000000" font-family="sans-serif" font-size="14" lengthAdjust="spacing" textLength="56" x="3105.5" y="804.1895">gps:GPS</text><rect fill="#FFFFFF" height="693.1699" style="stroke:#181818;stroke-width:1.0;" width="10" x="429" y="71.9121"/><rect fill="#FFFFFF" height="108.5332" style="stroke:#181818;stroke-width:1.0;" width="10" x="709" y="625.2578"/><rect fill="#FFFFFF" height="33.6211" style="stroke:#181818;stroke-width:1.0;" width="10" x="981.5" y="668.8789"/><rect fill="#FFFFFF" height="31.291" style="stroke:#181818;stroke-width:1.0;" width="10" x="1111" y="103.2031"/><rect fill="#FFFFFF" height="408.1816" style="stroke:#181818;stroke-width:1.0;" width="10" x="1592" y="144.4941"/><rect fill="#FFFFFF" height="333.2695" style="stroke:#181818;stroke-width:1.0;" width="10" x="2061.5" y="188.1152"/><rect fill="#FFFFFF" height="108.5332" style="stroke:#181818;stroke-width:1.0;" width="10" x="2393.5" y="231.7363"/><rect fill="#FFFFFF" height="33.6211" style="stroke:#181818;stroke-width:1.0;" width="10" x="2752" y="275.3574"/><rect fill="#FFFFFF" height="108.5332" style="stroke:#181818;stroke-width:1.0;" width="10" x="2868.5" y="381.5605"/><rect fill="#FFFFFF" height="64.9121" style="stroke:#181818;stroke-width:1.0;" width="10" x="3128.5" y="425.1816"/><ellipse cx="13.5" cy="71.1621" fill="none" rx="4" ry="4" style="stroke:#181818;stroke-width:1.5;"/><polygon fill="#181818" points="417,67.9121,427,71.9121,417,75.9121,421,71.9121" style="stroke:#181818;stroke-width:1.0;"/><line style="stroke:#181818;stroke-width:1.0;" x1="18" x2="423" y1="71.9121" y2="71.9121"/><text fill="#000000" font-family="sans-serif" font-size="13" font-weight="bold" lengthAdjust="spacing" textLength="7" x="21" y="66.6494">1</text><text fill="#000000" font-family="sans-serif" font-size="13" lengthAdjust="spacing" textLength="385" x="32" y="66.6494">configureLocation(street ,zipCode, doorNumber, latitude, longitude)</text><polygon fill="#181818" points="1099,99.2031,1109,103.2031,1099,107.2031,1103,103.2031" style="stroke:#181818;stroke-width:1.0;"/><line style="stroke:#181818;stroke-width:1.0;" x1="439" x2="1105" y1="103.2031" y2="103.2031"/><text fill="#000000" font-family="sans-serif" font-size="13" font-weight="bold" lengthAdjust="spacing" textLength="7" x="446" y="97.9404">2</text><text fill="#000000" font-family="sans-serif" font-size="13" lengthAdjust="spacing" textLength="389" x="457" y="97.9404">configureLocation (street ,zipCode, doorNumber, latitude, longitude)</text><polygon fill="#181818" points="1525,130.4941,1535,134.4941,1525,138.4941,1529,134.4941" style="stroke:#181818;stroke-width:1.0;"/><line style="stroke:#181818;stroke-width:1.0;" x1="1116" x2="1531" y1="134.4941" y2="134.4941"/><text fill="#000000" font-family="sans-serif" font-size="13" font-weight="bold" lengthAdjust="spacing" textLength="7" x="1123" y="129.2314">3</text><text fill="#000000" font-family="sans-serif" font-size="13" lengthAdjust="spacing" textLength="381" x="1134" y="129.2314">configureLocation(street,zipCode, doorNumber, latitude, longitude)</text><rect fill="#E2E2F0" height="32.6211" rx="2.5" ry="2.5" style="stroke:#181818;stroke-width:0.5;" width="120" x="1537" y="111.2031"/><text fill="#000000" font-family="sans-serif" font-size="14" lengthAdjust="spacing" textLength="106" x="1544" y="133.3105">:LocationFactory</text><polygon fill="#181818" points="1994,174.1152,2004,178.1152,1994,182.1152,1998,178.1152" style="stroke:#181818;stroke-width:1.0;"/><line style="stroke:#181818;stroke-width:1.0;" x1="1602" x2="2000" y1="178.1152" y2="178.1152"/><text fill="#000000" font-family="sans-serif" font-size="13" font-weight="bold" lengthAdjust="spacing" textLength="7" x="1609" y="172.8525">4</text><text fill="#000000" font-family="sans-serif" font-size="13" lengthAdjust="spacing" textLength="369" x="1620" y="172.8525">createLocation(street, zipCode, doorNumber, latitude, longitude)</text><rect fill="#E2E2F0" height="32.6211" rx="2.5" ry="2.5" style="stroke:#181818;stroke-width:0.5;" width="121" x="2006" y="154.8242"/><text fill="#000000" font-family="sans-serif" font-size="14" lengthAdjust="spacing" textLength="107" x="2013" y="176.9316">location:Location</text><polygon fill="#181818" points="2327.5,217.7363,2337.5,221.7363,2327.5,225.7363,2331.5,221.7363" style="stroke:#181818;stroke-width:1.0;"/><line style="stroke:#181818;stroke-width:1.0;" x1="2071.5" x2="2333.5" y1="221.7363" y2="221.7363"/><text fill="#000000" font-family="sans-serif" font-size="13" font-weight="bold" lengthAdjust="spacing" textLength="7" x="2078.5" y="216.4736">5</text><text fill="#000000" font-family="sans-serif" font-size="13" lengthAdjust="spacing" textLength="233" x="2089.5" y="216.4736">setAdress(street, zipCode, doorNumber)</text><rect fill="#E2E2F0" height="32.6211" rx="2.5" ry="2.5" style="stroke:#181818;stroke-width:0.5;" width="118" x="2339.5" y="198.4453"/><text fill="#000000" font-family="sans-serif" font-size="14" lengthAdjust="spacing" textLength="104" x="2346.5" y="220.5527">:AddressFactory</text><polygon fill="#181818" points="2684.5,261.3574,2694.5,265.3574,2684.5,269.3574,2688.5,265.3574" style="stroke:#181818;stroke-width:1.0;"/><line style="stroke:#181818;stroke-width:1.0;" x1="2403.5" x2="2690.5" y1="265.3574" y2="265.3574"/><text fill="#000000" font-family="sans-serif" font-size="13" font-weight="bold" lengthAdjust="spacing" textLength="7" x="2410.5" y="260.0947">6</text><text fill="#000000" font-family="sans-serif" font-size="13" lengthAdjust="spacing" textLength="258" x="2421.5" y="260.0947">createAddress(street, zipCode, doorNumber)</text><rect fill="#E2E2F0" height="32.6211" rx="2.5" ry="2.5" style="stroke:#181818;stroke-width:0.5;" width="121" x="2696.5" y="242.0664"/><text fill="#000000" font-family="sans-serif" font-size="14" lengthAdjust="spacing" textLength="107" x="2703.5" y="264.1738">address:Address</text><polygon fill="#181818" points="2414.5,304.9785,2404.5,308.9785,2414.5,312.9785,2410.5,308.9785" style="stroke:#181818;stroke-width:1.0;"/><line style="stroke:#181818;stroke-width:1.0;stroke-dasharray:2.0,2.0;" x1="2408.5" x2="2756" y1="308.9785" y2="308.9785"/><text fill="#000000" font-family="sans-serif" font-size="13" font-weight="bold" lengthAdjust="spacing" textLength="7" x="2420.5" y="303.7158">7</text><text fill="#000000" font-family="sans-serif" font-size="13" lengthAdjust="spacing" textLength="46" x="2431.5" y="303.7158">address</text><polygon fill="#181818" points="2082.5,336.2695,2072.5,340.2695,2082.5,344.2695,2078.5,340.2695" style="stroke:#181818;stroke-width:1.0;"/><line style="stroke:#181818;stroke-width:1.0;stroke-dasharray:2.0,2.0;" x1="2076.5" x2="2397.5" y1="340.2695" y2="340.2695"/><text fill="#000000" font-family="sans-serif" font-size="13" font-weight="bold" lengthAdjust="spacing" textLength="7" x="2088.5" y="335.0068">8</text><text fill="#000000" font-family="sans-serif" font-size="13" lengthAdjust="spacing" textLength="46" x="2099.5" y="335.0068">address</text><polygon fill="#181818" points="2815.5,367.5605,2825.5,371.5605,2815.5,375.5605,2819.5,371.5605" style="stroke:#181818;stroke-width:1.0;"/><line style="stroke:#181818;stroke-width:1.0;" x1="2071.5" x2="2821.5" y1="371.5605" y2="371.5605"/><text fill="#000000" font-family="sans-serif" font-size="13" font-weight="bold" lengthAdjust="spacing" textLength="7" x="2078.5" y="366.2979">9</text><text fill="#000000" font-family="sans-serif" font-size="13" lengthAdjust="spacing" textLength="201" x="2089.5" y="366.2979">setGpsLocation(latitude, longitude)</text><rect fill="#E2E2F0" height="32.6211" rx="2.5" ry="2.5" style="stroke:#181818;stroke-width:0.5;" width="92" x="2827.5" y="348.2695"/><text fill="#000000" font-family="sans-serif" font-size="14" lengthAdjust="spacing" textLength="78" x="2834.5" y="370.377">:GpsFactory</text><polygon fill="#181818" points="3086.5,411.1816,3096.5,415.1816,3086.5,419.1816,3090.5,415.1816" style="stroke:#181818;stroke-width:1.0;"/><line style="stroke:#181818;stroke-width:1.0;" x1="2878.5" x2="3092.5" y1="415.1816" y2="415.1816"/><text fill="#000000" font-family="sans-serif" font-size="13" font-weight="bold" lengthAdjust="spacing" textLength="14" x="2885.5" y="409.9189">10</text><text fill="#000000" font-family="sans-serif" font-size="13" lengthAdjust="spacing" textLength="178" x="2903.5" y="409.9189">createGPS (latitude, longitude)</text><rect fill="#E2E2F0" height="32.6211" rx="2.5" ry="2.5" style="stroke:#181818;stroke-width:0.5;" width="70" x="3098.5" y="391.8906"/><text fill="#000000" font-family="sans-serif" font-size="14" lengthAdjust="spacing" textLength="56" x="3105.5" y="413.998">gps:GPS</text><polygon fill="#181818" points="2889.5,454.8027,2879.5,458.8027,2889.5,462.8027,2885.5,458.8027" style="stroke:#181818;stroke-width:1.0;"/><line style="stroke:#181818;stroke-width:1.0;stroke-dasharray:2.0,2.0;" x1="2883.5" x2="3127.5" y1="458.8027" y2="458.8027"/><text fill="#000000" font-family="sans-serif" font-size="13" font-weight="bold" lengthAdjust="spacing" textLength="14" x="2895.5" y="453.54">11</text><text fill="#000000" font-family="sans-serif" font-size="13" lengthAdjust="spacing" textLength="21" x="2913.5" y="453.54">gps</text><polygon fill="#181818" points="2082.5,486.0938,2072.5,490.0938,2082.5,494.0938,2078.5,490.0938" style="stroke:#181818;stroke-width:1.0;"/><line style="stroke:#181818;stroke-width:1.0;stroke-dasharray:2.0,2.0;" x1="2076.5" x2="2872.5" y1="490.0938" y2="490.0938"/><text fill="#000000" font-family="sans-serif" font-size="13" font-weight="bold" lengthAdjust="spacing" textLength="14" x="2088.5" y="484.8311">12</text><text fill="#000000" font-family="sans-serif" font-size="13" lengthAdjust="spacing" textLength="21" x="2106.5" y="484.8311">gps</text><polygon fill="#181818" points="1613,517.3848,1603,521.3848,1613,525.3848,1609,521.3848" style="stroke:#181818;stroke-width:1.0;"/><line style="stroke:#181818;stroke-width:1.0;stroke-dasharray:2.0,2.0;" x1="1607" x2="2065.5" y1="521.3848" y2="521.3848"/><text fill="#000000" font-family="sans-serif" font-size="13" font-weight="bold" lengthAdjust="spacing" textLength="14" x="1619" y="516.1221">13</text><text fill="#000000" font-family="sans-serif" font-size="13" lengthAdjust="spacing" textLength="45" x="1637" y="516.1221">location</text><polygon fill="#181818" points="1127,548.6758,1117,552.6758,1127,556.6758,1123,552.6758" style="stroke:#181818;stroke-width:1.0;"/><line style="stroke:#181818;stroke-width:1.0;stroke-dasharray:2.0,2.0;" x1="1121" x2="1596" y1="552.6758" y2="552.6758"/><text fill="#000000" font-family="sans-serif" font-size="13" font-weight="bold" lengthAdjust="spacing" textLength="14" x="1133" y="547.4131">14</text><text fill="#000000" font-family="sans-serif" font-size="13" lengthAdjust="spacing" textLength="45" x="1151" y="547.4131">location</text><polygon fill="#181818" points="450,579.9668,440,583.9668,450,587.9668,446,583.9668" style="stroke:#181818;stroke-width:1.0;"/><line style="stroke:#181818;stroke-width:1.0;stroke-dasharray:2.0,2.0;" x1="444" x2="1115" y1="583.9668" y2="583.9668"/><text fill="#000000" font-family="sans-serif" font-size="13" font-weight="bold" lengthAdjust="spacing" textLength="14" x="456" y="578.7041">15</text><text fill="#000000" font-family="sans-serif" font-size="13" lengthAdjust="spacing" textLength="45" x="474" y="578.7041">location</text><polygon fill="#181818" points="633,611.2578,643,615.2578,633,619.2578,637,615.2578" style="stroke:#181818;stroke-width:1.0;"/><line style="stroke:#181818;stroke-width:1.0;" x1="439" x2="639" y1="615.2578" y2="615.2578"/><text fill="#000000" font-family="sans-serif" font-size="13" font-weight="bold" lengthAdjust="spacing" textLength="14" x="446" y="609.9951">16</text><text fill="#000000" font-family="sans-serif" font-size="13" lengthAdjust="spacing" textLength="164" x="464" y="609.9951">createLocationDTO(location)</text><rect fill="#E2E2F0" height="32.6211" rx="2.5" ry="2.5" style="stroke:#181818;stroke-width:0.5;" width="138" x="645" y="591.9668"/><text fill="#000000" font-family="sans-serif" font-size="14" lengthAdjust="spacing" textLength="124" x="652" y="614.0742">:LocationAssembler</text><polygon fill="#181818" points="884,654.8789,894,658.8789,884,662.8789,888,658.8789" style="stroke:#181818;stroke-width:1.0;"/><line style="stroke:#181818;stroke-width:1.0;" x1="719" x2="890" y1="658.8789" y2="658.8789"/><text fill="#000000" font-family="sans-serif" font-size="13" font-weight="bold" lengthAdjust="spacing" textLength="14" x="726" y="653.6162">17</text><text fill="#000000" font-family="sans-serif" font-size="13" lengthAdjust="spacing" textLength="135" x="744" y="653.6162">domainToDTO(location)</text><rect fill="#E2E2F0" height="32.6211" rx="2.5" ry="2.5" style="stroke:#181818;stroke-width:0.5;" width="181" x="896" y="635.5879"/><text fill="#000000" font-family="sans-serif" font-size="14" lengthAdjust="spacing" textLength="167" x="903" y="657.6953">locationDTO:LocationDTO</text><polygon fill="#181818" points="730,698.5,720,702.5,730,706.5,726,702.5" style="stroke:#181818;stroke-width:1.0;"/><line style="stroke:#181818;stroke-width:1.0;stroke-dasharray:2.0,2.0;" x1="724" x2="985.5" y1="702.5" y2="702.5"/><text fill="#000000" font-family="sans-serif" font-size="13" font-weight="bold" lengthAdjust="spacing" textLength="14" x="736" y="697.2373">18</text><text fill="#000000" font-family="sans-serif" font-size="13" lengthAdjust="spacing" textLength="71" x="754" y="697.2373">locationDTO</text><polygon fill="#181818" points="450,729.791,440,733.791,450,737.791,446,733.791" style="stroke:#181818;stroke-width:1.0;"/><line style="stroke:#181818;stroke-width:1.0;stroke-dasharray:2.0,2.0;" x1="444" x2="713" y1="733.791" y2="733.791"/><text fill="#000000" font-family="sans-serif" font-size="13" font-weight="bold" lengthAdjust="spacing" textLength="14" x="456" y="728.5283">19</text><text fill="#000000" font-family="sans-serif" font-size="13" lengthAdjust="spacing" textLength="71" x="474" y="728.5283">locationDTO</text><polygon fill="#181818" points="25,761.082,15,765.082,25,769.082,21,765.082" style="stroke:#181818;stroke-width:1.0;"/><line style="stroke:#181818;stroke-width:1.0;stroke-dasharray:2.0,2.0;" x1="19" x2="433" y1="765.082" y2="765.082"/><text fill="#000000" font-family="sans-serif" font-size="13" font-weight="bold" lengthAdjust="spacing" textLength="14" x="31" y="759.8193">20</text><text fill="#000000" font-family="sans-serif" font-size="13" lengthAdjust="spacing" textLength="71" x="49" y="759.8193">locationDTO</text><!--SRC=[fLN1RiCW3Btp5MYdJcf_88T9LQTrXschrEu3QCAgI6c8W4pQldw6131kqgcRSi76x_bXnz09RUkoxaHh-Hryml1t8pNhiB_OgFQZFlLQFglUo1TL2bkh5hnMgwQHskEIIT0XVcsCF1z3UBJow6OCVZoyHI2iFGJP98NNvMFyQaR0aoYjqbyPr-YR5X6H6OImhwjAIsCmUUxAuyMm5s0udX1lkumqcNdSgJF5ThSVOdPxnaHlLTkVZr1QrqkkLW-eEGKlGpV3WHR6QYajNtxNtKPLSiahfVIhfrZo1c9ixxoDQaz-USz0IFqfhCHTPsdD8QNl19z8n_-JR-XlgQKpQ1FPa1EIavtvGz-WeP94HJGlT11zZ0HWXI3D1rDT_0_5YVc20F8ZnWv0_dohu4RQjVTS4u1o4Uey8SjtKRvmtD6yBLcWvQk90uo3XTiqfmQLdry3ndx6Wg8XnCLCRbz8C6CxhtSCyOKCCCB9wxXtUnwgvjQ_CJeyXAs8BBWc42-jWTj5vqUoiDVTBkdOKsCMRauCcv-2S4jSnmKbut2Jswov-EVZmvBVHz5F9mwUaqLWmVzSv27Jx9wVk8b7sRrPyF-UHTqUr0mh9a7huOzE2j4pE5KIvyOQPcf2qDEL0Qnx9cPHAVO7]--></g></svg>